<svg xmlns="http://www.w3.org/2000/svg">
<defs>
<font id="UTMSharnay" horiz-adv-x="1333" >
  <font-face 
    font-family="UTM Sharnay"
    font-weight="400"
    font-stretch="normal"
    units-per-em="2048"
    panose-1="2 4 6 3 5 5 6 2 2 4"
    ascent="1638"
    descent="-410"
    x-height="999"
    cap-height="1430"
    bbox="-75 -495.001 4942 2399"
    underline-thickness="109"
    underline-position="-143"
    unicode-range="U+0020-U+2026"
  />
<missing-glyph horiz-adv-x="5040" 
d="M3351 2045h10c24.667 -6.66699 37 -24 37 -52c0 -8 -10.667 -27 -32 -57h-28c0 16 9.33301 34 28 54l2 10c-3.33301 8.66699 -6.66602 13.667 -10 15h-9c-5.33301 0 -8.66602 -6.33301 -10 -19h-30c4 32.667 18 49 42 49zM2019 2016l29.001 -31
c0 -10.667 -13.333 -20.667 -40 -30h-19l-59 12l-11 -12l-28 25c7.33301 19.333 21.666 29 42.999 29h11l42 -11h2c6.66699 0 16.667 6 30 18zM468.001 1980h142v-60h-94v-75h89v-59h-89v-129l-5 -5h-49v323zM1155 1980h43l6 -5v-78h30v-52h-30v-188l-6 -5h-49v193h-25v52
h25v78zM1621 1980h41.999l4 -5v-94h3c15.333 16 33.333 24 54 24h2c38.667 0 66.334 -23.667 83.001 -71l2 -39v-143h-52v115c0 53.333 -14 80 -42 80h-7c-28.667 0 -43 -28.667 -43 -86v-109h-51v323zM2200 1980l49 -0.000976562l5 -5v-222c6.66699 -34 21.667 -51 45 -51
c29.333 4.66699 44 24.334 44 59.001v214l5 5h49v-216c0 -56.667 -22 -94 -66 -112c-10 -5.33301 -21.667 -8 -35 -8c-31.333 0 -58.666 18.333 -82 55c-9.33301 16 -14 35 -14 57v224zM2435 1980h159v-60h-56v-268h-53v268h-55v55zM2621 1980l71 0.000976562
c4.66699 -2.66699 32.334 -86.334 83 -251.001h2l80 251h73v-328h-54v242h-2l-74 -242h-44c-2.66699 0 -22 60.667 -58 182l-19 60h-3v-242h-55v328zM3760 1980l52 -0.000976562v-328h-45l-5 5v11l3 2l-3 14c-19.333 -26.667 -45.333 -40 -78 -40
c-44.667 0 -78 30.333 -100 91l-5 39v3c0 62.667 30.667 104.334 92 125.001l23 3c23.333 0 44.333 -10.667 63 -32h3v107zM2057 1928l36 0.00195312l4 -6v-49h-45v-221h-48v23c-15.333 -20.667 -35 -31 -59 -31c-59.333 9.33301 -89 41.666 -89 96.999v156h51v-104

<glyph glyph-name=".notdef" horiz-adv-x="5040" 
d="M3351 2045h10c24.667 -6.66699 37 -24 37 -52c0 -8 -10.667 -27 -32 -57h-28c0 16 9.33301 34 28 54l2 10c-3.33301 8.66699 -6.66602 13.667 -10 15h-9c-5.33301 0 -8.66602 -6.33301 -10 -19h-30c4 32.667 18 49 42 49zM2019 2016l29.001 -31
c0 -10.667 -13.333 -20.667 -40 -30h-19l-59 12l-11 -12l-28 25c7.33301 19.333 21.666 29 42.999 29h11l42 -11h2c6.66699 0 16.667 6 30 18zM468.001 1980h142v-60h-94v-75h89v-59h-89v-129l-5 -5h-49v323zM1155 1980h43l6 -5v-78h30v-52h-30v-188l-6 -5h-49v193h-25v52
h25v78zM1621 1980h41.999l4 -5v-94h3c15.333 16 33.333 24 54 24h2c38.667 0 66.334 -23.667 83.001 -71l2 -39v-143h-52v115c0 53.333 -14 80 -42 80h-7c-28.667 0 -43 -28.667 -43 -86v-109h-51v323zM2200 1980l49 -0.000976562l5 -5v-222c6.66699 -34 21.667 -51 45 -51
c29.333 4.66699 44 24.334 44 59.001v214l5 5h49v-216c0 -56.667 -22 -94 -66 -112c-10 -5.33301 -21.667 -8 -35 -8c-31.333 0 -58.666 18.333 -82 55c-9.33301 16 -14 35 -14 57v224zM2435 1980h159v-60h-56v-268h-53v268h-55v55zM2621 1980l71 0.000976562
c4.66699 -2.66699 32.334 -86.334 83 -251.001h2l80 251h73v-328h-54v242h-2l-74 -242h-44c-2.66699 0 -22 60.667 -58 182l-19 60h-3v-242h-55v328zM3760 1980l52 -0.000976562v-328h-45l-5 5v11l3 2l-3 14c-19.333 -26.667 -45.333 -40 -78 -40
c-44.667 0 -78 30.333 -100 91l-5 39v3c0 62.667 30.667 104.334 92 125.001l23 3c23.333 0 44.333 -10.667 63 -32h3v107zM2057 1928l36 0.00195312l4 -6v-49h-45v-221h-48v23c-15.333 -20.667 -35 -31 -59 -31c-59.333 9.33301 -89 41.666 -89 96.999v156h51v-104
c0 -52.667 8.66699 -81.334 26 -86.001l18 -5h6c17.333 0 30.333 12 39 36l3 26v133h53v25zM3476 1928v-55h-31v-221h-47v25h-2c-10 -22 -29 -33 -57 -33c-45.333 0 -74 26 -86 78l-3 29v146h52v-120c0 -33.333 6.33301 -56 19 -68l21 -7h9c28 0 42 23 42 69v126h27
c2.66699 0 4 9.33301 4 28l3 3h49zM758 1905c45.333 0 79.667 -25.667 103 -77c6 -12 10 -30 12 -54c0 -58.667 -30 -101 -90 -127l-32 -3c-42 0 -75.667 24.333 -101 73c-8 14.667 -12 32 -12 52v10c0 62.667 33.667 104.667 101 126h19zM1011 1905h3
c49.333 0 77 -33.667 83 -101v-152h-51v119c0 50.667 -14 76 -42 76h-5c-29.333 0 -44 -25.333 -44 -76v-119h-52v245h46v-21c20 19.333 40.667 29 62 29zM1466 1905l7 -0.000976562c48 0 83 -29.667 105 -89h-60c-10.667 20.667 -24.667 31 -42 31h-17
c-35.333 -9.33301 -53 -29.666 -53 -60.999l-3 -15c8 -46 28.333 -69 61 -69h9c14.667 0 30.334 9 47.001 27h40l2 3h3l2 -3l2 3l3 -3l2 3l2 -7c-22 -54 -58.667 -81 -110 -81c-50.667 0 -87.334 31.333 -110.001 94l-4 36v3c0 56.667 25.667 96.667 77 120
c10 5.33301 22.333 8 37 8zM3141 1905h1.99902c32.667 0 56 -20 70 -60v-14h-52c0 10.667 -5.33301 16 -16 16h-4c-9.33301 0 -15.666 -4.33301 -18.999 -13v-13c0 -6 22.667 -17.667 68 -35c20 -12.667 30 -32.334 30 -59.001c0 -38.667 -20.333 -65.334 -61 -80.001
l-23 -3c-50.667 8 -76 35.667 -76 83h54c0 -13.333 9 -21.666 27 -24.999h4c12.667 0 20.667 7.66699 24 23c0 14.667 -22.667 29.334 -68 44.001c-22.667 18 -34 37.667 -34 59c0 44 24.667 69.667 74 77zM4203 1905c36.666 0 62.333 -21 77 -63
c4.66602 -12 7 -33.667 7 -65v-125h-52v112c0 55.333 -13.334 83 -40 83h-11c-22 0 -35.334 -18 -40 -54v-141h-52v5h-2l2 2v238h47v-21c16.666 19.333 38 29 64 29zM4432 1905h5c26.666 0 49.666 -13.333 69 -40v18l-3 3l3 11h47v-208c0 -64.667 -28.334 -108.667 -85 -132
l-33 -4h-7c-46.666 0 -81.333 26.667 -104 80h59c16 -14.667 31 -22.334 45 -23.001h13c14.666 0 29 7.33301 43 22c10 8.66699 17.334 26 22 52h-3c-21.334 -26.667 -45.667 -40 -73 -40c-38 0 -70 23.333 -96 70c-6.66602 12 -11.333 33 -14 63
c0 58.667 29 100.334 87 125.001zM3851 1897l53 -0.000976562v-136c4 -39.333 17.333 -59 40 -59h7c30.667 0 46 31 46 93v102h51v-245h-47l-3 10h3l-3 3v5l3 2v3h-4c0 -15.333 -19 -25.666 -57 -30.999h-3c-39.333 0 -67.333 25 -84 75l-2 85v93zM690 1771
c6.66699 -46 27.6689 -69 63.002 -69h7c39.333 9.33301 59 31 59 65v15c-8.66699 43.333 -28.334 65 -59.001 65h-5c-38.667 0 -60.334 -25.333 -65.001 -76zM3630 1774c8.66699 -48 29 -72 61 -72h5c38.667 0 60.667 25 66 75c0 32.667 -17 56 -51 70h-22
c-24.667 0 -43.334 -19 -56 -57zM4374 1774c5.33398 -48 27 -71.999 65 -71.999h5c39.334 8 59 32 59 72c0 40.667 -19.666 65 -59 73h-14c-37.334 -10.667 -56 -31.334 -56 -62.001v-11zM3928 1620h52v-57h-52v57zM1054 1402c28.667 -7.33301 43 -23.667 43 -49v-4
c0 -11.333 -10.667 -31.333 -32 -60h-28c0 16.667 10.333 35.667 31 57v7c0 8 -2.33301 13 -7 15h-12c-6.66699 -2.66699 -10 -9 -10 -19h-28v6c0 21.333 11 36 33 44zM3349 1339c61.333 0 107.333 -33.001 138 -99.001h-60c-24.667 28 -51.334 42 -80 42
c-36.667 0 -65.667 -22.667 -87 -68c-6.66699 -14.667 -10 -30.334 -10 -47.001c0 -52 27 -88.667 81 -110l18 -1c24 0 49 13 75 39h61c-29.333 -64.667 -75.333 -97 -138 -97c-62 0 -109 37.333 -141 112c-6.66699 20.667 -10 41.334 -10 62.001
c0 64.667 30 115.334 90 152.001c19.333 10 40.333 15 63 15zM3664 1339c38 0 72.333 -15.666 103 -46.999c30.667 -34 46 -72.333 46 -115v-20c0 -59.333 -30.333 -108 -91 -146c-22 -8.66699 -43 -13 -63 -13c-59.333 0 -105.333 33.667 -138 101
c-8.66699 22 -13 42 -13 60v18c0 65.333 32.667 115.666 98 150.999c19.333 7.33301 38.666 11 58 11zM2261 1337h2l47 -11h3c7.33301 0 16 3.66699 26 11l18 -36c-12 -12.667 -23.667 -19 -35 -19h-3l-54 10l-20 -7l-20 36c12 10.667 24 16 36 16zM716.002 1334h19
c78.667 0 121.667 -8.66699 129 -26c16.667 -17.333 25 -38 25 -62c-6.66699 -38 -16.667 -57 -30 -57v-6c31.333 -15.333 47 -37.333 47 -66v-18c0 -42 -23 -71.333 -69 -88l-54 -5h-67v328zM2550 1334h53v-217c4 -40.667 19 -61 45 -61c19.333 0 34 13 44 39l3 30v203l4 6
h45l5 -6v-171c0 -78.667 -13.333 -123 -40 -133c-16 -17.333 -37.333 -26 -64 -26c-36.667 0 -67 25.333 -91 76l-4 54v206zM2805 1334h59c2.66699 0 43.334 -79 122 -237h4v237h50l4 -6v-322h-58c-19.333 32 -61 111.333 -125 238h-3v-238h-53v328zM3101 1334h54v-328h-54
v328zM3859 1334l8 0.000976562c103.333 0 161.333 -13.333 174 -40c15.333 -7.33301 31 -32.333 47 -75l4 -36v-11l3 -2c0 -62.667 -27.333 -112.334 -82 -149.001c-23.333 -10 -56.333 -15 -99 -15h-55v328zM4141 1334h153v-60h-103v-75h101v-57h-101v-74l4 -5h99v-57h-157
v322zM3563 1175v-10c0 -50.667 26.333 -86.667 79 -108l19 -1c45.333 0 77.333 28.667 96 86l3 20v15c0 40.667 -20 72 -60 94c-8 5.33301 -21 9 -39 11c-44 0 -76 -27.667 -96 -83zM770.002 1274v-67h9c36 0 54 9.33301 54 28l3 14c-7.33301 16.667 -17 25 -29 25h-37z
M3912 1274v-206.001l2 -3v-2c69.333 0 110 25.333 122 76l2 15v29c0 22.667 -10.667 45.334 -32 68.001c-16.667 15.333 -42.667 23 -78 23h-16zM1041 1259h5c25.333 0 49 -13.333 71 -40v32h49v-245h-49v32c-24 -26.667 -50.667 -40 -80 -40c-50 0 -83.667 32.333 -101 97
l-5 36c0 59.333 28.333 101 85 125zM1314 1259h3c49.333 0 77 -34 83 -102v-151h-51v128c0 44.667 -14 67 -42 67h-10c-22.667 0 -35.667 -20.667 -39 -62v-133h-52v245h47v-21c18.667 19.333 39 29 61 29zM1543 1259h5c30 0 53.667 -13.333 71 -40v32h47v-219
c0 -63.333 -34.667 -105.333 -104 -126h-16c-49.333 0 -85.333 27.333 -108 82h59c17.333 -16.667 32 -25 44 -25h14c34.667 0 56 25.667 64 77c-22 -28 -47.333 -42 -76 -42c-40 0 -73.667 27 -101 81l-7 44v16c0 52.667 28.333 91.667 85 117zM1912 1259l2 0.000976562
c28.667 0 49 -12.333 61 -37h2c21.333 24.667 44.333 37 69 37h4c38 0 64.333 -18.333 79 -55c5.33301 -16.667 8 -31.667 8 -45v-153h-52v138c0 29.333 -7.66699 47.666 -23 54.999l-12 2h-15c-21.333 0 -33.333 -21.667 -36 -65v-130h-52v136c0 39.333 -14.333 59 -43 59
h-8c-21.333 0 -33.333 -19 -36 -57v-138h-54v245h50v-21h2c4 16 22 25.667 54 29zM2282 1259c31.333 0 56.333 -14 75 -42v34h47v-245h-47v32c-24 -26.667 -50 -40 -78 -40c-49.333 0 -83.333 30.667 -102 92l-6 41c0 60 28.333 101.667 85 125zM985.002 1117
c0 -32 20.333 -52.333 61 -61h4c30 0 50.667 15.333 62 46l3 15v22c-8 41.333 -27 62 -57 62h-14c-27.333 0 -47 -19 -59 -57v-27zM1487 1128c0 -32 14.332 -54.667 42.999 -68l18 -4h5c31.333 0 52.333 19 63 57v23c-7.33301 43.333 -26.666 65 -57.999 65h-12
c-33.333 0 -53 -24.333 -59 -73zM2225 1131v-14.001c10 -40.667 29 -61 57 -61h14c38.667 8 58 29.333 58 64v11c0 30 -12.333 51.667 -37 65l-18 5h-10c-42.667 -5.33301 -64 -28.666 -64 -69.999zM770.001 1150v-82c0 -3.33301 2.33301 -5 7 -5c51.333 0 77 15 77 45
c0 22.667 -15.667 36.667 -47 42h-37zM2966 752.999l24 -28l-51 -55c-12 8 -21 16.667 -27 26zM1524 726.999l85 -54c0 -10 -7 -24 -21 -42l-87 54c12 27.333 19.667 41.333 23 42zM2850 692.999h38l55 -60h-54l-21 26l-23 -26h-54c36 40 55.667 60 59 60zM3422 692.999h40
l56 -60h-54l-24 26h-1c0 -3.33301 -6.33301 -12 -19 -26h-54zM622.001 684.999l52 0.00195312c5.33301 -2.66699 21 -48.334 47 -137.001l34 -110c6 5.33301 17.333 38.666 34 99.999l48 147h54v-2l-112 -326h-44zM1159 685.001h51v-54h-51v54zM1354 685.001h46l6 -5v-323
h-52v328zM2317 685.001h45l4 -5v-78h31v-52h-31v-193h-53v193h-26v52h26v78zM2425 685.001h52v-98h2c15.333 15.333 33.333 23 54 23h3c38 0 65 -23.667 81 -71l3 -38v-144h-52v115c0 54 -13 81 -39 81h-10c-28 0 -42 -29 -42 -87v-109h-52v328zM2664 685.001h52v-54h-52v54
zM3028 685.001h44l6 -5v-78h29v-52h-29v-193h-54v193h-27v52h27v78zM3234 685.001h52v-328h-52v328zM3957 685.001h52v-328h-52v328zM4316 685.001h51v-54h-51v54zM1555 610.001h5c55.333 0 92 -34 110 -102l3 -23v-11c0 -55.333 -28.333 -95.333 -85 -120l-35 -5
c-50.667 0 -87.667 32.333 -111 97l-4 32c0 64.667 31 108 93 130zM1811 610.001h4c35.333 0 61.333 -20 78 -60c4.66699 -16.667 7 -43.667 7 -81v-112h-54v146c-4.66699 33.333 -17 50 -37 50h-10c-25.333 0 -39.333 -19 -42 -57v-139h-54v245h49v-21
c17.333 19.333 37 29 59 29zM2046 610.001h4.00098c30 0 51 -13 63 -39h3v31h49v-206c0 -68 -29.667 -113 -89 -135l-28 -3h-5c-48.667 0 -84 27 -106 81h52l37 -20l15 -3h14c33.333 0 53.666 24 60.999 72c-22 -26 -46.333 -39 -73 -39c-41.333 0 -74 25.333 -98 76
c-7.33301 15.333 -11.333 35.333 -12 60c0 56.667 28.667 97.667 86 123zM2866 610.001l2 -0.000976562c54.667 0 91.667 -34.667 111 -104l2 -25l-2 -27h-172c10 -30 25 -45 45 -45l14 -3c19.333 0 35.666 7.33301 49 22h57v-3c-23.333 -50.667 -59.333 -76 -108 -76
c-51.333 0 -88.333 32.333 -111 97l-1 28v8c0 32.667 10.667 62.334 32 89.001c22.667 26 50 39 82 39zM3429 610h5c27.333 0 50.666 -13 70 -39h2v31h47v-245h-47v31h-2c-23.333 -26 -49 -39 -77 -39c-47.333 0 -81 29.667 -101 89l-5 36v14c0 57.333 28 97.333 84 120z
M3711 610l7 -0.000976562c58.667 0 94.334 -42.667 107 -128l-2 -1v-15c0 -43.333 -22 -78.666 -66 -105.999c-14 -7.33301 -29.333 -11 -46 -11c-22.667 0 -44 10.667 -64 32v-99l-5 -5h-49v325h49v-28c20.667 24 43.667 36 69 36zM4151 609.999
c29.334 0 54.334 -13 75 -39v31h49v-245h-49v31c-23.334 -26 -49 -39 -77 -39c-61.333 0 -97.333 44 -108 132c0 56 24.333 96.333 73 121c10 5.33301 22.334 8 37 8zM922.002 601.999h50v-136c2 -40 16 -60 42 -60h5c29.333 0 44 29 44 87v109h52v-245h-47v24h-5
c0 -15.333 -18.667 -26 -56 -32h-3c-36.667 0 -64 22.667 -82 68c-2.66699 23.333 -4 56.333 -4 99v81zM1159 601.999h51v-245h-51v245zM2664 601.999h52v-245h-52v245zM4316 601.999h51v-245h-51v245zM1492 487.999v-15.999c8.66699 -44 28.334 -66 59.001 -66h4
c39.333 0 61.333 25.333 66 76c-8.66699 47.333 -28.334 71 -59.001 71h-11c-39.333 -10.667 -59 -32.334 -59 -65.001zM1987 472c10 -44 29.667 -66 59 -66h11c32 0 51.667 25 59 75v1c-8.66699 47.333 -28.334 71 -59 71h-14c-26 0 -44.667 -19 -56 -57v-24zM2805 506h122
v2c-10.667 30 -30.334 45 -59 45h-7c-23.333 0 -42 -15.667 -56 -47zM3373 474c8.66699 -45.333 29 -68 61 -68h5c34.667 0 56.334 21 65 63v12c-6.66699 48 -25.667 72 -57 72h-16c-37.333 -9.33301 -56 -30.333 -56 -63zM3642 478c8 -48 28.333 -72.001 61 -72.001h3
c33.333 0 55 20 65 60v22c0 28.667 -16.333 50.334 -49 65.001h-22c-31.333 0 -50.666 -24 -58 -72v-3zM4095 471.999c6.66602 -44 28.666 -66 66 -66c28.666 0 49 16 61 48l2 15v16c0 36 -17.334 58.667 -52 68h-18c-28 0 -47.666 -20 -59 -60v-21zM3416 320.999h51v-52
h-51v52zM4137 320.999h51v-52h-51v52zM2733 132.999h4c23.333 0 37.666 -16.667 43 -50v-2c0 -10.667 -8 -24.334 -24 -41.001l-10 -17h-28c0 16.667 9.33301 35.334 28 56.001l3 2v2c-2 12.667 -5 19 -9 19h-10c-5.33301 0 -8.33301 -6.33301 -9 -19h-30
c4 33.333 18 50 42 50zM1546 115.999l52 -60l-26 -19l-52 52zM352.002 78.999h4c50 -32 78.333 -52 85 -60l-20 -37c-58.667 32.667 -88 52 -88 58zM3490 78.999l86 -58l-18 -39c-6.66699 0 -37 18.333 -91 55c10 24 17.667 38 23 42zM4578 75.999l19 -42l-91 -52l-20 39
l92 58v-3zM1204 52.999h51v-19l5 -5h14v-36h-14l-5 -5v-279h-46v31c-22.667 -26.667 -49.667 -40 -81 -40c-48 0 -82 35 -102 105l-3 26c0 68 33.667 111.667 101 131h14c22 0 44 -11 66 -33v59l-6 5h-43v36h49v24zM1480 44.999h40l56 -61h-53l-23 27l-23 -27h-53z
M2641 44.999h33c8 0 29 -20.333 63 -61h-54l-23 27c-12.667 -14 -19 -23 -19 -27h-58v4zM49.002 36.999h160v-60h-56v-268h-50l-4 5v245l2 3v2l-2 2l2 3l-2 2l2 3l-2 3h-54v54zM699.002 36.999h47v-73l2 -2l-2 -3v-3l2 -2l-2 -3v-3l2 -2v-2l-2 -3l2 -3h3
c11.333 16 28.333 24 51 24h3c35.333 0 61 -19.333 77 -58c4.66699 -11.333 7 -25.333 7 -42v-153h-52v127c0 45.333 -13.333 68 -40 68h-8c-28.667 0 -43 -28.667 -43 -86v-109h-52v322zM1297 36.999h47l5 -6v-49h-52v55zM1987 36.999h52v-198l70 115h62l-78 -118l90 -125
v-2h-70c-6.66699 14.667 -31.334 53 -74 115v-115h-52v328zM2271 36.999v-98.999c16 16 33.667 24 53 24c38 0 64.667 -18.667 80 -56c6.66699 -12.667 10 -38.334 10 -77.001v-120h-54v133c0 41.333 -13.667 62 -41 62h-11c-20.667 0 -33 -18.333 -37 -55v-140h-53v314
l-1 3v3l1 2l-1 3l1 3h53zM2458 37h51v-55h-51v55zM3148 37h51v-108c18 22 40.667 33 68 33h3c50 0 85 -31.333 105 -94l5 -37c0 -50 -21.333 -90 -64 -120c-20 -7.33301 -36.333 -11 -49 -11c-27.333 0 -51.333 13.333 -72 40v-31h-47v328zM4275 37h52v-99h2
c15.334 16 33.334 24 54 24h3c40 0 67.334 -24.667 82 -74l2 -41v-138h-52v111c0 54.667 -10.666 82 -32 82l-10 2h-12c-24.666 0 -37 -26.667 -37 -80v-115h-52v328zM329.002 -38h3v-58h-5c-28 0 -42 -19 -42 -57v-138h-53v245h47v-21c12 19.333 28.667 29 50 29z
M564.002 -38c47.333 0 75.999 -29 85.999 -87v-166h-51v136c-4 39.333 -17.667 59 -41 59h-6c-30 0 -45 -28 -45 -84v-111h-52v245h50v-21c16.667 19.333 36.334 29 59.001 29zM1504 -38c48 0 83 -31.333 105 -94l5 -39c-1.33301 -16 -3.66602 -24 -6.99902 -24h-169
c11.333 -31.333 32 -47 62 -47c16 0 32 7 48 21h57c-22 -52.667 -58 -79 -108 -79c-54.667 0 -92.334 35 -113.001 105v37c0 54 29.667 93 89 117zM2657 -38h5c51.333 0 87 -32.333 107 -97l3 -26v-21l-3 -13h-170c12 -31.333 29.667 -47 53 -47h12c14 0 28 7 42 21h59
c-22.667 -52.667 -57.667 -79 -105 -79c-56 0 -94.333 34 -115 102l-2 29c0 62 30.333 104.667 91 128zM2915 -38h3.99902c36 0 62 -20 78 -60c4.66699 -16.667 7 -44 7 -82v-111h-54v138c0 32 -11.667 51 -35 57h-11c-25.333 0 -39.666 -19 -42.999 -57v-138h-54v245h50
v-21c16.667 19.333 36 29 58 29zM3508 -38h6c26.667 0 50 -13.333 70 -40h2v32h47v-245h-47v31h-2c-22.667 -26.667 -48.667 -40 -78 -40c-47.333 0 -81 30 -101 90l-4 37v12c0 54.667 25.667 93.667 77 117c7.33301 4 17.333 6 30 6zM3781 -38h4
c41.333 0 68.666 -26 82 -78l3 -84v-91h-54v138c0 32 -12.667 51 -38 57h-9c-25.333 0 -39.333 -17.333 -42 -52v-143h-54v245h49v-21c17.333 19.333 37 29 59 29zM4133 -38h1c49.334 0 84 -31 104 -93l4 -40c0 -58.667 -28 -100.667 -84 -126l-25 -3
c-27.333 0 -50 11.333 -68 34v-106h-52v326h47v-29c20 24.667 44.334 37 73 37zM4714 -38h5c22.666 0 43.666 -12.333 63 -37c18 24.667 41 37 69 37h6c37.334 0 63.667 -22 79 -66l6 -51v-136h-52v122c0 48.667 -13 73 -39 73h-7c-23.334 0 -37 -16.667 -41 -50v-140l-5 -5
h-48v140c0 28 -10.334 46.333 -31 55h-17c-26.666 0 -40 -25.667 -40 -77v-118h-51v245h47v-21c14.666 19.333 33.333 29 56 29zM359 -46h49l5 -6v-234l-5 -5h-49v245zM1297 -46h52v-245h-52v245zM1649 -46h52v-136c2.66699 -40 17 -60 43 -60h4c29.333 0 44 27 44 81v115
h52v-245h-47v24h-5c-8 -22 -27.667 -33 -59 -33c-34.667 0 -61 21 -79 63c-3.33301 8 -5 19.333 -5 34v157zM2458 -46h51v-245h-51v245zM4515 -46h51v-245h-51v245zM1077 -169c0 -35.333 16.999 -59.666 50.999 -72.999h12c36 0 58 22 66 66v10
c0 35.333 -18 58.666 -54 69.999h-17c-25.333 0 -44.666 -19 -57.999 -57v-16zM1438 -143h122.001c-12 31.333 -29.667 47 -53 47h-7c-28.667 0 -49.334 -14.667 -62.001 -44v-3zM2599 -143h122c-14 31.333 -32 47 -54 47h-7c-30.667 0 -51 -15.667 -61 -47zM3196 -158v-11
c6.66699 -48.667 27 -73 61 -73h5c42.667 5.33301 64 29 64 71v5c0 30 -12.667 51.667 -38 65l-18 5h-14c-40 -9.33301 -60 -30 -60 -62zM3452 -173c9.33301 -46 30 -69 62 -69h11c27.333 0 47 20 59 60v13c-5.33301 48.667 -24 73 -56 73h-17
c-31.333 0 -51 -24.333 -59 -73v-4zM4062 -158v-22c0 -31.333 19.667 -52 59 -62h9c33.334 0 53.667 25.333 61 76c-8.66602 46.667 -28 70 -58 70h-15c-37.333 -11.333 -56 -32 -56 -62z" />
    <glyph glyph-name="space" unicode=" " horiz-adv-x="577" 
 />
    <glyph glyph-name="exclam" unicode="!" horiz-adv-x="690" 
d="M907 1430l-254 -889h-373l109 889h518zM340 -27c-58.667 0 -106.833 18.167 -144.5 54.5s-56.5 83.166 -56.5 140.499c0 78 31.333 147.333 94 208s133 91 211 91c58.667 0 107.167 -18.833 145.5 -56.5s57.5 -84.5 57.5 -140.5c0 -77.333 -31.5 -146.166 -94.5 -206.499
s-133.833 -90.5 -212.5 -90.5z" />
    <glyph glyph-name="quotedbl" unicode="&#x22;" horiz-adv-x="847" 
d="M1091 1430l-150 -502h-287l152 502h285zM689 1430l-149 -502h-287l152 502h284z" />
    <glyph glyph-name="numbersign" unicode="#" horiz-adv-x="1165" 
d="M1327 1028l-62 -143h-227l-145 -340h227l-59 -144h-230l-172 -401h-143l172 401h-172l-172 -401h-144l172 401h-229l61 144h230l143 340h-227l59 143h232l168 402h143l-168 -402h170l170 402h143l-170 -402h230zM895 885h-174l-144 -340h172z" />
    <glyph glyph-name="dollar" unicode="$" horiz-adv-x="1226" 
d="M1407 1311l-197.001 -373.001c-98 82 -191.333 123 -280 123c-34.667 0 -64 -8.33301 -88 -25c-19.333 -13.333 -31 -29 -35 -47c-5.33301 -27.333 33.334 -52 116.001 -74c118 -32.667 198 -62 240 -88c88.667 -54.667 133 -131.667 133 -231
c0 -28.667 -3.33301 -59.334 -10 -92.001c-38 -178.667 -140.333 -318.667 -307 -420c-70 -44 -150 -77.333 -240 -100l-26 -127h-273l25 110c-166.667 26 -304.667 82 -414 168l229 422c105.333 -116 213.333 -174 324 -174c72.667 0 113.667 24 123 72
c6.66699 30 -31 56.667 -113 80c-117.333 32.667 -195.666 60.334 -234.999 83.001c-86 52 -129 128 -129 228c0 28.667 3.33301 59.334 10 92.001c26 124 95.667 236 209 336c109.333 95.333 213 143 311 143l33 150h276l-28 -135c107.333 0 222.666 -40.333 345.999 -121z
" />
    <glyph glyph-name="percent" unicode="%" horiz-adv-x="1542" 
d="M573 729c-86 0 -156.333 26.668 -211 80.001s-82 121 -82 203c0 23.333 2.66699 47.666 8 72.999c20.667 97.333 73.334 180.833 158.001 250.5s176.667 104.5 276 104.5c84.667 0 155 -27 211 -81s84 -121.333 84 -202c0 -109.333 -46.333 -208 -139 -296
s-194.334 -132 -305.001 -132zM1693 1430l-1327 -1430h-209l1329 1430h207zM1556 340.001c-22 -100 -74.667 -183.334 -158 -250.001s-173.333 -100 -270 -100c-84.667 0 -153.667 26.667 -207 80s-80 120 -80 200c0 24.667 2.66699 49.334 8 74.001
c20.667 96.667 72.667 179.5 156 248.5s174 103.5 272 103.5c88.667 0 159.667 -26.667 213 -80c49.333 -51.333 74 -117.333 74 -198c0 -24.667 -2.66699 -50.667 -8 -78zM743 1083c5.33301 26 8 49.334 8 70.001c0 65.333 -22.667 98 -68 98
c-31.333 0 -60 -19.667 -86 -59c-22.667 -32.667 -38.334 -68.334 -47.001 -107.001c-4 -20 -6 -40.333 -6 -61c0 -70.667 22.667 -106 68 -106c62.667 0 106.334 55 131.001 165zM1302 344.001c5.33301 26 8 49.335 8 70.002c0 68 -23.333 102 -70 102
c-31.333 0 -60.666 -19.667 -87.999 -59c-21.333 -32.667 -37 -70.334 -47 -113.001c-5.33301 -26 -8 -49.333 -8 -70c0 -69.333 23.333 -104 70 -104c31.333 0 60.666 19.667 87.999 59c21.333 33.333 37 71.666 47 114.999z" />
    <glyph glyph-name="ampersand" unicode="&#x26;" horiz-adv-x="1759" 
d="M1788 0h-615.001l-76 86c-159.333 -75.333 -319.666 -113 -480.999 -113c-151.333 0 -270.666 39 -357.999 117c-79.333 71.333 -119 158.666 -119 261.999c0 26 2.66699 51.333 8 76c40 186 183.333 311.667 430 377c-48.667 54.667 -73 118.667 -73 192
c0 20.667 2 42 6 64c23.333 110.667 92.666 203.834 207.999 279.501s250.666 113.5 405.999 113.5c143.333 0 255.333 -34 336 -102c74 -63.333 111 -143.333 111 -240c0 -24.667 -3 -49.334 -9 -74.001c-32.667 -151.333 -150 -264.666 -352 -339.999
c24.667 -43.333 53.334 -82.666 86.001 -117.999c94 54.667 185.667 122.667 275 204l204 -295c-68 -62.667 -156.667 -125.334 -266 -188.001c70 -92.667 163 -193 279 -301zM1149 1085c0 45.333 -22.6689 68 -68.002 68c-23.333 0 -45.166 -8.5 -65.499 -25.5
s-33.166 -36.5 -38.499 -58.5c-7.33301 -30 11 -71 55 -123c78 88.667 117 135 117 139zM879.997 362l-137 191c-62.667 -78 -94 -119 -94 -123c0 -60 37 -90 111 -90c46 0 86 7.33301 120 22z" />
    <glyph glyph-name="quotesingle" unicode="'" horiz-adv-x="446" 
d="M689 1430l-149 -502h-287l152 502h284z" />
    <glyph glyph-name="parenleft" unicode="(" horiz-adv-x="745" 
d="M1046 1417c-142 -110.667 -255.333 -244.332 -340 -400.999c-90 -165.333 -135 -334 -135 -506c0 -196.667 58.667 -363.334 176 -500.001l-283 -250c-181.333 184.667 -272 417.667 -272 699c0 84.667 9.66699 170.667 29 258c38 178.667 114.667 352.667 230 522
s255 312 419 428z" />
    <glyph glyph-name="parenright" unicode=")" horiz-adv-x="747" 
d="M827 715c-39.333 -190 -117 -368 -233 -534s-260 -305.667 -432 -419l-160 246c142 109.333 256 242 342 398c92.667 164.667 139 331.667 139 501c0 195.333 -60 366.666 -180 513.999l264 246c192.667 -177.333 289 -408.666 289 -693.999
c0 -84.667 -9.66699 -170.667 -29 -258z" />
    <glyph glyph-name="asterisk" unicode="*" horiz-adv-x="872" 
d="M921 1032c-20.667 0 -41.3291 4.5 -61.9961 13.5s-37.667 13.5 -51 13.5c-34 0 -53.667 -11.667 -59 -35c-4.66699 -20.667 9.66602 -31 42.999 -31c22.667 0 45.667 4.5 69 13.5s42.666 13.5 57.999 13.5c34 0 61.833 -9.83301 83.5 -29.5s32.5 -45.5 32.5 -77.5
c0 -43.333 -18.333 -82.5 -55 -117.5s-77.667 -52.5 -123 -52.5c-48 0 -80 18 -96 54c-5.33301 12 -11 44 -17 96c-4 35.333 -15.333 53 -34 53c-20.667 0 -33.667 -13 -39 -39c-2.66699 -9.33301 8.5 -29.666 33.5 -60.999s37.5 -62.666 37.5 -93.999
c0 -11.333 -1.33301 -22.333 -4 -33c-18.667 -84.667 -77.334 -127 -176.001 -127c-84.667 0 -127 32.667 -127 98c0 8 0.666992 17 2 27c8.66699 40.667 35.167 80.5 79.5 119.5s67.166 63.167 68.499 72.5c5.33301 24.667 -2.33398 37 -23.001 37
c-18.667 0 -37.667 -17.667 -57 -53c-27.333 -52 -47.333 -84 -60 -96c-30 -36 -69.333 -54 -118 -54c-32.667 0 -60 10.667 -82 32s-33 49 -33 83c0 45.333 17.667 83.666 53 114.999s75.666 47 120.999 47c15.333 0 33.833 -4.5 55.5 -13.5s39.5 -13.5 53.5 -13.5
c36.667 0 56.334 11 59.001 33c6.66699 20.667 -6.33301 31 -39 31c-13.333 0 -35 -4.5 -65 -13.5s-50.667 -13.5 -62 -13.5c-76.667 0 -115.667 35 -117 105c0 43.333 18.5 82.833 55.5 118.5s78.167 53.5 123.5 53.5c50 0 83.333 -18 100 -54c5.33301 -12 10 -44 14 -96
c2.66699 -35.333 14.334 -53 35.001 -53c19.333 0 31.666 13 36.999 39c2.66699 10.667 -8.66602 31.667 -33.999 63s-38 62.666 -38 93.999c0 11.333 1.33301 22.333 4 33c8.66699 37.333 29 67.5 61 90.5s70.333 34.5 115 34.5c84.667 0 127 -31.333 127 -94
c0 -8 -0.666992 -16.333 -2 -25c-10.667 -47.333 -37.5 -89.833 -80.5 -127.5s-65.167 -60.5 -66.5 -68.5c-4 -24.667 3.33301 -37 22 -37c19.333 0 38.666 17 57.999 51c28.667 53.333 48.334 86 59.001 98c30 34.667 69 52 117 52c32.667 0 60.667 -10.667 84 -32
s35 -49 35 -83c0 -45.333 -17.833 -83.333 -53.5 -114s-76.5 -46 -122.5 -46z" />
    <glyph glyph-name="plus" unicode="+" horiz-adv-x="1472" 
d="M1450 981l-82 -385h-308l-65 -309h-391l65 307h-311l82 387h313l64 305h387l-64 -305h310z" />
    <glyph glyph-name="comma" unicode="," horiz-adv-x="587" 
d="M166 -346l-176.001 100.001c76.667 56 152.334 127 227.001 213c-90 32.667 -135 92.667 -135 180c0 16.667 2 34.667 6 54c15.333 69.333 50.333 128.666 105 177.999s118.667 74 192 74c57.333 0 105.5 -21.167 144.5 -63.5s58.5 -94.5 58.5 -156.5
c0 -94 -50.667 -202.333 -152 -325c-78.667 -96 -168.667 -180.667 -270 -254z" />
    <glyph glyph-name="hyphen" unicode="-" horiz-adv-x="655" 
d="M761 700l-68 -317h-569l68 317h569z" />
    <glyph glyph-name="hyphen" unicode="&#x2010;" horiz-adv-x="655" 
d="M761 700l-68 -317h-569l68 317h569z" />
    <glyph glyph-name="period" unicode="." horiz-adv-x="583" 
d="M284 -27c-58.667 0 -106.833 18.167 -144.5 54.5s-56.5 83.166 -56.5 140.499c0 78 31.333 147.333 94 208s133 91 211 91c58.667 0 107.167 -18.833 145.5 -56.5s57.5 -84.5 57.5 -140.5c0 -77.333 -31.5 -146.166 -94.5 -206.499s-133.833 -90.5 -212.5 -90.5z" />
    <glyph glyph-name="slash" unicode="/" horiz-adv-x="729" 
d="M989 1430l-670 -1498l-276 68l674 1497z" />
    <glyph glyph-name="zero" unicode="0" horiz-adv-x="1474" 
d="M1566 723c-47.333 -224 -152.333 -407.665 -315 -550.998c-157.333 -138 -332 -207 -524 -207c-162.667 0 -293.167 51.5 -391.5 154.5s-147.5 238.5 -147.5 406.5c0 61.333 6.66699 124.333 20 189c44 208.667 143.667 384.667 299 528c160 148.667 339.667 223 539 223
c165.333 0 296.833 -51.833 394.5 -155.5s146.5 -238.834 146.5 -405.501c0 -58.667 -7 -119.334 -21 -182.001zM1056 713.002c10 44.667 15 85 15 121c0 114.667 -41 172 -123 172c-49.333 0 -94.333 -24.667 -135 -74c-42.667 -53.333 -74.334 -126.333 -95.001 -219
c-9.33301 -42.667 -14 -81.667 -14 -117c0 -114.667 40.333 -172 121 -172c50.667 0 96.834 24.833 138.501 74.5s72.5 121.167 92.5 214.5z" />
    <glyph glyph-name="one" unicode="1" horiz-adv-x="1472" 
d="M1355 1430l-303 -1430h-504l213 999h-201l240 431h555z" />
    <glyph glyph-name="two" unicode="2" horiz-adv-x="1472" 
d="M1573 928c-44.667 -212 -211 -383.999 -499 -515.999h389l-203 -412h-1282c385.333 280 617.333 451.333 696 514c242 190 370.333 319.667 385 389c1.33301 10 2 19 2 27c0 58.667 -30 88 -90 88c-36.667 0 -70.667 -15.667 -102 -47s-52 -70.333 -62 -117h-503
c34 165.333 123 306.666 267 423.999s305.333 176 484 176c170.667 0 304 -42.333 400 -127c86 -76.667 129 -175.667 129 -297c0 -34 -3.66699 -68 -11 -102z" />
    <glyph glyph-name="three" unicode="3" horiz-adv-x="1472" 
d="M1539 1055c-26 -122 -100.999 -209.999 -224.999 -263.999c114.667 -44 172 -127.333 172 -250c0 -27.333 -3.33301 -56 -10 -86c-30 -139.333 -108 -253.333 -234 -342c-134 -94.667 -299 -142 -495 -142c-172 0 -311.667 39.667 -419 119s-161 181.666 -161 306.999
c0 28.667 3.33301 58.667 10 90c2.66699 12.667 7 28.667 13 48h505c-4 -18 -6 -35.333 -6 -52c0 -78.667 37.667 -118 113 -118c42 0 80.5 15 115.5 45s52.5 66 52.5 108c0 32.667 -12.667 59 -38 79s-56.333 30 -93 30c-8.66699 0 -21.667 -2 -39 -6l63 297
c10 -2 19.667 -3 29 -3c79.333 0 125.666 33.667 138.999 101c4 22 -1.16699 42.167 -15.5 60.5s-30.833 27.5 -49.5 27.5c-60 0 -105 -35 -135 -105h-480c28.667 132.667 106.167 243.334 232.5 332.001s274.833 133 445.5 133c158.667 0 284.667 -30.333 378 -91
s140 -142.334 140 -245.001c0 -24 -2.66699 -48.333 -8 -73z" />
    <glyph glyph-name="four" unicode="4" horiz-adv-x="1472" 
d="M1521 1430l-163 -771h159l-78 -370h-157l-62 -289h-501l61 289h-684l80 377l741 764h604zM932 995l-328 -338h256z" />
    <glyph glyph-name="five" unicode="5" horiz-adv-x="1470" 
d="M1591 1430l-205 -408.001h-508l-45 -129c71.333 22 137.666 33 198.999 33c124 0 225 -26.667 303 -80c87.333 -60 131 -145.333 131 -256c0 -30 -3.33301 -62 -10 -96c-32.667 -153.333 -120.667 -278.333 -264 -375c-147.333 -100 -323.666 -150 -528.999 -150
c-159.333 0 -334.666 39.667 -525.999 119l145 412c143.333 -82 287.666 -123 432.999 -123c56 0 104.333 8.66699 145 26c53.333 24.667 80 62.334 80 113.001c0 78 -80.667 117 -242 117c-100.667 0 -231.667 -22.667 -393 -68l301 865h985z" />
    <glyph glyph-name="six" unicode="6" horiz-adv-x="1472" 
d="M1601 1430c-41.333 -38.667 -126.665 -110.668 -255.998 -216.001c-126 -99.333 -212 -164.666 -258 -195.999h57c117.333 0 212.833 -33.833 286.5 -101.5s110.5 -158.167 110.5 -271.5c0 -36.667 -4 -74.334 -12 -113.001
c-32.667 -151.333 -121.334 -281.666 -266.001 -390.999c-152 -114.667 -323.333 -172 -514 -172c-188.667 0 -336.334 46.667 -443.001 140c-96.667 84.667 -145 195.667 -145 333c0 38.667 4 77.667 12 117c32.667 156 138 312.333 316 469l452 402h660zM1023 581.999
c0 36.667 -13 67.333 -39 92s-58 37 -96 37c-50.667 0 -96.5 -20.5 -137.5 -61.5s-61.5 -86.167 -61.5 -135.5c0 -36.667 12.333 -66.667 37 -90s56 -35 94 -35c52 0 98.833 19.5 140.5 58.5s62.5 83.833 62.5 134.5z" />
    <glyph glyph-name="seven" unicode="7" horiz-adv-x="1472" 
d="M1765 1430l-1087 -1430h-590l823 999h-661l225 431h1290z" />
    <glyph glyph-name="eight" unicode="8" horiz-adv-x="1470" 
d="M1564 1034c-32.667 -156.667 -125.667 -254.332 -279 -292.999c132.667 -40.667 199 -123 199 -247c0 -24.667 -2.66699 -50 -8 -76c-28.667 -132.667 -103.667 -239.334 -225 -320.001c-134 -87.333 -307 -131 -519 -131c-186.667 0 -330.667 35 -432 105
c-94 65.333 -141 153.333 -141 264c0 26 2.66699 53.333 8 82c35.333 164 146 271.667 332 323c-110.667 31.333 -166 103 -166 215c0 23.333 2.66699 48 8 74c24.667 112 95.667 207.667 213 287c134 90 296.667 135 488 135c166.667 0 297.667 -33.333 393 -100
c91.333 -64.667 137 -147.334 137 -248.001c0 -23.333 -2.66699 -46.666 -8 -69.999zM1060 1012c0 27.333 -9.5 49.167 -28.5 65.5s-41.5 24.5 -67.5 24.5c-34 0 -66 -14.667 -96 -44s-45 -61 -45 -95c0 -26 8.5 -48 25.5 -66s39.167 -27 66.5 -27
c40.667 0 75 13.667 103 41s42 61 42 101zM976 500.003c0 32.667 -10.5 59.167 -31.5 79.5s-47.833 30.5 -80.5 30.5c-44 0 -84.167 -18 -120.5 -54s-54.5 -75.333 -54.5 -118c0 -32.667 10.667 -59.167 32 -79.5s49 -30.5 83 -30.5c45.333 0 85.333 17.333 120 52
s52 74.667 52 120z" />
    <glyph glyph-name="nine" unicode="9" horiz-adv-x="1474" 
d="M1595 862c-31.333 -150 -134.333 -303.669 -309 -461.002l-444 -401h-668l516 410c-22 -2.66699 -41 -4 -57 -4c-124.667 0 -223.167 33.333 -295.5 100s-108.5 155.334 -108.5 266.001c0 199.333 86.667 365.333 260 498c160 122.667 343 184 549 184
c182 0 324 -45.667 426 -137c96 -84.667 144 -196 144 -334c0 -39.333 -4.33301 -79.666 -13 -120.999zM1081 906.998c0 37.333 -11.832 67.5 -35.499 90.5s-54.834 34.5 -93.501 34.5c-52 0 -98.333 -19.833 -139 -59.5s-61 -84.5 -61 -134.5
c0 -37.333 11.833 -67.833 35.5 -91.5s54.167 -35.5 91.5 -35.5c52.667 0 99.5 19.667 140.5 59s61.5 85 61.5 137z" />
    <glyph glyph-name="colon" unicode=":" horiz-adv-x="643" 
d="M431 535c-58.667 0 -106.666 18.333 -143.999 55s-56 83.667 -56 141c0 78 31.667 147 95 207s134 90 212 90c57.333 0 105.166 -18.333 143.499 -55s57.5 -83 57.5 -139c0 -79.333 -31.5 -149 -94.5 -209s-134.167 -90 -213.5 -90zM311.001 -29
c-58.667 0 -106.167 18.832 -142.5 56.499s-54.5 84.5 -54.5 140.5c0 76.667 31 145.667 93 207s131.333 92 208 92c60 0 109.5 -18.833 148.5 -56.5s58.5 -85.167 58.5 -142.5c0 -77.333 -32.167 -146.166 -96.5 -206.499s-135.833 -90.5 -214.5 -90.5z" />
    <glyph glyph-name="semicolon" unicode=";" horiz-adv-x="647" 
d="M432 530c-59.333 0 -107.668 18.833 -145.001 56.5s-56 85.167 -56 142.5c0 78 31.667 147.667 95 209s134 92 212 92c58.667 0 107.167 -18.667 145.5 -56s57.5 -85 57.5 -143c0 -77.333 -32.167 -146.833 -96.5 -208.5s-135.166 -92.5 -212.499 -92.5zM201.998 -330
l-176 100.999c79.333 57.333 154.333 128.333 225 213c-88.667 32.667 -133 92.667 -133 180c0 16 2 33.667 6 53c15.333 70 50.333 129.5 105 178.5s118.667 73.5 192 73.5c57.333 0 105.5 -21.167 144.5 -63.5s58.5 -94.166 58.5 -155.499
c0 -94 -50.667 -202.667 -152 -326c-78.667 -95.333 -168.667 -180 -270 -254z" />
    <glyph glyph-name="less" unicode="&#x3c;" horiz-adv-x="952" 
d="M1144 1178l-68 -324l-319 -139l260 -140l-70 -323l-739 463z" />
    <glyph glyph-name="equal" unicode="=" horiz-adv-x="1472" 
d="M1487 1157l-70 -328h-1010l70 328h1010zM1392 705l-69 -330h-1014l70 330h1013z" />
    <glyph glyph-name="greater" unicode="&#x3e;" horiz-adv-x="952" 
d="M1046 715l-936 -463l70 323l317 140l-258 139l68 324z" />
    <glyph glyph-name="question" unicode="?" horiz-adv-x="991" 
d="M1171 1063c-20.667 -96.667 -64.333 -177.334 -131 -242.001c-8 -6.66699 -66.667 -50.334 -176 -131.001c-64 -46 -101.667 -95 -113 -147h-379c18 82 53.667 153 107 213c13.333 14.667 60.333 56.334 141 125.001c49.333 42 78 83 86 123
c5.33301 26.667 -1.5 49.334 -20.5 68.001s-45.5 28 -79.5 28c-66 0 -163 -37.667 -291 -113l-47 344c170.667 86 335 129 493 129c140.667 0 248 -32 322 -96c64 -56 96 -129.667 96 -221c0 -26 -2.66699 -52.667 -8 -80zM428.001 -27
c-59.333 0 -106.665 18.5 -141.998 55.5s-53 83.5 -53 139.5c0 18 2 36.333 6 55c15.333 70 53.666 128.667 114.999 176c57.333 45.333 118.666 68 183.999 68c62.667 0 112.167 -18.5 148.5 -55.5s54.5 -83.5 54.5 -139.5c0 -78.667 -32.167 -148.167 -96.5 -208.5
s-136.5 -90.5 -216.5 -90.5z" />
    <glyph glyph-name="at" unicode="@" horiz-adv-x="1591" 
d="M1150 297c-90 0 -135.001 39.666 -135.001 118.999c0 10.667 1.33301 21.667 4 33c-66.667 -98.667 -148.667 -148 -246 -148c-56 0 -102.667 20.5 -140 61.5s-56 99.833 -56 176.5c0 34 4 70.667 12 110c30 138 95.667 259 197 363c96.667 98 190.667 147 282 147
c98.667 0 153.334 -37.333 164.001 -112l33 88h106l-213 -562c-16 -44.667 -24 -80.667 -24 -108c0 -41.333 17 -62 51 -62c52 0 114 37.667 186 113c84.667 88.667 140 194.667 166 318c10 42 15 82.667 15 122c0 113.333 -35.5 203.833 -106.5 271.5
s-166.833 101.5 -287.5 101.5c-173.333 0 -330.666 -59.333 -471.999 -178s-231 -266.667 -269 -444c-10.667 -50.667 -16 -100 -16 -148c0 -140.667 43.333 -254.334 130 -341.001s196.667 -130 330 -130c100 0 207.333 28 322 84
c121.333 58.667 223.666 137.334 306.999 236.001l-6 -134c-204.667 -204.667 -425 -307 -661 -307c-178 0 -319.167 50.833 -423.5 152.5s-156.5 238.5 -156.5 410.5c0 60.667 6.66699 124.334 20 191.001c45.333 211.333 156 387 332 527s369.333 210 580 210
c152.667 0 276.5 -45.333 371.5 -136s142.5 -205.667 142.5 -345c0 -143.333 -54 -289.333 -162 -438c-116 -161.333 -241.667 -242 -377 -242zM1156 919.999c4.66699 16 7.00098 31.668 7.00098 47.001c0 65.333 -31 98 -93 98c-73.333 0 -146.333 -50.667 -219 -152
c-66.667 -92.667 -112.334 -196.334 -137.001 -311.001c-6.66699 -30 -10 -57.333 -10 -82c0 -82 36 -123 108 -123c62 0 127.333 53 196 159s118 227.333 148 364z" />
    <glyph glyph-name="A" unicode="A" horiz-adv-x="1454" 
d="M1512 0h-574v182h-344l-80 -182h-571l811 1430h551zM955 545l-8 475l-211 -475h219z" />
    <glyph glyph-name="B" unicode="B" horiz-adv-x="1345" 
d="M1455 1055c-34 -160 -123.333 -264.667 -268 -314c138 -22.667 207 -105.667 207 -249c0 -33.333 -4 -68.333 -12 -105c-22 -104 -79.167 -194.5 -171.5 -271.5s-189.5 -115.5 -291.5 -115.5h-848l303 1430h707c122.667 0 218 -26.667 286 -80
c64.667 -52 97 -123 97 -213c0 -26 -3 -53.333 -9 -82zM999 991c2.66699 14 4 26.333 4 37c0 54.667 -39.667 82 -119 82h-49l-51 -246h53c90 0 144 42.333 162 127zM915 510c0 50.667 -26.668 76 -80.001 76h-111l-53 -244h98c72.667 0 119.334 40.333 140.001 121
c4 19.333 6 35 6 47z" />
    <glyph glyph-name="C" unicode="C" horiz-adv-x="1286" 
d="M1558 1321l-251.998 -441.999c-74.667 72 -157.334 108 -248.001 108c-86 0 -163 -32.667 -231 -98s-102 -141 -102 -227c0 -59.333 18.667 -108 56 -146s86 -57 146 -57c83.333 0 187.333 32 312 96l59 -451c-158.667 -88.667 -313.667 -133 -465 -133
c-196.667 0 -353 54.667 -469 164s-174 248.666 -174 417.999c0 50.667 5.33301 102.667 16 156c46.667 218 163 400 349 546c178.667 140.667 373.667 211 585 211c147.333 0 286.666 -48.333 417.999 -145z" />
    <glyph glyph-name="D" unicode="D" horiz-adv-x="1490" 
d="M1587 721c-46.667 -220 -149.168 -395.167 -307.501 -525.5s-342.166 -195.5 -551.499 -195.5h-657l303 1430h668c170.667 0 307.167 -49.5 409.5 -148.5s153.5 -229.833 153.5 -392.5c0 -54.667 -6 -110.667 -18 -168zM1032 739
c5.33301 23.333 7.99902 45.333 7.99902 66c0 61.333 -19.167 109 -57.5 143s-86.166 51 -143.499 51h-27l-116 -544h37c159.333 0 259 94.667 299 284z" />
    <glyph glyph-name="E" unicode="E" horiz-adv-x="1163" 
d="M1455 1430l-192 -402h-444l-27 -119h399l-82 -385h-399l-25 -123h555l-200 -401h-969l303 1430h1081z" />
    <glyph glyph-name="F" unicode="F" horiz-adv-x="1120" 
d="M1449 1430l-190 -402h-440l-27 -119h457l-187 -389h-352l-111 -520h-528l303 1430h1075z" />
    <glyph glyph-name="G" unicode="G" horiz-adv-x="1691" 
d="M1802 840c-1.33301 -19.333 -6.33496 -57.665 -15.002 -114.998c-44.667 -208.667 -151.667 -384.667 -321 -528c-177.333 -152 -382.666 -228 -615.999 -228c-196.667 0 -356.167 53.667 -478.5 161s-183.5 247.666 -183.5 420.999c0 49.333 5.33301 100.666 16 153.999
c42.667 200.667 151.334 374 326.001 520c186 155.333 393.667 233 623 233c152.667 0 283 -33.5 391 -100.5s183.667 -159.833 227 -278.5l-514 -180c-12 34 -35.5 61.333 -70.5 82s-72.167 31 -111.5 31c-71.333 0 -139.333 -29 -204 -87s-106 -129.333 -124 -214
c-6.66699 -28.667 -10 -56.667 -10 -84c0 -71.333 20.167 -128.5 60.5 -171.5s94.5 -64.5 162.5 -64.5c104 0 175.667 44.333 215 133h-223l70 316h780z" />
    <glyph glyph-name="H" unicode="H" horiz-adv-x="1529" 
d="M1761 1430l-304 -1430h-532l104 494h-325l-105 -494h-528l303 1430h528l-98 -465h326l98 465h533z" />
    <glyph glyph-name="I" unicode="I" horiz-adv-x="671" 
d="M902 1430l-303 -1430h-528l303 1430h528z" />
    <glyph glyph-name="J" unicode="J" horiz-adv-x="1042" 
d="M1274 1430l-225.999 -1065c-21.333 -102.667 -78.666 -191.667 -171.999 -267c-104.667 -83.333 -231 -125 -379 -125c-196.667 0 -358.334 74.667 -485.001 224l279 327c43.333 -64 87 -96 131 -96c73.333 0 117.666 36.333 132.999 109l188 893h531z" />
    <glyph glyph-name="K" unicode="K" horiz-adv-x="1472" 
d="M1832 1430l-639 -699l305 -731h-610l-172 553l-117 -553h-528l303 1430h528l-114 -547l428 547h616z" />
    <glyph glyph-name="L" unicode="L" horiz-adv-x="1124" 
d="M1238 412l-202 -412h-965l303 1430h528l-215 -1018h551z" />
    <glyph glyph-name="M" unicode="M" horiz-adv-x="1839" 
d="M1951 1430l-74 -1430h-518l92 694l-346 -694h-371l-49 694l-203 -694h-516l530 1430h527l53 -699l348 699h527z" />
    <glyph glyph-name="N" unicode="N" horiz-adv-x="1585" 
d="M1816 1430l-303 -1430h-527l-268 653l-139 -653h-508l303 1430h518l264 -682l144 682h516z" />
    <glyph glyph-name="O" unicode="O" horiz-adv-x="1697" 
d="M1789 709c-48.667 -234 -173.333 -418.998 -374 -554.998c-178 -123.333 -372 -185 -582 -185c-190 0 -344.333 54.667 -463 164s-178 250.666 -178 423.999c0 52 5.33301 104.667 16 158c45.333 212.667 157.5 390 336.5 532s384.5 213 616.5 213
c188 0 341.667 -50.333 461 -151c124 -106.667 186 -249.334 186 -428.001c0 -54.667 -6.33301 -112 -19 -172zM1271 715.002c4 18.667 6 37 6 55c0 62.667 -21.167 115.167 -63.5 157.5s-95.5 63.5 -159.5 63.5c-82 0 -157.5 -35.167 -226.5 -105.5
s-103.5 -146.5 -103.5 -228.5c0 -61.333 20.5 -111.833 61.5 -151.5s93.167 -59.5 156.5 -59.5c74.667 0 144.167 25.333 208.5 76s104.5 115 120.5 193z" />
    <glyph glyph-name="P" unicode="P" horiz-adv-x="1327" 
d="M1494 889c-30 -142 -96.834 -257 -200.501 -345s-222.5 -132 -356.5 -132h-250l-88 -412h-528l303 1430h707c144.667 0 254.334 -39.667 329.001 -119c67.333 -70 101 -163.667 101 -281c0 -46 -5.66699 -93 -17 -141zM1007 909c2.66699 16.667 4 31 4 43
c0 50.667 -39 76 -117 76h-75l-54 -252h86c84.667 0 136.667 44.333 156 133z" />
    <glyph glyph-name="Q" unicode="Q" horiz-adv-x="1697" 
d="M1794 717c-42.667 -196.667 -133.001 -358.667 -271.001 -486l113 -233l-399 -252l-127 260c-70 -26 -163.667 -39 -281 -39c-194 0 -349 54.333 -465 163s-174 249 -174 421c0 53.333 6 108 18 164c45.333 212.667 157.833 390 337.5 532s384.834 213 615.501 213
c206 0 367.667 -58 485 -174c109.333 -106.667 164 -244.667 164 -414c0 -50 -5.33301 -101.667 -16 -155zM1271 715c4 20 5.99902 39.668 5.99902 59.001c0 61.333 -20 112.166 -60 152.499s-93 60.5 -159 60.5c-74.667 0 -143.834 -26.333 -207.501 -79
s-103.5 -117 -119.5 -193c-4 -20.667 -6 -40.667 -6 -60c0 -61.333 20.333 -111.833 61 -151.5s93.334 -59.5 158.001 -59.5c74.667 0 143.834 25.333 207.501 76s103.5 115.667 119.5 195z" />
    <glyph glyph-name="R" unicode="R" horiz-adv-x="1378" 
d="M1498 979c-20 -95.333 -61.167 -177.832 -123.5 -247.499s-135.833 -116.834 -220.5 -141.501l281 -590h-619l-124 434l-93 -434h-528l303 1430h709c289.333 0 434 -101.333 434 -304c0 -43.333 -6.33301 -92.333 -19 -147zM1005 924.001c2.66699 13.333 4 25.667 4 37
c0 60 -39 90 -117 90h-69l-58 -267h80c86 0 139.333 46.667 160 140z" />
    <glyph glyph-name="S" unicode="S" horiz-adv-x="1226" 
d="M1407 1311l-196.998 -373.001c-99.333 83.333 -192.666 125 -279.999 125c-34.667 0 -62.834 -7.5 -84.501 -22.5s-34.5 -31.5 -38.5 -49.5c-7.33301 -31.333 30.667 -57.333 114 -78c122 -31.333 203.333 -59.333 244 -84c87.333 -51.333 131 -128.333 131 -231
c0 -30 -3.33301 -62 -10 -96c-32.667 -152 -116 -278.333 -250 -379c-139.333 -105.333 -301 -158 -485 -158c-178 0 -344.667 56.667 -500 170l229 422c113.333 -116 221.333 -174 324 -174c72.667 0 113.667 24 123 72c5.33301 26 -32.334 51 -113.001 75
c-112 36 -189.667 68.333 -233 97c-86 58.667 -129 139.667 -129 243c0 32 4 66.333 12 103c24.667 114.667 101 220.334 229 317.001c139.333 106.667 293.666 160 462.999 160c168 0 318.333 -46.333 451 -139z" />
    <glyph glyph-name="T" unicode="T" horiz-adv-x="1091" 
d="M1451 1430l-229 -457h-236l-206 -973h-531l207 973h-256l96 457h1155z" />
    <glyph glyph-name="U" unicode="U" horiz-adv-x="1468" 
d="M1699 1430l-193.003 -906.001c-35.333 -165.333 -124.666 -298.833 -267.999 -400.5s-314.666 -152.5 -513.999 -152.5c-173.333 0 -309.166 39.667 -407.499 119s-147.5 185.333 -147.5 318c0 36.667 4 75.334 12 116.001l193 906h528l-178 -840
c-4 -20.667 -6 -39 -6 -55c0 -74 34.667 -111 104 -111c88.667 0 144.667 55.333 168 166l178 840h531z" />
    <glyph glyph-name="V" unicode="V" horiz-adv-x="1406" 
d="M1769 1430l-840 -1430h-453l-231 1430h537l57 -797l391 797h539z" />
    <glyph glyph-name="W" unicode="W" horiz-adv-x="2103" 
d="M2435 1430l-754 -1430h-461v803c0 -5.33301 -112.667 -273 -338 -803h-461l-147 1430h504l16 -742l346 742h430l31 -742l332 742h502z" />
    <glyph glyph-name="X" unicode="X" horiz-adv-x="1447" 
d="M1764 1430l-584 -664l340 -766h-602l-110 385l-275 -385h-604l664 766l-302 664h568l104 -304l234 304h567z" />
    <glyph glyph-name="Y" unicode="Y" horiz-adv-x="1363" 
d="M1724 1430l-652 -818l-131 -612h-520l131 612l-307 818h567l97 -359l249 359h566z" />
    <glyph glyph-name="Z" unicode="Z" horiz-adv-x="1429" 
d="M1747 1430l-837 -1002h618l-223 -428h-1327l844 999h-615l215 431h1325z" />
    <glyph glyph-name="bracketleft" unicode="[" horiz-adv-x="718" 
d="M981 1626l-62 -285h-108l-266 -1253h108l-59 -283h-506l387 1821h506z" />
    <glyph glyph-name="backslash" unicode="\" horiz-adv-x="651" 
d="M647 1430l-53 -1430h-285l51 1430h287z" />
    <glyph glyph-name="bracketright" unicode="]" horiz-adv-x="716" 
d="M932 1626l-387 -1821h-500l59 283h107l266 1253h-106l61 285h500z" />
    <glyph glyph-name="asciicircum" unicode="^" horiz-adv-x="1044" 
d="M1050 295h-328l-78 291l-198 -291h-326l641 838z" />
    <glyph glyph-name="underscore" unicode="_" horiz-adv-x="1073" 
d="M1033 -205l-31 -143h-1077l31 143h1077z" />
    <glyph glyph-name="grave" unicode="`" horiz-adv-x="393" 
d="M635 1217l-209 -101l-197 291l279 135z" />
    <glyph glyph-name="a" unicode="a" 
d="M1474 999l-213.001 -999h-461l23 102c-90 -86 -201.333 -129 -334 -129c-104 0 -186.667 31 -248 93c-65.333 65.333 -98 155.333 -98 270c0 46.667 5.33301 95.667 16 147c34.667 164 106.334 297.333 215.001 400c104 96.667 218.667 145 344 145
c126 0 217.667 -40.333 275 -121l20 92h461zM881.999 520c2.66699 14 4 27 4 39c0 64 -28.667 96 -86 96c-40.667 0 -74.667 -20.833 -102 -62.5s-41 -84.167 -41 -127.5c0 -61.333 29.333 -92 88 -92c70 0 115.667 49 137 147z" />
    <glyph glyph-name="b" unicode="b" horiz-adv-x="1335" 
d="M1386 518c-36.667 -172 -107.666 -307 -212.999 -405c-100 -93.333 -216 -140 -348 -140c-140.667 0 -233 41.667 -277 125l-20 -98h-457l258 1210l545 273l-121 -570c99.333 75.333 197.666 113 294.999 113c105.333 0 189.333 -31.333 252 -94
c68 -65.333 102 -155.333 102 -270c0 -45.333 -5.33301 -93.333 -16 -144zM884.001 504c4 17.333 5.99902 34.332 5.99902 50.999c0 66.667 -28.667 100 -86 100c-31.333 0 -59.666 -12.833 -84.999 -38.5s-42 -59.167 -50 -100.5c-4 -16 -6 -31 -6 -45
c0 -64 29.333 -96 88 -96c30 0 57.667 11.833 83 35.5s42 54.834 50 93.501z" />
    <glyph glyph-name="c" unicode="c" horiz-adv-x="993" 
d="M1175 952l-184.002 -356.001c-54.667 40.667 -108.667 61 -162 61c-44 0 -83 -19 -117 -57s-51 -79.667 -51 -125c0 -73.333 39 -110 117 -110c56 0 113.333 13.667 172 41l30 -328c-129.333 -76.667 -265.666 -115 -408.999 -115c-121.333 0 -221.666 40 -300.999 120
s-119 181.333 -119 304c0 38 4 76.333 12 115c31.333 148.667 111.5 275.834 240.5 381.501s273.5 158.5 433.5 158.5c120 0 232.667 -30 338 -90z" />
    <glyph glyph-name="d" unicode="d" horiz-adv-x="1335" 
d="M1579 1481l-316 -1481h-461l23 102c-32.667 -36.667 -82.5 -68 -149.5 -94s-134.5 -39 -202.5 -39c-105.333 0 -187.333 36.333 -246 109c-54.667 68 -82 158.667 -82 272c0 52 6 106 18 162c32 150 99.5 273.167 202.5 369.5s217.167 144.5 342.5 144.5
c97.333 0 184 -39.667 260 -119l64 301zM886 516c2.66699 15.333 4 29.667 4 43c0 64 -27.667 96 -83 96c-75.333 0 -123.333 -48.333 -144 -145c-2.66699 -15.333 -4 -29 -4 -41c0 -62.667 28 -94 84 -94c75.333 0 123 47 143 141z" />
    <glyph glyph-name="e" unicode="e" horiz-adv-x="1112" 
d="M1255 635l-615.999 -283c16 -30 37.667 -45 65 -45c34 0 64 17 90 51l273 -186c-139.333 -142 -301.333 -213 -486 -213c-128 0 -232.667 38.167 -314 114.5s-122 175.5 -122 297.5c0 35.333 4 72 12 110c32.667 156 112.167 287.167 238.5 393.5
s265.5 159.5 417.5 159.5c177.333 0 304.333 -66 381 -198c31.333 -56 51.666 -123 60.999 -201zM888.001 647c-27.333 41.333 -64 62 -110 62c-44 0 -85 -15.833 -123 -47.5s-61.333 -68.5 -70 -110.5c-1.33301 -8 -1.33301 -22.333 0 -43z" />
    <glyph glyph-name="f" unicode="f" horiz-adv-x="776" 
d="M1162 1430l-169 -356.999c-18 15.333 -40.667 23 -68 23c-16.667 0 -32.834 -5.83301 -48.501 -17.5s-24.834 -23.834 -27.501 -36.501l-8 -43h203l-181 -370h-100l-133 -629h-485l133 629h-203l180 370h103l20 95c20.667 95.333 71.334 178.333 152.001 249
c96.667 86.667 215.334 130 356.001 130c68 0 160 -14.333 276 -43z" />
    <glyph glyph-name="g" unicode="g" horiz-adv-x="1325" 
d="M1466 999l-185.999 -876.001c-32.667 -154.667 -116.667 -277 -252 -367c-144.667 -96.667 -335.334 -145 -572.001 -145c-176 0 -324.667 33.333 -446 100l240 312c61.333 -50.667 153.333 -76 276 -76c168 0 263.667 50.333 287 151l14 62
c-84.667 -88.667 -196 -133 -334 -133c-104.667 0 -188.167 32 -250.5 96s-93.5 150.667 -93.5 260c0 40.667 5 84.334 15 131.001c32.667 150 100.5 272.833 203.5 368.5s218.833 143.5 347.5 143.5c121.333 0 211.333 -41.667 270 -125l20 98h461zM887.001 558.999
c0 62.667 -27.332 94 -81.999 94c-31.333 0 -60 -13 -86 -39c-30 -27.333 -50 -64 -60 -110c-2.66699 -14 -4 -27 -4 -39c0 -60 30.667 -90 92 -90c41.333 0 75.666 21 102.999 63c24.667 38.667 37 79 37 121z" />
    <glyph glyph-name="h" unicode="h" horiz-adv-x="1267" 
d="M1341 684l-146.001 -684h-487l108 514c4.66699 16.667 7 31 7 43c0 38 -20 57 -60 57c-49.333 0 -81.333 -34 -96 -102l-109 -512h-487l256 1204l545 271l-119 -557c102.667 80 206.334 120 311.001 120c88.667 0 158.667 -24.5 210 -73.5s77 -113.833 77 -194.5
c0 -27.333 -3.33301 -56 -10 -86z" />
    <glyph glyph-name="i" unicode="i" horiz-adv-x="630" 
d="M857 1278c-14.667 -74 -52.335 -135.499 -113.002 -184.499s-126 -73.5 -196 -73.5c-61.333 0 -111.833 18 -151.5 54s-59.5 83.667 -59.5 143c0 17.333 2 35.666 6 54.999c15.333 70.667 53.333 131 114 181s127.334 75 200.001 75
c58.667 0 107.834 -18.833 147.501 -56.5s59.5 -85.167 59.5 -142.5c0 -17.333 -2.33301 -34.333 -7 -51zM781.999 1047l-224 -1047h-487l164 774z" />
    <glyph glyph-name="j" unicode="j" horiz-adv-x="630" 
d="M858 1282c-14.667 -74 -50.999 -135.833 -108.999 -185.5s-122 -74.5 -192 -74.5c-66.667 0 -119.5 18.5 -158.5 55.5s-58.5 84.167 -58.5 141.5c0 81.333 32.833 153.166 98.5 215.499s139.5 93.5 221.5 93.5c61.333 0 110.666 -18.167 147.999 -54.5
s56 -83.166 56 -140.499c0 -16 -2 -33 -6 -51zM782.001 1051l-299 -1407h-487l242 1138z" />
    <glyph glyph-name="k" unicode="k" horiz-adv-x="1275" 
d="M1519 999l-442 -464l284 -535h-608l-121 344l-74 -344h-487l256 1206l545 269l-172 -811l248 335h571z" />
    <glyph glyph-name="l" unicode="l" horiz-adv-x="630" 
d="M874 1481l-316 -1481h-487l256 1208z" />
    <glyph glyph-name="m" unicode="m" horiz-adv-x="1804" 
d="M1877 682l-145 -682h-471l117 547c4 18.667 6 35 6 49c0 27.333 -12.333 41 -37 41c-50.667 0 -82.667 -32 -96 -96l-115 -541h-471l121 571c1.33301 7.33301 2 15 2 23c0 31.333 -15.667 47 -47 47c-40 0 -65.333 -24.667 -76 -74l-121 -567h-473l166 782l528 269
l-35 -168c90.667 98 194 147 310 147c124 0 205 -60.667 243 -182c105.333 121.333 225 182 359 182c78 0 138.5 -22.167 181.5 -66.5s64.5 -105.5 64.5 -183.5c0 -31.333 -3.66699 -64 -11 -98z" />
    <glyph glyph-name="n" unicode="n" horiz-adv-x="1267" 
d="M1337 666l-142 -666h-487l110 524c3.33301 15.333 5 29 5 41c0 35.333 -19.333 53 -58 53c-49.333 0 -82 -39.333 -98 -118l-107 -500h-487l166 782l512 273l-31 -148c83.333 83.333 196 125 338 125c194 0 291 -86.667 291 -260c0 -32.667 -4 -68 -12 -106z" />
    <glyph glyph-name="o" unicode="o" horiz-adv-x="1222" 
d="M1273 506c-32.667 -157.333 -114.166 -288.832 -244.499 -394.499s-272.5 -158.5 -426.5 -158.5c-132.667 0 -241.334 41.333 -326.001 124s-127 186 -127 310c0 35.333 4 71.666 12 108.999c31.333 150 113 278.167 245 384.5s274.333 159.5 427 159.5
c138 0 249.333 -43 334 -129c78 -82 117 -183 117 -303c0 -34 -3.66699 -68 -11 -102zM821.001 496.001c2.66699 14.667 4 29.001 4 43.001c0 61.333 -27.333 92 -82 92c-28.667 0 -55.667 -12.333 -81 -37s-42 -57.334 -50 -98.001c-2.66699 -14 -4 -27.667 -4 -41
c0 -62 27.333 -93 82 -93c68 0 111.667 44.667 131 134z" />
    <glyph glyph-name="p" unicode="p" 
d="M1381 487c-34 -158 -106.332 -287 -216.999 -387c-102.667 -91.333 -212 -137 -328 -137c-120 0 -206 41.667 -258 125l-55 -264l-539 -238l301 1413h457l-25 -112c94 90 213.667 135 359 135c103.333 0 183.666 -36.333 240.999 -109
c53.333 -66.667 80 -156.667 80 -270c0 -49.333 -5.33301 -101.333 -16 -156zM883.001 520c0 65.333 -28.668 98.001 -86.001 98.001c-31.333 0 -60 -12.5 -86 -37.5s-43.667 -58.833 -53 -101.5c-2.66699 -14.667 -4 -28.334 -4 -41.001c0 -66.667 27.333 -100 82 -100
c44.667 0 81.334 19.667 110.001 59c24.667 36 37 77 37 123z" />
    <glyph glyph-name="q" unicode="q" 
d="M1474 999l-250 -1173l-538 -238l106 500c-84.667 -80.667 -189 -121 -313 -121c-104 0 -186 34.5 -246 103.5s-90 160.167 -90 273.5c0 46.667 5.33301 95 16 145c31.333 149.333 101 275.833 209 379.5s222 155.5 342 155.5c56 0 110 -12 162 -36s92.333 -55 121 -93
l22 104h459zM878 481c4 16.667 6 31.667 6 45c0 61.333 -27.333 92 -82 92c-76 0 -124.333 -48.333 -145 -145c-2.66699 -14.667 -4 -29 -4 -43c0 -60 27.333 -90 82 -90c75.333 0 123 47 143 141z" />
    <glyph glyph-name="r" unicode="r" horiz-adv-x="937" 
d="M1220 991l-252.001 -461c-31.333 38.667 -71.666 58 -120.999 58c-108 0 -177 -69 -207 -207l-82 -381h-487l166 778l514 275l-33 -158c106.667 87.333 216.667 131 330 131c54.667 0 112 -11.667 172 -35z" />
    <glyph glyph-name="s" unicode="s" horiz-adv-x="1017" 
d="M1138 950l-160.001 -297c-99.333 61.333 -174.333 92 -225 92c-46 0 -72.667 -15.667 -80 -47c-5.33301 -27.333 24 -49 88 -65c98.667 -24.667 161 -44.667 187 -60c69.333 -36.667 104 -93.334 104 -170.001c0 -136 -61.333 -247 -184 -333
c-109.333 -76.667 -235 -115 -377 -115c-180 0 -336.333 37.667 -469 113l174 323c83.333 -76.667 166 -115 248 -115c54.667 0 85.334 16 92.001 48c4 17.333 -24.667 33.666 -86 48.999c-83.333 20 -141.333 41 -174 63c-64 38.667 -96 95.334 -96 170.001
c0 20.667 2.66699 43.334 8 68.001c22 103.333 82 189.333 180 258c108 73.333 241 110 399 110c130 0 253.667 -30.667 371 -92z" />
    <glyph glyph-name="t" unicode="t" horiz-adv-x="765" 
d="M1064 999l-211 -370h-102l-133 -629h-488l133 629h-180l846 835l-98 -465h233z" />
    <glyph glyph-name="u" unicode="u" horiz-adv-x="1255" 
d="M1396 999l-134.998 -628c-27.333 -128.667 -102.333 -229.667 -225 -303c-114.667 -68.667 -254.667 -103 -420 -103c-148.667 0 -265.334 28.333 -350.001 85s-127 135.667 -127 237c0 27.333 3.33301 55.333 10 84l135 628h488l-113 -528c-4 -18 -6 -33 -6 -45
c0 -35.333 19 -53 57 -53c45.333 0 74.666 32.667 87.999 98l113 528h485z" />
    <glyph glyph-name="v" unicode="v" horiz-adv-x="1185" 
d="M1455 999l-614 -999h-498l-188 999h520l19 -520l239 520h522z" />
    <glyph glyph-name="w" unicode="w" horiz-adv-x="1703" 
d="M1961 999l-580 -999h-438l-2 418l-190 -418h-430l-152 999h487l19 -487l223 487h350l-10 -487l236 487h487z" />
    <glyph glyph-name="x" unicode="x" horiz-adv-x="1286" 
d="M1505 999l-444 -481l270 -518h-579l-66 203l-151 -203h-578l489 518l-239 481h553l55 -190l135 190h555z" />
    <glyph glyph-name="y" unicode="y" horiz-adv-x="1267" 
d="M1523 999l-878 -1355h-545l303 415l-219 940h532l33 -467l236 467h538z" />
    <glyph glyph-name="z" unicode="z" horiz-adv-x="1171" 
d="M1385 999l-535 -600h367l-217 -399h-1014l537 600h-365l217 399h1010z" />
    <glyph glyph-name="braceleft" unicode="{" horiz-adv-x="729" 
d="M1026 1671l-35.001 -169.999h-24c-75.333 0 -120 -32 -134 -96l-106 -504c-9.33301 -46.667 -35.5 -88 -78.5 -124s-89.167 -56.667 -138.5 -62c40.667 -4 74.334 -20.333 101.001 -49s40 -63 40 -103c0 -10.667 -1.33301 -22.334 -4 -35.001l-106 -503
c-3.33301 -12.667 -5 -23 -5 -31c0 -44 32.333 -66 97 -66h24l-37 -170h-284c-106.667 0 -160 48 -160 144c0 17.333 2 35.666 6 54.999l129 614c2.66699 12.667 4 24.334 4 35.001c0 71.333 -35.333 107.666 -106 108.999c38 1.33301 72.667 15.333 104 42
s51.333 60.334 60 101.001l131 615c28.667 132 107.667 198 237 198h285z" />
    <glyph glyph-name="bar" unicode="|" horiz-adv-x="401" 
d="M647 1430l-303 -1430h-287l303 1430h287z" />
    <glyph glyph-name="braceright" unicode="}" horiz-adv-x="729" 
d="M852 1473l-131.001 -614.997c-2.66699 -10.667 -4 -21.667 -4 -33c0 -72 35.333 -108.667 106 -110c-36.667 -1.33301 -71 -15.333 -103 -42s-52.333 -60.667 -61 -102l-129 -614c-27.333 -132.667 -107 -199 -239 -199h-285l37 170h26c74 0 118 32.333 132 97l106 503
c9.33301 46.667 34.5 88.167 75.5 124.5s88.167 57.166 141.5 62.499c-43.333 5.33301 -77.666 21.666 -102.999 48.999s-38 60.666 -38 99.999c0 12.667 1.33301 25 4 37l106 504c3.33301 12 5 23 5 33c0 42 -31.667 63 -95 63h-26l35 170h284c108 0 162 -47.667 162 -143
c0 -18 -2 -36.333 -6 -55z" />
    <glyph glyph-name="asciitilde" unicode="~" horiz-adv-x="1032" 
d="M1170 922c-24 -113.333 -67.001 -205.667 -129.001 -277c-65.333 -75.333 -141.666 -113 -228.999 -113c-54.667 0 -123 18.167 -205 54.5s-129 54.5 -141 54.5c-16.667 0 -34.167 -11.667 -52.5 -35s-30.166 -50 -35.499 -80h-209
c24.667 120.667 68.667 216.5 132 287.5s138.666 106.5 225.999 106.5c44 0 107 -18.5 189 -55.5s133.667 -55.5 155 -55.5c44 0 74.333 37.667 91 113h208z" />
    <glyph glyph-name="dieresis" unicode="&#xa8;" horiz-adv-x="1024" 
 />
    <glyph glyph-name="copyright" unicode="&#xa9;" horiz-adv-x="1714" 
d="M1750 715c-43.333 -204.667 -152.833 -379.499 -328.5 -524.499s-366.5 -217.5 -572.5 -217.5c-176 0 -320 55.667 -432 167s-168 251.666 -168 420.999c0 50.667 5.33301 102 16 154c42.667 203.333 152 377.666 328 522.999s366.333 218 571 218
c178 0 323 -55.667 435 -167s168 -251.666 168 -420.999c0 -50 -5.66699 -101 -17 -153zM1613 721.001c9.33301 43.333 13.999 85.666 13.999 126.999c0 140.667 -46.667 256 -140 346s-209.666 135 -348.999 135c-158.667 0 -309.667 -57.333 -453 -172
c-151.333 -120 -245.333 -267.333 -282 -442c-10 -45.333 -15 -89 -15 -131c0 -142 49.333 -259 148 -351c92.667 -87.333 206.667 -131 342 -131c162 0 314 56.667 456 170c148 120.667 241 270.334 279 449.001zM1396 1055l-115 -129.001c-39.333 42 -90.333 63 -153 63
c-84.667 0 -159.5 -27 -224.5 -81s-106.5 -122.667 -124.5 -206c-4 -18.667 -6 -37.667 -6 -57c0 -62.667 20.833 -114.5 62.5 -155.5s95.5 -61.5 161.5 -61.5c69.333 0 133.333 22.667 192 68l59 -131c-90 -64.667 -192.333 -97 -307 -97c-106.667 0 -192 31.5 -256 94.5
s-96 144.833 -96 245.5c0 34 4 69 12 105c26 122.667 90.833 226.334 194.5 311.001s216.5 127 338.5 127c112 0 199.333 -32 262 -96z" />
    <glyph glyph-name="registered" unicode="&#xae;" horiz-adv-x="1714" 
d="M1750 715c-43.333 -204.667 -152.833 -379.499 -328.5 -524.499s-366.5 -217.5 -572.5 -217.5c-176 0 -320 55.667 -432 167s-168 251.666 -168 420.999c0 50.667 5.33301 102 16 154c42.667 203.333 152 377.666 328 522.999s366.333 218 571 218
c178 0 323 -55.667 435 -167s168 -251.666 168 -420.999c0 -50 -5.66699 -101 -17 -153zM1627 840.001c0 136 -42.333 250.666 -127 343.999c-88.667 98 -206.667 147 -354 147c-172 0 -330 -61 -474 -183s-233.667 -266.333 -269 -433
c-8.66699 -41.333 -13 -81.666 -13 -120.999c0 -139.333 45.833 -256.166 137.5 -350.499s207.167 -141.5 346.5 -141.5c192 0 365.5 75.167 520.5 225.5s232.5 321.166 232.5 512.499zM1339 883c-14 -68.667 -50.332 -124.667 -108.999 -168
c-46.667 -34 -88.334 -51 -125.001 -51l160 -365h-203l-156 383l-82 -383h-174l181 848h268c165.333 0 248 -63 248 -189c0 -22.667 -2.66699 -47.667 -8 -75zM1164 915c0 60.667 -39.333 91 -118 91h-72l-53 -254h65c48 0 89.667 15.667 125 47s53 70 53 116z" />
    <glyph glyph-name="acute" unicode="&#xb4;" horiz-adv-x="1024" 
 />
    <glyph glyph-name="paragraph" unicode="&#xb6;" horiz-adv-x="1232" 
d="M1311 1157l-246 -1157h-170l246 1157h170zM1479 1430l-33 -158h-686c-86 0 -164.5 -34.5 -235.5 -103.5s-106.5 -146.5 -106.5 -232.5c0 -62.667 20.833 -115.167 62.5 -157.5s95.167 -63.5 160.5 -63.5h119l94 442h172l-246 -1157h-172l119 557h-119
c-102 0 -185.833 32.5 -251.5 97.5s-98.5 146.5 -98.5 244.5c0 30 3.33301 60.667 10 92c26 122 90.167 225.667 192.5 311s213.833 128 334.5 128h684z" />
    <glyph glyph-name="onequarter" unicode="&#xbc;" horiz-adv-x="1310" 
d="M716 1509l-154 -714h-252l107 499h-100l122 215h277zM1298 1497l-957 -1565h-219l965 1565h211zM1386 713l-82 -385h80l-39 -183h-78l-31 -147h-252l31 147h-342l41 189l371 379h301zM1091 496l-164 -166h129z" />
    <glyph glyph-name="onehalf" unicode="&#xbd;" horiz-adv-x="1310" 
d="M696 1509l-154 -714h-252l107 499h-100l122 215h277zM1278 1497l-957 -1565h-219l965 1565h211zM1413 465c-23.333 -106.667 -106.667 -192.667 -250 -258h194l-100 -207h-643l350 256c120 95.333 184.333 161 193 197c8 38 -7 57 -45 57c-42.667 0 -70 -27.333 -82 -82
h-252c17.333 82 61.5 152.333 132.5 211s151.833 88 242.5 88c86 0 152.667 -21 200 -63c44 -38.667 66 -88 66 -148c0 -16 -2 -33 -6 -51z" />
    <glyph glyph-name="threequarters" unicode="&#xbe;" horiz-adv-x="1581" 
d="M935 1298c-12 -61.333 -50.332 -105.668 -114.999 -133.001c57.333 -21.333 86 -63 86 -125c0 -13.333 -1.33301 -27.666 -4 -42.999c-14.667 -69.333 -54 -126 -118 -170c-67.333 -47.333 -150 -71 -248 -71c-86 0 -155.667 19.667 -209 59s-80 90.666 -80 153.999
c0 14.667 1.33301 29.667 4 45c1.33301 6.66699 4 14.667 8 24h254c-2.66699 -9.33301 -4 -18.666 -4 -27.999c0 -38.667 18.333 -58 55 -58c45.333 0 72.666 21.333 81.999 64c4.66699 18.667 0.5 34.5 -12.5 47.5s-29.833 19.5 -50.5 19.5c-4 0 -10.333 -0.666992 -19 -2
l33 148h15c39.333 0 62.333 16.333 69 49c2.66699 10.667 0 20.834 -8 30.501s-17 14.5 -27 14.5c-30 0 -52.333 -17.667 -67 -53h-240c14 66.667 52.667 122.167 116 166.5s138 66.5 224 66.5c79.333 0 142.5 -15.333 189.5 -46s70.5 -71.334 70.5 -122.001
c0 -12 -1.33301 -24.333 -4 -37zM1523 1497l-957 -1565h-219l965 1565h211zM1621 718.998l-82 -385h80l-39 -182h-78l-32 -148h-252l33 148h-342l38 188l373 379h301zM1326 501.998l-164 -166h129z" />
    <glyph glyph-name="Agrave" unicode="&#xc0;" horiz-adv-x="1454" 
d="M1512 0h-574v182h-344l-80 -182h-571l811 1430h551zM955 545l-8 475l-211 -475h219zM1190 1585l-209 -100l-196 291l278 135z" />
    <glyph glyph-name="Aacute" unicode="&#xc1;" horiz-adv-x="1454" 
d="M1512 0h-574v182h-344l-80 -182h-571l811 1430h551zM955 545l-8 475l-211 -475h219zM1270 1792l-340 -315l-170 100l289 350z" />
    <glyph glyph-name="Acircumflex" unicode="&#xc2;" horiz-adv-x="1454" 
d="M1512 0h-574v182h-344l-80 -182h-571l811 1430h551zM955 545l-8 475l-211 -475h219zM1420 1669l-107 -172l-272 141l-334 -141l-33 172l418 211z" />
    <glyph glyph-name="Atilde" unicode="&#xc3;" horiz-adv-x="1454" 
d="M1512 0h-574v182h-344l-80 -182h-571l811 1430h551zM955 545l-8 475l-211 -475h219zM1393 1808l-49.001 -235c-53.333 -19.333 -105.333 -29 -156 -29c-35.333 0 -89.166 7.83301 -161.499 23.5s-122.833 23.5 -151.5 23.5c-58.667 0 -117.334 -16.333 -176.001 -49
l51 238c50.667 23.333 105.334 35 164.001 35c32.667 0 79.667 -7.66699 141 -23s114 -23 158 -23c62.667 0 122.667 13 180 39z" />
    <glyph glyph-name="Egrave" unicode="&#xc8;" horiz-adv-x="1163" 
d="M1455 1430l-192 -402h-444l-27 -119h399l-82 -385h-399l-25 -123h555l-200 -401h-969l303 1430h1081zM1025 1577l-209 -100l-196 290l278 136z" />
    <glyph glyph-name="Eacute" unicode="&#xc9;" horiz-adv-x="1163" 
d="M1455 1430l-192 -402h-444l-27 -119h399l-82 -385h-399l-25 -123h555l-200 -401h-969l303 1430h1081zM1132 1794l-340 -315l-170 100l289 350z" />
    <glyph glyph-name="Ecircumflex" unicode="&#xca;" horiz-adv-x="1163" 
d="M1455 1430l-192 -402h-444l-27 -119h399l-82 -385h-399l-25 -123h555l-200 -401h-969l303 1430h1081zM1290 1665l-107 -172l-272 141l-334 -141l-33 172l418 211z" />
    <glyph glyph-name="Igrave" unicode="&#xcc;" horiz-adv-x="671" 
d="M902 1430l-303 -1430h-528l303 1430h528zM788 1606l-209 -101l-197 291l279 135z" />
    <glyph glyph-name="Iacute" unicode="&#xcd;" horiz-adv-x="671" 
d="M902 1430l-303 -1430h-528l303 1430h528zM882 1810l-340 -315l-170 100l289 351z" />
    <glyph glyph-name="Ograve" unicode="&#xd2;" horiz-adv-x="1697" 
d="M1789 709c-48.667 -234 -173.333 -418.998 -374 -554.998c-178 -123.333 -372 -185 -582 -185c-190 0 -344.333 54.667 -463 164s-178 250.666 -178 423.999c0 52 5.33301 104.667 16 158c45.333 212.667 157.5 390 336.5 532s384.5 213 616.5 213
c188 0 341.667 -50.333 461 -151c124 -106.667 186 -249.334 186 -428.001c0 -54.667 -6.33301 -112 -19 -172zM1271 715.002c4 18.667 6 37 6 55c0 62.667 -21.167 115.167 -63.5 157.5s-95.5 63.5 -159.5 63.5c-82 0 -157.5 -35.167 -226.5 -105.5
s-103.5 -146.5 -103.5 -228.5c0 -61.333 20.5 -111.833 61.5 -151.5s93.167 -59.5 156.5 -59.5c74.667 0 144.167 25.333 208.5 76s104.5 115 120.5 193zM1282 1602l-209 -101l-197 291l279 135z" />
    <glyph glyph-name="Oacute" unicode="&#xd3;" horiz-adv-x="1697" 
d="M1789 709c-48.667 -234 -173.333 -418.998 -374 -554.998c-178 -123.333 -372 -185 -582 -185c-190 0 -344.333 54.667 -463 164s-178 250.666 -178 423.999c0 52 5.33301 104.667 16 158c45.333 212.667 157.5 390 336.5 532s384.5 213 616.5 213
c188 0 341.667 -50.333 461 -151c124 -106.667 186 -249.334 186 -428.001c0 -54.667 -6.33301 -112 -19 -172zM1271 715.002c4 18.667 6 37 6 55c0 62.667 -21.167 115.167 -63.5 157.5s-95.5 63.5 -159.5 63.5c-82 0 -157.5 -35.167 -226.5 -105.5
s-103.5 -146.5 -103.5 -228.5c0 -61.333 20.5 -111.833 61.5 -151.5s93.167 -59.5 156.5 -59.5c74.667 0 144.167 25.333 208.5 76s104.5 115 120.5 193zM1417 1817l-340 -316l-170 101l289 350z" />
    <glyph glyph-name="Ocircumflex" unicode="&#xd4;" horiz-adv-x="1697" 
d="M1789 709c-48.667 -234 -173.333 -418.998 -374 -554.998c-178 -123.333 -372 -185 -582 -185c-190 0 -344.333 54.667 -463 164s-178 250.666 -178 423.999c0 52 5.33301 104.667 16 158c45.333 212.667 157.5 390 336.5 532s384.5 213 616.5 213
c188 0 341.667 -50.333 461 -151c124 -106.667 186 -249.334 186 -428.001c0 -54.667 -6.33301 -112 -19 -172zM1271 715.002c4 18.667 6 37 6 55c0 62.667 -21.167 115.167 -63.5 157.5s-95.5 63.5 -159.5 63.5c-82 0 -157.5 -35.167 -226.5 -105.5
s-103.5 -146.5 -103.5 -228.5c0 -61.333 20.5 -111.833 61.5 -151.5s93.167 -59.5 156.5 -59.5c74.667 0 144.167 25.333 208.5 76s104.5 115 120.5 193zM1564 1671l-106 -172l-273 141l-334 -141l-32 172l417 211z" />
    <glyph glyph-name="Otilde" unicode="&#xd5;" horiz-adv-x="1697" 
d="M1789 709c-48.667 -234 -173.333 -418.998 -374 -554.998c-178 -123.333 -372 -185 -582 -185c-190 0 -344.333 54.667 -463 164s-178 250.666 -178 423.999c0 52 5.33301 104.667 16 158c45.333 212.667 157.5 390 336.5 532s384.5 213 616.5 213
c188 0 341.667 -50.333 461 -151c124 -106.667 186 -249.334 186 -428.001c0 -54.667 -6.33301 -112 -19 -172zM1271 715.002c4 18.667 6 37 6 55c0 62.667 -21.167 115.167 -63.5 157.5s-95.5 63.5 -159.5 63.5c-82 0 -157.5 -35.167 -226.5 -105.5
s-103.5 -146.5 -103.5 -228.5c0 -61.333 20.5 -111.833 61.5 -151.5s93.167 -59.5 156.5 -59.5c74.667 0 144.167 25.333 208.5 76s104.5 115 120.5 193zM1515 1804l-49.001 -235c-53.333 -19.333 -105.333 -29 -156 -29c-35.333 0 -89.166 7.83301 -161.499 23.5
s-122.833 23.5 -151.5 23.5c-58.667 0 -117.334 -16.333 -176.001 -49l51 238c50.667 22.667 105.334 34 164.001 34c32.667 0 79.667 -7.5 141 -22.5s114 -22.5 158 -22.5c62.667 0 122.667 13 180 39z" />
    <glyph glyph-name="Ugrave" unicode="&#xd9;" horiz-adv-x="1468" 
d="M1234 1552l-209 -100l-196 291l278 135zM1687 1430l-193.003 -906.001c-35.333 -165.333 -124.666 -298.833 -267.999 -400.5s-314.666 -152.5 -513.999 -152.5c-173.333 0 -309.166 39.667 -407.499 119s-147.5 185.333 -147.5 318c0 36.667 4 75.334 12 116.001
l193 906h528l-178 -840c-4 -20.667 -6 -39 -6 -55c0 -74 34.667 -111 104 -111c88.667 0 144.667 55.333 168 166l178 840h531z" />
    <glyph glyph-name="Uacute" unicode="&#xda;" horiz-adv-x="1468" 
d="M1699 1430l-193.003 -906.001c-35.333 -165.333 -124.666 -298.833 -267.999 -400.5s-314.666 -152.5 -513.999 -152.5c-173.333 0 -309.166 39.667 -407.499 119s-147.5 185.333 -147.5 318c0 36.667 4 75.334 12 116.001l193 906h528l-178 -840
c-4 -20.667 -6 -39 -6 -55c0 -74 34.667 -111 104 -111c88.667 0 144.667 55.333 168 166l178 840h531zM1371 1780l-340 -316l-170 101l289 350z" />
    <glyph glyph-name="Yacute" unicode="&#xdd;" horiz-adv-x="1363" 
d="M1724 1430l-652 -818l-131 -612h-520l131 612l-307 818h567l97 -359l249 359h566zM1236 1808l-340 -315l-170 100l289 351z" />
    <glyph glyph-name="agrave" unicode="&#xe0;" 
d="M1474 999l-213.001 -999h-461l23 102c-90 -86 -201.333 -129 -334 -129c-104 0 -186.667 31 -248 93c-65.333 65.333 -98 155.333 -98 270c0 46.667 5.33301 95.667 16 147c34.667 164 106.334 297.333 215.001 400c104 96.667 218.667 145 344 145
c126 0 217.667 -40.333 275 -121l20 92h461zM881.999 520c2.66699 14 4 27 4 39c0 64 -28.667 96 -86 96c-40.667 0 -74.667 -20.833 -102 -62.5s-41 -84.167 -41 -127.5c0 -61.333 29.333 -92 88 -92c70 0 115.667 49 137 147zM1011 1198l-209 -100l-196 291l278 135z" />
    <glyph glyph-name="aacute" unicode="&#xe1;" 
d="M1474 999l-213.001 -999h-461l23 102c-90 -86 -201.333 -129 -334 -129c-104 0 -186.667 31 -248 93c-65.333 65.333 -98 155.333 -98 270c0 46.667 5.33301 95.667 16 147c34.667 164 106.334 297.333 215.001 400c104 96.667 218.667 145 344 145
c126 0 217.667 -40.333 275 -121l20 92h461zM881.999 520c2.66699 14 4 27 4 39c0 64 -28.667 96 -86 96c-40.667 0 -74.667 -20.833 -102 -62.5s-41 -84.167 -41 -127.5c0 -61.333 29.333 -92 88 -92c70 0 115.667 49 137 147zM1204 1415l-340 -315l-170 100l289 350z" />
    <glyph glyph-name="acircumflex" unicode="&#xe2;" 
d="M1474 999l-213.001 -999h-461l23 102c-90 -86 -201.333 -129 -334 -129c-104 0 -186.667 31 -248 93c-65.333 65.333 -98 155.333 -98 270c0 46.667 5.33301 95.667 16 147c34.667 164 106.334 297.333 215.001 400c104 96.667 218.667 145 344 145
c126 0 217.667 -40.333 275 -121l20 92h461zM881.999 520c2.66699 14 4 27 4 39c0 64 -28.667 96 -86 96c-40.667 0 -74.667 -20.833 -102 -62.5s-41 -84.167 -41 -127.5c0 -61.333 29.333 -92 88 -92c70 0 115.667 49 137 147zM1294 1290l-107 -172l-272 142l-334 -142
l-32 172l417 211z" />
    <glyph glyph-name="atilde" unicode="&#xe3;" 
d="M1474 999l-213.001 -999h-461l23 102c-90 -86 -201.333 -129 -334 -129c-104 0 -186.667 31 -248 93c-65.333 65.333 -98 155.333 -98 270c0 46.667 5.33301 95.667 16 147c34.667 164 106.334 297.333 215.001 400c104 96.667 218.667 145 344 145
c126 0 217.667 -40.333 275 -121l20 92h461zM881.999 520c2.66699 14 4 27 4 39c0 64 -28.667 96 -86 96c-40.667 0 -74.667 -20.833 -102 -62.5s-41 -84.167 -41 -127.5c0 -61.333 29.333 -92 88 -92c70 0 115.667 49 137 147zM1306 1419l-49.002 -235
c-53.333 -19.333 -105.333 -29 -156 -29c-35.333 0 -89.166 7.83301 -161.499 23.5s-122.833 23.5 -151.5 23.5c-58.667 0 -117.334 -16.333 -176.001 -49l51 238c50.667 22.667 105.334 34 164.001 34c32.667 0 79.834 -7.5 141.501 -22.5s114.167 -22.5 157.5 -22.5
c62.667 0 122.667 13 180 39z" />
    <glyph glyph-name="egrave" unicode="&#xe8;" horiz-adv-x="1112" 
d="M1255 635l-615.999 -283c16 -30 37.667 -45 65 -45c34 0 64 17 90 51l273 -186c-139.333 -142 -301.333 -213 -486 -213c-128 0 -232.667 38.167 -314 114.5s-122 175.5 -122 297.5c0 35.333 4 72 12 110c32.667 156 112.167 287.167 238.5 393.5
s265.5 159.5 417.5 159.5c177.333 0 304.333 -66 381 -198c31.333 -56 51.666 -123 60.999 -201zM888.001 647c-27.333 41.333 -64 62 -110 62c-44 0 -85 -15.833 -123 -47.5s-61.333 -68.5 -70 -110.5c-1.33301 -8 -1.33301 -22.333 0 -43zM993.001 1190l-209 -100
l-197 290l279 136z" />
    <glyph glyph-name="eacute" unicode="&#xe9;" horiz-adv-x="1112" 
d="M1255 635l-615.999 -283c16 -30 37.667 -45 65 -45c34 0 64 17 90 51l273 -186c-139.333 -142 -301.333 -213 -486 -213c-128 0 -232.667 38.167 -314 114.5s-122 175.5 -122 297.5c0 35.333 4 72 12 110c32.667 156 112.167 287.167 238.5 393.5
s265.5 159.5 417.5 159.5c177.333 0 304.333 -66 381 -198c31.333 -56 51.666 -123 60.999 -201zM888.001 647c-27.333 41.333 -64 62 -110 62c-44 0 -85 -15.833 -123 -47.5s-61.333 -68.5 -70 -110.5c-1.33301 -8 -1.33301 -22.333 0 -43zM1130 1399l-340 -316l-170 101
l289 350z" />
    <glyph glyph-name="ecircumflex" unicode="&#xea;" horiz-adv-x="1112" 
d="M1255 635l-615.999 -283c16 -30 37.667 -45 65 -45c34 0 64 17 90 51l273 -186c-139.333 -142 -301.333 -213 -486 -213c-128 0 -232.667 38.167 -314 114.5s-122 175.5 -122 297.5c0 35.333 4 72 12 110c32.667 156 112.167 287.167 238.5 393.5
s265.5 159.5 417.5 159.5c177.333 0 304.333 -66 381 -198c31.333 -56 51.666 -123 60.999 -201zM888.001 647c-27.333 41.333 -64 62 -110 62c-44 0 -85 -15.833 -123 -47.5s-61.333 -68.5 -70 -110.5c-1.33301 -8 -1.33301 -22.333 0 -43zM1237 1288l-107 -172l-272 141
l-334 -141l-33 172l418 211z" />
    <glyph glyph-name="igrave" unicode="&#xec;" horiz-adv-x="630" 
d="M720 1184l-211 -101l-194 291l278 135zM790 1047l-224 -1047h-487l164 774z" />
    <glyph glyph-name="iacute" unicode="&#xed;" horiz-adv-x="630" 
d="M849 1397l-342 -316l-168 101l289 350zM784 1047l-224 -1047h-487l164 774z" />
    <glyph glyph-name="ograve" unicode="&#xf2;" horiz-adv-x="1222" 
d="M1273 506c-32.667 -157.333 -114.166 -288.832 -244.499 -394.499s-272.5 -158.5 -426.5 -158.5c-132.667 0 -241.334 41.333 -326.001 124s-127 186 -127 310c0 35.333 4 71.666 12 108.999c31.333 150 113 278.167 245 384.5s274.333 159.5 427 159.5
c138 0 249.333 -43 334 -129c78 -82 117 -183 117 -303c0 -34 -3.66699 -68 -11 -102zM821.001 496.001c2.66699 14.667 4 29.001 4 43.001c0 61.333 -27.333 92 -82 92c-28.667 0 -55.667 -12.333 -81 -37s-42 -57.334 -50 -98.001c-2.66699 -14 -4 -27.667 -4 -41
c0 -62 27.333 -93 82 -93c68 0 111.667 44.667 131 134zM1034 1196l-209 -100l-197 290l279 136z" />
    <glyph glyph-name="oacute" unicode="&#xf3;" horiz-adv-x="1222" 
d="M1273 506c-32.667 -157.333 -114.166 -288.832 -244.499 -394.499s-272.5 -158.5 -426.5 -158.5c-132.667 0 -241.334 41.333 -326.001 124s-127 186 -127 310c0 35.333 4 71.666 12 108.999c31.333 150 113 278.167 245 384.5s274.333 159.5 427 159.5
c138 0 249.333 -43 334 -129c78 -82 117 -183 117 -303c0 -34 -3.66699 -68 -11 -102zM821.001 496.001c2.66699 14.667 4 29.001 4 43.001c0 61.333 -27.333 92 -82 92c-28.667 0 -55.667 -12.333 -81 -37s-42 -57.334 -50 -98.001c-2.66699 -14 -4 -27.667 -4 -41
c0 -62 27.333 -93 82 -93c68 0 111.667 44.667 131 134zM1134 1413l-340 -315l-170 100l289 350z" />
    <glyph glyph-name="ocircumflex" unicode="&#xf4;" horiz-adv-x="1222" 
d="M1273 506c-32.667 -157.333 -114.166 -288.832 -244.499 -394.499s-272.5 -158.5 -426.5 -158.5c-132.667 0 -241.334 41.333 -326.001 124s-127 186 -127 310c0 35.333 4 71.666 12 108.999c31.333 150 113 278.167 245 384.5s274.333 159.5 427 159.5
c138 0 249.333 -43 334 -129c78 -82 117 -183 117 -303c0 -34 -3.66699 -68 -11 -102zM821.001 496.001c2.66699 14.667 4 29.001 4 43.001c0 61.333 -27.333 92 -82 92c-28.667 0 -55.667 -12.333 -81 -37s-42 -57.334 -50 -98.001c-2.66699 -14 -4 -27.667 -4 -41
c0 -62 27.333 -93 82 -93c68 0 111.667 44.667 131 134zM1228 1298l-106 -172l-273 142l-333 -142l-33 172l418 211z" />
    <glyph glyph-name="otilde" unicode="&#xf5;" horiz-adv-x="1222" 
d="M1273 506c-32.667 -157.333 -114.166 -288.832 -244.499 -394.499s-272.5 -158.5 -426.5 -158.5c-132.667 0 -241.334 41.333 -326.001 124s-127 186 -127 310c0 35.333 4 71.666 12 108.999c31.333 150 113 278.167 245 384.5s274.333 159.5 427 159.5
c138 0 249.333 -43 334 -129c78 -82 117 -183 117 -303c0 -34 -3.66699 -68 -11 -102zM821.001 496.001c2.66699 14.667 4 29.001 4 43.001c0 61.333 -27.333 92 -82 92c-28.667 0 -55.667 -12.333 -81 -37s-42 -57.334 -50 -98.001c-2.66699 -14 -4 -27.667 -4 -41
c0 -62 27.333 -93 82 -93c68 0 111.667 44.667 131 134zM1165 1413l-49.001 -235c-53.333 -19.333 -105.333 -29 -156 -29c-35.333 0 -89.166 7.83301 -161.499 23.5s-122.833 23.5 -151.5 23.5c-58.667 0 -117.334 -16.333 -176.001 -49l51 237
c50.667 23.333 105.334 35 164.001 35c32.667 0 79.667 -7.5 141 -22.5s114 -22.5 158 -22.5c62.667 0 122.667 13 180 39z" />
    <glyph glyph-name="divide" unicode="&#xf7;" horiz-adv-x="1706" 
 />
    <glyph glyph-name="glyph216" unicode="&#xf9;" horiz-adv-x="1255" 
d="M1396 999l-134.998 -628c-27.333 -128.667 -102.333 -229.667 -225 -303c-114.667 -68.667 -254.667 -103 -420 -103c-148.667 0 -265.334 28.333 -350.001 85s-127 135.667 -127 237c0 27.333 3.33301 55.333 10 84l135 628h488l-113 -528c-4 -18 -6 -33 -6 -45
c0 -35.333 19 -53 57 -53c45.333 0 74.666 32.667 87.999 98l113 528h485zM1104 1180l-209 -101l-197 291l279 135z" />
    <glyph glyph-name="glyph217" unicode="&#xfa;" horiz-adv-x="1255" 
d="M1396 999l-134.998 -628c-27.333 -128.667 -102.333 -229.667 -225 -303c-114.667 -68.667 -254.667 -103 -420 -103c-148.667 0 -265.334 28.333 -350.001 85s-127 135.667 -127 237c0 27.333 3.33301 55.333 10 84l135 628h488l-113 -528c-4 -18 -6 -33 -6 -45
c0 -35.333 19 -53 57 -53c45.333 0 74.666 32.667 87.999 98l113 528h485zM1134 1399l-340 -316l-170 101l289 350z" />
    <glyph glyph-name="glyph234" unicode="&#xfd;" horiz-adv-x="1267" 
d="M1523 999l-878 -1355h-545l303 415l-219 940h532l33 -467l236 467h538zM1134 1399l-340 -316l-170 101l289 350z" />
    <glyph glyph-name="Abreve" unicode="&#x102;" horiz-adv-x="1454" 
d="M1512 0h-574v182h-344l-80 -182h-571l811 1430h551zM955 545l-8 475l-211 -475h219zM1473 1802c-42.667 -80.667 -103.496 -145.834 -182.496 -195.501s-160.833 -74.5 -245.5 -74.5s-156.334 24.833 -215.001 74.5s-92.334 114.834 -101.001 195.501l179 174
c-4.66699 -57.333 11.166 -104.666 47.499 -141.999s83.166 -56 140.499 -56s112 18.667 164 56s88 84.666 108 141.999z" />
    <glyph glyph-name="abreve" unicode="&#x103;" 
d="M1474 999l-213.001 -999h-461l23 102c-90 -86 -201.333 -129 -334 -129c-104 0 -186.667 31 -248 93c-65.333 65.333 -98 155.333 -98 270c0 46.667 5.33301 95.667 16 147c34.667 164 106.334 297.333 215.001 400c104 96.667 218.667 145 344 145
c126 0 217.667 -40.333 275 -121l20 92h461zM881.999 520c2.66699 14 4 27 4 39c0 64 -28.667 96 -86 96c-40.667 0 -74.667 -20.833 -102 -62.5s-41 -84.167 -41 -127.5c0 -61.333 29.333 -92 88 -92c70 0 115.667 49 137 147zM1412 1360
c-42 -80.667 -102.666 -145.834 -181.999 -195.501s-161.333 -74.5 -246 -74.5s-156.334 24.833 -215.001 74.5s-92 114.834 -100 195.501l178 174c-4 -57.333 12.167 -104.666 48.5 -141.999s83.166 -56 140.499 -56s111.833 18.667 163.5 56
s87.834 84.666 108.501 141.999z" />
    <glyph glyph-name="Ccaron" unicode="&#x10c;" horiz-adv-x="1274" 
 />
    <glyph glyph-name="ccaron" unicode="&#x10d;" horiz-adv-x="922" 
 />
    <glyph glyph-name="Dslash" unicode="&#x110;" horiz-adv-x="1490" 
d="M1587 721c-46.667 -220 -149.167 -395.167 -307.5 -525.5s-341.833 -195.5 -550.5 -195.5h-658l117 553h-133l70 326h133l116 551h668c170.667 0 307.167 -49.5 409.5 -148.5s153.5 -229.833 153.5 -392.5c0 -54.667 -6 -110.667 -18 -168zM1032 739
c5.33301 23.333 7.99902 45.333 7.99902 66c0 61.333 -19.167 109 -57.5 143s-86.166 51 -143.499 51h-26l-27 -120h148l-70 -326h-147l-21 -98h37c160 0 259.667 94.667 299 284z" />
    <glyph glyph-name="dcroat" unicode="&#x111;" horiz-adv-x="1335" 
d="M887 516c2.66699 15.333 4 29.667 4 43c0 64 -28 96 -84 96c-75.333 0 -123 -48.333 -143 -145c-3.33301 -15.333 -5 -29 -5 -41c0 -62.667 28 -94 84 -94c75.333 0 123.333 47 144 141zM1021 1155l10.999 53l547 273l-69 -326h115l-25 -110h-114l-222 -1045h-461l22 102
c-32.667 -36.667 -82.5 -68 -149.5 -94s-134.5 -39 -202.5 -39c-105.333 0 -187.333 36.333 -246 109c-54.667 68 -82 158.667 -82 272c0 52 6.33301 106 19 162c31.333 150 98.5 273.167 201.5 369.5s217.5 144.5 343.5 144.5c96.667 0 183.334 -39.667 260.001 -119
l29 138h-262l25 110h260z" />
    <glyph glyph-name="Itilde" unicode="&#x128;" horiz-adv-x="671" 
d="M902 1430l-303 -1430h-528l303 1430h528zM1051 1808l-49.9941 -235c-52.667 -19.333 -104.334 -29 -155.001 -29c-35.333 0 -89.333 7.83301 -162 23.5s-123.334 23.5 -152.001 23.5c-58.667 0 -117.334 -16.333 -176.001 -49l52 238c50 23.333 104.333 35 163 35
c33.333 0 80.666 -7.66699 141.999 -23s113.666 -23 156.999 -23c63.333 0 123.666 13 180.999 39z" />
    <glyph glyph-name="itilde" unicode="&#x129;" horiz-adv-x="630" 
d="M782 1047l-224 -1047h-487l164 774zM964 1379l-49.001 -235c-53.333 -19.333 -105.333 -29 -156 -29c-35.333 0 -89.166 7.83301 -161.499 23.5s-122.833 23.5 -151.5 23.5c-58.667 0 -117.334 -16.333 -176.001 -49l51 238c50.667 22.667 105.334 34 164.001 34
c32.667 0 79.667 -7.5 141 -22.5s114 -22.5 158 -22.5c62.667 0 122.667 13 180 39z" />
    <glyph glyph-name="Utilde" unicode="&#x168;" horiz-adv-x="1468" 
d="M1699 1430l-193.003 -906.001c-35.333 -165.333 -124.666 -298.833 -267.999 -400.5s-314.666 -152.5 -513.999 -152.5c-173.333 0 -309.166 39.667 -407.499 119s-147.5 185.333 -147.5 318c0 36.667 4 75.334 12 116.001l193 906h528l-178 -840
c-4 -20.667 -6 -39 -6 -55c0 -74 34.667 -111 104 -111c88.667 0 144.667 55.333 168 166l178 840h531zM1485 1804l-49.999 -235c-52.667 -19.333 -104.334 -29 -155.001 -29c-36 0 -90.167 7.83301 -162.5 23.5s-122.833 23.5 -151.5 23.5
c-58.667 0 -117.334 -16.333 -176.001 -49l51 238c50.667 22.667 105.334 34 164.001 34c32.667 0 79.834 -7.5 141.501 -22.5s114.167 -22.5 157.5 -22.5c63.333 0 123.666 13 180.999 39z" />
    <glyph glyph-name="utilde" unicode="&#x169;" horiz-adv-x="1255" 
d="M1396 999l-134.998 -628c-27.333 -128.667 -102.333 -229.667 -225 -303c-114.667 -68.667 -254.667 -103 -420 -103c-148.667 0 -265.334 28.333 -350.001 85s-127 135.667 -127 237c0 27.333 3.33301 55.333 10 84l135 628h488l-113 -528c-4 -18 -6 -33 -6 -45
c0 -35.333 19 -53 57 -53c45.333 0 74.666 32.667 87.999 98l113 528h485zM1246 1413l-49.001 -235c-53.333 -19.333 -105.333 -29 -156 -29c-35.333 0 -89.166 7.83301 -161.499 23.5s-122.833 23.5 -151.5 23.5c-58.667 0 -117.334 -16.333 -176.001 -49l51 237
c50.667 23.333 105.334 35 164.001 35c32.667 0 79.667 -7.5 141 -22.5s114 -22.5 158 -22.5c62.667 0 122.667 13 180 39z" />
    <glyph glyph-name="Ohorn" unicode="&#x1a0;" horiz-adv-x="1697" 
d="M1271 715c4 18.667 6 37 6 55c0 62.667 -21.167 115.167 -63.5 157.5s-95.5 63.5 -159.5 63.5c-82 0 -157.5 -35.167 -226.5 -105.5s-103.5 -146.5 -103.5 -228.5c0 -61.333 20.5 -111.833 61.5 -151.5s92.833 -59.5 155.5 -59.5c75.333 0 145 25.333 209 76
s104.333 115 121 193zM1665 1267c94.667 -100.667 141.997 -229.329 141.997 -385.996c0 -54.667 -6 -112 -18 -172c-49.333 -234 -174.333 -419 -375 -555c-177.333 -123.333 -371 -185 -581 -185c-190 0 -344.333 54.667 -463 164s-178 250.666 -178 423.999
c0 52 5.33301 104.667 16 158c44.667 212.667 156.5 390 335.5 532s384.5 213 616.5 213c152.667 0 282.334 -33 389.001 -99c36.667 23.333 72.667 50.333 108 81c-59.333 33.333 -83.666 81 -72.999 143c2 11.333 5.33301 23.666 10 36.999
c19.333 47.333 51.166 85.166 95.499 113.499s92.5 38.166 144.5 29.499c40.667 -6.66699 72.334 -27.167 95.001 -61.5s30.334 -73.166 23.001 -116.499c-11.333 -66.667 -60 -137.667 -146 -213c-36.667 -32.667 -83.667 -68.334 -141 -107.001z" />
    <glyph glyph-name="ohorn" unicode="&#x1a1;" horiz-adv-x="1222" 
d="M820 496c2.66699 14.667 3.99902 29.001 3.99902 43.001c0 61.333 -27.333 92 -82 92c-28.667 0 -55.5 -12.333 -80.5 -37s-41.833 -57.334 -50.5 -98.001c-2.66699 -14 -4 -27.667 -4 -41c0 -62 27.333 -93 82 -93c68.667 0 112.334 44.667 131.001 134zM1207 861.001
c50.667 -72 75.998 -156.331 75.998 -252.998c0 -34 -3.33301 -68 -10 -102c-32.667 -157.333 -114.167 -288.833 -244.5 -394.5s-272.833 -158.5 -427.5 -158.5c-132.667 0 -241.167 41.333 -325.5 124s-126.5 186 -126.5 310c0 35.333 4 71.666 12 108.999
c31.333 150 112.833 278.167 244.5 384.5s274.167 159.5 427.5 159.5c106 0 196.333 -25.667 271 -77c30.667 20.667 60.667 43.667 90 69c-59.333 33.333 -83.666 81 -72.999 143c2 11.333 5.33301 23.666 10 36.999c19.333 47.333 51.166 85.166 95.499 113.499
s92.5 38.166 144.5 29.499c40.667 -6.66699 72.334 -27.167 95.001 -61.5s30.334 -73.166 23.001 -116.499c-11.333 -66.667 -60 -137.667 -146 -213c-36 -31.333 -81.333 -65.666 -136 -102.999z" />
    <glyph glyph-name="Uhorn" unicode="&#x1af;" horiz-adv-x="1468" 
d="M1699 1430l-193.003 -906.001c-35.333 -165.333 -124.666 -298.833 -267.999 -400.5s-314.666 -152.5 -513.999 -152.5c-173.333 0 -309.166 39.667 -407.499 119s-147.5 185.333 -147.5 318c0 36.667 4 75.334 12 116.001l193 906h528l-178 -840
c-4 -20.667 -6 -39 -6 -55c0 -74 34.667 -111 104 -111c88.667 0 144.667 55.333 168 166l178 840h531zM1507 1169l-34.001 148.002c62.667 31.333 124 73 184 125c-59.333 33.333 -83.666 81 -72.999 143c2 11.333 5.33301 23.666 10 36.999
c19.333 47.333 51.166 85.166 95.499 113.499s92.5 38.166 144.5 29.499c40.667 -6.66699 72.334 -27.167 95.001 -61.5s30.334 -73.166 23.001 -116.499c-11.333 -66.667 -60 -137.667 -146 -213c-66.667 -58.667 -166.334 -127 -299.001 -205z" />
    <glyph glyph-name="uhorn" unicode="&#x1b0;" horiz-adv-x="1255" 
d="M1362 837l-100.002 -465.998c-27.333 -128.667 -102.666 -229.667 -225.999 -303c-114.667 -68.667 -254.667 -103 -420 -103c-148.667 0 -265.334 28.333 -350.001 85s-127 135.667 -127 237c0 27.333 3.66699 55.333 11 84l135 628h487l-113 -528c-4 -18 -6 -33 -6 -45
c0 -35.333 19.333 -53 58 -53c44.667 0 74 32.667 88 98l112 528h435l40 33c-59.333 33.333 -83.666 81 -72.999 143c2 11.333 5.33301 23.666 10 36.999c19.333 47.333 51.166 85.166 95.499 113.499s92.5 38.166 144.5 29.499
c40.667 -6.66699 72.334 -27.167 95.001 -61.5s30.334 -73.166 23.001 -116.499c-11.333 -66.667 -60 -137.667 -146 -213c-43.333 -38 -101 -80.333 -173 -127z" />
    <glyph glyph-name="uni1EA0" unicode="&#x1ea0;" horiz-adv-x="1454" 
d="M1512 0h-574v182h-344l-80 -182h-571l811 1430h551zM955 545l-8 475l-211 -475h219zM639 -495c-87.333 0 -131 44.333 -131 133c0 58.667 20.5 111.667 61.5 159s90.167 71 147.5 71c41.333 0 73.833 -12.667 97.5 -38s35.5 -58.333 35.5 -99
c0 -59.333 -20.833 -111.833 -62.5 -157.5s-91.167 -68.5 -148.5 -68.5z" />
    <glyph glyph-name="uni1EA1" unicode="&#x1ea1;" 
d="M1474 999l-213.001 -999h-461l23 102c-90 -86 -201.333 -129 -334 -129c-104 0 -186.667 31 -248 93c-65.333 65.333 -98 155.333 -98 270c0 46.667 5.33301 95.667 16 147c34.667 164 106.334 297.333 215.001 400c104 96.667 218.667 145 344 145
c126 0 217.667 -40.333 275 -121l20 92h461zM881.999 520c2.66699 14 4 27 4 39c0 64 -28.667 96 -86 96c-40.667 0 -74.667 -20.833 -102 -62.5s-41 -84.167 -41 -127.5c0 -61.333 29.333 -92 88 -92c70 0 115.667 49 137 147zM577.999 -495
c-87.333 0 -131 44.333 -131 133c0 58.667 20.5 111.667 61.5 159s90.167 71 147.5 71c41.333 0 73.833 -12.667 97.5 -38s35.5 -58.333 35.5 -99c0 -59.333 -20.833 -111.833 -62.5 -157.5s-91.167 -68.5 -148.5 -68.5z" />
    <glyph glyph-name="uni1EA2" unicode="&#x1ea2;" horiz-adv-x="1454" 
d="M1512 0h-574v182h-344l-80 -182h-571l811 1430h551zM955 545l-8 475l-211 -475h219zM1371 1807c-12 -52 -37 -95.002 -75 -129.002l-101 -70c-36.667 -24.667 -58.334 -50.667 -65.001 -78h-217c10 43.333 30.333 81 61 113c8 8 35 30.333 81 67
c28 22.667 44.667 44.334 50 65.001c2.66699 14.667 -1.5 26.834 -12.5 36.501s-26.167 14.5 -45.5 14.5c-37.333 0 -93 -20 -167 -60l-27 184c98 45.333 192.333 68 283 68c80.667 0 142.334 -17 185.001 -51c36.667 -30 55 -69.333 55 -118
c0 -13.333 -1.66699 -27.333 -5 -42z" />
    <glyph glyph-name="uni1EA3" unicode="&#x1ea3;" 
d="M1474 999l-213.001 -999h-461l23 102c-90 -86 -201.333 -129 -334 -129c-104 0 -186.667 31 -248 93c-65.333 65.333 -98 155.333 -98 270c0 46.667 5.33301 95.667 16 147c34.667 164 106.334 297.333 215.001 400c104 96.667 218.667 145 344 145
c126 0 217.667 -40.333 275 -121l20 92h461zM881.999 520c2.66699 14 4 27 4 39c0 64 -28.667 96 -86 96c-40.667 0 -74.667 -20.833 -102 -62.5s-41 -84.167 -41 -127.5c0 -61.333 29.333 -92 88 -92c70 0 115.667 49 137 147zM1318 1385c-12 -52 -37 -95.002 -75 -129.002
l-101 -70c-36.667 -24.667 -58.334 -50.667 -65.001 -78h-217c10 43.333 30.333 81 61 113c8 8 35 30.333 81 67c28 22.667 44.333 44.334 49 65.001c3.33301 14.667 -0.5 26.834 -11.5 36.501s-26.167 14.5 -45.5 14.5c-37.333 0 -93 -20 -167 -60l-27 184
c98 45.333 192.333 68 283 68c80.667 0 142.334 -17 185.001 -51c36.667 -30 55 -69.333 55 -118c0 -13.333 -1.66699 -27.333 -5 -42z" />
    <glyph glyph-name="uni1EA4" unicode="&#x1ea4;" horiz-adv-x="1454" 
d="M1512 0h-574v182h-344l-80 -182h-571l811 1430h551zM955 545l-8 475l-211 -475h219zM1420 1669l-107 -172l-272 141l-334 -141l-33 172l418 211zM1722 2103l-340 -315l-170 100l289 350z" />
    <glyph glyph-name="uni1EA5" unicode="&#x1ea5;" 
d="M1474 999l-213.001 -999h-461l23 102c-90 -86 -201.333 -129 -334 -129c-104 0 -186.667 31 -248 93c-65.333 65.333 -98 155.333 -98 270c0 46.667 5.33301 95.667 16 147c34.667 164 106.334 297.333 215.001 400c104 96.667 218.667 145 344 145
c126 0 217.667 -40.333 275 -121l20 92h461zM881.999 520c2.66699 14 4 27 4 39c0 64 -28.667 96 -86 96c-40.667 0 -74.667 -20.833 -102 -62.5s-41 -84.167 -41 -127.5c0 -61.333 29.333 -92 88 -92c70 0 115.667 49 137 147zM1545 1716l-340 -315l-170 100l289 350z
M1294 1290l-107 -172l-272 142l-334 -142l-32 172l417 211z" />
    <glyph glyph-name="uni1EA6" unicode="&#x1ea6;" horiz-adv-x="1454" 
d="M1512 0h-574v182h-344l-80 -182h-571l811 1430h551zM955 545l-8 475l-211 -475h219zM1420 1669l-107 -172l-272 141l-334 -141l-33 172l418 211zM1019 1916l-209 -100l-196 291l278 135z" />
    <glyph glyph-name="uni1EA7" unicode="&#x1ea7;" 
d="M1474 999l-213.001 -999h-461l23 102c-90 -86 -201.333 -129 -334 -129c-104 0 -186.667 31 -248 93c-65.333 65.333 -98 155.333 -98 270c0 46.667 5.33301 95.667 16 147c34.667 164 106.334 297.333 215.001 400c104 96.667 218.667 145 344 145
c126 0 217.667 -40.333 275 -121l20 92h461zM881.999 520c2.66699 14 4 27 4 39c0 64 -28.667 96 -86 96c-40.667 0 -74.667 -20.833 -102 -62.5s-41 -84.167 -41 -127.5c0 -61.333 29.333 -92 88 -92c70 0 115.667 49 137 147zM900.999 1550l-209 -100l-196 291l278 135z
M1294 1290l-107 -172l-272 142l-334 -142l-32 172l417 211z" />
    <glyph glyph-name="uni1EA8" unicode="&#x1ea8;" horiz-adv-x="1454" 
d="M1512 0h-574v182h-344l-80 -182h-571l811 1430h551zM955 545l-8 475l-211 -475h219zM1420 1669l-107 -172l-272 141l-334 -141l-33 172l418 211zM1702 2098c-12 -52 -37 -95.001 -75 -129.001l-101 -70c-36.667 -24.667 -58.334 -50.667 -65.001 -78h-217
c10 43.333 30.333 81 61 113c8 8 35 30.333 81 67c28 22.667 44.667 44.334 50 65.001c2.66699 14.667 -1.5 26.834 -12.5 36.5c-11 9.66699 -26.167 14.5 -45.5 14.5c-37.333 0 -93 -20 -167 -60l-27 184c98 45.333 192.333 68 283 68c80.667 0 142.334 -17 185.001 -51
c36.667 -30 55 -69.333 55 -118c0 -13.333 -1.66699 -27.333 -5 -42z" />
    <glyph glyph-name="uni1EA9" unicode="&#x1ea9;" 
d="M1474 999l-213.001 -999h-461l23 102c-90 -86 -201.333 -129 -334 -129c-104 0 -186.667 31 -248 93c-65.333 65.333 -98 155.333 -98 270c0 46.667 5.33301 95.667 16 147c34.667 164 106.334 297.333 215.001 400c104 96.667 218.667 145 344 145
c126 0 217.667 -40.333 275 -121l20 92h461zM881.999 520c2.66699 14 4 27 4 39c0 64 -28.667 96 -86 96c-40.667 0 -74.667 -20.833 -102 -62.5s-41 -84.167 -41 -127.5c0 -61.333 29.333 -92 88 -92c70 0 115.667 49 137 147zM1549 1737c-12 -52 -37 -95.002 -75 -129.002
l-101 -70c-36.667 -24.667 -58.334 -50.667 -65.001 -78h-217c10 43.333 30.333 81 61 113c8 8 35 30.333 81 67c28 22.667 44.333 44.334 49 65.001c3.33301 14.667 -0.5 26.834 -11.5 36.501s-26.167 14.5 -45.5 14.5c-37.333 0 -93 -20 -167 -60l-27 184
c98 45.333 192.333 68 283 68c80.667 0 142.334 -17 185.001 -51c36.667 -30 55 -69.333 55 -118c0 -13.333 -1.66699 -27.333 -5 -42zM1294 1290l-107 -172l-272 142l-334 -142l-32 172l417 211z" />
    <glyph glyph-name="uni1EAA" unicode="&#x1eaa;" horiz-adv-x="1454" 
d="M1512 0h-574v182h-344l-80 -182h-571l811 1430h551zM955 545l-8 475l-211 -475h219zM1420 1669l-107 -172l-272 141l-334 -141l-33 172l418 211zM1544 2139l-49.001 -235c-53.333 -19.333 -105.333 -29 -156 -29c-35.333 0 -89.166 7.83301 -161.499 23.5
s-122.833 23.5 -151.5 23.5c-58.667 0 -117.334 -16.333 -176.001 -49l51 238c50.667 23.333 105.334 35 164.001 35c32.667 0 79.667 -7.66699 141 -23s114 -23 158 -23c62.667 0 122.667 13 180 39z" />
    <glyph glyph-name="uni1EAB" unicode="&#x1eab;" 
d="M1474 999l-213.001 -999h-461l23 102c-90 -86 -201.333 -129 -334 -129c-104 0 -186.667 31 -248 93c-65.333 65.333 -98 155.333 -98 270c0 46.667 5.33301 95.667 16 147c34.667 164 106.334 297.333 215.001 400c104 96.667 218.667 145 344 145
c126 0 217.667 -40.333 275 -121l20 92h461zM881.999 520c2.66699 14 4 27 4 39c0 64 -28.667 96 -86 96c-40.667 0 -74.667 -20.833 -102 -62.5s-41 -84.167 -41 -127.5c0 -61.333 29.333 -92 88 -92c70 0 115.667 49 137 147zM1416 1771l-49.002 -235
c-53.333 -19.333 -105.333 -29 -156 -29c-35.333 0 -89.166 7.83301 -161.499 23.5s-122.833 23.5 -151.5 23.5c-58.667 0 -117.334 -16.333 -176.001 -49l51 238c50.667 22.667 105.334 34 164.001 34c32.667 0 79.834 -7.5 141.501 -22.5s114.167 -22.5 157.5 -22.5
c62.667 0 122.667 13 180 39zM1294 1290l-107 -172l-272 142l-334 -142l-32 172l417 211z" />
    <glyph glyph-name="uni1EAC" unicode="&#x1eac;" horiz-adv-x="1454" 
d="M1512 0h-574v182h-344l-80 -182h-571l811 1430h551zM955 545l-8 475l-211 -475h219zM1420 1669l-107 -172l-272 141l-334 -141l-33 172l418 211zM639 -495c-87.333 0 -131 44.333 -131 133c0 58.667 20.5 111.667 61.5 159s90.167 71 147.5 71
c41.333 0 73.833 -12.667 97.5 -38s35.5 -58.333 35.5 -99c0 -59.333 -20.833 -111.833 -62.5 -157.5s-91.167 -68.5 -148.5 -68.5z" />
    <glyph glyph-name="uni1EAD" unicode="&#x1ead;" 
d="M1474 999l-213.001 -999h-461l23 102c-90 -86 -201.333 -129 -334 -129c-104 0 -186.667 31 -248 93c-65.333 65.333 -98 155.333 -98 270c0 46.667 5.33301 95.667 16 147c34.667 164 106.334 297.333 215.001 400c104 96.667 218.667 145 344 145
c126 0 217.667 -40.333 275 -121l20 92h461zM881.999 520c2.66699 14 4 27 4 39c0 64 -28.667 96 -86 96c-40.667 0 -74.667 -20.833 -102 -62.5s-41 -84.167 -41 -127.5c0 -61.333 29.333 -92 88 -92c70 0 115.667 49 137 147zM577.999 -495
c-87.333 0 -131 44.333 -131 133c0 58.667 20.5 111.667 61.5 159s90.167 71 147.5 71c41.333 0 73.833 -12.667 97.5 -38s35.5 -58.333 35.5 -99c0 -59.333 -20.833 -111.833 -62.5 -157.5s-91.167 -68.5 -148.5 -68.5zM1294 1290l-107 -172l-272 142l-334 -142l-32 172
l417 211z" />
    <glyph glyph-name="uni1EAE" unicode="&#x1eae;" horiz-adv-x="1454" 
d="M1512 0h-574v182h-344l-80 -182h-571l811 1430h551zM955 545l-8 475l-211 -475h219zM1511 2173l-340 -315l-170 100l289 350zM1473 1802c-42.667 -80.667 -103.496 -145.834 -182.496 -195.501s-160.833 -74.5 -245.5 -74.5s-156.334 24.833 -215.001 74.5
s-92.334 114.834 -101.001 195.501l179 174c-4.66699 -57.333 11.166 -104.666 47.499 -141.999s83.166 -56 140.499 -56s112 18.667 164 56s88 84.666 108 141.999z" />
    <glyph glyph-name="uni1EAF" unicode="&#x1eaf;" 
d="M1474 999l-213.001 -999h-461l23 102c-90 -86 -201.333 -129 -334 -129c-104 0 -186.667 31 -248 93c-65.333 65.333 -98 155.333 -98 270c0 46.667 5.33301 95.667 16 147c34.667 164 106.334 297.333 215.001 400c104 96.667 218.667 145 344 145
c126 0 217.667 -40.333 275 -121l20 92h461zM881.999 520c2.66699 14 4 27 4 39c0 64 -28.667 96 -86 96c-40.667 0 -74.667 -20.833 -102 -62.5s-41 -84.167 -41 -127.5c0 -61.333 29.333 -92 88 -92c70 0 115.667 49 137 147zM1455 1716l-340 -315l-170 100l289 350z
M1412 1360c-42 -80.667 -102.666 -145.834 -181.999 -195.501s-161.333 -74.5 -246 -74.5s-156.334 24.833 -215.001 74.5s-92 114.834 -100 195.501l178 174c-4 -57.333 12.167 -104.666 48.5 -141.999s83.166 -56 140.499 -56s111.833 18.667 163.5 56
s87.834 84.666 108.501 141.999z" />
    <glyph glyph-name="uni1EB0" unicode="&#x1eb0;" horiz-adv-x="1454" 
d="M1512 0h-574v182h-344l-80 -182h-571l811 1430h551zM955 545l-8 475l-211 -475h219zM1280 1966l-209 -100l-196 291l278 135zM1473 1802c-42.667 -80.667 -103.496 -145.834 -182.496 -195.501s-160.833 -74.5 -245.5 -74.5s-156.334 24.833 -215.001 74.5
s-92.334 114.834 -101.001 195.501l179 174c-4.66699 -57.333 11.166 -104.666 47.499 -141.999s83.166 -56 140.499 -56s112 18.667 164 56s88 84.666 108 141.999z" />
    <glyph glyph-name="uni1EB1" unicode="&#x1eb1;" 
d="M1474 999l-213.001 -999h-461l23 102c-90 -86 -201.333 -129 -334 -129c-104 0 -186.667 31 -248 93c-65.333 65.333 -98 155.333 -98 270c0 46.667 5.33301 95.667 16 147c34.667 164 106.334 297.333 215.001 400c104 96.667 218.667 145 344 145
c126 0 217.667 -40.333 275 -121l20 92h461zM881.999 520c2.66699 14 4 27 4 39c0 64 -28.667 96 -86 96c-40.667 0 -74.667 -20.833 -102 -62.5s-41 -84.167 -41 -127.5c0 -61.333 29.333 -92 88 -92c70 0 115.667 49 137 147zM1193 1550l-209 -100l-196 291l278 135z
M1412 1360c-42 -80.667 -102.666 -145.834 -181.999 -195.501s-161.333 -74.5 -246 -74.5s-156.334 24.833 -215.001 74.5s-92 114.834 -100 195.501l178 174c-4 -57.333 12.167 -104.666 48.5 -141.999s83.166 -56 140.499 -56s111.833 18.667 163.5 56
s87.834 84.666 108.501 141.999z" />
    <glyph glyph-name="uni1EB2" unicode="&#x1eb2;" horiz-adv-x="1454" 
d="M1512 0h-574v182h-344l-80 -182h-571l811 1430h551zM955 545l-8 475l-211 -475h219zM1471 2188c-12 -52 -37 -95 -75 -129l-101 -70c-36.667 -24.667 -58.334 -50.667 -65.001 -78h-217c10 43.333 30.333 81 61 113c8 8 35 30.333 81 67c28 22.667 44.667 44.334 50 65
c2.66699 14.667 -1.5 26.834 -12.5 36.5c-11 9.66699 -26.167 14.5 -45.5 14.5c-37.333 0 -93 -20 -167 -60l-27 184c98 45.333 192.333 68 283 68c80.667 0 142.334 -17 185.001 -51c36.667 -30 55 -69.333 55 -118c0 -13.333 -1.66699 -27.333 -5 -42zM1473 1802
c-42.667 -80.667 -103.496 -145.834 -182.496 -195.501s-160.833 -74.5 -245.5 -74.5s-156.334 24.833 -215.001 74.5s-92.334 114.834 -101.001 195.501l179 174c-4.66699 -57.333 11.166 -104.666 47.499 -141.999s83.166 -56 140.499 -56s112 18.667 164 56
s88 84.666 108 141.999z" />
    <glyph glyph-name="uni1EB3" unicode="&#x1eb3;" 
d="M1474 999l-213.001 -999h-461l23 102c-90 -86 -201.333 -129 -334 -129c-104 0 -186.667 31 -248 93c-65.333 65.333 -98 155.333 -98 270c0 46.667 5.33301 95.667 16 147c34.667 164 106.334 297.333 215.001 400c104 96.667 218.667 145 344 145
c126 0 217.667 -40.333 275 -121l20 92h461zM881.999 520c2.66699 14 4 27 4 39c0 64 -28.667 96 -86 96c-40.667 0 -74.667 -20.833 -102 -62.5s-41 -84.167 -41 -127.5c0 -61.333 29.333 -92 88 -92c70 0 115.667 49 137 147zM1418 1737c-12 -52 -37 -95.002 -75 -129.002
l-101 -70c-36.667 -24.667 -58.334 -50.667 -65.001 -78h-217c10 43.333 30.333 81 61 113c8 8 35 30.333 81 67c28 22.667 44.333 44.334 49 65.001c3.33301 14.667 -0.5 26.834 -11.5 36.501s-26.167 14.5 -45.5 14.5c-37.333 0 -93 -20 -167 -60l-27 184
c98 45.333 192.333 68 283 68c80.667 0 142.334 -17 185.001 -51c36.667 -30 55 -69.333 55 -118c0 -13.333 -1.66699 -27.333 -5 -42zM1412 1360c-42 -80.667 -102.666 -145.834 -181.999 -195.501s-161.333 -74.5 -246 -74.5s-156.334 24.833 -215.001 74.5
s-92 114.834 -100 195.501l178 174c-4 -57.333 12.167 -104.666 48.5 -141.999s83.166 -56 140.499 -56s111.833 18.667 163.5 56s87.834 84.666 108.501 141.999z" />
    <glyph glyph-name="uni1EB4" unicode="&#x1eb4;" horiz-adv-x="1454" 
d="M1512 0h-574v182h-344l-80 -182h-571l811 1430h551zM955 545l-8 475l-211 -475h219zM1625 2250l-49.001 -235c-53.333 -19.333 -105.333 -29 -156 -29c-35.333 0 -89.166 7.83301 -161.499 23.5s-122.833 23.5 -151.5 23.5c-58.667 0 -117.334 -16.333 -176.001 -49
l51 238c50.667 23.333 105.334 35 164.001 35c32.667 0 79.667 -7.66699 141 -23s114 -23 158 -23c62.667 0 122.667 13 180 39zM1473 1802c-42.667 -80.667 -103.496 -145.834 -182.496 -195.501s-160.833 -74.5 -245.5 -74.5s-156.334 24.833 -215.001 74.5
s-92.334 114.834 -101.001 195.501l179 174c-4.66699 -57.333 11.166 -104.666 47.499 -141.999s83.166 -56 140.499 -56s112 18.667 164 56s88 84.666 108 141.999z" />
    <glyph glyph-name="uni1EB5" unicode="&#x1eb5;" 
d="M1474 999l-213.001 -999h-461l23 102c-90 -86 -201.333 -129 -334 -129c-104 0 -186.667 31 -248 93c-65.333 65.333 -98 155.333 -98 270c0 46.667 5.33301 95.667 16 147c34.667 164 106.334 297.333 215.001 400c104 96.667 218.667 145 344 145
c126 0 217.667 -40.333 275 -121l20 92h461zM881.999 520c2.66699 14 4 27 4 39c0 64 -28.667 96 -86 96c-40.667 0 -74.667 -20.833 -102 -62.5s-41 -84.167 -41 -127.5c0 -61.333 29.333 -92 88 -92c70 0 115.667 49 137 147zM1587 1811l-49.002 -235
c-53.333 -19.333 -105.333 -29 -156 -29c-35.333 0 -89.166 7.83301 -161.499 23.5s-122.833 23.5 -151.5 23.5c-58.667 0 -117.334 -16.333 -176.001 -49l51 238c50.667 22.667 105.334 34 164.001 34c32.667 0 79.834 -7.5 141.501 -22.5s114.167 -22.5 157.5 -22.5
c62.667 0 122.667 13 180 39zM1412 1360c-42 -80.667 -102.666 -145.834 -181.999 -195.501s-161.333 -74.5 -246 -74.5s-156.334 24.833 -215.001 74.5s-92 114.834 -100 195.501l178 174c-4 -57.333 12.167 -104.666 48.5 -141.999s83.166 -56 140.499 -56
s111.833 18.667 163.5 56s87.834 84.666 108.501 141.999z" />
    <glyph glyph-name="uni1EB6" unicode="&#x1eb6;" horiz-adv-x="1454" 
d="M1512 0h-574v182h-344l-80 -182h-571l811 1430h551zM955 545l-8 475l-211 -475h219zM639 -495c-87.333 0 -131 44.333 -131 133c0 58.667 20.5 111.667 61.5 159s90.167 71 147.5 71c41.333 0 73.833 -12.667 97.5 -38s35.5 -58.333 35.5 -99
c0 -59.333 -20.833 -111.833 -62.5 -157.5s-91.167 -68.5 -148.5 -68.5zM1473 1802c-42.667 -80.667 -103.496 -145.834 -182.496 -195.501s-160.833 -74.5 -245.5 -74.5s-156.334 24.833 -215.001 74.5s-92.334 114.834 -101.001 195.501l179 174
c-4.66699 -57.333 11.166 -104.666 47.499 -141.999s83.166 -56 140.499 -56s112 18.667 164 56s88 84.666 108 141.999z" />
    <glyph glyph-name="uni1EB7" unicode="&#x1eb7;" 
d="M1474 999l-213.001 -999h-461l23 102c-90 -86 -201.333 -129 -334 -129c-104 0 -186.667 31 -248 93c-65.333 65.333 -98 155.333 -98 270c0 46.667 5.33301 95.667 16 147c34.667 164 106.334 297.333 215.001 400c104 96.667 218.667 145 344 145
c126 0 217.667 -40.333 275 -121l20 92h461zM881.999 520c2.66699 14 4 27 4 39c0 64 -28.667 96 -86 96c-40.667 0 -74.667 -20.833 -102 -62.5s-41 -84.167 -41 -127.5c0 -61.333 29.333 -92 88 -92c70 0 115.667 49 137 147zM577.999 -495
c-87.333 0 -131 44.333 -131 133c0 58.667 20.5 111.667 61.5 159s90.167 71 147.5 71c41.333 0 73.833 -12.667 97.5 -38s35.5 -58.333 35.5 -99c0 -59.333 -20.833 -111.833 -62.5 -157.5s-91.167 -68.5 -148.5 -68.5zM1412 1360
c-42 -80.667 -102.666 -145.834 -181.999 -195.501s-161.333 -74.5 -246 -74.5s-156.334 24.833 -215.001 74.5s-92 114.834 -100 195.501l178 174c-4 -57.333 12.167 -104.666 48.5 -141.999s83.166 -56 140.499 -56s111.833 18.667 163.5 56
s87.834 84.666 108.501 141.999z" />
    <glyph glyph-name="uni1EB8" unicode="&#x1eb8;" horiz-adv-x="1163" 
d="M1455 1430l-192 -402h-444l-27 -119h399l-82 -385h-399l-25 -123h555l-200 -401h-969l303 1430h1081zM468 -495c-87.333 0 -131 44.333 -131 133c0 58.667 20.5 111.667 61.5 159s90.167 71 147.5 71c40.667 0 73 -12.667 97 -38s36 -58.333 36 -99
c0 -59.333 -20.833 -111.833 -62.5 -157.5s-91.167 -68.5 -148.5 -68.5z" />
    <glyph glyph-name="uni1EB9" unicode="&#x1eb9;" horiz-adv-x="1112" 
d="M1255 635l-615.999 -283c16 -30 37.667 -45 65 -45c34 0 64 17 90 51l273 -186c-139.333 -142 -301.333 -213 -486 -213c-128 0 -232.667 38.167 -314 114.5s-122 175.5 -122 297.5c0 35.333 4 72 12 110c32.667 156 112.167 287.167 238.5 393.5
s265.5 159.5 417.5 159.5c177.333 0 304.333 -66 381 -198c31.333 -56 51.666 -123 60.999 -201zM888.001 647c-27.333 41.333 -64 62 -110 62c-44 0 -85 -15.833 -123 -47.5s-61.333 -68.5 -70 -110.5c-1.33301 -8 -1.33301 -22.333 0 -43zM477.001 -495
c-87.333 0 -131 44.333 -131 133c0 58.667 20.5 111.667 61.5 159s90.167 71 147.5 71c41.333 0 73.833 -12.667 97.5 -38s35.5 -58.333 35.5 -99c0 -59.333 -20.833 -111.833 -62.5 -157.5s-91.167 -68.5 -148.5 -68.5z" />
    <glyph glyph-name="uni1EBA" unicode="&#x1eba;" horiz-adv-x="1163" 
d="M1455 1430l-192 -402h-444l-27 -119h399l-82 -385h-399l-25 -123h555l-200 -401h-969l303 1430h1081zM1219 1807c-11.333 -52 -36.334 -95.002 -75.001 -129.002l-101 -70c-36.667 -24.667 -58 -50.667 -64 -78h-218c10.667 43.333 31.334 81 62.001 113
c7.33301 8 34.333 30.333 81 67c28 22.667 44.333 44.334 49 65.001c3.33301 14.667 -0.5 26.834 -11.5 36.501s-26.5 14.5 -46.5 14.5c-37.333 0 -92.666 -20 -165.999 -60l-27 184c97.333 45.333 191.666 68 282.999 68c80 0 141.333 -17 184 -51
c36.667 -30 55 -69.333 55 -118c0 -13.333 -1.66699 -27.333 -5 -42z" />
    <glyph glyph-name="uni1EBB" unicode="&#x1ebb;" horiz-adv-x="1112" 
d="M1255 635l-615.999 -283c16 -30 37.667 -45 65 -45c34 0 64 17 90 51l273 -186c-139.333 -142 -301.333 -213 -486 -213c-128 0 -232.667 38.167 -314 114.5s-122 175.5 -122 297.5c0 35.333 4 72 12 110c32.667 156 112.167 287.167 238.5 393.5
s265.5 159.5 417.5 159.5c177.333 0 304.333 -66 381 -198c31.333 -56 51.666 -123 60.999 -201zM888.001 647c-27.333 41.333 -64 62 -110 62c-44 0 -85 -15.833 -123 -47.5s-61.333 -68.5 -70 -110.5c-1.33301 -8 -1.33301 -22.333 0 -43zM1178 1385
c-12 -52 -36.999 -95.002 -74.999 -129.002l-101 -70c-36.667 -24.667 -58.334 -50.667 -65.001 -78h-217c10 43.333 30.333 81 61 113c8 8 35 30.333 81 67c28 22.667 44.333 44.334 49 65.001c3.33301 14.667 -0.5 26.834 -11.5 36.501s-26.167 14.5 -45.5 14.5
c-37.333 0 -93 -20 -167 -60l-27 184c98 45.333 192.333 68 283 68c80.667 0 142 -17 184 -51c37.333 -30 56 -69.333 56 -118c0 -13.333 -1.66699 -27.333 -5 -42z" />
    <glyph glyph-name="uni1EBC" unicode="&#x1ebc;" horiz-adv-x="1163" 
d="M1455 1430l-192 -402h-444l-27 -119h399l-82 -385h-399l-25 -123h555l-200 -401h-969l303 1430h1081zM1262 1808l-49.001 -235c-53.333 -19.333 -105 -29 -155 -29c-36 0 -90.167 7.83301 -162.5 23.5s-122.833 23.5 -151.5 23.5
c-58.667 0 -117.334 -16.333 -176.001 -49l51 238c50.667 23.333 105.334 35 164.001 35c32.667 0 79.834 -7.66699 141.501 -23s114.167 -23 157.5 -23c62.667 0 122.667 13 180 39z" />
    <glyph glyph-name="uni1EBD" unicode="&#x1ebd;" horiz-adv-x="1112" 
d="M1255 635l-615.999 -283c16 -30 37.667 -45 65 -45c34 0 64 17 90 51l273 -186c-139.333 -142 -301.333 -213 -486 -213c-128 0 -232.667 38.167 -314 114.5s-122 175.5 -122 297.5c0 35.333 4 72 12 110c32.667 156 112.167 287.167 238.5 393.5
s265.5 159.5 417.5 159.5c177.333 0 304.333 -66 381 -198c31.333 -56 51.666 -123 60.999 -201zM888.001 647c-27.333 41.333 -64 62 -110 62c-44 0 -85 -15.833 -123 -47.5s-61.333 -68.5 -70 -110.5c-1.33301 -8 -1.33301 -22.333 0 -43zM1306 1419l-49.001 -235
c-53.333 -19.333 -105.333 -29 -156 -29c-35.333 0 -89.166 7.83301 -161.499 23.5s-122.833 23.5 -151.5 23.5c-58.667 0 -117.334 -16.333 -176.001 -49l51 238c50.667 22.667 105.334 34 164.001 34c32.667 0 79.667 -7.5 141 -22.5s114 -22.5 158 -22.5
c62.667 0 122.667 13 180 39z" />
    <glyph glyph-name="uni1EBE" unicode="&#x1ebe;" horiz-adv-x="1163" 
d="M1455 1430l-192 -402h-444l-27 -119h399l-82 -385h-399l-25 -123h555l-200 -401h-969l303 1430h1081zM1593 2075l-340 -315l-170 100l289 350zM1290 1665l-107 -172l-272 141l-334 -141l-33 172l418 211z" />
    <glyph glyph-name="uni1EBF" unicode="&#x1ebf;" horiz-adv-x="1112" 
d="M1255 635l-615.999 -283c16 -30 37.667 -45 65 -45c34 0 64 17 90 51l273 -186c-139.333 -142 -301.333 -213 -486 -213c-128 0 -232.667 38.167 -314 114.5s-122 175.5 -122 297.5c0 35.333 4 72 12 110c32.667 156 112.167 287.167 238.5 393.5
s265.5 159.5 417.5 159.5c177.333 0 304.333 -66 381 -198c31.333 -56 51.666 -123 60.999 -201zM888.001 647c-27.333 41.333 -64 62 -110 62c-44 0 -85 -15.833 -123 -47.5s-61.333 -68.5 -70 -110.5c-1.33301 -8 -1.33301 -22.333 0 -43zM1481 1710l-340 -316l-170 101
l289 350zM1237 1288l-107 -172l-272 141l-334 -141l-33 172l418 211z" />
    <glyph glyph-name="uni1EC0" unicode="&#x1ec0;" horiz-adv-x="1163" 
d="M1455 1430l-192 -402h-444l-27 -119h399l-82 -385h-399l-25 -123h555l-200 -401h-969l303 1430h1081zM894 1908l-209 -100l-196 290l278 136zM1290 1665l-107 -172l-272 141l-334 -141l-33 172l418 211z" />
    <glyph glyph-name="uni1EC1" unicode="&#x1ec1;" horiz-adv-x="1112" 
d="M1255 635l-615.999 -283c16 -30 37.667 -45 65 -45c34 0 64 17 90 51l273 -186c-139.333 -142 -301.333 -213 -486 -213c-128 0 -232.667 38.167 -314 114.5s-122 175.5 -122 297.5c0 35.333 4 72 12 110c32.667 156 112.167 287.167 238.5 393.5
s265.5 159.5 417.5 159.5c177.333 0 304.333 -66 381 -198c31.333 -56 51.666 -123 60.999 -201zM888.001 647c-27.333 41.333 -64 62 -110 62c-44 0 -85 -15.833 -123 -47.5s-61.333 -68.5 -70 -110.5c-1.33301 -8 -1.33301 -22.333 0 -43zM852.001 1521l-209 -100
l-197 290l279 136zM1237 1288l-107 -172l-272 141l-334 -141l-33 172l418 211z" />
    <glyph glyph-name="uni1EC2" unicode="&#x1ec2;" horiz-adv-x="1163" 
d="M1455 1430l-192 -402h-444l-27 -119h399l-82 -385h-399l-25 -123h555l-200 -401h-969l303 1430h1081zM1560 2108c-11.333 -52 -36.334 -95.001 -75.001 -129.001l-101 -70c-36.667 -24.667 -58 -50.667 -64 -78h-218c10.667 43.333 31.334 81 62.001 113
c7.33301 8 34.333 30.333 81 67c28 22.667 44.333 44.334 49 65.001c3.33301 14.667 -0.5 26.834 -11.5 36.5c-11 9.66699 -26.5 14.5 -46.5 14.5c-37.333 0 -92.666 -20 -165.999 -60l-27 184c97.333 45.333 191.666 68 282.999 68c80 0 141.333 -17 184 -51
c36.667 -30 55 -69.333 55 -118c0 -13.333 -1.66699 -27.333 -5 -42zM1290 1665l-107 -172l-272 141l-334 -141l-33 172l418 211z" />
    <glyph glyph-name="uni1EC3" unicode="&#x1ec3;" horiz-adv-x="1112" 
d="M1255 635l-615.999 -283c16 -30 37.667 -45 65 -45c34 0 64 17 90 51l273 -186c-139.333 -142 -301.333 -213 -486 -213c-128 0 -232.667 38.167 -314 114.5s-122 175.5 -122 297.5c0 35.333 4 72 12 110c32.667 156 112.167 287.167 238.5 393.5
s265.5 159.5 417.5 159.5c177.333 0 304.333 -66 381 -198c31.333 -56 51.666 -123 60.999 -201zM888.001 647c-27.333 41.333 -64 62 -110 62c-44 0 -85 -15.833 -123 -47.5s-61.333 -68.5 -70 -110.5c-1.33301 -8 -1.33301 -22.333 0 -43zM1489 1736
c-12 -52 -36.999 -95.002 -74.999 -129.002l-101 -70c-36.667 -24.667 -58.334 -50.667 -65.001 -78h-217c10 43.333 30.333 81 61 113c8 8 35 30.333 81 67c28 22.667 44.333 44.334 49 65.001c3.33301 14.667 -0.5 26.834 -11.5 36.501s-26.167 14.5 -45.5 14.5
c-37.333 0 -93 -20 -167 -60l-27 184c98 45.333 192.333 68 283 68c80.667 0 142 -17 184 -51c37.333 -30 56 -69.333 56 -118c0 -13.333 -1.66699 -27.333 -5 -42zM1237 1288l-107 -172l-272 141l-334 -141l-33 172l418 211z" />
    <glyph glyph-name="uni1EC4" unicode="&#x1ec4;" horiz-adv-x="1163" 
d="M1455 1430l-192 -402h-444l-27 -119h399l-82 -385h-399l-25 -123h555l-200 -401h-969l303 1430h1081zM1422 2149l-49.001 -235c-53.333 -19.333 -105 -29 -155 -29c-36 0 -90.167 7.83301 -162.5 23.5s-122.833 23.5 -151.5 23.5
c-58.667 0 -117.334 -16.333 -176.001 -49l51 238c50.667 23.333 105.334 35 164.001 35c32.667 0 79.834 -7.66699 141.501 -23s114.167 -23 157.5 -23c62.667 0 122.667 13 180 39zM1290 1665l-107 -172l-272 141l-334 -141l-33 172l418 211z" />
    <glyph glyph-name="uni1EC5" unicode="&#x1ec5;" horiz-adv-x="1112" 
d="M1255 635l-615.999 -283c16 -30 37.667 -45 65 -45c34 0 64 17 90 51l273 -186c-139.333 -142 -301.333 -213 -486 -213c-128 0 -232.667 38.167 -314 114.5s-122 175.5 -122 297.5c0 35.333 4 72 12 110c32.667 156 112.167 287.167 238.5 393.5
s265.5 159.5 417.5 159.5c177.333 0 304.333 -66 381 -198c31.333 -56 51.666 -123 60.999 -201zM888.001 647c-27.333 41.333 -64 62 -110 62c-44 0 -85 -15.833 -123 -47.5s-61.333 -68.5 -70 -110.5c-1.33301 -8 -1.33301 -22.333 0 -43zM1376 1760l-49.001 -235
c-53.333 -19.333 -105.333 -29 -156 -29c-35.333 0 -89.166 7.83301 -161.499 23.5s-122.833 23.5 -151.5 23.5c-58.667 0 -117.334 -16.333 -176.001 -49l51 238c50.667 22.667 105.334 34 164.001 34c32.667 0 79.667 -7.5 141 -22.5s114 -22.5 158 -22.5
c62.667 0 122.667 13 180 39zM1237 1288l-107 -172l-272 141l-334 -141l-33 172l418 211z" />
    <glyph glyph-name="uni1EC6" unicode="&#x1ec6;" horiz-adv-x="1163" 
d="M1455 1430l-192 -402h-444l-27 -119h399l-82 -385h-399l-25 -123h555l-200 -401h-969l303 1430h1081zM468 -495c-87.333 0 -131 44.333 -131 133c0 58.667 20.5 111.667 61.5 159s90.167 71 147.5 71c40.667 0 73 -12.667 97 -38s36 -58.333 36 -99
c0 -59.333 -20.833 -111.833 -62.5 -157.5s-91.167 -68.5 -148.5 -68.5zM1290 1665l-107 -172l-272 141l-334 -141l-33 172l418 211z" />
    <glyph glyph-name="uni1EC7" unicode="&#x1ec7;" horiz-adv-x="1112" 
d="M1255 635l-615.999 -283c16 -30 37.667 -45 65 -45c34 0 64 17 90 51l273 -186c-139.333 -142 -301.333 -213 -486 -213c-128 0 -232.667 38.167 -314 114.5s-122 175.5 -122 297.5c0 35.333 4 72 12 110c32.667 156 112.167 287.167 238.5 393.5
s265.5 159.5 417.5 159.5c177.333 0 304.333 -66 381 -198c31.333 -56 51.666 -123 60.999 -201zM888.001 647c-27.333 41.333 -64 62 -110 62c-44 0 -85 -15.833 -123 -47.5s-61.333 -68.5 -70 -110.5c-1.33301 -8 -1.33301 -22.333 0 -43zM477.001 -495
c-87.333 0 -131 44.333 -131 133c0 58.667 20.5 111.667 61.5 159s90.167 71 147.5 71c41.333 0 73.833 -12.667 97.5 -38s35.5 -58.333 35.5 -99c0 -59.333 -20.833 -111.833 -62.5 -157.5s-91.167 -68.5 -148.5 -68.5zM1237 1288l-107 -172l-272 141l-334 -141l-33 172
l418 211z" />
    <glyph glyph-name="uni1EC8" unicode="&#x1ec8;" horiz-adv-x="671" 
d="M902 1430l-303 -1430h-528l303 1430h528zM1008 1807c-12 -52 -37 -95.002 -75 -129.002l-101 -70c-37.333 -24.667 -59 -50.667 -65 -78h-217c10 43.333 30.333 81 61 113c8 8 35 30.333 81 67c28 22.667 44.333 44.334 49 65.001
c3.33301 14.667 -0.5 26.834 -11.5 36.501s-26.167 14.5 -45.5 14.5c-38 0 -93.667 -20 -167 -60l-27 184c98 45.333 192.333 68 283 68c80.667 0 142 -17 184 -51c36.667 -30 55 -69.333 55 -118c0 -13.333 -1.33301 -27.333 -4 -42z" />
    <glyph glyph-name="uni1EC9" unicode="&#x1ec9;" horiz-adv-x="630" 
d="M782 1047l-224 -1047h-487l164 774zM897 1345c-12 -52 -37 -95.002 -75 -129.002l-101 -70c-37.333 -24.667 -59 -50.667 -65 -78h-217c10 43.333 30.333 81 61 113c8 8 35 30.333 81 67c28 22.667 44.333 44.334 49 65.001c3.33301 14.667 -0.5 26.834 -11.5 36.501
s-26.167 14.5 -45.5 14.5c-38 0 -93.667 -20 -167 -60l-27 184c98 45.333 192.333 68 283 68c80.667 0 142 -17 184 -51c36.667 -30 55 -69.333 55 -118c0 -13.333 -1.33301 -27.333 -4 -42z" />
    <glyph glyph-name="uni1ECA" unicode="&#x1eca;" horiz-adv-x="671" 
d="M902 1430l-303 -1430h-528l303 1430h528zM256 -495c-87.333 0 -131 44.333 -131 133c0 58.667 20.5 111.667 61.5 159s90.167 71 147.5 71c40.667 0 73 -12.667 97 -38s36 -58.333 36 -99c0 -59.333 -20.833 -111.833 -62.5 -157.5s-91.167 -68.5 -148.5 -68.5z" />
    <glyph glyph-name="uni1ECB" unicode="&#x1ecb;" horiz-adv-x="630" 
d="M857 1278c-14.667 -74 -52.335 -135.499 -113.002 -184.499s-126 -73.5 -196 -73.5c-61.333 0 -111.833 18 -151.5 54s-59.5 83.667 -59.5 143c0 17.333 2 35.666 6 54.999c15.333 70.667 53.333 131 114 181s127.334 75 200.001 75
c58.667 0 107.834 -18.833 147.501 -56.5s59.5 -85.167 59.5 -142.5c0 -17.333 -2.33301 -34.333 -7 -51zM781.999 1047l-224 -1047h-487l164 774zM205.999 -494.999c-87.333 0 -131 44.333 -131 133c0 58.667 20.5 111.667 61.5 159s90.167 71 147.5 71
c40.667 0 73 -12.667 97 -38s36 -58.333 36 -99c0 -59.333 -20.833 -111.833 -62.5 -157.5s-91.167 -68.5 -148.5 -68.5z" />
    <glyph glyph-name="uni1ECC" unicode="&#x1ecc;" horiz-adv-x="1697" 
d="M1789 709c-48.667 -234 -173.333 -418.998 -374 -554.998c-178 -123.333 -372 -185 -582 -185c-190 0 -344.333 54.667 -463 164s-178 250.666 -178 423.999c0 52 5.33301 104.667 16 158c45.333 212.667 157.5 390 336.5 532s384.5 213 616.5 213
c188 0 341.667 -50.333 461 -151c124 -106.667 186 -249.334 186 -428.001c0 -54.667 -6.33301 -112 -19 -172zM1271 715.002c4 18.667 6 37 6 55c0 62.667 -21.167 115.167 -63.5 157.5s-95.5 63.5 -159.5 63.5c-82 0 -157.5 -35.167 -226.5 -105.5
s-103.5 -146.5 -103.5 -228.5c0 -61.333 20.5 -111.833 61.5 -151.5s93.167 -59.5 156.5 -59.5c74.667 0 144.167 25.333 208.5 76s104.5 115 120.5 193zM598.001 -494.998c-87.333 0 -131 44.333 -131 133c0 58.667 20.5 111.667 61.5 159s90.167 71 147.5 71
c41.333 0 73.833 -12.667 97.5 -38s35.5 -58.333 35.5 -99c0 -59.333 -20.833 -111.833 -62.5 -157.5s-91.167 -68.5 -148.5 -68.5z" />
    <glyph glyph-name="uni1ECD" unicode="&#x1ecd;" horiz-adv-x="1222" 
d="M1273 506c-32.667 -157.333 -114.166 -288.832 -244.499 -394.499s-272.5 -158.5 -426.5 -158.5c-132.667 0 -241.334 41.333 -326.001 124s-127 186 -127 310c0 35.333 4 71.666 12 108.999c31.333 150 113 278.167 245 384.5s274.333 159.5 427 159.5
c138 0 249.333 -43 334 -129c78 -82 117 -183 117 -303c0 -34 -3.66699 -68 -11 -102zM821.001 496.001c2.66699 14.667 4 29.001 4 43.001c0 61.333 -27.333 92 -82 92c-28.667 0 -55.667 -12.333 -81 -37s-42 -57.334 -50 -98.001c-2.66699 -14 -4 -27.667 -4 -41
c0 -62 27.333 -93 82 -93c68 0 111.667 44.667 131 134zM477.001 -494.998c-87.333 0 -131 44.333 -131 133c0 58.667 20.5 111.667 61.5 159s90.167 71 147.5 71c41.333 0 73.833 -12.667 97.5 -38s35.5 -58.333 35.5 -99c0 -59.333 -20.833 -111.833 -62.5 -157.5
s-91.167 -68.5 -148.5 -68.5z" />
    <glyph glyph-name="uni1ECE" unicode="&#x1ece;" horiz-adv-x="1697" 
d="M1789 709c-48.667 -234 -173.333 -418.998 -374 -554.998c-178 -123.333 -372 -185 -582 -185c-190 0 -344.333 54.667 -463 164s-178 250.666 -178 423.999c0 52 5.33301 104.667 16 158c45.333 212.667 157.5 390 336.5 532s384.5 213 616.5 213
c188 0 341.667 -50.333 461 -151c124 -106.667 186 -249.334 186 -428.001c0 -54.667 -6.33301 -112 -19 -172zM1271 715.002c4 18.667 6 37 6 55c0 62.667 -21.167 115.167 -63.5 157.5s-95.5 63.5 -159.5 63.5c-82 0 -157.5 -35.167 -226.5 -105.5
s-103.5 -146.5 -103.5 -228.5c0 -61.333 20.5 -111.833 61.5 -151.5s93.167 -59.5 156.5 -59.5c74.667 0 144.167 25.333 208.5 76s104.5 115 120.5 193zM1530 1807c-12 -52 -36.999 -95.002 -74.999 -129.002l-101 -70c-36.667 -24.667 -58.334 -50.667 -65.001 -78h-217
c10 43.333 30.333 81 61 113c8 8 35 30.333 81 67c28 22.667 44.333 44.334 49 65.001c3.33301 14.667 -0.5 26.834 -11.5 36.501s-26.167 14.5 -45.5 14.5c-38 0 -93.667 -20 -167 -60l-27 184c98 45.333 192.333 68 283 68c80.667 0 142 -17 184 -51
c37.333 -30 56 -69.333 56 -118c0 -13.333 -1.66699 -27.333 -5 -42z" />
    <glyph glyph-name="uni1ECF" unicode="&#x1ecf;" horiz-adv-x="1222" 
d="M1273 506c-32.667 -157.333 -114.166 -288.832 -244.499 -394.499s-272.5 -158.5 -426.5 -158.5c-132.667 0 -241.334 41.333 -326.001 124s-127 186 -127 310c0 35.333 4 71.666 12 108.999c31.333 150 113 278.167 245 384.5s274.333 159.5 427 159.5
c138 0 249.333 -43 334 -129c78 -82 117 -183 117 -303c0 -34 -3.66699 -68 -11 -102zM821.001 496.001c2.66699 14.667 4 29.001 4 43.001c0 61.333 -27.333 92 -82 92c-28.667 0 -55.667 -12.333 -81 -37s-42 -57.334 -50 -98.001c-2.66699 -14 -4 -27.667 -4 -41
c0 -62 27.333 -93 82 -93c68 0 111.667 44.667 131 134zM1178 1385c-12 -52 -36.999 -95.002 -74.999 -129.002l-101 -70c-36.667 -24.667 -58.334 -50.667 -65.001 -78h-217c10 43.333 30.333 81 61 113c8 8 35 30.333 81 67c28 22.667 44.333 44.334 49 65.001
c3.33301 14.667 -0.5 26.834 -11.5 36.501s-26.167 14.5 -45.5 14.5c-38 0 -93.667 -20 -167 -60l-27 184c98 45.333 192.333 68 283 68c80.667 0 142 -17 184 -51c37.333 -30 56 -69.333 56 -118c0 -13.333 -1.66699 -27.333 -5 -42z" />
    <glyph glyph-name="uni1ED0" unicode="&#x1ed0;" horiz-adv-x="1697" 
d="M1789 709c-48.667 -234 -173.333 -418.998 -374 -554.998c-178 -123.333 -372 -185 -582 -185c-190 0 -344.333 54.667 -463 164s-178 250.666 -178 423.999c0 52 5.33301 104.667 16 158c45.333 212.667 157.5 390 336.5 532s384.5 213 616.5 213
c188 0 341.667 -50.333 461 -151c124 -106.667 186 -249.334 186 -428.001c0 -54.667 -6.33301 -112 -19 -172zM1271 715.002c4 18.667 6 37 6 55c0 62.667 -21.167 115.167 -63.5 157.5s-95.5 63.5 -159.5 63.5c-82 0 -157.5 -35.167 -226.5 -105.5
s-103.5 -146.5 -103.5 -228.5c0 -61.333 20.5 -111.833 61.5 -151.5s93.167 -59.5 156.5 -59.5c74.667 0 144.167 25.333 208.5 76s104.5 115 120.5 193zM1848 2088l-340 -316l-170 101l289 350zM1564 1671l-106 -172l-273 141l-334 -141l-32 172l417 211z" />
    <glyph glyph-name="uni1ED1" unicode="&#x1ed1;" horiz-adv-x="1222" 
d="M1273 506c-32.667 -157.333 -114.166 -288.832 -244.499 -394.499s-272.5 -158.5 -426.5 -158.5c-132.667 0 -241.334 41.333 -326.001 124s-127 186 -127 310c0 35.333 4 71.666 12 108.999c31.333 150 113 278.167 245 384.5s274.333 159.5 427 159.5
c138 0 249.333 -43 334 -129c78 -82 117 -183 117 -303c0 -34 -3.66699 -68 -11 -102zM821.001 496.001c2.66699 14.667 4 29.001 4 43.001c0 61.333 -27.333 92 -82 92c-28.667 0 -55.667 -12.333 -81 -37s-42 -57.334 -50 -98.001c-2.66699 -14 -4 -27.667 -4 -41
c0 -62 27.333 -93 82 -93c68 0 111.667 44.667 131 134zM1485 1734l-340 -315l-170 100l289 350zM1228 1298l-106 -172l-273 142l-333 -142l-33 172l418 211z" />
    <glyph glyph-name="uni1ED2" unicode="&#x1ed2;" horiz-adv-x="1697" 
d="M1789 709c-48.667 -234 -173.333 -418.998 -374 -554.998c-178 -123.333 -372 -185 -582 -185c-190 0 -344.333 54.667 -463 164s-178 250.666 -178 423.999c0 52 5.33301 104.667 16 158c45.333 212.667 157.5 390 336.5 532s384.5 213 616.5 213
c188 0 341.667 -50.333 461 -151c124 -106.667 186 -249.334 186 -428.001c0 -54.667 -6.33301 -112 -19 -172zM1271 715.002c4 18.667 6 37 6 55c0 62.667 -21.167 115.167 -63.5 157.5s-95.5 63.5 -159.5 63.5c-82 0 -157.5 -35.167 -226.5 -105.5
s-103.5 -146.5 -103.5 -228.5c0 -61.333 20.5 -111.833 61.5 -151.5s93.167 -59.5 156.5 -59.5c74.667 0 144.167 25.333 208.5 76s104.5 115 120.5 193zM1182 1903l-209 -101l-197 291l279 135zM1564 1671l-106 -172l-273 141l-334 -141l-32 172l417 211z" />
    <glyph glyph-name="uni1ED3" unicode="&#x1ed3;" horiz-adv-x="1222" 
d="M1273 506c-32.667 -157.333 -114.166 -288.832 -244.499 -394.499s-272.5 -158.5 -426.5 -158.5c-132.667 0 -241.334 41.333 -326.001 124s-127 186 -127 310c0 35.333 4 71.666 12 108.999c31.333 150 113 278.167 245 384.5s274.333 159.5 427 159.5
c138 0 249.333 -43 334 -129c78 -82 117 -183 117 -303c0 -34 -3.66699 -68 -11 -102zM821.001 496.001c2.66699 14.667 4 29.001 4 43.001c0 61.333 -27.333 92 -82 92c-28.667 0 -55.667 -12.333 -81 -37s-42 -57.334 -50 -98.001c-2.66699 -14 -4 -27.667 -4 -41
c0 -62 27.333 -93 82 -93c68 0 111.667 44.667 131 134zM853.001 1546l-209 -100l-197 290l279 136zM1228 1298l-106 -172l-273 142l-333 -142l-33 172l418 211z" />
    <glyph glyph-name="uni1ED4" unicode="&#x1ed4;" horiz-adv-x="1697" 
d="M1789 709c-48.667 -234 -173.333 -418.998 -374 -554.998c-178 -123.333 -372 -185 -582 -185c-190 0 -344.333 54.667 -463 164s-178 250.666 -178 423.999c0 52 5.33301 104.667 16 158c45.333 212.667 157.5 390 336.5 532s384.5 213 616.5 213
c188 0 341.667 -50.333 461 -151c124 -106.667 186 -249.334 186 -428.001c0 -54.667 -6.33301 -112 -19 -172zM1271 715.002c4 18.667 6 37 6 55c0 62.667 -21.167 115.167 -63.5 157.5s-95.5 63.5 -159.5 63.5c-82 0 -157.5 -35.167 -226.5 -105.5
s-103.5 -146.5 -103.5 -228.5c0 -61.333 20.5 -111.833 61.5 -151.5s93.167 -59.5 156.5 -59.5c74.667 0 144.167 25.333 208.5 76s104.5 115 120.5 193zM1811 2119c-12 -52 -36.999 -95.001 -74.999 -129.001l-101 -70c-36.667 -24.667 -58.334 -50.667 -65.001 -78h-217
c10 43.333 30.333 81 61 113c8 8 35 30.333 81 67c28 22.667 44.333 44.334 49 65.001c3.33301 14.667 -0.5 26.834 -11.5 36.5c-11 9.66699 -26.167 14.5 -45.5 14.5c-38 0 -93.667 -20 -167 -60l-27 184c98 45.333 192.333 68 283 68c80.667 0 142 -17 184 -51
c37.333 -30 56 -69.333 56 -118c0 -13.333 -1.66699 -27.333 -5 -42zM1564 1671l-106 -172l-273 141l-334 -141l-32 172l417 211z" />
    <glyph glyph-name="uni1ED5" unicode="&#x1ed5;" horiz-adv-x="1222" 
d="M1273 506c-32.667 -157.333 -114.166 -288.832 -244.499 -394.499s-272.5 -158.5 -426.5 -158.5c-132.667 0 -241.334 41.333 -326.001 124s-127 186 -127 310c0 35.333 4 71.666 12 108.999c31.333 150 113 278.167 245 384.5s274.333 159.5 427 159.5
c138 0 249.333 -43 334 -129c78 -82 117 -183 117 -303c0 -34 -3.66699 -68 -11 -102zM821.001 496.001c2.66699 14.667 4 29.001 4 43.001c0 61.333 -27.333 92 -82 92c-28.667 0 -55.667 -12.333 -81 -37s-42 -57.334 -50 -98.001c-2.66699 -14 -4 -27.667 -4 -41
c0 -62 27.333 -93 82 -93c68 0 111.667 44.667 131 134zM1479 1736c-12 -52 -36.999 -95.002 -74.999 -129.002l-101 -70c-36.667 -24.667 -58.334 -50.667 -65.001 -78h-217c10 43.333 30.333 81 61 113c8 8 35 30.333 81 67c28 22.667 44.333 44.334 49 65.001
c3.33301 14.667 -0.5 26.834 -11.5 36.501s-26.167 14.5 -45.5 14.5c-38 0 -93.667 -20 -167 -60l-27 184c98 45.333 192.333 68 283 68c80.667 0 142 -17 184 -51c37.333 -30 56 -69.333 56 -118c0 -13.333 -1.66699 -27.333 -5 -42zM1228 1298l-106 -172l-273 142
l-333 -142l-33 172l418 211z" />
    <glyph glyph-name="uni1ED6" unicode="&#x1ed6;" horiz-adv-x="1697" 
d="M1789 709c-48.667 -234 -173.333 -418.998 -374 -554.998c-178 -123.333 -372 -185 -582 -185c-190 0 -344.333 54.667 -463 164s-178 250.666 -178 423.999c0 52 5.33301 104.667 16 158c45.333 212.667 157.5 390 336.5 532s384.5 213 616.5 213
c188 0 341.667 -50.333 461 -151c124 -106.667 186 -249.334 186 -428.001c0 -54.667 -6.33301 -112 -19 -172zM1271 715.002c4 18.667 6 37 6 55c0 62.667 -21.167 115.167 -63.5 157.5s-95.5 63.5 -159.5 63.5c-82 0 -157.5 -35.167 -226.5 -105.5
s-103.5 -146.5 -103.5 -228.5c0 -61.333 20.5 -111.833 61.5 -151.5s93.167 -59.5 156.5 -59.5c74.667 0 144.167 25.333 208.5 76s104.5 115 120.5 193zM1755 2145l-49.001 -235c-53.333 -19.333 -105.333 -29 -156 -29c-35.333 0 -89.166 7.83301 -161.499 23.5
s-122.833 23.5 -151.5 23.5c-58.667 0 -117.334 -16.333 -176.001 -49l51 238c50.667 22.667 105.334 34 164.001 34c32.667 0 79.667 -7.5 141 -22.5s114 -22.5 158 -22.5c62.667 0 122.667 13 180 39zM1564 1671l-106 -172l-273 141l-334 -141l-32 172l417 211z" />
    <glyph glyph-name="uni1ED7" unicode="&#x1ed7;" horiz-adv-x="1222" 
d="M1273 506c-32.667 -157.333 -114.166 -288.832 -244.499 -394.499s-272.5 -158.5 -426.5 -158.5c-132.667 0 -241.334 41.333 -326.001 124s-127 186 -127 310c0 35.333 4 71.666 12 108.999c31.333 150 113 278.167 245 384.5s274.333 159.5 427 159.5
c138 0 249.333 -43 334 -129c78 -82 117 -183 117 -303c0 -34 -3.66699 -68 -11 -102zM821.001 496.001c2.66699 14.667 4 29.001 4 43.001c0 61.333 -27.333 92 -82 92c-28.667 0 -55.667 -12.333 -81 -37s-42 -57.334 -50 -98.001c-2.66699 -14 -4 -27.667 -4 -41
c0 -62 27.333 -93 82 -93c68 0 111.667 44.667 131 134zM1376 1764l-49.001 -235c-53.333 -19.333 -105.333 -29 -156 -29c-35.333 0 -89.166 7.83301 -161.499 23.5s-122.833 23.5 -151.5 23.5c-58.667 0 -117.334 -16.333 -176.001 -49l51 237
c50.667 23.333 105.334 35 164.001 35c32.667 0 79.667 -7.5 141 -22.5s114 -22.5 158 -22.5c62.667 0 122.667 13 180 39zM1228 1298l-106 -172l-273 142l-333 -142l-33 172l418 211z" />
    <glyph glyph-name="uni1ED8" unicode="&#x1ed8;" horiz-adv-x="1697" 
d="M1789 709c-48.667 -234 -173.333 -418.998 -374 -554.998c-178 -123.333 -372 -185 -582 -185c-190 0 -344.333 54.667 -463 164s-178 250.666 -178 423.999c0 52 5.33301 104.667 16 158c45.333 212.667 157.5 390 336.5 532s384.5 213 616.5 213
c188 0 341.667 -50.333 461 -151c124 -106.667 186 -249.334 186 -428.001c0 -54.667 -6.33301 -112 -19 -172zM1271 715.002c4 18.667 6 37 6 55c0 62.667 -21.167 115.167 -63.5 157.5s-95.5 63.5 -159.5 63.5c-82 0 -157.5 -35.167 -226.5 -105.5
s-103.5 -146.5 -103.5 -228.5c0 -61.333 20.5 -111.833 61.5 -151.5s93.167 -59.5 156.5 -59.5c74.667 0 144.167 25.333 208.5 76s104.5 115 120.5 193zM648.001 -494.998c-87.333 0 -131 44.333 -131 133c0 58.667 20.5 111.667 61.5 159s90.167 71 147.5 71
c41.333 0 73.833 -12.667 97.5 -38s35.5 -58.333 35.5 -99c0 -59.333 -20.833 -111.833 -62.5 -157.5s-91.167 -68.5 -148.5 -68.5zM1564 1671l-106 -172l-273 141l-334 -141l-32 172l417 211z" />
    <glyph glyph-name="uni1ED9" unicode="&#x1ed9;" horiz-adv-x="1222" 
d="M1273 506c-32.667 -157.333 -114.166 -288.832 -244.499 -394.499s-272.5 -158.5 -426.5 -158.5c-132.667 0 -241.334 41.333 -326.001 124s-127 186 -127 310c0 35.333 4 71.666 12 108.999c31.333 150 113 278.167 245 384.5s274.333 159.5 427 159.5
c138 0 249.333 -43 334 -129c78 -82 117 -183 117 -303c0 -34 -3.66699 -68 -11 -102zM821.001 496.001c2.66699 14.667 4 29.001 4 43.001c0 61.333 -27.333 92 -82 92c-28.667 0 -55.667 -12.333 -81 -37s-42 -57.334 -50 -98.001c-2.66699 -14 -4 -27.667 -4 -41
c0 -62 27.333 -93 82 -93c68 0 111.667 44.667 131 134zM477.001 -494.998c-87.333 0 -131 44.333 -131 133c0 58.667 20.5 111.667 61.5 159s90.167 71 147.5 71c41.333 0 73.833 -12.667 97.5 -38s35.5 -58.333 35.5 -99c0 -59.333 -20.833 -111.833 -62.5 -157.5
s-91.167 -68.5 -148.5 -68.5zM1228 1298l-106 -172l-273 142l-333 -142l-33 172l418 211z" />
    <glyph glyph-name="uni1EDA" unicode="&#x1eda;" horiz-adv-x="1697" 
d="M1271 715c4 18.667 6 37 6 55c0 62.667 -21.167 115.167 -63.5 157.5s-95.5 63.5 -159.5 63.5c-82 0 -157.5 -35.167 -226.5 -105.5s-103.5 -146.5 -103.5 -228.5c0 -61.333 20.5 -111.833 61.5 -151.5s92.833 -59.5 155.5 -59.5c75.333 0 145 25.333 209 76
s104.333 115 121 193zM1416 1817l-340 -316l-170 101l289 350zM1665 1267c94.667 -100.667 141.997 -229.329 141.997 -385.996c0 -54.667 -6 -112 -18 -172c-49.333 -234 -174.333 -419 -375 -555c-177.333 -123.333 -371 -185 -581 -185c-190 0 -344.333 54.667 -463 164
s-178 250.666 -178 423.999c0 52 5.33301 104.667 16 158c44.667 212.667 156.5 390 335.5 532s384.5 213 616.5 213c152.667 0 282.334 -33 389.001 -99c36.667 23.333 72.667 50.333 108 81c-59.333 33.333 -83.666 81 -72.999 143c2 11.333 5.33301 23.666 10 36.999
c19.333 47.333 51.166 85.166 95.499 113.499s92.5 38.166 144.5 29.499c40.667 -6.66699 72.334 -27.167 95.001 -61.5s30.334 -73.166 23.001 -116.499c-11.333 -66.667 -60 -137.667 -146 -213c-36.667 -32.667 -83.667 -68.334 -141 -107.001z" />
    <glyph glyph-name="uni1EDB" unicode="&#x1edb;" horiz-adv-x="1222" 
d="M820 496c2.66699 14.667 3.99902 29.001 3.99902 43.001c0 61.333 -27.333 92 -82 92c-28.667 0 -55.5 -12.333 -80.5 -37s-41.833 -57.334 -50.5 -98.001c-2.66699 -14 -4 -27.667 -4 -41c0 -62 27.333 -93 82 -93c68.667 0 112.334 44.667 131.001 134zM1134 1413
l-340 -315l-170 100l288 350zM1207 861.001c50.667 -72 75.998 -156.331 75.998 -252.998c0 -34 -3.33301 -68 -10 -102c-32.667 -157.333 -114.167 -288.833 -244.5 -394.5s-272.833 -158.5 -427.5 -158.5c-132.667 0 -241.167 41.333 -325.5 124s-126.5 186 -126.5 310
c0 35.333 4 71.666 12 108.999c31.333 150 112.833 278.167 244.5 384.5s274.167 159.5 427.5 159.5c106 0 196.333 -25.667 271 -77c30.667 20.667 60.667 43.667 90 69c-59.333 33.333 -83.666 81 -72.999 143c2 11.333 5.33301 23.666 10 36.999
c19.333 47.333 51.166 85.166 95.499 113.499s92.5 38.166 144.5 29.499c40.667 -6.66699 72.334 -27.167 95.001 -61.5s30.334 -73.166 23.001 -116.499c-11.333 -66.667 -60 -137.667 -146 -213c-36 -31.333 -81.333 -65.666 -136 -102.999z" />
    <glyph glyph-name="uni1EDC" unicode="&#x1edc;" horiz-adv-x="1697" 
d="M1271 715c4 18.667 6 37 6 55c0 62.667 -21.167 115.167 -63.5 157.5s-95.5 63.5 -159.5 63.5c-82 0 -157.5 -35.167 -226.5 -105.5s-103.5 -146.5 -103.5 -228.5c0 -61.333 20.5 -111.833 61.5 -151.5s92.833 -59.5 155.5 -59.5c75.333 0 145 25.333 209 76
s104.333 115 121 193zM1281 1602l-209 -101l-196 291l278 135zM1665 1267c94.667 -100.667 141.997 -229.329 141.997 -385.996c0 -54.667 -6 -112 -18 -172c-49.333 -234 -174.333 -419 -375 -555c-177.333 -123.333 -371 -185 -581 -185c-190 0 -344.333 54.667 -463 164
s-178 250.666 -178 423.999c0 52 5.33301 104.667 16 158c44.667 212.667 156.5 390 335.5 532s384.5 213 616.5 213c152.667 0 282.334 -33 389.001 -99c36.667 23.333 72.667 50.333 108 81c-59.333 33.333 -83.666 81 -72.999 143c2 11.333 5.33301 23.666 10 36.999
c19.333 47.333 51.166 85.166 95.499 113.499s92.5 38.166 144.5 29.499c40.667 -6.66699 72.334 -27.167 95.001 -61.5s30.334 -73.166 23.001 -116.499c-11.333 -66.667 -60 -137.667 -146 -213c-36.667 -32.667 -83.667 -68.334 -141 -107.001z" />
    <glyph glyph-name="uni1EDD" unicode="&#x1edd;" horiz-adv-x="1222" 
d="M820 496c2.66699 14.667 3.99902 29.001 3.99902 43.001c0 61.333 -27.333 92 -82 92c-28.667 0 -55.5 -12.333 -80.5 -37s-41.833 -57.334 -50.5 -98.001c-2.66699 -14 -4 -27.667 -4 -41c0 -62 27.333 -93 82 -93c68.667 0 112.334 44.667 131.001 134zM1033 1196
l-209 -100l-196 290l278 136zM1207 861.001c50.667 -72 75.998 -156.331 75.998 -252.998c0 -34 -3.33301 -68 -10 -102c-32.667 -157.333 -114.167 -288.833 -244.5 -394.5s-272.833 -158.5 -427.5 -158.5c-132.667 0 -241.167 41.333 -325.5 124s-126.5 186 -126.5 310
c0 35.333 4 71.666 12 108.999c31.333 150 112.833 278.167 244.5 384.5s274.167 159.5 427.5 159.5c106 0 196.333 -25.667 271 -77c30.667 20.667 60.667 43.667 90 69c-59.333 33.333 -83.666 81 -72.999 143c2 11.333 5.33301 23.666 10 36.999
c19.333 47.333 51.166 85.166 95.499 113.499s92.5 38.166 144.5 29.499c40.667 -6.66699 72.334 -27.167 95.001 -61.5s30.334 -73.166 23.001 -116.499c-11.333 -66.667 -60 -137.667 -146 -213c-36 -31.333 -81.333 -65.666 -136 -102.999z" />
    <glyph glyph-name="uni1EDE" unicode="&#x1ede;" horiz-adv-x="1697" 
d="M1271 715c4 18.667 6 37 6 55c0 62.667 -21.167 115.167 -63.5 157.5s-95.5 63.5 -159.5 63.5c-82 0 -157.5 -35.167 -226.5 -105.5s-103.5 -146.5 -103.5 -228.5c0 -61.333 20.5 -111.833 61.5 -151.5s92.833 -59.5 155.5 -59.5c75.333 0 145 25.333 209 76
s104.333 115 121 193zM1529 1807c-11.333 -52 -36.334 -95.002 -75.001 -129.002l-101 -70c-36.667 -24.667 -58 -50.667 -64 -78h-218c10.667 43.333 31.334 81 62.001 113c7.33301 8 34.333 30.333 81 67c28 22.667 44.333 44.334 49 65.001
c3.33301 14.667 -0.5 26.834 -11.5 36.501s-26.5 14.5 -46.5 14.5c-37.333 0 -92.666 -20 -165.999 -60l-27 184c97.333 45.333 191.666 68 282.999 68c80 0 141.333 -17 184 -51c36.667 -30 55 -69.333 55 -118c0 -13.333 -1.66699 -27.333 -5 -42zM1665 1267
c94.667 -100.667 141.997 -229.329 141.997 -385.996c0 -54.667 -6 -112 -18 -172c-49.333 -234 -174.333 -419 -375 -555c-177.333 -123.333 -371 -185 -581 -185c-190 0 -344.333 54.667 -463 164s-178 250.666 -178 423.999c0 52 5.33301 104.667 16 158
c44.667 212.667 156.5 390 335.5 532s384.5 213 616.5 213c152.667 0 282.334 -33 389.001 -99c36.667 23.333 72.667 50.333 108 81c-59.333 33.333 -83.666 81 -72.999 143c2 11.333 5.33301 23.666 10 36.999c19.333 47.333 51.166 85.166 95.499 113.499
s92.5 38.166 144.5 29.499c40.667 -6.66699 72.334 -27.167 95.001 -61.5s30.334 -73.166 23.001 -116.499c-11.333 -66.667 -60 -137.667 -146 -213c-36.667 -32.667 -83.667 -68.334 -141 -107.001z" />
    <glyph glyph-name="uni1EDF" unicode="&#x1edf;" horiz-adv-x="1222" 
d="M820 496c2.66699 14.667 3.99902 29.001 3.99902 43.001c0 61.333 -27.333 92 -82 92c-28.667 0 -55.5 -12.333 -80.5 -37s-41.833 -57.334 -50.5 -98.001c-2.66699 -14 -4 -27.667 -4 -41c0 -62 27.333 -93 82 -93c68.667 0 112.334 44.667 131.001 134zM1177 1385
c-11.333 -52 -36.334 -95.002 -75.001 -129.002l-101 -70c-36.667 -24.667 -58 -50.667 -64 -78h-218c10.667 43.333 31.334 81 62.001 113c7.33301 8 34.333 30.333 81 67c28 22.667 44.333 44.334 49 65.001c3.33301 14.667 -0.5 26.834 -11.5 36.501
s-26.5 14.5 -46.5 14.5c-37.333 0 -92.666 -20 -165.999 -60l-27 184c97.333 45.333 191.666 68 282.999 68c80 0 141.333 -17 184 -51c36.667 -30 55 -69.333 55 -118c0 -13.333 -1.66699 -27.333 -5 -42zM1207 860.999c50.667 -72 75.998 -156.331 75.998 -252.998
c0 -34 -3.33301 -68 -10 -102c-32.667 -157.333 -114.167 -288.833 -244.5 -394.5s-272.833 -158.5 -427.5 -158.5c-132.667 0 -241.167 41.333 -325.5 124s-126.5 186 -126.5 310c0 35.333 4 71.666 12 108.999c31.333 150 112.833 278.167 244.5 384.5
s274.167 159.5 427.5 159.5c106 0 196.333 -25.667 271 -77c30.667 20.667 60.667 43.667 90 69c-59.333 33.333 -83.666 81 -72.999 143c2 11.333 5.33301 23.666 10 36.999c19.333 47.333 51.166 85.166 95.499 113.499s92.5 38.166 144.5 29.499
c40.667 -6.66699 72.334 -27.167 95.001 -61.5s30.334 -73.166 23.001 -116.499c-11.333 -66.667 -60 -137.667 -146 -213c-36 -31.333 -81.333 -65.666 -136 -102.999z" />
    <glyph glyph-name="uni1EE0" unicode="&#x1ee0;" horiz-adv-x="1697" 
d="M1271 715c4 18.667 6 37 6 55c0 62.667 -21.167 115.167 -63.5 157.5s-95.5 63.5 -159.5 63.5c-82 0 -157.5 -35.167 -226.5 -105.5s-103.5 -146.5 -103.5 -228.5c0 -61.333 20.5 -111.833 61.5 -151.5s92.833 -59.5 155.5 -59.5c75.333 0 145 25.333 209 76
s104.333 115 121 193zM1515 1804l-50 -235c-53.333 -19.333 -105 -29 -155 -29c-36 0 -90.167 7.83301 -162.5 23.5s-122.833 23.5 -151.5 23.5c-58.667 0 -117.334 -16.333 -176.001 -49l51 238c50.667 22.667 105.334 34 164.001 34c32.667 0 79.834 -7.5 141.501 -22.5
s114.167 -22.5 157.5 -22.5c63.333 0 123.666 13 180.999 39zM1665 1267c94.667 -100.667 141.997 -229.329 141.997 -385.996c0 -54.667 -6 -112 -18 -172c-49.333 -234 -174.333 -419 -375 -555c-177.333 -123.333 -371 -185 -581 -185c-190 0 -344.333 54.667 -463 164
s-178 250.666 -178 423.999c0 52 5.33301 104.667 16 158c44.667 212.667 156.5 390 335.5 532s384.5 213 616.5 213c152.667 0 282.334 -33 389.001 -99c36.667 23.333 72.667 50.333 108 81c-59.333 33.333 -83.666 81 -72.999 143c2 11.333 5.33301 23.666 10 36.999
c19.333 47.333 51.166 85.166 95.499 113.499s92.5 38.166 144.5 29.499c40.667 -6.66699 72.334 -27.167 95.001 -61.5s30.334 -73.166 23.001 -116.499c-11.333 -66.667 -60 -137.667 -146 -213c-36.667 -32.667 -83.667 -68.334 -141 -107.001z" />
    <glyph glyph-name="uni1EE1" unicode="&#x1ee1;" horiz-adv-x="1222" 
d="M820 496c2.66699 14.667 3.99902 29.001 3.99902 43.001c0 61.333 -27.333 92 -82 92c-28.667 0 -55.5 -12.333 -80.5 -37s-41.833 -57.334 -50.5 -98.001c-2.66699 -14 -4 -27.667 -4 -41c0 -62 27.333 -93 82 -93c68.667 0 112.334 44.667 131.001 134zM1164 1413
l-49.001 -235c-53.333 -19.333 -105 -29 -155 -29c-36 0 -90.167 7.83301 -162.5 23.5s-122.833 23.5 -151.5 23.5c-58.667 0 -117.334 -16.333 -176.001 -49l51 237c50.667 23.333 105.334 35 164.001 35c32.667 0 79.834 -7.5 141.501 -22.5s114.167 -22.5 157.5 -22.5
c62.667 0 122.667 13 180 39zM1207 861.001c50.667 -72 75.998 -156.331 75.998 -252.998c0 -34 -3.33301 -68 -10 -102c-32.667 -157.333 -114.167 -288.833 -244.5 -394.5s-272.833 -158.5 -427.5 -158.5c-132.667 0 -241.167 41.333 -325.5 124s-126.5 186 -126.5 310
c0 35.333 4 71.666 12 108.999c31.333 150 112.833 278.167 244.5 384.5s274.167 159.5 427.5 159.5c106 0 196.333 -25.667 271 -77c30.667 20.667 60.667 43.667 90 69c-59.333 33.333 -83.666 81 -72.999 143c2 11.333 5.33301 23.666 10 36.999
c19.333 47.333 51.166 85.166 95.499 113.499s92.5 38.166 144.5 29.499c40.667 -6.66699 72.334 -27.167 95.001 -61.5s30.334 -73.166 23.001 -116.499c-11.333 -66.667 -60 -137.667 -146 -213c-36 -31.333 -81.333 -65.666 -136 -102.999z" />
    <glyph glyph-name="uni1EE2" unicode="&#x1ee2;" horiz-adv-x="1697" 
d="M1271 715c4 18.667 6 37 6 55c0 62.667 -21.167 115.167 -63.5 157.5s-95.5 63.5 -159.5 63.5c-82 0 -157.5 -35.167 -226.5 -105.5s-103.5 -146.5 -103.5 -228.5c0 -61.333 20.5 -111.833 61.5 -151.5s92.833 -59.5 155.5 -59.5c75.333 0 145 25.333 209 76
s104.333 115 121 193zM598 -495c-87.333 0 -131 44.333 -131 133c0 58.667 20.5 111.667 61.5 159s90.167 71 147.5 71c40.667 0 73 -12.667 97 -38s36 -58.333 36 -99c0 -59.333 -20.833 -111.833 -62.5 -157.5s-91.167 -68.5 -148.5 -68.5zM1665 1267
c94.667 -100.667 141.997 -229.329 141.997 -385.996c0 -54.667 -6 -112 -18 -172c-49.333 -234 -174.333 -419 -375 -555c-177.333 -123.333 -371 -185 -581 -185c-190 0 -344.333 54.667 -463 164s-178 250.666 -178 423.999c0 52 5.33301 104.667 16 158
c44.667 212.667 156.5 390 335.5 532s384.5 213 616.5 213c152.667 0 282.334 -33 389.001 -99c36.667 23.333 72.667 50.333 108 81c-59.333 33.333 -83.666 81 -72.999 143c2 11.333 5.33301 23.666 10 36.999c19.333 47.333 51.166 85.166 95.499 113.499
s92.5 38.166 144.5 29.499c40.667 -6.66699 72.334 -27.167 95.001 -61.5s30.334 -73.166 23.001 -116.499c-11.333 -66.667 -60 -137.667 -146 -213c-36.667 -32.667 -83.667 -68.334 -141 -107.001z" />
    <glyph glyph-name="uni1EE3" unicode="&#x1ee3;" horiz-adv-x="1222" 
d="M820 496c2.66699 14.667 3.99902 29.001 3.99902 43.001c0 61.333 -27.333 92 -82 92c-28.667 0 -55.5 -12.333 -80.5 -37s-41.833 -57.334 -50.5 -98.001c-2.66699 -14 -4 -27.667 -4 -41c0 -62 27.333 -93 82 -93c68.667 0 112.334 44.667 131.001 134z
M476.999 -494.999c-87.333 0 -131 44.333 -131 133c0 58.667 20.5 111.667 61.5 159s90.167 71 147.5 71c40.667 0 73 -12.667 97 -38s36 -58.333 36 -99c0 -59.333 -20.833 -111.833 -62.5 -157.5s-91.167 -68.5 -148.5 -68.5zM1207 861.001
c50.667 -72 75.998 -156.331 75.998 -252.998c0 -34 -3.33301 -68 -10 -102c-32.667 -157.333 -114.167 -288.833 -244.5 -394.5s-272.833 -158.5 -427.5 -158.5c-132.667 0 -241.167 41.333 -325.5 124s-126.5 186 -126.5 310c0 35.333 4 71.666 12 108.999
c31.333 150 112.833 278.167 244.5 384.5s274.167 159.5 427.5 159.5c106 0 196.333 -25.667 271 -77c30.667 20.667 60.667 43.667 90 69c-59.333 33.333 -83.666 81 -72.999 143c2 11.333 5.33301 23.666 10 36.999c19.333 47.333 51.166 85.166 95.499 113.499
s92.5 38.166 144.5 29.499c40.667 -6.66699 72.334 -27.167 95.001 -61.5s30.334 -73.166 23.001 -116.499c-11.333 -66.667 -60 -137.667 -146 -213c-36 -31.333 -81.333 -65.666 -136 -102.999z" />
    <glyph glyph-name="uni1EE4" unicode="&#x1ee4;" horiz-adv-x="1468" 
d="M1699 1430l-193.003 -906.001c-35.333 -165.333 -124.666 -298.833 -267.999 -400.5s-314.666 -152.5 -513.999 -152.5c-173.333 0 -309.166 39.667 -407.499 119s-147.5 185.333 -147.5 318c0 36.667 4 75.334 12 116.001l193 906h528l-178 -840
c-4 -20.667 -6 -39 -6 -55c0 -74 34.667 -111 104 -111c88.667 0 144.667 55.333 168 166l178 840h531zM556.997 -495.001c-87.333 0 -131 44.333 -131 133c0 58.667 20.5 111.667 61.5 159s90.167 71 147.5 71c40.667 0 73 -12.667 97 -38s36 -58.333 36 -99
c0 -59.333 -20.833 -111.833 -62.5 -157.5s-91.167 -68.5 -148.5 -68.5z" />
    <glyph glyph-name="uni1EE5" unicode="&#x1ee5;" horiz-adv-x="1255" 
d="M1396 999l-134.998 -628c-27.333 -128.667 -102.333 -229.667 -225 -303c-114.667 -68.667 -254.667 -103 -420 -103c-148.667 0 -265.334 28.333 -350.001 85s-127 135.667 -127 237c0 27.333 3.33301 55.333 10 84l135 628h488l-113 -528c-4 -18 -6 -33 -6 -45
c0 -35.333 19 -53 57 -53c45.333 0 74.666 32.667 87.999 98l113 528h485zM517.002 -495c-87.333 0 -131 44.333 -131 133c0 58.667 20.5 111.667 61.5 159s90.167 71 147.5 71c41.333 0 73.833 -12.667 97.5 -38s35.5 -58.333 35.5 -99
c0 -59.333 -20.667 -111.833 -62 -157.5s-91 -68.5 -149 -68.5z" />
    <glyph glyph-name="uni1EE6" unicode="&#x1ee6;" horiz-adv-x="1468" 
d="M1699 1430l-193.003 -906.001c-35.333 -165.333 -124.666 -298.833 -267.999 -400.5s-314.666 -152.5 -513.999 -152.5c-173.333 0 -309.166 39.667 -407.499 119s-147.5 185.333 -147.5 318c0 36.667 4 75.334 12 116.001l193 906h528l-178 -840
c-4 -20.667 -6 -39 -6 -55c0 -74 34.667 -111 104 -111c88.667 0 144.667 55.333 168 166l178 840h531zM1408 1807c-11.333 -52 -36.334 -95.002 -75.001 -129.002l-101 -70c-36.667 -24.667 -58 -50.667 -64 -78h-218c10.667 43.333 31.334 81 62.001 113
c7.33301 8 34.333 30.333 81 67c28 22.667 44.333 44.334 49 65.001c3.33301 14.667 -0.5 26.834 -11.5 36.501s-26.5 14.5 -46.5 14.5c-37.333 0 -92.666 -20 -165.999 -60l-27 184c97.333 45.333 191.666 68 282.999 68c80.667 0 142 -17 184 -51
c36.667 -30 55 -69.333 55 -118c0 -13.333 -1.66699 -27.333 -5 -42z" />
    <glyph glyph-name="uni1EE7" unicode="&#x1ee7;" horiz-adv-x="1255" 
d="M1396 999l-134.998 -628c-27.333 -128.667 -102.333 -229.667 -225 -303c-114.667 -68.667 -254.667 -103 -420 -103c-148.667 0 -265.334 28.333 -350.001 85s-127 135.667 -127 237c0 27.333 3.33301 55.333 10 84l135 628h488l-113 -528c-4 -18 -6 -33 -6 -45
c0 -35.333 19 -53 57 -53c45.333 0 74.666 32.667 87.999 98l113 528h485zM1188 1385c-11.333 -52 -36.334 -95.002 -75.001 -129.002l-101 -70c-36.667 -24.667 -58.334 -50.667 -65.001 -78h-217c10 43.333 30.333 81 61 113c8 8 35 30.333 81 67
c28.667 22.667 45.334 44.334 50.001 65.001c2.66699 14.667 -1.5 26.834 -12.5 36.501s-26.167 14.5 -45.5 14.5c-37.333 0 -93 -20 -167 -60l-27 184c98 45.333 192.333 68 283 68c80.667 0 142.334 -17 185.001 -51c36.667 -30 55 -69.333 55 -118
c0 -13.333 -1.66699 -27.333 -5 -42z" />
    <glyph glyph-name="uni1EE8" unicode="&#x1ee8;" horiz-adv-x="1468" 
d="M1371 1780l-340 -316l-170 101l289 350zM1664 1267l-158.006 -742.998c-35.333 -165.333 -124.666 -298.833 -267.999 -400.5s-314.666 -152.5 -513.999 -152.5c-173.333 0 -309.166 39.667 -407.499 119s-147.5 185.333 -147.5 318c0 36.667 4 75.334 12 116.001
l193 906h528l-178 -840c-4 -20.667 -6 -39 -6 -55c0 -74 34.667 -111 104 -111c88.667 0 144.667 55.333 168 166l178 840h475l14 12c-59.333 33.333 -83.666 81 -72.999 143c2 11.333 5.33301 23.666 10 36.999c19.333 47.333 51.166 85.166 95.499 113.499
s92.5 38.166 144.5 29.499c40.667 -6.66699 72.334 -27.167 95.001 -61.5s30.334 -73.166 23.001 -116.499c-11.333 -66.667 -60 -137.667 -146 -213c-37.333 -32.667 -84.666 -68.334 -141.999 -107.001z" />
    <glyph glyph-name="uni1EE9" unicode="&#x1ee9;" horiz-adv-x="1255" 
d="M1135 1399l-340 -316l-170 101l288 350zM1362 837l-100.002 -465.998c-27.333 -128.667 -102.666 -229.667 -225.999 -303c-114.667 -68.667 -254.667 -103 -420 -103c-148.667 0 -265.334 28.333 -350.001 85s-127 135.667 -127 237c0 27.333 3.66699 55.333 11 84
l135 628h487l-113 -528c-4 -18 -6 -33 -6 -45c0 -35.333 19.333 -53 58 -53c44.667 0 74 32.667 88 98l112 528h435l40 33c-59.333 33.333 -83.666 81 -72.999 143c2 11.333 5.33301 23.666 10 36.999c19.333 47.333 51.166 85.166 95.499 113.499s92.5 38.166 144.5 29.499
c40.667 -6.66699 72.334 -27.167 95.001 -61.5s30.334 -73.166 23.001 -116.499c-11.333 -66.667 -60 -137.667 -146 -213c-43.333 -38 -101 -80.333 -173 -127z" />
    <glyph glyph-name="uni1EEA" unicode="&#x1eea;" horiz-adv-x="1468" 
d="M1234 1552l-209 -100l-197 291l279 135zM1664 1267l-158.006 -742.998c-35.333 -165.333 -124.666 -298.833 -267.999 -400.5s-314.666 -152.5 -513.999 -152.5c-173.333 0 -309.166 39.667 -407.499 119s-147.5 185.333 -147.5 318c0 36.667 4 75.334 12 116.001
l193 906h528l-178 -840c-4 -20.667 -6 -39 -6 -55c0 -74 34.667 -111 104 -111c88.667 0 144.667 55.333 168 166l178 840h475l14 12c-59.333 33.333 -83.666 81 -72.999 143c2 11.333 5.33301 23.666 10 36.999c19.333 47.333 51.166 85.166 95.499 113.499
s92.5 38.166 144.5 29.499c40.667 -6.66699 72.334 -27.167 95.001 -61.5s30.334 -73.166 23.001 -116.499c-11.333 -66.667 -60 -137.667 -146 -213c-37.333 -32.667 -84.666 -68.334 -141.999 -107.001z" />
    <glyph glyph-name="uni1EEB" unicode="&#x1eeb;" horiz-adv-x="1255" 
d="M1104 1180l-209 -101l-197 291l279 135zM1362 837l-100.002 -465.998c-27.333 -128.667 -102.666 -229.667 -225.999 -303c-114.667 -68.667 -254.667 -103 -420 -103c-148.667 0 -265.334 28.333 -350.001 85s-127 135.667 -127 237c0 27.333 3.66699 55.333 11 84
l135 628h487l-113 -528c-4 -18 -6 -33 -6 -45c0 -35.333 19.333 -53 58 -53c44.667 0 74 32.667 88 98l112 528h435l40 33c-59.333 33.333 -83.666 81 -72.999 143c2 11.333 5.33301 23.666 10 36.999c19.333 47.333 51.166 85.166 95.499 113.499s92.5 38.166 144.5 29.499
c40.667 -6.66699 72.334 -27.167 95.001 -61.5s30.334 -73.166 23.001 -116.499c-11.333 -66.667 -60 -137.667 -146 -213c-43.333 -38 -101 -80.333 -173 -127z" />
    <glyph glyph-name="uni1EEC" unicode="&#x1eec;" horiz-adv-x="1468" 
d="M1408 1807c-11.333 -52 -36.334 -95.002 -75.001 -129.002l-101 -70c-36.667 -24.667 -58 -50.667 -64 -78h-218c10.667 43.333 31.334 81 62.001 113c7.33301 8 34.333 30.333 81 67c28 22.667 44.333 44.334 49 65.001c3.33301 14.667 -0.5 26.834 -11.5 36.501
s-26.5 14.5 -46.5 14.5c-37.333 0 -92.666 -20 -165.999 -60l-27 184c97.333 45.333 191.666 68 282.999 68c80 0 141.333 -17 184 -51c36.667 -30 55 -69.333 55 -118c0 -13.333 -1.66699 -27.333 -5 -42zM1664 1267l-158.006 -742.998
c-35.333 -165.333 -124.666 -298.833 -267.999 -400.5s-314.666 -152.5 -513.999 -152.5c-173.333 0 -309.166 39.667 -407.499 119s-147.5 185.333 -147.5 318c0 36.667 4 75.334 12 116.001l193 906h528l-178 -840c-4 -20.667 -6 -39 -6 -55c0 -74 34.667 -111 104 -111
c88.667 0 144.667 55.333 168 166l178 840h475l14 12c-59.333 33.333 -83.666 81 -72.999 143c2 11.333 5.33301 23.666 10 36.999c19.333 47.333 51.166 85.166 95.499 113.499s92.5 38.166 144.5 29.499c40.667 -6.66699 72.334 -27.167 95.001 -61.5
s30.334 -73.166 23.001 -116.499c-11.333 -66.667 -60 -137.667 -146 -213c-37.333 -32.667 -84.666 -68.334 -141.999 -107.001z" />
    <glyph glyph-name="uni1EED" unicode="&#x1eed;" horiz-adv-x="1255" 
d="M1188 1385c-11.333 -52 -36.334 -95.002 -75.001 -129.002l-101 -70c-36.667 -24.667 -58 -50.667 -64 -78h-218c10.667 43.333 31.334 81 62.001 113c7.33301 8 34.333 30.333 81 67c28 22.667 44.333 44.334 49 65.001c3.33301 14.667 -0.5 26.834 -11.5 36.501
s-26.5 14.5 -46.5 14.5c-37.333 0 -92.666 -20 -165.999 -60l-27 184c97.333 45.333 191.666 68 282.999 68c80 0 141.333 -17 184 -51c36.667 -30 55 -69.333 55 -118c0 -13.333 -1.66699 -27.333 -5 -42zM1362 836.998l-100.002 -465.998
c-27.333 -128.667 -102.666 -229.667 -225.999 -303c-114.667 -68.667 -254.667 -103 -420 -103c-148.667 0 -265.334 28.333 -350.001 85s-127 135.667 -127 237c0 27.333 3.66699 55.333 11 84l135 628h487l-113 -528c-4 -18 -6 -33 -6 -45c0 -35.333 19.333 -53 58 -53
c44.667 0 74 32.667 88 98l112 528h435l40 33c-59.333 33.333 -83.666 81 -72.999 143c2 11.333 5.33301 23.666 10 36.999c19.333 47.333 51.166 85.166 95.499 113.499s92.5 38.166 144.5 29.499c40.667 -6.66699 72.334 -27.167 95.001 -61.5
s30.334 -73.166 23.001 -116.499c-11.333 -66.667 -60 -137.667 -146 -213c-43.333 -38 -101 -80.333 -173 -127z" />
    <glyph glyph-name="uni1EEE" unicode="&#x1eee;" horiz-adv-x="1468" 
d="M1485 1804l-50 -235c-53.333 -19.333 -105 -29 -155 -29c-36 0 -90.167 7.83301 -162.5 23.5s-122.833 23.5 -151.5 23.5c-58.667 0 -117.334 -16.333 -176.001 -49l51 238c50.667 22.667 105.334 34 164.001 34c32.667 0 79.834 -7.5 141.501 -22.5
s114.167 -22.5 157.5 -22.5c63.333 0 123.666 13 180.999 39zM1664 1267l-158.006 -742.998c-35.333 -165.333 -124.666 -298.833 -267.999 -400.5s-314.666 -152.5 -513.999 -152.5c-173.333 0 -309.166 39.667 -407.499 119s-147.5 185.333 -147.5 318
c0 36.667 4 75.334 12 116.001l193 906h528l-178 -840c-4 -20.667 -6 -39 -6 -55c0 -74 34.667 -111 104 -111c88.667 0 144.667 55.333 168 166l178 840h475l14 12c-59.333 33.333 -83.666 81 -72.999 143c2 11.333 5.33301 23.666 10 36.999
c19.333 47.333 51.166 85.166 95.499 113.499s92.5 38.166 144.5 29.499c40.667 -6.66699 72.334 -27.167 95.001 -61.5s30.334 -73.166 23.001 -116.499c-11.333 -66.667 -60 -137.667 -146 -213c-37.333 -32.667 -84.666 -68.334 -141.999 -107.001z" />
    <glyph glyph-name="uni1EEF" unicode="&#x1eef;" horiz-adv-x="1255" 
d="M1246 1413l-49.001 -235c-53.333 -19.333 -105 -29 -155 -29c-36 0 -90.167 7.83301 -162.5 23.5s-122.833 23.5 -151.5 23.5c-58.667 0 -117.334 -16.333 -176.001 -49l51 237c50.667 23.333 105.334 35 164.001 35c32.667 0 79.834 -7.5 141.501 -22.5
s114.167 -22.5 157.5 -22.5c62.667 0 122.667 13 180 39zM1362 837l-100.002 -465.998c-27.333 -128.667 -102.666 -229.667 -225.999 -303c-114.667 -68.667 -254.667 -103 -420 -103c-148.667 0 -265.334 28.333 -350.001 85s-127 135.667 -127 237
c0 27.333 3.66699 55.333 11 84l135 628h487l-113 -528c-4 -18 -6 -33 -6 -45c0 -35.333 19.333 -53 58 -53c44.667 0 74 32.667 88 98l112 528h435l40 33c-59.333 33.333 -83.666 81 -72.999 143c2 11.333 5.33301 23.666 10 36.999
c19.333 47.333 51.166 85.166 95.499 113.499s92.5 38.166 144.5 29.499c40.667 -6.66699 72.334 -27.167 95.001 -61.5s30.334 -73.166 23.001 -116.499c-11.333 -66.667 -60 -137.667 -146 -213c-43.333 -38 -101 -80.333 -173 -127z" />
    <glyph glyph-name="uni1EF0" unicode="&#x1ef0;" horiz-adv-x="1468" 
d="M557 -495c-87.333 0 -131 44.333 -131 133c0 58.667 20.5 111.667 61.5 159s90.167 71 147.5 71c40.667 0 73 -12.667 97 -38s36 -58.333 36 -99c0 -59.333 -20.833 -111.833 -62.5 -157.5s-91.167 -68.5 -148.5 -68.5zM1664 1267l-158.006 -742.998
c-35.333 -165.333 -124.666 -298.833 -267.999 -400.5s-314.666 -152.5 -513.999 -152.5c-173.333 0 -309.166 39.667 -407.499 119s-147.5 185.333 -147.5 318c0 36.667 4 75.334 12 116.001l193 906h528l-178 -840c-4 -20.667 -6 -39 -6 -55c0 -74 34.667 -111 104 -111
c88.667 0 144.667 55.333 168 166l178 840h475l14 12c-59.333 33.333 -83.666 81 -72.999 143c2 11.333 5.33301 23.666 10 36.999c19.333 47.333 51.166 85.166 95.499 113.499s92.5 38.166 144.5 29.499c40.667 -6.66699 72.334 -27.167 95.001 -61.5
s30.334 -73.166 23.001 -116.499c-11.333 -66.667 -60 -137.667 -146 -213c-37.333 -32.667 -84.666 -68.334 -141.999 -107.001z" />
    <glyph glyph-name="uni1EF1" unicode="&#x1ef1;" horiz-adv-x="1255" 
d="M518 -495c-87.333 0 -131 44.333 -131 133c0 58.667 20.5 111.667 61.5 159s90.167 71 147.5 71c40.667 0 73 -12.667 97 -38s36 -58.333 36 -99c0 -59.333 -20.833 -111.833 -62.5 -157.5s-91.167 -68.5 -148.5 -68.5zM1362 837l-100.002 -465.998
c-27.333 -128.667 -102.666 -229.667 -225.999 -303c-114.667 -68.667 -254.667 -103 -420 -103c-148.667 0 -265.334 28.333 -350.001 85s-127 135.667 -127 237c0 27.333 3.66699 55.333 11 84l135 628h487l-113 -528c-4 -18 -6 -33 -6 -45c0 -35.333 19.333 -53 58 -53
c44.667 0 74 32.667 88 98l112 528h435l40 33c-59.333 33.333 -83.666 81 -72.999 143c2 11.333 5.33301 23.666 10 36.999c19.333 47.333 51.166 85.166 95.499 113.499s92.5 38.166 144.5 29.499c40.667 -6.66699 72.334 -27.167 95.001 -61.5
s30.334 -73.166 23.001 -116.499c-11.333 -66.667 -60 -137.667 -146 -213c-43.333 -38 -101 -80.333 -173 -127z" />
    <glyph glyph-name="Ygrave" unicode="&#x1ef2;" horiz-adv-x="1363" 
d="M1724 1430l-652 -818l-131 -612h-520l131 612l-307 818h567l97 -359l249 359h566zM1204 1552l-209 -100l-196 291l278 135z" />
    <glyph glyph-name="ygrave" unicode="&#x1ef3;" horiz-adv-x="1267" 
d="M1523 999l-878 -1355h-545l303 415l-219 940h532l33 -467l236 467h538zM1104 1180l-209 -101l-197 291l279 135z" />
    <glyph glyph-name="uni1EF4" unicode="&#x1ef4;" horiz-adv-x="1363" 
d="M1724 1430l-652 -818l-131 -612h-520l131 612l-307 818h567l97 -359l249 359h566zM578 -495c-87.333 0 -131 44.333 -131 133c0 58.667 20.5 111.667 61.5 159s90.167 71 147.5 71c40.667 0 73 -12.667 97 -38s36 -58.333 36 -99
c0 -59.333 -20.833 -111.833 -62.5 -157.5s-91.167 -68.5 -148.5 -68.5z" />
    <glyph glyph-name="uni1EF5" unicode="&#x1ef5;" horiz-adv-x="1267" 
d="M1523 999l-878 -1355h-545l303 415l-219 940h532l33 -467l236 467h538zM878 -495c-87.333 0 -131 44.333 -131 133c0 58.667 20.5 111.667 61.5 159s90.167 71 147.5 71c41.333 0 73.833 -12.667 97.5 -38s35.5 -58.333 35.5 -99
c0 -59.333 -20.833 -111.833 -62.5 -157.5s-91.167 -68.5 -148.5 -68.5z" />
    <glyph glyph-name="uni1EF6" unicode="&#x1ef6;" horiz-adv-x="1363" 
d="M1724 1430l-652 -818l-131 -612h-520l131 612l-307 818h567l97 -359l249 359h566zM1339 1807c-12 -52 -37.333 -95.002 -76 -129.002l-100 -70c-37.333 -24.667 -59 -50.667 -65 -78h-217c10 43.333 30.333 81 61 113c8 8 35 30.333 81 67
c28 22.667 44.333 44.334 49 65.001c3.33301 14.667 -0.5 26.834 -11.5 36.501s-26.167 14.5 -45.5 14.5c-38 0 -93.667 -20 -167 -60l-27 184c98 45.333 192.333 68 283 68c80.667 0 142 -17 184 -51c36.667 -30 55 -69.333 55 -118c0 -13.333 -1.33301 -27.333 -4 -42z
" />
    <glyph glyph-name="uni1EF7" unicode="&#x1ef7;" horiz-adv-x="1267" 
d="M1523 999l-878 -1355h-545l303 415l-219 940h532l33 -467l236 467h538zM1188 1385c-12 -52 -37 -95.002 -75 -129.002l-101 -70c-36.667 -24.667 -58.334 -50.667 -65.001 -78h-217c10 43.333 30.333 81 61 113c8 8 35 30.333 81 67c28 22.667 44.667 44.334 50 65.001
c2.66699 14.667 -1.5 26.834 -12.5 36.501s-26.167 14.5 -45.5 14.5c-37.333 0 -93 -20 -167 -60l-27 184c98 45.333 192.333 68 283 68c80.667 0 142.334 -17 185.001 -51c36.667 -30 55 -69.333 55 -118c0 -13.333 -1.66699 -27.333 -5 -42z" />
    <glyph glyph-name="uni1EF8" unicode="&#x1ef8;" horiz-adv-x="1363" 
d="M1724 1430l-652 -818l-131 -612h-520l131 612l-307 818h567l97 -359l249 359h566zM1485 1804l-49.001 -235c-53.333 -19.333 -105.333 -29 -156 -29c-35.333 0 -89.166 7.83301 -161.499 23.5s-122.833 23.5 -151.5 23.5c-58.667 0 -117.667 -16.333 -177 -49l52 238
c50 22.667 104.667 34 164 34c32.667 0 79.667 -7.5 141 -22.5s114 -22.5 158 -22.5c62.667 0 122.667 13 180 39z" />
    <glyph glyph-name="uni1EF9" unicode="&#x1ef9;" horiz-adv-x="1267" 
d="M1523 999l-878 -1355h-545l303 415l-219 940h532l33 -467l236 467h538zM1246 1413l-49.001 -235c-53.333 -19.333 -105.333 -29 -156 -29c-35.333 0 -89.166 7.83301 -161.499 23.5s-122.833 23.5 -151.5 23.5c-58.667 0 -117.334 -16.333 -176.001 -49l51 237
c50.667 23.333 105.334 35 164.001 35c32.667 0 79.667 -7.5 141 -22.5s114 -22.5 158 -22.5c62.667 0 122.667 13 180 39z" />
    <glyph glyph-name="quoteleft" unicode="&#x2018;" horiz-adv-x="587" 
d="M833 1360c-82 -61.333 -157 -132.333 -225 -213c90 -32.667 135 -92.667 135 -180c0 -16.667 -2 -34.667 -6 -54c-15.333 -69.333 -50.333 -128.5 -105 -177.5s-118.667 -73.5 -192 -73.5c-57.333 0 -105.5 21 -144.5 63s-58.5 94 -58.5 156c0 94 50.667 202.333 152 325
c78.667 96 168.667 180.667 270 254z" />
    <glyph glyph-name="quoteright" unicode="&#x2019;" horiz-adv-x="587" 
d="M378 662l-175.998 99.9971c82 61.333 157 132.333 225 213c-90 32.667 -135 92.667 -135 180c0 16.667 2 34.334 6 53.001c15.333 70 50.666 129.5 105.999 178.5s119.666 73.5 192.999 73.5c57.333 0 105.5 -21.167 144.5 -63.5s58.5 -94.166 58.5 -155.499
c0 -94 -50.667 -202.667 -152 -326c-78.667 -95.333 -168.667 -179.666 -270 -252.999z" />
    <glyph glyph-name="quotedblleft" unicode="&#x201c;" horiz-adv-x="1130" 
d="M1376 1360c-82 -61.333 -157.331 -132.333 -225.998 -213c90.667 -32.667 136 -92.667 136 -180c0 -16.667 -2.33301 -34.667 -7 -54c-14.667 -69.333 -49.334 -128.5 -104.001 -177.5s-119 -73.5 -193 -73.5c-57.333 0 -105.333 21 -144 63s-58 94 -58 156
c0 94 50.333 202.333 151 325c79.333 96 169.666 180.667 270.999 254zM833.002 1360c-82 -61.333 -157 -132.333 -225 -213c90 -32.667 135 -92.667 135 -180c0 -16.667 -2 -34.667 -6 -54c-15.333 -69.333 -50.333 -128.5 -105 -177.5s-118.667 -73.5 -192 -73.5
c-57.333 0 -105.5 21 -144.5 63s-58.5 94 -58.5 156c0 94 50.667 202.333 152 325c78.667 96 168.667 180.667 270 254z" />
    <glyph glyph-name="quotedblright" unicode="&#x201d;" horiz-adv-x="1130" 
d="M923 662l-176 99.9971c82 61.333 157 132.333 225 213c-90 32.667 -135 92.667 -135 180c0 16.667 2 34.334 6 53.001c15.333 70 50.5 129.5 105.5 178.5s119.5 73.5 193.5 73.5c57.333 0 105.5 -21.167 144.5 -63.5s58.5 -94.166 58.5 -155.499
c0 -94 -50.667 -202.667 -152 -326c-79.333 -95.333 -169.333 -179.666 -270 -252.999zM380 661.997l-175.998 99.9971c82 61.333 157 132.333 225 213c-90 32.667 -135 92.667 -135 180c0 16.667 2 34.334 6 53.001c15.333 70 50.666 129.5 105.999 178.5
s119.666 73.5 192.999 73.5c57.333 0 105.5 -21.167 144.5 -63.5s58.5 -94.166 58.5 -155.499c0 -94 -50.667 -202.667 -152 -326c-78.667 -95.333 -168.667 -179.666 -270 -252.999z" />
    <glyph glyph-name="ellipsis" unicode="&#x2026;" horiz-adv-x="1718" 
d="M1425 -29c-52 0 -94 16.167 -126 48.5s-48 72.833 -48 121.5c0 68.667 27.667 129.167 83 181.5s116.333 78.5 183 78.5c50.667 0 92 -16.333 124 -49s48 -73 48 -121c0 -68 -27 -128.333 -81 -181s-115 -79 -183 -79zM851 -29c-50 0 -91.167 16.167 -123.5 48.5
s-48.5 72.833 -48.5 121.5c0 67.333 27 127.5 81 180.5s115.333 79.5 184 79.5c51.333 0 92.833 -16 124.5 -48s47.5 -72.667 47.5 -122c0 -68 -27 -128.333 -81 -181s-115.333 -79 -184 -79zM280 -29c-52 0 -94 16.167 -126 48.5s-48 72.833 -48 121.5
c0 68.667 27.667 129.167 83 181.5s116.333 78.5 183 78.5c50.667 0 92 -16.333 124 -49s48 -73 48 -121c0 -68 -27 -128.333 -81 -181s-115 -79 -183 -79z" />
    <glyph glyph-name=".null" horiz-adv-x="0" 
 />
    <glyph glyph-name="nonmarkingreturn" horiz-adv-x="571" 
 />
    <glyph glyph-name="ugrave" horiz-adv-x="582" 
 />
    <glyph glyph-name="uacute" horiz-adv-x="580" 
 />
    <glyph glyph-name="yacute" horiz-adv-x="629" 
 />
    </font>
</defs>
</svg>
