<?xml version="1.0" standalone="no"?>
<!DOCTYPE svg PUBLIC "-//W3C//DTD SVG 1.1//EN" "http://www.w3.org/Graphics/SVG/1.1/DTD/svg11.dtd" >
<svg>
<metadata>
Created by FontForge 20090914 at Thu Jun 11 09:27:50 2020
 By www-data
Copyright (c) 2011 by James T. Edmondson. All rights reserved.
</metadata>
<defs>
<font id="UVFLavanderiaRegular" horiz-adv-x="319" >
  <font-face 
    font-family="UVF Lavanderia Regular"
    font-weight="410"
    font-stretch="normal"
    units-per-em="1000"
    panose-1="0 0 0 0 0 0 0 0 0 0"
    ascent="750"
    descent="-250"
    x-height="456.002"
    cap-height="882"
    bbox="-645.999 -642.002 1693 1267.89"
    underline-thickness="50"
    underline-position="-50"
    unicode-range="U+0020-U+FB02"
  />
<missing-glyph horiz-adv-x="240" 
 />
    <glyph glyph-name="w_e" unicode="we" horiz-adv-x="715" 
d="M442 152c-11.333 -4.66699 -23.333 -7.00293 -36 -7.00293c-27.333 0 -50.333 8.33301 -69 25c-10 -24.667 -20.667 -47.834 -32 -69.501s-22.833 -40.5 -34.5 -56.5s-23.5 -28.667 -35.5 -38s-23.667 -14 -35 -14c-18.667 0 -32.334 9.83301 -41.001 29.5
s-13 45.5 -13 77.5c0 6 0.166992 12.167 0.5 18.5s0.833008 12.833 1.5 19.5c-15.333 -42 -32.833 -76.667 -52.5 -104s-38.834 -41 -57.501 -41c-21.333 0 -35.333 11.5 -42 34.5s-10 53.5 -10 91.5c2 46 8.5 98.667 19.5 158l33.5 180h53l-21.5 -112.5
c-7 -37 -13.333 -72 -19 -105s-10.167 -63.167 -13.5 -90.5s-5 -50 -5 -68c0 -28 4.66699 -42 14 -42c7.33301 0 16 5 26 15s20 24.333 30 43s19.833 40.834 29.5 66.501s18.167 54.167 25.5 85.5c4.66699 33.333 10.167 67.5 16.5 102.5s13.166 70.167 20.499 105.5h52
l-20 -107.5c-6.66699 -35.667 -12.667 -69.5 -18 -101.5s-9.66602 -61.5 -12.999 -88.5s-5 -49.833 -5 -68.5c0 -16.667 1.5 -29.667 4.5 -39s7.83301 -14 14.5 -14c6 0 13 4.5 21 13.5s16.5 21.167 25.5 36.5s18 33.5 27 54.5s17.5 43.167 25.5 66.5
c-15.333 28.667 -23 67.667 -23 117c0 61.333 7 110 21 146s31.333 54 52 54c14 0 24.833 -6.33301 32.5 -19s11.5 -30.667 11.5 -54c0 -36 -5.33301 -77.333 -16 -124s-24.334 -92 -41.001 -136c16.667 -18.667 37.667 -28 63 -28c8.66699 0 19.667 3.33301 33 10
c1.33301 32.667 6.33301 66.167 15 100.5s20.334 65.333 35.001 93s31.834 50.334 51.501 68.001s41.167 26.5 64.5 26.5c16.667 0 28.834 -5.66699 36.501 -17s11.5 -25.666 11.5 -42.999s-4 -37.166 -12 -59.499s-19.167 -44.666 -33.5 -66.999s-31.5 -43.333 -51.5 -63
s-42 -35.5 -66 -47.5c0.666992 -17.333 2.33398 -33.5 5.00098 -48.5s6.66699 -28.167 12 -39.5s12.166 -20.333 20.499 -27s18.833 -10 31.5 -10c16 0 31.333 6.16699 46 18.5s28.5 28.166 41.5 47.499s25 40.833 36 64.5s20.833 47.167 29.5 70.5
c3.33301 0 7.5 -1.33301 12.5 -4s7.5 -4.66699 7.5 -6l-14 -33c-9.33301 -22.667 -19.5 -46 -30.5 -70s-23.5 -46 -37.5 -66s-29.667 -36.5 -47 -49.5s-36.333 -19.5 -57 -19.5c-18.667 0 -34.5 4.16699 -47.5 12.5s-23.5 19.833 -31.5 34.5s-14.167 31.5 -18.5 50.5
s-7.5 39.5 -9.5 61.5zM604 426.997c-12.667 0 -25.002 -6.99902 -37.002 -20.999s-23 -32 -33 -54s-18.5 -46.833 -25.5 -74.5s-11.5 -54.834 -13.5 -81.501c20.667 15.333 38.834 32.5 54.501 51.5s28.834 38 39.501 57s18.5 37 23.5 54s7.5 31.167 7.5 42.5
c0 17.333 -5.33301 26 -16 26zM363.998 461.998c0 20.667 -4.66699 30.999 -14 30.999c-8 0 -16.667 -14.167 -26 -42.5s-14 -68.5 -14 -120.5c0 -16 0.833008 -31.667 2.5 -47s4.16699 -28.666 7.5 -39.999c12.667 39.333 23.167 78.5 31.5 117.5s12.5 72.833 12.5 101.5z
" />
    <glyph glyph-name="F_r" unicode="Fr" horiz-adv-x="1206" 
d="M1050 829c-5.33301 -10 -13.498 -19.3262 -24.498 -27.9932s-25.167 -16.334 -42.5 -23.001c-6.66699 -10.667 -13.667 -25 -21 -43s-14.833 -41.5 -22.5 -70.5s-15.334 -64.167 -23.001 -105.5s-14.834 -90.666 -21.501 -147.999l-7 -60c28 4 52.5 12 73.5 24
s38.167 27.333 51.5 46c-3.33301 11.333 -5.83301 23.166 -7.5 35.499s-2.5 25.166 -2.5 38.499c0 20.667 2 40.167 6 58.5s10 34.166 18 47.499c8 -2 15.667 -5.16699 23 -9.5s14.333 -10.166 21 -17.499c-1.33301 -26.667 -3.66602 -52 -6.99902 -76
s-9.66602 -48 -18.999 -72c6 -10 13 -20.333 21 -31s15.833 -22.167 23.5 -34.5s14.167 -25.5 19.5 -39.5s8 -29.667 8 -47c0 -18.667 -2.5 -37.5 -7.5 -56.5s-10.333 -37.5 -16 -55.5l-16 -51.5c-5 -16.333 -7.5 -30.833 -7.5 -43.5c0 -18.667 6.66699 -28 20 -28
c14.667 0 31.5 17.333 50.5 52s40.833 84.667 65.5 150c2.66699 0 6.5 -1 11.5 -3s7.5 -4.33301 7.5 -7v-2l-37 -94c-11.333 -28.667 -22.833 -53.334 -34.5 -74.001s-24 -36.834 -37 -48.501s-27.5 -17.5 -43.5 -17.5c-18.667 0 -32.667 6.16699 -42 18.5
s-14 30.166 -14 53.499c0 16.667 2.66699 33.5 8 50.5s11.166 33.833 17.499 50.5s12.166 33 17.499 49s8 32 8 48c0 14 -1.5 26.833 -4.5 38.5s-6.83301 22.5 -11.5 32.5s-9.5 19.667 -14.5 29s-9.5 18.666 -13.5 27.999c-12.667 -18.667 -30.167 -34.834 -52.5 -48.501
s-51.5 -22.834 -87.5 -27.501c-14 -112 -33.833 -203.833 -59.5 -275.5s-55.167 -128 -88.5 -169s-69.166 -69.167 -107.499 -84.5s-76.833 -23 -115.5 -23c-37.333 0 -69.5 5.16699 -96.5 15.5s-49.167 23.833 -66.5 40.5s-30.166 35.667 -38.499 57s-12.5 43 -12.5 65
c0 20.667 3.33301 40.667 10 60s16 36.5 28 51.5s26.5 27 43.5 36s35.833 13.833 56.5 14.5c0.666992 -9.33301 1.16699 -18.666 1.5 -27.999s0.5 -18.666 0.5 -27.999c-26 -0.666992 -46.833 -11.667 -62.5 -33s-23.5 -47 -23.5 -77c0 -18 3.16699 -35.5 9.5 -52.5
s16 -32.167 29 -45.5s29.833 -24 50.5 -32s45.334 -12 74.001 -12c30.667 0 61.334 6.66699 92.001 20s59.834 38.833 87.501 76.5s52.5 90 74.5 157s40 154.5 54 262.5c-20.667 -2 -40.334 -5.83301 -59.001 -11.5s-35 -13 -49 -22s-25.167 -19.833 -33.5 -32.5
s-12.5 -27.667 -12.5 -45c0 -14 2.66699 -27.333 8 -40l-49 -19c-4.66699 7.33301 -7.83398 15.333 -9.50098 24s-2.5 17.667 -2.5 27c0 24 6.33301 45.167 19 63.5s29 33.833 49 46.5s42.667 22.667 68 30s50.666 12 75.999 14c6 58 13 109.333 21 154s16.667 84 26 118
s18.833 63.167 28.5 87.5s19.167 44.833 28.5 61.5c-16.667 -3.33301 -34.334 -5 -53.001 -5c-36.667 0 -74.167 3.66699 -112.5 11l-119.5 23.5c-41.333 8.33301 -84.833 16.166 -130.5 23.499s-94.5 11 -146.5 11s-97.5 -9.16699 -136.5 -27.5
s-71.667 -42.166 -98 -71.499s-46 -62.5 -59 -99.5s-19.5 -73.833 -19.5 -110.5c0 -32 5 -63 15 -93s24.833 -56.5 44.5 -79.5s44.334 -41.5 74.001 -55.5s64.5 -21 104.5 -21c38.667 0 72 6.16699 100 18.5s50.833 29 68.5 50s30.667 45 39 72s12.5 55.5 12.5 85.5
c0 16.667 -1 34 -3 52l54 10c1.33301 -9.33301 2.5 -18.833 3.5 -28.5s1.5 -19.167 1.5 -28.5c0 -34 -5.16699 -66.833 -15.5 -98.5s-26.5 -59.5 -48.5 -83.5s-50.5 -43.167 -85.5 -57.5s-76.833 -21.5 -125.5 -21.5c-49.333 0 -92.5 8 -129.5 24s-67.833 37.167 -92.5 63.5
s-43 56.666 -55 90.999s-18 69.833 -18 106.5c0 42 7.83301 83.833 23.5 125.5s39.167 79.167 70.5 112.5s70.166 60.333 116.499 81s100.166 31 161.499 31c54 0 105.167 -4.16699 153.5 -12.5s94 -17.666 137 -27.999l120 -28c37 -8.33301 71.167 -12.5 102.5 -12.5
c15.333 0 28.5 0.5 39.5 1.5s20.5 2.16699 28.5 3.5c15.333 20 29.333 33.667 42 41s22.667 11.666 30 12.999z" />
    <glyph glyph-name="o_e" unicode="oe" horiz-adv-x="594" 
d="M236 142c13.333 -2.66699 27.502 -2.99512 42.502 -0.995117s29.167 4.66699 42.5 8v7c0 34 4.16699 69.167 12.5 105.5s19.833 69.333 34.5 99s32.167 54.167 52.5 73.5s42.5 29 66.5 29c19.333 0 33.666 -5.83301 42.999 -17.5s14 -26.5 14 -44.5
c0 -24.667 -4.33301 -49.5 -13 -74.5s-20.5 -48.833 -35.5 -71.5s-33.167 -43.334 -54.5 -62.001s-44.333 -34 -69 -46c1.33301 -30.667 7.33301 -56.167 18 -76.5s27.667 -30.5 51 -30.5c16 0 31.333 6.16699 46 18.5s28.5 28.166 41.5 47.499s25 40.833 36 64.5
s20.833 47.167 29.5 70.5c2.66699 0 6.33398 -1.33301 11.001 -4s7 -4.66699 7 -6c-8 -23.333 -17.833 -48.833 -29.5 -76.5s-25.167 -53.5 -40.5 -77.5s-32.5 -44 -51.5 -60s-39.833 -24 -62.5 -24c-17.333 0 -32.333 3.5 -45 10.5s-23.167 16.5 -31.5 28.5
s-15 26.167 -20 42.5s-8.16699 34.166 -9.5 53.499c-15.333 -4 -30.833 -6.33301 -46.5 -7s-31.5 -0.333984 -47.5 0.999023c-16 -36.667 -35.667 -67.334 -59 -92.001s-49 -37 -77 -37c-28.667 0 -50.834 9.5 -66.501 28.5s-26 44.333 -31 76s-5 67.667 0 108
s13.5 81.833 25.5 124.5l37 -9c-12 -56 -19.333 -106 -22 -150c-1.33301 -18.667 -1.5 -37 -0.5 -55s3.5 -34 7.5 -48s10 -25.167 18 -33.5s18.667 -12.5 32 -12.5c19.333 0 37.333 10.167 54 30.5s31 46.166 43 77.499c-29.333 9.33301 -53.333 24 -72 44
s-32.5 42.333 -41.5 67s-13.167 50 -12.5 76s5.5 49.667 14.5 71s22 38.833 39 52.5s37.833 20.5 62.5 20.5c26 0 46.167 -10.167 60.5 -30.5s23.333 -46.166 27 -77.499s2.66699 -65.833 -3 -103.5s-14.834 -73.5 -27.501 -107.5zM177.002 435.005
c-15.333 0 -28.834 -5.83301 -40.501 -17.5s-20.834 -26.667 -27.501 -45s-10.167 -38.5 -10.5 -60.5s2.83398 -43.5 9.50098 -64.5s17.167 -40.167 31.5 -57.5s33.5 -30.333 57.5 -39c10.667 30 18.834 61.667 24.501 95s8 64 7 92s-5.66699 51.167 -14 69.5
s-20.833 27.5 -37.5 27.5zM482.001 437.005c-15.333 0 -29.5 -9.49902 -42.5 -28.499s-24.333 -42.167 -34 -69.5s-17.5 -56.166 -23.5 -86.499s-9.33301 -56.833 -10 -79.5c24 14.667 44.333 33 61 55s30 44.167 40 66.5s17.333 43.166 22 62.499s7 33.666 7 42.999
c0 10.667 -1.66699 19.5 -5 26.5s-8.33301 10.5 -15 10.5z" />
    <glyph glyph-name="b_r" unicode="br" horiz-adv-x="549" 
d="M369 393c-13.333 -23.333 -28.833 -43.166 -46.5 -59.499s-39.167 -28.166 -64.5 -35.499c0 -34 -3.83301 -69 -11.5 -105s-18.5 -68.833 -32.5 -98.5s-31.167 -54 -51.5 -73s-43.166 -28.5 -68.499 -28.5c-18 0 -33 5 -45 15s-21.833 24 -29.5 42
s-13.167 39.333 -16.5 64s-5 51.334 -5 80.001c0 46 3.66699 95.5 11 148.5s16.5 104.833 27.5 155.5s23.333 98 37 142s26.834 80 39.501 108c7.33301 15.333 16.166 26.666 26.499 33.999s21.166 11 32.499 11c13.333 0 25.166 -5.16699 35.499 -15.5
s15.5 -25.166 15.5 -44.499c0 -84.667 -48.333 -177.334 -145 -278.001c-10 -52 -18.333 -103.833 -25 -155.5s-10 -98.5 -10 -140.5c0 -40.667 3.83301 -73.667 11.5 -99s20.834 -38 39.501 -38c17.333 0 32.833 8.5 46.5 25.5s25.334 38.5 35.001 64.5
s17.167 54.833 22.5 86.5s8 62.5 8 92.5h-7c-20.667 0 -38.5 2.83301 -53.5 8.5s-27.5 13 -37.5 22s-17.5 19.167 -22.5 30.5s-7.5 22.666 -7.5 33.999c0 19.333 6.83301 36.666 20.5 51.999s34.5 23 62.5 23c15.333 0 28.666 -3.66699 39.999 -11s20.833 -17.333 28.5 -30
s13.834 -27.5 18.501 -44.5s7.66699 -35.167 9 -54.5c24 7.33301 44.5 18.666 61.5 33.999s31.167 34.666 42.5 57.999c-6.66699 14 -10 34.333 -10 61c0 18 1.66699 37 5 57s7.66602 40.333 12.999 61l47 -13c-0.666992 -26.667 -2.66699 -51.167 -6 -73.5
s-7.33301 -44.5 -12 -66.5l-6 -20c6 -10 13.167 -20.167 21.5 -30.5s16.166 -21.333 23.499 -33s13.5 -24.5 18.5 -38.5s7.5 -29.333 7.5 -46c0 -18.667 -2.5 -37.5 -7.5 -56.5s-10.333 -37.5 -16 -55.5l-16 -51.5c-5 -16.333 -7.5 -30.833 -7.5 -43.5
c0 -18.667 6.66699 -28 20 -28c14 0 30 17.833 48 53.5s39.667 86.167 65 151.5c2 0 5.5 -1 10.5 -3s7.5 -4.33301 7.5 -7l-36.5 -95.5c-11 -29 -22.167 -54.167 -33.5 -75.5s-23.166 -38 -35.499 -50s-26.5 -18 -42.5 -18c-18.667 0 -32.167 5.83301 -40.5 17.5
s-12.5 27.834 -12.5 48.501c0 16.667 2.5 33.834 7.5 51.501s10.333 35.167 16 52.5l16 51c5 16.667 7.5 33 7.5 49c0 12 -1.5 24.333 -4.5 37s-6.83301 24.667 -11.5 36s-9.5 22 -14.5 32zM177 756c-5.33301 0 -11.6699 -6.99902 -19.0029 -20.999
s-15.166 -32.833 -23.499 -56.5s-16.666 -51.334 -24.999 -83.001s-16.166 -65.167 -23.499 -100.5c29.333 36 53.833 74.167 73.5 114.5s29.5 81.5 29.5 123.5c0 15.333 -4 23 -12 23zM204.996 314.001c-2.66699 33.333 -9.16797 61.167 -19.501 83.5
s-25.833 33.5 -46.5 33.5c-11.333 0 -20 -4 -26 -12s-9 -17.667 -9 -29c0 -8.66699 1.83301 -17.5 5.5 -26.5s9.33398 -17.167 17.001 -24.5s17.5 -13.333 29.5 -18s26.333 -7 43 -7h6z" />
    <glyph glyph-name="b_s" unicode="bs" horiz-adv-x="558" 
d="M382 413c-2 11.333 -3.5 23.5039 -4.5 36.5039s-1.5 29.167 -1.5 48.5c0 18 2 35.333 6 52s8 32 12 46l42 -8c-2.66699 -28.667 -5.83398 -54.5 -9.50098 -77.5s-8.83398 -45.167 -15.501 -66.5c1.33301 -25.333 6.66602 -51.5 15.999 -78.5s19.333 -54 30 -81
s20.334 -53.667 29.001 -80s13 -51.5 13 -75.5c0 -8.66699 -1 -16.334 -3 -23.001c10.667 17.333 21 37.166 31 59.499s20.333 47.5 31 75.5c2.66699 0 6.33398 -1.33301 11.001 -4s7 -4.66699 7 -6c-10 -22 -20.333 -46.833 -31 -74.5s-23.334 -53.5 -38.001 -77.5
s-32.334 -44.333 -53.001 -61s-46 -25 -76 -25c-10.667 0 -21.167 1.66699 -31.5 5s-19.666 8.33301 -27.999 15s-15 15.167 -20 25.5s-7.5 22.5 -7.5 36.5v8l46 2c0 -14 4 -26 12 -36s19.333 -15 34 -15c18.667 0 33.834 9 45.501 27s17.5 39 17.5 63
c0 18 -2.16699 37.167 -6.5 57.5s-9.5 41.666 -15.5 63.999l-19 70c-6.66699 24.333 -12.334 49.166 -17.001 74.499c-13.333 -23.333 -31.666 -42.666 -54.999 -57.999s-48.333 -26.666 -75 -33.999c0 -34 -3.83301 -69 -11.5 -105s-18.5 -68.833 -32.5 -98.5
s-31.167 -54 -51.5 -73s-43.166 -28.5 -68.499 -28.5c-18 0 -33 5 -45 15s-21.833 24 -29.5 42s-13.167 39.333 -16.5 64s-5 51.334 -5 80.001c0 46 3.66699 95.5 11 148.5s16.5 104.833 27.5 155.5s23.333 98 37 142s26.834 80 39.501 108
c7.33301 15.333 16.166 26.666 26.499 33.999s21.166 11 32.499 11c13.333 0 25.166 -5.16699 35.499 -15.5s15.5 -25.166 15.5 -44.499c0 -84.667 -48.333 -177.334 -145 -278.001c-10 -52 -18.333 -103.833 -25 -155.5s-10 -98.5 -10 -140.5
c0 -40.667 3.83301 -73.667 11.5 -99s20.834 -38 39.501 -38c17.333 0 32.833 8.5 46.5 25.5s25.334 38.5 35.001 64.5s17.167 54.833 22.5 86.5s8 62.5 8 92.5h-7c-20.667 0 -38.5 2.83301 -53.5 8.5s-27.5 13 -37.5 22s-17.5 19.167 -22.5 30.5s-7.5 22.666 -7.5 33.999
c0 19.333 6.83301 36.666 20.5 51.999s34.5 23 62.5 23c15.333 0 28.666 -3.66699 39.999 -11s20.833 -17.166 28.5 -29.499s13.834 -27 18.501 -44s7.66699 -35.167 9 -54.5c26 7.33301 50.5 18.666 73.5 33.999s40.167 34.333 51.5 57zM189 733.004
c0 15.333 -4.00391 23.001 -12.0039 23.001c-5.33301 0 -11.666 -7 -18.999 -21s-15.166 -32.833 -23.499 -56.5s-16.666 -51.334 -24.999 -83.001s-16.166 -65.167 -23.499 -100.5c29.333 36 53.833 74.167 73.5 114.5s29.5 81.5 29.5 123.5zM138.996 431.005
c-11.333 0 -20.001 -3.99902 -26.001 -11.999s-9 -17.667 -9 -29c0 -8.66699 1.83301 -17.5 5.5 -26.5s9.33398 -17.167 17.001 -24.5s17.5 -13.333 29.5 -18s26.333 -7 43 -7h6c-2.66699 33.333 -9.16699 61.166 -19.5 83.499s-25.833 33.5 -46.5 33.5z" />
    <glyph glyph-name="f_r" unicode="fr" horiz-adv-x="454" 
d="M197 732c0 15.333 -3.66699 23.001 -11 23.001c-6.66699 0 -14.834 -12.333 -24.501 -37s-20 -57.834 -31 -99.501s-22.333 -89.834 -34 -144.501s-23.167 -112 -34.5 -172c7.33301 15.333 15.666 34 24.999 56s19 46 29 72l29.5 80.5
c9.66699 27.667 18.334 54.834 26.001 81.501s13.834 52 18.501 76s7 45.333 7 64zM34 -201.999c12.667 0 23.498 8.83203 32.498 26.499s13.5 39.167 13.5 64.5c0 23.333 -4.66699 47.5 -14 72.5s-25.666 46.833 -48.999 65.5c-3.33301 -28 -6.16602 -54.667 -8.49902 -80
s-3.5 -47.666 -3.5 -66.999c0 -25.333 2.33301 -45.333 7 -60s12 -22 22 -22zM262.998 416c-6.66699 18.667 -9.99609 38.666 -9.99609 59.999c0 35.333 6 75 18 119l47 -13c-0.666992 -24.667 -2.5 -47.334 -5.5 -68.001s-6.5 -41.334 -10.5 -62.001l-8 -30
c6 -10 13.167 -20.167 21.5 -30.5s16.166 -21.333 23.499 -33s13.5 -24.5 18.5 -38.5s7.5 -29.333 7.5 -46c0 -18.667 -2.5 -37.5 -7.5 -56.5s-10.333 -37.5 -16 -55.5l-16 -51.5c-5 -16.333 -7.5 -30.833 -7.5 -43.5c0 -18.667 6.66699 -28 20 -28
c14 0 30.5 17.333 49.5 52s41.167 84.667 66.5 150c2 0 5.5 -1 10.5 -3s7.5 -4.33301 7.5 -7l-37 -95c-11.333 -28.667 -22.833 -53.5 -34.5 -74.5s-23.834 -37.333 -36.501 -49s-27 -17.5 -43 -17.5c-18.667 0 -32.167 5.83301 -40.5 17.5s-12.5 27.834 -12.5 48.501
c0 16.667 2.5 33.834 7.5 51.501s10.333 35.167 16 52.5l16 51c5 16.667 7.5 33 7.5 49c0 24 -4 44.5 -12 61.5l-23 50.5c-25.333 -84.667 -57.333 -154.834 -96 -210.501s-85.667 -96.5 -141 -122.5c24.667 -21.333 42.5 -45 53.5 -71s16.5 -51.667 16.5 -77
c0 -17.333 -2 -33.666 -6 -48.999s-9.66699 -28.833 -17 -40.5s-16 -21 -26 -28s-20.667 -10.5 -32 -10.5c-9.33301 0 -18.333 1.66699 -27 5s-16.334 9.33301 -23.001 18s-12 20.834 -16 36.501s-6 35.834 -6 60.501c0 36 2.5 78.667 7.5 128s11.833 101.5 20.5 156.5
s18.334 110.667 29.001 167s21.667 109.666 33 159.999s22.5 95.666 33.5 135.999s21.167 71.833 30.5 94.5c8.66699 21.333 19 37 31 47s23.667 15 35 15c12.667 0 23.334 -5 32.001 -15s13 -24.667 13 -44c0 -26 -3.5 -55 -10.5 -87s-15.833 -65 -26.5 -99
s-22.834 -67.667 -36.501 -101l-40 -93.5c-13 -29 -25.333 -54.833 -37 -77.5l-27.5 -52c-10 -53.333 -18 -105 -24 -155c35.333 14 66.666 33.833 93.999 59.5s50.666 54.334 69.999 86.001s35.333 65.167 48 100.5s22 69.333 28 102z" />
    <glyph glyph-name="x_t" unicode="xt" horiz-adv-x="547" 
d="M0 239c14 36.667 26.998 68.6641 38.998 95.9971s23.5 50.333 34.5 69s22 32.667 33 42s22.833 14 35.5 14c13.333 0 24 -4.66699 32 -14s14.167 -21.666 18.5 -36.999s7.16602 -33.166 8.49902 -53.499s2 -41.833 2 -64.5c7.33301 22 16.166 42.667 26.499 62
s22.833 36.5 37.5 51.5s31.834 27.5 51.501 37.5s42.834 16.667 69.501 20c10 50 19.333 89.833 28 119.5s17.167 52.334 25.5 68.001s16.833 26 25.5 31s17.667 7.5 27 7.5c14 0 24 -5.83301 30 -17.5s9 -27.834 9 -48.501c0 -19.333 -3.5 -42.833 -10.5 -70.5
s-16.833 -58.167 -29.5 -91.5l38 -6l-11 -32l-38 7c-11.333 -28 -23.5 -56.333 -36.5 -85l-40.5 -87c-3.33301 -26 -5.83301 -50.5 -7.5 -73.5s-2.5 -43.833 -2.5 -62.5c0 -29.333 2.66699 -50.666 8 -63.999s12.666 -20 21.999 -20c17.333 0 35.833 17.833 55.5 53.5
s41.834 85.834 66.501 150.501c2.66699 0 6.16699 -1 10.5 -3s6.5 -4.33301 6.5 -7v-2c-30 -80 -56.667 -139.333 -80 -178s-48.666 -58 -75.999 -58c-23.333 0 -39 14.333 -47 43s-12 68 -12 118v16c-25.333 -59.333 -48.833 -103.166 -70.5 -131.499
s-46.167 -42.5 -73.5 -42.5c-22 0 -36.833 11.5 -44.5 34.5s-11.5 53.833 -11.5 92.5c0 3.33301 0.166992 6.66602 0.5 9.99902s0.5 6.66602 0.5 9.99902c-9.33301 -21.333 -18.666 -41 -27.999 -59s-19 -33.5 -29 -46.5s-20.5 -23.333 -31.5 -31s-22.5 -11.5 -34.5 -11.5
c-16.667 0 -28.5 5.5 -35.5 16.5s-10.5 25.167 -10.5 42.5c0 16 2.83301 33.333 8.5 52s14.167 36.667 25.5 54l36 -18c-8.66699 -11.333 -15.667 -24.666 -21 -39.999s-8 -29.333 -8 -42c0 -9.33301 1.66699 -16.833 5 -22.5s8.66602 -8.5 15.999 -8.5
c8.66699 0 17.334 4.5 26.001 13.5s17.5 21.167 26.5 36.5s18 33.166 27 53.499l27.5 64.5c0.666992 23.333 1.66699 46.333 3 69s2 43.667 2 63c0 26 -1.83301 47.667 -5.5 65s-11.167 26 -22.5 26c-6.66699 0 -13.5 -3.16699 -20.5 -9.5s-14.833 -16.833 -23.5 -31.5
s-18.167 -34.167 -28.5 -58.5s-22.5 -54.5 -36.5 -90.5c-3.33301 0.666992 -6.33301 1.33398 -9 2.00098c-6 1.33301 -9 3.66602 -9 6.99902zM353.998 239.997l11.0029 83.999c4 29.333 9 60 15 92l2 16c-25.333 -4 -47.166 -11.333 -65.499 -22s-34.333 -24.167 -48 -40.5
s-25.834 -35.333 -36.501 -57s-20.334 -45.5 -29.001 -71.5c-2 -17.333 -3.33301 -32.166 -4 -44.499s-1.33398 -22.833 -2.00098 -31.5s-1 -16.334 -1 -23.001v-20c0 -25.333 2 -46 6 -62s11.667 -24 23 -24c18 0 37.667 17.333 59 52s44.666 85.334 69.999 152.001z
M508.001 624.996c0 7.33301 -0.831055 13.334 -2.49805 18.001s-5.5 7 -11.5 7c-9.33301 0 -18.5 -16.333 -27.5 -49s-18.5 -78.334 -28.5 -137.001c5.33301 0 10.666 -0.166992 15.999 -0.5s10.666 -0.833008 15.999 -1.5c11.333 31.333 20.5 61 27.5 89
s10.5 52.667 10.5 74zM416.003 323.997l21.998 54l21 54l-26 2c-3.33301 -17.333 -6.16602 -35 -8.49902 -53s-5.16602 -37 -8.49902 -57z" />
    <glyph glyph-name=".notdef" horiz-adv-x="240" 
 />
    <glyph glyph-name="uni0000" horiz-adv-x="0" 
 />
    <glyph glyph-name="uni0000" horiz-adv-x="0" 
 />
    <glyph glyph-name="space" unicode=" " horiz-adv-x="181" 
 />
    <glyph glyph-name="exclam" unicode="!" horiz-adv-x="159" 
d="M263 712l-48.5 -136.999c-15.667 -46 -31 -93.333 -46 -142s-29.5 -99.334 -43.5 -152.001s-28 -109 -42 -169l-33 5c22 109.333 46.5 215.5 73.5 318.5s55.167 200.167 84.5 291.5zM43 -6.99902c-10 0 -17.501 3.33203 -22.501 9.99902s-7.5 14.667 -7.5 24
c0 11.333 3.5 21.833 10.5 31.5s17.167 14.5 30.5 14.5c10.667 0 18.334 -3.16699 23.001 -9.5s7 -14.166 7 -23.499c0 -11.333 -3.5 -22 -10.5 -32s-17.167 -15 -30.5 -15z" />
    <glyph glyph-name="quotedbl" unicode="&#x22;" horiz-adv-x="182" 
d="M57 587l9.5 53.501c3 17 5.16699 32.167 6.5 45.5c2 15.333 3.66699 29.333 5 42c7.33301 -1.33301 14.5 -2.5 21.5 -3.5s14.167 -2.16699 21.5 -3.5c-4.66699 -12.667 -9 -26.334 -13 -41.001l-11.5 -44c-4.33301 -16.667 -8.5 -34.667 -12.5 -54zM125 587.001
l9.5 53.501c3 17 5.16699 32.167 6.5 45.5c2 15.333 3.66699 29.333 5 42c7.33301 -1.33301 14.333 -2.5 21 -3.5s13.667 -2.16699 21 -3.5c-4 -12.667 -8 -26.334 -12 -41.001l-11.5 -44c-4.33301 -16.667 -8.5 -34.667 -12.5 -54z" />
    <glyph glyph-name="numbersign" unicode="#" horiz-adv-x="386" 
d="M269 479c7.33301 0 14.668 -0.166992 22.001 -0.5s14.666 -0.5 21.999 -0.5l-24 -134h93l-5 -32h-93l-16 -83h96l-5 -32h-97l-24 -124h-22c-7.33301 0 -14.666 0.333008 -21.999 1l23 123h-64l-24 -124h-22c-7.33301 0 -14.666 0.333008 -21.999 1l24 123h-94l5 32h95
l15 83h-97l5 32h98l24 135c7.33301 0 14.666 -0.166992 21.999 -0.5s14.666 -0.5 21.999 -0.5c-3.33301 -22.667 -7 -45.167 -11 -67.5l-12 -66.5h64zM224.002 229l14.999 83h-64c-2.66699 -14 -5.16699 -27.833 -7.5 -41.5s-5.16602 -27.5 -8.49902 -41.5h65z" />
    <glyph glyph-name="dollar" unicode="$" horiz-adv-x="317" 
d="M232 321c6 20.667 8.50098 38.165 7.50098 52.498s-4.33301 25.833 -10 34.5s-12.834 15 -21.501 19s-17.334 6 -26.001 6c-16 0 -29.833 -6.16699 -41.5 -18.5s-17.5 -28.5 -17.5 -48.5c0 -16 3.33301 -30.667 10 -44s15 -25.833 25 -37.5s21 -23.334 33 -35.001
s23 -23.834 33 -36.501s18.333 -26.334 25 -41.001s10 -31 10 -49c0 -31.333 -7 -57 -21 -77s-31.167 -34.333 -51.5 -43s-42 -12 -65 -10s-43.667 8.83301 -62 20.5s-32.5 28.167 -42.5 49.5s-12 47 -6 77l55 -9c-4.66699 -21.333 -4.5 -39.666 0.5 -54.999
s12.333 -27.166 22 -35.499s20.834 -13.166 33.501 -14.499s24.667 0.833984 36 6.50098s20.833 15.167 28.5 28.5s11.5 30.333 11.5 51c0 21.333 -6.83301 40.333 -20.5 57s-28.667 33.334 -45 50.001s-31.333 34.667 -45 54s-20.5 42.666 -20.5 69.999
c0 16.667 2.66699 32.334 8 47.001s13.166 27.5 23.499 38.5s22.833 19.833 37.5 26.5s31.334 10 50.001 10c16.667 0 32.5 -3.66699 47.5 -11s27.333 -17.833 37 -31.5s16 -30 19 -49s1.5 -40.167 -4.5 -63.5zM90.001 -90.002l115 628l24 1l-113 -629h-26z" />
    <glyph glyph-name="percent" unicode="%" horiz-adv-x="439" 
d="M336 215c-12 0 -22.667 -4.16699 -32 -12.5s-17.5 -18.833 -24.5 -31.5s-12.333 -26.667 -16 -42s-5.5 -30 -5.5 -44c0 -18 3.33301 -33.333 10 -46s17.334 -19 32.001 -19c12 0 22.667 4 32 12s17.5 18.333 24.5 31s12.333 26.667 16 42s5.5 30 5.5 44
c0 18 -3.33301 33.5 -10 46.5s-17.334 19.5 -32.001 19.5zM338 240c28 0 48.168 -9.5 60.501 -28.5s18.5 -41.167 18.5 -66.5c0 -17.333 -2.66699 -34.833 -8 -52.5s-13.166 -33.834 -23.499 -48.501s-22.833 -26.5 -37.5 -35.5s-31.334 -13.5 -50.001 -13.5
c-28 0 -48.333 9.5 -61 28.5s-19 41.167 -19 66.5c0 17.333 2.66699 34.833 8 52.5s13.166 33.834 23.499 48.501s23 26.5 38 35.5s31.833 13.5 50.5 13.5zM137.001 464c11.333 0 22.168 -1 32.501 -3s20.5 -3 30.5 -3c19.333 0 37.666 2.33301 54.999 7
s33.333 10.5 48 17.5s27.667 14.5 39 22.5s20.666 15.333 27.999 22l28 -16c-16 -37.333 -37.167 -79 -63.5 -125s-55.166 -92.667 -86.499 -140s-64.166 -93.166 -98.499 -137.499s-67.5 -82.833 -99.5 -115.5l-29 21c52 55.333 98.5 111.166 139.5 167.499
s75.5 107.5 103.5 153.5c32.667 53.333 61.667 105 87 155c-12 -8.66699 -25.333 -16.667 -40 -24c-12.667 -6 -28 -11.5 -46 -16.5s-38 -7.5 -60 -7.5c-3.33301 0 -7 0.166992 -11 0.5s-8 0.833008 -12 1.5c10 -6.66699 18 -16.834 24 -30.501s9 -29.167 9 -46.5
c0 -16.667 -2.5 -33.667 -7.5 -51s-12.333 -33 -22 -47s-21.834 -25.5 -36.501 -34.5s-31.667 -13.5 -51 -13.5c-28 0 -48.667 9.83301 -62 29.5s-20 42.834 -20 69.501c0 16 2.83301 32.5 8.5 49.5s13.667 32.5 24 46.5s23 25.5 38 34.5s31.833 13.5 50.5 13.5z
M134.003 439c-12 0 -22.999 -3.99902 -32.999 -11.999s-18.333 -18 -25 -30s-11.834 -25.333 -15.501 -40s-5.5 -28.667 -5.5 -42c0 -18.667 3.66699 -34.834 11 -48.501s18.666 -20.5 33.999 -20.5c12 0 22.667 3.83301 32 11.5s17.333 17.5 24 29.5
s11.834 25.167 15.501 39.5s5.5 28.5 5.5 42.5c0 18 -3.33301 33.833 -10 47.5s-17.667 21.167 -33 22.5z" />
    <glyph glyph-name="ampersand" unicode="&#x26;" horiz-adv-x="466" 
d="M310 358l175.997 -0.00195312l-5 -29c-6 -0.666992 -12.667 -1 -20 -1h-50c-1.33301 -58 -8 -110.833 -20 -158.5s-32 -86.5 -60 -116.5c23.333 -36 47.833 -64.833 73.5 -86.5s52.167 -32.5 79.5 -32.5c16 0 29.667 3.66699 41 11s21 16.666 29 27.999l27 -26
c-13.333 -14.667 -27.166 -25.167 -41.499 -31.5s-32.5 -9.5 -54.5 -9.5c-34 0 -66.833 10.833 -98.5 32.5s-61.5 50.5 -89.5 86.5c-13.333 -8.66699 -28 -15.667 -44 -21s-33 -8 -51 -8c-59.333 0 -103.166 15.667 -131.499 47s-42.5 72.666 -42.5 123.999
c0 40 9.16699 82 27.5 126s45.166 83.333 80.499 118c-2.66699 16.667 -5 33 -7 49s-3 31.667 -3 47c0 30.667 2.16699 59.334 6.5 86.001s11.5 49.834 21.5 69.501s23.167 35.167 39.5 46.5s36.5 17 60.5 17c18 0 33.5 -3.16699 46.5 -9.5s23.833 -14.666 32.5 -24.999
s15 -22.166 19 -35.499s6 -27 6 -41c0 -21.333 -4.16699 -41.833 -12.5 -61.5s-20.166 -36.167 -35.499 -49.5c-5.33301 5.33301 -10.833 10.166 -16.5 14.499s-11.167 8.83301 -16.5 13.5c12 12.667 21.167 27.167 27.5 43.5s9.5 32.166 9.5 47.499
c0 20.667 -5.16699 37.5 -15.5 50.5s-25.5 19.5 -45.5 19.5c-26.667 0 -46 -12.667 -58 -38s-18 -59 -18 -101c0 -33.333 3.33301 -70.166 10 -110.499s16 -81.5 28 -123.5s26.333 -83.5 43 -124.5s34.667 -78.5 54 -112.5c17.333 26.667 29 60.834 35 102.501
s9.33301 89.167 10 142.5h-25.5c-8.33301 0 -17.166 0.333008 -26.499 1zM200.997 23.998c32 0 58 7.99902 78 23.999c-32 46 -59.667 97.833 -83 155.5s-41 115.834 -53 174.501c-19.333 -26.667 -34 -56.667 -44 -90s-15 -66 -15 -98c0 -22 2.33301 -43.167 7 -63.5
s11.667 -38 21 -53s21.5 -27 36.5 -36s32.5 -13.5 52.5 -13.5z" />
    <glyph glyph-name="quotesingle" unicode="'" horiz-adv-x="115" 
d="M60 587l9.5 53.501c3 17 5.16699 32.167 6.5 45.5c2 15.333 3.66699 29.333 5 42c7.33301 -1.33301 14.5 -2.5 21.5 -3.5s14.167 -2.16699 21.5 -3.5c-4.66699 -12.667 -9 -26.334 -13 -41.001l-11.5 -44c-4.33301 -16.667 -8.5 -34.667 -12.5 -54z" />
    <glyph glyph-name="parenleft" unicode="(" horiz-adv-x="174" 
d="M203 779c4.66699 -3.33301 9.33398 -6.16699 14.001 -8.5s9.66699 -5.16602 15 -8.49902c-22 -42.667 -42.667 -94.834 -62 -156.501s-36.333 -126.834 -51 -195.501s-26.334 -138 -35.001 -208s-13 -135 -13 -195c0 -17.333 0.333008 -33.666 1 -48.999s2 -30.333 4 -45
l-30 -6c-7.33301 28 -12.833 58 -16.5 90s-5.5 65.333 -5.5 100c0 59.333 4.5 120.666 13.5 183.999s21.5 125.333 37.5 186s34.833 117.834 56.5 171.501s45.5 100.5 71.5 140.5z" />
    <glyph glyph-name="parenright" unicode=")" horiz-adv-x="194" 
d="M-1 -93c-5.33301 3.33301 -10.332 6.16797 -14.999 8.50098s-9.33398 5.16602 -14.001 8.49902c14 28.667 27.833 61.5 41.5 98.5s26.334 76.667 38.001 119s22.5 86.666 32.5 132.999s18.5 92.666 25.5 138.999s12.5 91.833 16.5 136.5s6 87 6 127
c0 17.333 -0.333008 34 -1 50s-2 31.333 -4 46l30 6c7.33301 -28.667 12.833 -59.167 16.5 -91.5s5.5 -65.5 5.5 -99.5c0 -59.333 -4.66699 -120.666 -14 -183.999s-22 -125.166 -38 -185.499s-34.833 -117.333 -56.5 -171s-44.834 -100.5 -69.501 -140.5z" />
    <glyph glyph-name="asterisk" unicode="*" horiz-adv-x="184" 
d="M134 720c-3.33301 -17.333 -6.83496 -32.834 -10.502 -46.501l-8.5 -31.5c6.66699 3.33301 16 7.33301 28 12l46 18l8 -32c-15.333 -5.33301 -29.833 -9.66602 -43.5 -12.999s-24.5 -5.66602 -32.5 -6.99902c6.66699 -4.66699 15.334 -11.167 26.001 -19.5l38 -30.5
l-22 -22c-12 9.33301 -23 19.333 -33 30s-17.667 19.334 -23 26.001c-0.666992 -8.66699 -1.83398 -19.834 -3.50098 -33.501s-4.16699 -29.167 -7.5 -46.5l-31 7c3.33301 15.333 6.83301 29.833 10.5 43.5s6.83398 24.5 9.50098 32.5c-15.333 -8 -40 -17.667 -74 -29l-9 30
c13.333 4.66699 27 8.83398 41 12.501s25.333 6.5 34 8.5c-6.66699 4 -15 9.83301 -25 17.5s-22.333 18.167 -37 31.5l21 22c12.667 -11.333 23.834 -21.833 33.501 -31.5s17.167 -17.834 22.5 -24.501c0 7.33301 0.833008 17.666 2.5 30.999s4.5 30 8.5 50z" />
    <glyph glyph-name="plus" unicode="+" horiz-adv-x="197" 
d="M190 273l-6 -32h-73c-2 -14 -4.33301 -28 -7 -42s-5 -27.667 -7 -41c-5.33301 0.666992 -10.5 1.16699 -15.5 1.5s-10.167 1.16602 -15.5 2.49902l13 79h-74l6 32h74c3.33301 14 6 28 8 42s4.66699 28.333 8 43c5.33301 -1.33301 10.5 -2.16602 15.5 -2.49902
s10.167 -0.833008 15.5 -1.5l-15 -81h73z" />
    <glyph glyph-name="comma" unicode="," horiz-adv-x="119" 
d="M-15 -119c-3.33301 3.33301 -7 6.5 -11 9.5s-7.66699 6.16699 -11 9.5c15.333 24 25.833 48.5 31.5 73.5s8.5 49.167 8.5 72.5h46c0 -30 -5.66699 -59.5 -17 -88.5s-27 -54.5 -47 -76.5z" />
    <glyph glyph-name="hyphen" unicode="-" horiz-adv-x="219" 
d="M200 272l-6 -32h-179l6 32h179z" />
    <glyph glyph-name="period" unicode="." horiz-adv-x="155" 
d="M43 -7c-10 0 -17.501 3.33203 -22.501 9.99902s-7.5 14.667 -7.5 24c0 11.333 3.5 21.833 10.5 31.5s17.167 14.5 30.5 14.5c10.667 0 18.334 -3.16699 23.001 -9.5s7 -14.166 7 -23.499c0 -11.333 -3.5 -22 -10.5 -32s-17.167 -15 -30.5 -15z" />
    <glyph glyph-name="slash" unicode="/" horiz-adv-x="170" 
d="M52 -6c-6 1.33301 -11.834 3.00098 -17.501 5.00098l-16.5 6c24.667 76.667 46.834 152.167 66.501 226.5s36.667 143.166 51 206.499s26.333 119.666 36 168.999s16.834 88 21.501 116l36 -6l-21.5 -116c-9 -49.333 -20.667 -105.666 -35 -168.999
s-31.333 -132.5 -51 -207.5s-42.834 -151.833 -69.501 -230.5z" />
    <glyph glyph-name="zero" unicode="0" horiz-adv-x="314" 
d="M128 28c16 0 30.666 8.66699 43.999 26s24.833 39.5 34.5 66.5s17.334 57.167 23.001 90.5s8.5 66 8.5 98c0 38 -4.16699 67.333 -12.5 88s-21.5 31 -39.5 31c-17.333 0 -32.833 -9 -46.5 -27s-25.167 -41 -34.5 -69s-16.5 -58.667 -21.5 -92s-7.5 -65 -7.5 -95
c0 -78 17.333 -117 52 -117zM124.999 -7c-18.667 0 -34.5 4.33398 -47.5 13.001s-23.667 20.5 -32 35.5s-14.5 32.833 -18.5 53.5s-6 42.667 -6 66c0 35.333 3.83301 71 11.5 107s18.667 68.5 33 97.5s32 52.5 53 70.5s44.833 27 71.5 27c20 0 36.5 -4.5 49.5 -13.5
s23.5 -21 31.5 -36s13.667 -32.833 17 -53.5s5 -42.334 5 -65.001c0 -37.333 -4 -74 -12 -110s-19.167 -68.333 -33.5 -97s-31.833 -51.667 -52.5 -69s-44 -26 -70 -26z" />
    <glyph glyph-name="one" unicode="1" horiz-adv-x="208" 
d="M-10 0l5.00488 30.998h66c7.33301 52 15.166 99.833 23.499 143.5l22.5 114.5c7.33301 38 14.666 72.667 21.999 104l-23 -30c-7.33301 -9.33301 -16 -19.666 -26 -30.999s-21 -22.666 -33 -33.999l-18 32c15.333 12.667 30.666 26.334 45.999 41.001
s28.666 28.667 39.999 42c13.333 15.333 26 30.666 38 45.999l36 -12c-0.666992 -5.33301 -3.16699 -18.833 -7.5 -40.5l-17 -86.5l-23.5 -127c-8.66699 -48.667 -17.334 -102.667 -26.001 -162h67l-5 -31h-187z" />
    <glyph glyph-name="two" unicode="2" horiz-adv-x="282" 
d="M157 429c-22 0 -39.165 -8.83203 -51.498 -26.499s-18.5 -37.834 -18.5 -60.501c0 -16 3 -31.333 9 -46l-44 -21c-8.66699 15.333 -13 33.666 -13 54.999c0 16 2.66699 31.833 8 47.5s13.166 29.834 23.499 42.501s23 23 38 31s32.5 12 52.5 12
c35.333 0 61.5 -9.83301 78.5 -29.5s25.5 -45.5 25.5 -77.5c0 -34.667 -7.5 -65.167 -22.5 -91.5s-33.5 -51.166 -55.5 -74.499s-45.833 -47 -71.5 -71s-49.167 -51.333 -70.5 -82c3.33301 1.33301 7.16602 2.16602 11.499 2.49902s8.83301 0.5 13.5 0.5
c10 0 21.167 -0.666992 33.5 -2s24.166 -2 35.499 -2c20.667 0 36.5 2.16699 47.5 6.5s19.833 9.83301 26.5 16.5c5.33301 -6 10.5 -12.167 15.5 -18.5s10.167 -12.5 15.5 -18.5c-8.66699 -9.33301 -18 -16.333 -28 -21s-22.333 -7 -37 -7
c-22.667 0 -44.5 3.16699 -65.5 9.5s-39.833 9.5 -56.5 9.5c-7.33301 0 -15.166 -1.5 -23.499 -4.5s-13.833 -8.16699 -16.5 -15.5l-35 19l9 17.5c3.33301 6.33301 7.33301 12.833 12 19.5c22.667 34 46.5 64 71.5 90l69 74.5c21 23.667 38.167 47.167 51.5 70.5
s20 49.666 20 78.999c0 20.667 -5.33301 36.834 -16 48.501s-24.667 17.5 -42 17.5z" />
    <glyph glyph-name="three" unicode="3" horiz-adv-x="298" 
d="M137 214c6 -1.33301 12.334 -2.33203 19.001 -2.99902s13 -1.66699 19 -3c17.333 13.333 31 32.5 41 57.5s15 50.167 15 75.5c0 24.667 -5.16699 45.834 -15.5 63.501s-26.5 26.5 -48.5 26.5c-10.667 0 -20.334 -2.5 -29.001 -7.5s-16.167 -11.667 -22.5 -20
s-11.166 -17.833 -14.499 -28.5s-5 -22 -5 -34c0 -17.333 3.33301 -32.666 10 -45.999l-43 -17c-8.66699 15.333 -13 34.333 -13 57c0 15.333 2.33301 30.666 7 45.999s12 29 22 41s22.5 21.833 37.5 29.5s32.833 11.5 53.5 11.5c19.333 0 36.166 -3.33301 50.499 -10
s26 -15.667 35 -27s15.667 -24.333 20 -39s6.5 -30 6.5 -46c0 -28.667 -6.33301 -57 -19 -85s-30.667 -49.667 -54 -65c17.333 -12.667 30.333 -30 39 -52s13 -45.333 13 -70c0 -22 -3.33301 -43.833 -10 -65.5s-16.5 -41.167 -29.5 -58.5s-29.167 -31.333 -48.5 -42
s-41.666 -16 -66.999 -16c-18 0 -33.5 3.16699 -46.5 9.5s-24 14.666 -33 24.999s-15.667 22.166 -20 35.499s-6.5 27.333 -6.5 42c0 20.667 4.5 41 13.5 61s22.167 36.667 39.5 50l34 -35c-13.333 -10 -23.5 -22.833 -30.5 -38.5s-10.5 -31.167 -10.5 -46.5
c0 -17.333 5.16699 -33 15.5 -47s26.5 -21 48.5 -21c16 0 30 4.66699 42 14s22.167 21.5 30.5 36.5s14.666 31.833 18.999 50.5s6.5 37.334 6.5 56.001c0 19.333 -3 37.666 -9 54.999s-13.667 30.333 -23 39c-12 -4 -24.333 -6 -37 -6c-4.66699 0 -8 0.333008 -10 1z" />
    <glyph glyph-name="four" unicode="4" horiz-adv-x="299" 
d="M266 456c-1.33301 -8.66699 -7.50098 -39.5 -18.501 -92.5s-23.833 -121.833 -38.5 -206.5c14.667 0.666992 27 2.83398 37 6.50098s18.667 8.16699 26 13.5l17 -40c-16 -12 -36 -18.333 -60 -19h-11c-2.66699 0 -5.16699 -0.166992 -7.5 -0.5s-4.83301 -0.5 -7.5 -0.5
l-14 -86h71l-5 -31h-182l5 31h62c2 15.333 4.16699 30.666 6.5 45.999s4.83301 30.666 7.5 45.999l-59 8c-2 0 -4 0.166992 -6 0.5s-4 0.5 -6 0.5c-9.33301 0 -18.666 -1.16699 -27.999 -3.5s-16.666 -7.16602 -21.999 -14.499l-38 28c32 42.667 54.667 89.667 68 141
s20.666 103 21.999 155h47c-0.666992 -45.333 -5.83398 -92 -15.501 -140s-28.5 -95.333 -56.5 -142c5.33301 1.33301 11.333 2.33301 18 3s13.334 1 20.001 1c10 0 20.167 -0.5 30.5 -1.5s20.833 -1.83301 31.5 -2.5l19.5 108l17.5 91l13.5 66.5
c3.66699 17.667 6.16699 29.167 7.5 34.5h48z" />
    <glyph glyph-name="five" unicode="5" horiz-adv-x="298" 
d="M51 204c1.33301 2 3.33594 5.16797 6.00293 9.50098s6.66699 8.5 12 12.5c4 14.667 9.66699 41.334 17 80.001s14 90.334 20 155.001c28 -6 56 -9 84 -9c24 0 44.333 1.5 61 4.5s27.667 5.83301 33 8.5l6 -52c-4.66699 -2 -14.834 -4.66699 -30.501 -8
s-35.167 -5 -58.5 -5c-12.667 0 -24.667 0.666992 -36 2s-21.333 2.66602 -30 3.99902c-2 -15.333 -4 -29.666 -6 -42.999s-4.16699 -26.5 -6.5 -39.5s-5 -26.167 -8 -39.5s-6.5 -27.666 -10.5 -42.999c5.33301 2 11.333 3.5 18 4.5s13 1.5 19 1.5
c40.667 0 70.334 -13.667 89.001 -41s28 -62 28 -104c0 -26.667 -3.66699 -53 -11 -79s-18 -49.167 -32 -69.5s-31 -36.833 -51 -49.5s-43 -19 -69 -19c-18 0 -33.667 3 -47 9s-24.333 14 -33 24s-15.167 21.5 -19.5 34.5s-6.5 26.5 -6.5 40.5
c0 21.333 4.66699 42.666 14 63.999s23 39 41 53l33 -37c-14 -12 -24.333 -25.833 -31 -41.5s-10 -30.834 -10 -45.501c0 -7.33301 1.33301 -15 4 -23s6.66699 -15.167 12 -21.5s11.666 -11.5 18.999 -15.5s15.666 -6 24.999 -6c16 0 30.833 5.83301 44.5 17.5
s25.167 26.667 34.5 45s16.666 38.666 21.999 60.999s8 44.166 8 65.499c0 34.667 -7.33301 61.167 -22 79.5s-32.667 27.5 -54 27.5c-9.33301 0 -16.5 -1.16699 -21.5 -3.5s-9.33301 -5 -13 -8s-6.66699 -6.16699 -9 -9.5s-4.83301 -6.33301 -7.5 -9z" />
    <glyph glyph-name="six" unicode="6" horiz-adv-x="305" 
d="M305 510c-52 -18.667 -96.8301 -45.998 -134.497 -81.998s-65.834 -81 -84.501 -135c11.333 15.333 24.166 27.833 38.499 37.5s30.5 14.5 48.5 14.5c16 0 29.833 -3.83301 41.5 -11.5s21.5 -18 29.5 -31s13.833 -28 17.5 -45s5.5 -34.833 5.5 -53.5
c0 -24 -3.16699 -48.5 -9.5 -73.5s-15.5 -47.5 -27.5 -67.5s-27 -36.333 -45 -49s-38.667 -19 -62 -19c-19.333 0 -35.833 4.33301 -49.5 13s-24.834 20.5 -33.501 35.5s-14.834 32.167 -18.501 51.5s-5.5 39.666 -5.5 60.999c0 48.667 7.66699 94.5 23 137.5
s35.5 81.833 60.5 116.5s53.833 64.167 86.5 88.5s66.334 42.166 101.001 53.499zM157.003 314.002c-13.333 0 -25.6689 -4.16992 -37.002 -12.5029s-21.166 -19.666 -29.499 -33.999s-14.833 -31 -19.5 -50s-7.33398 -38.833 -8.00098 -59.5v-9c0 -12 0.833008 -25 2.5 -39
s4.83398 -27 9.50098 -39s11 -21.833 19 -29.5s18.333 -11.5 31 -11.5c14 0 26.5 5.33301 37.5 16s20.333 24.334 28 41.001s13.334 35.334 17.001 56.001s5.5 41 5.5 61c0 30 -4.66699 55.833 -14 77.5s-23.333 32.5 -42 32.5z" />
    <glyph glyph-name="seven" unicode="7" horiz-adv-x="270" 
d="M34 -90c3.33301 17.333 8.33008 38.999 14.9971 64.999s14.667 54.167 24 84.5l30.5 95c11 33 23 65.5 36 97.5s26.667 62.5 41 91.5s28.833 54.833 43.5 77.5c-6.66699 -1.33301 -17.667 -2.83301 -33 -4.5s-32.666 -2.5 -51.999 -2.5c-13.333 0 -26.333 0.5 -39 1.5
s-24.667 2.16699 -36 3.5c0 -4 0.166992 -7.83301 0.5 -11.5s0.5 -7.16699 0.5 -10.5c0 -9.33301 -0.333008 -18 -1 -26l-2 -23c-8 0 -15.833 0.166992 -23.5 0.5s-15.167 0.833008 -22.5 1.5c1.33301 6 2.5 13.833 3.5 23.5s1.66699 19.667 2 30l1 30
c0.333008 9.66699 0.5 17.5 0.5 23.5c16 -3.33301 35.5 -5.83301 58.5 -7.5s46.833 -2.5 71.5 -2.5c20.667 0 40.834 0.833008 60.501 2.5s37.834 4.5 54.501 8.5c0.666992 -7.33301 1.16699 -14.333 1.5 -21s1.16602 -13.667 2.49902 -21
c-23.333 -33.333 -45.333 -73.5 -66 -120.5s-39 -94.667 -55 -143s-29.167 -94.166 -39.5 -137.499s-17.166 -78.333 -20.499 -105h-57z" />
    <glyph glyph-name="eight" unicode="8" horiz-adv-x="300" 
d="M211 563c31.333 0 54.3369 -10.332 69.0039 -30.999s22 -45 22 -73c0 -15.333 -2 -31 -6 -47s-9.83301 -31.167 -17.5 -45.5s-16.834 -27.166 -27.501 -38.499s-23 -20.333 -37 -27c19.333 -9.33301 33.666 -24.333 42.999 -45s14 -43.667 14 -69
c0 -22 -3.5 -44.333 -10.5 -67s-17.167 -43.334 -30.5 -62.001s-29.833 -33.834 -49.5 -45.501s-41.834 -17.5 -66.501 -17.5c-18 0 -33.667 3.33301 -47 10s-24.333 15.834 -33 27.501s-15.167 25 -19.5 40s-6.5 30.833 -6.5 47.5c0 18 2.5 36.5 7.5 55.5
s12.167 36.833 21.5 53.5s20.833 31.5 34.5 44.5s29.5 22.833 47.5 29.5c-15.333 9.33301 -26.833 23.166 -34.5 41.499s-11.5 38.166 -11.5 59.499c0 18.667 3 37.334 9 56.001s14.667 35.667 26 51s25.666 27.833 42.999 37.5s37.333 14.5 60 14.5zM166.004 284.001
c-16 0 -30.499 -5.3291 -43.499 -15.9961s-24 -24.334 -33 -41.001s-16 -35 -21 -55s-7.5 -39.333 -7.5 -58c0 -24.667 4.66699 -45.667 14 -63s23.666 -26 42.999 -26c14.667 0 28.167 5.5 40.5 16.5s22.833 25.167 31.5 42.5s15.5 36.166 20.5 56.499
s7.5 40.166 7.5 59.499c0 23.333 -4.16699 43.166 -12.5 59.499s-21.5 24.5 -39.5 24.5zM208.005 533.005c-13.333 0 -25.334 -4.33301 -36.001 -13s-19.667 -19.834 -27 -33.501s-13 -28.667 -17 -45s-6 -32.166 -6 -47.499c0 -21.333 3.83301 -39.5 11.5 -54.5
s19.5 -22.5 35.5 -22.5c12 0 23.167 4.66699 33.5 14s19.333 21 27 35s13.5 29.5 17.5 46.5s6 33.5 6 49.5c0 19.333 -3.66699 36 -11 50s-18.666 21 -33.999 21z" />
    <glyph glyph-name="nine" unicode="9" horiz-adv-x="306" 
d="M49 -57c20 10.667 38.3359 24.334 55.0029 41.001s31.667 35 45 55s25.166 41.5 35.499 64.5s19.166 46.5 26.499 70.5c-10.667 -18 -23.334 -32.833 -38.001 -44.5s-31.667 -17.5 -51 -17.5c-16.667 0 -31 3.83301 -43 11.5s-22 18 -30 31s-13.833 28.167 -17.5 45.5
s-5.5 35.666 -5.5 54.999c0 24.667 3.16699 49.5 9.5 74.5s15.666 47.667 27.999 68s27.5 36.833 45.5 49.5s39 19 63 19c18.667 0 34.834 -4.16699 48.501 -12.5s25 -20 34 -35s15.667 -32.5 20 -52.5s6.5 -41.667 6.5 -65c0 -35.333 -4.66699 -73 -14 -113
s-23 -78.5 -41 -115.5s-39.667 -70.667 -65 -101s-54 -53.833 -86 -70.5l-13.5 21c-4.33301 6.66699 -8.5 13.667 -12.5 21zM130.003 147c0.666992 0 1.33203 -0.169922 1.99902 -0.50293s1.33398 -0.5 2.00098 -0.5c14.667 0 28.167 4.83301 40.5 14.5s23 22.167 32 37.5
s16 33 21 53s7.5 40 7.5 60c0 34.667 -5.16699 63.334 -15.5 86.001s-26.166 34 -47.499 34c-14.667 0 -27.667 -5.66699 -39 -17s-21 -25.666 -29 -42.999s-14.167 -36.666 -18.5 -57.999s-6.5 -42 -6.5 -62c0 -28 4.16699 -52 12.5 -72s21.166 -30.667 38.499 -32z" />
    <glyph glyph-name="colon" unicode=":" horiz-adv-x="129" 
d="M102 348c-10 0 -17.501 3.33203 -22.501 9.99902s-7.5 14.667 -7.5 24c0 11.333 3.5 21.833 10.5 31.5s17.167 14.5 30.5 14.5c10.667 0 18.334 -3.16699 23.001 -9.5s7 -14.166 7 -23.499c0 -11.333 -3.5 -22 -10.5 -32s-17.167 -15 -30.5 -15zM42.999 -7.00098
c-10 0 -17.501 3.33203 -22.501 9.99902s-7.5 14.667 -7.5 24c0 11.333 3.5 21.833 10.5 31.5s17.167 14.5 30.5 14.5c10.667 0 18.334 -3.16699 23.001 -9.5s7 -14.166 7 -23.499c0 -11.333 -3.5 -22 -10.5 -32s-17.167 -15 -30.5 -15z" />
    <glyph glyph-name="semicolon" unicode=";" horiz-adv-x="138" 
d="M-18 -119c-3.33301 3.33301 -7 6.5 -11 9.5s-7.66699 6.16699 -11 9.5c15.333 24 25.833 48.5 31.5 73.5s8.5 49.167 8.5 72.5h46c0 -30 -5.66699 -59.5 -17 -88.5s-27 -54.5 -47 -76.5zM102 348c-10 0 -17.501 3.33203 -22.501 9.99902s-7.5 14.667 -7.5 24
c0 11.333 3.5 21.833 10.5 31.5s17.167 14.5 30.5 14.5c10.667 0 18.334 -3.16699 23.001 -9.5s7 -14.166 7 -23.499c0 -11.333 -3.5 -22 -10.5 -32s-17.167 -15 -30.5 -15z" />
    <glyph glyph-name="less" unicode="&#x3c;" horiz-adv-x="255" 
d="M16 394c20 9.33301 41.001 20.002 63.001 32.002c18.667 10 39 21.833 61 35.5s43.667 28.5 65 44.5l19 -31c-21.333 -14.667 -42.333 -27.834 -63 -39.501l-56 -30.5c-19.333 -10 -38 -18.667 -56 -26c16.667 -12.667 32.834 -25.834 48.501 -39.501l41.5 -37.5
c14 -13.333 27.333 -27 40 -41l-30 -32c-12.667 15.333 -26.334 31 -41.001 47c-12.667 13.333 -27.334 28 -44.001 44s-34 31.667 -52 47z" />
    <glyph glyph-name="equal" unicode="=" horiz-adv-x="222" 
d="M200 220l-6 -32h-180l6 32h180zM216 312l-6 -32h-180l6 32h180z" />
    <glyph glyph-name="greater" unicode="&#x3e;" horiz-adv-x="241" 
d="M226 341c-20 -9.33301 -41.001 -20.001 -63.001 -32.001c-18.667 -10 -39 -21.833 -61 -35.5s-43.667 -28.5 -65 -44.5l-19 31c20.667 14.667 41.5 27.834 62.5 39.501l56.5 30.5c19.333 10 38 18.667 56 26c-17.333 12 -33.666 25 -48.999 39l-41 38
c-14 13.333 -27.333 27 -40 41l30 32l42 -47l43.5 -44.5c16.333 -16.333 33.833 -31.833 52.5 -46.5z" />
    <glyph glyph-name="question" unicode="?" horiz-adv-x="272" 
d="M107 149c4.66699 34 12.6641 64.501 23.9971 91.501s24 52.167 38 75.5s28.5 45.333 43.5 66s28.833 41.667 41.5 63s23 43.166 31 65.499s12 46.833 12 73.5c0 33.333 -7.16699 60.333 -21.5 81s-36.5 31 -66.5 31c-16.667 0 -31.667 -3.83301 -45 -11.5
s-24.5 -17.834 -33.5 -30.501s-15.833 -27 -20.5 -43s-7 -32.333 -7 -49c0 -24.667 4.33301 -46 13 -64s24.334 -31.667 47.001 -41l-23 -46c-15.333 4 -28.666 10.333 -39.999 19s-20.833 19.167 -28.5 31.5s-13.334 26 -17.001 41s-5.5 30.5 -5.5 46.5
c0 22 3.5 43.667 10.5 65s17.167 40.5 30.5 57.5s30.166 30.667 50.499 41s43.5 15.5 69.5 15.5c42.667 0 77.334 -12.5 104.001 -37.5s40 -61.167 40 -108.5c0 -29.333 -4.33301 -55.833 -13 -79.5s-19.667 -46.167 -33 -67.5s-28.166 -42.166 -44.499 -62.499
s-32.166 -41.833 -47.499 -64.5s-29 -47.5 -41 -74.5s-20.667 -57.167 -26 -90.5zM104.997 -6.99902c-10 0 -17.501 3.33203 -22.501 9.99902s-7.5 14.667 -7.5 24c0 11.333 3.5 21.833 10.5 31.5s17.167 14.5 30.5 14.5c10.667 0 18.334 -3.16699 23.001 -9.5
s7 -14.166 7 -23.499c0 -11.333 -3.5 -22 -10.5 -32s-17.167 -15 -30.5 -15z" />
    <glyph glyph-name="at" unicode="@" horiz-adv-x="563" 
d="M344 37c13.333 0 27.501 11.3301 42.501 33.9971s28.833 51.667 41.5 87s23.167 74.833 31.5 118.5s12.5 86.5 12.5 128.5c0 30 -2.66699 58.667 -8 86s-13.833 51.333 -25.5 72s-27.167 37.167 -46.5 49.5s-43 18.5 -71 18.5c-30 0 -58.333 -7.5 -85 -22.5
s-51.167 -35.167 -73.5 -60.5s-42.333 -55 -60 -89s-32.667 -70.167 -45 -108.5s-21.833 -77.666 -28.5 -117.999s-10 -79.833 -10 -118.5c0 -39.333 3.66699 -76.5 11 -111.5s18.666 -65.667 33.999 -92s34.833 -47.166 58.5 -62.499s52.167 -23 85.5 -23
c38.667 0 74.834 10.833 108.501 32.5s65 51.334 94 89.001s56.167 81.834 81.5 132.501s49 104.667 71 162c3.33301 0 7.16602 -1.5 11.499 -4.5s6.5 -5.16699 6.5 -6.5l-18 -47c-20 -51.333 -41.833 -100.333 -65.5 -147s-50 -87.834 -79 -123.501
s-61.167 -64.167 -96.5 -85.5s-75 -32 -119 -32c-38 0 -70.667 8.5 -98 25.5s-49.666 40 -66.999 69s-30.166 62.833 -38.499 101.5s-12.5 79.334 -12.5 122.001c0 41.333 3.66699 83.5 11 126.5s17.666 84.833 30.999 125.5s29.833 79 49.5 115s42 67.333 67 94
s52.333 47.834 82 63.501s61.5 23.5 95.5 23.5c33.333 0 61.5 -7.16699 84.5 -21.5s41.667 -33.5 56 -57.5s24.666 -51.833 30.999 -83.5s9.5 -64.834 9.5 -99.501c0 -46.667 -5 -93.834 -15 -141.501s-23 -91 -39 -130s-34.333 -70.833 -55 -95.5s-41.667 -37 -63 -37
c-29.333 0 -44 29.667 -44 89c0 18 2 39.667 6 65c-7.33301 -21.333 -15.333 -41.5 -24 -60.5s-18 -35.5 -28 -49.5s-20.833 -25.167 -32.5 -33.5s-24.5 -12.5 -38.5 -12.5c-21.333 0 -36.833 11.167 -46.5 33.5s-14.5 50.5 -14.5 84.5c0 23.333 2 48.166 6 74.499
s9.5 52.5 16.5 78.5s15.5 51 25.5 75s21 45 33 63s25 32.5 39 43.5s28.333 16.5 43 16.5c19.333 0 33.833 -6.5 43.5 -19.5s16.167 -30.167 19.5 -51.5c2.66699 10.667 5 21.334 7 32.001l6 32h46c-13.333 -63.333 -25.5 -123.833 -36.5 -181.5s-19.5 -110.167 -25.5 -157.5
c-2 -16 -3 -30 -3 -42c0 -24.667 4.66699 -37 14 -37zM275.001 421.997c-14 0 -27.833 -10.999 -41.5 -32.999s-26 -49 -37 -81s-19.833 -65.833 -26.5 -101.5s-10 -67.5 -10 -95.5c0 -21.333 2.33301 -38.5 7 -51.5s12.667 -19.5 24 -19.5c10.667 0 22 7.66699 34 23
s23.667 35.166 35 59.499s21.666 52 30.999 83s17 62.167 23 93.5c2 14 3 28 3 42c0 22 -3.16699 41 -9.5 57s-17.166 24 -32.499 24z" />
    <glyph glyph-name="A" unicode="A" horiz-adv-x="1095" 
d="M626 403c36.667 -1.33301 72.166 -6.83203 106.499 -16.499s66.166 -23.834 95.499 -42.501l63.5 167c20.333 55.333 40.833 107 61.5 155s41.834 91 63.501 129s44.834 67.667 69.501 89l45 -21c-18 -82 -34.333 -162.5 -49 -241.5s-27.167 -155.333 -37.5 -229
s-18.5 -143.834 -24.5 -210.501s-9 -128.334 -9 -185.001c0 -59.333 3.5 -112.666 10.5 -159.999s18 -87.833 33 -121.5s34.5 -59.5 58.5 -77.5s53 -27 87 -27c38 0 68.333 10.167 91 30.5s41 48.166 55 83.499l52 -18c-37.333 -94 -99.333 -141 -186 -141
c-48 0 -88.667 10.167 -122 30.5s-60.333 49 -81 86s-35.5 81.667 -44.5 134s-13.5 110.833 -13.5 175.5c0 10 0.166992 20.333 0.5 31s0.5 21.667 0.5 33c0 52 -9 97 -27 135s-42 69.667 -72 95c-25.333 -67.333 -53.333 -132.333 -84 -195s-66 -118 -106 -166
s-85.833 -86.5 -137.5 -115.5s-111.167 -43.5 -178.5 -43.5c-62 0 -115.833 10.5 -161.5 31.5s-83.5 48.833 -113.5 83.5s-52.333 74.334 -67 119.001s-22 90.667 -22 138c0 52 8.66699 103.333 26 154s42.833 96.167 76.5 136.5s75.5 72.833 125.5 97.5s107.667 37 173 37
c33.333 0 63.333 -4.16699 90 -12.5s50 -19.666 70 -33.999s36.833 -31.333 50.5 -51s24.167 -40.5 31.5 -62.5zM232.999 154.001c8.66699 37.333 23.998 70.667 45.998 100s48.167 54.5 78.5 75.5s64 37.5 101 49.5s75.167 19.333 114.5 22
c-6.66699 18.667 -15.667 36.167 -27 52.5s-25 30.5 -41 42.5s-34.333 21.5 -55 28.5s-44 10.5 -70 10.5c-55.333 0 -104.166 -11.667 -146.499 -35s-77.833 -54 -106.5 -92s-50.5 -80.833 -65.5 -128.5s-22.5 -95.834 -22.5 -144.501c0 -43.333 6.16699 -85.5 18.5 -126.5
s31.333 -77.167 57 -108.5s58.167 -56.5 97.5 -75.5s85.666 -28.5 138.999 -28.5c56.667 0 107.834 14.5 153.501 43.5s87.167 67.5 124.5 115.5s71.166 103 101.499 165s58.5 126 84.5 192c-26 17.333 -54.333 30 -85 38s-62.334 12.667 -95.001 14
c1.33301 -8 2.5 -16 3.5 -24s1.5 -16 1.5 -24c0 -28 -4 -56 -12 -84s-19.833 -54.167 -35.5 -78.5s-35 -45.833 -58 -64.5s-49.5 -32.667 -79.5 -42l-10 24l-10 24c24.667 8 46.334 19.833 65.001 35.5s34.334 33.5 47.001 53.5s22.167 41.667 28.5 65
s9.5 46.666 9.5 69.999c0 7.33301 -0.333008 14.333 -1 21s-1.66699 13.334 -3 20.001c-34 -3.33301 -67.167 -10.5 -99.5 -21.5s-61.833 -25.833 -88.5 -44.5s-49.5 -41.167 -68.5 -67.5s-32.167 -55.833 -39.5 -88.5l-25.5 8
c-8.33301 2.66699 -17.166 5.33398 -26.499 8.00098zM1068 821.002c-5.33301 -6 -9.83301 -12.499 -13.5 -19.499l-11.5 -21.5c-16 -30 -31.333 -63 -46 -99s-29.167 -73.667 -43.5 -113l-43 -122l-45.5 -127c22.667 -18 42 -39 58 -63s28.333 -51.667 37 -83
c8.66699 96 22.5 198.667 41.5 308s41.167 222.666 66.5 339.999z" />
    <glyph glyph-name="B" unicode="B" horiz-adv-x="890" 
d="M313 237c-18 -6.66699 -38.6631 -10.002 -61.9961 -10.002c-38.667 0 -72.5 7.16699 -101.5 21.5s-53.333 33.5 -73 57.5s-34.334 51.833 -44.001 83.5s-14.5 64.834 -14.5 99.501c0 46 8.66699 92.833 26 140.5s43.666 90.667 78.999 129s79.5 69.666 132.5 93.999
s115.5 36.5 187.5 36.5c46.667 0 91 -5.5 133 -16.5s78.5 -27.667 109.5 -50s55.667 -50.333 74 -84s27.5 -73.5 27.5 -119.5c0 -25.333 -3.16699 -50 -9.5 -74s-16.166 -46.333 -29.499 -67s-30.333 -39 -51 -55s-45.334 -29 -74.001 -39
c36 -11.333 67.333 -26.833 94 -46.5s48.667 -42 66 -67s30.166 -52.167 38.499 -81.5s12.5 -59 12.5 -89c0 -40.667 -7.5 -80.834 -22.5 -120.501s-36.833 -75.167 -65.5 -106.5s-64 -56.666 -106 -75.999s-90 -29 -144 -29c-53.333 0 -99 3 -137 9s-70.333 12 -97 18
c-29.333 -16 -59.333 -24 -90 -24c-20 0 -39.333 3 -58 9l9 47c10.667 1.33301 20.667 2.33301 30 3s18.666 1 27.999 1c11.333 0 22 -0.333008 32 -1s20.333 -1.66699 31 -3c22.667 14.667 44.334 37.667 65.001 69s39.5 69.5 56.5 114.5s32.167 96 45.5 153
s24.666 118.833 33.999 185.5c26 186.667 52.333 319.667 79 399l55 -14c-6.66699 -18.667 -13.167 -38.834 -19.5 -60.501s-12.5 -45.834 -18.5 -72.501s-11.833 -56.334 -17.5 -89.001s-11.167 -69 -16.5 -109c21.333 -0.666992 41.666 -2.66699 60.999 -6
c26 8 49.167 19.5 69.5 34.5s37.666 32 51.999 51s25.333 39.667 33 62s11.5 44.833 11.5 67.5c0 42.667 -8.5 79.834 -25.5 111.501s-39 57.834 -66 78.501s-57.5 36 -91.5 46s-68 15 -102 15c-64 0 -119.667 -11.167 -167 -33.5s-86.666 -51.166 -117.999 -86.499
s-54.833 -74.666 -70.5 -117.999s-23.5 -85.666 -23.5 -126.999c0 -30 4 -58.333 12 -85s19.833 -50 35.5 -70s35.334 -36 59.001 -48s51.167 -18 82.5 -18c13.333 0 27.333 1.66699 42 5zM508.004 -203.002c42.667 0 80.667 8.83203 114 26.499s61.5 41 84.5 70
s40.5 61.833 52.5 98.5s18 74 18 112c0 29.333 -3.83301 58.333 -11.5 87s-19.334 55 -35.001 79s-35.667 45 -60 63s-53.166 31.667 -86.499 41c-23.333 -5.33301 -50.333 -8.66602 -81 -9.99902c-9.33301 -74.667 -20.833 -141.5 -34.5 -200.5
s-29.5 -110.833 -47.5 -155.5s-37.5 -82.667 -58.5 -114s-42.833 -56.333 -65.5 -75c28 -5.33301 58.667 -10.333 92 -15s73 -7 119 -7z" />
    <glyph glyph-name="C" unicode="C" horiz-adv-x="954" 
d="M342 609c-6 3.33301 -15.168 7.16895 -27.501 11.502s-27.833 6.5 -46.5 6.5c-28.667 0 -54.834 -5.33301 -78.501 -16s-44 -25.5 -61 -44.5s-30.333 -41.333 -40 -67s-14.5 -53.5 -14.5 -83.5c0 -44 9 -82 27 -114s41.833 -58.5 71.5 -79.5s63.667 -36.667 102 -47
s77.5 -15.833 117.5 -16.5c0.666992 54 5.66699 109.5 15 166.5s22.333 112.5 39 166.5s37 104.833 61 152.5s50.833 89.5 80.5 125.5s62.167 64.5 97.5 85.5s73 31.5 113 31.5c26.667 0 50 -4.83301 70 -14.5s36.5 -23.167 49.5 -40.5s22.667 -37.833 29 -61.5
s9.5 -49.5 9.5 -77.5c0 -34.667 -5 -71.667 -15 -111s-24.667 -78.666 -44 -117.999s-43.333 -77.5 -72 -114.5s-61.834 -70.333 -99.501 -100s-79.667 -54.834 -126 -75.501s-96.5 -34.334 -150.5 -41.001c0 -44 2.66699 -85.667 8 -125s14.333 -74.166 27 -104.499
s29.667 -54.833 51 -73.5s48 -29.334 80 -32.001c-4 17.333 -6.83301 36.166 -8.5 56.499s-2.5 37.166 -2.5 50.499c0 35.333 3.66699 70 11 104s18 64.167 32 90.5s31.5 47.5 52.5 63.5s45.167 24 72.5 24c18.667 0 35 -3.66699 49 -11s25.667 -17.5 35 -30.5
s16.333 -28.167 21 -45.5s7 -36 7 -56c0 -27.333 -4.5 -55.666 -13.5 -84.999s-22.333 -56.833 -40 -82.5s-39.667 -48 -66 -67s-57.166 -31.833 -92.499 -38.5c11.333 -31.333 26.666 -58 45.999 -80s43 -36 71 -42c-3.33301 -7.33301 -6.16602 -14.666 -8.49902 -21.999
s-5.16602 -14.666 -8.49902 -21.999c-18.667 4 -35.834 10.833 -51.501 20.5s-29.667 21.667 -42 36s-23.166 30.5 -32.499 48.5s-17 37.333 -23 58c-40 2 -74.333 12.167 -103 30.5s-52.167 43.333 -70.5 75s-32.166 69.167 -41.499 112.5s-14.333 91 -15 143
c-63.333 0 -118.166 8.16699 -164.499 24.5s-84.833 38.166 -115.5 65.499s-53.334 58.666 -68.001 93.999s-22 72.333 -22 111c0 36.667 6.16699 70.667 18.5 102s29.5 58.333 51.5 81s48 40.5 78 53.5s62.667 19.5 98 19.5c24 0 44.333 -2.5 61 -7.5
s29.667 -9.83301 39 -14.5zM797.999 857.003c-31.333 0 -61.332 -9.99805 -89.999 -29.998s-55.5 -47.167 -80.5 -81.5s-47.833 -74.333 -68.5 -120s-38.667 -94 -54 -145s-27.666 -103.667 -36.999 -158s-15.333 -106.833 -18 -157.5c50 7.33301 95.667 21.166 137 41.499
s78.666 45.166 111.999 74.499s62.666 61.833 87.999 97.5s46.5 72.167 63.5 109.5s29.667 74.333 38 111s12.5 71 12.5 103c0 46 -8.5 83.333 -25.5 112s-42.833 43 -77.5 43zM775 156.005c-20.667 0 -38.9971 -6.33105 -54.9971 -18.998s-29.333 -29.834 -40 -51.501
s-18.834 -46.834 -24.501 -75.501s-8.5 -59 -8.5 -91c0 -20 1.16699 -40 3.5 -60s6.16602 -39.333 11.499 -58c28.667 6.66699 54 19.167 76 37.5s40.167 39.5 54.5 63.5s25.166 49.5 32.499 76.5s11 52.5 11 76.5c0 28 -5 51.5 -15 70.5s-25.333 29.167 -46 30.5z" />
    <glyph glyph-name="D" unicode="D" horiz-adv-x="918" 
d="M418 -232c-24.667 0 -46.8359 1 -66.5029 3s-37.667 4.33301 -54 7s-31.166 5.66699 -44.499 9s-26 6.66602 -38 9.99902c-24 -14 -48.833 -22.167 -74.5 -24.5s-51.167 0.166992 -76.5 7.5l9 47c24.667 3.33301 46.167 4.83301 64.5 4.5
s36.166 -2.16602 53.499 -5.49902c33.333 20 63.5 55.833 90.5 107.5s50.5 115.834 70.5 192.501c-50.667 1.33301 -94.834 11.666 -132.501 30.999s-69 44.666 -94 75.999s-43.667 67.5 -56 108.5s-18.5 84.167 -18.5 129.5c0 66 11 125 33 177s51.5 96.167 88.5 132.5
s79.833 64 128.5 83s99.334 28.5 152.001 28.5c60.667 0 116.167 -10.667 166.5 -32s93.833 -53.166 130.5 -95.499s65.167 -95 85.5 -158s30.5 -135.833 30.5 -218.5c0 -49.333 -3.83301 -98.833 -11.5 -148.5s-19.5 -97.5 -35.5 -143.5s-36.167 -89 -60.5 -129
s-53.166 -74.667 -86.499 -104s-71.166 -52.5 -113.499 -69.5s-89.166 -25.5 -140.499 -25.5zM594.998 526c20 -22 34.1631 -46.3291 42.4961 -72.9961s11.333 -53.834 9 -81.501s-9.5 -54.834 -21.5 -81.501s-28.167 -51 -48.5 -73s-44.666 -40.833 -72.999 -56.5
s-59.5 -26.167 -93.5 -31.5c-21.333 -80.667 -46.166 -146.5 -74.499 -197.5s-59.166 -89.5 -92.499 -115.5c21.333 -4.66699 45.666 -9 72.999 -13s61.333 -6 102 -6c66 0 123 16.833 171 50.5s87.667 77.667 119 132s54.5 115.666 69.5 183.999s22.5 137.166 22.5 206.499
c0 78 -8.33301 147.5 -25 208.5s-40.167 112.667 -70.5 155s-66.666 74.5 -108.999 96.5s-89.5 33 -141.5 33c-51.333 0 -98.333 -10.167 -141 -30.5s-79.5 -48.166 -110.5 -83.499s-55.167 -77.166 -72.5 -125.499s-26 -100.5 -26 -156.5
c0 -42.667 5.66699 -82.834 17 -120.501s27.833 -70.5 49.5 -98.5s48.334 -50.167 80.001 -66.5s67.834 -24.833 108.501 -25.5c14 59.333 26 123.666 36 192.999c26 186.667 52.333 319.667 79 399l55 -14c-7.33301 -20 -14.333 -41.833 -21 -65.5
s-13.167 -50.167 -19.5 -79.5s-12.5 -62.333 -18.5 -99s-11.667 -78 -17 -124c-4.66699 -38.667 -10 -75 -16 -109s-12.667 -66.333 -20 -97c45.333 8 81.833 24.333 109.5 49s47.167 53 58.5 85s14.666 65.167 9.99902 99.5s-16.667 64.5 -36 90.5z" />
    <glyph glyph-name="E" unicode="E" horiz-adv-x="756" 
d="M555 371c-1.33301 -0.666992 -4.33105 -1.00391 -8.99805 -1.00391c-28.667 0 -53.667 5.66699 -75 17c-42 -10 -79 -27 -111 -51s-58.5 -52 -79.5 -84s-36.833 -66.5 -47.5 -103.5s-16 -73.5 -16 -109.5c0 -32 4.16699 -62.667 12.5 -92s21 -55.166 38 -77.499
s38.333 -40.166 64 -53.499s55.5 -20 89.5 -20c38.667 0 72.5 8.5 101.5 25.5s52.833 38.5 71.5 64.5s32.667 55 42 87s14 63 14 93c0 20 -2 38.833 -6 56.5s-10 33.334 -18 47.001s-17.833 24.334 -29.5 32.001s-25.167 11.5 -40.5 11.5
c-16 0 -30.167 -3.83301 -42.5 -11.5s-23 -17.834 -32 -30.501s-15.833 -27.167 -20.5 -43.5s-7 -33.166 -7 -50.499c0 -15.333 2 -30.666 6 -45.999s9.66699 -29.666 17 -42.999l-54 -27c-8.66699 15.333 -15 31.833 -19 49.5s-6 35.167 -6 52.5
c0 23.333 3.5 46.166 10.5 68.499s17.333 42.166 31 59.499s30.5 31.166 50.5 41.499s42.667 15.5 68 15.5c24.667 0 46.167 -4.83301 64.5 -14.5s33.666 -22.834 45.999 -39.501s21.5 -36 27.5 -58s9 -45.333 9 -70c0 -34 -6 -68.833 -18 -104.5s-30 -68 -54 -97
s-54.167 -52.667 -90.5 -71s-78.5 -27.5 -126.5 -27.5c-43.333 0 -81 7.5 -113 22.5s-58.833 35 -80.5 60s-37.834 54 -48.501 87s-16 67.5 -16 103.5c0 38 6 76.167 18 114.5s29.833 74.333 53.5 108s53.334 63.334 89.001 89.001s77.167 44.5 124.5 56.5
c-10.667 7.33301 -20 16.333 -28 27s-15 22.667 -21 36c-12.667 -1.33301 -25.667 -2.5 -39 -3.5s-27.333 -1.5 -42 -1.5c-54 0 -100.333 5.83301 -139 17.5s-70.334 27 -95.001 46s-42.667 40.333 -54 64s-17 47.5 -17 71.5c0 20 3.66699 39.333 11 58s18 35 32 49
s30.833 25.333 50.5 34s41.5 13 65.5 13c70 0 122.333 -30.667 157 -92l-22 -16l-22 -16c-11.333 22.667 -26.166 41.334 -44.499 56.001s-41.166 22 -68.499 22c-17.333 0 -32.833 -2.83301 -46.5 -8.5s-25.167 -13.5 -34.5 -23.5s-16.5 -21.5 -21.5 -34.5
s-7.5 -26.833 -7.5 -41.5c0 -19.333 4.83301 -39 14.5 -59s24.834 -38.167 45.501 -54.5s47.167 -29.666 79.5 -39.999s71.166 -15.5 116.499 -15.5c12.667 0 24.5 0.5 35.5 1.5s22.167 2.16699 33.5 3.5c-11.333 34 -17 70.333 -17 109c0 34 4.33301 67.333 13 100
s21.667 62 39 88s38.666 46.833 63.999 62.5s54.666 23.5 87.999 23.5c41.333 0 72.833 -12.5 94.5 -37.5s32.5 -57.167 32.5 -96.5c0 -25.333 -5 -51.5 -15 -78.5s-25.167 -52.833 -45.5 -77.5s-46.333 -47 -78 -67s-68.834 -35.333 -111.501 -46
c5.33301 -14 11.833 -26.333 19.5 -37s16.834 -19.334 27.501 -26.001c9.33301 1.33301 18.833 2.5 28.5 3.5s19.167 1.5 28.5 1.5c5.33301 0 9 -0.333008 11 -1zM573.002 854.996c-25.333 0 -47.5 -6.83398 -66.5 -20.501s-34.833 -31.667 -47.5 -54
s-22.167 -48.166 -28.5 -77.499s-9.5 -59.333 -9.5 -90c0 -35.333 4.66699 -69 14 -101c36 10 67 24.333 93 43s47.333 39.334 64 62.001s29 46.167 37 70.5s12 47.166 12 68.499c0 27.333 -6 50.333 -18 69s-28.667 28.667 -50 30z" />
    <glyph glyph-name="F" unicode="F" horiz-adv-x="1045" 
d="M629 143c-4.66699 8 -7.83301 16.3281 -9.5 24.9951s-2.5 17.334 -2.5 26.001c0 22 6.33301 42.167 19 60.5s29.167 34.166 49.5 47.499s43 24 68 32s50.167 12.667 75.5 14c6 58 13 109.333 21 154s16.667 84 26 118s18.833 63.167 28.5 87.5s19.167 44.833 28.5 61.5
c-16.667 -3.33301 -34.334 -5 -53.001 -5c-36.667 0 -74.167 3.66699 -112.5 11l-119.5 23.5c-41.333 8.33301 -84.833 16.166 -130.5 23.499s-94.5 11 -146.5 11s-97.5 -9.16699 -136.5 -27.5s-71.667 -42.166 -98 -71.499s-46 -62.5 -59 -99.5s-19.5 -73.833 -19.5 -110.5
c0 -32 5 -63 15 -93s24.833 -56.5 44.5 -79.5s44.334 -41.5 74.001 -55.5s64.5 -21 104.5 -21c38.667 0 72 6.16699 100 18.5s50.833 29 68.5 50s30.667 45 39 72s12.5 55.5 12.5 85.5c0 16.667 -1 34 -3 52l54 10c1.33301 -9.33301 2.5 -18.833 3.5 -28.5
s1.5 -19.167 1.5 -28.5c0 -34 -5.16699 -66.833 -15.5 -98.5s-26.5 -59.5 -48.5 -83.5s-50.5 -43.167 -85.5 -57.5s-76.833 -21.5 -125.5 -21.5c-49.333 0 -92.5 8 -129.5 24s-67.833 37.167 -92.5 63.5s-43 56.666 -55 90.999s-18 69.833 -18 106.5
c0 42 7.83301 83.833 23.5 125.5s39.167 79.167 70.5 112.5s70.166 60.333 116.499 81s100.166 31 161.499 31c54 0 105.167 -4.16699 153.5 -12.5s94 -17.666 137 -27.999l120 -28c37 -8.33301 71.167 -12.5 102.5 -12.5c15.333 0 28.5 0.5 39.5 1.5s20.5 2.16699 28.5 3.5
c15.333 20 29.333 33.667 42 41s22.667 11.666 30 12.999l23 -29c-5.33301 -10 -13.5 -19.333 -24.5 -28s-25.167 -16.334 -42.5 -23.001c-6.66699 -10.667 -13.667 -25 -21 -43s-14.833 -41.5 -22.5 -70.5s-15.334 -64.167 -23.001 -105.5
s-14.834 -90.666 -21.501 -147.999l-7 -60c19.333 2.66699 36 6.16699 50 10.5s26.333 9.83301 37 16.5l15 36l12 27c4 8.66699 8 16.334 12 23.001c6 -2.66699 12 -5.5 18 -8.5l17 -8.5c-1.33301 -13.333 -5.83301 -28.166 -13.5 -44.499s-20.5 -31.166 -38.5 -44.499
c-3.33301 -21.333 -7.5 -50 -12.5 -86s-7.5 -76.333 -7.5 -121h-46c0 36 3 69.833 9 101.5s13 60.5 21 86.5c-10 -5.33301 -21.333 -9.83301 -34 -13.5s-27 -6.5 -43 -8.5c-14 -112 -33.833 -203.833 -59.5 -275.5s-55.167 -128 -88.5 -169s-69.166 -69.167 -107.499 -84.5
s-76.833 -23 -115.5 -23c-37.333 0 -69.5 5.16699 -96.5 15.5s-49.167 23.833 -66.5 40.5s-30.166 35.667 -38.499 57s-12.5 43 -12.5 65c0 20.667 3.33301 40.667 10 60s16 36.5 28 51.5s26.5 27 43.5 36s35.833 13.833 56.5 14.5
c0.666992 -9.33301 1.16699 -18.666 1.5 -27.999s0.5 -18.666 0.5 -27.999c-26 -0.666992 -46.833 -11.667 -62.5 -33s-23.5 -47 -23.5 -77c0 -18 3.16699 -35.5 9.5 -52.5s16 -32.167 29 -45.5s29.833 -24 50.5 -32s45.334 -12 74.001 -12
c30.667 0 61.334 6.66699 92.001 20s59.834 38.833 87.501 76.5s52.5 90 74.5 157s40 154.5 54 262.5c-20.667 -2 -40.334 -5.66699 -59.001 -11s-35 -12.666 -49 -21.999s-25.167 -20.5 -33.5 -33.5s-12.5 -27.833 -12.5 -44.5c0 -12 2.66699 -25.333 8 -40z" />
    <glyph glyph-name="G" unicode="G" horiz-adv-x="888" 
d="M850 297c-6 -16.667 -12.3271 -32.4961 -18.9941 -47.4961s-14 -30.167 -22 -45.5c-1.33301 -4 -3.33301 -13.667 -6 -29l-10 -58l-14 -81l-18 -100c-6 -35.333 -13.667 -70 -23 -104s-21.833 -64.667 -37.5 -92s-35.667 -49.333 -60 -66s-54.833 -25 -91.5 -25
c-22.667 0 -42.5 3.66699 -59.5 11s-31 17 -42 29s-19.167 25.833 -24.5 41.5s-8 31.5 -8 47.5s2.66699 31.667 8 47s13.166 29.166 23.499 41.499s23.166 22.333 38.499 30s33 11.834 53 12.501c1.33301 -9.33301 2.5 -18.333 3.5 -27s2.16699 -17.667 3.5 -27
c-26.667 -2.66699 -46.667 -13.167 -60 -31.5s-20 -38.166 -20 -59.499c0 -10.667 1.83301 -21.167 5.5 -31.5s9 -19.5 16 -27.5s16 -14.333 27 -19s23.833 -7 38.5 -7c28 0 50.833 7.5 68.5 22.5s32 34.833 43 59.5s19.833 52.5 26.5 83.5s12.667 62.167 18 93.5l12.5 73.5
c4.33301 25 9.16602 50.167 14.499 75.5c-17.333 -26.667 -39.5 -48.834 -66.5 -66.501s-60.167 -26.5 -99.5 -26.5c-24.667 0 -46.834 4.66699 -66.501 14s-37 22.333 -52 39s-27.833 36.5 -38.5 59.5s-19 48.167 -25 75.5c-19.333 -2 -39 -3 -59 -3
c-57.333 0 -106.666 7.66699 -147.999 23s-75.333 35.333 -102 60s-46.334 52.667 -59.001 84s-19 63 -19 95c0 29.333 5.16699 57.833 15.5 85.5s25.166 52.334 44.499 74.001s43.166 39 71.499 52s60.5 19.5 96.5 19.5c31.333 0 60.333 -7.66699 87 -23l-22 -42
c-11.333 6.66699 -23 11.834 -35 15.501s-25.667 5.5 -41 5.5c-27.333 0 -51.833 -5.5 -73.5 -16.5s-40 -25.5 -55 -43.5s-26.667 -38.667 -35 -62s-12.5 -47.333 -12.5 -72c0 -27.333 5.33301 -54.5 16 -81.5s27.667 -51.167 51 -72.5s53 -38.5 89 -51.5
s79.667 -19.5 131 -19.5h27c8.66699 0 17.334 0.666992 26.001 2c-2.66699 16 -4.66699 32.667 -6 50s-2 35 -2 53c0 42.667 3.5 86.334 10.5 131.001s17.5 88.167 31.5 130.5s31.167 82.333 51.5 120s43.666 70.5 69.999 98.5s55.5 50.167 87.5 66.5s67 24.5 105 24.5
c26.667 0 49.834 -4.83301 69.501 -14.5s36 -22.834 49 -39.501s22.667 -36.334 29 -59.001s9.5 -47.334 9.5 -74.001c0 -30.667 -4.33301 -63.334 -13 -98.001s-21.5 -69.334 -38.5 -104.001s-38 -68.334 -63 -101.001s-54 -62.834 -87 -90.501s-70 -51.5 -111 -71.5
s-85.5 -34.667 -133.5 -44c9.33301 -49.333 25.5 -89.333 48.5 -120s54.167 -46 93.5 -46c27.333 0 50.666 5.16699 69.999 15.5s35.833 24 49.5 41s25 36.167 34 57.5s17 43 24 65l19.5 64c6 20.667 12.667 38.667 20 54zM829.006 703.004
c0 46.667 -8.83105 82.833 -26.498 108.5s-43.834 38.5 -78.501 38.5c-30 0 -58.167 -8 -84.5 -24s-50.333 -37.667 -72 -65s-41 -59.166 -58 -95.499s-31.5 -74.666 -43.5 -114.999s-21 -81.833 -27 -124.5s-9 -83.667 -9 -123c0 -14.667 0.5 -28.834 1.5 -42.501
s2.16699 -27.167 3.5 -40.5c44 9.33301 84.333 23.833 121 43.5s69.667 42.667 99 69s54.833 55.166 76.5 86.499s39.667 63.333 54 96s25.166 65.167 32.499 97.5s11 62.5 11 90.5z" />
    <glyph glyph-name="H" unicode="H" horiz-adv-x="944" 
d="M1145 727c1.33301 7.33301 1.99512 14.167 1.99512 20.5v17.5c0 28 -6.83301 49.5 -20.5 64.5s-28.167 22.5 -43.5 22.5c-26 0 -50 -13.5 -72 -40.5s-41.833 -64.833 -59.5 -113.5s-34 -106.5 -49 -173.5s-28.667 -140.5 -41 -220.5s-23.833 -165 -34.5 -255
s-20.667 -182 -30 -276h-67c11.333 89.333 21.666 167.5 30.999 234.5l24 168.5c7.33301 52.667 14 98 20 136c-30 -3.33301 -58 -4.83301 -84 -4.5s-56 0.5 -90 0.5c-18 -87.333 -38.5 -165 -61.5 -233s-51.333 -125.167 -85 -171.5s-73.5 -81.166 -119.5 -104.499
s-101 -33.666 -165 -30.999c-38.667 2 -74.334 10 -107.001 24s-60.834 33.167 -84.501 57.5s-42.167 52.833 -55.5 85.5s-20 68.667 -20 108c0 38 6.5 75.833 19.5 113.5s31.667 71.5 56 101.5s53.666 54.5 87.999 73.5s72.833 28.5 115.5 28.5c26 0 50 -4.33301 72 -13
s40.833 -20.834 56.5 -36.501s28 -34.667 37 -57s13.5 -47.166 13.5 -74.499c0 -10 -1.33301 -21.5 -4 -34.5s-6.16699 -26.167 -10.5 -39.5s-9.66602 -26.166 -15.999 -38.499s-13.166 -22.833 -20.499 -31.5l-46 33c8 10 15.167 20.833 21.5 32.5s11.833 23.5 16.5 35.5
s8.33398 23.667 11.001 35s4 21.666 4 30.999c0 16.667 -2.66699 32.834 -8 48.501s-13.166 29.5 -23.499 41.5s-23.5 21.5 -39.5 28.5s-34.667 10.5 -56 10.5c-38 0 -71.667 -7.83301 -101 -23.5s-53.833 -36.667 -73.5 -63s-34.5 -56.5 -44.5 -90.5s-15 -69.333 -15 -106
c0 -36 5.16699 -69.167 15.5 -99.5s25.333 -56.666 45 -78.999s43.834 -40 72.501 -53s61.334 -19.833 98.001 -20.5c50 -1.33301 94 10 132 34s71 58.5 99 103.5s51.833 99 71.5 162s36.834 133.167 51.501 210.5c-20 -1.33301 -36.667 -4.33301 -50 -9
s-27 -10.667 -41 -18l-19 41c16.667 8 35.334 14.167 56.001 18.5s41.334 6.83301 62.001 7.5l18.5 101.5c5.66699 32.333 11.834 64.666 18.501 96.999s13.834 65.333 21.501 99s16.834 69.5 27.501 107.5c-27.333 -14.667 -57.833 -26.667 -91.5 -36
s-65.167 -19.666 -94.5 -30.999s-54 -25.5 -74 -42.5s-30 -40.167 -30 -69.5c0 -30.667 10.333 -52.5 31 -65.5s48.334 -19.5 83.001 -19.5l-7 -51c-50 2.66699 -87.667 14.667 -113 36s-38 50.666 -38 87.999c0 26 6.66699 48.167 20 66.5s30.5 34 51.5 47
s44.5 24.167 70.5 33.5s51.833 18.166 77.5 26.499s49.667 16.833 72 25.5s40.5 19 54.5 31l28 92l50 -11c-0.666992 -13.333 -3.66699 -27.833 -9 -43.5s-12.666 -30.834 -21.999 -45.501c-10.667 -38 -19.834 -75.167 -27.501 -111.5s-14.834 -72.333 -21.501 -108
s-12.834 -71.334 -18.501 -107.001s-11.834 -72.167 -18.501 -109.5c22 -0.666992 40.667 -1.83398 56 -3.50098l42 -4.5c12.667 -1.33301 24.667 -2 36 -2s23.666 1.66699 36.999 5c18 102 37.333 187.833 58 257.5s42.667 126 66 169s48.333 73.833 75 92.5
s54.667 28 84 28c34 0 61 -11.167 81 -33.5s30 -55.166 30 -98.499v-12.5c0 -4.33301 -0.333008 -8.83301 -1 -13.5z" />
    <glyph glyph-name="I" unicode="I" horiz-adv-x="541" 
d="M582 876c-1.33301 -16 -4.33105 -30.999 -8.99805 -44.999s-10.667 -26.667 -18 -38l-12 -50c-17.333 -76 -32 -152.167 -44 -228.5s-23.333 -154.166 -34 -233.499l-32 -245c-10.667 -84 -23 -171.667 -37 -263h-68l40 267.5l38 240c12.667 77 26 152.5 40 226.5
s30 149.667 48 227c-25.333 -22 -53.833 -43.167 -85.5 -63.5l-97 -61.5c-33 -20.667 -65.333 -42 -97 -64s-59.834 -45.5 -84.501 -70.5s-44.5 -51.833 -59.5 -80.5s-22.5 -60 -22.5 -94c0 -24.667 3.66699 -46.5 11 -65.5s17.333 -35.167 30 -48.5s27.5 -23.5 44.5 -30.5
s35.167 -10.5 54.5 -10.5c17.333 0 32.666 3.16699 45.999 9.5s24.666 14.5 33.999 24.5s16.333 21.5 21 34.5s7 26.167 7 39.5c0 18.667 -4.83301 36.334 -14.5 53.001s-24.834 29 -45.501 37c4.66699 7.33301 8.83398 14.5 12.501 21.5s7.83398 14.167 12.501 21.5
c31.333 -12.667 54.333 -31.167 69 -55.5s22 -50.5 22 -78.5c0 -19.333 -3.5 -38.5 -10.5 -57.5s-17.5 -35.833 -31.5 -50.5s-31.167 -26.5 -51.5 -35.5s-43.833 -13.5 -70.5 -13.5c-28 0 -54 4.66699 -78 14s-44.667 22.666 -62 39.999s-31 38 -41 62s-15 50.667 -15 80
c0 41.333 9.16699 79 27.5 113s42.333 65.333 72 94s63.167 55.167 100.5 79.5l112.5 70l109 64.5c35 20.667 64.833 41.667 89.5 63c3.33301 17.333 7.33301 35.166 12 53.499s9.66699 36.166 15 53.499z" />
    <glyph glyph-name="J" unicode="J" horiz-adv-x="527" 
d="M163 -324c31.333 0 58.3311 12.001 80.998 36.001s42.167 54.833 58.5 92.5s29.666 79.667 39.999 126s19 91.833 26 136.5s12.5 85.834 16.5 123.501s7.66699 67.167 11 88.5c12 83.333 25.5 160.333 40.5 231s30.167 133 45.5 187c-28 -30.667 -58.167 -60 -90.5 -88
l-95.5 -82.5l-90.5 -80.5c-29 -26.667 -54.5 -54 -76.5 -82s-39.5 -56.833 -52.5 -86.5s-19.5 -61.167 -19.5 -94.5c0 -24 3.5 -45.5 10.5 -64.5s16.5 -35.333 28.5 -49s26.167 -24 42.5 -31s33.833 -10.5 52.5 -10.5c16.667 0 31.667 3.16699 45 9.5
s24.5 14.666 33.5 24.999s15.833 21.833 20.5 34.5s7 25.667 7 39c0 18 -4.5 34.5 -13.5 49.5s-23.167 25.833 -42.5 32.5l19 40c26 -7.33301 45.667 -22.166 59 -44.499s20 -46.5 20 -72.5c0 -18 -3 -35.667 -9 -53s-15.167 -32.833 -27.5 -46.5
s-27.666 -24.834 -45.999 -33.501s-39.833 -13 -64.5 -13c-26.667 0 -52 4.33301 -76 13s-45.167 21.334 -63.5 38.001s-32.833 37.5 -43.5 62.5s-16 53.833 -16 86.5c0 46 11 88.667 33 128s49.833 76.166 83.5 110.499s70.167 66.166 109.5 95.499l110 83
c32.667 24.667 63 49.167 91 73.5s52.333 47.5 73 69.5c12 34.667 23.833 62.834 35.5 84.501s20.834 37.167 27.501 46.5l37 -21c-6 -19.333 -14 -39.333 -24 -60s-20.667 -41 -32 -61c-6 -28 -12.5 -60.167 -19.5 -96.5l-21.5 -117
c-7.33301 -41.667 -14.5 -85.5 -21.5 -131.5l-20.5 -141l-20 -129c-7.33301 -46 -16 -91.667 -26 -137s-22.167 -88.833 -36.5 -130.5s-31.166 -78.5 -50.499 -110.5s-42 -57.5 -68 -76.5s-56 -28.5 -90 -28.5c-34.667 0 -62 10.167 -82 30.5s-30 47.166 -30 80.499
c0 18 3.16699 35.333 9.5 52s15.5 31.167 27.5 43.5s26.167 22.333 42.5 30s34.5 11.5 54.5 11.5l2 -51c-28 -2 -50.667 -12 -68 -30s-26 -39.333 -26 -64c0 -24 6.5 -42.167 19.5 -54.5s29.833 -18.5 50.5 -18.5z" />
    <glyph glyph-name="K" unicode="K" horiz-adv-x="914" 
d="M252 -204c52.667 0 98.0029 12.167 136.003 36.5s70.5 57.5 97.5 99.5s49.5 90.833 67.5 146.5s33.667 114.834 47 177.501h-13.5c-4.33301 0 -8.83301 0.333008 -13.5 1l9 50c8.66699 -1.33301 17.667 -3.33301 27 -6l39.5 221.5c13 76.333 29.167 152.166 48.5 227.499
c-18.667 -10.667 -38.667 -19.334 -60 -26.001l-64 -19.5c-21.333 -6.33301 -41.666 -12.833 -60.999 -19.5s-36.5 -14.834 -51.5 -24.501s-27 -21.5 -36 -35.5s-13.5 -31.667 -13.5 -53c0 -28 9.83301 -48.667 29.5 -62s44.834 -20 75.501 -20l-7 -54
c-48 1.33301 -85 13.833 -111 37.5s-39 53.834 -39 90.501c0 27.333 6 50.333 18 69s27.833 34.667 47.5 48s42 24.5 67 33.5s50.5 17.333 76.5 25s51.167 15.5 75.5 23.5s45.833 17.333 64.5 28c8.66699 29.333 18.667 59.666 30 90.999l58 -12
c-3.33301 -19.333 -9 -36 -17 -50s-18 -26.667 -30 -38c-11.333 -41.333 -20.833 -82.5 -28.5 -123.5s-14.834 -81.833 -21.501 -122.5s-13 -81.167 -19 -121.5s-12.667 -80.5 -20 -120.5c28 10 52.667 26.5 74 49.5s40.666 49.667 57.999 80s33.166 63.333 47.499 99
l42.5 107l42.5 103.5c14.333 33.333 30.166 62.666 47.499 87.999s36.833 45.666 58.5 60.999s46.5 23 74.5 23c25.333 0 46.333 -8.16699 63 -24.5s23.667 -37.833 21 -64.5h-46v5c0 14.667 -3.83301 27 -11.5 37s-18.5 15 -32.5 15c-20 0 -37.667 -7.66699 -53 -23
s-29.5 -35.5 -42.5 -60.5s-25.667 -54 -38 -87l-38 -102.5c-13 -35.333 -27.5 -70.666 -43.5 -105.999s-34.167 -68 -54.5 -98s-43.5 -56.333 -69.5 -79s-56.333 -39 -91 -49c26.667 -21.333 49.5 -49.833 68.5 -85.5s36.333 -74.167 52 -115.5s30.667 -83.166 45 -125.499
s30 -80.666 47 -114.999s36.5 -62.333 58.5 -84s48.667 -32.5 80 -32.5c17.333 0 32.333 2.66699 45 8s23.334 12.5 32.001 21.5s15.667 19.5 21 31.5s9.33301 24.667 12 38c8.66699 -2 17 -4.33301 25 -7s16.333 -5 25 -7c-10 -34 -26.667 -62.167 -50 -84.5
s-57.333 -33.5 -102 -33.5c-33.333 0 -62.833 6.33301 -88.5 19s-48.167 29.834 -67.5 51.501s-36.333 46.834 -51 75.501s-27.834 58.834 -39.501 90.501s-22.334 64 -32.001 97s-19.5 64.5 -29.5 94.5s-20.5 57.667 -31.5 83s-23.5 46.333 -37.5 63
c-13.333 -64.667 -29.166 -126.334 -47.499 -185.001s-42.666 -110.167 -72.999 -154.5s-68.333 -79.666 -114 -105.999s-102.5 -39.5 -170.5 -39.5c-48.667 0 -90.667 8 -126 24s-64.333 37 -87 63s-39.334 55.833 -50.001 89.5s-16 68.167 -16 103.5
c0 38.667 6.16699 77 18.5 115s30.333 72 54 102s53 54.333 88 73s75.5 28 121.5 28c28.667 0 54.167 -5.16699 76.5 -15.5s41.166 -24.333 56.499 -42s27 -38 35 -61s12 -47.167 12 -72.5c0 -23.333 -3.66699 -47.166 -11 -71.499s-18.666 -47.5 -33.999 -69.5l-47 28
c14 21.333 24.333 42.666 31 63.999s10 41.666 10 60.999c0 20 -3.16699 38.833 -9.5 56.5s-15.333 33 -27 46s-25.667 23.333 -42 31s-34.5 11.5 -54.5 11.5c-35.333 0 -66.833 -8.5 -94.5 -25.5s-51.334 -39 -71.001 -66s-34.667 -57.833 -45 -92.5
s-15.5 -69.334 -15.5 -104.001c0 -31.333 4.5 -61.833 13.5 -91.5s23 -56 42 -79s43.167 -41.333 72.5 -55s64.333 -20.5 105 -20.5z" />
    <glyph glyph-name="L" unicode="L" horiz-adv-x="809" 
d="M335 161c26 0 50.9971 1.83594 74.9971 5.50293s46.667 9.16699 68 16.5c5.33301 25.333 10 52.333 14 81s7.66699 59.334 11 92.001c8 74.667 17 139.667 27 195s20.833 102.666 32.5 141.999s24.334 71.666 38.001 96.999s28.167 45.166 43.5 59.499
s31.5 24.166 48.5 29.499s34.833 8 53.5 8c21.333 0 40 -4.83301 56 -14.5s29.5 -23.167 40.5 -40.5s19.167 -37.833 24.5 -61.5s8 -49.5 8 -77.5c0 -44.667 -7 -92.834 -21 -144.501s-35.333 -101.667 -64 -150s-64.334 -92.833 -107.001 -133.5s-93 -72.667 -151 -96
c-12 -58.667 -26 -109 -42 -151s-33.667 -78 -53 -108c28.667 -10 56 -21 82 -33s51.5 -23.167 76.5 -33.5s50.5 -18.833 76.5 -25.5s53.333 -10 82 -10c20.667 0 38 3 52 9s25.5 13.667 34.5 23s15.667 19.166 20 29.499s7.5 20.166 9.5 29.499l25.5 -6
c8.33301 -2 16.833 -4.33301 25.5 -7c-4 -16 -10.167 -31.333 -18.5 -46s-19.333 -27.5 -33 -38.5s-30 -19.667 -49 -26s-40.833 -9.5 -65.5 -9.5c-31.333 0 -61.333 3.66699 -90 11s-56.834 16.5 -84.501 27.5s-55.167 23 -82.5 36s-55 25.167 -83 36.5
c-33.333 -42.667 -69 -71.834 -107 -87.501s-77 -23.5 -117 -23.5c-31.333 0 -57.166 7.16699 -77.499 21.5s-30.5 35.5 -30.5 63.5c0 12 2.83301 23.833 8.5 35.5s14.334 22.334 26.001 32.001s26.167 17.334 43.5 23.001s38 8.5 62 8.5c32 0 61.833 -2.16699 89.5 -6.5
s53.834 -10.166 78.501 -17.499c16 26 30.667 57.167 44 93.5s25.333 79.5 36 129.5c-21.333 -5.33301 -43.166 -9.66602 -65.499 -12.999s-45.833 -5 -70.5 -5c-62.667 0 -116.334 8.16699 -161.001 24.5s-81.5 37.666 -110.5 63.999s-50.333 56.166 -64 89.499
s-20.5 67.333 -20.5 102c0 32.667 5.66699 64.334 17 95.001s27.833 58 49.5 82s47.834 43.333 78.501 58s65.667 22 105 22c20.667 0 39.167 -2 55.5 -6s32.5 -10.667 48.5 -20c-4 -8.66699 -8.16699 -17 -12.5 -25l-12.5 -24c-11.333 7.33301 -23.5 12.5 -36.5 15.5
s-27.167 4.5 -42.5 4.5c-32 0 -60.5 -5.83301 -85.5 -17.5s-46.167 -27.167 -63.5 -46.5s-30.5 -41.5 -39.5 -66.5s-13.5 -50.833 -13.5 -77.5c0 -29.333 5.83301 -58.5 17.5 -87.5s30 -55.167 55 -78.5s57 -42.166 96 -56.499s85.5 -21.5 139.5 -21.5zM744.997 857.003
c-17.333 0 -34.5029 -5.99805 -51.5029 -17.998s-33.5 -35.833 -49.5 -71.5s-31 -86.334 -45 -152.001s-26.667 -152.167 -38 -259.5c-3.33301 -26.667 -6.66602 -51.834 -9.99902 -75.501s-7 -46.5 -11 -68.5c48.667 24.667 90.834 57 126.501 97s65.167 82.833 88.5 128.5
s40.5 92 51.5 139s16.5 90.167 16.5 129.5c0 44 -6.66699 80.167 -20 108.5s-32.666 42.5 -57.999 42.5zM198.994 -204.995c32 0 62.6641 7.33301 91.9971 22s57 40.667 83 78c-23.333 8 -47.166 14.333 -71.499 19s-49.5 7 -75.5 7c-16 0 -30.167 -2.16699 -42.5 -6.5
s-22.666 -10 -30.999 -17s-14.666 -14.667 -18.999 -23s-6.5 -16.833 -6.5 -25.5c0 -14 6 -26.5 18 -37.5s29.667 -16.5 53 -16.5z" />
    <glyph glyph-name="M" unicode="M" horiz-adv-x="1143" 
d="M279 -199c52 0 100.998 16.834 146.998 50.501s88 78 126 133s71.5 117.667 100.5 188s52.5 142.5 70.5 216.5c-6.66699 50.667 -12.167 100.834 -16.5 150.501s-6.5 99.5 -6.5 149.5c0 14.667 0.666992 28.667 2 42s3.83301 25.166 7.5 35.499s8.33398 18.5 14.001 24.5
s12.5 9 20.5 9c18.667 0 30.834 -10 36.501 -30s8.5 -48 8.5 -84c0 -44.667 -1.83301 -88.5 -5.5 -131.5s-9.16699 -85.5 -16.5 -127.5c9.33301 -66 18.166 -134.833 26.499 -206.5s14.5 -141.167 18.5 -208.5c20 54 42.833 110.5 68.5 169.5l77.5 177.5
c8 132.667 27 272.667 57 420c2 10.667 5 22 9 34s9 23.167 15 33.5s13.167 18.833 21.5 25.5s18.5 10 30.5 10c16.667 0 28.667 -6.33301 36 -19s11 -30.334 11 -53.001c0 -22 -3.5 -47.5 -10.5 -76.5s-16.333 -60.667 -28 -95s-25.334 -70.833 -41.001 -109.5l-50.5 -120
c-7.33301 -105.333 -8.83301 -205.333 -4.5 -300s14.333 -178 30 -250s37.5 -129.167 65.5 -171.5s62 -63.5 102 -63.5c34.667 0 62 8.33301 82 25s38 43.334 54 80.001l53 -18c-18.667 -46.667 -43 -81 -73 -103s-66.667 -33 -110 -33s-81.5 17.667 -114.5 53
s-60.333 84.5 -82 147.5s-37.334 138.167 -47.001 225.5s-12.5 183 -8.5 287l-75 -172.5c-24.667 -56.333 -46.334 -110.166 -65.001 -161.499c1.33301 -32 1.5 -62.5 0.5 -91.5s-3.16699 -55.833 -6.5 -80.5l-52 2c0 30.667 5.66699 67.667 17 111
c-1.33301 69.333 -5.83301 136.666 -13.5 201.999s-15.834 129.666 -24.501 192.999c-21.333 -75.333 -47.833 -144.666 -79.5 -207.999s-67.5 -117.833 -107.5 -163.5s-83.667 -81.334 -131 -107.001s-96.666 -38.5 -147.999 -38.5c-38.667 0 -74.334 7 -107.001 21
s-60.834 33.333 -84.501 58s-42.167 53.667 -55.5 87s-20 69.666 -20 108.999c0 38 6.5 75.833 19.5 113.5s31.667 71.5 56 101.5s53.666 54.5 87.999 73.5s72.833 28.5 115.5 28.5c26 0 50 -4.33301 72 -13s40.833 -20.834 56.5 -36.501s28 -34.667 37 -57
s13.5 -47.166 13.5 -74.499c0 -10 -1.33301 -21.5 -4 -34.5s-6.16699 -26.167 -10.5 -39.5s-9.66602 -26.166 -15.999 -38.499s-13.166 -22.833 -20.499 -31.5l-46 33c8 10 15.167 20.833 21.5 32.5s11.833 23.5 16.5 35.5s8.33398 23.667 11.001 35s4 21.666 4 30.999
c0 16.667 -2.66699 32.834 -8 48.501s-13.166 29.5 -23.499 41.5s-23.5 21.5 -39.5 28.5s-34.667 10.5 -56 10.5c-38 0 -71.667 -7.83301 -101 -23.5s-53.833 -36.667 -73.5 -63s-34.5 -56.5 -44.5 -90.5s-15 -69.333 -15 -106c0 -36 4.83301 -69.333 14.5 -100
s23.834 -57.167 42.501 -79.5s41.834 -40 69.501 -53s59.834 -19.5 96.501 -19.5zM1113 811.001c0 14.667 -1.49902 25.665 -4.49902 32.998s-8.5 11 -16.5 11c-8.66699 0 -15.667 -6.16699 -21 -18.5s-10.333 -30.5 -15 -54.5c-9.33301 -48.667 -17.333 -97.5 -24 -146.5
s-12.334 -97.833 -17.001 -146.5c28 66.667 51.333 127.834 70 183.501s28 101.834 28 138.501zM765.999 708.999c0 26 -1.66797 44.001 -5.00098 54.001s-7.66602 15 -12.999 15c-6 0 -10 -6 -12 -18s-2.66699 -28.833 -2 -50.5s2.66699 -47.334 6 -77.001
s7.33301 -62.167 12 -97.5c4.66699 30.667 8.16699 60.5 10.5 89.5s3.5 57.167 3.5 84.5z" />
    <glyph glyph-name="N" unicode="N" horiz-adv-x="967" 
d="M1230 847c-50.667 0 -97.335 -21.168 -140.002 -63.501s-80.834 -100.666 -114.501 -174.999s-62.5 -162 -86.5 -263s-42.333 -209.833 -55 -326.5c11.333 -45.333 18 -88 20 -128s0.666992 -76.333 -4 -109l-51 2c0 27.333 0.333008 54.333 1 81
s1.66699 53.334 3 80.001c-13.333 59.333 -33 119.833 -59 181.5l-80 184.5c-8.66699 -44 -19.334 -87.833 -32.001 -131.5s-27.667 -85.5 -45 -125.5s-37 -77.167 -59 -111.5s-46.167 -64 -72.5 -89s-55 -44.667 -86 -59s-64.167 -21.5 -99.5 -21.5
c-38.667 0 -74.334 7 -107.001 21s-60.834 33.333 -84.501 58s-42.167 53.667 -55.5 87s-20 69.666 -20 108.999c0 38 6.5 75.833 19.5 113.5s31.667 71.5 56 101.5s53.666 54.5 87.999 73.5s72.833 28.5 115.5 28.5c26 0 50 -4.33301 72 -13s40.833 -20.834 56.5 -36.501
s28 -34.667 37 -57s13.5 -47.166 13.5 -74.499c0 -10 -1.33301 -21.5 -4 -34.5s-6.16699 -26.167 -10.5 -39.5s-9.66602 -26.166 -15.999 -38.499s-13.166 -22.833 -20.499 -31.5l-46 33c8 10 15.167 20.833 21.5 32.5s11.833 23.5 16.5 35.5s8.33398 23.667 11.001 35
s4 21.666 4 30.999c0 16.667 -2.66699 32.834 -8 48.501s-13.166 29.5 -23.499 41.5s-23.5 21.5 -39.5 28.5s-34.667 10.5 -56 10.5c-38 0 -71.667 -7.83301 -101 -23.5s-53.833 -36.667 -73.5 -63s-34.5 -56.5 -44.5 -90.5s-15 -69.333 -15 -106
c0 -36 4.83301 -69.333 14.5 -100s23.834 -57.167 42.501 -79.5s41.834 -40 69.501 -53s59.834 -19.5 96.501 -19.5c33.333 0 64.333 8 93 24s55 37.833 79 65.5s45.833 60 65.5 97s37.167 76.833 52.5 119.5s28.5 87 39.5 133s20.167 91.333 27.5 136
c-24 56.667 -44.5 112 -61.5 166s-25.5 105.333 -25.5 154c0 29.333 4.16699 54 12.5 74s22.5 30 42.5 30c18 0 33.167 -10.167 45.5 -30.5s21.833 -47.833 28.5 -82.5s10.167 -75.167 10.5 -121.5s-2.5 -95.166 -8.5 -146.499l66 -156c22.667 -54 43.667 -107.333 63 -160
l7 -20c8 72 19 142.167 33 210.5s30.667 132.666 50 192.999s41.333 115.5 66 165.5s51.5 93.167 80.5 129.5s60 64.5 93 84.5s68.167 30 105.5 30c32 0 59.167 -5.33301 81.5 -16s41.5 -26.334 57.5 -47.001l-40 -40c-11.333 18 -27 31.5 -47 40.5s-42 13.5 -66 13.5z
M583.999 716.999c0.666992 -25.333 6.99902 -57.167 18.999 -95.5s27.667 -81.166 47 -128.499c3.33301 40 4.83301 77.167 4.5 111.5s-2.16602 64.166 -5.49902 89.499s-8.5 45.333 -15.5 60s-15.5 22 -25.5 22s-16.5 -5.5 -19.5 -16.5s-4.5 -25.167 -4.5 -42.5z" />
    <glyph glyph-name="O" unicode="O" horiz-adv-x="1124" 
d="M930 849c38.667 -23.333 69.4932 -56.5039 92.4932 -99.5039s39 -92 48 -147s11.167 -113.833 6.5 -176.5s-15 -124.834 -31 -186.501s-37.333 -121 -64 -178s-57.667 -107.167 -93 -150.5s-74.666 -78 -117.999 -104s-89.666 -39 -138.999 -39
c-42.667 0 -79.5 9.5 -110.5 28.5s-57 45 -78 78s-37.167 71.667 -48.5 116s-18 91.5 -20 141.5h-6c-59.333 0 -110.833 7.66699 -154.5 23s-80 35.833 -109 61.5s-51 54.667 -66 87s-23.667 65.333 -26 99s1.66699 66.667 12 99s26.5 61.333 48.5 87s49.5 46.167 82.5 61.5
s70.833 23 113.5 23c19.333 0 35.333 -1.66699 48 -5s26.667 -9.66602 42 -18.999l-31 -53c-11.333 7.33301 -23.666 12.833 -36.999 16.5s-27.666 5.5 -42.999 5.5c-45.333 0 -83.5 -11.333 -114.5 -34s-53.667 -51.167 -68 -85.5s-19.666 -71.333 -15.999 -111
s17.5 -76.667 41.5 -111s59 -62.833 105 -85.5s104.333 -34 175 -34h3c-0.666992 53.333 3.33301 108.5 12 165.5s21.334 112.5 38.001 166.5s37.167 105 61.5 153s52 90 83 126s65 64.5 102 85.5s76.5 31.5 118.5 31.5c36 0 65.167 -10 87.5 -30s38.166 -46.5 47.499 -79.5
s12.166 -70.833 8.49902 -113.5s-13.5 -86.667 -29.5 -132s-38 -90.166 -66 -134.499s-61.833 -84.666 -101.5 -120.999s-85.167 -67 -136.5 -92s-108.333 -40.833 -171 -47.5c0 -47.333 3.83301 -91.666 11.5 -132.999s19.834 -77.5 36.501 -108.5
s37.834 -55.5 63.501 -73.5s56.5 -27 92.5 -27c44.667 0 86.167 13.167 124.5 39.5s72.833 61.166 103.5 104.499s57.334 93.333 80.001 150s41 115.334 55 176.001s23.167 121.334 27.5 182.001s3.5 116.667 -2.5 168s-17.5 96 -34.5 134s-39.833 64.667 -68.5 80z
M789.993 859.996c-33.333 0 -65.167 -10.166 -95.5 -30.499s-58.666 -47.833 -84.999 -82.5s-50.333 -75 -72 -121s-40.334 -95 -56.001 -147s-28 -105.333 -37 -160s-14.167 -107.667 -15.5 -159c58.667 6 111.667 20.667 159 44s89.333 52 126 86
s67.834 71.667 93.501 113s46 83.166 61 125.499s24.667 83.333 29 123s3.16602 75 -3.50098 106s-18.667 55.833 -36 74.5s-40 28 -68 28z" />
    <glyph glyph-name="P" unicode="P" horiz-adv-x="824" 
d="M360 261c-13.333 -7.33301 -28.0029 -13.0107 -44.0029 -17.0107s-33.667 -6 -53 -6c-37.333 0 -71.5 6.33301 -102.5 19s-57.5 30.834 -79.5 54.501s-39.167 52.334 -51.5 86.001s-18.5 71.5 -18.5 113.5c0 45.333 8.5 90.5 25.5 135.5s43 85.5 78 121.5
s78.833 65.167 131.5 87.5s114.667 33.5 186 33.5c66 0 122.833 -9.83301 170.5 -29.5s87 -45.5 118 -77.5s54 -68.667 69 -110s22.5 -83.666 22.5 -126.999s-7.16699 -86.166 -21.5 -128.499s-35 -80.5 -62 -114.5s-60 -62 -99 -84s-83.5 -35 -133.5 -39
c-11.333 -69.333 -24.666 -129.666 -39.999 -180.999s-33.833 -94.166 -55.5 -128.499s-47 -60 -76 -77s-62.5 -25.5 -100.5 -25.5c-26 0 -49.833 3.83301 -71.5 11.5s-40.334 18.667 -56.001 33s-28 32 -37 53s-13.5 44.833 -13.5 71.5c0 18.667 3.5 37.5 10.5 56.5
s16.667 36 29 51s26.833 27.333 43.5 37s35 14.834 55 15.501v-51c-13.333 -1.33301 -25.666 -5.33301 -36.999 -12s-21.166 -15.334 -29.499 -26.001s-14.833 -22.834 -19.5 -36.501s-7 -27.834 -7 -42.501c0 -18.667 3.16699 -36 9.5 -52s15.166 -29.833 26.499 -41.5
s25.333 -20.834 42 -27.501s35 -10 55 -10c36 0 66.833 12.167 92.5 36.5s47.667 60.333 66 108s33.833 106.834 46.5 177.501s24 152.667 34 246c9.33301 84.667 21.333 159.334 36 224.001s33 119 55 163l29 -10l29 -10c-18 -34 -34.333 -77.667 -49 -131
s-27 -119.666 -37 -198.999l-12 -98c-4 -32 -8.33301 -63.333 -13 -94c40 5.33301 75.833 18.5 107.5 39.5s58.334 47 80.001 78s38.334 65.333 50.001 103s17.5 75.834 17.5 114.501c0 39.333 -6.33301 77.833 -19 115.5s-32.5 71.167 -59.5 100.5s-61.167 53 -102.5 71
s-91 27 -149 27c-61.333 0 -114.833 -10.167 -160.5 -30.5s-83.5 -46.666 -113.5 -78.999s-52.5 -68.666 -67.5 -108.999s-22.5 -80.833 -22.5 -121.5c0 -37.333 4.83301 -70.166 14.5 -98.499s23 -52.166 40 -71.499s37.333 -34 61 -44s49.834 -15 78.501 -15
c17.333 0 32.166 1.5 44.499 4.5s24.833 8.16699 37.5 15.5z" />
    <glyph glyph-name="Q" unicode="Q" horiz-adv-x="720" 
d="M158 -176c24.667 0 42.4961 -0.834961 53.4961 -2.50195s20.167 -3.16699 27.5 -4.5c40 22 78 49.667 114 83s69.167 70.666 99.5 111.999s57.5 85.333 81.5 132s44.333 94.167 61 142.5s29.5 96.333 38.5 144s13.5 93.167 13.5 136.5c0 40.667 -4.33301 78.667 -13 114
s-22 65.833 -40 91.5s-41 45.834 -69 60.501s-61.333 22 -100 22c-39.333 0 -75.333 -7.16699 -108 -21.5s-62.334 -33.833 -89.001 -58.5s-50 -53.334 -70 -86.001s-36.833 -67.5 -50.5 -104.5s-23.834 -75 -30.501 -114s-10 -76.833 -10 -113.5
c0 -37.333 3.5 -72.5 10.5 -105.5s17.5 -62 31.5 -87s31.667 -44.667 53 -59s46.333 -21.5 75 -21.5s54.334 7 77.001 21s41.834 32.5 57.501 55.5s27.5 48.833 35.5 77.5s12 57.667 12 87c0 38 -7.16699 74 -21.5 108s-36.5 60 -66.5 78l45 49
c33.333 -22 57.833 -51.833 73.5 -89.5s23.5 -77.834 23.5 -120.501c0 -36 -5.33301 -71.667 -16 -107s-26 -67 -46 -95s-44.667 -50.667 -74 -68s-62.333 -26 -99 -26c-39.333 0 -73.5 8.5 -102.5 25.5s-53.167 40 -72.5 69s-33.833 62.833 -43.5 101.5
s-14.5 79.334 -14.5 122.001c0 38.667 4 78.334 12 119.001s19.833 80 35.5 118s35.334 73.833 59.001 107.5s51 63 82 88s65.833 44.667 104.5 59s81 21.5 127 21.5c50 0 93 -8.5 129 -25.5s65.667 -40.167 89 -69.5s40.5 -64 51.5 -104s16.5 -83.333 16.5 -130
c0 -65.333 -10 -134.166 -30 -206.499s-48.5 -142.666 -85.5 -210.999s-81.5 -131.5 -133.5 -189.5s-110 -105 -174 -141c44.667 -10 89.334 -22.167 134.001 -36.5l132.5 -41c43.667 -13 86.834 -24 129.501 -33s84 -13.5 124 -13.5c27.333 0 50.333 3.5 69 10.5
s33.834 16.5 45.501 28.5s20.167 25.667 25.5 41s8.66602 31.333 9.99902 48l70 -7c0 -24 -4 -46.333 -12 -67s-20.5 -38.5 -37.5 -53.5s-38.667 -26.833 -65 -35.5s-58.166 -13 -95.499 -13c-39.333 0 -83.5 6.33301 -132.5 19s-99 27.5 -150 44.5l-151 50.5
c-49.667 16.667 -95.167 28.667 -136.5 36c-0.666992 0 -1 -0.166992 -1 -0.5s-0.333008 -0.5 -1 -0.5c-14 -8 -29.333 -14.667 -46 -20s-33.667 -6.33301 -51 -3z" />
    <glyph glyph-name="R" unicode="R" horiz-adv-x="800" 
d="M62 519c0 -37.333 4.83398 -70.165 14.501 -98.498s23 -52.166 40 -71.499s37.333 -34 61 -44s49.834 -15 78.501 -15c17.333 0 32.166 1.5 44.499 4.5s24.833 8.16699 37.5 15.5l22 -49c-13.333 -7.33301 -28 -13 -44 -17s-33.667 -6 -53 -6
c-37.333 0 -71.5 6.33301 -102.5 19s-57.5 30.834 -79.5 54.501s-39.167 52.334 -51.5 86.001s-18.5 71.5 -18.5 113.5c0 45.333 8.5 90.5 25.5 135.5s43 85.5 78 121.5s78.833 65.167 131.5 87.5s114.667 33.5 186 33.5c66 0 122.667 -9.66699 170 -29s86.5 -45 117.5 -77
s53.833 -68.5 68.5 -109.5s22 -82.833 22 -125.5c0 -41.333 -6.5 -82.166 -19.5 -122.499s-32 -77.333 -57 -111s-55.333 -62 -91 -85s-76.167 -37.833 -121.5 -44.5c17.333 -12.667 33.166 -30.334 47.499 -53.001s27.666 -48 39.999 -76s24.333 -57.667 36 -89l35 -93
c11.667 -30.667 24 -60.167 37 -88.5s27.333 -53.333 43 -75s33.167 -38.834 52.5 -51.501s41.333 -19 66 -19c17.333 0 32.166 2.66699 44.499 8s22.833 12.5 31.5 21.5s15.667 19.5 21 31.5s9.66602 24.667 12.999 38c8 -2 16.167 -4.33301 24.5 -7s16.5 -5 24.5 -7
c-5.33301 -16.667 -11.833 -32.167 -19.5 -46.5s-17.167 -26.666 -28.5 -36.999s-25 -18.5 -41 -24.5s-34.333 -9 -55 -9c-44.667 0 -83 10.833 -115 32.5s-59.667 49.5 -83 83.5s-43.666 71.833 -60.999 113.5s-33.333 83 -48 124s-29.334 79.167 -44.001 114.5
s-31 63.333 -49 84c-11.333 -66.667 -24.833 -124.667 -40.5 -174s-34.334 -90.166 -56.001 -122.499s-46.667 -56.5 -75 -72.5s-60.833 -24 -97.5 -24c-29.333 0 -55 4.5 -77 13.5s-40.5 21.167 -55.5 36.5s-26.333 33.166 -34 53.499s-11.5 42.166 -11.5 65.499
c0 20 3.33301 39.5 10 58.5s16 36 28 51s26.333 27 43 36s35.334 14.167 56.001 15.5c0 -8.66699 0.166992 -17.334 0.5 -26.001s0.5 -17.334 0.5 -26.001c-13.333 -0.666992 -25.666 -4.5 -36.999 -11.5s-21.166 -15.833 -29.499 -26.5s-14.833 -22.834 -19.5 -36.501
s-7 -27.834 -7 -42.501c0 -18.667 3.16699 -36 9.5 -52s15.166 -29.833 26.499 -41.5s25.333 -20.834 42 -27.501s35 -10 55 -10c54 0 98.333 30.5 133 91.5s62 152.833 82 275.5h-8c-2.66699 0 -5.33398 0.333008 -8.00098 1l6 54c3.33301 0 6.33301 -0.5 9 -1.5
s5 -1.5 7 -1.5l18 149c9.33301 84.667 21.333 159.334 36 224.001s33 119 55 163l29 -10l29 -10c-17.333 -34 -33.666 -77.667 -48.999 -131s-27.666 -119.666 -36.999 -198.999l-12 -96.5c-4 -31.667 -8.33301 -62.5 -13 -92.5c38.667 4.66699 73.667 17.667 105 39
s58 47.666 80 78.999s38.833 66.166 50.5 104.499s17.5 77.166 17.5 116.499c0 38.667 -6.33301 76.5 -19 113.5s-32.167 69.833 -58.5 98.5s-60.166 51.667 -101.499 69s-91 26 -149 26c-62 0 -115.833 -10.167 -161.5 -30.5s-83.5 -46.666 -113.5 -78.999
s-52.333 -68.666 -67 -108.999s-22 -80.833 -22 -121.5z" />
    <glyph glyph-name="S" unicode="S" horiz-adv-x="1015" 
d="M26 174c25.333 -20 53.167 -35.499 83.5 -46.499s65.5 -18.167 105.5 -21.5c-0.666992 3.33301 -1 6.66602 -1 9.99902v20c0 50 7.16699 99.667 21.5 149s35.333 93.333 63 132s61.834 70 102.501 94s87.667 36 141 36c34 0 63.833 -6.33301 89.5 -19
s47.334 -30 65.001 -52s31.5 -47.5 41.5 -76.5s16 -59.5 18 -91.5c47.333 40 89.666 82.333 126.999 127c-0.666992 8 -1 16.167 -1 24.5v24.5c0 130 10.833 229.167 32.5 297.5s55.5 102.5 101.5 102.5c24.667 0 42.334 -8.33301 53.001 -25s16 -36.667 16 -60
c0 -46 -12.5 -98.833 -37.5 -158.5s-60.5 -120.5 -106.5 -182.5c0 -18 0.333008 -36 1 -54s1 -35.667 1 -53c0 -76 -8.5 -149.167 -25.5 -219.5s-42.5 -132.5 -76.5 -186.5s-76.833 -97 -128.5 -129s-112.167 -48 -181.5 -48c-43.333 0 -81 5.83301 -113 17.5
s-59.5 26.667 -82.5 45s-41.833 38.833 -56.5 61.5s-26.334 45.167 -35.001 67.5s-14.834 43.333 -18.501 63s-6.16699 35.5 -7.5 47.5c-38 0 -76.667 5.5 -116 16.5s-74.333 25.833 -105 44.5zM619.001 -39.999l-16.0049 23.9971l-16 23
c36.667 26.667 65.5 61.167 86.5 103.5s34.167 86.5 39.5 132.5c-62.667 -47.333 -130.834 -86.5 -204.501 -117.5s-151.5 -49.5 -233.5 -55.5c4.66699 -37.333 13.834 -72.166 27.501 -104.499s31.667 -60.5 54 -84.5s49.333 -43 81 -57s68.167 -21 109.5 -21
c54 0 102 14 144 42s77.167 66.167 105.5 114.5s50 104.833 65 169.5s22.5 133.667 22.5 207v60c-19.333 -21.333 -39.666 -42.666 -60.999 -63.999s-43.666 -41.666 -66.999 -60.999c-1.33301 -30 -5.16602 -60.167 -11.499 -90.5s-15.166 -59.333 -26.499 -87
s-25.166 -53 -41.499 -76s-35.5 -42.167 -57.5 -57.5zM717.996 282.998c-2 32 -6.5 62.168 -13.5 90.501s-17.667 53.166 -32 74.499s-32.833 38.166 -55.5 50.499s-50 18.5 -82 18.5c-42.667 0 -80.5 -11.167 -113.5 -33.5s-60.667 -51.333 -83 -87s-39.333 -76 -51 -121
s-17.5 -90.167 -17.5 -135.5c0 -5.33301 0.166992 -10.5 0.5 -15.5s0.833008 -10.167 1.5 -15.5c84.667 4.66699 164.5 22.834 239.5 54.501s143.833 71.5 206.5 119.5zM1054 798.999c0 14 -2.50098 25.667 -7.50098 35s-13.167 14.666 -24.5 15.999
c-16 0 -29.333 -7.16699 -40 -21.5s-19.167 -35 -25.5 -62s-10.666 -59.833 -12.999 -98.5s-3.5 -82 -3.5 -130v-36c36 54 64 106.833 84 158.5s30 97.834 30 138.501z" />
    <glyph glyph-name="T" unicode="T" horiz-adv-x="969" 
d="M1049 826c-12.667 -20.667 -35 -36.6621 -67 -47.9951c-6.66699 -12 -14 -28.5 -22 -49.5s-16.167 -48 -24.5 -81s-16.5 -73.333 -24.5 -121s-15.333 -104.5 -22 -170.5c-12.667 -120.667 -32 -219.334 -58 -296.001s-56 -136.834 -90 -180.501s-70.667 -73.667 -110 -90
s-79 -24.5 -119 -24.5c-37.333 0 -69.333 5.16699 -96 15.5s-48.667 23.833 -66 40.5s-30.166 35.667 -38.499 57s-12.5 43 -12.5 65c0 20.667 3.33301 40.834 10 60.501s16 37 28 52s26.5 27.167 43.5 36.5s35.5 14 55.5 14l3 -55c-12.667 0 -24.334 -3 -35.001 -9
s-20 -14.167 -28 -24.5s-14.167 -22.333 -18.5 -36s-6.5 -27.834 -6.5 -42.501c0 -18 3.16699 -35.5 9.5 -52.5s16.166 -32.167 29.499 -45.5s30.333 -24 51 -32s45.334 -12 74.001 -12c21.333 0 42.666 3 63.999 9s42.166 16.5 62.499 31.5s40 35.833 59 62.5
s36.5 60.667 52.5 102s30.5 91 43.5 149s23.833 126.333 32.5 205c6 56 13.167 105.667 21.5 149s17 81.833 26 115.5s18.333 62.5 28 86.5s19.167 44.667 28.5 62c-8 -1.33301 -16.5 -2.5 -25.5 -3.5s-18.5 -1.5 -28.5 -1.5c-36.667 0 -74.167 3.66699 -112.5 11
l-119.5 23.5c-41.333 8.33301 -84.833 16.166 -130.5 23.499s-94.5 11 -146.5 11s-97.5 -9.16699 -136.5 -27.5s-71.5 -42.166 -97.5 -71.499s-45.5 -62.5 -58.5 -99.5s-19.5 -73.833 -19.5 -110.5c0 -32 4.83301 -63 14.5 -93s24.334 -56.5 44.001 -79.5
s44.334 -41.5 74.001 -55.5s64.5 -21 104.5 -21s73.667 6.5 101 19.5s49.5 30.167 66.5 51.5s29.333 45.666 37 72.999s11.5 55.666 11.5 84.999c0 16 -1 32.667 -3 50l57 9c2 -18 3 -35.333 3 -52c0 -34 -5 -67 -15 -99s-25.833 -60.333 -47.5 -85s-49.667 -44.5 -84 -59.5
s-76.166 -22.5 -125.499 -22.5s-92.5 8 -129.5 24s-67.667 37.167 -92 63.5s-42.5 56.666 -54.5 90.999s-18 69.833 -18 106.5c0 42 7.83301 83.833 23.5 125.5s39.167 79.167 70.5 112.5s70 60.333 116 81s99.667 31 161 31c54 0 105.167 -4.16699 153.5 -12.5
s94 -17.666 137 -27.999l120 -28c37 -8.33301 71.167 -12.5 102.5 -12.5c15.333 0 28.666 0.5 39.999 1.5s21 2.16699 29 3.5c14 19.333 27.167 32.666 39.5 39.999s22.5 12 30.5 14z" />
    <glyph glyph-name="U" unicode="U" horiz-adv-x="1048" 
d="M1137 -35c-9.33301 -70.667 -27.333 -121.327 -54 -151.994s-59.334 -46 -98.001 -46c-44 0 -76 16.167 -96 48.5s-30 86.166 -30 161.499c0 30 2 62.667 6 98c-12 -37.333 -25.833 -74.166 -41.5 -110.499s-32.667 -69.166 -51 -98.499s-37.833 -53 -58.5 -71
s-42 -27 -64 -27c-38 0 -66.167 13.167 -84.5 39.5s-27.5 63.833 -27.5 112.5c0 28 3.16699 59.5 9.5 94.5s14.166 72 23.499 111s19.666 78.833 30.999 119.5s21.666 80.334 30.999 119.001s17.166 75.5 23.499 110.5s9.5 66.167 9.5 93.5c0 40.667 -6 78.167 -18 112.5
s-29.167 64 -51.5 89s-49.166 44.667 -80.499 59s-66.333 21.5 -105 21.5c-51.333 0 -97.333 -9.33301 -138 -28s-75.334 -43.834 -104.001 -75.501s-50.667 -68.167 -66 -109.5s-23 -84.333 -23 -129c0 -36.667 4.66699 -70.5 14 -101.5s23.333 -57.833 42 -80.5
s42.334 -40.334 71.001 -53.001s62 -19 100 -19c40 0 73.5 8.5 100.5 25.5s49 38.5 66 64.5s29.5 54.5 37.5 85.5s13.667 60.5 17 88.5l56 -9c-5.33301 -32 -14 -65.167 -26 -99.5s-28.833 -65.666 -50.5 -93.999s-48.667 -51.5 -81 -69.5s-71.5 -27 -117.5 -27
c-44.667 0 -84.667 7.5 -120 22.5s-65.166 35.5 -89.499 61.5s-43 56.667 -56 92s-19.5 73.666 -19.5 114.999c0 50 9.16699 97.667 27.5 143s44.5 85 78.5 119s75.167 61 123.5 81s102.166 30 161.499 30c44.667 0 85.834 -7.5 123.501 -22.5s69.834 -36.333 96.501 -64
s47.5 -60.834 62.5 -99.501s22.5 -81.667 22.5 -129c0 -46.667 -6.5 -98.334 -19.5 -155.001s-27.167 -114.334 -42.5 -173.001s-29.5 -115.667 -42.5 -171s-19.5 -105 -19.5 -149c0 -14 1 -27.5 3 -40.5s5.5 -24.5 10.5 -34.5s11.833 -17.833 20.5 -23.5
s19.334 -8.5 32.001 -8.5c16.667 0 33 7 49 21s31.333 32.667 46 56s28.667 49.666 42 78.999s25.5 59.5 36.5 90.5s20.5 61.333 28.5 91s14.667 56.167 20 79.5c8.66699 56 18.834 114 30.501 174s24 118.833 37 176.5s26.333 112.667 40 165s26.834 99.166 39.501 140.499
l57 -11l-22.5 -80.5l-23 -75.5c-7.66699 -24 -14.5 -46.833 -20.5 -68.5s-10.667 -41.167 -14 -58.5c-6 -22.667 -12.333 -50.167 -19 -82.5l-21 -105c-7.33301 -37.667 -14.333 -77 -21 -118s-12.667 -81 -18 -120s-9.66602 -76.333 -12.999 -112s-5 -67.167 -5 -94.5
c0 -50 6.5 -88.667 19.5 -116s32.167 -41 57.5 -41s46.666 13.667 63.999 41s28.666 68.666 33.999 123.999z" />
    <glyph glyph-name="V" unicode="V" horiz-adv-x="1002" 
d="M754 -165c20.667 103.333 44.5049 201.165 71.5049 293.498s56.333 177.833 88 256.5s65.667 149.5 102 212.5s74 116.667 113 161s79.167 78.333 120.5 102s83 35.5 125 35.5c34.667 0 63.5 -5.83301 86.5 -17.5s40.5 -26.834 52.5 -45.501l-20 -19.5
c-6.66699 -6.33301 -13.334 -13.166 -20.001 -20.499c-9.33301 18.667 -23.333 32.334 -42 41.001s-41.667 13 -69 13c-38 0 -76.167 -12 -114.5 -36s-75.833 -58.333 -112.5 -103s-72.5 -99 -107.5 -163s-68.333 -136.333 -100 -217s-61.5 -168.667 -89.5 -264
s-53.333 -196.666 -76 -303.999l-31.5 4l-31.5 4c1.33301 42.667 3.16602 90 5.49902 142s3.5 106 3.5 162c0 91.333 -4.83301 178.5 -14.5 261.5s-27 155.833 -52 218.5s-59.5 112.5 -103.5 149.5s-100 55.5 -168 55.5c-50 0 -94.5 -9.16699 -133.5 -27.5
s-71.667 -42.833 -98 -73.5s-46.5 -66.167 -60.5 -106.5s-21 -82.5 -21 -126.5c0 -38.667 5.66699 -74 17 -106s27.333 -59.667 48 -83s45.334 -41.5 74.001 -54.5s60.667 -19.5 96 -19.5c40.667 0 74.667 9.5 102 28.5s49.166 42.333 65.499 70s28.166 56.667 35.499 87
s11.666 56.833 12.999 79.5l56 -9c-2.66699 -33.333 -9.33398 -67.166 -20.001 -101.499s-26.5 -65.5 -47.5 -93.5s-48 -51 -81 -69s-73.5 -27 -121.5 -27c-46 0 -87 7.66699 -123 23s-66.5 36.5 -91.5 63.5s-44.167 58.833 -57.5 95.5s-20 76 -20 118
c0 50 8.33301 97 25 141s41 82.667 73 116s71.167 59.666 117.5 78.999s98.833 29 157.5 29c76 0 139.333 -18.333 190 -55s91 -86.167 121 -148.5s51.167 -134.5 63.5 -216.5s18.5 -168.333 18.5 -259c0 -46.667 -1.33301 -93.167 -4 -139.5s-6 -91.833 -10 -136.5z" />
    <glyph glyph-name="W" unicode="W" horiz-adv-x="1285" 
d="M1076 793c-8 -62 -15.3359 -124.335 -22.0029 -187.002s-12.167 -123.667 -16.5 -183s-7.83301 -116.333 -10.5 -171s-4 -105 -4 -151c0 -37.333 0.5 -71.666 1.5 -102.999s2.5 -58.833 4.5 -82.5s4.5 -43.167 7.5 -58.5s6.5 -25.333 10.5 -30
c30.667 154.667 62.5 297.334 95.5 428.001s69.333 243.5 109 338.5s84.167 169.167 133.5 222.5s105.666 80 168.999 80c32 0 59.167 -5.33301 81.5 -16s41.5 -26.334 57.5 -47.001l-40 -40c-11.333 18 -27 31.5 -47 40.5s-42 13.5 -66 13.5
c-57.333 0 -108.333 -26.333 -153 -79s-85.667 -126.834 -123 -222.501s-72.666 -210.167 -105.999 -343.5s-67 -280.333 -101 -441l-59 6c-12 22.667 -20.5 56.667 -25.5 102s-7.5 97.333 -7.5 156c0 40.667 1 82.834 3 126.501s4.5 87.334 7.5 131.001
s6.33301 86.5 10 128.5s7.5 81.333 11.5 118s7.83301 69.834 11.5 99.501s6.83398 54.167 9.50098 73.5c-16 -37.333 -32.5 -82.5 -49.5 -135.5s-33.833 -109.667 -50.5 -170s-32.667 -121.833 -48 -184.5l-43 -179.5l-35.5 -156l-24.5 -112.5l-47 9
c-6.66699 16 -11.834 35.333 -15.501 58s-6.5 47.834 -8.5 75.501s-3.16699 57 -3.5 88s-0.5 62.833 -0.5 95.5v149c-1.33301 50.667 -3.66602 99.667 -6.99902 147s-10.666 90 -21.999 128c-10.667 36 -24.667 69 -42 99s-37.833 55.667 -61.5 77s-50.667 37.833 -81 49.5
s-64.166 17.5 -101.499 17.5c-47.333 0 -89.666 -8.5 -126.999 -25.5s-69.333 -39.5 -96 -67.5s-47.834 -60 -63.501 -96s-25.667 -72.5 -30 -109.5s-3 -73.5 4 -109.5s20 -68 39 -96s44 -50.5 75 -67.5s68.167 -25.5 111.5 -25.5c40 0 73.5 6.83301 100.5 20.5
s49.167 32.334 66.5 56.001s30.333 51.667 39 84s15 67.166 19 104.499l59 -4c-6.66699 -42.667 -16.834 -81.834 -30.501 -117.501s-31.834 -66.5 -54.501 -92.5s-50.167 -46.167 -82.5 -60.5s-70.166 -21.5 -113.499 -21.5c-50.667 0 -94.334 9.5 -131.001 28.5
s-66.5 44 -89.5 75s-39.333 66.333 -49 106s-12.5 80 -8.5 121s14.667 81.333 32 121s41.333 75 72 106s67.834 56 111.501 75s94.167 28.5 151.5 28.5c42 0 80.5 -6 115.5 -18s66.5 -29 94.5 -51s52.333 -48.5 73 -79.5s37.334 -65.833 50.001 -104.5
c8 -24 14.5 -51.167 19.5 -81.5s8.66699 -62 11 -95s4 -67 5 -102s1.5 -69.5 1.5 -103.5v-44c0 -14 -0.166992 -27.833 -0.5 -41.5s-0.5 -26.834 -0.5 -39.501c0 -22.667 0.166992 -44.167 0.5 -64.5s0.833008 -38.666 1.5 -54.999s1.66699 -30.333 3 -42
s3.33301 -19.834 6 -24.501l22.5 109c9.66699 46.667 21.334 99 35.001 157l45 184c16.333 64.667 33.5 128.167 51.5 190.5s36.667 121.333 56 177s38.666 103.167 57.999 142.5z" />
    <glyph glyph-name="X" unicode="X" horiz-adv-x="966" 
d="M488 850c-23.333 0 -43.5 -3.67188 -60.5 -11.0049s-31.167 -16.833 -42.5 -28.5s-19.666 -25 -24.999 -40s-8 -30.5 -8 -46.5s2.83301 -31.833 8.5 -47.5s13.834 -29.834 24.501 -42.501s24 -22.834 40 -30.501s34.333 -11.834 55 -12.501
c-2.66699 -10.667 -4.83398 -21.167 -6.50098 -31.5s-3.83398 -20.833 -6.50098 -31.5c-27.333 0 -51.666 5 -72.999 15s-39.166 23.333 -53.499 40s-25.166 35.5 -32.499 56.5s-11 42.5 -11 64.5c0 26 5.33301 50.167 16 72.5s25 41.5 43 57.5s39.167 28.5 63.5 37.5
s50.166 13.5 77.499 13.5c44 0 81.5 -13.5 112.5 -40.5s57.167 -63 78.5 -108s39.166 -96.5 53.499 -154.5s26.833 -117.667 37.5 -179c22 64 45.5 125.5 70.5 184.5s53 111.333 84 157s65.667 82.167 104 109.5s81.833 41 130.5 41c19.333 0 37.333 -2.66699 54 -8
s31.334 -12.166 44.001 -20.499s23.334 -18 32.001 -29s15 -22.167 19 -33.5c-8 -4 -15.833 -8.16699 -23.5 -12.5l-22.5 -12.5c-8.66699 24.667 -23.334 42.5 -44.001 53.5s-45 16.5 -73 16.5c-44.667 0 -84.334 -13.833 -119.001 -41.5s-66.334 -64.5 -95.001 -110.5
s-55.167 -98.667 -79.5 -158l-72.5 -184l9 -65c6.66699 -48.667 13.834 -97 21.501 -145s16.5 -93.333 26.5 -136s21.833 -82.334 35.5 -119.001s30.167 -68.334 49.5 -95.001s41.833 -47.5 67.5 -62.5s55.834 -22.5 90.501 -22.5c35.333 0 62.666 8.66699 81.999 26
s33.666 41.666 42.999 72.999l56 -18c-17.333 -42 -41.166 -72 -71.499 -90s-67.5 -27 -111.5 -27c-42.667 0 -79.834 7.66699 -111.501 23s-59.167 36.333 -82.5 63s-42.833 58.334 -58.5 95.001s-29.167 76.334 -40.5 119.001s-20.833 87.334 -28.5 134.001
s-14.834 94 -21.501 142c-24 -59.333 -49.833 -117.666 -77.5 -174.999s-59.5 -108.333 -95.5 -153s-76.833 -80.667 -122.5 -108s-97.834 -41 -156.501 -41c-46 0 -86 8.5 -120 25.5s-62.167 39.333 -84.5 67s-39 59.334 -50 95.001s-16.5 72.5 -16.5 110.5
c0 42 6.33301 83.833 19 125.5s31.834 79.334 57.501 113.001s57.5 60.834 95.5 81.501s82.667 31 134 31c30.667 0 58 -5.66699 82 -17s44.333 -26.666 61 -45.999s29.167 -41.666 37.5 -66.999s12.5 -52 12.5 -80c0 -30 -5.33301 -59.833 -16 -89.5
s-26.667 -57.167 -48 -82.5l-49 29c21.333 25.333 36.833 51.833 46.5 79.5s14.5 54.5 14.5 80.5c0 20.667 -3.5 40.5 -10.5 59.5s-16.667 36 -29 51s-27.5 27 -45.5 36s-38 13.5 -60 13.5c-39.333 0 -74.5 -9.33301 -105.5 -28s-57.167 -43.167 -78.5 -73.5
s-37.5 -64.5 -48.5 -102.5s-16.5 -76.333 -16.5 -115c0 -33.333 4.33301 -65.333 13 -96s22.167 -58 40.5 -82s41.333 -43.167 69 -57.5s60.5 -21.5 98.5 -21.5c56.667 0 107 13.667 151 41s83.333 63.833 118 109.5s65.834 97.834 93.501 156.501s53.5 119 77.5 181l-3 22
c-11.333 78 -23.5 149.333 -36.5 214s-28.5 120.167 -46.5 166.5s-39.833 82.333 -65.5 108s-57.167 38.5 -94.5 38.5z" />
    <glyph glyph-name="Y" unicode="Y" horiz-adv-x="1016" 
d="M381 850c-47.333 0 -89.6709 -8.49512 -127.004 -25.4951s-69.333 -39.5 -96 -67.5s-47.834 -60 -63.501 -96s-25.667 -72.5 -30 -109.5s-3 -73.5 4 -109.5s20 -68 39 -96s44 -50.5 75 -67.5s68.167 -25.5 111.5 -25.5c40 0 73.5 6.83301 100.5 20.5
s49.167 32.334 66.5 56.001s30.333 51.667 39 84s15 67.166 19 104.499l59 -4c-6.66699 -42.667 -16.834 -81.834 -30.501 -117.501s-31.834 -66.5 -54.501 -92.5s-50.167 -46.167 -82.5 -60.5s-70.166 -21.5 -113.499 -21.5c-50.667 0 -94.334 9.5 -131.001 28.5
s-66.5 44 -89.5 75s-39.333 66.333 -49 106s-12.5 80 -8.5 121s14.667 81.333 32 121s41.333 75 72 106s67.834 56 111.501 75s94.167 28.5 151.5 28.5c44.667 0 85.667 -7.5 123 -22.5s69.5 -36.333 96.5 -64s47.833 -60.834 62.5 -99.501s22 -81.667 22 -129
c0 -38.667 -3 -76 -9 -112s-12.667 -71.333 -20 -106s-14 -69 -20 -103s-9 -68.333 -9 -103c0 -14 1 -27.5 3 -40.5s5.5 -24.5 10.5 -34.5s11.833 -17.833 20.5 -23.5s19.334 -8.5 32.001 -8.5c22 0 43 11.167 63 33.5s38.5 50.833 55.5 85.5s32 72.834 45 114.501
s23.833 82.167 32.5 121.5c9.33301 58.667 18.833 114.167 28.5 166.5s19.334 99.833 29.001 142.5s19.334 79.667 29.001 111s19.5 55.333 29.5 72c8.66699 -2.66699 17.334 -5 26.001 -7l26 -6c-4.66699 -24.667 -10.334 -48.834 -17.001 -72.501
s-13.5 -46.334 -20.5 -68.001l-19.5 -59.5c-6 -18 -10.667 -33.333 -14 -46c-11.333 -54 -22 -113.167 -32 -177.5l-31 -203.5l-20 -127.5c-7.33301 -45 -16.333 -89.5 -27 -133.5s-23.334 -86.167 -38.001 -126.5s-31.834 -75.833 -51.501 -106.5
s-42.5 -55.167 -68.5 -73.5s-55.667 -27.5 -89 -27.5c-34.667 0 -62 10.167 -82 30.5s-30 47.166 -30 80.499c0 18 3.33301 35.167 10 51.5s16 30.666 28 42.999s26.167 22.166 42.5 29.499s34.166 11.333 53.499 12l2 -50c-28 -2 -50.667 -12 -68 -30s-26 -39.333 -26 -64
c0 -24 6.5 -42.167 19.5 -54.5s29.833 -18.5 50.5 -18.5c25.333 0 48 9.16699 68 27.5s37.5 42.5 52.5 72.5s28.167 64 39.5 102s21.333 77 30 117s16.334 79.167 23.001 117.5s13 72.5 19 102.5c-11.333 -29.333 -23.666 -57.5 -36.999 -84.5s-27.5 -51 -42.5 -72
s-31 -37.667 -48 -50s-34.5 -18.5 -52.5 -18.5c-38 0 -66.167 13 -84.5 39s-27.5 63.333 -27.5 112c0 35.333 3.33301 70.333 10 105s13.834 69.334 21.501 104.001s14.834 69.667 21.501 105s10 72 10 110c0 40.667 -6.16699 78.167 -18.5 112.5s-29.666 64 -51.999 89
s-49.166 44.667 -80.499 59s-66.333 21.5 -105 21.5z" />
    <glyph glyph-name="Z" unicode="Z" horiz-adv-x="616" 
d="M366 855c-46 0 -86.3408 -10.8389 -121.008 -32.5059s-63.667 -49.334 -87 -83.001s-41 -71 -53 -112s-18 -81.167 -18 -120.5c0 -28 3 -54.5 9 -79.5s14.833 -46.667 26.5 -65s26.334 -32.833 44.001 -43.5s38.167 -16 61.5 -16c20.667 0 39.167 4.66699 55.5 14
s29.833 21.833 40.5 37.5s18.834 33.167 24.501 52.5s8.5 39 8.5 59c0 26 -6.16699 50.667 -18.5 74s-31.166 40.666 -56.499 51.999l36 52c28.667 -13.333 50.167 -35.5 64.5 -66.5s21.5 -64.5 21.5 -100.5c0 -24.667 -3.66699 -49.167 -11 -73.5
s-18.166 -46.166 -32.499 -65.499s-32.5 -35 -54.5 -47s-48 -18 -78 -18c-32.667 0 -61.334 6.66699 -86.001 20s-45.167 31.333 -61.5 54s-28.666 49 -36.999 79s-12.5 61.667 -12.5 95c0 42 7 84.667 21 128s35 82.5 63 117.5s62.833 63.5 104.5 85.5s90.5 33 146.5 33
c46.667 0 87.834 -7.66699 123.501 -23s65.334 -36.166 89.001 -62.499s41.5 -57 53.5 -92s18 -72.5 18 -112.5c0 -41.333 -6.66699 -84.166 -20 -128.499s-33.166 -87.5 -59.499 -129.5s-59.666 -81.833 -99.999 -119.5s-87.5 -70.834 -141.5 -99.501
c22 -8.66699 41 -20 57 -34s29.167 -29.667 39.5 -47s17.833 -36.166 22.5 -56.499s7 -40.833 7 -61.5c0 -32.667 -5.33301 -65 -16 -97s-25.334 -60.833 -44.001 -86.5s-40.834 -46.5 -66.501 -62.5s-53.5 -24 -83.5 -24c-20 0 -37.333 3.5 -52 10.5s-27 16.333 -37 28
s-17.5 25.167 -22.5 40.5s-7.5 31.666 -7.5 48.999c0 16.667 2.33301 34 7 52s11.834 35.333 21.501 52s21.5 32.167 35.5 46.5s30.333 26.833 49 37.5l29 -49c-35.333 -21.333 -60.833 -45.666 -76.5 -72.999s-23.5 -53.666 -23.5 -78.999
c0 -24 6.83301 -44.167 20.5 -60.5s32.5 -24.5 56.5 -24.5c23.333 0 44.666 7.16699 63.999 21.5s35.833 32.833 49.5 55.5s24.334 48.334 32.001 77.001s11.5 57.667 11.5 87c0 20 -2 39.667 -6 59s-10.333 37 -19 53s-19.667 30 -33 42s-29.333 21 -48 27
c-14.667 -5.33301 -28.167 -10.666 -40.5 -15.999s-26.166 -8 -41.499 -8c-6.66699 0 -11.667 0.333008 -15 1l11 63h4c26.667 0 51.667 -3 75 -9c50.667 25.333 94.834 56.166 132.501 92.499s69 75 94 116s43.667 83.333 56 127s18.5 85.834 18.5 126.501
c0 36 -4.83301 69.833 -14.5 101.5s-23.834 59.334 -42.501 83.001s-42 42.334 -70 56.001s-60.333 20.5 -97 20.5z" />
    <glyph glyph-name="bracketleft" unicode="[" horiz-adv-x="183" 
d="M139 777c24.667 -6 51.0039 -8.99609 79.0039 -8.99609c15.333 0 30.166 1 44.499 3s27.833 5.66699 40.5 11l8 -38c-8.66699 -5.33301 -19 -9 -31 -11s-24.667 -3 -38 -3c-14.667 0 -28.834 0.833008 -42.501 2.5s-25.167 3.5 -34.5 5.5c-4 -30 -9 -64.5 -15 -103.5
l-19 -119.5l-20 -119.5l-18 -103.5l-18.5 -104.5l-18 -103l-15.5 -86.5c-4.66699 -25.333 -8 -43 -10 -53c8 1.33301 17.167 2.66602 27.5 3.99902s21.166 2 32.499 2c28 0 53.667 -4.33301 77 -13l-6 -20c-2 -6.66699 -4.33301 -13.334 -7 -20.001
c-11.333 4.66699 -23.833 8 -37.5 10s-27.834 3 -42.501 3s-29.167 -0.833008 -43.5 -2.5s-28.166 -3.83398 -41.499 -6.50098c8.66699 39.333 18.167 87.166 28.5 143.499l31.5 177.5l31 186.5l27.5 171l20.5 131c5.33301 35.667 8.66602 57.5 9.99902 65.5z" />
    <glyph glyph-name="backslash" unicode="\" horiz-adv-x="145" 
d="M77 -15c-5.33301 41.333 -9.83105 86.999 -13.498 136.999s-6.83398 100.833 -9.50098 152.5s-4.83398 102.334 -6.50098 152.001s-3 95 -4 136s-1.5 75.5 -1.5 103.5s0.333008 46 1 54h34c-1.33301 -118.667 1 -238.667 7 -360s14.333 -245.333 25 -372z" />
    <glyph glyph-name="bracketright" unicode="]" horiz-adv-x="181" 
d="M20 -98c-12 3.33301 -24.667 5.83691 -38 7.50391s-26.666 2.5 -39.999 2.5c-30.667 0 -59.334 -4.66699 -86.001 -14l-8 37c8.66699 5.33301 19 9.16602 31 11.499s24.667 3.5 38 3.5c14.667 0 29 -0.833008 43 -2.5s25.667 -3.83398 35 -6.50098
c3.33301 30 8 64.5 14 103.5l19 119.5l20 119.5l18 103.5l18.5 104l18 104l15.5 86.5l10 53.5c-8 -2 -17.167 -3.66699 -27.5 -5s-21.166 -2 -32.499 -2c-28 0 -53.667 4.33301 -77 13c2.66699 7.33301 5 14.166 7 20.499s4 13.166 6 20.499
c11.333 -5.33301 23.833 -9 37.5 -11s27.834 -3 42.501 -3s29.167 0.833008 43.5 2.5s28.166 4.16699 41.499 7.5c-8.66699 -39.333 -18.167 -87.333 -28.5 -144l-31.5 -178l-31.5 -187l-27.5 -171.5l-20.5 -130.5c-5.66699 -35.333 -8.83398 -57 -9.50098 -65z" />
    <glyph glyph-name="asciicircum" unicode="^" horiz-adv-x="213" 
d="M144 600c18 -29.333 32.167 -54.667 42.5 -76s16.5 -34.666 18.5 -39.999c-6 -3.33301 -12.167 -6.16602 -18.5 -8.49902s-12.833 -5.16602 -19.5 -8.49902c-1.33301 4 -5.33301 14.833 -12 32.5s-17.667 40.167 -33 67.5l-20.5 -24l-23.5 -26l-23.5 -24.5
c-7.66699 -7.66699 -14.5 -13.834 -20.5 -18.501l-12 13.5c-4 4.33301 -7.66699 8.83301 -11 13.5c26 19.333 48 38.166 66 56.499s31.333 33.166 40 44.499z" />
    <glyph glyph-name="underscore" unicode="_" horiz-adv-x="163" 
d="M173 -24l-5 -32h-179l6 32h178z" />
    <glyph glyph-name="grave" unicode="`" horiz-adv-x="174" 
d="M69 626c16 -31.333 31.667 -56.999 47 -76.999s27.333 -34.667 36 -44l-21 -20c-10 7.33301 -20.667 16.666 -32 27.999c-9.33301 9.33301 -20 21.333 -32 36s-24 32 -36 52z" />
    <glyph glyph-name="a" unicode="a" horiz-adv-x="332" 
d="M222 455l45.0029 0.00195312c-12.667 -62 -24.167 -121 -34.5 -177s-18.5 -107.667 -24.5 -155c-1.33301 -10 -2.33301 -19.167 -3 -27.5s-1 -15.833 -1 -22.5c0 -24 4 -36 12 -36c11.333 0 27.166 17.167 47.499 51.5s43.166 85.166 68.499 152.499
c3.33301 0 7.16602 -1.33301 11.499 -4s6.5 -4.66699 6.5 -6c-17.333 -42 -32.833 -78 -46.5 -108s-26.334 -54.5 -38.001 -73.5s-22.5 -32.833 -32.5 -41.5s-20.333 -13 -31 -13c-27.333 0 -41 34.333 -41 103l5 48c-7.33301 -20 -15.166 -39.167 -23.499 -57.5
s-17.5 -34.333 -27.5 -48s-20.833 -24.667 -32.5 -33s-24.167 -12.5 -37.5 -12.5c-21.333 0 -37 10.333 -47 31s-15 49 -15 85c0 23.333 2 48.166 6 74.499s9.5 52.5 16.5 78.5s15.5 51 25.5 75s21 45 33 63s24.833 32.5 38.5 43.5s28.167 16.5 43.5 16.5
c20 0 34.667 -7.16699 44 -21.5s15.333 -32.833 18 -55.5zM148.003 422.002c-14 0 -27.833 -10.998 -41.5 -32.998s-26 -49 -37 -81s-19.833 -65.833 -26.5 -101.5s-10 -67.5 -10 -95.5c0 -21.333 2.33301 -38.5 7 -51.5s12.334 -19.5 23.001 -19.5
c8.66699 0 18 5.16699 28 15.5s19.5 24 28.5 41s17.667 36.167 26 57.5s15.666 43.166 21.999 65.499s11.333 44.166 15 65.499s5.5 40.333 5.5 57c0 24 -3.33301 43.333 -10 58s-16.667 22 -30 22z" />
    <glyph glyph-name="b" unicode="b" horiz-adv-x="322" 
d="M322 241c2.66699 0 6.33887 -0.832031 11.0059 -2.49902s7 -3.83398 7 -6.50098v-1c-13.333 -34 -30.5 -62 -51.5 -84s-44.167 -36 -69.5 -42c-14.667 -32.667 -32.334 -59.5 -53.001 -80.5s-44.334 -31.5 -71.001 -31.5c-18 0 -33 5 -45 15s-21.833 24 -29.5 42
s-13.167 39.333 -16.5 64s-5 51.334 -5 80.001c0 46 3.66699 95.5 11 148.5s16.5 104.833 27.5 155.5s23.333 98 37 142s26.834 80 39.501 108c7.33301 15.333 16.166 26.666 26.499 33.999s21.166 11 32.499 11c13.333 0 25.166 -5.16699 35.499 -15.5
s15.5 -25.166 15.5 -44.499c0 -84.667 -48.333 -177.334 -145 -278.001l-9 -47c11.333 16 24.666 28.833 39.999 38.5s32.666 14.5 51.999 14.5c16.667 0 31.167 -4.5 43.5 -13.5s22.5 -21 30.5 -36s13.833 -32.5 17.5 -52.5s5.5 -41.333 5.5 -64
c0 -26 -2.33301 -52.833 -7 -80.5s-11.667 -54.167 -21 -79.5c18 6 34.667 17.333 50 34s29 40.667 41 72zM140.005 431.001c-12.667 0 -24.166 -4.16602 -34.499 -12.499s-19.333 -19.5 -27 -33.5s-13.5 -29.833 -17.5 -47.5s-6 -35.834 -6 -54.501s2.33301 -37 7 -55
s12 -34.167 22 -48.5s23.167 -26.166 39.5 -35.499s36.166 -14.333 59.499 -15c7.33301 24 13.166 49.667 17.499 77s6.5 53.666 6.5 78.999c0 20 -1.33301 38.833 -4 56.5s-6.66699 33.167 -12 46.5s-12.166 23.833 -20.499 31.5s-18.5 11.5 -30.5 11.5zM95.0059 22.002
c16 0 30.668 7.49902 44.001 22.499s24.666 34.5 33.999 58.5c-34 3.33301 -61.333 14.333 -82 33s-35.667 41.334 -45 68.001c-0.666992 -8.66699 -1.16699 -17 -1.5 -25s-0.5 -15.667 -0.5 -23c0 -40 4 -72.333 12 -97s21 -37 39 -37zM190.007 733.001
c0 15.333 -4.00391 23.001 -12.0039 23.001c-5.33301 0 -11.666 -7 -18.999 -21s-15.166 -32.833 -23.499 -56.5s-16.666 -51.334 -24.999 -83.001s-16.166 -65.167 -23.499 -100.5c29.333 36 53.833 74.167 73.5 114.5s29.5 81.5 29.5 123.5z" />
    <glyph glyph-name="c" unicode="c" horiz-adv-x="268" 
d="M143 253c12.667 20.667 22.168 41.6641 28.501 62.9971s9.5 40.333 9.5 57c0 16 -2.66699 29 -8 39s-13.333 15 -24 15c-14 0 -27.5 -8.16699 -40.5 -24.5s-24.333 -37 -34 -62s-17.5 -52.833 -23.5 -83.5s-9 -60 -9 -88c0 -18 1.33301 -34.667 4 -50
s6.83398 -28.833 12.501 -40.5s13.167 -21 22.5 -28s20.666 -10.5 33.999 -10.5c29.333 1.33301 55.666 18.5 78.999 51.5s48 82.833 74 149.5c2.66699 0 6.66699 -1.33301 12 -4s8 -4.66699 8 -6l-10 -23c-12 -29.333 -24.5 -57 -37.5 -83s-27 -48.833 -42 -68.5
s-31.333 -35.167 -49 -46.5s-37.5 -17 -59.5 -17c-17.333 0 -32.166 4.33301 -44.499 13s-22.333 20.334 -30 35.001s-13.334 31.834 -17.001 51.501s-5.5 40.834 -5.5 63.501c0 34 4 69 12 105s19 68.833 33 98.5s30.667 54.167 50 73.5s40.666 29 63.999 29
s40.5 -9.33301 51.5 -28s16.5 -41.667 16.5 -69c0 -21.333 -3.16699 -43.833 -9.5 -67.5s-15.166 -46.167 -26.499 -67.5z" />
    <glyph glyph-name="d" unicode="d" horiz-adv-x="338" 
d="M208 393l17.499 101.497l19.5 106l19 100.5l16 86h47c-3.33301 -24.667 -8.33301 -57 -15 -97l-22.5 -129l-26 -142l-25 -137c-7.66699 -42.667 -13.834 -80 -18.501 -112s-7 -54.667 -7 -68c0 -18.667 1.5 -31.5 4.5 -38.5s7.16699 -10.5 12.5 -10.5
c14.667 0 31 17 49 51s37.667 79.667 59 137c3.33301 0 7.33301 -1.66699 12 -5s7 -5.33301 7 -6c-30 -80.667 -57.667 -140 -83 -178s-48.666 -57 -69.999 -57c-30 0 -45 29.667 -45 89c0 6.66699 0.666992 15.834 2 27.501s3 25.167 5 40.5
c-7.33301 -22 -15.333 -42.667 -24 -62s-18 -36.166 -28 -50.499s-20.833 -25.666 -32.5 -33.999s-24.5 -12.5 -38.5 -12.5c-21.333 0 -36.666 11.167 -45.999 33.5s-14 50.5 -14 84.5c0 23.333 2 48.166 6 74.499s9.33301 52.5 16 78.5s15 51 25 75s21 45 33 63
s24.833 32.5 38.5 43.5s28.167 16.5 43.5 16.5c18.667 0 33 -6.16699 43 -18.5s16.667 -29.166 20 -50.499zM146.999 421.997c-14 0 -27.8359 -11 -41.5029 -33s-26 -49 -37 -81s-19.833 -66 -26.5 -102s-10 -67.667 -10 -95c0 -21.333 2.33301 -38.5 7 -51.5
s12.334 -19.5 23.001 -19.5c12 0 25.333 10.833 40 32.5s28.334 48 41.001 79s23.334 63.833 32.001 98.5s13 65 13 91c0 22 -3.16699 41 -9.5 57s-16.833 24 -31.5 24z" />
    <glyph glyph-name="e" unicode="e" horiz-adv-x="265" 
d="M112 40c16 0 31.3311 6.16797 45.998 18.501s28.5 28.166 41.5 47.499s25 40.833 36 64.5s20.833 47.167 29.5 70.5c2.66699 0 6.33398 -1.33301 11.001 -4s7 -4.66699 7 -6c-8 -23.333 -17.833 -48.833 -29.5 -76.5s-25.167 -53.5 -40.5 -77.5s-32.5 -44 -51.5 -60
s-39.833 -24 -62.5 -24c-19.333 0 -35.833 4.33301 -49.5 13s-24.667 20.334 -33 35.001s-14.5 32 -18.5 52s-6 41 -6 63c0 34 4.16699 69.167 12.5 105.5s19.833 69.333 34.5 99s32.167 54.167 52.5 73.5s42.5 29 66.5 29c19.333 0 33.666 -5.83301 42.999 -17.5
s14 -26.5 14 -44.5c0 -20 -5.16699 -40 -15.5 -60s-23.5 -38.5 -39.5 -55.5s-34 -31.667 -54 -44s-39.333 -20.166 -58 -23.499c-1.33301 -10 -2.5 -19.833 -3.5 -29.5s-1.5 -19.167 -1.5 -28.5c0 -16.667 1.16699 -32.334 3.5 -47.001s6.33301 -27.334 12 -38.001
s12.834 -19.167 21.501 -25.5s19.334 -9.5 32.001 -9.5zM152.998 436.001c-10.667 0 -21.167 -5.66699 -31.5 -17s-20 -26 -29 -44s-17.167 -38.5 -24.5 -61.5s-13 -46.167 -17 -69.5c20.667 10 38.667 21.5 54 34.5s28 26.5 38 40.5s17.5 28 22.5 42s7.5 27 7.5 39
c0 24 -6.66699 36 -20 36z" />
    <glyph glyph-name="f" unicode="f" horiz-adv-x="187" 
d="M31 -232c-9.33301 0 -18.333 1.66699 -27 5s-16.334 9.33301 -23.001 18s-12 20.834 -16 36.501s-6 35.834 -6 60.501c0 36 2.5 78.667 7.5 128s11.833 101.5 20.5 156.5s18.334 110.667 29.001 167s21.667 109.666 33 159.999s22.5 95.666 33.5 135.999
s21.167 71.833 30.5 94.5c8.66699 21.333 19 37 31 47s23.667 15 35 15c12.667 0 23.334 -5 32.001 -15s13 -24.667 13 -44c0 -26 -3.5 -55 -10.5 -87s-15.833 -65 -26.5 -99s-22.834 -67.667 -36.501 -101l-40 -93.5c-13 -29 -25.333 -54.833 -37 -77.5l-27.5 -52
c-10 -53.333 -18 -105 -24 -155c13.333 2.66699 27.666 8.16699 42.999 16.5s30.333 19.666 45 33.999s28.667 31.666 42 51.999s25 43.833 35 70.5c2.66699 0 6.33398 -1.5 11.001 -4.5s7 -5.16699 7 -6.5c-22.667 -50 -47.5 -90.667 -74.5 -122
s-56.5 -52.666 -88.5 -63.999c25.333 -20 43.333 -43.333 54 -70s16 -52.667 16 -78c0 -17.333 -2 -33.666 -6 -48.999s-9.66699 -28.833 -17 -40.5s-16 -21 -26 -28s-20.667 -10.5 -32 -10.5zM196 732c0 15.333 -3.66699 23.001 -11 23.001
c-6.66699 0 -14.834 -12.333 -24.501 -37s-20 -57.834 -31 -99.501s-22.333 -89.834 -34 -144.501s-23.167 -112 -34.5 -172c7.33301 15.333 15.666 34 24.999 56s19 46 29 72l29.5 80.5c9.66699 27.667 18.334 54.834 26.001 81.501s13.834 52 18.501 76s7 45.333 7 64z
M33 -201.999c12.667 0 23.498 8.83203 32.498 26.499s13.5 39.167 13.5 64.5c0 23.333 -4.66699 47.5 -14 72.5s-25.666 46.833 -48.999 65.5c-3.33301 -28 -6.16602 -54.667 -8.49902 -80s-3.5 -47.666 -3.5 -66.999c0 -25.333 2.33301 -45.333 7 -60s12 -22 22 -22z" />
    <glyph glyph-name="g" unicode="g" horiz-adv-x="320" 
d="M320 241c3.33301 0 7.33203 -0.992188 11.999 -2.99219s6.66699 -4.66699 6 -8c-21.333 -54.667 -46 -101 -74 -139s-56 -71.667 -84 -101c-6 -32 -11.667 -65.333 -17 -100s-12.333 -66.334 -21 -95.001s-19.5 -52.334 -32.5 -71.001s-29.833 -28 -50.5 -28
c-17.333 0 -31.666 6.16699 -42.999 18.5s-17 29.833 -17 52.5c0 19.333 3.5 37.666 10.5 54.999s16.5 34.166 28.5 50.499s25.833 32.666 41.5 48.999l49.5 50.5c5.33301 25.333 10 51.333 14 78s8.33301 52.667 13 78c-7.33301 -18.667 -15 -36 -23 -52
s-16.667 -30 -26 -42s-19.333 -21.333 -30 -28s-22 -10 -34 -10c-21.333 0 -36.666 10.5 -45.999 31.5s-14 48.833 -14 83.5c0 23.333 2 48.166 6 74.499s9.5 52.5 16.5 78.5s15.5 51 25.5 75s21 45 33 63s24.833 32.5 38.5 43.5s28.167 16.5 43.5 16.5
c17.333 0 30.333 -5.66699 39 -17s14.667 -26.333 18 -45l12 56h52c-3.33301 -11.333 -7.83301 -31.5 -13.5 -60.5l-19.5 -103l-23 -127.5l-24 -133c24.667 27.333 48.667 57.666 72 90.999s43.666 72.666 60.999 117.999zM147.999 422.008c-14 0 -27.832 -11 -41.499 -33
s-26 -49 -37 -81s-19.833 -65.833 -26.5 -101.5s-10 -67.5 -10 -95.5c0 -21.333 2.33301 -38.5 7 -51.5s12.334 -19.5 23.001 -19.5s21.667 6.83301 33 20.5s22.166 31.834 32.499 54.501s20.166 48.167 29.499 76.5s17.333 57.166 24 86.499
c1.33301 10.667 2.83301 21.167 4.5 31.5s2.5 20.833 2.5 31.5c0 22 -3.16699 41 -9.5 57s-16.833 24 -31.5 24zM33 -232.992c0 -13.333 2.5 -23.167 7.5 -29.5s11.167 -9.5 18.5 -9.5c9.33301 0 17 5 23 15s10.667 23.667 14 41l26 146
c-24.667 -25.333 -45.667 -51 -63 -77s-26 -54.667 -26 -86z" />
    <glyph glyph-name="h" unicode="h" horiz-adv-x="325" 
d="M-37 0c0 0.666992 -0.163086 1.33691 -0.496094 2.00391s-0.5 1.66699 -0.5 3c0 9.33301 1.33301 23.666 4 42.999s6 38 10 56l18.5 110l20 120.5c7 41 14.333 81.667 22 122s15.5 78.333 23.5 114s16.167 68.167 24.5 97.5s16.833 53.333 25.5 72s19.5 31.5 32.5 38.5
s25.167 10.5 36.5 10.5c27.333 0 41 -16 41 -48c0 -25.333 -4.83301 -54.333 -14.5 -87s-21.667 -67 -36 -103s-30.333 -72.167 -48 -108.5l-50.5 -103.5l-15 -64c9.33301 22 19.833 43.833 31.5 65.5s24 41.334 37 59.001s26.333 32 40 43s27.167 16.5 40.5 16.5
s24.666 -5.16699 33.999 -15.5s14 -26.166 14 -47.499s-3.66699 -45.833 -11 -73.5s-15.333 -56 -24 -85s-16.667 -57.333 -24 -85s-11 -51.834 -11 -72.501c0 -14.667 2.16699 -25.334 6.5 -32.001s10.166 -10 17.499 -10s15.666 5.16699 24.999 15.5s19 24.666 29 42.999
s20.333 39.833 31 64.5l33 80c3.33301 0 7.16602 -1.5 11.499 -4.5s6.5 -5.16699 6.5 -6.5l-13 -34c-10 -25.333 -20.5 -50 -31.5 -74s-22.5 -45.333 -34.5 -64s-24.5 -33.834 -37.5 -45.501s-26.5 -17.5 -40.5 -17.5c-16.667 0 -30.334 6.33301 -41.001 19
s-16 31.667 -16 57c0 23.333 3.66699 49.833 11 79.5s15.5 59.167 24.5 88.5l24.5 83c7.33301 26 11 47 11 63c0 12 -1.66699 20.5 -5 25.5s-7.66602 7.5 -12.999 7.5c-9.33301 0 -20.5 -7.83301 -33.5 -23.5s-26.833 -37.167 -41.5 -64.5s-28.834 -59.5 -42.501 -96.5
s-25.5 -77.167 -35.5 -120.5c-2.66699 -18.667 -5.16699 -37.334 -7.5 -56.001s-5.16602 -37.667 -8.49902 -57h-50zM189.004 732.003c0 15.333 -4.33398 23.002 -13.001 23.002c-8 0 -16.167 -10.333 -24.5 -31s-16.666 -47.834 -24.999 -81.501s-16.666 -72 -24.999 -115
l-24.5 -131.5l30.5 73c12.333 30 24.166 61.333 35.499 94s21.5 64.167 30.5 94.5s14.167 55.166 15.5 74.499z" />
    <glyph glyph-name="i" unicode="i" horiz-adv-x="168" 
d="M96 456l-23.499 -111.5c-7.66699 -36.333 -14.334 -70.833 -20.001 -103.5s-10.334 -62.667 -14.001 -90s-5.5 -51.333 -5.5 -72c0 -15.333 1.66699 -26 5 -32s7.66602 -9 12.999 -9c15.333 0 32.5 17.5 51.5 52.5s40.833 85.167 65.5 150.5
c2.66699 0 6.33398 -1 11.001 -3s7 -4.33301 7 -7l-37 -95c-11.333 -28.667 -22.666 -53.5 -33.999 -74.5s-23.5 -37.333 -36.5 -49s-27.5 -17.5 -43.5 -17.5c-18 0 -31 9.66699 -39 29s-12 44.333 -12 75c0 25.333 2.16699 53.333 6.5 84s9.5 62 15.5 94
s12.333 63.5 19 94.5l18 84.5h53zM87.001 529c-10.667 0 -18.334 3.16699 -23.001 9.5s-7 13.833 -7 22.5c0 11.333 3.5 22.333 10.5 33s17.167 16 30.5 16c10.667 0 18.334 -3.33301 23.001 -10s7 -14.667 7 -24c0 -11.333 -3.66699 -22 -11 -32s-17.333 -15 -30 -15z" />
    <glyph glyph-name="j" unicode="j" horiz-adv-x="175" 
d="M175 241c2 0 5.66504 -0.833008 10.998 -2.5s7.66602 -4.5 6.99902 -8.5c-21.333 -54.667 -45.833 -101 -73.5 -139s-55.5 -72 -83.5 -102l-19 -107c-4 -23.333 -8.66699 -46 -14 -68s-12 -41.833 -20 -59.5s-17.5 -31.834 -28.5 -42.501s-24.167 -16 -39.5 -16
c-17.333 0 -31.666 6.16699 -42.999 18.5s-17 29.833 -17 52.5c0 19.333 3.66699 37.5 11 54.5s17 33.833 29 50.5s25.833 33.167 41.5 49.5l49.5 50.5c9.33301 52 18.333 105.333 27 160s17.334 106 26.001 154l-21 -56c-1.33301 0 -4.66602 0.666992 -9.99902 2
s-8 4.33301 -8 9l7 18c16.667 42 29.5 78.5 38.5 109.5l25.5 87.5h51c-3.33301 -11.333 -7.83301 -31.666 -13.5 -60.999l-19 -103l-22.5 -127.5l-24 -133.5c24.667 28 48.5 58.5 71.5 91.5s43.167 72.5 60.5 118.5zM-111.002 -233c0 -13.333 2.5 -23.167 7.5 -29.5
s11.167 -9.5 18.5 -9.5c9.33301 0 17.166 6.16699 23.499 18.5s11.833 28.333 16.5 48s8.83398 41.5 12.501 65.5s7.5 47.667 11.5 71l-34.5 -39c-11 -12.667 -20.5 -25.667 -28.5 -39s-14.5 -27 -19.5 -41s-7.5 -29 -7.5 -45zM110.998 521.999
c-10.667 0 -18.334 3.16699 -23.001 9.5s-7 13.833 -7 22.5c0 11.333 3.5 22.333 10.5 33s17.167 16 30.5 16c10.667 0 18.334 -3.33301 23.001 -10s7 -14.667 7 -24c0 -11.333 -3.66699 -22 -11 -32s-17.333 -15 -30 -15z" />
    <glyph glyph-name="k" unicode="k" horiz-adv-x="281" 
d="M-39 0l3.99707 36.9941c0.666992 14 2.16699 28.333 4.5 43s4.83301 28.334 7.5 41.001s5.16699 24 7.5 34l5.5 24l26 163c9.33301 56.667 19 110.834 29 162.501s20.667 98.667 32 141s23 75.5 35 99.5c7.33301 17.333 17.333 29 30 35s24 9 34 9
c28.667 0 43 -16 43 -48c0 -18.667 -4.16699 -42 -12.5 -70s-19.5 -59 -33.5 -93s-30 -70.5 -48 -109.5l-56 -120.5l-13 -61c10.667 24.667 21.334 47.834 32.001 69.501s21.834 40.167 33.501 55.5s23.334 27.5 35.001 36.5s23.834 13.5 36.501 13.5
c15.333 0 26.333 -4.5 33 -13.5s10 -20.833 10 -35.5c0 -16 -4 -34.833 -12 -56.5s-18.5 -43.167 -31.5 -64.5s-27.833 -41.166 -44.5 -59.499s-34 -32.166 -52 -41.499c8 -11.333 14.333 -25.5 19 -42.5s9 -33.5 13 -49.5s8.16699 -29.667 12.5 -41s10.166 -17 17.499 -17
s15.833 5 25.5 15s19.834 24 30.501 42s21.667 39.167 33 63.5s22.666 50.833 33.999 79.5c3.33301 0 7.16602 -1.66699 11.499 -5s6.5 -5.33301 6.5 -6c-2.66699 -8.66699 -6.33398 -18.334 -11.001 -29.001c-10 -26 -20.667 -51.333 -32 -76s-22.833 -46.667 -34.5 -66
s-23.834 -34.833 -36.501 -46.5s-25.667 -17.5 -39 -17.5c-16.667 0 -29.667 7.16699 -39 21.5s-16.666 31.333 -21.999 51s-9.83301 39.834 -13.5 60.501s-8.16699 37.334 -13.5 50.001c-2 0 -4 -0.166992 -6 -0.5s-4 -0.5 -6 -0.5
c-1.33301 0 -2.66602 0.166992 -3.99902 0.5s-2.66602 0.5 -3.99902 0.5l-26 -178h-51zM175.997 420.994c-14.667 0 -32.332 -15.166 -52.999 -45.499s-44.334 -74.5 -71.001 -132.5l-5 -26c10.667 0 19.334 -2 26.001 -6c13.333 8 26.833 20.167 40.5 36.5
s26.167 33.833 37.5 52.5s20.666 37.167 27.999 55.5s11 33.166 11 44.499c0 13.333 -4.66699 20.333 -14 21zM184.999 731.995c0 15.333 -3.33203 23 -9.99902 23c-8 0 -16 -9.16699 -24 -27.5s-16 -43 -24 -74s-16 -67 -24 -108s-16 -84.167 -24 -129.5l28.5 68.5
c11.667 27.667 23 56.5 34 86.5s20.667 59.333 29 88s13.166 53 14.499 73z" />
    <glyph glyph-name="l" unicode="l" horiz-adv-x="192" 
d="M70 37c17.333 0 35.833 17.8301 55.5 53.4971s41.834 85.834 66.501 150.501c2.66699 0 6.16699 -1 10.5 -3s6.5 -4.33301 6.5 -7c-30 -81.333 -56.667 -141.333 -80 -180s-48.666 -58 -75.999 -58c-23.333 0 -39 14.333 -47 43s-12 68 -12 118
c1.33301 36 4.5 76.167 9.5 120.5s12.167 91.5 21.5 141.5c21.333 120.667 46 213.667 74 279s54.667 98 80 98c15.333 0 25.666 -7 30.999 -21s8 -31.333 8 -52c0 -36 -5 -74.667 -15 -116s-23 -82.666 -39 -123.999s-34 -81.333 -54 -120s-40 -73 -60 -103
c-3.33301 -26 -5.83301 -50.5 -7.5 -73.5s-2.5 -43.833 -2.5 -62.5c0 -29.333 2.66699 -50.666 8 -63.999s12.666 -20 21.999 -20zM193 722.997c0 7.33301 -0.49707 14.5029 -1.49707 21.5029s-4.5 10.5 -10.5 10.5c-8 0 -17.5 -13.833 -28.5 -41.5
s-22.333 -63.167 -34 -106.5s-22.834 -91.333 -33.501 -144s-19.667 -104.334 -27 -155.001c10 18.667 22.667 44.167 38 76.5s30.166 67.666 44.499 105.999s26.666 77.666 36.999 117.999s15.5 78.5 15.5 114.5z" />
    <glyph glyph-name="m" unicode="m" horiz-adv-x="461" 
d="M-51 0l2.00586 13.5029c1.33301 9 3.5 20.833 6.5 35.5l10.5 50c4 18.667 9 38 15 58c4.66699 26.667 9.66699 53.834 15 81.501s10.166 54.5 14.499 80.5l12.5 74l11 63h53c-1.33301 -9.33301 -3.83301 -24.666 -7.5 -45.999s-8.16699 -45.333 -13.5 -72
c8 18 16 34.667 24 50s16.333 28.666 25 39.999s18 20.166 28 26.499s21.333 9.5 34 9.5c15.333 0 26.5 -6.33301 33.5 -19s10.5 -28.334 10.5 -47.001c0 -16 -2.66699 -39.333 -8 -70c16 38 33.5 69.5 52.5 94.5s42.5 37.5 70.5 37.5
c13.333 0 25.166 -5.16699 35.499 -15.5s15.5 -26.5 15.5 -48.5c0 -21.333 -3.66699 -46.166 -11 -74.499s-15.333 -57.5 -24 -87.5s-16.667 -59.167 -24 -87.5s-11 -52.833 -11 -73.5c0 -13.333 2.16699 -22.5 6.5 -27.5s10.166 -7.5 17.499 -7.5
c8.66699 0 17.5 5.16699 26.5 15.5s18.5 24.666 28.5 42.999s20.167 39.833 30.5 64.5l32.5 80c3.33301 0 7.16602 -1.5 11.499 -4.5s6.5 -5.16699 6.5 -6.5l-11 -29c-10 -26 -20.333 -51.333 -31 -76s-22 -46.667 -34 -66s-24.833 -34.833 -38.5 -46.5
s-27.834 -17.5 -42.501 -17.5c-18.667 0 -32.667 6.66699 -42 20s-14 32.333 -14 57c0 26 3.66699 53.833 11 83.5s15.333 59 24 88l24 80.5c7.33301 24.667 11 45 11 61c0 25.333 -7.66699 38 -23 38c-16.667 0 -36 -18.667 -58 -56s-41.333 -91.333 -58 -162
c-7.33301 -42 -15 -81.833 -23 -119.5s-14.333 -66.167 -19 -85.5h-57l13.5 63.5l15.5 75l16 77.5c5.33301 26 10 50.167 14 72.5s7.16699 41.666 9.5 57.999s3.5 28.166 3.5 35.499c0 9.33301 -1.16699 17.833 -3.5 25.5s-7.16602 11.5 -14.499 11.5
c-8 0 -16.833 -5.66699 -26.5 -17s-19.334 -27 -29.001 -47s-19.334 -43.5 -29.001 -70.5s-18.5 -56.5 -26.5 -88.5l-38 -196h-54z" />
    <glyph glyph-name="n" unicode="n" 
d="M-50 0c0.666992 3.33301 1.67285 10.001 3.00586 20.001s3.5 22 6.5 36s6.5 29.333 10.5 46s8.66699 33.667 14 51l14.5 82c5 28 9.66699 55.333 14 82l12 75.5c3.66699 23.667 6.5 44.834 8.5 63.501h54l-24 -139c8.66699 18.667 17.834 36.667 27.501 54
s19.667 32.5 30 45.5s21.666 23.5 33.999 31.5s26.166 12 41.499 12c16 0 28.5 -5.5 37.5 -16.5s13.5 -26.833 13.5 -47.5c0 -21.333 -3.66699 -46.166 -11 -74.499s-15.333 -57.333 -24 -87s-16.667 -58.5 -24 -86.5s-11 -52.333 -11 -73
c0 -13.333 2.16699 -22.833 6.5 -28.5s10.166 -8.5 17.499 -8.5c8 0 16.667 5.16699 26 15.5s19 24.666 29 42.999s20.167 39.833 30.5 64.5l32.5 80c3.33301 0 7.16602 -1.33301 11.499 -4s6.5 -4.66699 6.5 -6l-11 -29c-10 -26 -20.333 -51.333 -31 -76
s-22 -46.834 -34 -66.501s-24.833 -35.334 -38.5 -47.001s-27.834 -17.5 -42.501 -17.5c-16.667 0 -30.334 6 -41.001 18s-16 29.667 -16 53s3.66699 50 11 80s15.5 60 24.5 90l24.5 85c7.33301 26.667 11 48 11 64c0 24.667 -7.66699 37 -23 37
c-8 0 -17.667 -5.5 -29 -16.5s-22.833 -26.5 -34.5 -46.5s-23.334 -43.667 -35.001 -71s-22.167 -57.333 -31.5 -90l-37 -198h-54z" />
    <glyph glyph-name="o" unicode="o" 
d="M319 241c2.66699 0 6.67188 -0.836914 12.0049 -2.50391s7.33301 -4.16699 6 -7.5c-12.667 -33.333 -28 -60.166 -46 -80.499s-39.333 -34.166 -64 -41.499c-16 -32.667 -36 -60.167 -60 -82.5s-49 -33.5 -75 -33.5c-28.667 0 -50.834 9.5 -66.501 28.5
s-26 44.333 -31 76s-5 67.667 0 108s13.5 81.833 25.5 124.5l31 -8c3.33301 18.667 8.66602 36.334 15.999 53.001s16.333 31.334 27 44.001s23.167 22.834 37.5 30.501s30.166 11.5 47.499 11.5c26.667 0 47.167 -10.333 61.5 -31s23.666 -46.834 27.999 -78.501
s3.66602 -66.5 -2.00098 -104.5s-15.167 -74.333 -28.5 -109c16.667 8 31.5 19.667 44.5 35s25.167 38 36.5 68zM177.005 434.996c-18.667 0 -35.166 -7.50098 -49.499 -22.501s-25.666 -33.833 -33.999 -56.5s-13.333 -47 -15 -73s0.833008 -50.333 7.5 -73
s17.667 -41.5 33 -56.5s36.333 -22.5 63 -22.5c12.667 32.667 22.667 66.834 30 102.501s11.166 68.5 11.499 98.5s-3.33398 54.667 -11.001 74s-19.5 29 -35.5 29zM92.0059 21.9951c16 0 30.832 7.66699 44.499 23s25.167 34.666 34.5 57.999
c-21.333 2 -39.666 7.66699 -54.999 17s-28 21.5 -38 36.5s-17.333 31.833 -22 50.5s-7.33398 38 -8.00098 58c-4 -21.333 -7.66699 -45.833 -11 -73.5s-4.16602 -54.167 -2.49902 -79.5s6.66699 -46.666 15 -63.999s22.5 -26 42.5 -26z" />
    <glyph glyph-name="p" unicode="p" horiz-adv-x="322" 
d="M78 456l-16.0059 -107.004c14 34 29.833 61.5 47.5 82.5s36.167 31.5 55.5 31.5c25.333 0 43.833 -12.333 55.5 -37s17.5 -55.667 17.5 -93c0 -26 -2.66699 -54 -8 -84s-12.666 -59.167 -21.999 -87.5s-20.666 -54.666 -33.999 -78.999s-28 -44.166 -44 -59.499
c40 10.667 76.5 35.167 109.5 73.5s60.5 86.5 82.5 144.5c2.66699 0 6.33398 -1.5 11.001 -4.5s7 -5.16699 7 -6.5l-12 -30c-12.667 -31.333 -27.667 -59.666 -45 -84.999s-36.333 -47 -57 -65s-42.5 -32 -65.5 -42s-45.833 -15 -68.5 -15
c-23.333 0 -41.166 5.33301 -53.499 16s-20.833 26 -25.5 46c-9.33301 -59.333 -19.166 -118.333 -29.499 -177s-20.166 -117.667 -29.499 -177h-47c4 36 8.5 68.167 13.5 96.5s9.5 52.166 13.5 71.499c4.66699 22.667 9.66699 42.334 15 59.001l25 152l25 155.5
c8 49.667 14.833 94.334 20.5 134.001s9.16699 68.5 10.5 86.5h48zM41.9941 232.996l-11 -55.501c-4 -19.667 -6 -38.167 -6 -55.5c0 -10 0.666992 -20 2 -30s3.5 -18.833 6.5 -26.5s7.16699 -13.834 12.5 -18.501s12.333 -7 21 -7c16 0 31.167 10.333 45.5 31
s26.833 46.334 37.5 77.001s19.167 63.167 25.5 97.5s9.5 65.5 9.5 93.5c0 23.333 -3.16699 43 -9.5 59s-15.166 24 -26.499 24c-9.33301 0 -18.666 -4.66699 -27.999 -14s-18.833 -22.333 -28.5 -39s-18.834 -36.667 -27.501 -60s-16.334 -48.666 -23.001 -75.999z" />
    <glyph glyph-name="q" unicode="q" horiz-adv-x="334" 
d="M272 456l-21.5 -99.499l-23.5 -107.5l-23.5 -110l-21.5 -106c18.667 13.333 35.167 27.166 49.5 41.499s27.5 29.666 39.5 45.999s23.167 34.333 33.5 54s20.166 41.834 29.499 66.501c2.66699 0 6.33398 -1.5 11.001 -4.5s7 -5.16699 7 -6.5l-12 -27
c-17.333 -39.333 -38.333 -75.333 -63 -108s-56.334 -60.667 -95.001 -84c24 -20 41.333 -45.333 52 -76s16 -61.667 16 -93c0 -43.333 -7.5 -78.333 -22.5 -105s-33.5 -40 -55.5 -40c-25.333 0 -42.5 10.833 -51.5 32.5s-13.5 57.5 -13.5 107.5c0 34 4 73.5 12 118.5
l26 143.5c-13.333 -32 -28.333 -57.667 -45 -77s-35.667 -29 -57 -29s-36.666 11.167 -45.999 33.5s-14 50.5 -14 84.5c0 23.333 2 48.166 6 74.499s9.5 52.5 16.5 78.5s15.5 51 25.5 75s21 45 33 63s24.833 32.5 38.5 43.5s28.167 16.5 43.5 16.5
c18 0 31.667 -6.66699 41 -20s15.333 -30.666 18 -51.999c2 11.333 4.33301 22.333 7 33s5 21.667 7 33h53zM148 422.001c-14 0 -27.834 -11 -41.501 -33s-26 -49 -37 -81s-19.833 -65.833 -26.5 -101.5s-10 -67.5 -10 -95.5c0 -21.333 2.33301 -38.5 7 -51.5
s12.334 -19.5 23.001 -19.5c10 0 22.333 10 37 30s28.5 45 41.5 75s24.167 62.5 33.5 97.5s14 67.833 14 98.5c0 22 -3.16699 41 -9.5 57s-16.833 24 -31.5 24zM174.999 -272.999c13.333 0 23.667 10.3311 31 30.998s11 47.334 11 80.001c0 26.667 -3.5 53.5 -10.5 80.5
s-18.167 49.5 -33.5 67.5c-7.33301 -38 -13 -71.667 -17 -101s-6 -57.666 -6 -84.999c0 -48.667 8.33301 -73 25 -73z" />
    <glyph glyph-name="r" unicode="r" horiz-adv-x="236" 
d="M100 67c0 -18.667 6.6709 -28.0029 20.0039 -28.0029c14 0 30.5 17.333 49.5 52s41.167 84.667 66.5 150c2 0 5.5 -1 10.5 -3s7.5 -4.33301 7.5 -7l-37 -95c-11.333 -28.667 -22.833 -53.5 -34.5 -74.5s-23.834 -37.333 -36.501 -49s-27 -17.5 -43 -17.5
c-18.667 0 -32.167 5.83301 -40.5 17.5s-12.5 27.834 -12.5 48.501c0 16.667 2.5 33.834 7.5 51.501s10.333 35.167 16 52.5l16 51c5 16.667 7.5 33 7.5 49c0 24 -4 44.5 -12 61.5l-23 50.5c-6.66699 -26 -13.834 -51.667 -21.501 -77s-15.167 -48.333 -22.5 -69
c-3.33301 0 -6.33301 0.666992 -9 2c-6 2.66699 -9 5.33398 -9 8.00098c9.33301 26 17.833 54.167 25.5 84.5s14.167 60.5 19.5 90.5c-6.66699 14 -10 34.333 -10 61c0 18 1.66699 37 5 57s7.66602 40.333 12.999 61l47 -13c-0.666992 -26.667 -2.66699 -51.167 -6 -73.5
s-7.33301 -44.5 -12 -66.5l-6 -20c6 -10 13.167 -20.167 21.5 -30.5s16.166 -21.333 23.499 -33s13.5 -24.5 18.5 -38.5s7.5 -29.333 7.5 -46c0 -18.667 -2.5 -37.5 -7.5 -56.5s-10.333 -37.5 -16 -55.5l-16 -51.5c-5 -16.333 -7.5 -30.833 -7.5 -43.5z" />
    <glyph glyph-name="s" unicode="s" horiz-adv-x="237" 
d="M16 85c0 -14 4.00098 -25.9961 12.001 -35.9961s19.333 -15 34 -15c18.667 0 33.834 9 45.501 27s17.5 39 17.5 63c0 18 -2 36.333 -6 55s-9 38.167 -15 58.5l-19 64.5c-6.66699 22.667 -12.334 46.667 -17.001 72c-8 -26 -16.5 -51.5 -25.5 -76.5l-24.5 -66.5
c-3.33301 0 -6.33301 0.666992 -9 2c-6 2.66699 -9 5.33398 -9 8.00098l29 79.5c11.333 30.333 22 61.166 32 92.499c-2 11.333 -3.5 23.5 -4.5 36.5s-1.5 29.167 -1.5 48.5c0 18 2 35.333 6 52s8 32 12 46l42 -8c-2.66699 -28.667 -5.83398 -54.5 -9.50098 -77.5
s-8.83398 -45.167 -15.501 -66.5c1.33301 -25.333 6.66602 -51.5 15.999 -78.5s19.333 -54 30 -81s20.334 -53.667 29.001 -80s13 -51.5 13 -75.5c0 -8.66699 -1 -16.334 -3 -23.001c10.667 17.333 21 37.166 31 59.499s20.333 47.5 31 75.5
c2.66699 0 6.33398 -1.33301 11.001 -4s7 -4.66699 7 -6l-29.5 -71c-11 -27.333 -24.333 -53.333 -40 -78s-34 -45.667 -55 -63s-45.5 -26 -73.5 -26c-11.333 0 -22.333 1.66699 -33 5s-20.167 8.66602 -28.5 15.999s-15 16.666 -20 27.999s-6.83301 25 -5.5 41z" />
    <glyph glyph-name="t" unicode="t" horiz-adv-x="192" 
d="M32 456c10 50.667 19.499 91.334 28.499 122.001s17.667 54.167 26 70.5s16.833 27 25.5 32s17.667 7.5 27 7.5c14 0 24 -5.83301 30 -17.5s9 -27.834 9 -48.501c0 -19.333 -3.66699 -43.333 -11 -72s-17.333 -60 -30 -94h36l-6 -32h-42
c-10.667 -27.333 -22.5 -55 -35.5 -83l-39.5 -84c-3.33301 -26 -5.83301 -50.5 -7.5 -73.5s-2.5 -43.833 -2.5 -62.5c0 -29.333 2.66699 -50.666 8 -63.999s12.666 -20 21.999 -20c17.333 0 35.833 17.833 55.5 53.5s41.834 85.834 66.501 150.501
c2.66699 0 6.16699 -1 10.5 -3s6.5 -4.33301 6.5 -7v-2c-30 -80 -56.667 -139.333 -80 -178s-48.666 -58 -75.999 -58c-23.333 0 -39 14.333 -47 43s-12 68 -12 118c1.33301 36 4.5 76.167 9.5 120.5s12.167 91.5 21.5 141.5c0 1.33301 0.166992 2.66602 0.5 3.99902
s0.5 2.66602 0.5 3.99902h-38l6 32h38zM152.999 625c0 7.33301 -0.833984 13.333 -2.50098 18s-5.5 7 -11.5 7c-9.33301 0 -18.666 -17 -27.999 -51s-19.333 -81.667 -30 -143h32c11.333 32 20.833 62.5 28.5 91.5s11.5 54.833 11.5 77.5zM100.998 424h-25l-15 -100z" />
    <glyph glyph-name="u" unicode="u" horiz-adv-x="323" 
d="M96 456c-1.33301 -8 -4.00195 -20.665 -8.00195 -37.998s-8.33301 -37.166 -13 -59.499l-15 -71.5c-5.33301 -25.333 -10.166 -50.5 -14.499 -75.5s-7.83301 -48.833 -10.5 -71.5s-4 -42 -4 -58s2 -27.5 6 -34.5s9.33301 -10.5 16 -10.5c6 0 13.833 5.66699 23.5 17
s19.334 26.5 29.001 45.5s19 41.333 28 67s16.167 52.834 21.5 81.501c6.66699 38 13.834 74.667 21.501 110l21.5 98h52l-23 -111.5c-7.33301 -36.333 -14 -70.833 -20 -103.5s-10.833 -62.667 -14.5 -90s-5.5 -51.333 -5.5 -72c0 -15.333 1.83301 -26 5.5 -32
s8.16699 -9 13.5 -9c15.333 0 32.333 17.5 51 52.5s40.667 85.167 66 150.5c2 0 5.5 -1 10.5 -3s7.5 -4.33301 7.5 -7l-37 -95c-11.333 -28.667 -22.833 -53.5 -34.5 -74.5s-23.834 -37.333 -36.501 -49s-27 -17.5 -43 -17.5c-18.667 0 -31.5 9.5 -38.5 28.5
s-10.5 44.5 -10.5 76.5c0 3.33301 0.166992 6.66602 0.5 9.99902s0.5 6.66602 0.5 9.99902c-14 -36.667 -30.333 -66.667 -49 -90s-37.667 -35 -57 -35s-33 9.33301 -41 28s-12 43.667 -12 75c0 30 2.66699 63.5 8 100.5s11.5 72.667 18.5 107s13.833 65.166 20.5 92.499
s11 46.666 13 57.999h53z" />
    <glyph glyph-name="v" unicode="v" horiz-adv-x="307" 
d="M47 0l-9.00293 123.506c-3.33301 46.333 -5.66602 94.5 -6.99902 144.5l-13 -37c-3.33301 0 -6.33301 0.666992 -9 2c-6 2.66699 -9 5.33398 -9 8.00098c5.33301 15.333 10.5 31.666 15.5 48.999s9.5 34.666 13.5 51.999c0 40 1 78 3 114h42
c1.33301 -17.333 1 -33.833 -1 -49.5s-6 -32.834 -12 -51.501c2 -40 4.5 -85.5 7.5 -136.5s6.5 -105.5 10.5 -163.5c25.333 36.667 47.666 77.667 66.999 123c-7.33301 17.333 -12.833 37.666 -16.5 60.999s-5.5 47.333 -5.5 72c0 25.333 2.16699 50.666 6.5 75.999
s10.333 48.166 18 68.499s17.167 36.833 28.5 49.5s24 19 38 19c16.667 0 29.167 -7.66699 37.5 -23s12.5 -37 12.5 -65c0 -21.333 -2.16699 -43.333 -6.5 -66s-10.166 -45.834 -17.499 -69.501s-15.833 -47.167 -25.5 -70.5s-19.834 -46 -30.501 -68
c10 -12 21.667 -18 35 -18c19.333 0 35.833 8.66699 49.5 26s26.167 41 37.5 71c2.66699 0 6.33398 -1 11.001 -3s7 -4.33301 7 -7c-12 -38 -27.667 -65.333 -47 -82s-39.666 -25 -60.999 -25c-16.667 0 -31 6.33301 -43 19c-15.333 -32.667 -31.166 -61.5 -47.499 -86.5
s-31.5 -43.833 -45.5 -56.5h-34zM220.997 466.006c0 11.333 -1.16797 19.333 -3.50098 24s-5.83301 7 -10.5 7c-8 0 -15.333 -4.83301 -22 -14.5s-12.667 -22.334 -18 -38.001s-9.66602 -33.667 -12.999 -54s-5 -41.166 -5 -62.499c-0.666992 -36 0 -62.333 2 -79
s4.66699 -30 8 -40c10 24.667 18.833 49.167 26.5 73.5s14.167 47.833 19.5 70.5s9.33301 43.667 12 63s4 36 4 50z" />
    <glyph glyph-name="w" unicode="w" horiz-adv-x="450" 
d="M92 456l-21.5 -112.496c-7 -37 -13.333 -72 -19 -105s-10.167 -63.167 -13.5 -90.5s-5 -50 -5 -68c0 -28 4.66699 -42 14 -42c7.33301 0 16 5 26 15s20 24.333 30 43s19.667 40.667 29 66s17.666 53.666 24.999 84.999c5.33301 33.333 11.166 67.666 17.499 102.999
s13.166 70.666 20.499 105.999h52l-20 -107.5c-6.66699 -35.667 -12.667 -69.5 -18 -101.5s-9.66602 -61.5 -12.999 -88.5s-5 -49.833 -5 -68.5c0 -16.667 1.5 -29.667 4.5 -39s7.83301 -14 14.5 -14c10.667 0 23.5 13 38.5 39s30.167 58 45.5 96
c-5.33301 14 -9.66602 30.167 -12.999 48.5s-5 39.166 -5 62.499c0 37.333 2.16699 70.833 6.5 100.5s10.166 55 17.499 76s16 37 26 48s21 16.5 33 16.5c14 0 24.833 -6.33301 32.5 -19s11.5 -30.334 11.5 -53.001c0 -20 -1.83301 -42.167 -5.5 -66.5
s-8.66699 -49.333 -15 -75s-13.833 -51.5 -22.5 -77.5s-18 -51 -28 -75c7.33301 -9.33301 17.666 -14 30.999 -14c17.333 0 33.333 8.5 48 25.5s27.667 40.833 39 71.5c2.66699 0 6.33398 -1 11.001 -3s7 -4.33301 7 -7c-11.333 -34 -25.833 -60.333 -43.5 -79
s-38.167 -28 -61.5 -28c-7.33301 0 -14.666 0.833008 -21.999 2.5s-13.666 5.16699 -18.999 10.5c-9.33301 -20 -19.166 -38.667 -29.499 -56s-20.666 -32.333 -30.999 -45s-20.666 -22.667 -30.999 -30s-20.5 -11 -30.5 -11c-18.667 0 -32.334 9.5 -41.001 28.5
s-13 44.833 -13 77.5c0 6 0.166992 12 0.5 18s0.833008 12.333 1.5 19c-15.333 -42 -32.833 -76.333 -52.5 -103s-38.834 -40 -57.501 -40c-21.333 0 -35.333 11.5 -42 34.5s-10 52.833 -10 89.5c0 22.667 1.66699 47.334 5 74.001s7.66602 54.5 12.999 83.5l17 89l18 90.5
h53zM349 497.004c-6 0 -11.999 -5.33301 -17.999 -16s-11.333 -25.667 -16 -45s-8.5 -42.333 -11.5 -69s-4.5 -56 -4.5 -88c0 -15.333 0.5 -29.333 1.5 -42s2.83301 -24 5.5 -34c8 22 15.5 44.833 22.5 68.5s13.167 47 18.5 70s9.5 45 12.5 66s4.5 40.167 4.5 57.5
c0 9.33301 -1.33301 17 -4 23s-6.33398 9 -11.001 9z" />
    <glyph glyph-name="x" unicode="x" horiz-adv-x="355" 
d="M0 239c14 36.667 27.0029 68.668 39.0029 96.001s23.5 50.333 34.5 69s22 32.667 33 42s22.833 14 35.5 14c13.333 0 24 -4.66699 32 -14s14.167 -21.666 18.5 -36.999s7.16602 -33.166 8.49902 -53.499s2 -41.833 2 -64.5c7.33301 20.667 15.166 41.167 23.499 61.5
s17.5 38.5 27.5 54.5s20.667 29 32 39s24 15 38 15c12.667 0 24.334 -4.66699 35.001 -14l-9.5 -21.5l-9.5 -21.5c-6.66699 5.33301 -14.667 8 -24 8c-10 0 -20 -5 -30 -15s-19.833 -23.167 -29.5 -39.5s-19 -34.666 -28 -54.999s-17.5 -40.833 -25.5 -61.5
c-2 -17.333 -3.33301 -32.166 -4 -44.499s-1.33398 -22.833 -2.00098 -31.5s-1 -16.334 -1 -23.001v-20c0 -25.333 2 -46 6 -62s11.667 -24 23 -24c18 0 37.833 17.5 59.5 52.5s45.167 85.833 70.5 152.5c3.33301 0 7.5 -1.33301 12.5 -4s7.5 -4.66699 7.5 -6l-13 -31
c-14.667 -34.667 -28.334 -64.834 -41.001 -90.501s-25.167 -46.834 -37.5 -63.501s-24.833 -29.167 -37.5 -37.5s-26.334 -12.5 -41.001 -12.5c-22 0 -36.833 11.5 -44.5 34.5s-11.5 53.833 -11.5 92.5c0 3.33301 0.166992 6.66602 0.5 9.99902s0.5 6.66602 0.5 9.99902
c-9.33301 -21.333 -18.666 -41 -27.999 -59s-19 -33.5 -29 -46.5s-20.5 -23.333 -31.5 -31s-22.5 -11.5 -34.5 -11.5c-16.667 0 -28.5 5.5 -35.5 16.5s-10.5 25.167 -10.5 42.5c0 16 2.83301 33.333 8.5 52s14.167 36.667 25.5 54l36 -18
c-8.66699 -11.333 -15.667 -24.666 -21 -39.999s-8 -29.333 -8 -42c0 -9.33301 1.66699 -16.833 5 -22.5s8.66602 -8.5 15.999 -8.5c8.66699 0 17.334 4.5 26.001 13.5s17.5 21.167 26.5 36.5s18 33.166 27 53.499l27.5 64.5c0.666992 23.333 1.66699 46.333 3 69
s2 43.667 2 63c0 26 -1.83301 47.667 -5.5 65s-11.167 26 -22.5 26c-6.66699 0 -13.5 -3.16699 -20.5 -9.5s-14.833 -16.833 -23.5 -31.5s-18.167 -34.167 -28.5 -58.5s-22.5 -54.5 -36.5 -90.5c-3.33301 0.666992 -6.33301 1.33398 -9 2.00098
c-6 1.33301 -9 3.66602 -9 6.99902z" />
    <glyph glyph-name="y" unicode="y" horiz-adv-x="299" 
d="M299 241c3.33301 0 7.66602 -0.830078 12.999 -2.49707s7.66602 -4.16699 6.99902 -7.5c-21.333 -54.667 -46.333 -101.167 -75 -139.5s-57 -72.166 -85 -101.499c-6 -32 -11.667 -65.333 -17 -100s-12.333 -66.334 -21 -95.001s-19.5 -52.334 -32.5 -71.001
s-29.833 -28 -50.5 -28c-17.333 0 -31.666 6.16699 -42.999 18.5s-17 29.833 -17 52.5c0 18.667 3.5 36.667 10.5 54s16.5 34.333 28.5 51s25.833 33.167 41.5 49.5l49.5 50.5c4 20 7.83301 40.5 11.5 61.5s7.16699 42.167 10.5 63.5c-13.333 -30 -28.333 -54.5 -45 -73.5
s-33 -28.5 -49 -28.5c-21.333 0 -35.333 11 -42 33s-10 50.667 -10 86c1.33301 30 4.83301 62.833 10.5 98.5s11.834 70 18.501 103l18.5 88l11.5 52.5h53c-2.66699 -14 -7.5 -36.333 -14.5 -67s-14.333 -64.5 -22 -101.5s-14.334 -74 -20.001 -111s-8.5 -68.5 -8.5 -94.5
c0 -16 2 -27.333 6 -34s9.33301 -10 16 -10c8.66699 0 18 6.66699 28 20s19.833 31 29.5 53s18.834 47.167 27.501 75.5s16 57.5 22 87.5l18.5 104c5.66699 32 10.834 58 15.501 78h52c-3.33301 -11.333 -7.83301 -31.5 -13.5 -60.5l-19.5 -103l-23 -127.5l-24 -133
c24.667 27.333 48.667 57.666 72 90.999s43.666 72.666 60.999 117.999zM12 -232.997c0 -13.333 2.5 -23.167 7.5 -29.5s11.167 -9.5 18.5 -9.5c9.33301 0 17 5 23 15s10.667 23.667 14 41l26 146c-24.667 -25.333 -45.667 -51 -63 -77s-26 -54.667 -26 -86z" />
    <glyph glyph-name="z" unicode="z" horiz-adv-x="288" 
d="M21 25c5.33301 2 12.4961 3.00781 21.4961 3.00781s14.833 -0.333008 17.5 -1c11.333 12 22.666 30.667 33.999 56s21.333 53.166 30 83.499s15.667 61.333 21 93s8 59.834 8 84.501c0 49.333 -12.667 74 -38 74c-10 0 -18.833 -4.66699 -26.5 -14s-15 -22.5 -22 -39.5
s-14.333 -37 -22 -60s-16.5 -47.833 -26.5 -74.5c-3.33301 0.666992 -6.33301 1.33398 -9 2.00098c-6 1.33301 -9 3.66602 -9 6.99902c10.667 28.667 20 56.5 28 83.5s16.333 50.667 25 71s18.5 36.666 29.5 48.999s24.833 18.5 41.5 18.5
c14.667 0 27.334 -3.5 38.001 -10.5s19.334 -16.667 26.001 -29s11.667 -26.833 15 -43.5s5 -34.334 5 -53.001c0 -27.333 -2.83301 -56 -8.5 -86s-13.667 -59.167 -24 -87.5s-22.666 -54.333 -36.999 -78s-30.166 -42.834 -47.499 -57.501c6 -4 11.333 -8.83301 16 -14.5
s9 -12.167 13 -19.5l43.5 49.5c15 17.667 29.833 36.834 44.5 57.501s28.834 43.5 42.501 68.5s26.167 52.833 37.5 83.5c-0.666992 0 0 -0.166992 2 -0.5s4.16699 -0.833008 6.5 -1.5s4.5 -1.66699 6.5 -3s3 -3 3 -5c-12 -31.333 -25.167 -60 -39.5 -86
s-29.166 -49.667 -44.499 -71s-30.833 -41 -46.5 -59l-45.5 -51c11.333 -28.667 17 -59.334 17 -92.001c0 -23.333 -2.83301 -45.5 -8.5 -66.5s-13.334 -39.5 -23.001 -55.5s-21.167 -28.667 -34.5 -38s-27.333 -14 -42 -14c-15.333 0 -27.833 6.16699 -37.5 18.5
s-14.5 28.166 -14.5 47.499c0 18.667 2.83301 36.167 8.5 52.5s13.334 32.166 23.001 47.499s20.5 30.166 32.5 44.499s24.667 28.5 38 42.5c-2.66699 11.333 -5.83398 21.166 -9.50098 29.499s-8.5 15.166 -14.5 20.499c-5.33301 -2.66699 -11 -4.5 -17 -5.5
s-11.667 -1.5 -17 -1.5s-9 0.333008 -11 1zM40.9961 -275.992c8 0 15.5 4.5 22.5 13.5s13 20.667 18 35s8.83301 31 11.5 50s4 38.5 4 58.5c0 7.33301 -0.333008 14.333 -1 21l-2 21c-22 -25.333 -40.5 -51.5 -55.5 -78.5s-22.5 -54.833 -22.5 -83.5
c0 -24.667 8.33301 -37 25 -37z" />
    <glyph glyph-name="braceleft" unicode="{" horiz-adv-x="167" 
d="M53 361c7.33301 0 14.3291 -0.165039 20.9961 -0.498047s12.667 -1.83301 18 -4.5c10 9.33301 16.5 23.333 19.5 42s4.5 39.667 4.5 63c0 20 -0.5 40.833 -1.5 62.5s-1.5 43.167 -1.5 64.5c0 24 1.33301 47.167 4 69.5s8.33398 42 17.001 59s20.5 30.667 35.5 41
s35.167 15.5 60.5 15.5c8.66699 0 15.334 -1.33301 20.001 -4c-2.66699 -7.33301 -5.16699 -15 -7.5 -23l-6.5 -23c-6 2 -11.667 3 -17 3c-14.667 0 -26.5 -4 -35.5 -12s-15.833 -18.833 -20.5 -32.5s-7.66699 -29.334 -9 -47.001s-2 -36.167 -2 -55.5
c0 -14.667 0.166992 -29.334 0.5 -44.001s0.5 -29.334 0.5 -44.001c0 -36.667 -2.5 -68.5 -7.5 -95.5s-14.5 -46.5 -28.5 -58.5c6 -9.33301 9 -20.666 9 -33.999c0 -22 -4.66699 -47.5 -14 -76.5s-19.5 -58.167 -30.5 -87.5l-30.5 -84c-9.33301 -26.667 -14 -49 -14 -67
c0 -12.667 2.66699 -22.5 8 -29.5s14.666 -10.5 27.999 -10.5c5.33301 0 11.666 1 18.999 3l6 -46c-2 -1.33301 -5.83301 -2.16602 -11.5 -2.49902s-10.167 -0.5 -13.5 -0.5c-16 0 -28.667 2.33301 -38 7s-16.666 11.167 -21.999 19.5s-8.83301 18 -10.5 29
s-2.5 22.5 -2.5 34.5c0 21.333 4.83301 45.666 14.5 72.999s20.334 55 32.001 83s22.334 54.833 32.001 80.5s14.5 47.167 14.5 64.5c0 12 -2.66699 21.333 -8 28c-3.33301 -1.33301 -8.16602 -2.33301 -14.499 -3s-14.5 -0.666992 -24.5 0z" />
    <glyph glyph-name="bar" unicode="|" horiz-adv-x="168" 
d="M173 721l-29 -168l-31 -172l-33.5 -182l-38.5 -199h-32l67.5 371.5c23 121 44.167 237.5 63.5 349.5h33z" />
    <glyph glyph-name="braceright" unicode="}" horiz-adv-x="195" 
d="M174 313c-12.667 0.666992 -21.667 1.33203 -27 1.99902s-9.66602 1.66699 -12.999 3c-10 -9.33301 -16.5 -23.666 -19.5 -42.999s-4.5 -41 -4.5 -65c0 -19.333 0.5 -39.333 1.5 -60s1.5 -41.667 1.5 -63c0 -24 -1.33301 -47.167 -4 -69.5s-8.16699 -42 -16.5 -59
s-20 -30.667 -35 -41s-34.833 -15.5 -59.5 -15.5c-8.66699 0 -15.334 1.33301 -20.001 4l6.5 23c2.33301 8 4.83301 15.667 7.5 23c6 -2 11.333 -3 16 -3c15.333 0 27.333 4.33301 36 13s15.334 20.167 20.001 34.5s7.5 31 8.5 50s1.5 38.833 1.5 59.5v66
c0 40.667 2.16699 75.167 6.5 103.5s13.833 49.166 28.5 62.499c-5.33301 7.33301 -8 18.333 -8 33c0 22 4.66699 47.5 14 76.5s19.5 58.167 30.5 87.5l30.5 84.5c9.33301 27 14 49.5 14 67.5c0 12.667 -2.66699 22.5 -8 29.5s-14.666 10.5 -27.999 10.5
c-6 0 -12.333 -1 -19 -3l-6 46c2 1.33301 5.83301 2.16602 11.5 2.49902s10.167 0.5 13.5 0.5c27.333 0 46.333 -7.33301 57 -22s16 -32.667 16 -54c0 -25.333 -4.83301 -52.666 -14.5 -81.999s-20.334 -58.333 -32.001 -87l-32 -81.5
c-9.66699 -25.667 -14.5 -47.5 -14.5 -65.5c0 -13.333 2.33301 -22.666 7 -27.999c6.66699 2 13.167 3.16699 19.5 3.5s13.166 0.5 20.499 0.5z" />
    <glyph glyph-name="asciitilde" unicode="~" horiz-adv-x="390" 
d="M-14 317c16 21.333 34.8311 35.5 56.498 42.5s44.834 10.5 69.501 10.5h16c28 -2 55.833 -6 83.5 -12s53.167 -9 76.5 -9c29.333 0 51 3.33301 65 10s26.667 15 38 25l46 -61c-13.333 -14 -28.666 -25.333 -45.999 -34s-38.333 -13 -63 -13c-18 0 -36 2.16699 -54 6.5
s-36 9 -54 14s-35.667 9.66699 -53 14s-34.333 6.5 -51 6.5c-17.333 0 -33.5 -3 -48.5 -9s-29.167 -16.667 -42.5 -32z" />
    <glyph glyph-name="uni00A0" unicode="&#xa0;" horiz-adv-x="181" 
 />
    <glyph glyph-name="exclamdown" unicode="&#xa1;" horiz-adv-x="213" 
d="M0 12l48.5 137l46.5 142.5c15.333 49 30.166 100 44.499 153s28.5 109.5 42.5 169.5l34 -4c-22 -109.333 -46.667 -215.5 -74 -318.5s-55.666 -200.167 -84.999 -291.5zM210 646c-10 0 -17.501 3.33203 -22.501 9.99902s-7.5 14.667 -7.5 24
c0 11.333 3.5 21.833 10.5 31.5s17.167 14.5 30.5 14.5c10.667 0 18.334 -3.16699 23.001 -9.5s7 -14.166 7 -23.499c0 -11.333 -3.5 -22 -10.5 -32s-17.167 -15 -30.5 -15z" />
    <glyph glyph-name="cent" unicode="&#xa2;" horiz-adv-x="230" 
d="M190 245l-21.5 10.002l-21.5 10c5.33301 10.667 9.66602 21.5 12.999 32.5s5 21.5 5 31.5c0 11.333 -2 21 -6 29s-10.333 13.333 -19 16l-25 -141l-29 -153c20 0 38 9.5 54 28.5s28.667 43.167 38 72.5l39 -17c-13.333 -38 -31.666 -67.833 -54.999 -89.5
s-51 -32.5 -83 -32.5l-8 -42h-18l4 22l4 22c-28.667 5.33301 -49.5 20.833 -62.5 46.5s-19.5 55.5 -19.5 89.5c0 26 3.66699 52.667 11 80s17.5 52.166 30.5 74.499s28.667 40.666 47 54.999s38.833 21.833 61.5 22.5l8 44h18l-8 -45c22 -3.33301 38 -12.833 48 -28.5
s15 -34.167 15 -55.5c0 -14 -1.83301 -27.833 -5.5 -41.5s-8.5 -27.167 -14.5 -40.5zM68 83.002l27.5 148.002l26.5 145c-13.333 -2 -26 -9.5 -38 -22.5s-22.333 -29.333 -31 -49s-15.5 -40.834 -20.5 -63.501s-7.5 -44.334 -7.5 -65.001c0 -22.667 3.33301 -42.5 10 -59.5
s17.667 -28.167 33 -33.5z" />
    <glyph glyph-name="sterling" unicode="&#xa3;" horiz-adv-x="318" 
d="M217 433c-20 0 -35.5039 -7.5 -46.5039 -22.5s-19.333 -33.667 -25 -56s-9.5 -46 -11.5 -71s-3.66699 -47.5 -5 -67.5h71l-5 -25h-68c-2.66699 -26 -7.33398 -50.333 -14.001 -73s-19.667 -46.334 -39 -71.001c8.66699 2.66699 18.667 4 30 4
c13.333 0 27.333 -1.83301 42 -5.5s28.667 -5.5 42 -5.5c12 0 21.833 1.5 29.5 4.5s14.834 7.5 21.501 13.5l27 -37c-6 -6.66699 -14.167 -12.5 -24.5 -17.5s-23.166 -7.5 -38.499 -7.5c-11.333 0 -22.5 1.33301 -33.5 4s-21.667 5.5 -32 8.5s-20.666 5.83301 -30.999 8.5
s-20.166 4 -29.499 4s-17.666 -1.83301 -24.999 -5.5s-14.666 -10.5 -21.999 -20.5l-26 27c26 23.333 44.333 49.333 55 78s17 59 19 91h-47l5 25h44c2 30.667 5 60.834 9 90.501s11 56.167 21 79.5s23.667 42 41 56s40 21 68 21c16.667 0 31 -2.5 43 -7.5s22 -12 30 -21
s13.833 -19.5 17.5 -31.5s5.5 -24.667 5.5 -38c0 -17.333 -3.33301 -35.333 -10 -54s-16.334 -36 -29.001 -52l-38 28c12 12.667 20.833 26.334 26.5 41.001s8.5 28.667 8.5 42c0 17.333 -5 32.166 -15 44.499s-23.667 18.5 -41 18.5z" />
    <glyph glyph-name="yen" unicode="&#xa5;" horiz-adv-x="242" 
d="M199 277l-5.99902 -32.001h-62l-12 -25l-6 -35h70l-6 -32h-70l-29 -153h-40c3.33301 14 7.16602 34.333 11.499 61s9.83301 57.334 16.5 92.001h-66l6 32h65l8 38l-3 22h-60l6 32h50l-11.5 81.5c-4.33301 31.667 -9.83301 64.167 -16.5 97.5h44
c6 -31.333 11 -61.833 15 -91.5l11 -79.5l82 171h37l-86 -179h52z" />
    <glyph glyph-name="brokenbar" unicode="&#xa6;" horiz-adv-x="166" 
d="M114 346l-14.5 -82l-15.5 -83l-17 -87l-18 -94h-32l31.5 175.5l31.5 170.5h34zM86 386c10.667 59.333 21.5 116.168 32.5 170.501s21.167 109.166 30.5 164.499h32l-29 -166l-31 -169h-35z" />
    <glyph glyph-name="section" unicode="&#xa7;" horiz-adv-x="339" 
d="M244 322c10 16.667 15.0039 33.6689 15.0039 51.002c0 13.333 -4.5 26.166 -13.5 38.499s-20.5 18.5 -34.5 18.5c-11.333 0 -21 -4.83301 -29 -14.5s-12 -23.5 -12 -41.5c0 -16.667 3.33301 -31.667 10 -45s15 -26.333 25 -39s21 -25 33 -37s23 -24.333 33 -37
s18.333 -26.334 25 -41.001s10 -31 10 -49s-3.33301 -35 -10 -51s-16.334 -30 -29.001 -42s-28.334 -21.5 -47.001 -28.5s-39.667 -10.5 -63 -10.5c-36 0 -65.667 10.333 -89 31s-37.666 52 -42.999 94l55 9c3.33301 -32 11.833 -56.5 25.5 -73.5s29.834 -25.5 48.501 -25.5
c16 0 28 6 36 18s12 25.667 12 41c0 20 -6.83301 38.167 -20.5 54.5s-28.834 33.333 -45.501 51s-31.834 37.5 -45.501 59.5s-20.5 48.667 -20.5 80c0 18 2.83301 34.667 8.5 50s14.167 28.833 25.5 40.5s25.166 20.834 41.499 27.501s35.166 10 56.499 10
c32 0 57.5 -9.33301 76.5 -28s28.5 -43 28.5 -73c0 -18.667 -4 -37.334 -12 -56.001zM272.004 117.002c0 24.667 -7 46.333 -21 65s-29.333 37.167 -46 55.5s-32 37.833 -46 58.5s-21 45.334 -21 74.001c0 12 2 23.5 6 34.5s10.333 20.5 19 28.5
c-17.333 -4 -31.666 -14 -42.999 -30s-17 -35.667 -17 -59c0 -29.333 7 -55 21 -77s29.5 -42.333 46.5 -61s32.5 -36.834 46.5 -54.501s21 -37.167 21 -58.5c0 -10.667 -2 -21.5 -6 -32.5s-9.66699 -20.833 -17 -29.5c19.333 6.66699 33.666 17.5 42.999 32.5
s14 32.833 14 53.5z" />
    <glyph glyph-name="dieresis" unicode="&#xa8;" horiz-adv-x="192" 
d="M39 492c-8 0 -14 2.66699 -18 8s-6 11.666 -6 18.999c0 9.33301 3 18 9 26s14 12 24 12c8.66699 0 14.834 -2.66699 18.501 -8s5.5 -11.666 5.5 -18.999c0 -8.66699 -2.83301 -17.167 -8.5 -25.5s-13.834 -12.5 -24.501 -12.5zM141 492
c-7.33301 0 -13.165 2.33105 -17.498 6.99805s-6.5 10.334 -6.5 17.001c0 9.33301 2.66699 18.5 8 27.5s13.666 13.5 24.999 13.5c8 0 14 -2.66699 18 -8s6 -11.666 6 -18.999c0 -8.66699 -2.83301 -17.167 -8.5 -25.5s-13.834 -12.5 -24.501 -12.5z" />
    <glyph glyph-name="copyright" unicode="&#xa9;" horiz-adv-x="392" 
d="M246 411l10.4961 -4.00098l10.5 -4c-9.33301 -27.333 -22.166 -49.333 -38.499 -66s-33.166 -25 -50.499 -25c-13.333 0 -24.5 2.83301 -33.5 8.5s-16.5 13.5 -22.5 23.5s-10.333 21.667 -13 35s-4 27.333 -4 42c0 21.333 2.66699 43.5 8 66.5s12.833 43.833 22.5 62.5
s21 34 34 46s27.5 18 43.5 18c15.333 0 26.833 -6.33301 34.5 -19s11.5 -28.334 11.5 -47.001c0 -12.667 -2 -26.167 -6 -40.5s-10 -28.166 -18 -41.499c-4 2 -8.16699 3.83301 -12.5 5.5s-8.5 3.16699 -12.5 4.5c17.333 31.333 26 58.333 26 81
c0 24.667 -8.33301 37 -25 37c-10 0 -19.833 -5.83301 -29.5 -17.5s-18.167 -26.167 -25.5 -43.5s-13.166 -36.666 -17.499 -57.999s-6.5 -41.333 -6.5 -60c0 -23.333 3.83301 -43 11.5 -59s20.167 -24 37.5 -24c15.333 0 28.333 8 39 24s19.334 34.333 26.001 55z
M154.996 199.999c-23.333 0 -43.665 5.66699 -60.998 17s-31.666 26.666 -42.999 45.999s-19.833 41.5 -25.5 66.5s-8.5 51.5 -8.5 79.5c0 36 4.5 72.5 13.5 109.5s22.5 70.333 40.5 100s40.333 54 67 73s57.667 28.5 93 28.5c23.333 0 43.666 -5.66699 60.999 -17
s31.666 -26.666 42.999 -45.999s19.833 -41.5 25.5 -66.5s8.5 -51.5 8.5 -79.5c0 -36 -4.66699 -72.5 -14 -109.5s-23 -70.5 -41 -100.5s-40.333 -54.333 -67 -73s-57.334 -28 -92.001 -28zM155.997 219.999c30.667 0 57.834 8.83398 81.501 26.501s43.5 40.5 59.5 68.5
s28 59.333 36 94s12 68.667 12 102c0 25.333 -2.33301 49.333 -7 72s-11.834 42.667 -21.501 60s-21.667 31.166 -36 41.499s-31.5 15.5 -51.5 15.5c-30.667 0 -57.834 -8.83301 -81.501 -26.5s-43.5 -40.5 -59.5 -68.5s-28 -59.333 -36 -94s-12 -69 -12 -103
c0 -25.333 2.33301 -49.333 7 -72s11.834 -42.5 21.501 -59.5s21.667 -30.667 36 -41s31.5 -15.5 51.5 -15.5z" />
    <glyph glyph-name="ordfeminine" unicode="&#xaa;" horiz-adv-x="342" 
d="M338 246c-16.667 -34 -32.3311 -58.834 -46.998 -74.501s-29.334 -23.5 -44.001 -23.5c-14 0 -24.833 6.16699 -32.5 18.5s-11.5 33.833 -11.5 64.5c0 10.667 1 25 3 43c-15.333 -42 -32.666 -74 -51.999 -96s-41.333 -33 -66 -33c-22.667 0 -38.834 11 -48.501 33
s-14.5 49.333 -14.5 82c0 30.667 4 63.834 12 99.501s19 68.667 33 99s30.333 55.5 49 75.5s39 30 61 30c20 0 34.667 -7.33301 44 -22s15.333 -33.334 18 -56.001l14 71h45l-16 -81l-13 -70c-4 -22 -7.66699 -43.5 -11 -64.5s-6.33301 -42.167 -9 -63.5
c-1.33301 -10.667 -2.33301 -20.167 -3 -28.5s-1 -16.166 -1 -23.499c0 -24 4.33301 -36 13 -36c6 0.666992 14.667 6 26 16s22.666 27.333 33.999 52zM182.003 523.999c-13.333 0 -26.334 -9.00098 -39.001 -27.001s-24 -40.333 -34 -67s-18 -55.167 -24 -85.5
s-9 -57.5 -9 -81.5c0 -20.667 2.5 -37.5 7.5 -50.5s13.167 -19.5 24.5 -19.5c12.667 0 25.834 8 39.501 24s26.167 36.333 37.5 61s20.5 51.834 27.5 81.501s10.5 58.167 10.5 85.5c0 23.333 -3.33301 42.333 -10 57s-17 22 -31 22z" />
    <glyph glyph-name="guillemotleft" unicode="&#xab;" horiz-adv-x="370" 
d="M143 394c20 9.33301 41.001 20.002 63.001 32.002c18.667 10 39 21.833 61 35.5s43.667 28.5 65 44.5l19 -31c-21.333 -14.667 -42.333 -27.834 -63 -39.501l-56 -30.5c-19.333 -10 -38 -18.667 -56 -26c16.667 -12.667 32.834 -25.834 48.501 -39.501l41.5 -37.5
c14 -13.333 27.333 -27 40 -41l-30 -32c-12.667 15.333 -26.334 31 -41.001 47c-12.667 13.333 -27.334 28 -44.001 44s-34 31.667 -52 47zM18.001 394.002c20 9.33301 41.001 20.002 63.001 32.002c18.667 10 39 21.833 61 35.5s43.667 28.5 65 44.5l19 -31
c-21.333 -14.667 -42.333 -27.834 -63 -39.501l-56 -30.5c-19.333 -10 -38 -18.667 -56 -26c16.667 -12.667 32.834 -25.834 48.501 -39.501l41.5 -37.5c14 -13.333 27.333 -27 40 -41l-30 -32c-12.667 15.333 -26.334 31 -41.001 47c-12.667 13.333 -27.334 28 -44.001 44
s-34 31.667 -52 47z" />
    <glyph glyph-name="registered" unicode="&#xae;" horiz-adv-x="379" 
d="M155 200c-23.333 0 -43.665 5.66699 -60.998 17s-31.666 26.666 -42.999 45.999s-19.833 41.5 -25.5 66.5s-8.5 51.5 -8.5 79.5c0 36 4.5 72.5 13.5 109.5s22.5 70.333 40.5 100s40.333 54 67 73s57.667 28.5 93 28.5c23.333 0 43.666 -5.66699 60.999 -17
s31.666 -26.666 42.999 -45.999s19.833 -41.5 25.5 -66.5s8.5 -51.5 8.5 -79.5c0 -36 -4.66699 -72.5 -14 -109.5s-23 -70.5 -41 -100.5s-40.333 -54.333 -67 -73s-57.334 -28 -92.001 -28zM156.001 220c30.667 0 57.834 8.83398 81.501 26.501s43.5 40.5 59.5 68.5
s28 59.333 36 94s12 68.667 12 102c0 25.333 -2.33301 49.333 -7 72s-11.834 42.667 -21.501 60s-21.667 31.166 -36 41.499s-31.5 15.5 -51.5 15.5c-30.667 0 -57.834 -8.83301 -81.501 -26.5s-43.5 -40.5 -59.5 -68.5s-28 -59.333 -36 -94s-12 -69 -12 -103
c0 -25.333 2.33301 -49.333 7 -72s11.834 -42.5 21.501 -59.5s21.667 -30.667 36 -41s31.5 -15.5 51.5 -15.5zM110.001 321.001l20.0039 99h-8c1.33301 4 2.16602 8 2.49902 12s0.833008 7.66699 1.5 11c4 0 7 -0.333008 9 -1l25 137c-4 -2 -7.83301 -4.33301 -11.5 -7
s-7.16699 -5.66699 -10.5 -9l-13 17c11.333 9.33301 23.166 17.166 35.499 23.499s27.166 9.5 44.499 9.5c23.333 0 40.5 -6.5 51.5 -19.5s16.5 -28.833 16.5 -47.5c0 -12 -2.16699 -24.167 -6.5 -36.5s-10.833 -24.166 -19.5 -35.499s-19.334 -21.166 -32.001 -29.499
s-27 -14.5 -43 -18.5c9.33301 -6 17.5 -13.667 24.5 -23s13.5 -18.5 19.5 -27.5s11.833 -17.167 17.5 -24.5s11.834 -12.333 18.501 -15l-15 -23c-8 2 -15.333 7.33301 -22 16s-13.334 18.5 -20.001 29.5l-19.5 33.5c-6.33301 11.333 -13.5 20.666 -21.5 27.999l-18 -99h-26
zM206.005 595.001c-3.33301 0 -6.66699 -0.332031 -10 -0.999023s-6.66602 -1.66699 -9.99902 -3l-28 -155c14 4 26.667 10 38 18s20.666 17.167 27.999 27.5s13 21.333 17 33s6 22.5 6 32.5c0 13.333 -3.5 24.666 -10.5 33.999s-17.167 14 -30.5 14z" />
    <glyph glyph-name="macron" unicode="&#xaf;" horiz-adv-x="203" 
d="M181 531l-5 -32h-159l5 32h159z" />
    <glyph glyph-name="degree" unicode="&#xb0;" horiz-adv-x="152" 
d="M85 520c-15.333 0 -27.167 -6.16797 -35.5 -18.501s-12.5 -25.166 -12.5 -38.499c0 -9.33301 2.5 -17.333 7.5 -24s12.833 -10 23.5 -10c14.667 0 26 6.16699 34 18.5s12 24.833 12 37.5c0 9.33301 -2.33301 17.5 -7 24.5s-12 10.5 -22 10.5zM87.999 539.999
c18 0 31.334 -5.33496 40.001 -16.002s13 -23 13 -37c0 -9.33301 -1.66699 -18.666 -5 -27.999s-8.33301 -17.666 -15 -24.999s-14.5 -13.333 -23.5 -18s-19.5 -7 -31.5 -7c-18.667 0 -32.334 5.16699 -41.001 15.5s-13 22.5 -13 36.5c0 9.33301 1.66699 18.666 5 27.999
s8.33301 17.833 15 25.5s14.667 13.834 24 18.501s20 7 32 7z" />
    <glyph glyph-name="twosuperior" unicode="&#xb2;" horiz-adv-x="232" 
d="M21 470c1.33301 4.66699 3.33203 9.16797 5.99902 13.501s6 9.16602 10 14.499c12.667 16.667 27.834 31.167 45.501 43.5l50 35.5c15.667 11.333 29 23 40 35s16.5 26.667 16.5 44c0 13.333 -3.66699 24.166 -11 32.499s-17.666 12.5 -30.999 12.5
c-15.333 0 -27.666 -5.83301 -36.999 -17.5s-14 -25.5 -14 -41.5c0 -4.66699 0.5 -9 1.5 -13l3.5 -14l-35 -10c-2.66699 8 -4 17.333 -4 28c0 11.333 1.66699 22.5 5 33.5s8.66602 21 15.999 30s16.666 16.167 27.999 21.5s25 8 41 8c21.333 0 38.5 -6 51.5 -18
s19.5 -29.667 19.5 -53c0 -20.667 -5.5 -38 -16.5 -52s-24.5 -27 -40.5 -39l-51 -36.5c-18 -12.333 -34.333 -26.833 -49 -43.5c8 2 16 3 24 3c6.66699 0 13.5 -0.666992 20.5 -2s14.167 -2 21.5 -2c13.333 0 24.333 1.33301 33 4s16.667 7.66699 24 15l8 -16
c2.66699 -5.33301 5.66699 -10.666 9 -15.999c-6 -6.66699 -12.5 -11.5 -19.5 -14.5s-16.5 -4.5 -28.5 -4.5c-17.333 0 -32.333 3 -45 9s-24.667 9 -36 9c-12.667 0 -24 -6.33301 -34 -19z" />
    <glyph glyph-name="threesuperior" unicode="&#xb3;" horiz-adv-x="209" 
d="M106 583c0 4.66699 0.167969 9.16797 0.500977 13.501s0.5 9.16602 0.5 14.499c5.33301 0 10.333 -0.333008 15 -1s9 -1.66699 13 -3c8 6 14.333 14 19 24s7 20.333 7 31c0 13.333 -3.16699 23.166 -9.5 29.499s-14.166 9.5 -23.499 9.5
c-10.667 0 -19.334 -3.83301 -26.001 -11.5s-10 -17.167 -10 -28.5v-7c-6 -1.33301 -12 -2.33301 -18 -3l-18 -2c0 22 6 40.333 18 55s30.667 22 56 22c22.667 0 39.5 -6 50.5 -18s16.5 -26.333 16.5 -43c0 -12.667 -3.33301 -25.167 -10 -37.5s-16.334 -22.5 -29.001 -30.5
c11.333 -7.33301 19.666 -16.666 24.999 -27.999s8 -23 8 -35c0 -20.667 -7.5 -39.667 -22.5 -57s-37.5 -26 -67.5 -26c-23.333 0 -41.333 6.16699 -54 18.5s-19 28.833 -19 49.5c0 10.667 1.33301 21 4 31l34 -10l-4 -13.5c-1.33301 -4.33301 -2 -8.5 -2 -12.5
c0 -12.667 3.83301 -23 11.5 -31s17.834 -12 30.501 -12c17.333 0 30.5 6.5 39.5 19.5s13.5 28.167 13.5 45.5c0 9.33301 -1.83301 18.833 -5.5 28.5s-8.16699 17.167 -13.5 22.5c-8 -2.66699 -18 -4 -30 -4z" />
    <glyph glyph-name="acute" unicode="&#xb4;" horiz-adv-x="188" 
d="M158 601c-12.667 -20 -24.834 -37.332 -36.501 -51.999s-22.167 -26.667 -31.5 -36c-11.333 -11.333 -21.666 -20.666 -30.999 -27.999l-21 19c8.66699 9.33301 20.667 24.166 36 44.499s31 46.166 47 77.499z" />
    <glyph glyph-name="paragraph" unicode="&#xb6;" horiz-adv-x="557" 
d="M400 714c-9.33301 -82 -19.167 -157.832 -29.5 -227.499l-32.5 -209.5c28.667 7.33301 53.334 19 74.001 35s37.334 35 50.001 57s22 46.833 28 74.5s9 56.5 9 86.5c0 4 -0.166992 8.16699 -0.5 12.5s-0.833008 8.83301 -1.5 13.5l53 6
c0.666992 -5.33301 1.16699 -10.5 1.5 -15.5s0.5 -10.167 0.5 -15.5c0 -34 -4.16699 -66.667 -12.5 -98s-21.5 -59.833 -39.5 -85.5s-40.833 -47.5 -68.5 -65.5s-60.834 -30.333 -99.501 -37l-21.5 -117.5c-7.66699 -40.333 -16.167 -82.833 -25.5 -127.5h-34l24.5 125
c7.66699 39.333 14.834 78 21.501 116c-7.33301 -0.666992 -14.166 -1 -20.499 -1h-20.5c-6.66699 -38 -13.834 -76.667 -21.501 -116l-24.5 -124h-34l24.5 125l22.5 119c-36 4 -67.5 13 -94.5 27s-49.5 31 -67.5 51s-31.5 42.333 -40.5 67s-13.5 50 -13.5 76
c0 31.333 6.5 62.5 19.5 93.5s32.333 58.667 58 83s57.667 44.166 96 59.499s83.166 23 134.499 23c15.333 0 30.166 -0.833008 44.499 -2.5s27.833 -4.16699 40.5 -7.5zM227.999 275.001c12.667 72.667 24.002 144 34.002 214s19 138.333 27 205
c-36.667 -3.33301 -69.334 -12.333 -98.001 -27s-52.834 -32.667 -72.501 -54s-34.667 -45 -45 -71s-15.5 -52.333 -15.5 -79c0 -22 3.5 -43.5 10.5 -64.5s17.5 -40 31.5 -57s31.667 -31.333 53 -43s46.333 -19.5 75 -23.5zM365.001 691.001
c-12.667 2.66699 -26.999 4.00098 -42.999 4.00098l-26.5 -208.5c-9 -69.667 -20.167 -141.834 -33.5 -216.501c7.33301 0 15.166 0.166992 23.499 0.5s14.166 0.833008 17.499 1.5c12.667 72 23.834 142.5 33.501 211.5z" />
    <glyph glyph-name="periodcentered" unicode="&#xb7;" horiz-adv-x="105" 
d="M76 293c-10 0 -17.501 3.33203 -22.501 9.99902s-7.5 14.667 -7.5 24c0 11.333 3.5 21.833 10.5 31.5s17.167 14.5 30.5 14.5c10.667 0 18.334 -3.16699 23.001 -9.5s7 -14.166 7 -23.499c0 -11.333 -3.5 -22 -10.5 -32s-17.167 -15 -30.5 -15z" />
    <glyph glyph-name="cedilla" unicode="&#xb8;" horiz-adv-x="414" 
d="M163 -102c-3.33301 3.33301 -6.17188 6.33301 -8.50488 9s-5.16602 5.33398 -8.49902 8.00098c12 12 19.833 24.167 23.5 36.5s7.5 29.833 11.5 52.5l21 -5l-6.5 -30c-2.33301 -10.667 -5.16602 -21 -8.49902 -31c8.66699 2.66699 19 4 31 4
c24.667 0 42.834 -6.16699 54.501 -18.5s17.5 -26.5 17.5 -42.5c0 -18 -7.5 -35.167 -22.5 -51.5s-37.167 -24.5 -66.5 -24.5c-23.333 0 -42.166 5 -56.499 15s-23.166 21.667 -26.499 35l34 17c4 -12 10 -21.833 18 -29.5s19.667 -11.5 35 -11.5s27.833 5.5 37.5 16.5
s14.5 23.167 14.5 36.5c0 9.33301 -3.66699 18.333 -11 27s-18.333 13 -33 13c-10 0 -17.5 -0.833008 -22.5 -2.5s-9 -3.83398 -12 -6.50098s-5.5 -5.5 -7.5 -8.5s-4.66699 -5.83301 -8 -8.5z" />
    <glyph glyph-name="onesuperior" unicode="&#xb9;" horiz-adv-x="119" 
d="M34 633c-3.33301 2.66699 -6.50098 5.33398 -9.50098 8.00098s-6.16699 5.66699 -9.5 9c9.33301 7.33301 18.166 15.166 26.499 23.499s15.166 16.166 20.499 23.499c6.66699 8 12.667 16 18 24h33c-0.666992 -5.33301 -2.16699 -12 -4.5 -20
s-5.66602 -21.333 -9.99902 -40s-9.66602 -44.167 -15.999 -76.5s-13.5 -75.166 -21.5 -128.499h-33c6.66699 40 12.667 74.167 18 102.5l13.5 69.5c3.66699 18 6.66699 31.5 9 40.5s3.83301 14.5 4.5 16.5c-1.33301 -2.66699 -5.66602 -9.5 -12.999 -20.5
s-16 -21.5 -26 -31.5z" />
    <glyph glyph-name="ordmasculine" unicode="&#xba;" horiz-adv-x="377" 
d="M330 308c-24.667 -20.667 -51.6689 -31 -81.002 -31c-36.667 0 -67.334 7.16699 -92.001 21.5s-43.667 32.166 -57 53.499s-21.333 44.5 -24 69.5s-0.5 48.167 6.5 69.5s18.667 39.166 35 53.499s36.833 21.5 61.5 21.5c30 0 53.333 -10.333 70 -31
s27.5 -46.5 32.5 -77.5s4.5 -64.5 -1.5 -100.5s-16.333 -69.5 -31 -100.5s-33.5 -56.833 -56.5 -77.5s-49.167 -31 -78.5 -31c-26.667 0 -48.834 7 -66.501 21s-30.667 33.5 -39 58.5s-11.5 55.167 -9.5 90.5s9 74.333 21 117l44 -10
c-6.66699 -27.333 -12 -55.666 -16 -84.999s-5 -56 -3 -80s8.33301 -43.833 19 -59.5s27.334 -23.5 50.001 -23.5c18.667 0 35.834 9 51.501 27s28.834 40.333 39.501 67s18.667 55.834 24 87.501s7.16602 60.834 5.49902 87.501s-7.16699 49 -16.5 67s-23 27 -41 27
c-13.333 0 -25.166 -5.83301 -35.499 -17.5s-18.166 -26.167 -23.499 -43.5s-7.5 -36.333 -6.5 -57s6.5 -39.667 16.5 -57s24.667 -31.833 44 -43.5s45 -17.5 77 -17.5c12.667 0 24.5 1.66699 35.5 5s21.833 8.66602 32.5 15.999z" />
    <glyph glyph-name="guillemotright" unicode="&#xbb;" horiz-adv-x="306" 
d="M341 341c-20 -9.33301 -41.001 -20.001 -63.001 -32.001c-18.667 -10 -39 -21.833 -61 -35.5s-43.667 -28.5 -65 -44.5l-19 31c20.667 14.667 41.5 27.834 62.5 39.501l56.5 30.5c19.333 10 38 18.667 56 26c-17.333 12 -33.666 25 -48.999 39l-41 38
c-14 13.333 -27.333 27 -40 41l30 32l42 -47l43.5 -44.5c16.333 -16.333 33.833 -31.833 52.5 -46.5zM225.999 340.999c-20 -9.33301 -41.001 -20.001 -63.001 -32.001c-18.667 -10 -39 -21.833 -61 -35.5s-43.667 -28.5 -65 -44.5l-19 31
c20.667 14.667 41.5 27.834 62.5 39.501l56.5 30.5c19.333 10 38 18.667 56 26c-17.333 12 -33.666 25 -48.999 39l-41 38c-14 13.333 -27.333 27 -40 41l30 32l42 -47l43.5 -44.5c16.333 -16.333 33.833 -31.833 52.5 -46.5z" />
    <glyph glyph-name="onequarter" unicode="&#xbc;" horiz-adv-x="377" 
d="M230 0l2.99902 21.001h41l4 29l4 28c-11.333 1.33301 -21.833 3.33301 -31.5 6s-18.834 4 -27.501 4c-12.667 0 -22 -4 -28 -12c-3.33301 2 -6.5 4.16699 -9.5 6.5l-9.5 7.5c17.333 22 31.5 49.167 42.5 81.5s16.5 66.166 16.5 101.499h33
c0 -11.333 -1.16699 -24 -3.5 -38s-5.66602 -28.5 -9.99902 -43.5s-9.5 -30 -15.5 -45s-13 -28.833 -21 -41.5c2.66699 1.33301 5.33398 2 8.00098 2h8c8 0 16.167 -1 24.5 -3s17.166 -3.33301 26.499 -4c4 28 7.5 50.667 10.5 68s5.66699 32 8 44l6 31l5.5 30h33
c-0.666992 -4.66699 -1.5 -9 -2.5 -13s-2.5 -11.167 -4.5 -21.5s-4.83301 -26.166 -8.5 -47.499s-8.5 -51.333 -14.5 -90c13.333 2 24.666 8 33.999 18c4.66699 -8 10.334 -15.667 17.001 -23c-11.333 -12.667 -29.666 -19.334 -54.999 -20.001l-4 -27.5l-4 -27.5h40l-3 -21
h-113zM33.999 368.001c-3.33301 2.66699 -6.50098 5.33398 -9.50098 8.00098s-6.16699 5.66699 -9.5 9c9.33301 7.33301 18.166 15.166 26.499 23.499s15.166 16.166 20.499 23.499c6.66699 8 12.667 16 18 24h33c-0.666992 -5.33301 -2.16699 -12 -4.5 -20
s-5.66602 -21.333 -9.99902 -40s-9.66602 -44.167 -15.999 -76.5s-13.5 -75.166 -21.5 -128.499h-33c6.66699 40 12.667 74.167 18 102.5l13.5 69.5c3.66699 18 6.66699 31.5 9 40.5s3.83301 14.5 4.5 16.5c-1.33301 -2.66699 -5.66602 -9.5 -12.999 -20.5
s-16 -21.5 -26 -31.5zM249.998 464.001c4.66699 -2 9 -4 13 -6s8.33301 -3.66699 13 -5l-54.5 -111l-53 -109.5l-55 -113.5l-61.5 -122c-4 1.33301 -8 2.83301 -12 4.5s-8 3.5 -12 5.5l62 128l53.5 109.5l51 105z" />
    <glyph glyph-name="onehalf" unicode="&#xbd;" horiz-adv-x="385" 
d="M250 464c4.66699 -2 9 -4 13 -6s8.33301 -3.66699 13 -5l-54.5 -111l-53 -109.5l-55 -113.5l-61.5 -122c-4 1.33301 -8 2.83301 -12 4.5s-8 3.5 -12 5.5l62 128l53.5 109.5l51 105zM37 368c-3.33301 2.66699 -6.50098 5.33398 -9.50098 8.00098s-6.16699 5.66699 -9.5 9
c9.33301 7.33301 18.166 15.166 26.499 23.499s15.166 16.166 20.499 23.499c6.66699 8 12.667 16 18 24h33c-0.666992 -5.33301 -2.16699 -12 -4.5 -20s-5.66602 -21.333 -9.99902 -40s-9.66602 -44.167 -15.999 -76.5s-13.5 -75.166 -21.5 -128.499h-33
c6.66699 40 12.667 74.167 18 102.5l13.5 69.5c3.66699 18 6.66699 31.5 9 40.5s3.83301 14.5 4.5 16.5c-1.33301 -2.66699 -5.66602 -9.5 -12.999 -20.5s-16 -21.5 -26 -31.5zM170.999 14c1.33301 4.66699 3.33203 9.16797 5.99902 13.501s6 9.16602 10 14.499
c12.667 16.667 27.834 31.167 45.501 43.5l50 35.5c15.667 11.333 29 23 40 35s16.5 26.667 16.5 44c0 13.333 -3.66699 24.166 -11 32.499s-17.666 12.5 -30.999 12.5c-15.333 0 -27.666 -5.83301 -36.999 -17.5s-14 -25.5 -14 -41.5c0 -4.66699 0.5 -9 1.5 -13l3.5 -14
l-35 -10c-2.66699 8 -4 17.333 -4 28c0 11.333 1.66699 22.5 5 33.5s8.66602 21 15.999 30s16.666 16.167 27.999 21.5s25 8 41 8c21.333 0 38.5 -6 51.5 -18s19.5 -29.667 19.5 -53c0 -20.667 -5.5 -38 -16.5 -52s-24.5 -27 -40.5 -39l-51 -36.5
c-18 -12.333 -34.333 -26.833 -49 -43.5c8 2 16 3 24 3c6.66699 0 13.5 -0.666992 20.5 -2s14.167 -2 21.5 -2c13.333 0 24.333 1.33301 33 4s16.667 7.66699 24 15l8 -16c2.66699 -5.33301 5.66699 -10.666 9 -15.999c-6 -6.66699 -12.5 -11.5 -19.5 -14.5
s-16.5 -4.5 -28.5 -4.5c-17.333 0 -32.333 3 -45 9s-24.667 9 -36 9c-12.667 0 -24 -6.33301 -34 -19z" />
    <glyph glyph-name="threequarters" unicode="&#xbe;" horiz-adv-x="374" 
d="M250 464c4.66699 -2 9 -4 13 -6s8.33301 -3.66699 13 -5l-54.5 -111l-53 -109.5l-55 -113.5l-61.5 -122c-4 1.33301 -8 2.83301 -12 4.5s-8 3.5 -12 5.5l62 128l53.5 109.5l51 105zM36 368c-3.33301 2.66699 -6.50098 5.33398 -9.50098 8.00098s-6.16699 5.66699 -9.5 9
c9.33301 7.33301 18.166 15.166 26.499 23.499s15.166 16.166 20.499 23.499c6.66699 8 12.667 16 18 24h33c-0.666992 -5.33301 -2.16699 -12 -4.5 -20s-5.66602 -21.333 -9.99902 -40s-9.66602 -44.167 -15.999 -76.5s-13.5 -75.166 -21.5 -128.499h-33
c6.66699 40 12.667 74.167 18 102.5l13.5 69.5c3.66699 18 6.66699 31.5 9 40.5s3.83301 14.5 4.5 16.5c-1.33301 -2.66699 -5.66602 -9.5 -12.999 -20.5s-16 -21.5 -26 -31.5zM261.999 127c0 4.66699 0.167969 9.16797 0.500977 13.501s0.5 9.16602 0.5 14.499
c5.33301 0 10.333 -0.333008 15 -1s9 -1.66699 13 -3c8 6 14.333 14 19 24s7 20.333 7 31c0 13.333 -3.16699 23.166 -9.5 29.499s-14.166 9.5 -23.499 9.5c-10.667 0 -19.334 -3.83301 -26.001 -11.5s-10 -17.167 -10 -28.5v-7c-6 -1.33301 -12 -2.33301 -18 -3l-18 -2
c0 22 6 40.333 18 55s30.667 22 56 22c22.667 0 39.5 -6 50.5 -18s16.5 -26.333 16.5 -43c0 -12.667 -3.33301 -25.167 -10 -37.5s-16.334 -22.5 -29.001 -30.5c11.333 -7.33301 19.666 -16.666 24.999 -27.999s8 -23 8 -35c0 -20.667 -7.5 -39.667 -22.5 -57
s-37.5 -26 -67.5 -26c-23.333 0 -41.333 6.16699 -54 18.5s-19 28.833 -19 49.5c0 10.667 1.33301 21 4 31l34 -10l-4 -13.5c-1.33301 -4.33301 -2 -8.5 -2 -12.5c0 -12.667 3.83301 -23 11.5 -31s17.834 -12 30.501 -12c17.333 0 30.5 6.5 39.5 19.5s13.5 28.167 13.5 45.5
c0 9.33301 -1.83301 18.833 -5.5 28.5s-8.16699 17.167 -13.5 22.5c-8 -2.66699 -18 -4 -30 -4z" />
    <glyph glyph-name="questiondown" unicode="&#xbf;" horiz-adv-x="426" 
d="M246 571c-4.66699 -33.333 -12.666 -63.665 -23.999 -90.998s-24.166 -52.666 -38.499 -75.999s-29 -45.5 -44 -66.5s-28.833 -41.833 -41.5 -62.5s-23.167 -42.334 -31.5 -65.001s-12.5 -47.334 -12.5 -74.001c0 -34 8.33301 -61.167 25 -81.5s37.667 -30.5 63 -30.5
c16.667 0 31.5 3.83301 44.5 11.5s24 17.834 33 30.501s16 27 21 43s7.5 32.333 7.5 49c0 24.667 -5.66699 47.5 -17 68.5s-28.666 34.833 -51.999 41.5l32 41c15.333 -4 28.666 -10.333 39.999 -19s20.666 -19.334 27.999 -32.001s12.833 -26.334 16.5 -41.001
s5.5 -30 5.5 -46c0 -22 -3.5 -43.5 -10.5 -64.5s-17.167 -40 -30.5 -57s-30 -30.667 -50 -41s-43.333 -15.5 -70 -15.5c-42.667 0 -77.167 12.333 -103.5 37s-39.5 60.667 -39.5 108c0 29.333 4.33301 55.833 13 79.5s19.667 46.167 33 67.5s28.166 42.166 44.499 62.499
s32 41.833 47 64.5s28.5 47.334 40.5 74.001s20.667 57 26 91zM242.001 647.001c-10 0 -17.333 3.16797 -22 9.50098s-7 14.166 -7 23.499c0 11.333 3.5 22.166 10.5 32.499s17.167 15.5 30.5 15.5c10.667 0 18.334 -3.16699 23.001 -9.5s7 -14.166 7 -23.499
c0 -12 -3.83301 -23 -11.5 -33s-17.834 -15 -30.501 -15z" />
    <glyph glyph-name="Agrave" unicode="&#xc0;" horiz-adv-x="1095" 
d="M626 403c36.667 -1.33301 72.166 -6.83203 106.499 -16.499s66.166 -23.834 95.499 -42.501l63.5 167c20.333 55.333 40.833 107 61.5 155s41.834 91 63.501 129s44.834 67.667 69.501 89l45 -21c-18 -82 -34.333 -162.5 -49 -241.5s-27.167 -155.333 -37.5 -229
s-18.5 -143.834 -24.5 -210.501s-9 -128.334 -9 -185.001c0 -59.333 3.5 -112.666 10.5 -159.999s18 -87.833 33 -121.5s34.5 -59.5 58.5 -77.5s53 -27 87 -27c38 0 68.333 10.167 91 30.5s41 48.166 55 83.499l52 -18c-37.333 -94 -99.333 -141 -186 -141
c-48 0 -88.667 10.167 -122 30.5s-60.333 49 -81 86s-35.5 81.667 -44.5 134s-13.5 110.833 -13.5 175.5c0 10 0.166992 20.333 0.5 31s0.5 21.667 0.5 33c0 52 -9 97 -27 135s-42 69.667 -72 95c-25.333 -67.333 -53.333 -132.333 -84 -195s-66 -118 -106 -166
s-85.833 -86.5 -137.5 -115.5s-111.167 -43.5 -178.5 -43.5c-62 0 -115.833 10.5 -161.5 31.5s-83.5 48.833 -113.5 83.5s-52.333 74.334 -67 119.001s-22 90.667 -22 138c0 52 8.66699 103.333 26 154s42.833 96.167 76.5 136.5s75.5 72.833 125.5 97.5s107.667 37 173 37
c33.333 0 63.333 -4.16699 90 -12.5s50 -19.666 70 -33.999s36.833 -31.333 50.5 -51s24.167 -40.5 31.5 -62.5zM232.999 154.001c8.66699 37.333 23.998 70.667 45.998 100s48.167 54.5 78.5 75.5s64 37.5 101 49.5s75.167 19.333 114.5 22
c-6.66699 18.667 -15.667 36.167 -27 52.5s-25 30.5 -41 42.5s-34.333 21.5 -55 28.5s-44 10.5 -70 10.5c-55.333 0 -104.166 -11.667 -146.499 -35s-77.833 -54 -106.5 -92s-50.5 -80.833 -65.5 -128.5s-22.5 -95.834 -22.5 -144.501c0 -43.333 6.16699 -85.5 18.5 -126.5
s31.333 -77.167 57 -108.5s58.167 -56.5 97.5 -75.5s85.666 -28.5 138.999 -28.5c56.667 0 107.834 14.5 153.501 43.5s87.167 67.5 124.5 115.5s71.166 103 101.499 165s58.5 126 84.5 192c-26 17.333 -54.333 30 -85 38s-62.334 12.667 -95.001 14
c1.33301 -8 2.5 -16 3.5 -24s1.5 -16 1.5 -24c0 -28 -4 -56 -12 -84s-19.833 -54.167 -35.5 -78.5s-35 -45.833 -58 -64.5s-49.5 -32.667 -79.5 -42l-10 24l-10 24c24.667 8 46.334 19.833 65.001 35.5s34.334 33.5 47.001 53.5s22.167 41.667 28.5 65
s9.5 46.666 9.5 69.999c0 7.33301 -0.333008 14.333 -1 21s-1.66699 13.334 -3 20.001c-34 -3.33301 -67.167 -10.5 -99.5 -21.5s-61.833 -25.833 -88.5 -44.5s-49.5 -41.167 -68.5 -67.5s-32.167 -55.833 -39.5 -88.5l-25.5 8
c-8.33301 2.66699 -17.166 5.33398 -26.499 8.00098zM1068 821.002c-5.33301 -6 -9.83301 -12.499 -13.5 -19.499l-11.5 -21.5c-16 -30 -31.333 -63 -46 -99s-29.167 -73.667 -43.5 -113l-43 -122l-45.5 -127c22.667 -18 42 -39 58 -63s28.333 -51.667 37 -83
c8.66699 96 22.5 198.667 41.5 308s41.167 222.666 66.5 339.999zM1050 1046c16 -31.333 31.667 -56.999 47 -76.999s27.333 -34.667 36 -44l-21 -20c-10 7.33301 -20.667 16.666 -32 27.999c-9.33301 9.33301 -20 21.333 -32 36s-24 32 -36 52z" />
    <glyph glyph-name="Aacute" unicode="&#xc1;" horiz-adv-x="1095" 
d="M626 403c36.667 -1.33301 72.166 -6.83203 106.499 -16.499s66.166 -23.834 95.499 -42.501l63.5 167c20.333 55.333 40.833 107 61.5 155s41.834 91 63.501 129s44.834 67.667 69.501 89l45 -21c-18 -82 -34.333 -162.5 -49 -241.5s-27.167 -155.333 -37.5 -229
s-18.5 -143.834 -24.5 -210.501s-9 -128.334 -9 -185.001c0 -59.333 3.5 -112.666 10.5 -159.999s18 -87.833 33 -121.5s34.5 -59.5 58.5 -77.5s53 -27 87 -27c38 0 68.333 10.167 91 30.5s41 48.166 55 83.499l52 -18c-37.333 -94 -99.333 -141 -186 -141
c-48 0 -88.667 10.167 -122 30.5s-60.333 49 -81 86s-35.5 81.667 -44.5 134s-13.5 110.833 -13.5 175.5c0 10 0.166992 20.333 0.5 31s0.5 21.667 0.5 33c0 52 -9 97 -27 135s-42 69.667 -72 95c-25.333 -67.333 -53.333 -132.333 -84 -195s-66 -118 -106 -166
s-85.833 -86.5 -137.5 -115.5s-111.167 -43.5 -178.5 -43.5c-62 0 -115.833 10.5 -161.5 31.5s-83.5 48.833 -113.5 83.5s-52.333 74.334 -67 119.001s-22 90.667 -22 138c0 52 8.66699 103.333 26 154s42.833 96.167 76.5 136.5s75.5 72.833 125.5 97.5s107.667 37 173 37
c33.333 0 63.333 -4.16699 90 -12.5s50 -19.666 70 -33.999s36.833 -31.333 50.5 -51s24.167 -40.5 31.5 -62.5zM232.999 154.001c8.66699 37.333 23.998 70.667 45.998 100s48.167 54.5 78.5 75.5s64 37.5 101 49.5s75.167 19.333 114.5 22
c-6.66699 18.667 -15.667 36.167 -27 52.5s-25 30.5 -41 42.5s-34.333 21.5 -55 28.5s-44 10.5 -70 10.5c-55.333 0 -104.166 -11.667 -146.499 -35s-77.833 -54 -106.5 -92s-50.5 -80.833 -65.5 -128.5s-22.5 -95.834 -22.5 -144.501c0 -43.333 6.16699 -85.5 18.5 -126.5
s31.333 -77.167 57 -108.5s58.167 -56.5 97.5 -75.5s85.666 -28.5 138.999 -28.5c56.667 0 107.834 14.5 153.501 43.5s87.167 67.5 124.5 115.5s71.166 103 101.499 165s58.5 126 84.5 192c-26 17.333 -54.333 30 -85 38s-62.334 12.667 -95.001 14
c1.33301 -8 2.5 -16 3.5 -24s1.5 -16 1.5 -24c0 -28 -4 -56 -12 -84s-19.833 -54.167 -35.5 -78.5s-35 -45.833 -58 -64.5s-49.5 -32.667 -79.5 -42l-10 24l-10 24c24.667 8 46.334 19.833 65.001 35.5s34.334 33.5 47.001 53.5s22.167 41.667 28.5 65
s9.5 46.666 9.5 69.999c0 7.33301 -0.333008 14.333 -1 21s-1.66699 13.334 -3 20.001c-34 -3.33301 -67.167 -10.5 -99.5 -21.5s-61.833 -25.833 -88.5 -44.5s-49.5 -41.167 -68.5 -67.5s-32.167 -55.833 -39.5 -88.5l-25.5 8
c-8.33301 2.66699 -17.166 5.33398 -26.499 8.00098zM1068 821.002c-5.33301 -6 -9.83301 -12.499 -13.5 -19.499l-11.5 -21.5c-16 -30 -31.333 -63 -46 -99s-29.167 -73.667 -43.5 -113l-43 -122l-45.5 -127c22.667 -18 42 -39 58 -63s28.333 -51.667 37 -83
c8.66699 96 22.5 198.667 41.5 308s41.167 222.666 66.5 339.999zM1219 1031c-12.667 -20 -24.834 -37.332 -36.501 -51.999s-22.167 -26.667 -31.5 -36c-11.333 -11.333 -21.666 -20.666 -30.999 -27.999l-21 19c8.66699 9.33301 20.667 24.166 36 44.499
s31 46.166 47 77.499z" />
    <glyph glyph-name="Acircumflex" unicode="&#xc2;" horiz-adv-x="1095" 
d="M626 403c36.667 -1.33301 72.166 -6.83203 106.499 -16.499s66.166 -23.834 95.499 -42.501l63.5 167c20.333 55.333 40.833 107 61.5 155s41.834 91 63.501 129s44.834 67.667 69.501 89l45 -21c-18 -82 -34.333 -162.5 -49 -241.5s-27.167 -155.333 -37.5 -229
s-18.5 -143.834 -24.5 -210.501s-9 -128.334 -9 -185.001c0 -59.333 3.5 -112.666 10.5 -159.999s18 -87.833 33 -121.5s34.5 -59.5 58.5 -77.5s53 -27 87 -27c38 0 68.333 10.167 91 30.5s41 48.166 55 83.499l52 -18c-37.333 -94 -99.333 -141 -186 -141
c-48 0 -88.667 10.167 -122 30.5s-60.333 49 -81 86s-35.5 81.667 -44.5 134s-13.5 110.833 -13.5 175.5c0 10 0.166992 20.333 0.5 31s0.5 21.667 0.5 33c0 52 -9 97 -27 135s-42 69.667 -72 95c-25.333 -67.333 -53.333 -132.333 -84 -195s-66 -118 -106 -166
s-85.833 -86.5 -137.5 -115.5s-111.167 -43.5 -178.5 -43.5c-62 0 -115.833 10.5 -161.5 31.5s-83.5 48.833 -113.5 83.5s-52.333 74.334 -67 119.001s-22 90.667 -22 138c0 52 8.66699 103.333 26 154s42.833 96.167 76.5 136.5s75.5 72.833 125.5 97.5s107.667 37 173 37
c33.333 0 63.333 -4.16699 90 -12.5s50 -19.666 70 -33.999s36.833 -31.333 50.5 -51s24.167 -40.5 31.5 -62.5zM232.999 154.001c8.66699 37.333 23.998 70.667 45.998 100s48.167 54.5 78.5 75.5s64 37.5 101 49.5s75.167 19.333 114.5 22
c-6.66699 18.667 -15.667 36.167 -27 52.5s-25 30.5 -41 42.5s-34.333 21.5 -55 28.5s-44 10.5 -70 10.5c-55.333 0 -104.166 -11.667 -146.499 -35s-77.833 -54 -106.5 -92s-50.5 -80.833 -65.5 -128.5s-22.5 -95.834 -22.5 -144.501c0 -43.333 6.16699 -85.5 18.5 -126.5
s31.333 -77.167 57 -108.5s58.167 -56.5 97.5 -75.5s85.666 -28.5 138.999 -28.5c56.667 0 107.834 14.5 153.501 43.5s87.167 67.5 124.5 115.5s71.166 103 101.499 165s58.5 126 84.5 192c-26 17.333 -54.333 30 -85 38s-62.334 12.667 -95.001 14
c1.33301 -8 2.5 -16 3.5 -24s1.5 -16 1.5 -24c0 -28 -4 -56 -12 -84s-19.833 -54.167 -35.5 -78.5s-35 -45.833 -58 -64.5s-49.5 -32.667 -79.5 -42l-10 24l-10 24c24.667 8 46.334 19.833 65.001 35.5s34.334 33.5 47.001 53.5s22.167 41.667 28.5 65
s9.5 46.666 9.5 69.999c0 7.33301 -0.333008 14.333 -1 21s-1.66699 13.334 -3 20.001c-34 -3.33301 -67.167 -10.5 -99.5 -21.5s-61.833 -25.833 -88.5 -44.5s-49.5 -41.167 -68.5 -67.5s-32.167 -55.833 -39.5 -88.5l-25.5 8
c-8.33301 2.66699 -17.166 5.33398 -26.499 8.00098zM1068 821.002c-5.33301 -6 -9.83301 -12.499 -13.5 -19.499l-11.5 -21.5c-16 -30 -31.333 -63 -46 -99s-29.167 -73.667 -43.5 -113l-43 -122l-45.5 -127c22.667 -18 42 -39 58 -63s28.333 -51.667 37 -83
c8.66699 96 22.5 198.667 41.5 308s41.167 222.666 66.5 339.999zM1123 1032c18 -29.333 32.167 -54.667 42.5 -76s16.5 -34.666 18.5 -39.999l-37 -18c-2 4 -6.33301 15 -13 33s-17.667 40.667 -33 68l-19 -23l-23 -26.5c-8 -9 -16.167 -17.333 -24.5 -25
s-15.5 -13.834 -21.5 -18.501l-24 26c28.667 21.333 51.5 40.833 68.5 58.5s29.833 32.167 38.5 43.5z" />
    <glyph glyph-name="Atilde" unicode="&#xc3;" horiz-adv-x="1095" 
d="M626 403c36.667 -1.33301 72.166 -6.83203 106.499 -16.499s66.166 -23.834 95.499 -42.501l63.5 167c20.333 55.333 40.833 107 61.5 155s41.834 91 63.501 129s44.834 67.667 69.501 89l45 -21c-18 -82 -34.333 -162.5 -49 -241.5s-27.167 -155.333 -37.5 -229
s-18.5 -143.834 -24.5 -210.501s-9 -128.334 -9 -185.001c0 -59.333 3.5 -112.666 10.5 -159.999s18 -87.833 33 -121.5s34.5 -59.5 58.5 -77.5s53 -27 87 -27c38 0 68.333 10.167 91 30.5s41 48.166 55 83.499l52 -18c-37.333 -94 -99.333 -141 -186 -141
c-48 0 -88.667 10.167 -122 30.5s-60.333 49 -81 86s-35.5 81.667 -44.5 134s-13.5 110.833 -13.5 175.5c0 10 0.166992 20.333 0.5 31s0.5 21.667 0.5 33c0 52 -9 97 -27 135s-42 69.667 -72 95c-25.333 -67.333 -53.333 -132.333 -84 -195s-66 -118 -106 -166
s-85.833 -86.5 -137.5 -115.5s-111.167 -43.5 -178.5 -43.5c-62 0 -115.833 10.5 -161.5 31.5s-83.5 48.833 -113.5 83.5s-52.333 74.334 -67 119.001s-22 90.667 -22 138c0 52 8.66699 103.333 26 154s42.833 96.167 76.5 136.5s75.5 72.833 125.5 97.5s107.667 37 173 37
c33.333 0 63.333 -4.16699 90 -12.5s50 -19.666 70 -33.999s36.833 -31.333 50.5 -51s24.167 -40.5 31.5 -62.5zM232.999 154.001c8.66699 37.333 23.998 70.667 45.998 100s48.167 54.5 78.5 75.5s64 37.5 101 49.5s75.167 19.333 114.5 22
c-6.66699 18.667 -15.667 36.167 -27 52.5s-25 30.5 -41 42.5s-34.333 21.5 -55 28.5s-44 10.5 -70 10.5c-55.333 0 -104.166 -11.667 -146.499 -35s-77.833 -54 -106.5 -92s-50.5 -80.833 -65.5 -128.5s-22.5 -95.834 -22.5 -144.501c0 -43.333 6.16699 -85.5 18.5 -126.5
s31.333 -77.167 57 -108.5s58.167 -56.5 97.5 -75.5s85.666 -28.5 138.999 -28.5c56.667 0 107.834 14.5 153.501 43.5s87.167 67.5 124.5 115.5s71.166 103 101.499 165s58.5 126 84.5 192c-26 17.333 -54.333 30 -85 38s-62.334 12.667 -95.001 14
c1.33301 -8 2.5 -16 3.5 -24s1.5 -16 1.5 -24c0 -28 -4 -56 -12 -84s-19.833 -54.167 -35.5 -78.5s-35 -45.833 -58 -64.5s-49.5 -32.667 -79.5 -42l-10 24l-10 24c24.667 8 46.334 19.833 65.001 35.5s34.334 33.5 47.001 53.5s22.167 41.667 28.5 65
s9.5 46.666 9.5 69.999c0 7.33301 -0.333008 14.333 -1 21s-1.66699 13.334 -3 20.001c-34 -3.33301 -67.167 -10.5 -99.5 -21.5s-61.833 -25.833 -88.5 -44.5s-49.5 -41.167 -68.5 -67.5s-32.167 -55.833 -39.5 -88.5l-25.5 8
c-8.33301 2.66699 -17.166 5.33398 -26.499 8.00098zM1068 821.002c-5.33301 -6 -9.83301 -12.499 -13.5 -19.499l-11.5 -21.5c-16 -30 -31.333 -63 -46 -99s-29.167 -73.667 -43.5 -113l-43 -122l-45.5 -127c22.667 -18 42 -39 58 -63s28.333 -51.667 37 -83
c8.66699 96 22.5 198.667 41.5 308s41.167 222.666 66.5 339.999zM1008 934.003c8 10.667 17.334 17.667 28.001 21s22 5 34 5h8c14 -1.33301 27.833 -3.33301 41.5 -6s26.167 -4 37.5 -4c14.667 0 25.5 1.5 32.5 4.5s13.167 7.16699 18.5 12.5l23 -30
c-6.66699 -7.33301 -14.334 -13 -23.001 -17s-19 -6 -31 -6c-17.333 0 -35 3.33301 -53 10s-35.333 10 -52 10c-8.66699 0 -16.667 -1.5 -24 -4.5s-14.333 -8.16699 -21 -15.5z" />
    <glyph glyph-name="Adieresis" unicode="&#xc4;" horiz-adv-x="1095" 
d="M626 403c36.667 -1.33301 72.166 -6.83203 106.499 -16.499s66.166 -23.834 95.499 -42.501l63.5 167c20.333 55.333 40.833 107 61.5 155s41.834 91 63.501 129s44.834 67.667 69.501 89l45 -21c-18 -82 -34.333 -162.5 -49 -241.5s-27.167 -155.333 -37.5 -229
s-18.5 -143.834 -24.5 -210.501s-9 -128.334 -9 -185.001c0 -59.333 3.5 -112.666 10.5 -159.999s18 -87.833 33 -121.5s34.5 -59.5 58.5 -77.5s53 -27 87 -27c38 0 68.333 10.167 91 30.5s41 48.166 55 83.499l52 -18c-37.333 -94 -99.333 -141 -186 -141
c-48 0 -88.667 10.167 -122 30.5s-60.333 49 -81 86s-35.5 81.667 -44.5 134s-13.5 110.833 -13.5 175.5c0 10 0.166992 20.333 0.5 31s0.5 21.667 0.5 33c0 52 -9 97 -27 135s-42 69.667 -72 95c-25.333 -67.333 -53.333 -132.333 -84 -195s-66 -118 -106 -166
s-85.833 -86.5 -137.5 -115.5s-111.167 -43.5 -178.5 -43.5c-62 0 -115.833 10.5 -161.5 31.5s-83.5 48.833 -113.5 83.5s-52.333 74.334 -67 119.001s-22 90.667 -22 138c0 52 8.66699 103.333 26 154s42.833 96.167 76.5 136.5s75.5 72.833 125.5 97.5s107.667 37 173 37
c33.333 0 63.333 -4.16699 90 -12.5s50 -19.666 70 -33.999s36.833 -31.333 50.5 -51s24.167 -40.5 31.5 -62.5zM232.999 154.001c8.66699 37.333 23.998 70.667 45.998 100s48.167 54.5 78.5 75.5s64 37.5 101 49.5s75.167 19.333 114.5 22
c-6.66699 18.667 -15.667 36.167 -27 52.5s-25 30.5 -41 42.5s-34.333 21.5 -55 28.5s-44 10.5 -70 10.5c-55.333 0 -104.166 -11.667 -146.499 -35s-77.833 -54 -106.5 -92s-50.5 -80.833 -65.5 -128.5s-22.5 -95.834 -22.5 -144.501c0 -43.333 6.16699 -85.5 18.5 -126.5
s31.333 -77.167 57 -108.5s58.167 -56.5 97.5 -75.5s85.666 -28.5 138.999 -28.5c56.667 0 107.834 14.5 153.501 43.5s87.167 67.5 124.5 115.5s71.166 103 101.499 165s58.5 126 84.5 192c-26 17.333 -54.333 30 -85 38s-62.334 12.667 -95.001 14
c1.33301 -8 2.5 -16 3.5 -24s1.5 -16 1.5 -24c0 -28 -4 -56 -12 -84s-19.833 -54.167 -35.5 -78.5s-35 -45.833 -58 -64.5s-49.5 -32.667 -79.5 -42l-10 24l-10 24c24.667 8 46.334 19.833 65.001 35.5s34.334 33.5 47.001 53.5s22.167 41.667 28.5 65
s9.5 46.666 9.5 69.999c0 7.33301 -0.333008 14.333 -1 21s-1.66699 13.334 -3 20.001c-34 -3.33301 -67.167 -10.5 -99.5 -21.5s-61.833 -25.833 -88.5 -44.5s-49.5 -41.167 -68.5 -67.5s-32.167 -55.833 -39.5 -88.5l-25.5 8
c-8.33301 2.66699 -17.166 5.33398 -26.499 8.00098zM1068 821.002c-5.33301 -6 -9.83301 -12.499 -13.5 -19.499l-11.5 -21.5c-16 -30 -31.333 -63 -46 -99s-29.167 -73.667 -43.5 -113l-43 -122l-45.5 -127c22.667 -18 42 -39 58 -63s28.333 -51.667 37 -83
c8.66699 96 22.5 198.667 41.5 308s41.167 222.666 66.5 339.999zM1056 932.003c-8 0 -14 2.66699 -18 8s-6 11.666 -6 18.999c0 9.33301 3 18 9 26s14 12 24 12c8.66699 0 14.834 -2.66699 18.501 -8s5.5 -11.666 5.5 -18.999c0 -8.66699 -2.83301 -17.167 -8.5 -25.5
s-13.834 -12.5 -24.501 -12.5zM1158 932.003c-7.33301 0 -13.165 2.33105 -17.498 6.99805s-6.5 10.334 -6.5 17.001c0 9.33301 2.66699 18.5 8 27.5s13.666 13.5 24.999 13.5c8 0 14 -2.66699 18 -8s6 -11.666 6 -18.999c0 -8.66699 -2.83301 -17.167 -8.5 -25.5
s-13.834 -12.5 -24.501 -12.5z" />
    <glyph glyph-name="Aring" unicode="&#xc5;" horiz-adv-x="1095" 
d="M1134 998c20.667 0 36.002 -5.83398 46.002 -17.501s15 -25.167 15 -40.5c0 -17.333 -5.5 -34 -16.5 -50s-27.167 -25.667 -48.5 -29h1c-18 -82 -34.333 -162.5 -49 -241.5s-27.167 -155.167 -37.5 -228.5s-18.5 -143.166 -24.5 -209.499s-9 -127.833 -9 -184.5
c0 -58 3.33301 -110.333 10 -157s17.167 -86.667 31.5 -120s33 -59 56 -77s50.5 -27 82.5 -27c42.667 0 75.667 9.66699 99 29s42 46 56 80l52 -18c-37.333 -94 -99.333 -141 -186 -141c-48 0 -88.667 10.167 -122 30.5s-60.333 49 -81 86s-35.5 81.667 -44.5 134
s-13.5 110.833 -13.5 175.5c0 10 0.166992 20.333 0.5 31s0.5 21.667 0.5 33c0 52 -9 97 -27 135s-42 69.667 -72 95c-25.333 -67.333 -53.333 -132.333 -84 -195s-66 -118 -106 -166s-85.833 -86.5 -137.5 -115.5s-111.167 -43.5 -178.5 -43.5
c-62 0 -115.833 10.5 -161.5 31.5s-83.5 48.833 -113.5 83.5s-52.333 74.334 -67 119.001s-22 90.667 -22 138c0 52 8.66699 103.333 26 154s42.833 96.167 76.5 136.5s75.5 72.833 125.5 97.5s107.667 37 173 37c33.333 0 63.333 -4.16699 90 -12.5s50 -19.666 70 -33.999
s36.833 -31.333 50.5 -51s24.167 -40.5 31.5 -62.5c36.667 -1.33301 72.167 -6.83301 106.5 -16.5s66.166 -23.834 95.499 -42.501l61.5 160.5c19.667 53 39.167 103 58.5 150s39.166 89.333 59.499 127s42.166 68.167 65.499 91.5
c-7.33301 5.33301 -12.5 11.833 -15.5 19.5s-4.5 16.167 -4.5 25.5s1.83301 18.666 5.5 27.999s8.83398 17.833 15.501 25.5s15 14 25 19s21.667 7.5 35 7.5zM233.002 153.999c8.66699 37.333 23.998 70.667 45.998 100s48.167 54.5 78.5 75.5s64 37.5 101 49.5
s75.167 19.333 114.5 22c-6.66699 18.667 -15.667 36.167 -27 52.5s-25 30.5 -41 42.5s-34.333 21.5 -55 28.5s-44 10.5 -70 10.5c-55.333 0 -104.166 -11.667 -146.499 -35s-77.833 -54 -106.5 -92s-50.5 -80.833 -65.5 -128.5s-22.5 -95.834 -22.5 -144.501
c0 -43.333 6.16699 -85.5 18.5 -126.5s31.333 -77.167 57 -108.5s58.167 -56.5 97.5 -75.5s85.666 -28.5 138.999 -28.5c56.667 0 107.834 14.5 153.501 43.5s87.167 67.5 124.5 115.5s71.166 103 101.499 165s58.5 126 84.5 192c-26 17.333 -54.333 30 -85 38
s-62.334 12.667 -95.001 14c1.33301 -8 2.5 -16 3.5 -24s1.5 -16 1.5 -24c0 -28 -4 -56 -12 -84s-19.833 -54.167 -35.5 -78.5s-35 -45.833 -58 -64.5s-49.5 -32.667 -79.5 -42l-10 24l-10 24c24.667 8 46.334 19.833 65.001 35.5s34.334 33.5 47.001 53.5
s22.167 41.667 28.5 65s9.5 46.666 9.5 69.999c0 7.33301 -0.333008 14.333 -1 21s-1.66699 13.334 -3 20.001c-34 -3.33301 -67.167 -10.5 -99.5 -21.5s-61.833 -25.833 -88.5 -44.5s-49.5 -41.167 -68.5 -67.5s-32.167 -55.833 -39.5 -88.5l-25.5 8
c-8.33301 2.66699 -17.166 5.33398 -26.499 8.00098zM1068 821c-5.33301 -6 -9.83301 -12.499 -13.5 -19.499l-11.5 -21.5c-16 -30 -31.333 -63 -46 -99s-29.167 -73.667 -43.5 -113l-43 -122l-45.5 -127c22.667 -18 42 -39 58 -63s28.333 -51.667 37 -83
c8.66699 96 22.5 198.667 41.5 308s41.167 222.666 66.5 339.999zM1132 979.001c-17.333 0 -30.666 -6.66699 -39.999 -20s-14 -27 -14 -41c0 -10.667 3 -20 9 -28s15.333 -12 28 -12c17.333 0 30.666 6.66699 39.999 20s14 27 14 41c0 10.667 -2.83301 20 -8.5 28
s-15.167 12 -28.5 12z" />
    <glyph glyph-name="AE" unicode="&#xc6;" horiz-adv-x="1673" 
d="M776 649c9.33301 -25.333 23.668 -50.166 43.001 -74.499s44 -45.833 74 -64.5l46 114c15.333 36.667 31 71.167 47 103.5s32.167 61.833 48.5 88.5s33.5 49.334 51.5 68.001l45 -21c-31.333 -142.667 -57 -278.334 -77 -407.001
c11.333 -1.33301 23.166 -2.33301 35.499 -3s25.166 -1 38.499 -1c69.333 0 135 10.667 197 32c-13.333 36 -20 77.667 -20 125c0 34 4.33301 67.333 13 100s21.667 62 39 88s38.666 46.833 63.999 62.5s54.666 23.5 87.999 23.5c41.333 0 72.833 -12.5 94.5 -37.5
s32.5 -57.167 32.5 -96.5c0 -29.333 -6.33301 -57.5 -19 -84.5s-30.167 -52.167 -52.5 -75.5s-48.833 -44.666 -79.5 -63.999s-64 -36 -100 -50c11.333 -24.667 27.333 -44 48 -58c9.33301 1.33301 18.833 2.5 28.5 3.5s19.167 1.5 28.5 1.5c5.33301 0 9 -0.333008 11 -1
l-6 -50c-1.33301 -0.666992 -4.33301 -1 -9 -1c-28.667 0 -53.667 5.66699 -75 17c-42 -10 -79 -27 -111 -51s-58.5 -52 -79.5 -84s-36.833 -66.5 -47.5 -103.5s-16 -73.5 -16 -109.5c0 -32 4.16699 -62.667 12.5 -92s21 -55.166 38 -77.499s38.333 -40.166 64 -53.499
s55.5 -20 89.5 -20c38.667 0 72.5 8.5 101.5 25.5s52.833 38.5 71.5 64.5s32.667 55 42 87s14 63 14 93c0 20 -2 38.833 -6 56.5s-10 33.334 -18 47.001s-17.833 24.334 -29.5 32.001s-25.167 11.5 -40.5 11.5c-16 0 -30.167 -3.83301 -42.5 -11.5s-23 -17.834 -32 -30.501
s-15.833 -27.167 -20.5 -43.5s-7 -33.166 -7 -50.499c0 -15.333 2 -30.666 6 -45.999s9.66699 -29.666 17 -42.999l-54 -27c-8.66699 15.333 -15 31.833 -19 49.5s-6 35.167 -6 52.5c0 23.333 3.5 46.166 10.5 68.499s17.333 42.166 31 59.499s30.5 31.166 50.5 41.499
s42.667 15.5 68 15.5c24.667 0 46.167 -4.83301 64.5 -14.5s33.666 -22.834 45.999 -39.501s21.5 -36 27.5 -58s9 -45.333 9 -70c0 -34 -6 -68.833 -18 -104.5s-30 -68 -54 -97s-54.167 -52.667 -90.5 -71s-78.5 -27.5 -126.5 -27.5c-43.333 0 -81 7.5 -113 22.5
s-58.833 35 -80.5 60s-37.834 54 -48.501 87s-16 67.5 -16 103.5c0 38 6 76.167 18 114.5s29.833 74.333 53.5 108s53.334 63.334 89.001 89.001s77.167 44.5 124.5 56.5c-18 12.667 -33 29.667 -45 51c-34.667 -10.667 -70.5 -18.834 -107.5 -24.501
s-74.5 -8.5 -112.5 -8.5c-24 0 -47 1 -69 3c-12 -80.667 -21.333 -157.167 -28 -229.5s-10 -139.5 -10 -201.5c0 -59.333 3.5 -112.666 10.5 -159.999s18 -87.833 33 -121.5s34.5 -59.5 58.5 -77.5s53 -27 87 -27c38 0 68.333 10.167 91 30.5s41 48.166 55 83.499l52 -18
c-37.333 -94 -99.333 -141 -186 -141c-48 0 -88.667 10.167 -122 30.5s-60.333 49 -81 86s-35.5 81.667 -44.5 134s-13.5 110.833 -13.5 175.5c0 73.333 3.66699 146.5 11 219.5s17.666 148.167 30.999 225.5c-14 3.33301 -27.333 6.83301 -40 10.5
s-24.667 7.83398 -36 12.501l-58.5 -162.5c-20.333 -55 -42.666 -108.167 -66.999 -159.5s-51.166 -99.5 -80.499 -144.5s-62 -84.333 -98 -118s-76 -60.334 -120 -80.001s-92.667 -29.5 -146 -29.5c-62 0 -115.833 10.5 -161.5 31.5s-83.5 48.833 -113.5 83.5
s-52.333 74.334 -67 119.001s-22 90.667 -22 138c0 52 8.66699 103.333 26 154s42.833 96.167 76.5 136.5s75.5 72.833 125.5 97.5s107.667 37 173 37c34.667 0 67.5 -6.16699 98.5 -18.5s58.167 -29.333 81.5 -51s41.833 -47.667 55.5 -78s20.5 -63.5 20.5 -99.5
c0 -28 -4 -56 -12 -84s-19.833 -54.167 -35.5 -78.5s-35 -45.833 -58 -64.5s-49.5 -32.667 -79.5 -42l-10 24l-10 24c24.667 8 46.334 19.833 65.001 35.5s34.334 33.5 47.001 53.5s22.167 41.667 28.5 65s9.5 46.666 9.5 69.999c0 26.667 -5 53 -15 79
s-24.167 49.167 -42.5 69.5s-40 36.666 -65 48.999s-52.5 18.5 -82.5 18.5c-55.333 0 -104.166 -11.667 -146.499 -35s-77.833 -54 -106.5 -92s-50.5 -80.833 -65.5 -128.5s-22.5 -95.834 -22.5 -144.501c0 -43.333 6.16699 -85.5 18.5 -126.5s31.333 -77.167 57 -108.5
s58.167 -56.5 97.5 -75.5s85.666 -28.5 138.999 -28.5c44 0 84.667 9.5 122 28.5s72 44.833 104 77.5s61.833 71.167 89.5 115.5s53.834 91.666 78.501 141.999s48 102.666 70 156.999l64 160.5c-37.333 19.333 -68 42 -92 68s-42 53.667 -54 83zM1361 613
c0 -18.667 1.00098 -37.168 3.00098 -55.501s5.66699 -36.166 11 -53.499c30 13.333 57.667 29 83 47s47.166 37.833 65.499 59.5s32.5 44.667 42.5 69s15 49.833 15 76.5c0 27.333 -6 50.666 -18 69.999s-28.667 29 -50 29c-25.333 0 -47.5 -6.83301 -66.5 -20.5
s-34.833 -31.667 -47.5 -54s-22.167 -48.166 -28.5 -77.499s-9.5 -59.333 -9.5 -90zM1043 779.999c-20 -38 -39.332 -81.667 -57.999 -131l-57 -158c21.333 -10 44.666 -18 69.999 -24c9.33301 56.667 20 114.167 32 172.5l38 181.5c-5.33301 -6 -9.83301 -12.5 -13.5 -19.5
z" />
    <glyph glyph-name="Ccedilla" unicode="&#xc7;" horiz-adv-x="932" 
d="M600 -283c7.33301 2.66699 16.6689 3.99707 28.002 3.99707c24.667 0 42.834 -6.33301 54.501 -19s17.5 -26.667 17.5 -42c0 -18.667 -7.5 -36 -22.5 -52s-37.167 -24 -66.5 -24c-23.333 0 -42 5 -56 15s-22.667 22.333 -26 37l33 14
c3.33301 -10.667 9.16602 -20.167 17.499 -28.5s20.166 -12.5 35.499 -12.5c16 0 28.667 5.66699 38 17s14 23.333 14 36c0 10.667 -3.5 20 -10.5 28s-18.167 12 -33.5 12c-14.667 0 -24.834 -2 -30.501 -6l-20.5 -15l-6 8c-2 2.66699 -4.33301 5.33398 -7 8.00098
c10.667 10.667 18.334 21 23.001 31s9.33398 23.333 14.001 40c-34.667 4 -64.5 16.167 -89.5 36.5s-45.833 46.666 -62.5 78.999s-29.167 69.5 -37.5 111.5s-12.833 86.667 -13.5 134c-62.667 0 -117.167 7.83301 -163.5 23.5s-84.833 37 -115.5 64s-53.5 58 -68.5 93
s-22.5 72.167 -22.5 111.5c0 36.667 6.16699 70.834 18.5 102.501s29.5 59.167 51.5 82.5s48 41.5 78 54.5s62.667 19.5 98 19.5c19.333 0 37.333 -2.5 54 -7.5s31.667 -11.167 45 -18.5l-27 -48c-21.333 14 -45.666 21 -72.999 21c-28.667 0 -54.834 -5.5 -78.501 -16.5
s-44.167 -26 -61.5 -45s-30.833 -41.167 -40.5 -66.5s-14.5 -52.666 -14.5 -81.999c0 -35.333 6.5 -68.5 19.5 -99.5s32.667 -58.333 59 -82s59.5 -42.334 99.5 -56.001s87 -20.5 141 -20.5c0.666992 54 5.66699 109.5 15 166.5s22.333 112.5 39 166.5s37 104.833 61 152.5
s50.833 89.5 80.5 125.5s62.167 64.5 97.5 85.5s73 31.5 113 31.5c26.667 0 50 -4.83301 70 -14.5s36.5 -23.167 49.5 -40.5s22.667 -37.833 29 -61.5s9.5 -49.5 9.5 -77.5c0 -34.667 -5 -71.667 -15 -111s-24.667 -78.666 -44 -117.999s-43.333 -77.5 -72 -114.5
s-61.834 -70.333 -99.501 -100s-79.667 -54.834 -126 -75.501s-96.5 -34.334 -150.5 -41.001c0 -44 2.66699 -85.5 8 -124.5s14 -73.5 26 -103.5s27.667 -54.5 47 -73.5s43 -29.833 71 -32.5c4.66699 25.333 8.5 52.5 11.5 81.5s6.66699 57.833 11 86.5
s9.66602 56.334 15.999 83.001s15 50.167 26 70.5s25.333 36.5 43 48.5s39.5 18 65.5 18c18.667 0 35 -3.66699 49 -11s25.667 -17.5 35 -30.5s16.333 -28.167 21 -45.5s7 -35.666 7 -54.999c0 -30 -5.66699 -61.5 -17 -94.5s-28 -63 -50 -90s-49.5 -49.5 -82.5 -67.5
s-71.5 -27 -115.5 -27c-4.66699 -17.333 -11.667 -33.666 -21 -48.999zM798.003 856.997c-31.333 0 -61.332 -9.99805 -89.999 -29.998s-55.5 -47.167 -80.5 -81.5s-47.833 -74.333 -68.5 -120s-38.667 -94 -54 -145s-27.666 -103.667 -36.999 -158
s-15.333 -106.833 -18 -157.5c50 7.33301 95.667 21.166 137 41.499s78.666 45.166 111.999 74.499s62.666 61.833 87.999 97.5s46.5 72.167 63.5 109.5s29.667 74.333 38 111s12.5 71 12.5 103c0 46 -8.5 83.333 -25.5 112s-42.833 43 -77.5 43zM775.004 155.999
c-18.667 0 -34.1641 -5.16504 -46.4971 -15.498s-22.833 -24.333 -31.5 -42s-15.834 -38.167 -21.501 -61.5s-10.834 -48.333 -15.501 -75l-14 -82.5c-4.66699 -28.333 -10.334 -56.166 -17.001 -83.499c34 2 64.167 11.667 90.5 29s48.333 38.666 66 63.999
s31 52.666 40 81.999s13.5 57 13.5 83c0 28 -5.16699 51.667 -15.5 71s-26.5 29.666 -48.5 30.999z" />
    <glyph glyph-name="Egrave" unicode="&#xc8;" horiz-adv-x="756" 
d="M555 371c-1.33301 -0.666992 -4.33105 -1.00391 -8.99805 -1.00391c-28.667 0 -53.667 5.66699 -75 17c-42 -10 -79 -27 -111 -51s-58.5 -52 -79.5 -84s-36.833 -66.5 -47.5 -103.5s-16 -73.5 -16 -109.5c0 -32 4.16699 -62.667 12.5 -92s21 -55.166 38 -77.499
s38.333 -40.166 64 -53.499s55.5 -20 89.5 -20c38.667 0 72.5 8.5 101.5 25.5s52.833 38.5 71.5 64.5s32.667 55 42 87s14 63 14 93c0 20 -2 38.833 -6 56.5s-10 33.334 -18 47.001s-17.833 24.334 -29.5 32.001s-25.167 11.5 -40.5 11.5
c-16 0 -30.167 -3.83301 -42.5 -11.5s-23 -17.834 -32 -30.501s-15.833 -27.167 -20.5 -43.5s-7 -33.166 -7 -50.499c0 -15.333 2 -30.666 6 -45.999s9.66699 -29.666 17 -42.999l-54 -27c-8.66699 15.333 -15 31.833 -19 49.5s-6 35.167 -6 52.5
c0 23.333 3.5 46.166 10.5 68.499s17.333 42.166 31 59.499s30.5 31.166 50.5 41.499s42.667 15.5 68 15.5c24.667 0 46.167 -4.83301 64.5 -14.5s33.666 -22.834 45.999 -39.501s21.5 -36 27.5 -58s9 -45.333 9 -70c0 -34 -6 -68.833 -18 -104.5s-30 -68 -54 -97
s-54.167 -52.667 -90.5 -71s-78.5 -27.5 -126.5 -27.5c-43.333 0 -81 7.5 -113 22.5s-58.833 35 -80.5 60s-37.834 54 -48.501 87s-16 67.5 -16 103.5c0 38 6 76.167 18 114.5s29.833 74.333 53.5 108s53.334 63.334 89.001 89.001s77.167 44.5 124.5 56.5
c-10.667 7.33301 -20 16.333 -28 27s-15 22.667 -21 36c-12.667 -1.33301 -25.667 -2.5 -39 -3.5s-27.333 -1.5 -42 -1.5c-54 0 -100.333 5.83301 -139 17.5s-70.334 27 -95.001 46s-42.667 40.333 -54 64s-17 47.5 -17 71.5c0 20 3.66699 39.333 11 58s18 35 32 49
s30.833 25.333 50.5 34s41.5 13 65.5 13c70 0 122.333 -30.667 157 -92l-22 -16l-22 -16c-11.333 22.667 -26.166 41.334 -44.499 56.001s-41.166 22 -68.499 22c-17.333 0 -32.833 -2.83301 -46.5 -8.5s-25.167 -13.5 -34.5 -23.5s-16.5 -21.5 -21.5 -34.5
s-7.5 -26.833 -7.5 -41.5c0 -19.333 4.83301 -39 14.5 -59s24.834 -38.167 45.501 -54.5s47.167 -29.666 79.5 -39.999s71.166 -15.5 116.499 -15.5c12.667 0 24.5 0.5 35.5 1.5s22.167 2.16699 33.5 3.5c-11.333 34 -17 70.333 -17 109c0 34 4.33301 67.333 13 100
s21.667 62 39 88s38.666 46.833 63.999 62.5s54.666 23.5 87.999 23.5c41.333 0 72.833 -12.5 94.5 -37.5s32.5 -57.167 32.5 -96.5c0 -25.333 -5 -51.5 -15 -78.5s-25.167 -52.833 -45.5 -77.5s-46.333 -47 -78 -67s-68.834 -35.333 -111.501 -46
c5.33301 -14 11.833 -26.333 19.5 -37s16.834 -19.334 27.501 -26.001c9.33301 1.33301 18.833 2.5 28.5 3.5s19.167 1.5 28.5 1.5c5.33301 0 9 -0.333008 11 -1zM573.002 854.996c-25.333 0 -47.5 -6.83398 -66.5 -20.501s-34.833 -31.667 -47.5 -54
s-22.167 -48.166 -28.5 -77.499s-9.5 -59.333 -9.5 -90c0 -35.333 4.66699 -69 14 -101c36 10 67 24.333 93 43s47.333 39.334 64 62.001s29 46.167 37 70.5s12 47.166 12 68.499c0 27.333 -6 50.333 -18 69s-28.667 28.667 -50 30zM493.002 1046
c16 -31.333 31.667 -56.999 47 -76.999s27.333 -34.667 36 -44l-21 -20c-10 7.33301 -20.667 16.666 -32 27.999c-9.33301 9.33301 -20 21.333 -32 36s-24 32 -36 52z" />
    <glyph glyph-name="Eacute" unicode="&#xc9;" horiz-adv-x="758" 
d="M557 371c-1.33301 -0.666992 -4.33105 -1.00391 -8.99805 -1.00391c-28.667 0 -53.667 5.66699 -75 17c-42 -10 -79 -27 -111 -51s-58.5 -52 -79.5 -84s-36.833 -66.5 -47.5 -103.5s-16 -73.5 -16 -109.5c0 -32 4.16699 -62.667 12.5 -92s21 -55.166 38 -77.499
s38.333 -40.166 64 -53.499s55.5 -20 89.5 -20c38.667 0 72.5 8.5 101.5 25.5s52.833 38.5 71.5 64.5s32.667 55 42 87s14 63 14 93c0 20 -2 38.833 -6 56.5s-10 33.334 -18 47.001s-17.833 24.334 -29.5 32.001s-25.167 11.5 -40.5 11.5
c-16 0 -30.167 -3.83301 -42.5 -11.5s-23 -17.834 -32 -30.501s-15.833 -27.167 -20.5 -43.5s-7 -33.166 -7 -50.499c0 -15.333 2 -30.666 6 -45.999s9.66699 -29.666 17 -42.999l-54 -27c-8.66699 15.333 -15 31.833 -19 49.5s-6 35.167 -6 52.5
c0 23.333 3.5 46.166 10.5 68.499s17.333 42.166 31 59.499s30.5 31.166 50.5 41.499s42.667 15.5 68 15.5c24.667 0 46.167 -4.83301 64.5 -14.5s33.666 -22.834 45.999 -39.501s21.5 -36 27.5 -58s9 -45.333 9 -70c0 -34 -6 -68.833 -18 -104.5s-30 -68 -54 -97
s-54.167 -52.667 -90.5 -71s-78.5 -27.5 -126.5 -27.5c-43.333 0 -81 7.5 -113 22.5s-58.833 35 -80.5 60s-37.834 54 -48.501 87s-16 67.5 -16 103.5c0 38 6 76.167 18 114.5s29.833 74.333 53.5 108s53.334 63.334 89.001 89.001s77.167 44.5 124.5 56.5
c-10.667 7.33301 -20 16.333 -28 27s-15 22.667 -21 36c-12.667 -1.33301 -25.667 -2.5 -39 -3.5s-27.333 -1.5 -42 -1.5c-54 0 -100.333 5.83301 -139 17.5s-70.334 27 -95.001 46s-42.667 40.333 -54 64s-17 47.5 -17 71.5c0 20 3.66699 39.333 11 58s18 35 32 49
s30.833 25.333 50.5 34s41.5 13 65.5 13c70 0 122.333 -30.667 157 -92l-22 -16l-22 -16c-11.333 22.667 -26.166 41.334 -44.499 56.001s-41.166 22 -68.499 22c-17.333 0 -32.833 -2.83301 -46.5 -8.5s-25.167 -13.5 -34.5 -23.5s-16.5 -21.5 -21.5 -34.5
s-7.5 -26.833 -7.5 -41.5c0 -19.333 4.83301 -39 14.5 -59s24.834 -38.167 45.501 -54.5s47.167 -29.666 79.5 -39.999s71.166 -15.5 116.499 -15.5c12.667 0 24.5 0.5 35.5 1.5s22.167 2.16699 33.5 3.5c-11.333 34 -17 70.333 -17 109c0 34 4.33301 67.333 13 100
s21.667 62 39 88s38.666 46.833 63.999 62.5s54.666 23.5 87.999 23.5c41.333 0 72.833 -12.5 94.5 -37.5s32.5 -57.167 32.5 -96.5c0 -25.333 -5 -51.5 -15 -78.5s-25.167 -52.833 -45.5 -77.5s-46.333 -47 -78 -67s-68.834 -35.333 -111.501 -46
c5.33301 -14 11.833 -26.333 19.5 -37s16.834 -19.334 27.501 -26.001c9.33301 1.33301 18.833 2.5 28.5 3.5s19.167 1.5 28.5 1.5c5.33301 0 9 -0.333008 11 -1zM575.002 854.996c-25.333 0 -47.5 -6.83398 -66.5 -20.501s-34.833 -31.667 -47.5 -54
s-22.167 -48.166 -28.5 -77.499s-9.5 -59.333 -9.5 -90c0 -35.333 4.66699 -69 14 -101c36 10 67 24.333 93 43s47.333 39.334 64 62.001s29 46.167 37 70.5s12 47.166 12 68.499c0 27.333 -6 50.333 -18 69s-28.667 28.667 -50 30zM674.002 1041
c-12.667 -20 -24.834 -37.332 -36.501 -51.999s-22.167 -26.667 -31.5 -36c-11.333 -11.333 -21.666 -20.666 -30.999 -27.999l-21 19c8.66699 9.33301 20.667 24.166 36 44.499s31 46.166 47 77.499z" />
    <glyph glyph-name="Ecircumflex" unicode="&#xca;" horiz-adv-x="755" 
d="M554 371c-1.33301 -0.666992 -4.33105 -1.00391 -8.99805 -1.00391c-28.667 0 -53.667 5.66699 -75 17c-42 -10 -79 -27 -111 -51s-58.5 -52 -79.5 -84s-36.833 -66.5 -47.5 -103.5s-16 -73.5 -16 -109.5c0 -32 4.16699 -62.667 12.5 -92s21 -55.166 38 -77.499
s38.333 -40.166 64 -53.499s55.5 -20 89.5 -20c38.667 0 72.5 8.5 101.5 25.5s52.833 38.5 71.5 64.5s32.667 55 42 87s14 63 14 93c0 20 -2 38.833 -6 56.5s-10 33.334 -18 47.001s-17.833 24.334 -29.5 32.001s-25.167 11.5 -40.5 11.5
c-16 0 -30.167 -3.83301 -42.5 -11.5s-23 -17.834 -32 -30.501s-15.833 -27.167 -20.5 -43.5s-7 -33.166 -7 -50.499c0 -15.333 2 -30.666 6 -45.999s9.66699 -29.666 17 -42.999l-54 -27c-8.66699 15.333 -15 31.833 -19 49.5s-6 35.167 -6 52.5
c0 23.333 3.5 46.166 10.5 68.499s17.333 42.166 31 59.499s30.5 31.166 50.5 41.499s42.667 15.5 68 15.5c24.667 0 46.167 -4.83301 64.5 -14.5s33.666 -22.834 45.999 -39.501s21.5 -36 27.5 -58s9 -45.333 9 -70c0 -34 -6 -68.833 -18 -104.5s-30 -68 -54 -97
s-54.167 -52.667 -90.5 -71s-78.5 -27.5 -126.5 -27.5c-43.333 0 -81 7.5 -113 22.5s-58.833 35 -80.5 60s-37.834 54 -48.501 87s-16 67.5 -16 103.5c0 38 6 76.167 18 114.5s29.833 74.333 53.5 108s53.334 63.334 89.001 89.001s77.167 44.5 124.5 56.5
c-10.667 7.33301 -20 16.333 -28 27s-15 22.667 -21 36c-12.667 -1.33301 -25.667 -2.5 -39 -3.5s-27.333 -1.5 -42 -1.5c-54 0 -100.333 5.83301 -139 17.5s-70.334 27 -95.001 46s-42.667 40.333 -54 64s-17 47.5 -17 71.5c0 20 3.66699 39.333 11 58s18 35 32 49
s30.833 25.333 50.5 34s41.5 13 65.5 13c70 0 122.333 -30.667 157 -92l-22 -16l-22 -16c-11.333 22.667 -26.166 41.334 -44.499 56.001s-41.166 22 -68.499 22c-17.333 0 -32.833 -2.83301 -46.5 -8.5s-25.167 -13.5 -34.5 -23.5s-16.5 -21.5 -21.5 -34.5
s-7.5 -26.833 -7.5 -41.5c0 -19.333 4.83301 -39 14.5 -59s24.834 -38.167 45.501 -54.5s47.167 -29.666 79.5 -39.999s71.166 -15.5 116.499 -15.5c12.667 0 24.5 0.5 35.5 1.5s22.167 2.16699 33.5 3.5c-11.333 34 -17 70.333 -17 109c0 34 4.33301 67.333 13 100
s21.667 62 39 88s38.666 46.833 63.999 62.5s54.666 23.5 87.999 23.5c41.333 0 72.833 -12.5 94.5 -37.5s32.5 -57.167 32.5 -96.5c0 -25.333 -5 -51.5 -15 -78.5s-25.167 -52.833 -45.5 -77.5s-46.333 -47 -78 -67s-68.834 -35.333 -111.501 -46
c5.33301 -14 11.833 -26.333 19.5 -37s16.834 -19.334 27.501 -26.001c9.33301 1.33301 18.833 2.5 28.5 3.5s19.167 1.5 28.5 1.5c5.33301 0 9 -0.333008 11 -1zM572.002 854.996c-25.333 0 -47.5 -6.83398 -66.5 -20.501s-34.833 -31.667 -47.5 -54
s-22.167 -48.166 -28.5 -77.499s-9.5 -59.333 -9.5 -90c0 -35.333 4.66699 -69 14 -101c36 10 67 24.333 93 43s47.333 39.334 64 62.001s29 46.167 37 70.5s12 47.166 12 68.499c0 27.333 -6 50.333 -18 69s-28.667 28.667 -50 30zM617.002 1072
c18 -29.333 32.167 -54.667 42.5 -76s16.5 -34.666 18.5 -39.999l-37 -18c-2 4 -6.33301 15 -13 33s-17.667 40.667 -33 68l-19 -23l-23 -26.5c-8 -9 -16.167 -17.333 -24.5 -25s-15.5 -13.834 -21.5 -18.501l-24 26c28.667 21.333 51.5 40.833 68.5 58.5
s29.833 32.167 38.5 43.5z" />
    </font>
</defs>
</svg>
