<?xml version="1.0" standalone="no"?>
<!DOCTYPE svg PUBLIC "-//W3C//DTD SVG 1.1//EN" "http://www.w3.org/Graphics/SVG/1.1/DTD/svg11.dtd" >
<svg xmlns="http://www.w3.org/2000/svg" xmlns:xlink="http://www.w3.org/1999/xlink" version="1.1">
<metadata>
Created by FontForge 20170731 at Fri Nov  4 05:23:01 2022
 By Aleksey,,,
(c)Storytype Studio 2021. All Rights Reserved
</metadata>
<defs>
<font id="SVN-QalishaSignature-Script" horiz-adv-x="722" >
  <font-face 
    font-family="SVN-Qalisha Signature Script"
    font-weight="400"
    font-stretch="normal"
    units-per-em="2048"
    panose-1="2 0 6 0 0 0 0 0 0 0"
    ascent="1638"
    descent="-410"
    x-height="692"
    cap-height="1780"
    bbox="-3151.69 -954 6703 2380.53"
    underline-thickness="102"
    underline-position="-307"
    unicode-range="U+0020-FB02"
  />
<missing-glyph horiz-adv-x="843" 
d="M823 0h-823v1434h823v-1434zM774 49v1335h-725v-1335h725zM377 455h-31q-35 88 -35 147q0 75 80 217q82 143 82 217q0 57 -32.5 90t-90.5 33q-61 0 -125 -55v45q80 72 170 72q91 0 147 -46t56 -128q0 -51 -24.5 -102t-84.5 -128q-54 -66 -100 -131q-35 -53 -35 -98
q0 -30 23 -133zM367 213q-11 0 -21 10l-61 72q-6 6 -6 16q0 13 10 23l57 57q8 10 21 10q7 0 20 -10l57 -59q9 -12 9 -21q0 -7 -11 -22l-55 -62q-14 -14 -20 -14z" />
    <glyph glyph-name="c_c" unicode="cc" horiz-adv-x="790" 
d="M408 575q-158 -47 -293 -96q-39 -12 -78 -26q-67 -23 -86 -27q-8 -2 -25 -2t-32 6q-21 12 -21 31q0 8 4 20q9 18 21 33q96 113 217 188q29 18 51 23h8q29 0 45 -25q8 -11 8 -22q0 -16 -8 -27q-8 -14 -18 -14q-11 0 -19 14q-10 13 -14 13q-2 0 -4 -1t-5 -2t-5 -2
q0 -2 -2 -2q-71 -41 -123 -88q-45 -36 -72 -63q-2 -4 -10 -12q-8 -11 -19 -29q33 3 54 12q2 1 7 2t7 2q37 11 108.5 34.5t79.5 25.5l189 57q30 9 80 20h2q35 32 80 60q20 13 38 16h9q22 0 34 -18q7 -11 7 -19q0 -9 -7 -20q-9 -12 -16 -12q-9 0 -12 12q-7 10 -13 10
q-2 0 -10 -4h-2q-49 -28 -94 -70q-27 -21 -55 -49l-8 -8q-8 -8 -15 -22q31 4 41 10q8 0 10 2q27 8 77 23.5t69 21.5l145 45q53 14 64 16q6 2 16 2h8q1 -1 2 -3t2 -3v-4q0 -5 -8 -8q-2 0 -4 -2h-4q-125 -37 -274 -88q-35 -15 -60 -23q-29 -10 -67 -20q-6 -2 -19 -2
q-12 0 -24 6q-17 10 -17 25q0 8 2 14q5 12 17 24q12 16 41 45z" />
    <glyph glyph-name="e_e" unicode="ee" horiz-adv-x="958" 
d="M164 643q-66 -27 -123 -74q28 2 72 27q38 23 51 47zM682 631q-40 -16 -82 -49q28 4 47 16q25 18 35 33zM543 582l-66 -17q-133 -36 -256 -78q-117 -38 -149 -47q-2 -2 -9 -2q-32 -14 -69 -14h-19q-25 0 -47 16t-22 39q0 7 4 23q9 27 24 45q74 87 168 131q30 13 52 16
q6 2 16 2q16 0 29 -8q26 -14 26 -37q0 -18 -18 -33q-57 -54 -131 -77q-20 -4 -31 -4q-10 0 -16 2q-4 2 -11 2q-11 0 -22 -11q-25 -30 -35 -45q-2 -4 -2 -10q0 -10 16 -10q19 0 37 6q27 7 81.5 21.5t82.5 21.5q50 16 92 27q35 9 49 14q126 36 240 59l29 7q18 13 55 32
q11 7 33 11q4 2 12 2t19 -7q18 -9 18 -22q0 -14 -12 -23q-43 -37 -88 -53q-6 -2 -21 -2q-6 0 -10 2q-2 2 -8 2q-10 0 -15 -8q-14 -17 -22 -31q-2 -2 -2 -6q0 -6 12 -6q9 0 25 4q5 1 108 29l62 16q20 8 30 10q116 31 162 39q12 3 27 6h6h6q1 -1 2 -3t2 -3v-2q0 -6 -2 -6
q-1 -1 -4 -2t-4 -2l-86 -20q-33 -8 -172 -52q-16 -5 -49 -15t-49 -15q-2 -2 -7 -2q-26 -11 -47 -11h-10q-17 0 -33 13q-14 8 -14 26q0 9 2 15q6 14 16 28q4 6 15 17z" />
    <glyph glyph-name="f_f" unicode="ff" horiz-adv-x="913" 
d="M-1049 -678q33 12 56 31q278 189 518 414q115 103 203 215q41 50 69 116q8 16 8 33q0 28 -41 43q-12 6 -36 14l-33 13q-2 0 -4 2q-12 4 -17 4q-6 0 -10 -4q0 -1 -4 -5.5t-8 -7.5q-47 -48 -94 -100q-236 -260 -428 -504q-2 -2 -10 -11t-11 -15q-77 -95 -145 -201l-4 -4
q-1 -2 -2 -6t-2 -6q-5 -10 -5 -15v-6zM711 692q8 4 10 6q4 3 12 9.5t12 9.5l9 4q10 6 26 22q-37 -19 -69 -51zM-207 -309q30 13 39 22q187 124 373 297q80 71 145 154q33 45 51 84q7 17 7 24q0 22 -31 31q-15 8 -27 10q-2 1 -9.5 4.5t-12.5 4.5q-2 2 -4 2q-6 2 -13 2
q-4 0 -6 -2q-7 -7 -8 -9q-39 -39 -68 -73q-178 -197 -307 -361l-16 -20q-56 -67 -105 -144q0 -2 -2 -4q-1 -1 -2 -4t-2 -4q-2 -2 -2 -10v-4zM229 715q7 7 15 10q13 10 35 25q2 2 10 6q21 12 35 32q-57 -29 -95 -73zM506 586q-12 -1 -45 -11q-24 -7 -86 -28l-13 -4
q-274 -86 -514 -207q-51 -25 -106 -64q-21 -14 -33 -26q-8 -5 -8 -10q0 -8 12 -11q7 -4 21 -8q2 -2 6 -2q32 -14 43 -20q51 -26 51 -76q0 -17 -6 -35q-11 -29 -37 -76q-66 -95 -137 -166q-192 -192 -399 -352q-110 -90 -226 -166q-45 -31 -71 -41q-16 -4 -23 -4
q-15 0 -25 10t-10 23t6 22q39 80 80 134l8 12q171 231 385 485q248 291 494 535q195 192 432 352q45 31 101 57q1 1 4.5 2t5.5 2q15 6 30 9q2 2 9 2q16 0 26 -17q8 -8 8 -22q0 -8 -6 -17q-16 -22 -41 -43l-2 -2q-81 -70 -190 -139q-73 -49 -178 -94l-4 -2q-10 -4 -17 -10
q-116 -96 -215 -201q230 107 473 184q85 31 195 51q20 4 31 4h6q113 99 225 175q42 26 72 40q3 0 6 3l24 6q2 2 6 2q9 0 19 -13q4 -12 4 -16t-4 -12q-8 -10 -29 -31h-2q-55 -47 -135 -100q-63 -42 -129 -68q-2 -2 -4 -2q-8 -4 -10 -8q-86 -73 -156 -143q182 82 340 133
q70 21 141 36q9 3 23 3q9 0 18 -3q1 -1 3 -2t3 -2q2 -2 2 -4v-2q0 -6 -2 -6q-2 -2 -8 -2h-6q-36 0 -63 -8q-13 -3 -35 -11t-29 -10l-8 -4q-191 -59 -369 -147q-45 -24 -78 -47q-12 -9 -22 -19q-6 -3 -6 -8q0 -3 8 -6q8 -4 14 -6q4 0 6 -2q9 -2 31 -15q35 -18 35 -55
q0 -14 -2 -24q-8 -23 -27 -54q-53 -74 -100 -118q-124 -127 -287 -254q-59 -50 -162 -119q-20 -17 -51 -31q-6 -2 -14 -2q-11 0 -19 8q-8 5 -8 15q0 4 4 16q21 46 58 96q1 1 3 4t3 4q132 181 276 351q188 222 355 383q8 8 25.5 24.5t25.5 24.5z" />
    <glyph glyph-name="o_n" unicode="on" horiz-adv-x="1329" 
d="M805 618q-6 -2 -21.5 -7.5t-23.5 -8.5q-122 -44 -279 -123q-16 -8 -61 -26q-26 -10 -41 8q-16 16 -6 43q5 14 22 35q44 53 133 127q3 2 14.5 11t18.5 15q-7 4 -26 4q-49 -5 -299 -30q-22 -4 -15 -19q11 -38 -20 -72q-2 -2 -6.5 -6t-6.5 -6q-71 -62 -168 -94
q-42 -13 -67 12q-29 29 -14 62q7 21 18 35q48 68 131 118q51 28 90 9q13 -9 41 -5q207 24 260 29q17 2 60 8.5t67 7.5q20 0 29.5 -7.5t15.5 -26.5t-12 -37q-29 -29 -45 -41q-16 -13 -50 -39.5t-50 -40.5q-19 -19 -25 -31q15 5 40 17t36 16q110 53 291 121q4 1 13 4t13 4
q24 8 35 -8q15 -25 2 -43q-13 -16 -29 -29q-32 -32 -47 -57q-6 -11 -3.5 -15t14.5 -6q26 -2 92 11q56 10 167.5 31.5t166.5 31.5q54 8 81 14q19 0 23 -2q10 -3 10 -14t-10 -14q-5 -1 -16.5 -3t-16.5 -3q-55 -12 -192 -42.5t-211 -46.5q-39 -9 -72 -12q-59 0 -78 37
q-18 33 15 80q12 18 12 24zM0 518q3 -3 6.5 -3.5t6 0t6.5 2t6 1.5q52 17 104 53q28 17 51 43q10 14 2 25q-1 1 -3.5 3t-4 3t-3.5 2.5t-4 1.5t-4.5 -0.5t-4.5 -1.5q-14 -5 -19 -8q-71 -38 -127 -100q-12 -12 -12 -21z" />
    <glyph glyph-name="o_m" unicode="om" horiz-adv-x="1673" 
d="M-29 481q11 -3 17 0q143 59 213 137q22 25 30 50q7 24 -12 34q-2 1 -12 11q-8 9 -5 17t15 9h6q103 0 332 33q6 1 19 1t20 1q26 4 40 -22.5t1 -46.5q-12 -18 -27 -33q-87 -82 -108 -101q-1 -1 -10 -10.5t-13 -17.5q11 5 28 12.5t30 13.5t24 11q152 69 285 118q18 9 26 11
q26 8 37 -11q16 -19 4 -43q-6 -12 -24 -30q-31 -27 -70 -66q8 0 33 10q165 78 309 117q5 1 16.5 4t16.5 4q34 4 47 -12q20 -23 6 -55q-2 -4 -6 -11.5t-6 -11.5q-5 -13 -16 -31q-1 -3 -3.5 -8t-3 -8t1.5 -8q3 -4 6 -5t9.5 0t7.5 1q71 9 272 45q105 18 170 35q2 0 6.5 1t6.5 1
q10 0 16 -9q5 -10 -6 -18q-14 -8 -33 -12q-46 -10 -138 -31t-138 -31q-19 -4 -55 -11.5t-52 -10.5q-30 -7 -53 -4q-29 0 -44 18t-11 47q3 27 20 58q0 1 3.5 6.5t3.5 7.5t-3 8q-5 5 -24 0q-46 -11 -74 -20q-93 -35 -213 -88q-60 -29 -96 -43q-34 -13 -48 6q-22 22 0 53
q6 10 52 61q17 17 20 25q-10 2 -29 -8q-91 -33 -290 -127q-40 -17 -45 -19q-32 -10 -50 11q-17 23 0 51q4 6 37 51q19 22 59 60t46 44q18 14 22 27q-15 -1 -45 -2t-45 -2l-93 -9l-93 -9q-23 -3 -23 -23q5 -57 -49 -111q-97 -95 -235 -143q-34 -13 -56 6q-25 29 -14 64
q5 20 23 45q70 92 157 153q18 13 25 15q20 6 36 -3.5t21 -29.5q7 -24 -16 -27q-14 -5 -33 -16q-69 -51 -143 -135q-13 -13 -13 -21z" />
    <glyph glyph-name="o_o" unicode="oo" horiz-adv-x="1026" 
d="M465 680q-20 -3 -57.5 -10.5t-57.5 -10.5q-98 -20 -149 -26q-7 0 -19 -4q-22 -3 -16 -25q15 -66 -43 -121q-53 -53 -131 -75q-25 -5 -29 -5q-31 0 -49 19.5t-16 50.5q0 21 14 45q57 94 145 152q16 13 43 20q34 13 54 -10q15 -17 49 -14q37 6 79 15t94.5 20.5t80.5 17.5
q18 4 53.5 12t54.5 12q22 6 30.5 2t14.5 -24q9 -20 27 -23q72 -15 98 -80q5 -16 27 -16q229 10 272 14h6q23 0 25 -14q1 -3 -0.5 -5.5t-4 -4t-5 -2t-6.5 -1.5t-5 -1q-83 -8 -120 -10q-72 -6 -148 -9q-22 0 -28 -4.5t-11 -23.5q-13 -50 -65 -92q-99 -80 -219 -89
q-67 -4 -100.5 42t-8.5 104q24 59 80 119q7 8 22.5 24.5t22.5 24.5q-1 1 -2 3t-2 3zM436 414q120 3 213 84q25 21 37 41q9 14 6 20q-2 4 -4.5 5t-8 0t-7.5 -1q-50 0 -99 6q-46 7 -65 31q-12 14 -23 0q-58 -55 -92 -121q-7 -14 -10 -26q-3 -21 3 -29.5t26 -9.5h24zM137 594
q-1 2 -1 8.5t-1.5 11t-5.5 7.5q-9 1 -11.5 1t-9.5 -4.5t-8 -5.5q-63 -43 -102 -84q-36 -36 -51 -63q-9 -21 12 -21q3 0 8 1t8 1q86 25 140 91q22 25 22 57zM643 600h29q1 0 11 -1t13.5 1t5.5 8q4 13 -14 31q-1 1 -5.5 4t-8.5 4q-65 30 -129 -4q-15 -10 -13 -18q2 -11 19 -15
q41 -10 92 -10z" />
    <glyph glyph-name="g_h" unicode="gh" horiz-adv-x="1787" 
d="M1286 657q-43 -4 -108 -34q-171 -81 -359 -205q-66 -47 -106 -72q-16 -10 -35 -16q-21 -9 -39 6q-18 18 -12 41q7 19 22 45q26 42 150 207q3 4 8.5 11t10 14t7.5 14q-7 2 -9 2t-7 -3t-6 -3q-61 -28 -182 -83.5t-181 -82.5q-27 -12 -45 -39q-178 -275 -434 -563
q-151 -171 -280 -285q-188 -169 -359 -258q-105 -57 -196 -70q-46 -7 -76 0q-72 10 -106 60.5t-19 124.5q8 44 35 96q58 107 178 221q165 154 361.5 277.5t439.5 240.5q32 15 358 166q26 11 37 27q61 89 108 176q1 3 3.5 7.5t4.5 8t3 8.5t0 9q-21 -1 -56 -19t-47 -33
q-2 -4 -8 -10q-27 -4 -54 -17.5t-59 -33.5t-49 -29q-17 -8 -51.5 -25.5t-52.5 -25.5q-45 -18 -64 -18q-32 -1 -48 20.5t-5 50.5q9 26 39 56q71 77 166 118q23 11 51 15q51 11 96 -25q17 -15 23 -15.5t26 9.5q30 18 60 33q44 19 65 0q33 -26 23 -74q-6 -31 -33 -82
q-28 -55 -31 -63q7 2 115 49q48 23 145.5 68t145.5 67q31 13 49 39q255 319 490 538q192 186 374 297q63 39 129 62q27 8 64 8q41 -1 66 -31t20 -71q-7 -48 -47 -105q-59 -82 -158 -168q-228 -201 -604 -409q-133 -72 -244 -127q-20 -10 -33 -23q-18 -22 -60 -74t-65.5 -81
t-57 -73t-60.5 -81q-1 -2 -4.5 -6.5t-5.5 -9t-1 -9.5q14 4 35 21q238 161 414 246q88 41 135 51q35 11 53 -15q19 -27 0 -59q-2 -3 -23 -31.5t-32 -44.5q-35 -58 -37 -63q-10 -19 -5.5 -25t26.5 -6q22 -2 71 10q250 52 467 125q20 8 29 6q11 0 14 -10t-6 -16l-22 -11
q-238 -84 -490 -143q-48 -6 -49 -6q-43 -6 -67.5 24.5t-10.5 73.5q19 52 62 109q3 4 10 12t10 12zM279 416q-1 1 -3.5 3t-3.5 3q-8 -4 -28 -12q-38 -17 -207 -97q-361 -166 -617 -346q-208 -148 -329 -293q-80 -91 -111 -172q-22 -54 -16 -108q6 -60 65 -72q52 -12 123 10
q98 28 223 105q226 147 447 397q192 214 422 533q6 8 17.5 24.5t17.5 24.5zM1028 813q0 -1 1 -2t1 -2q5 2 14.5 6t14.5 6q62 32 223 121q313 177 524 363q124 111 176 204q20 33 25 60q8 38 -31 41q-10 0 -22 -4q-52 -12 -99 -39q-149 -84 -356 -267q-225 -200 -440 -452
q-5 -6 -15.5 -17.5t-15.5 -17.5zM291 688q-51 9 -135 -34.5t-127 -100.5q30 4 129 55.5t133 79.5z" />
    <glyph glyph-name="i_j" unicode="ij" horiz-adv-x="1536" 
d="M915 487q9 0 66 15q249 63 487 108q57 11 93 11h22q16 -4 16 -17q0 -10 -16 -10q-60 -4 -130.5 -16.5t-119 -24t-130 -32t-120.5 -29.5q-41 -9 -174 -46q-29 -7 -41 -26q-78 -129 -266 -363q-256 -318 -467 -514q-238 -228 -465 -336q-100 -49 -200 -63q-90 -11 -156 10
q-79 28 -114.5 90.5t-18.5 145.5q15 73 74 161q78 117 221 240q210 183 532 354q365 193 778 306q27 6 41 28q3 5 27 42.5t35 58.5q0 1 1.5 4.5t2.5 5.5t0.5 5t-2.5 5q-5 7 -21 2q-30 -5 -102 -27q-367 -124 -420 -141q-157 -52 -270 -69q-56 -7 -92 -5q-51 5 -76.5 47
t-5.5 89q5 16 16 30q58 85 166 152q46 29 72 -29q10 -23 -13 -26q-15 -4 -22 -11q-91 -72 -139 -125q-27 -32 -33 -49q-6 -14 -3 -19.5t17 -10.5q24 -6 72 -2q106 12 256 57q85 25 238.5 79.5t213.5 73.5q10 3 36.5 13t41.5 14q7 1 20.5 4t20.5 4q43 6 65 -18.5t13 -65.5
q-9 -31 -20 -55q-11 -16 -7 -25zM772 401q-5 2 -10 2.5t-8 -0.5t-8 -2.5t-7 -1.5q-283 -84 -522 -194q-453 -211 -725 -455q-133 -122 -201 -229q-56 -86 -69 -164q-9 -63 16.5 -111t99.5 -59q20 -4 33 -4q115 -5 258 63q198 97 424 305q164 159 332 357q226 272 363 457z
M319 795q0 -7 -10 -17q-6 -5 -19.5 -14.5t-21.5 -15t-18 -15t-17 -18.5q-5 -10 -20 -6q-6 0 -18 4q-1 1 -3 2q-29 18 -30 35q0 3 0.5 6t3 5.5t3.5 4t5 4t5 3t6 3.5l5 2q47 26 76 37q25 12 45 -8q8 -8 8 -12zM1024 782q18 3 33 -12q11 -9 10 -19t-14 -16q-3 -1 -12 -5.5
t-13 -7t-11 -7t-12 -9.5t-8 -12q-4 -8 -22 -4q-15 3 -27 12q-40 37 6 62q27 14 70 18z" />
    <glyph glyph-name="y_j" unicode="yj" horiz-adv-x="1443" 
d="M1114 537q17 5 46 13.5t52.5 15.5t44.5 12q132 32 201 36q30 3 51 -2q21 -4 21 -16q0 -3 -0.5 -5t-2.5 -3.5t-3 -2t-4 -1t-4 -0.5h-4.5h-4.5q-65 0 -98 -6q-132 -26 -297 -82q-19 -6 -25 -23q-37 -83 -91.5 -159.5t-133.5 -170.5q-123 -152 -274 -297
q-226 -212 -426 -321q-106 -61 -195 -76q-58 -9 -104 16q-53 27 -53 89q3 45 16 77q43 108 129 207q122 147 317 287q286 206 564 317q114 43 157 56q33 12 45 41q16 49 17 55q3 17 -2 23.5t-21 11.5q-40 7 -100 -4q-80 -14 -172 -47q-159 -50 -385 -142q-26 -12 -41 -35
q-142 -208 -352 -442q-183 -205 -347 -332q-203 -158 -364 -219q-105 -42 -201 -39q-43 3 -80 21q-73 45 -55 125q14 63 61 123q72 99 205 202q170 131 437 279q297 163 589 291q31 16 47 39q11 17 34.5 53t35.5 53q11 17 8 25q-11 0 -41 -15q-46 -20 -136 -62t-136 -63
q-30 -13 -59 -22q-44 -14 -68 16q-20 28 -2 70q13 25 49 71q56 72 88 99q44 37 72 -15q7 -14 2 -26q-2 -6 -19 -47q-3 -15 -16 -8q-14 6 -27 -7q-45 -44 -88 -100q6 -2 31 4q89 34 188 84q112 57 162 78q40 18 60 -2q26 -26 14 -68q-6 -17 -21.5 -46.5t-19.5 -39.5
q3 -1 23 6q210 84 383 142q122 41 182 49q63 9 100 -22t37 -95q0 -17 4 -24zM207 356q-1 1 -3 2t-3 2l-19 -8q-18 -7 -28 -12q-293 -136 -508 -258q-307 -170 -482 -328q-99 -85 -149 -170q-34 -52 -39 -100q-3 -37 13.5 -55.5t47.5 -18.5q60 0 91 6q113 21 241 97
q172 98 359 280q151 147 383 438q17 20 48.5 62.5t47.5 62.5zM989 446q-1 1 -3 3.5t-3 3.5q-8 -4 -14 -4q-162 -61 -254 -109q-352 -179 -602 -406q-114 -102 -187 -213q-44 -67 -63 -133q-9 -46 -6 -61q3 -18 10 -25t24 -8q42 0 60 4q49 12 117 45q118 58 266 174
q144 115 311 299q175 194 301 367q7 12 43 63zM1182 827q19 -3 32 -16q17 -17 0 -31q-40 -28 -77 -71q-10 -14 -27 -7q-4 2 -12.5 6.5t-12.5 6.5q-42 29 -2 59q30 24 82 49q3 1 9 2t8 2z" />
    <glyph glyph-name="s_s" unicode="ss" horiz-adv-x="1126" 
d="M700 451q97 45 107 49q152 64 270 96q59 18 103 18h5h6.5t5.5 -0.5t5.5 -1.5t4 -2.5t4 -4t1.5 -5.5q0 -8 -4 -11t-14 -3h-12q-39 -2 -140 -33q-189 -67 -307 -131q-41 -20 -41 -68q-3 -121 -39 -250q-55 -173 -149 -262q-61 -58 -137 -75q-70 -15 -115.5 29t-34.5 116
q11 77 62 154q73 119 227 245q28 24 104 80q19 15 21 31q2 51 6 149q0 11 -4 13q-8 4 -23 -6q-49 -25 -135.5 -68.5t-157.5 -80t-133 -71.5q-26 -13 -61 -34q-24 -12 -21 -39q5 -50 5 -64q3 -269 -99 -479q-97 -199 -246 -311q-106 -78 -204 -88q-79 -8 -143 38t-68 140
q-2 68 39 160q56 122 166 239q179 193 436 359q26 17 34 35t3 46q-23 176 -21 234q0 6 -10 24.5t0 24.5q5 6 8 13t5 19t3 15q33 181 213 248q36 13 82 10t66 -37.5t-2 -74.5q-10 -20 -31 -41q-85 -92 -225 -150q-28 -12 -32.5 -19t-4.5 -38q-1 -33 2 -69.5t8.5 -80.5
t7.5 -69q3 -20 21 -11q5 3 38.5 22t51.5 28q30 17 313 161q14 6 44 23t48 24q36 14 39 56q5 38 27 96q54 137 176 199q25 14 55 14q40 3 65 -27.5t15 -70.5q-7 -32 -43 -74q-64 -71 -184 -147q-35 -21 -42 -31t-11 -47q-6 -66 -9 -133zM31 168q0 7 0.5 19.5t0.5 22.5t-1 19
q0 2 0.5 6.5t0.5 8t-1 7t-4 5.5q-8 5 -27 -10q-39 -25 -94 -66q-224 -157 -359 -317q-95 -118 -131 -219q-33 -93 -18 -160q12 -58 53 -87t98 -18q80 15 150 66q100 69 178 195q151 245 154 528zM322 -195q29 0 75 27q81 51 138 150q69 128 90 340q4 16 -4 20q-7 4 -17 -6
q-1 -1 -3 -2t-3 -2q-138 -101 -229 -217q-79 -96 -101 -183q-13 -59 -6 -84q6 -25 18.5 -34t41.5 -9zM88 676q10 -2 29 8q82 38 166 115q33 33 49 59q0 1 5 10.5t4.5 11.5t-1.5 11q-8 14 -37 4q-144 -34 -205 -172q-10 -23 -10 -47zM733 688q42 26 51 33q89 63 134 121
q29 33 34 61q3 15 -3 21.5t-21 3.5q-30 -5 -64 -29q-107 -78 -131 -211z" />
    <glyph glyph-name="g_k" unicode="gk" horiz-adv-x="1355" 
d="M750 594q9 -1 32 8q132 66 195 103q19 11 70 36q25 11 43 -16q16 -26 -7 -43q-10 -10 -36 -25q-139 -86 -326 -157q-3 -1 -9.5 -3t-9.5 -3q-5 -2 -16.5 -6.5t-20.5 -9t-14 -11.5q-5 -11 -3.5 -16.5t8.5 -17t8 -17.5q2 -24 10 -62q5 -14 8.5 -16t17.5 2q22 5 52 20
q85 44 199 89t170 64.5t206 70.5q53 17 74 22l18 6q16 0 19 -12q6 -11 -8 -18q-6 -2 -18.5 -6.5t-18.5 -6.5q-168 -55 -301 -110q-150 -60 -301 -142q-10 -4 -30 -13t-30 -13q-46 -18 -80 22q-22 25 -28 56q-1 3 -2.5 10t-2.5 10q-1 2 -2 7t-1 9t-2.5 7t-6.5 4q-2 0 -4.5 -1
t-4 -2.5t-3.5 -4t-3 -4t-2.5 -4t-2.5 -3.5q-198 -250 -273 -358q-19 -28 -45 -70q-8 -17 -20 -12q-12 6 -12 20q0 13 12 37q58 95 121 179l198 264q21 25 23 41q3 16 18 24q23 14 45 47q234 300 359 443q114 131 205 227q148 161 339 346q1 1 4 3.5t5 4.5t4 6t2 9
q-542 -329 -1176 -854q-4 -7 2 -13q29 -22 34.5 -40t-7.5 -52q-21 -58 -64 -129q-176 -300 -430 -614q-124 -151 -225 -250q-157 -153 -305 -236q-124 -69 -234 -82q-45 -5 -94 15q-66 27 -53 102q8 39 31 80q44 76 127 170q134 150 377 367q76 69 315 276q23 18 27 27
q-27 30 -29 45t18 51q45 81 146 164q60 50 114 70q66 27 119 4q18 -9 39 8q290 243 615 485q312 233 643 443q145 92 149 94q27 18 43 4q24 -24 4 -55q-14 -21 -28 -35q-15 -15 -44 -44.5t-43 -43.5q-104 -102 -370 -377q-271 -283 -514 -578q-8 -8 -8 -16zM344 659
q-14 -33 -45 -30q-4 0 -8 -4q-185 -121 -248 -172q-60 -48 -285 -244q-174 -154 -315 -287q-162 -155 -266 -282q-54 -63 -90 -134q-23 -52 -23 -81q0 -25 9.5 -36t33.5 -12q33 -2 92 13q137 37 283 153q156 123 338 346q218 270 514 740q12 16 10 30zM207 641
q-118 -50 -244 -180q134 73 244 180z" />
    <glyph glyph-name="m_m" unicode="mm" horiz-adv-x="1916" 
d="M1200 608q-12 -2 -41 -16q-84 -40 -205 -109q-7 -5 -21.5 -12t-19.5 -10q-22 -11 -40 5t-15 36q3 22 19 45q9 14 29.5 41.5t29.5 40.5q14 14 16 30q-28 -11 -47 -20q-178 -82 -239 -109q-50 -24 -91 -32q-41 -10 -65 14q-25 32 -10 70q2 7 28 59q-9 2 -24 -6
q-113 -56 -248 -146q-5 -3 -15.5 -9t-15.5 -9q-22 -14 -39 0q-18 18 -12 41q6 19 37 63q2 3 6.5 9.5t8 12.5t5.5 13q-54 -28 -57 -30q-69 -38 -182 -113q-4 -2 -12.5 -7t-12.5 -7q-21 -14 -35 0q-20 17 -12 36q6 19 27 52q47 72 131 153q13 13 16 15q41 30 70 -9
q15 -17 14.5 -28.5t-18.5 -26.5q-48 -32 -74 -67q3 2 10 5t10 5q36 22 150 94q5 2 14.5 7t14.5 7q34 16 57 -12q20 -25 4 -55q-10 -16 -51 -62q7 0 24 11q152 90 230 135q11 7 22 10q29 11 50 -10q24 -24 6 -51q-18 -30 -47 -66q-25 -34 -33 -53q18 -4 43 4q94 30 170 67
q52 23 203 97l36 18q26 12 48 -10t10 -49q-8 -19 -23 -37q-10 -11 -36 -42.5t-42 -49.5q3 0 21 6q204 110 237 127q2 2 27 14q19 7 28.5 6t20.5 -12q28 -28 10 -59q-12 -21 -30 -45q9 0 24 10q96 47 152 69q5 1 14.5 4.5t14.5 4.5q29 8 48 -6.5t19 -45.5q0 -12 -10 -47
q-3 -15 1 -20t19 -4q28 4 88 16q47 10 141.5 29.5t141.5 29.5q3 0 8 1.5t8 1.5q16 0 19 -15q6 -14 -12 -18q-5 -2 -27 -8q-23 -6 -142.5 -35t-181.5 -45q-14 -5 -34 -8q-32 -3 -53.5 15t-22.5 50q0 20 6 41q2 11 -2 13.5t-14 -1.5q-30 -9 -41 -14q-84 -36 -185 -94
q-6 -3 -19.5 -10.5t-19.5 -10.5q-27 -12 -41 4q-20 15 -14 43q2 11 19 37q4 7 13 21.5t13 21.5z" />
    <glyph glyph-name="n_n" unicode="nn" horiz-adv-x="1409" 
d="M985 492q31 5 113 28q264 79 334 94q20 5 24 4q14 -4 14 -14q3 -10 -8 -14l-18 -6q-142 -39 -352 -113q-52 -18 -86 -25q-34 -5 -54.5 17t-13.5 55q5 27 39 84q5 8 15.5 23.5t15.5 23.5q-7 1 -35 -10q-124 -52 -295 -156q-7 -3 -20.5 -10t-20.5 -10q-22 -10 -38 2t-13 37
q2 17 18 41q29 46 31 51q-22 -10 -53 -27q-99 -53 -201 -102q-23 -10 -70 -25q-24 -7 -46.5 16t-16.5 48q2 7 18 45q18 32 74 100q9 9 12 25q-2 -1 -29 -13t-42 -18q-118 -56 -242 -129q-14 -9 -39 -20q-25 -12 -39 2q-19 23 -12 45q4 10 16 30q49 67 154 164q14 14 31 21
q22 7 41.5 -2t25.5 -29q6 -17 -8 -25q-39 -24 -107 -96q5 0 10.5 2t11.5 5.5t9 4.5q139 79 217 111q14 8 33 12q33 11 51 -10q25 -28 12 -57q-4 -16 -20 -35q-81 -95 -102 -121q-16 -21 -17 -29q28 6 55 19q142 60 318 162q18 12 22 14q29 15 46 -2q25 -25 6 -53
q-12 -22 -52 -66l-7 -7q-7 -8 -9 -15q21 12 37 20q202 112 278 146q5 2 15.5 6t15.5 6q27 10 47 -10q25 -33 11 -56q-9 -18 -21 -33q-12 -17 -33.5 -45t-27.5 -36q-20 -30 -23 -45z" />
    <glyph glyph-name="t_t" unicode="tt" horiz-adv-x="1591" 
d="M1956 1421q-4 1 -8 1.5t-7.5 0t-6 -1t-6 -2.5t-5 -3t-5.5 -3.5t-5 -3.5q-282 -207 -295 -217q-145 -108 -433 -324t-433 -323q-288 -215 -506 -340q-123 -69 -201 -99q-54 -19 -104 -16q-63 3 -84 62q-11 44 -2 92q16 111 73 231q103 228 281 486q143 203 225 301
q1 2 3 5t3 6t0 7q-8 6 -26 2q-517 -86 -707 -127q-307 -66 -373 -84q-2 -1 -8 -2t-9 -2t-7 -3.5t-6.5 -6t-3.5 -8.5q-4 -7 -11 -7q-7 -1 -19 8t-18 21q-10 22 11 37q6 4 30 14q86 33 244 68q237 54 572 108q308 45 370 54q29 3 49 26q185 222 340 369q9 9 29 26.5t29 26.5
q21 18 41 8q12 -8 19.5 -21.5t6.5 -25.5q-3 -21 -10 -47q-6 -17 -20 -8q-15 10 -33 -8q-160 -172 -242 -258q-10 -10 -30 -33t-29 -33q23 0 55 4q53 5 161 17.5t161 17.5q42 4 125.5 11.5t125.5 11.5q72 4 216 16q21 1 60 3t60 3q205 10 244 10q13 0 96 5q17 0 41 16
q64 46 194.5 138t194.5 138q18 14 25 17q23 16 37 2q18 -22 4 -43q-8 -10 -25 -27q-24 -20 -72.5 -61.5t-72.5 -61.5q-97 -82 -117 -100q-3 -7 -10 -10q5 -8 20 -8q46 1 281 -9q225 -7 363 -28q35 -7 59 -15q28 -12 30.5 -32t-20.5 -39q-26 -20 -63 -33q-89 -35 -209 -62
q-127 -28 -242 -51q-1 0 -6.5 -1.5t-8.5 -1.5h-7.5t-7 3t-3.5 8t0 9t5 6t7.5 3t9 2.5t7.5 2.5q208 43 266 59q128 30 201 66q2 1 9.5 4.5t12 7.5t7.5 10q-15 7 -37 11q-83 13 -195 20q-133 10 -495 14q-44 0 -76 -28q-226 -217 -410 -420q-235 -266 -428 -604
q-105 -182 -168 -328q-24 -57 -37 -102q-19 -61 -10 -99q0 -13 -6 -16q-9 -2 -16 8q-11 14 -11 37q-2 39 17 102q24 83 55 144q226 478 481 805q182 234 424 465q3 4 23 24q0 4 2 6zM1872 1417q0 1 -1 3t-1 3q-27 -4 -82 -4q-130 -4 -189 -8q-38 -3 -223 -18
q-97 -6 -182 -15q-265 -29 -274 -30q-54 -6 -162.5 -19.5t-163.5 -19.5q-27 -3 -45 -27q-14 -17 -43 -50.5t-43 -51.5q-275 -340 -424 -605q-92 -162 -129 -282q-21 -73 -19 -123q3 -31 16 -42t44 -9q36 2 92 24q129 50 313 166q196 123 504 350q654 495 920 689
q15 11 45.5 34t46.5 35z" />
    <glyph glyph-name="l_l" unicode="ll" horiz-adv-x="1398" 
d="M858 401q-13 -1 -35 -18q-303 -217 -512 -330q-163 -92 -284 -125q-74 -20 -113 -16q-136 15 -139 156q-3 62 18 139q44 147 131 299q75 133 176 274q32 47 35 56q2 6 7 11t13 10.5t11 8.5q106 145 244 299q300 327 579 502q98 59 172 84q47 18 94 18q46 -2 73 -35
t18 -79q-3 -21 -29 -70q-36 -59 -86 -112q-349 -359 -754 -566q-123 -63 -213 -80q-56 -11 -92 -59q-184 -253 -266 -420q-59 -129 -74 -209q-16 -76 -4 -123q15 -72 88 -69q39 0 113 20q134 45 282 129q248 137 561 365q27 21 41 49q161 309 414 600q267 306 539 500
q156 111 274 159q63 23 101 25q45 3 66 -29t7 -71q-10 -26 -43 -74q-76 -100 -229 -246q-123 -115 -320 -282q-272 -233 -487 -400q-120 -95 -258 -196q-23 -17 -39 -43q-168 -326 -240 -549q-25 -80 -32 -135q-8 -62 4 -91q0 -2 1.5 -5t2 -4.5t0.5 -4t-1.5 -4t-4.5 -2.5
q-13 -5 -21 10q-21 32 -18 90q8 71 35 160q57 187 163 414q3 6 14 29.5t17 39.5zM1008 567q6 -1 20 8q57 46 94 74q213 163 488 395q192 159 329 289q159 144 240 238q63 75 90 123q1 2 4 7.5t4.5 8.5t3 7.5t0.5 8.5t-4 7q-4 5 -9.5 6.5t-9.5 1.5t-11.5 -2t-10.5 -2l-24 -6
q-23 -8 -78 -33q-188 -96 -424 -297q-174 -152 -348 -348q-204 -233 -342 -459q-12 -24 -12 -27zM254 860q22 4 31 8q87 26 190 82q390 213 694 529q65 69 103 135q16 26 22 55q6 22 1 28t-27 3q-23 -3 -82 -25q-61 -25 -137 -69q-212 -128 -443 -349q-150 -142 -287 -307
q-51 -59 -65 -90z" />
    <glyph glyph-name=".notdef" horiz-adv-x="843" 
d="M823 0h-823v1434h823v-1434zM774 49v1335h-725v-1335h725zM377 455h-31q-35 88 -35 147q0 75 80 217q82 143 82 217q0 57 -32.5 90t-90.5 33q-61 0 -125 -55v45q80 72 170 72q91 0 147 -46t56 -128q0 -51 -24.5 -102t-84.5 -128q-54 -66 -100 -131q-35 -53 -35 -98
q0 -30 23 -133zM367 213q-11 0 -21 10l-61 72q-6 6 -6 16q0 13 10 23l57 57q8 10 21 10q7 0 20 -10l57 -59q9 -12 9 -21q0 -7 -11 -22l-55 -62q-14 -14 -20 -14z" />
    <glyph glyph-name=".null" horiz-adv-x="0" 
 />
    <glyph glyph-name="nonmarkingreturn" horiz-adv-x="682" 
 />
    <glyph glyph-name="space" unicode=" " horiz-adv-x="514" 
 />
    <glyph glyph-name="space" unicode="&#xa0;" horiz-adv-x="514" 
 />
    <glyph glyph-name="exclam" unicode="!" horiz-adv-x="1173" 
d="M1151 1292q0 -12 -18 -30q-109 -97 -113 -101q-126 -111 -285 -284q-189 -203 -375 -441q-115 -146 -174 -248q-27 -52 -32 -67q-11 -19 -23 -19h-6q-16 3 -16 21q0 10 2 16q24 71 75 148q95 148 275 375q146 183 409 485q102 114 160 168q7 6 22.5 19.5t22.5 19.5
q16 8 23 8q6 0 8 -2q15 -6 30 -26.5t15 -37.5v-4zM59 -104q-20 0 -39.5 18t-19.5 35q2 24 19.5 44.5t37.5 20.5q24 0 42 -14.5t18 -34.5v-2q-2 -22 -21 -44.5t-37 -22.5z" />
    <glyph glyph-name="quotedbl" unicode="&#x22;" horiz-adv-x="454" 
d="M2 1380q2 4 5 13.5t5 13.5q25 52 70 113q11 15 38.5 53.5t43.5 60.5q17 25 33 25q8 0 12 -2q39 -17 47 -53v-5q0 -8 -14 -22q-80 -62 -168 -184q-5 -6 -13.5 -19.5t-9.5 -15.5q-9 -19 -18 -19q-6 0 -8 2q-23 11 -23 35v4zM170 1356q5 26 23 51q36 67 122 168q15 21 35 41
q16 16 27 16t29 -14q10 -6 16 -16q8 -11 8 -21q0 -11 -14 -22q-49 -39 -115 -109q-50 -53 -84 -109q-9 -18 -18 -18q-4 0 -6 2q-23 7 -23 31z" />
    <glyph glyph-name="numbersign" unicode="#" horiz-adv-x="1155" 
d="M659 664q25 -5 54 -5h32q85 0 152 -22q23 -9 29 -19q8 -8 8 -16q0 -4 -2 -6q-3 -6 -10 -6q-2 0 -6 1t-5 1q-61 20 -151 20q-20 0 -61 -1t-62 -1q-24 0 -43 -22q-209 -256 -293 -385q-24 -37 -53 -97q-2 -6 -10 -18q-3 -10 -13 -10q-6 0 -8 2q-12 8 -12 14q0 1 1 3t1 3
q7 23 16 45q36 75 135 217q47 67 152 203q15 20 18 29q-4 4 -12 4q-10 0 -14 -2q-23 -2 -66.5 -8t-66.5 -8q-27 -3 -41 -23q-148 -201 -207 -297q-3 -4 -25 -49q-8 -12 -14 -12q-1 0 -3 1t-3 1q-17 3 -17 20q0 5 11 33q31 64 67 117q18 27 56 83t57 83q8 8 8 14v4
q-2 4 -10 4q-6 0 -10 -2q-144 -26 -197 -43q-4 -2 -10 -2q-12 0 -21 12q-8 12 -8 21q0 5 6 14q11 13 35 25q49 19 127 30q19 2 57 7.5t58 7.5q34 3 55 33q8 13 18 27.5t23.5 32.5t21.5 30q-32 -5 -87 -14.5t-74 -12.5q-16 -3 -48.5 -9t-48.5 -9h-10q-12 0 -16 4
q-19 11 -21 26q0 19 21 27q47 21 119 31q29 3 90 10t90 10q37 3 61 33q115 157 199 248q51 51 65 61q18 12 37 12q29 0 47 -30q4 -6 4 -19q0 -17 -20 -26q-13 -3 -23 -13q-134 -121 -229 -235q-8 -8 -8 -15l4 -4q55 7 139 7q44 3 68 36q55 70 121 136q67 67 131 112
q39 27 63 31h8q19 0 34 -12.5t16 -30.5q0 -19 -13 -19q-1 0 -3 1.5t-3 1.5q-4 2 -10 2q-4 0 -29 -15q-31 -21 -110 -92q-67 -61 -136 -127q-10 -10 -10 -18q6 -6 23 -6h10q37 -2 94 -17q16 -5 19 -8q16 -8 16 -21q0 -6 -2 -8q-3 -8 -10 -8q-5 0 -17 4q-76 15 -153 15
q-35 0 -56 -27q-8 -10 -39 -43.5t-47 -56.5zM399 649q0 -1 1 -3t1 -3q89 8 134 10q58 3 77 41q5 7 17.5 20.5t17.5 20.5q26 31 39 47q-117 -7 -178 -16q-19 -4 -27 -14q-21 -24 -82 -103z" />
    <glyph glyph-name="dollar" unicode="$" horiz-adv-x="1662" 
d="M496 186q-49 -6 -189 -20q-27 -3 -80.5 -9t-95.5 -9.5t-80 -4.5h-31q-20 4 -20 19q0 14 23 14q60 4 92 8q145 15 340 43q10 1 31.5 4.5t31.5 4.5q20 0 37 20q225 265 270 317q9 13 9 15v2q-2 8 -13 8h-6q-145 11 -231 27q-30 5 -66 16q-20 7 -41 25q-33 29 -33 61
q0 29 27 59q39 41 86 72q168 111 385 193q198 76 363 100q28 3 47 25q31 32 92 96.5t92 95.5q20 20 41 35q15 12 27 12t24 -12q10 -10 10 -21t-12 -26q-23 -30 -72 -82q-20 -20 -56 -59.5t-46 -49.5q7 -6 22.5 -9t16.5 -3q32 -4 50 -25.5t20 -52.5q0 -6 -5 -26
q-7 -11 -14 -11q-6 0 -12 9q-13 20 -45 20h-10q-112 -11 -115 -12q-21 -3 -37 -19q-217 -227 -258 -272q-15 -18 -46.5 -53t-47.5 -52l-7 -7t-8 -10t-4 -11q18 -5 49.5 -10t40.5 -7q156 -28 230 -57q30 -10 59 -33q43 -34 43 -80q0 -40 -39 -73q-35 -32 -94 -56
q-115 -45 -278 -69q-174 -26 -359 -45q-40 -6 -61 -33q-19 -23 -56 -66t-60.5 -70t-54.5 -65.5t-55 -72.5q-5 -7 -14 -22t-14 -22q-6 -12 -17 -12q-4 0 -12 4q-8 5 -8 15q0 6 4 14q10 18 49 74q44 61 172 217q4 6 19 24zM616 250q335 49 494 92q116 33 168 61q28 16 41 29
q16 16 16 27q0 9 -20 26q-31 23 -101 47q-81 24 -276 54h-8q-25 0 -43 -21q-37 -44 -108.5 -124.5t-88.5 -100.5q-6 -7 -32.5 -37.5t-41.5 -52.5zM1214 1032q-28 -4 -40 -8q-219 -47 -424 -141q-127 -60 -201 -117q-29 -22 -41 -41q-8 -12 -8 -16q0 -9 18 -15q21 -9 90 -22
q38 -6 114 -14.5t114 -14.5h14q33 0 57 27q147 172 297 342q8 8 10 20z" />
    <glyph glyph-name="percent" unicode="%" horiz-adv-x="1589" 
d="M78 -115q4 2 7.5 3.5t6.5 3t4 2.5q208 100 357 176q100 50 366 178q30 13 49 35q26 32 76 32q17 0 25 -2q17 -3 26 -18q4 -8 13.5 -24.5t13.5 -24.5q12 -24 12 -51q0 -51 -45 -84q-64 -43 -119 -43q-32 0 -50.5 16t-18.5 41q0 20 12 41q1 2 4.5 7t5.5 10t2 10q-1 0 -3 1
t-3 1q-6 0 -22 -11q-128 -57 -375 -178q-43 -20 -153.5 -75.5t-172.5 -82.5q-6 -3 -39 -14q-6 -2 -16 -2q-17 0 -31 14q-4 8 -4 15q0 10 12 26q29 41 101 113q105 107 323 311q10 9 121.5 112t169.5 155q241 218 352 317q19 17 80 70.5t90 79t75 69t83 80.5q35 30 62 68
q8 10 20 30q8 13 8 25t-24 24q-26 12 -60 15q-57 8 -127 8q-42 0 -65 -2q-43 -4 -125 -8q-239 -22 -268 -23q-22 -2 -30 -9t-9 -30q-3 -54 -45 -110q-70 -98 -193 -168q-19 -13 -41 -19q-6 -2 -16 -2q-25 0 -42.5 17t-17.5 43q0 8 2 14q6 27 19 53q72 128 172 207
q41 29 67 37q16 8 39 8q15 0 21 -2q24 -4 35 -4q6 0 17.5 1t16.5 1q228 24 285 29q136 12 205 12q30 0 88 -4q35 -3 70 -12q34 -10 53.5 -38.5t19.5 -62.5q0 -30 -10 -47q-21 -43 -80 -106q-78 -80 -205 -191q-179 -157 -505 -438q-126 -109 -474 -424q-133 -124 -174 -168
q-17 -17 -24 -33zM506 1044q5 2 16 9q115 61 189 159q25 31 37 66q4 8 4 12q0 6 -7 13q-169 -115 -253 -259h14zM985 217q-1 2 -1 8.5t-1.5 10.5t-5.5 6q-1 0 -3 1t-3 1q-4 0 -17 -13q-8 -7 -25.5 -21.5t-25.5 -21.5q-40 -40 -49 -53q-6 -12 -6 -14q0 -1 1 -2t1 -2
q4 -4 8 -4q1 0 4 1t4 1q56 13 92 49q25 25 27 53z" />
    <glyph glyph-name="ampersand" unicode="&#x26;" horiz-adv-x="2385" 
d="M1280 500q-28 7 -82.5 18.5t-75.5 16.5q-226 44 -344 81q-78 28 -131 60q-96 63 -104 164q0 4 -1 11t-1 11q0 58 39 121q55 92 168 176q140 111 342 199q283 131 596 190q154 25 256 25q28 0 90 -4q96 -3 178 -39q49 -18 86 -55q53 -50 53 -123q0 -46 -25 -88
q-36 -57 -100 -105q-97 -74 -237 -129q-167 -68 -295 -88q-55 -10 -97 -10q-30 0 -57 6q-6 0 -14 4q-17 4 -17 16v5q3 10 15 10h24q76 0 164 20q263 68 447 189q51 32 98 82q27 31 39 55t12 45q0 34 -35 59q-42 31 -88 45q-88 29 -188 35q-9 0 -29 1t-29 1q-207 0 -458 -71
q-323 -87 -578 -242q-143 -85 -227 -172q-51 -54 -76 -111q-18 -37 -18 -63q0 -44 51 -86q48 -40 123 -68q94 -39 305 -90q103 -26 278 -63l39 -13q24 -10 27 -41q0 -23 -29 -32q-42 -13 -153 -35q-395 -71 -664 -185q-216 -92 -362 -208q-49 -36 -84 -80q-32 -37 -43 -76
q-5 -13 -5 -29q0 -26 27 -45q44 -36 123 -47q49 -6 98 -6q78 0 181 14q377 56 757 215q155 67 267 131q69 43 102 78q2 2 9.5 9t11 10.5t7 9.5t3.5 12t-2 8q-3 6 -10 10t-12.5 4.5t-17 1.5t-14.5 1q-37 0 -120 -17q-146 -36 -349 -120q-296 -120 -510 -271q-1 -1 -3 -2
t-3 -2q-6 -6 -14 -6q-6 0 -8 4q-6 6 -6 12q0 8 10 15q45 34 98 71q176 114 442 228q150 64 306 114q74 20 133 25q6 2 18 2q24 0 47 -10q24 -7 38 -26.5t14 -43.5t-15 -45q-19 -29 -63 -61q-79 -58 -211 -121q-320 -155 -701 -248q-170 -42 -309 -55q-62 -4 -94 -4
q-58 0 -105 8q-43 9 -77 26q-40 20 -64 59t-24 83q0 30 16 67q17 41 61 88q83 83 213 160q279 162 654 252q121 29 313 66v6zM1077 -367q-18 2 -57 2q-26 0 -55 -1.5t-50.5 -3.5t-55.5 -7t-50 -7.5t-56 -10t-50 -9.5t-55.5 -11.5t-51.5 -10.5q-109 -21 -215 -59
q-12 -4 -19 -4q-2 0 -5.5 -1.5t-4.5 -1.5q-21 0 -28 21q-2 4 -2 10q0 16 20 27q51 25 127 39q212 44 395 63q78 8 115 8q39 0 80 -6q25 -4 31 -14q6 -6 6 -10t-2 -6q-3 -9 -9 -9q-1 0 -4 1t-4 1z" />
    <glyph glyph-name="quotesingle" unicode="'" horiz-adv-x="278" 
d="M2 1380q2 4 5 13.5t5 13.5q25 52 70 113q11 15 38.5 53.5t43.5 60.5q17 25 33 25q8 0 12 -2q39 -17 47 -53v-5q0 -8 -14 -22q-80 -62 -168 -184q-5 -6 -13.5 -19.5t-9.5 -15.5q-9 -19 -18 -19q-6 0 -8 2q-23 11 -23 35v4z" />
    <glyph glyph-name="parenleft" unicode="(" horiz-adv-x="1607" 
d="M39 -254q2 -6 2 -14q0 -11 -6 -15h-4q-7 0 -11 4q-16 11 -16 37q0 3 -1 10.5t-1 10.5q0 23 12 69q33 100 105 230q234 423 561 833q252 319 565 521q99 66 189 92q33 10 61 10h14q50 -3 72 -51q4 -8 4 -19v-6q-3 -12 -10 -12q-2 0 -10 4q-2 0 -2 2q-11 21 -31 21
q-6 0 -17.5 -3.5t-13.5 -3.5q-74 -22 -172 -77q-161 -95 -356 -267q-146 -128 -274 -281.5t-261 -344.5q-160 -226 -278 -439q-73 -124 -105 -215q-16 -54 -16 -84v-12z" />
    <glyph glyph-name="parenright" unicode=")" horiz-adv-x="1605" 
d="M1546 1526q0 5 6 8h4q9 0 11 -2q12 -10 16 -37v-14q0 -37 -12 -78q-24 -78 -103 -227q-238 -428 -561 -836q-255 -319 -565 -518q-100 -66 -190 -92q-43 -13 -66 -13h-10q-45 3 -72 52q-4 8 -4 14q0 2 1 5t1 5q3 12 12 12q5 0 9 -2l2 -2q10 -20 28 -20q3 0 33 6
q68 19 170 78q159 90 358 266q142 125 268.5 276.5t266.5 348.5q162 234 278 438q77 138 105 217q16 46 16 76q0 3 -1 9t-1 9v21z" />
    <glyph glyph-name="asterisk" unicode="*" horiz-adv-x="694" 
d="M561 1511q37 0 68 -8q20 -5 26 -8q15 -10 15 -16v-4q-3 -9 -11 -9q-2 0 -6 1t-6 1q-40 7 -69 7q-28 0 -160 -15q-8 -1 -16.5 -5t-12 -6.5t-13.5 -11.5t-11 -10q-5 -5 -5 -10q0 -3 3 -9.5t4 -8.5q5 -10 27.5 -54.5t33.5 -68.5q11 -22 23 -62q0 -1 1 -4t1 -4q0 -5 -7 -12
q-1 0 -3 -1t-3 -1q-6 0 -16 10q-8 8 -12 25q-15 44 -74 147q-6 12 -12 12q-5 0 -13 -8q-176 -163 -241 -239q-13 -13 -17 -19q-7 -10 -16 -10q-2 0 -10 4q-9 9 -9 16q0 5 3 11q3 4 9 13t9 13q42 54 117 129q21 23 65.5 67t65.5 67q-2 6 -10 6q-7 0 -11 -2q-158 -32 -227 -64
q-4 -2 -10 -2q-13 0 -23 16q-4 12 -4 17q0 8 6 14q12 15 37 23q30 11 152 35q34 4 49 8q16 3 16 10q0 3 -6 12q-20 35 -47 70q-16 16 -21 31v6q0 14 15 14h6q11 -3 22 -14q35 -32 56 -76q2 -2 5.5 -8t4.5 -8q17 -27 35 -27q17 0 35 18q12 12 71 70q36 36 88 78q6 3 18.5 10
t18.5 10q4 2 17 2q19 0 34.5 -12.5t18.5 -30.5v-4q0 -18 -21 -18q-16 0 -24 -6q-71 -49 -115 -86q0 -5 -2 -11h88z" />
    <glyph glyph-name="plus" unicode="+" horiz-adv-x="1181" 
d="M600 600h-70q-23 -2 -65.5 -5t-76.5 -6t-64 -7q-71 -8 -248 -43q-15 -6 -27 -15q-12 -8 -16 -8q-7 0 -17 10t-10 27q0 20 14 31q16 14 56 26q61 18 145 25q148 14 324 14h63q36 0 56 29q98 147 188 229q50 44 70 51q10 5 24 5q28 0 45 -23q8 -12 8 -18q0 -9 -16 -19
q-20 -10 -47 -37q-122 -116 -193 -198q-8 -8 -8 -13v-4q31 -4 101 -8q109 -3 217 -27q23 -4 69 -20q5 -3 19 -8q1 -1 6.5 -5.5t7.5 -7.5t2 -8v-4q-3 -6 -10 -6q-1 0 -19 6q-76 29 -219 37q-36 2 -102.5 2.5t-87.5 1.5q-31 0 -51 -26q-191 -241 -312 -447l-6 -12
q-9 -13 -16 -13q-3 0 -6 3q-15 7 -15 18q0 2 1 4.5t1 3.5q1 10 17 41q74 137 196 311q46 67 66 93q0 1 3 6t3 10v4z" />
    <glyph glyph-name="comma" unicode="," horiz-adv-x="337" 
d="M317 20q0 -23 -22 -49q-22 -23 -135 -145q-62 -72 -74 -84q-24 -29 -37 -39q-8 -8 -18 -8q-11 0 -19 8q-6 6 -6 14q0 9 8 21q48 55 158 211q38 52 57 88q1 1 2 4t2 4q20 29 35 29q1 0 4 -1t4 -1q15 -5 28 -21t13 -31z" />
    <glyph glyph-name="hyphenminus" unicode="-" horiz-adv-x="974" 
d="M0 569q0 20 20 33q18 14 62 27q56 14 121 20q187 15 372 15q82 0 123 -2q115 -3 207 -25q3 -1 12 -3.5t14 -4.5t9 -6q10 -10 10 -21q0 -6 -2 -8q-3 -6 -10 -6q-2 0 -6 1t-6 1q-74 18 -199 18h-86q-143 0 -215 -8q-224 -20 -332 -49l-10.5 -3.5t-11.5 -4t-10 -4t-10 -6.5
t-7 -9q-3 -6 -10 -6q-6 0 -12 6q-23 20 -23 45z" />
    <glyph glyph-name="hyphenminus" unicode="&#xad;" horiz-adv-x="974" 
d="M0 569q0 20 20 33q18 14 62 27q56 14 121 20q187 15 372 15q82 0 123 -2q115 -3 207 -25q3 -1 12 -3.5t14 -4.5t9 -6q10 -10 10 -21q0 -6 -2 -8q-3 -6 -10 -6q-2 0 -6 1t-6 1q-74 18 -199 18h-86q-143 0 -215 -8q-224 -20 -332 -49l-10.5 -3.5t-11.5 -4t-10 -4t-10 -6.5
t-7 -9q-3 -6 -10 -6q-6 0 -12 6q-23 20 -23 45z" />
    <glyph glyph-name="period" unicode="." horiz-adv-x="122" 
d="M102 -31q-4 -25 -24 -35q-8 -4 -15 -4q-13 0 -24 15q-3 3 -9.5 8t-9.5 8q-12 15 -12 31q0 28 29 41q4 2 14 2q19 -3 35 -23.5t16 -42.5z" />
    <glyph glyph-name="slash" unicode="/" horiz-adv-x="2056" 
d="M2034 1358q0 -12 -15 -23q-9 -5 -27.5 -16t-27.5 -16q-387 -205 -657 -392q-449 -308 -848 -641q-191 -154 -369 -338q-6 -6 -18.5 -19t-18.5 -19q-1 -1 -7 -8t-11 -11q-6 -6 -12 -6q-5 0 -17 8q-4 8 -4 14q0 5 4 13q10 12 33 35q143 162 323 315q451 390 1090 840
q222 162 455 278q42 21 65 29q12 4 19 4q18 0 30.5 -12.5t12.5 -30.5v-4z" />
    <glyph glyph-name="zero" unicode="0" horiz-adv-x="1427" 
d="M1407 1108q-9 -157 -113 -346q-98 -174 -272 -377q-185 -213 -391 -373q-159 -121 -297 -178q-72 -28 -127 -33h-12q-126 0 -170 111q-23 56 -23 123q0 6 1 18.5t1 18.5q18 183 143 401q198 353 517 653q126 119 229 179q70 43 133 53q20 4 27 4q35 0 63 -31
q16 -16 33 -16q2 0 6 1t6 1q33 8 74 8h6q93 0 143 -96q23 -49 23 -121zM631 977q-139 -136 -230 -250q-172 -219 -264 -401q-75 -158 -86 -295v-17q0 -60 23 -110q31 -72 108 -72q63 3 127 31q114 46 254 149q201 145 402 369q177 196 292 397q73 132 95 232q16 78 16 118
q0 32 -10 74q-21 77 -101 80q-4 0 -13 1t-13 1q-25 0 -49 -6q-39 -8 -54 -23q-6 -6 -14 -6q-6 0 -18.5 3t-18.5 3q-2 0 -5 -1t-5 -1q-14 -5 -43 -16t-46.5 -18t-41.5 -17.5t-43 -21.5q-144 -81 -197 -187q-1 -1 -2 -3t-2 -3q-8 -8 -12 -8t-12 8q-2 2 -2 6v4q0 9 -4 11z" />
    <glyph glyph-name="one" unicode="1" horiz-adv-x="1153" 
d="M1055 1294q-19 0 -51 -12q-142 -47 -269 -121q-21 -15 -24 -20q-10 -13 -19 -13q-6 0 -16 7q-17 14 -17 26q0 5 5 15q5 8 28 26q73 48 199 105q119 47 153 53q6 2 21 2q55 0 65 -62v-6q0 -22 -14 -47q-18 -36 -51 -73q-50 -61 -199 -224q-240 -258 -458 -559
q-195 -271 -289 -428q-44 -72 -66 -125q-16 -36 -16 -59q0 -13 2 -19v-4q0 -8 -8 -8q-4 0 -8 2q-21 9 -21 33v8q0 22 10 49q21 61 82 166q108 184 316 473q169 238 278 373q71 89 262 305q12 14 92 109l5 5t6 8.5t2 10.5v4z" />
    <glyph glyph-name="two" unicode="2" horiz-adv-x="1329" 
d="M84 -2q10 -4 27 -4h331q2 0 254 -6q105 -4 170 -25q25 -8 33 -18q6 -12 6 -13q0 -4 -2 -6q-4 -4 -14 -4q-8 2 -23.5 6t-23.5 6q-56 11 -125 11q-94 4 -142 4q-49 0 -143 -4q-104 -4 -311 -4h-33q-22 3 -43 12q-33 17 -33 41q0 18 27 39q58 43 164 114q248 171 495 400
q261 242 426 452q64 83 93 134q29 56 38 96v12q0 27 -30 35q-15 6 -33 6q-17 0 -45 -8q-133 -32 -219 -113q-33 -29 -35 -57q-3 -10 -10 -10t-11 4q-18 18 -18 39q0 1 1 4.5t1 5.5q8 26 29 51q116 119 284 143q3 0 9.5 1t9.5 1q51 0 81 -33t36 -89q0 -2 1 -7.5t1 -7.5
q0 -16 -17 -65q-23 -66 -80 -140q-115 -159 -329 -366q-145 -142 -301 -268q-159 -128 -361 -269q-14 -10 -42.5 -30t-50.5 -36.5t-42 -33.5z" />
    <glyph glyph-name="three" unicode="3" horiz-adv-x="1298" 
d="M1149 1290q-117 -5 -262 -69q-77 -31 -129 -72q-10 -7 -33 -25q-16 -16 -16 -30q0 -9 2 -13q2 -2 2 -8t-4 -8q-2 -2 -7 -2q-4 0 -12 4q-31 21 -31 53q0 13 7 27q12 27 49 57q48 39 147 84q122 52 242 66q32 4 47 4q24 0 45 -6q30 -7 47 -27.5t17 -46.5q0 -28 -21 -55
q-30 -37 -94 -86q-85 -64 -211 -146q-106 -66 -221 -147q-34 -23 -58 -51q-4 -4 -4 -11t8 -10q6 -2 19.5 -6t19.5 -6q108 -35 162 -66q97 -54 148 -133q45 -70 45 -137q0 -61 -35 -123q-42 -76 -131 -147q-108 -84 -213 -138q-312 -162 -592 -272l-37 -12q-8 -4 -25 -4
q-15 3 -18 16v4q0 10 14 14q42 15 168 72q374 174 561 303q122 80 195 170q38 51 49 86q12 37 12 70q0 63 -49 115q-51 54 -127 86q-29 14 -143 53q-38 13 -53 24q-31 25 -31 52q0 18 20 45q19 24 66 57q105 78 203 141q191 131 254 183q35 28 53 51q6 9 6 12q0 6 -12 6
q-14 2 -39 2z" />
    <glyph glyph-name="four" unicode="4" horiz-adv-x="1337" 
d="M66 672q18 -2 51 -2t47 2q31 3 86.5 4.5t77.5 3.5q33 3 97 3.5t91 2.5q12 2 37 2q3 0 84 -6h6q28 0 47 25q157 207 287 356q156 178 260 280l27 27q12 8 20 8q7 0 16 -6q15 -12 15 -29q0 -8 -2 -12q-6 -12 -15 -24q-135 -147 -401 -441q-16 -18 -149 -178
q-17 -17 -17 -29v-6q0 -10 -10 -10q-15 -5 -27 -20q-295 -369 -436 -584q-29 -44 -47 -78q-14 -23 -21 -53q0 -12 -10 -14h-4q-8 0 -16 8q-6 9 -6 16q0 3 1 8t1 8q11 37 24 60q73 132 213 319q37 50 111.5 149.5t111.5 149.5q1 2 5 6t6 7t4 7.5t2 8.5q-2 6 -15 6
q-38 0 -223 -10q-21 -2 -76.5 -6.5t-95 -7t-76.5 -2.5h-63q-33 3 -57 24q-21 18 -21 39q0 12 10 29q13 20 37 41q51 43 152 112q245 171 651 404q19 11 33 16q12 4 16 4q14 0 27 -16q8 -11 8 -25q0 -12 -10 -22q-17 -15 -60 -41q-86 -54 -258 -150q-268 -146 -448 -272
q-13 -9 -37 -28.5t-37 -28.5q-20 -16 -24 -35z" />
    <glyph glyph-name="five" unicode="5" horiz-adv-x="1640" 
d="M950 1178q-11 0 -24 -13q-3 -6 -11 -6q-4 0 -6 2q-17 10 -24 37v4q0 19 16 29t41 14q40 8 62 8h10q23 0 45 19q35 38 74 67q18 11 26 11q19 0 35 -25q4 -8 4 -14q0 -5 -8 -25q-6 -9 -6 -14q0 -6 18 -6h228q82 0 143 -13q27 -5 35 -14q10 -10 10 -16q0 -1 -1 -3t-1 -3
q-3 -9 -10 -9q-2 0 -5.5 1t-5.5 1q-62 11 -139 11q-45 0 -139 -4q-36 0 -107 -6t-82 -7q-32 -3 -55 -26q-283 -277 -338 -334q-170 -173 -264 -293q-20 -27 -20 -31q0 -8 36 -14q74 -9 142 -35q52 -19 92 -53q55 -43 55 -107q0 -28 -8 -49q-15 -51 -70 -106
q-53 -56 -129 -101q-210 -120 -422 -182q-22 -7 -59 -14q-3 0 -9 -1t-9 -1q-23 0 -39 8q-21 7 -27 24q0 2 -1 5t-1 4q0 4 4 8t8 4q2 0 6 -4q12 -12 33 -12q17 0 45 8q125 37 279 114q124 66 198 125q68 53 97 92q35 48 43 80q4 16 4 27q0 43 -43 70q-63 37 -160 51l-67 6
l-25 6q-37 15 -37 45q0 15 8 31q16 29 94 125q165 197 443 475q20 20 24 29h-6z" />
    <glyph glyph-name="six" unicode="6" horiz-adv-x="1560" 
d="M297 233q14 10 34.5 27.5t26.5 22.5q270 217 486 346q112 66 203 86q45 10 77 10q15 0 47 -4q40 -6 67.5 -40t27.5 -77q0 -9 -4 -29q-14 -48 -45 -92q-59 -84 -187 -184q-257 -197 -543 -307q-96 -36 -163 -41q-3 0 -10.5 -1t-10.5 -1q-37 0 -76 22q-23 15 -33.5 36
t-15.5 59l-4 2q-3 0 -8 -5q-76 -73 -101 -109q-20 -28 -32 -56q-1 -1 -3 -4.5t-3 -5.5t-3.5 -3.5t-5.5 -1.5h-6q-10 5 -10 19v6q6 21 14 37q32 57 86 108q85 79 129 178q23 53 59.5 111t64.5 95.5t77 99.5q297 366 655 628q166 123 297 172q59 19 80 19q57 0 72 -53
q4 -8 4 -17q0 -2 -1 -6t-1 -6q0 -11 -8 -14h-4q-9 0 -13 8q-8 20 -28 20q-13 0 -25 -6q-74 -20 -186 -86q-174 -105 -389 -287q-145 -125 -285 -274q-169 -180 -276 -348q-4 -7 -12.5 -20.5t-12.5 -20.5v-4q0 -5 -2 -9zM297 -12q72 6 152 35q297 112 542 299q112 87 180 178
q45 59 52 108q2 6 2 17q0 33 -41 41q-18 6 -37 6q-31 0 -64 -10q-105 -21 -229 -91q-290 -169 -594 -424q-16 -12 -18 -24q-15 -43 -15 -68q0 -4 1 -12t1 -12q3 -35 41 -41q8 -2 27 -2z" />
    <glyph glyph-name="seven" unicode="7" horiz-adv-x="1404" 
d="M786 1294q-51 3 -100 15q-40 9 -57 43q-4 12 -4 16q0 6 4 10q6 6 12 6t12 -6q27 -20 92 -20q55 -2 164 -2q133 0 199 4q23 2 66 2q36 0 106 -4q33 -3 55.5 -26.5t22.5 -53.5q0 -28 -21 -55q-22 -28 -53 -62q-57 -57 -237 -219q-272 -250 -459 -448q-212 -231 -312 -347
q-140 -161 -192 -239q-33 -45 -47 -80q-8 -12 -14 -12h-5q-16 8 -16 18v4q0 15 12 39q30 57 97 143q146 187 372 441q228 254 375 401q71 73 223 217q23 22 87.5 82.5t97.5 93.5l14 15q4 6 4 12q0 7 -12 10q-10 2 -33 2h-453z" />
    <glyph glyph-name="eight" unicode="8" horiz-adv-x="1380" 
d="M483 592q-5 8 -22 12q-39 17 -62 35q-55 37 -55 92q0 26 12 53q24 61 93 134q134 144 350 264q168 92 327 137q62 17 113 22h16q52 0 72 -26q27 -30 27 -64q0 -17 -11 -43q-20 -45 -83 -116q-49 -55 -152 -158q-85 -86 -367 -387q-10 -10 -10 -19q0 -7 6 -16
q33 -42 33 -90q0 -30 -14 -70q-21 -67 -94 -151q-193 -220 -445 -375q-50 -32 -100 -43q-8 -2 -23 -2q-40 0 -65.5 25.5t-26.5 68.5v10q0 34 25 115q72 181 219 362q121 145 231 224zM395 717q0 -39 19 -47q6 -3 26 -13.5t29.5 -14.5t26 -8.5t30.5 -4.5q20 0 47 10
q15 6 29 6q39 0 51 -51q4 -18 27 -29h6q6 0 19 13l18 18q368 405 440 487q90 99 123 150q1 3 9 15t8 18q0 3 -3 6q-5 12 -24 12h-31q-83 0 -192 -41q-284 -107 -504 -299q-81 -74 -125 -143q-29 -52 -29 -84zM61 -143q3 -35 21 -35q9 0 24 6q25 8 78 37q253 156 434 366
q82 93 99 175q2 10 2 28q0 23 -6 41q-6 19 -15 19q-3 0 -16 -13q-73 -80 -113 -127q-82 -102 -110 -157q-1 -1 -3 -4.5t-3 -5.5t-3.5 -3.5t-5.5 -1.5q-2 2 -4 2q-14 6 -14 21q1 4 3 11t3 11q5 9 16.5 29t16.5 29q39 60 113 145q36 45 71 86q8 8 8 14q0 3 -6 9q-26 20 -53 20
q-25 0 -49 -18q-2 -1 -5 -4.5t-5 -4.5q-138 -106 -254 -243q-124 -147 -187 -287q-35 -84 -37 -131v-14z" />
    <glyph glyph-name="nine" unicode="9" horiz-adv-x="1212" 
d="M1137 1264q-13 -4 -37 -23q-42 -34 -126 -102.5t-126 -102.5q-88 -71 -141.5 -113t-134 -98t-152.5 -96q-58 -33 -115 -47q-20 -4 -29 -4q-35 0 -57 22q-24 24 -24 52q0 2 1 6t1 6q7 42 45 102q53 87 168 195q161 148 342 217q57 23 110 31q12 2 35 2q69 0 96 -62
q5 -16 13 -16q6 0 14 8l55 49q4 3 13 10t16 11.5t14 7.5q11 8 25 8q21 0 33 -24q14 -22 14 -50q0 -14 -2 -22q-19 -116 -84 -246q-99 -197 -248 -358q-302 -328 -666 -629q-71 -57 -129 -88q-20 -12 -32 -14q-1 0 -4 -1t-5 -1q-9 0 -16 14l-2 4q0 4 1.5 6t6.5 5l6 3
q22 13 44.5 28t40.5 28t42.5 32.5t38.5 31t40 34.5t37 32.5t39.5 35.5t37.5 34q173 161 350 348q233 244 348 449q71 127 105 266q0 2 1 5t1 5q0 1 -4 9zM248 743q0 -22 12 -22q2 0 5 1t5 1q31 5 78 27q84 40 150 86q68 44 148 103.5t127 97t140 114.5q25 20 41 74q0 1 1 3
t1 3q0 12 -16 12q-8 2 -27 2q-52 -2 -122 -31q-268 -107 -459 -325q-42 -45 -68 -96q-16 -32 -16 -50z" />
    <glyph glyph-name="colon" unicode=":" horiz-adv-x="122" 
d="M102 295q-4 -25 -24 -35q-8 -4 -15 -4q-13 0 -24 14q-3 3 -9.5 8.5t-9.5 8.5q-12 15 -12 30q0 28 29 41q4 2 14 2q19 -3 35 -23t16 -42zM102 895q-4 -25 -24 -35q-8 -4 -15 -4q-13 0 -24 14q-3 3 -9.5 8.5t-9.5 8.5q-12 15 -12 31q0 27 29 40q6 3 14 3q19 -3 35 -23.5
t16 -42.5z" />
    <glyph glyph-name="semicolon" unicode=";" horiz-adv-x="337" 
d="M317 305q0 -23 -22 -49q-22 -22 -135 -145q-62 -73 -74 -84q-24 -29 -37 -39q-8 -8 -18 -8q-11 0 -19 8q-6 6 -6 14q0 9 8 21q51 60 158 210q36 49 57 89q1 1 2 4t2 4q20 28 35 28q1 0 4 -1t4 -1q15 -5 28 -20.5t13 -30.5zM311 895q-4 -25 -24 -35q-8 -4 -15 -4
q-14 0 -24 14q-3 3 -9.5 8.5t-9.5 8.5q-12 15 -12 31q0 27 29 40q6 3 14 3q19 -3 35 -23.5t16 -42.5z" />
    <glyph glyph-name="less" unicode="&#x3c;" horiz-adv-x="589" 
d="M496 889q41 0 61 -41q4 -12 4 -17q0 -22 -24 -22h-19q-10 0 -26 -4q-199 -64 -363 -154q-23 -10 -37 -24q-16 -13 -16 -27q0 -10 12 -22q12 -14 72 -74q137 -123 178 -156q22 -13 22 -26q0 -7 -2 -9q-5 -8 -12 -8q-4 0 -27 17q-68 50 -190 157q-8 8 -23 21t-27.5 24.5
t-23.5 22.5q-29 34 -35 47q-12 21 -12 41q0 29 31 57q42 31 78 49q157 82 274 123q67 23 105 25z" />
    <glyph glyph-name="equal" unicode="=" horiz-adv-x="727" 
d="M555 772q53 0 109 -12q29 -7 36 -29q2 -4 2 -12q0 -12 -14 -12h-6q-36 8 -84 8q-22 0 -72 -4q-85 -4 -276 -41q-52 -11 -178 -49q-9 -3 -19 -3q-15 0 -28 13q-17 20 -17 37q0 25 33 39q34 13 78 20q209 33 307 41q66 4 111 4h18zM668 518q-35 5 -41 6q-40 6 -80 6
q-28 0 -94 -4q-133 -8 -299 -47q-18 -4 -51.5 -13.5t-39.5 -10.5q-6 -2 -14 -2q-23 0 -35 28q-4 6 -4 19q0 20 23 32q30 15 102 27q214 27 332 27h45q75 0 139 -19q28 -8 33 -30v-5q0 -14 -12 -14h-4z" />
    <glyph glyph-name="greater" unicode="&#x3e;" horiz-adv-x="587" 
d="M74 305q-44 0 -64 41q-4 12 -4 14q0 11 7.5 18t19.5 7h16q13 0 29 4q181 56 362 154q20 10 37 24q15 12 15 27q0 11 -11 22l-73 74q-110 103 -179 156q-20 15 -20 26q0 7 2 9q5 8 12 8q8 0 25 -17q90 -67 190 -157q8 -8 23.5 -21t28 -24.5t22.5 -22.5q24 -25 37 -47
q10 -23 10 -41q0 -29 -31 -57q-45 -32 -77 -49q-150 -80 -275 -123q-63 -23 -102 -25z" />
    <glyph glyph-name="question" unicode="?" horiz-adv-x="1351" 
d="M895 1374q-343 -12 -584 -223q-59 -49 -88 -109q-7 -13 -16 -43v-10q0 -21 14 -33q8 -8 8 -14q0 -4 -4 -8t-10 -4t-14 4q-47 29 -47 82v8q0 45 32 104q42 69 111 119q169 128 399 174q122 21 209 21q9 0 26.5 -1t26.5 -1q118 -7 205 -45q23 -9 66 -35q37 -26 58.5 -69.5
t21.5 -90.5q0 -39 -19 -82q-23 -54 -88 -123q-65 -67 -201 -174q-28 -22 -86 -67t-93 -72.5t-83 -67t-88 -73.5q-245 -214 -395 -383q-36 -42 -53 -74q-1 -1 -3.5 -4.5t-4.5 -5.5t-5 -2q-2 2 -4 2q-14 3 -14 18v6q0 13 12 29q33 57 99 127q125 139 399 393q54 49 113 98.5
t143.5 118.5t114.5 94q112 96 159 158q35 47 45 88q5 20 5 21q0 24 -19 43q-22 28 -59 47q-64 35 -158 49q-62 10 -115 10h-16zM131 -100q0 -25 -22.5 -51t-45.5 -27h-4q-20 0 -34.5 15t-14.5 34q0 4 4 16q11 27 52 60q8 4 14 4q16 0 31 -12t18 -29q2 -4 2 -10z" />
    <glyph glyph-name="at" unicode="@" horiz-adv-x="1423" 
d="M854 649q-14 0 -33 -14q-20 -13 -57.5 -38t-56.5 -38q-32 -20 -50 -24q-9 -3 -14 -3q-20 0 -32.5 11.5t-12.5 29.5q0 11 2 17q39 111 127 155q18 9 37 9q34 0 72 -23q15 -12 22 -12t21 14q6 5 41 35q9 6 22 6q24 0 39 -18q4 -4 4 -15q0 -8 -2 -12q-9 -17 -16 -27
q-6 -10 -26 -40t-30 -48q-20 -30 -28 -63q-1 -3 -3.5 -7.5t-2.5 -6.5q0 -5 4 -9t10 -4t14 4q9 3 37 17q155 86 272 231q78 99 113 187q25 70 25 122q0 21 -2 31q-6 77 -66.5 138t-153.5 67q-14 2 -40 2q-113 0 -246 -55q-153 -63 -303 -191q-206 -172 -332 -387
q-106 -178 -131 -354q-8 -44 -8 -98q0 -113 47 -195q77 -140 235 -164q32 -4 49 -4q93 0 207 57q93 50 176 129q161 153 242 254q37 45 80 115q2 10 10 21q4 4 10 4q5 0 9 -2q6 -3 6 -13v-4l-13 -26q-39 -75 -124 -174q-148 -168 -234 -242q-125 -110 -283 -146
q-46 -8 -71 -8q-66 0 -133.5 24t-125 68t-97.5 114t-48 153q-4 46 -4 67q0 131 55 281q68 187 228 379q167 201 383 327q147 84 295 113q41 8 88 8q113 0 209 -57q129 -75 135 -219v-11q0 -69 -41 -163q-46 -103 -133 -203q-102 -113 -213 -184q-61 -34 -74 -39
q-26 -11 -43 -11h-6q-31 1 -48.5 20t-17.5 48v12q2 18 29 82zM676 592q41 16 125 78q1 1 3.5 3t4 3.5t3 3.5t1.5 4q0 4 -2 6q-5 8 -12 8q-2 0 -6.5 -1t-6.5 -1l-12 -6q-61 -37 -98 -98z" />
    <glyph glyph-name="A" unicode="A" horiz-adv-x="2727" 
d="M2304 635q12 -2 35 -2q7 0 21.5 1t21.5 1q89 6 178 6q101 0 180 -8h10q21 -4 21 -17v-4q-2 -10 -16 -10h-7q-47 6 -141 6h-70q-138 -3 -247 -14q-27 -3 -43 -25q-277 -351 -453 -589q-21 -29 -57 -79t-66 -91.5t-57 -77.5q-30 -36 -33 -39q-12 -8 -22 -8q-9 0 -15 2
q-16 10 -16 32q4 30 8 43q4 19 15 63t17 69.5t12.5 62.5t10.5 68q2 25 2 69q0 116 -41 199q-12 18 -14 22q-6 13 -14 13q-6 0 -15 -9l-28 -20q-296 -222 -484 -342q-221 -141 -356 -193q-125 -47 -225 -47h-17q-18 4 -18 17q0 12 18 16q7 1 30 1.5t34 2.5q99 19 213 74
q163 75 319 182q182 113 475 332q25 22 25 29q0 9 -22 28q-45 40 -123 80q-27 15 -60 15h-22q-50 -6 -150.5 -19.5t-150.5 -19.5q-16 -2 -383 -54q-175 -26 -367 -51q-67 -12 -135 -18l-14 -2q-27 0 -48 12q-16 13 -16 25q0 9 16 22q47 27 76 35q251 99 551 145
q126 22 244 25l51 2q178 0 320 -45q24 -8 57 -8q25 0 37 2q38 4 114.5 12t114.5 12q35 5 180 19q25 2 56 22l393 320q248 199 459 383q159 138 315 276q16 14 97.5 87t127.5 110q3 2 10.5 8t10.5 8q11 8 24 8q11 0 18 -8.5t7 -23.5l2 -6q0 -10 -14 -33q-11 -12 -36 -41.5
t-40 -44.5q-55 -60 -161.5 -175.5t-119.5 -129.5q-270 -289 -551 -631q-6 -8 -18.5 -23t-23 -29t-17.5 -30zM2169 565q5 10 8 13v4q-4 2 -4 4h-14q-55 -4 -328 -29q-15 0 -39 -16q-36 -29 -109.5 -86t-109.5 -86q-14 -11 -14 -19q0 -7 6 -16q71 -114 71 -264q0 -56 -8 -105
q-4 -28 -15.5 -87t-15.5 -89zM1876 604q16 -4 22 -4t19 2t20 2q29 2 112.5 10.5t129.5 10.5q36 0 66 37q297 381 632 745q16 20 48 53.5t43 46.5q-399 -343 -1092 -903zM102 381q432 66 1092 147l-20 9q-114 20 -242 20q-90 0 -158 -8q-173 -15 -412 -76q-182 -56 -260 -92z
M1386 506q2 -4 5.5 -7.5t9.5 -6.5t8 -5q62 -42 104 -84q9 -12 17 -12q2 0 18 8q40 32 168 129q0 2 2 5.5t2 5.5q0 1 -1 3t-1 3q-55 -7 -165.5 -19.5t-166.5 -19.5z" />
    <glyph glyph-name="B" unicode="B" horiz-adv-x="2904" 
d="M1931 1520q20 1 92 16q213 37 344 53q82 8 123 8h19q1 0 16.5 -2t22.5 -4q15 -4 25 -16.5t10 -26.5t-13 -30q-14 -19 -47 -41q-41 -27 -186 -103q-107 -55 -323.5 -163t-323.5 -162t-310 -164q-40 -20 -51 -47q14 0 28 2.5t33 7t27 6.5q219 50 445 80q174 22 292 29
q79 6 160 6q16 0 47 -1t47 -1q144 -3 263 -31q53 -13 92 -37q61 -34 61 -98q0 -22 -10 -49q-19 -46 -51 -74q-67 -69 -207 -158q-213 -132 -584 -307q-411 -191 -780 -328q-342 -126 -608 -194q-177 -49 -318 -60q-50 -4 -71 -4q-46 0 -82 8q-46 11 -72 29q-33 23 -33 62
q0 16 6 34q16 36 60 76q79 66 188 115q168 80 354 131q62 17 105 74q64 95 276 372q13 20 13 27q0 11 -23 25q-51 33 -137 51q-81 16 -252 24q-205 15 -246 21q-53 8 -76 20q-53 27 -53 72q0 21 21 53q29 45 96 94q101 82 274 170q295 150 717 281q224 69 447 117
q39 9 61 37q24 30 53 59q13 16 25 16q2 0 14 -4q17 -10 17 -30q0 -13 -4 -19q-2 -3 -6.5 -10.5t-6.5 -11.5zM506 -293q115 24 254 72q834 270 1585 680q189 102 321 205q77 58 107 106q16 26 16 41q0 21 -32 43q-35 24 -97 39q-110 29 -284 33h-39q-66 0 -252 -13
q-152 -12 -301 -36q-117 -18 -486 -93q-26 -7 -34 -20q-30 -37 -91 -109.5t-92 -109.5q-10 -13 -10 -25q0 -6 2 -10q6 -24 6 -47q0 -36 -18 -92q-21 -61 -78 -148q-18 -23 -20 -35q4 -2 10 -2t18 4q35 8 103.5 25t103.5 25q169 41 340 59q8 0 24.5 1t24.5 1q41 0 72 -8
q29 -4 39 -14q4 -4 4 -11v-4q-4 -4 -8 -4h-4q-2 0 -7.5 1t-7.5 1q-46 8 -69 8h-11q-94 -8 -141 -16q-205 -32 -512 -117q-25 -5 -47 -31q-191 -226 -389 -399h-12q-39 0 -39 25q0 9 6 24q3 9 18 39q30 53 137 217q17 17 19 33q-12 -3 -21 -6q-180 -58 -301 -115
q-131 -62 -209 -125q-31 -25 -49 -59q-10 -20 -10 -31q0 -22 35 -37q41 -14 86 -14q152 0 340 49zM1761 1438q-14 -2 -30 -6q-410 -99 -715 -218q-324 -125 -529 -253q-121 -75 -180 -134q-31 -35 -39 -57q-4 -12 -4 -18q0 -14 21 -23q27 -11 75 -18q52 -6 149 -11t136 -8
q123 -8 184 -20q127 -22 189 -80q9 -6 14 -6q10 0 19 12q6 8 60 76.5t83 103.5q10 15 10 21v8q0 23 31 39q31 20 63 61q101 121 297 346q128 142 166 185zM1454 975q25 14 43 22q56 28 165 86.5t165 87.5q82 42 247.5 126t247.5 126q115 58 181 99q2 2 9.5 6.5t11.5 9
t7 10.5q-24 6 -47 6q-20 0 -30 -2q-12 -1 -53 -4t-62 -6q-199 -22 -426 -69q-25 -5 -43 -27q-22 -24 -66 -71.5t-65 -71.5q-114 -126 -221 -242q-4 -4 -17 -19t-18.5 -22t-14 -20t-14.5 -25zM1038 483q-147 -176 -272 -352q16 3 94 23q20 7 31 20q100 128 135 223
q12 35 12 72v14zM827 96q-1 1 -2 3t-2 3q-58 -15 -90 -26q-11 -2 -24 -19q-104 -142 -166 -243q-6 -6 -6 -11q0 -2 6 -8q154 151 284 301z" />
    <glyph glyph-name="C" unicode="C" horiz-adv-x="1662" 
d="M250 -391q-4 0 -12.5 -1t-12.5 -1q-30 0 -92 12q-16 4 -24 8q-97 42 -97 125q0 21 6 45q18 75 84 187q82 137 232 315q186 220 385 410q432 412 868 671q239 142 443 209q78 28 172 41q10 2 30 2q15 0 47 -4q42 -7 68.5 -40.5t26.5 -74.5q0 -19 -9 -40q-22 -56 -77 -121
q-82 -96 -234 -219q-143 -116 -297 -203q-21 -12 -61 -30t-51 -23q-10 -5 -17 -5q-14 0 -20 13q0 1 -1 3t-1 3q0 6 12 14q18 12 20 13q194 93 406 272q124 100 192 184q60 72 80 121q13 29 13 45q0 28 -60 31h-12q-64 0 -174 -31q-167 -51 -365 -158q-372 -199 -764 -534
q-163 -141 -303 -281q-315 -322 -467 -549q-52 -76 -90 -159q-28 -74 -28 -119v-8q2 -33 14.5 -50t44.5 -24q66 -8 94 -8h21q181 17 258 26q32 3 250 29q111 12 215 21l233 24q61 6 176 14q35 3 102.5 8.5t98.5 8.5q18 2 52 4t52 4q148 8 224 8h41q1 0 5 -0.5t5.5 -1t4.5 -1
t4.5 -1.5t3.5 -3t2.5 -4t0.5 -5q0 -12 -14 -12h-39q-41 0 -266 -15q-42 -3 -126 -11t-126 -11q-49 -5 -146.5 -14.5t-146.5 -14.5q-72 -7 -299 -35q-247 -31 -289 -37q-74 -10 -211 -22h-55z" />
    <glyph glyph-name="D" unicode="D" horiz-adv-x="2564" 
d="M2105 1692q287 -7 451 -52q121 -31 197 -84q120 -82 120 -215q0 -40 -8 -73q-17 -78 -67 -154q-76 -123 -230 -270q-359 -336 -962 -690q-463 -273 -899 -441q-216 -82 -381 -114q-96 -17 -138 -17q-30 0 -65 6q-49 11 -72 27q-41 24 -41 66q0 20 13 43q15 27 53 61
q39 33 162 102q63 37 180 93q24 14 37 34q119 191 338 471q32 42 112 144q13 16 13 22q0 8 -23 17q-73 33 -209 71q-142 37 -223 70q-38 17 -56.5 26.5t-47 28t-48.5 39.5q-45 51 -45 101q0 35 25 77q25 47 84 95q111 93 280 174q386 190 877 282q188 35 373 47
q33 3 100.5 6.5t99.5 6.5zM397 -80q-12 0 -24 -8q-143 -73 -230 -135q-30 -21 -59 -53q-19 -19 -27 -41q-4 -12 -4 -19q0 -22 25 -31q25 -14 61 -14q7 0 20.5 -1t20.5 -1q80 0 156 18q151 33 360 113q382 151 748 363q320 183 587.5 368t497.5 398q154 147 234 268
q59 94 73 170q5 35 5 41q0 63 -48 114q-15 17 -47 41q-75 50 -159 74q-166 50 -396 57h-61q-58 0 -168 -4q-160 -12 -240 -22q-265 -38 -475 -96q-366 -99 -626 -242q-131 -70 -224 -154q-56 -53 -75 -98q-11 -26 -11 -43q0 -46 43 -76q35 -28 84 -47q68 -29 131 -49
q31 -10 113.5 -33t139.5 -44t108 -48q8 -4 12 -4q7 0 14 10q9 9 11 13q220 262 352 405q66 73 178 195q98 106 191 192q40 36 57 43q12 4 18 4q14 0 27 -10q20 -17 20 -41v-6q-5 -14 -10 -14q-1 0 -2 1t-2 1q-8 4 -14 4q-4 0 -8.5 -2.5t-7 -4.5t-7.5 -7.5t-6 -6.5
q-201 -201 -297 -303q-215 -223 -442 -487q-15 -18 -15 -25q0 -4 15 -22q45 -48 45 -111q0 -23 -6 -47q-7 -36 -27 -80q-38 -76 -125 -178q-23 -23 -29 -37q2 -2 9 -2q4 0 12 4l111 31q128 30 204 41q2 0 6.5 1t6.5 1q15 0 18 -17q0 -5 -3.5 -8t-7 -3.5t-10 -1.5t-8.5 -1
q-170 -27 -364 -94q-43 -16 -68 -41q-115 -115 -229 -197q-50 -37 -88 -53q-12 -6 -23 -6q-16 0 -37 14q-12 10 -12 31q0 14 2 22q8 16 8 23q0 1 -1 4t-1 4zM532 37q21 9 211 82q19 7 25 16q137 137 199 242q38 67 47 112q4 24 4 35q0 44 -29 80q-7 10 -14 10q-4 0 -14 -10
q-1 -2 -11 -12q-178 -212 -352 -453q-54 -78 -66 -102zM670 47q-29 -8 -79.5 -30t-62.5 -27q-14 -5 -26 -13.5t-19 -15t-15 -22t-10 -21t-9.5 -26t-8.5 -23.5q107 58 230 178z" />
    <glyph glyph-name="E" unicode="E" horiz-adv-x="2009" 
d="M1673 618q-8 1 -63 7t-84 6q-6 0 -17.5 -1t-17.5 -1q-47 -4 -143 -4h-531q-109 0 -190 18q-63 14 -95 53q-22 28 -22 52q0 19 16 45q21 35 60 69q120 106 327 219q413 228 871 377q270 86 504 123q106 16 200 16q47 0 72 -2q69 -3 123 -28q39 -20 57 -60q8 -19 8 -41
q0 -31 -22 -59q-14 -18 -51 -51q-64 -50 -166 -105q-166 -85 -326 -137q-50 -16 -131 -27q-13 0 -20 5q-9 6 -9 14q0 11 9 14q4 1 11 3t11 3q73 7 170 48q198 78 332 165q67 43 108 84q19 16 31 37q8 13 8 23q0 11 -22 20q-52 19 -103 19q-23 2 -69 2q-151 0 -326 -37
q-424 -83 -903 -295q-260 -117 -467 -244q-131 -78 -201 -153q-27 -32 -34 -47q-7 -14 -7 -21q0 -12 23 -18q56 -13 78 -15q30 -4 90 -8q121 -8 364 -8h426q20 0 42.5 -1t49.5 -2.5t42 -2.5q14 0 38 -8q27 -12 27 -39q0 -23 -20 -37q-13 -9 -45 -23q-64 -25 -347 -121
q-429 -148 -743 -307q-242 -126 -379 -223q-75 -52 -111 -90q-29 -29 -45 -60q-10 -23 -10 -34q0 -26 41 -41q42 -15 66 -17q12 -1 47 -4.5t55 -3.5h127q51 0 76 2q18 0 278 17q35 2 109 6q60 4 177.5 11t174.5 11q60 3 181.5 11.5t183.5 11.5q34 2 100.5 4t99.5 4
q111 6 218 6h49q33 0 49 -4t16 -16q-2 -9 -12 -9h-76q-101 0 -305 -12q-193 -8 -279 -14q-38 -2 -113.5 -8.5t-113.5 -8.5q-37 -3 -110.5 -8t-110.5 -8q-77 -4 -219 -16q-32 -2 -94.5 -7.5t-92.5 -7.5q-114 -6 -229 -6h-78q-71 0 -145 19q-46 13 -76 36q-35 25 -35 66
q0 25 10 43q16 30 46 57q78 81 194 152q278 179 631 330q226 96 651 243q26 9 74.5 27.5t56.5 21.5z" />
    <glyph glyph-name="F" unicode="F" horiz-adv-x="2299" 
d="M946 594q-9 0 -63 -6q-239 -25 -402 -53q-178 -29 -366 -74q-2 0 -14 -2.5t-15.5 -3.5t-13 -4t-14 -6.5t-11 -9.5t-10.5 -13q-2 -4 -6 -4q-5 0 -13 4q-14 8 -14 27q0 14 8 22q8 12 43 29q47 18 162 47q192 42 377 59q47 4 144 14.5t147 14.5q62 8 94 8q21 0 37 19
q113 147 143 184q12 14 18 34.5t6.5 30.5t2.5 39q0 5 1 15.5t1 15.5q0 143 -133 225q-80 52 -224 94q-129 35 -321 60q-63 7 -186.5 18.5t-186.5 18.5q-30 4 -41 8q-19 3 -28 18q-13 13 -13 25q0 17 23 27q25 10 108 28q130 22 324 47q249 25 293 29q38 3 113.5 8t113.5 8
q27 2 138.5 7t170.5 10h17q194 4 293 8q102 4 606 14q92 2 278 2h115q34 -1 96.5 -2.5t114 -3.5t96.5 -6q101 -8 150 -22q23 -9 28 -13q9 -9 9 -14q0 -4 -2 -6q-3 -6 -11 -6q-2 0 -4.5 1t-3.5 1l-49 12q-24 4 -154 14q-147 6 -295 6q-39 0 -118 -1t-119 -1q-35 -1 -187 -3
t-233 -7q-37 -2 -108 -2q-19 0 -19 -14v-4q0 -47 -31 -58q-4 -1 -7.5 -7t-4.5 -7q-40 -52 -87 -107t-108.5 -124t-91.5 -103q-266 -315 -307 -366q-14 -16 -24 -36.5t-20.5 -47t-16.5 -39.5q-2 -2 -2 -6q0 -7 12 -7h23q176 12 337 21q70 4 209 4h138q146 0 268 -25
q17 -3 26 -10q9 -6 9 -12v-6q-3 -8 -11 -8q-1 0 -3 1t-3 1q-2 0 -35.5 5.5t-50.5 6.5q-107 10 -131 10q-37 2 -112 2q-97 0 -289 -8q-73 -4 -210.5 -13.5t-166.5 -11.5q-44 -3 -64 -41q-97 -166 -290 -401q-173 -208 -416 -463q-43 -43 -125 -129q-14 -14 -27 -14
q-8 0 -14 4q-10 7 -10 16q0 7 2 11q12 16 18 26q143 186 416.5 546t302.5 398q13 19 14 27h-10zM1759 1571q-1 1 -2 4t-2 4q-961 -36 -1587 -141q61 -9 171.5 -20t156.5 -17q207 -24 352 -68q154 -44 248 -116q127 -100 127 -252v-19q0 -6 2 -10q178 213 534 635zM1044 596
q-248 -303 -548 -696q88 69 299 336.5t249 359.5z" />
    <glyph glyph-name="G" unicode="G" horiz-adv-x="2123" 
d="M1706 362q-8 0 -33 -10q-565 -270 -811 -383q-279 -131 -481 -196q-114 -35 -182 -39h-23q-39 0 -70 8q-96 27 -102 131v21q0 100 45 217q67 184 205 395q165 254 397 500q294 305 615 512q260 166 506 256q156 56 284 69q50 4 74 4q73 0 137 -20q68 -23 112 -81.5
t44 -137.5v-23q-8 -98 -72 -213q-71 -126 -190 -258q-133 -150 -258 -248q-113 -87 -195 -118q-27 -12 -55 -15h-11q-34 0 -55 21q-6 6 -6 10t2 6q3 6 8 6q1 0 4 -1t4 -1q13 -8 29 -8q8 0 43 10q76 29 148 88q260 194 452 477q82 126 105 234q6 27 6 55q0 5 -1 15.5t-1 15.5
q-8 62 -72 96q-55 29 -147 33h-15q-93 0 -237 -37q-262 -70 -572 -258q-378 -235 -708 -590q-223 -241 -379 -495q-119 -198 -168 -357q-29 -102 -29 -155v-11q0 -18 2 -26q12 -92 97 -92q4 0 11 1t11 1q110 11 295 82q162 59 502 215q59 28 674 317q112 53 241 131
q17 10 29 10q11 0 16 -10q11 -15 11 -22q0 -15 -19 -31q-17 -16 -51 -44.5t-39 -33.5q-118 -100 -303 -289q-232 -242 -375 -434q-54 -71 -86 -129q-41 -72 -47 -111q0 -16 -12 -16h-2q-10 0 -17 14q-2 4 -2 13q0 10 2 16q6 38 41 102q60 109 185 267q167 206 372 415
q2 2 109 115q8 4 8 14z" />
    <glyph glyph-name="H" unicode="H" horiz-adv-x="3295" 
d="M1626 735q310 26 346 29q212 16 318 22q47 3 140 8.5t140 8.5q49 2 148 2h39q42 0 67 35q239 323 408 532q190 232 338 395q14 15 38.5 44.5t38.5 43.5q18 21 27 21q4 0 12 -4q23 -13 23 -37q0 -8 -4 -16q-19 -34 -27 -43q-59 -73 -100 -119q-349 -383 -600 -705
q-17 -23 -51 -67t-52 -66q-1 -1 -2.5 -3.5t-3.5 -4.5q6 -6 17 -6h14q108 0 213 -21q29 -4 47 -14q1 -1 3.5 -3t4 -3.5t3 -3.5t1.5 -4q0 -1 -1 -3t-1 -3q-4 -7 -10 -7q-1 0 -4 1t-4 1q-32 9 -71 15t-66.5 7.5t-73 3.5t-68.5 3h-6q-30 0 -47 -26q-493 -651 -741 -1031
q-80 -125 -183 -299q-2 -4 -16 -28q-7 -11 -16 -11q-3 0 -9 3q-8 5 -8 14q0 2 4 14q4 4 7 10q143 264 374 603q47 70 97.5 141.5t109 152.5t97.5 134.5t110.5 151t101.5 138.5q15 15 15 25q-4 4 -13 4q-19 -1 -78 -1.5t-92 -2.5q-26 -2 -79 -5t-80 -5q-40 -3 -126.5 -9.5
t-133.5 -9.5q-197 -13 -281 -20q-41 -4 -134.5 -12.5t-143.5 -12.5q-21 -3 -35 -24q-23 -30 -70.5 -93t-71.5 -94q-23 -34 -39 -55q-80 -107 -120 -203q-22 -53 -58 -113t-61 -95.5t-74 -102.5q-83 -114 -282 -356q-10 -13 -23 -23q-8 -8 -16 -8q-9 0 -15 6t-6 12q0 7 4 15
l25 36q248 377 485 725q35 52 35 115q0 39 -12 80q-8 24 -31 47q-61 58 -158 78q-2 0 -5.5 1t-4.5 1q-9 0 -25 -3.5t-20 -4.5q-27 -2 -231 -23q-35 -4 -104.5 -11t-104.5 -11q-39 -3 -113.5 -11.5t-110.5 -11.5q-191 -14 -245 -14h-45q-38 0 -56 20q-10 10 -10 19q0 8 14 18
q14 9 45 17q94 29 250 51q154 23 281 31q165 6 168 6q46 0 69 -2q139 -11 230 -25q6 -2 22 -2q4 0 64 6l178 19q113 11 182 16q25 3 45 29q176 238 332 426q202 244 352 409q25 27 78 81.5t78 82.5q20 23 47 43q9 6 19 6q12 0 20 -8q21 -14 21 -33q0 -2 -1 -4.5t-1 -3.5
q-4 -12 -13 -14q-6 -1 -11 -5t-7.5 -6.5t-8 -9t-6.5 -8.5q-21 -24 -245 -270q-247 -273 -516 -615q-8 -11 -30.5 -38.5t-33.5 -43.5v-8zM1174 649l10 -10q122 -68 133 -186q3 -9 8 -9q3 0 8 5q6 6 10 14q54 72 138 190q10 20 10 23v4q-60 -3 -173.5 -15.5t-143.5 -15.5z
M117 594q88 6 191.5 15t177.5 16.5t195.5 20t182.5 18.5q-27 6 -96 6q-143 0 -353 -23.5t-298 -52.5z" />
    <glyph glyph-name="I" unicode="I" horiz-adv-x="1519" 
d="M494 -330q28 -4 41 -4q6 0 18 1t18 1q61 6 125 6q74 0 144 -6q86 -6 161 -26q23 -9 29 -15q8 -8 8 -14v-4q-3 -8 -10 -8q-2 0 -5 1t-5 1q-48 12 -70 16q-85 14 -184 14q-64 0 -131 -6q-22 -1 -67 -4t-68 -4q-44 -3 -60 -39q-25 -68 -28 -82q-5 -20 -15 -20h-4
q-16 5 -16 22v6q5 28 18 66l4 8q4 9 4 14t-2 7q-6 6 -12 6q-8 0 -20 -4q-120 -16 -222 -41q-48 -16 -57 -21q-32 -14 -41 -37q-6 -12 -14 -12q-6 0 -15 6q-14 11 -14 31q0 18 12 33q16 21 56 37q30 12 121 30q160 23 210 27q34 4 48 27q101 161 309 415q227 277 526 607
q221 241 483 509q67 69 193 192t166 163q9 9 31.5 32t38.5 40.5t30 35.5q9 9 13 15q8 12 8 16v4q-2 6 -15 6h-8q-32 0 -98 -16q-85 -21 -234 -86q-271 -117 -462 -268q-81 -59 -127 -113q-25 -25 -25 -49v-6q0 -11 -8 -11l-10 5q-21 15 -21 43q0 14 6 26q15 34 51 70
q89 89 218 170q300 188 610 278q67 19 104 19q36 0 58 -20.5t22 -51.5q0 -17 -6 -35q-10 -23 -25 -41q-18 -28 -57 -67q-97 -99 -326 -314q-43 -40 -87.5 -84.5t-105.5 -106t-85 -85.5q-259 -265 -488 -520q-355 -396 -555 -664q-36 -46 -81 -121z" />
    <glyph glyph-name="J" unicode="J" horiz-adv-x="2482" 
d="M1309 385q20 0 63.5 -0.5t65 -1t53 -3.5t57.5 -9q27 -4 70 -23q16 -8 22 -16q2 -2 2 -8v-5q-4 -4 -6 -4h-4q-2 0 -10 4q-55 31 -180 35h-58q-164 0 -385 -24q-235 -25 -446 -99q-201 -70 -326 -170q-84 -68 -129 -145q-30 -56 -30 -111q0 -54 29 -99.5t85 -74.5
q61 -34 146 -37h24q117 0 281 48q218 66 504 221q471 250 931 641q254 219 416 407q141 166 201 295q40 90 43 162v14q0 75 -59 134q-51 53 -136 88q-106 48 -254 65q-106 12 -159 12h-23q-271 0 -571 -75q-324 -86 -568 -226q-165 -99 -256 -192q-77 -85 -100 -152
q-14 -44 -14 -75q0 -19 2 -29q14 -75 90 -119q58 -34 176 -57q107 -17 191 -17q65 0 129 6q255 15 499 107q66 24 113 53q15 10 20 10q10 0 15 -8q4 -8 4 -10q0 -9 -21 -20q-55 -42 -145 -74q-214 -75 -430 -96q-89 -7 -150 -7q-69 0 -104 2q-180 11 -293 72q-64 34 -104 92
q-37 55 -37 117q0 34 8 61q13 56 55 115q75 102 234 209q233 152 565 254q186 58 379 88q124 18 207 23q74 4 114 4h41q239 -7 398 -76q123 -53 178 -137q55 -79 55 -178q0 -32 -6 -62q-13 -91 -72 -190q-84 -148 -243 -318q-266 -282 -684 -583q-333 -243 -685 -420
q-270 -135 -497 -191q-103 -28 -201 -28h-31q-170 7 -268 110q-70 76 -70 160q0 50 27 106q44 87 141 164q118 95 310 166q199 76 430 98q256 27 381 27z" />
    <glyph glyph-name="K" unicode="K" horiz-adv-x="2572" 
d="M866 580q7 -5 15 -5q3 0 18 5q273 81 528 178q616 224 1305 522q363 163 475 223q12 7 38.5 22t42 24t37 23t38.5 27q1 1 3 2.5t3 2.5q15 12 25 12q6 0 14 -8q8 -11 8 -25q0 -17 -12 -29q-22 -19 -51 -41q-58 -45 -136 -86q-162 -88 -526 -239q-573 -240 -1143 -447
q-296 -110 -555 -186l-30 -10q14 -3 34.5 -7.5t36.5 -7.5t31 -6q193 -39 471 -153q431 -173 870 -396q237 -121 361 -202q67 -41 129 -90q17 -13 22 -25q2 -2 2 -6t-2 -6q-4 -4 -8 -4l-4 2q-3 2 -8 5t-8 5q-122 94 -316 196q-542 287 -1058 482q-242 93 -441 131
q-130 25 -248 31q-35 0 -59 -27q-38 -46 -113.5 -136t-113.5 -136q-227 -277 -355 -459q-106 -148 -143 -232q-9 -18 -18 -18q-7 0 -11 2q-12 5 -12 18q0 11 2 15q9 26 41 84q84 142 279 399q88 117 340 426q3 4 14 17.5t18 21.5q-26 -4 -82.5 -15.5t-85.5 -15.5
q-27 -4 -73 -8h-6q-40 0 -62 31q-8 16 -8 20q0 12 16 25q9 7 35 16q55 21 137 31q49 8 113 8q9 0 27.5 -1t27.5 -1q39 0 62 29q225 265 270 317q194 228 354 393q162 166 283 279q109 105 190 168q5 4 15.5 11t15.5 11q18 11 31 11q11 0 20 -9q29 -25 29 -47q0 -2 -1 -6
t-1 -6q-2 -6 -7 -17.5t-7 -17.5q-23 -57 -27 -76q-2 -6 -2 -20q0 -13 4 -33q0 -1 1 -4t1 -4q0 -7 -8 -10h-4q-6 0 -12 6q-27 31 -27 80q0 3 1 10.5t1 11.5q0 9 -2 13q-547 -479 -1049 -1069z" />
    <glyph glyph-name="L" unicode="L" horiz-adv-x="1802" 
d="M2210 1626q-14 -19 -38.5 -50.5t-33.5 -43.5q-50 -66 -188.5 -247t-237 -307.5t-194.5 -244.5q-245 -305 -453 -528q-261 -282 -481 -455q-21 -14 -33 -26q-18 -12 -33 -27q15 2 41.5 2.5t34.5 1.5q169 14 362 14q56 0 165 -2t165 -2q98 -4 148 -4q309 -12 311 -12
q120 -4 182 -8q143 -7 246 -17q29 -3 88 -7t88 -7q181 -19 283 -41q16 -4 24 -8q13 -4 13 -13q0 -1 -1.5 -3t-1.5 -3q-3 -8 -10 -8q-1 0 -4 1t-4 1q-14 2 -41.5 7.5t-40.5 7.5q-88 14 -268 30q-44 2 -225 17q-23 2 -68.5 4t-67.5 4q-45 2 -135 4t-135 4q-57 3 -170 4t-170 4
q-61 2 -184 2h-78q-43 -1 -122 -2.5t-143.5 -3.5t-121.5 -6q-123 -9 -246 -27q-19 -2 -47 -18q-118 -68 -209 -96q-45 -15 -76 -17q-6 -2 -20 -2q-27 0 -51 15q-23 16 -23 32q0 15 21 33q26 20 63 33q82 31 225 57q6 1 36 6.5t46 6.5q14 2 41 20q126 88 236 186
q246 222 520 549q119 141 258 318.5t224.5 292t244.5 329.5q156 209 238 307q5 5 22 26.5t29 34t26 23.5q15 15 29 15q19 0 35 -25q4 -12 4 -14q0 -3 -6 -27q-6 -15 -17.5 -43t-17.5 -43q-16 -50 -16 -76q0 -3 1 -9t1 -9q0 -14 -8 -16h-3q-6 0 -14 8q-14 24 -14 45q0 2 1 7
t1 7q0 3 1 10t1 11q0 6 -4 18zM84 -457q74 5 170 54q-122 -25 -170 -54z" />
    <glyph glyph-name="M" unicode="M" horiz-adv-x="3317" 
d="M2447 1165q-12 -4 -28 -20q-136 -104 -324 -277q-161 -146 -297 -284q-252 -262 -471 -512q-123 -145 -276 -322q-27 -35 -62 -59q-16 -13 -33 -13q-3 0 -18 5q-25 14 -25 47q0 4 11 59q29 122 108 305q131 305 363 744q25 46 86.5 157t104.5 192.5t81 158.5
q63 125 84 200q18 56 18 111t-51 74q-44 20 -108 20q-33 0 -49 -2q-187 -22 -424 -133q-435 -208 -750 -543q-178 -197 -260 -383q-55 -123 -61 -244v-24q0 -81 32 -141q41 -81 127 -105l99 -18q18 -4 28 -11q6 -3 6 -10q0 -8 -8 -8q-1 0 -3 -1t-3 -1q-2 0 -4.5 1t-3.5 1
q-101 13 -143 29q-148 58 -179 219q-6 35 -6 69q0 70 29 166q50 155 153 299q194 269 500 490q257 188 539 305q179 72 315 92q40 4 64 4q35 0 73 -6q108 -22 134 -139q4 -14 4 -43q0 -26 -7 -66q-16 -68 -49 -149q-53 -129 -174 -342q-33 -60 -97 -174.5t-103.5 -186
t-92 -171.5t-94.5 -185q-158 -324 -217 -504q-25 -78 -27 -119q40 31 91 90q39 44 138.5 158t172 195t141.5 157q245 267 418 435q288 278 549 481l43 31q16 8 22 8q9 0 15 -6q16 -16 16 -31q0 -8 -2 -12q-5 -21 -20 -43q-14 -19 -39 -56t-39 -55q-203 -265 -318 -446
q-140 -212 -243 -435q-30 -73 -35 -96q25 24 84 92q51 58 177 205t195 225q234 258 353 385q356 374 657 596q155 117 285 177q66 30 121 38q3 0 8.5 1t7.5 1q32 0 52.5 -20t23.5 -55v-6q0 -39 -33 -107q-41 -78 -121 -186q-101 -140 -276 -373q-197 -268 -434 -670
q-209 -363 -302 -559q-62 -123 -90 -217q-14 -54 -14 -68q0 -18 4 -28v-2q0 -13 -10 -13q-1 0 -3 1.5t-3 1.5q-18 12 -21 34v11q0 28 6 49q20 89 82 223q86 191 260 500q152 270 306 514q145 229 356 510q161 220 213 301q32 61 35 69q6 15 6 25q0 18 -39 18q-24 0 -51 -6
q-70 -16 -178 -78q-149 -84 -336 -239q-123 -102 -293 -264q-229 -224 -516 -549q-92 -103 -255 -298t-206 -245q-5 -5 -13 -14t-15 -16t-13 -11q-15 -12 -27 -12q-8 0 -20 8q-16 11 -16 29q0 8 2 12q10 55 38 119q95 226 269 499q123 199 307 437q15 20 16 28z" />
    <glyph glyph-name="N" unicode="N" horiz-adv-x="2537" 
d="M729 90q13 3 33 23q114 110 172 168q125 128 332 325q425 402 784 688q371 296 705 486q189 110 352 170q77 30 129 30h8q58 -3 66 -55q2 -6 2 -20q0 -26 -13 -52q-18 -39 -77 -114q-107 -127 -203 -228q-480 -516 -842 -1042q-243 -350 -432 -668q-141 -238 -203 -383
q-9 -18 -20 -51q-17 -49 -17 -69q0 -15 2 -21l2 -4q0 -7 -6 -10h-4q-4 0 -12 8q-10 10 -10 27q0 2 1 6t1 6q0 20 14 67q35 100 119 258q279 516 737 1151q218 303 438 557q50 58 143 163t117 132q141 158 191 230q16 19 24 41q3 6 3 10q0 10 -15 10q-3 0 -10 1t-10 1
q-9 0 -29 -4q-94 -16 -238 -82q-170 -77 -389 -217q-322 -206 -692 -514q-147 -123 -393 -350q-60 -54 -119.5 -111t-130.5 -127t-111.5 -110.5t-128 -129t-114.5 -116.5q-19 -20 -58 -58t-59 -57q-29 -25 -45 -30q-7 -5 -18 -5q-15 0 -26 11t-11 28v4q2 23 18 58
q46 95 125 221q172 269 451 627q50 64 216 273t253 325q78 101 133 196q33 60 45 103q4 20 4 26q0 23 -35 37q-46 15 -94 15q-27 0 -39 -2q-210 -21 -512 -150q-381 -165 -664 -399q-243 -199 -374 -406q-106 -168 -129 -309q-7 -44 -7 -76q0 -44 11 -84q19 -77 73 -121
t138 -47h172q32 0 53 -8q8 -2 20 -10q4 -4 4 -6v-4q-2 -5 -10 -9q-8 0 -12 2q-20 4 -59 4q-28 0 -82 -4q-5 0 -16.5 -1t-16.5 -1q-54 0 -129 21q-164 55 -191 227q-4 20 -4 60q0 92 41 200q56 152 176 301q169 216 449 414q393 270 825 408q119 38 238 53q36 4 53 4
q21 0 53 -4q55 -6 85 -41t32 -92q0 -34 -18 -86q-20 -57 -68 -131q-75 -115 -274 -367q-44 -54 -144 -177t-156 -192.5t-136.5 -173.5t-145.5 -192q-163 -223 -240 -357q-34 -58 -51 -98z" />
    <glyph glyph-name="O" unicode="O" horiz-adv-x="1884" 
d="M0 -127q6 142 53 287q83 258 254 538q150 243 340 451q180 202 344 326q73 55 156 96q50 21 88 28q25 5 29 5q28 0 53 -19q11 -8 20 -8t21 6q134 72 264 94q64 11 104 11q48 0 105 -13q90 -23 146.5 -87t66.5 -154q4 -36 4 -58q0 -74 -33 -190q-51 -163 -172 -350
q-107 -163 -287 -373q-146 -167 -335 -346q-264 -251 -514 -418q-122 -76 -201 -113q-101 -47 -197 -55h-24q-98 0 -169.5 54t-97.5 145q-18 64 -18 143zM1229 1509q-5 -2 -14.5 -6t-14.5 -6q-75 -37 -184 -117q-183 -139 -373 -352q-291 -330 -461 -696
q-116 -244 -131 -443q-4 -36 -4 -55q0 -90 37 -160q52 -109 176 -112q75 0 160 30q98 35 231 119q255 161 539 428q225 212 393 410q195 237 293 409q100 183 129 334q10 52 10 92q0 53 -14 99q-19 73 -76 110q-53 39 -125 45q-18 2 -57 2q-166 0 -361 -100q-20 -11 -20 -35
v-10q0 -15 -4 -47q-4 -12 -10 -14h-5q-4 0 -16 8q-3 4 -8 31q-6 20 -10 20q-3 0 -19 -8q-4 -4 -6 -4q-267 -189 -391 -451q-57 -124 -62 -223q-2 -18 -2 -55q0 -168 64 -338q41 -95 90 -144q47 -47 102 -47q13 0 19 -2q16 -4 16 -14q-2 -10 -18 -10q-59 3 -98 26
q-41 25 -82 80q-41 54 -72 135q-42 118 -57 250q-5 36 -5 84q0 118 39 225q71 189 228 355q63 68 174 157z" />
    <glyph glyph-name="P" unicode="P" horiz-adv-x="2605" 
d="M526 -166q-12 0 -28 -8q-277 -102 -455 -137q-16 -4 -23 -4h-6q-12 4 -12 12v4q0 6 8 10q7 4 29 8q210 46 514 166q24 9 37 29q201 291 360 504q8 11 8 22q0 7 -4 23q-26 69 -69 160q-44 94 -56 161q-8 36 -8 82q0 110 60 221q77 142 235 273q219 177 541 303
q241 95 491 135q154 23 281 23q32 0 102 -4q196 -10 344 -70q83 -33 144 -82q107 -84 116 -221v-17q0 -81 -47 -167q-67 -119 -182 -220q-187 -169 -469 -323q-380 -212 -1016 -504q-131 -60 -430 -188q-31 -14 -43 -37q-75 -153 -235 -342q-127 -152 -318 -334
q-79 -79 -135 -119q-15 -12 -35 -22q-14 -7 -22 -7q-13 0 -25 9q-12 7 -12 24q0 9 4 21q13 47 57 125q21 38 45.5 79.5t43.5 72.5t49 78.5t45.5 70.5t50.5 77t47 72q20 30 24 41h-6zM991 477q5 1 8.5 4.5t7.5 10t5 8.5q231 300 426 530q346 402 372 432q13 16 29 27
q6 4 16 4q11 0 17 -4q26 -15 26 -45q0 -8 -2 -12q-4 -17 -12 -17q-5 0 -8.5 -1.5t-7 -4.5t-5.5 -5t-5.5 -6.5t-4.5 -6.5q-10 -14 -29.5 -40t-29.5 -40q-73 -91 -214 -252t-179 -205q-250 -294 -369 -444q-14 -21 -14 -37q0 -2 1 -6.5t1 -6.5q0 -1 6 -53v-31q0 -92 -31 -180
q-4 -12 -4 -16q0 -8 4 -12q7 3 21 8.5t20 7.5q637 278 1178 563q268 146 418 250q212 148 325 277q94 108 127 204q13 41 13 72q0 81 -68 149q-58 58 -160 101q-138 57 -327 67q-98 5 -115 5q-131 0 -285 -23q-244 -42 -461 -127q-308 -121 -516 -287q-166 -139 -243 -278
q-58 -107 -58 -217v-21q5 -81 47 -176q12 -26 35 -77t35 -77q3 -10 10 -12zM217 -782q17 4 31 18q127 115 131 119q156 150 295 311q127 151 200 279q15 20 15 30q-2 2 -6 2q-7 0 -15 -4q-130 -56 -204 -84q-33 -13 -50 -39q-116 -163 -233 -344q-94 -148 -143 -243
q-9 -21 -21 -45zM682 -55q8 -4 10 -4l4 2l209 86q20 8 29 30q49 110 55 234q0 27 -10 49q-178 -232 -297 -397z" />
    <glyph glyph-name="Q" unicode="Q" horiz-adv-x="2066" 
d="M1933 1653q96 0 174 -41q134 -66 156 -221q2 -14 2 -45q0 -79 -35 -179q-62 -169 -205 -350q-175 -225 -481 -493q-260 -219 -538 -412q-249 -170 -445 -254q-118 -51 -225 -59q-4 0 -13.5 -1t-13.5 -1q-93 0 -160.5 51t-85.5 151q-8 39 -8 86q0 69 19 140
q38 171 143 362q172 320 463 645q259 289 555 522q100 81 203 134q7 3 51 20q6 2 20 2q31 0 50 -29q8 -11 8 -26q0 -33 -25 -45q-1 0 -3 -1t-3 -1q-2 0 -4.5 1t-3.5 1q-8 8 -17 8q-6 0 -26 -10q-87 -53 -232 -162q-222 -168 -426 -375q-269 -269 -450 -541
q-154 -230 -223 -417q-50 -141 -50 -252v-33q3 -65 31 -111q39 -74 127 -86q32 -4 47 -4q37 0 99 15q87 19 186 67q199 96 446 271q303 215 545 432q306 271 473 516q112 164 150 299q20 64 20 137v20q-6 137 -139 191q-74 31 -170 31q-51 0 -78 -4q-281 -34 -545 -250
q-146 -124 -301 -314q-227 -282 -370 -538q-90 -162 -133 -299q-21 -75 -21 -133v-11q0 -76 45 -129q0 -1 5 -6.5t5 -9.5t-4 -8q-2 -2 -6 -2q-6 0 -18 12q-60 66 -60 160v20q7 114 80 279q109 237 299 501q208 289 379 453q221 214 477 291q126 35 219 35h41zM1454 -201
q6 2 23 2q19 0 59 -4q27 -5 35 -14q6 -6 6 -12v-4q-5 -9 -16 -9q-50 4 -70 4q-62 0 -135.5 -12t-119 -23.5t-130.5 -35.5q-441 -121 -825 -307q-120 -60 -187 -113q-27 -20 -32 -34q-3 -7 -3 -15q0 -10 -12 -10h-8q-33 10 -33 43q0 10 2 16q3 11 25 37q45 47 145 98
q85 46 277 121q378 148 692 223q154 34 248 45q10 1 29 2t30 2z" />
    <glyph glyph-name="R" unicode="R" horiz-adv-x="2170" 
d="M1802 1772q321 0 561 -64q128 -32 230 -90q76 -44 117 -90q57 -69 57 -152q0 -62 -35 -121q-41 -64 -117 -127q-76 -61 -198 -129q-245 -132 -615 -258q-396 -131 -891 -231q-61 -12 -67 -15.5t-45 -50.5q-21 -26 -31 -32q-27 -24 -27 -68v-12q0 -19 3.5 -24t23.5 -11
q22 -5 66 -15.5t65 -15.5q318 -79 709 -203q490 -150 827 -286q168 -69 264 -125q34 -18 74 -49q8 -6 16 -17q9 -9 9 -14q0 -3 -7 -10q-2 -2 -6 -2q-6 0 -12 6q-41 32 -95 61.5t-88.5 44.5t-103.5 43q-295 124 -710 252q-493 156 -918 258q-7 1 -106 23q-6 2 -15 2
q-8 0 -16 -19q-50 -169 -203 -354q-140 -169 -297 -299q-24 -21 -57 -41q-15 -9 -31 -12q-2 0 -5 -1t-5 -1q-15 0 -25 12t-10 27v4q5 23 18 49q37 77 117 190q138 198 334 445q16 22 16 26q0 8 -30 13q-127 25 -381 61q-17 3 -53 7.5t-54 7.5q-33 4 -43 18q-6 9 -6 18
q0 14 19 17q19 2 56.5 6t55.5 6q184 19 473 68q21 3 54 10q14 3 14 12q0 6 -2 10q-17 34 -27 48q-33 59 -84 110q-109 109 -162 164q-63 63 -100 133q-35 63 -35 133q0 83 60 168q67 93 184 166q170 109 455 197q238 71 501 102q186 21 304 21h30zM897 557q8 -2 12 -2
q456 95 813 213q354 120 607 252q170 88 268 170q84 66 117 133q16 32 16 59q0 32 -23 70q-22 41 -75 80q-75 58 -199 102q-235 78 -547 88h-57q-52 0 -158 -4q-144 -5 -317 -32q-361 -56 -649 -187q-159 -71 -269 -168q-78 -72 -112 -151q-17 -46 -17 -80q0 -29 4 -43
q15 -73 78 -146q21 -26 44.5 -50.5t63 -63t48.5 -47.5q113 -113 157 -211q10 -19 25 -19h6q61 8 80 39q5 8 35 43q259 303 565 625q39 42 83 88t98 101.5t83 86.5q39 41 113 123q12 12 22 12q12 0 25 -16q12 -15 12 -31q0 -15 -12 -30q-28 -45 -123 -148
q-65 -68 -190.5 -193.5t-180.5 -181.5q-228 -239 -368 -393q-62 -67 -78 -88zM139 -428q19 10 45 31q183 151 320 327q115 146 166 281q2 5 12 35q0 1 1 3t1 3q0 8 -14 12q-4 2 -11 2q-12 0 -30 -18q-162 -199 -254 -322q-130 -164 -209 -299q-22 -36 -27 -55zM240 399
q1 -2 14 -8l203 -31q21 -4 65.5 -12t65.5 -12q3 0 7.5 -1t6.5 -1q25 0 39 20q39 49 49 60q8 11 8 24t-4 19q-5 10 -16 10q-2 0 -7.5 -1t-8.5 -1l-105 -19q-141 -24 -317 -47z" />
    <glyph glyph-name="S" unicode="S" horiz-adv-x="1540" 
d="M2150 1599q-187 0 -421 -53q-346 -78 -703 -243q-298 -133 -561 -312q-171 -118 -270 -219q-62 -62 -93 -115q-19 -39 -24 -65q-2 -8 -2 -23q0 -44 41 -67q37 -19 96 -37q104 -27 268 -49q41 -6 181.5 -26.5t232 -36.5t180.5 -36q131 -28 221 -75q64 -31 101 -92
q20 -33 20 -70q0 -38 -24 -78q-37 -58 -111 -111q-118 -83 -301 -157q-279 -116 -551 -166q-96 -17 -139 -17q-25 0 -60 7q-55 11 -79 43q-17 20 -17 41q0 10 8 30q18 34 54 56q32 25 96 51q260 106 463 145q52 9 98 15q4 0 11.5 1t11.5 1q24 0 45 -9q12 -8 12 -14v-2
q0 -10 -16 -10q-28 0 -58.5 -3t-53.5 -6t-57.5 -11t-52 -12.5t-56.5 -17t-51 -16.5t-55.5 -19t-52.5 -18q-110 -37 -198 -86q-44 -21 -70 -47q-12 -12 -18 -20q-11 -14 -11 -27q0 -19 31 -22q18 -2 57 -2q47 0 72 4q161 22 379 94q217 73 373 160q126 70 196 133
q44 44 58 71q12 27 12 48q0 34 -35 59q-32 24 -96 51q-123 42 -293 70q-93 17 -265.5 40t-223.5 31q-146 21 -244 52q-93 29 -139 75q-52 49 -52 105q0 30 15 67q23 52 73 109q68 80 181 168q205 163 489 315q350 187 692 295q285 92 523 119q68 8 153 8q93 0 154 -12
q43 -8 90 -31q41 -19 64.5 -54.5t23.5 -78.5q0 -48 -29 -90q-40 -55 -108 -113q-104 -86 -301 -198q-307 -171 -623 -279q-137 -47 -258 -61q-20 -4 -63 -4q-14 0 -31 10q-8 8 -8 16q2 8 16 8q94 3 184.5 27t212.5 68q418 158 723 364q93 65 152 119q32 27 67 78
q15 23 23 41q4 20 4 26q0 26 -29 43q-26 17 -63 27q-79 20 -168 20h-23z" />
    <glyph glyph-name="T" unicode="T" horiz-adv-x="1316" 
d="M178 1589q298 -9 410 -22q10 -2 28 -2h215q128 0 191 -2q124 -3 353 -4t323 -3q42 0 65 21q17 14 27 14q12 0 31 -22q17 -17 39 -17h90q119 0 339 -3.5t289 -4.5q123 -2 369 -14q144 -7 236 -19q10 0 26 -4q15 -4 15 -14v-4q-2 -10 -21 -10q-1 0 -68 6q-33 5 -147 10
q-51 2 -153.5 5t-153.5 5q-123 3 -261 4t-306.5 1t-260.5 1q-50 0 -79 -34q-76 -84 -240 -240q-123 -119 -358 -358q-66 -66 -127 -172q-100 -169 -283 -390q-160 -188 -387 -419q-24 -26 -232 -228q-19 -22 -51 -43q-8 -8 -18 -8q-8 0 -12 4q-11 11 -11 23q0 8 2 12
q2 3 29 47q89 120 231 295q255 316 496 590q96 109 279 311q19 22 28 49q27 89 27 160q0 36 -6 74q-23 143 -156 227q-105 66 -270 98h-43q-45 2 -140 2h-139q-103 0 -250 7q-65 4 -98 10q-24 7 -33 20q-6 9 -6 17q0 15 19 18q50 4 77 6h76zM870 1509l36 -18t38.5 -19
t34 -18.5t35.5 -23.5q66 -48 112 -117q41 -67 54 -152q4 -18 4 -53q0 -16 -1 -34.5t-2.5 -40t-2.5 -34.5q42 44 126 129t126 129q41 42 127 125t129 127h-816zM215 -201q8 4 15 8.5t15.5 12.5t10.5 10q238 231 438 465q162 187 260 336q5 10 13 22q-384 -401 -752 -854z" />
    <glyph glyph-name="U" unicode="U" horiz-adv-x="3018" 
d="M3027 1008q-17 -15 -54 -46.5t-57 -48.5q-88 -76 -274.5 -234t-282.5 -241q-352 -300 -530 -450q-17 -15 -94.5 -80.5t-103.5 -88t-92 -77.5t-104.5 -87t-93.5 -75.5t-104 -81.5q-118 -91 -190 -125q-42 -22 -82 -22q-34 1 -54.5 21.5t-23.5 54.5v10q0 32 16 86
q29 86 107 223q62 108 168 258q12 18 12 23q-6 6 -23 6h-45q-66 0 -231 -13q-80 -8 -238 -8h-121q-60 0 -159 15q-147 22 -236 77q-119 75 -133 203q0 4 -1 11.5t-1 11.5q0 43 18 102q38 134 150 273q155 196 416 387q317 234 723 413q312 139 594 201q130 28 276 41
q5 0 14.5 1t14.5 1q57 0 129 -20q57 -17 85.5 -56.5t28.5 -91.5q0 -13 -4 -41q-11 -62 -65 -149q-80 -127 -217 -285q-59 -68 -214 -247.5t-239 -276.5q-267 -315 -409 -508q-161 -211 -259 -379q-68 -115 -96 -205q-12 -40 -12 -68v-10q3 -24 16 -24q2 0 6.5 1t6.5 1
q19 2 51 18q66 32 155 96q149 108 449 359q412 345 459 385q212 177 481 407q116 96 373 318q65 56 181.5 160t145.5 129q16 15 42 42t32 33q63 68 144 140q6 5 19 15t19 15q14 9 21 9q5 0 14 -9q8 -8 8 -22q0 -10 -6 -19l-24 -24q-453 -453 -766 -877q-375 -504 -692 -1038
q-74 -124 -127 -240l-6 -12t-6 -12.5t-5.5 -12t-5.5 -13t-4.5 -11.5t-5 -13t-3.5 -12.5t-3 -13.5t-1.5 -13t-0.5 -14v-6q0 -6 -7 -10h-4l-8 4q-8 10 -8 35q2 23 18 78q51 124 148 290q269 466 690 1059q142 202 291 379q4 8 4 12v7zM49 317q3 -119 98 -184q37 -24 78 -39
q118 -42 254 -45q35 -2 103 -2q116 0 192 12q45 6 130.5 11t99.5 6q20 2 61 2q69 0 121 -8h10q33 0 51 26q181 249 381 486q85 102 256 302.5t256 301.5q140 167 207 274q49 80 57 131q2 8 2 21q0 29 -30 45q-30 21 -78 31q-75 10 -135 10q-55 0 -111 -6q-151 -17 -371 -84
q-531 -170 -997 -494q-233 -161 -405 -348q-123 -137 -179 -254q-48 -98 -51 -195z" />
    <glyph glyph-name="V" unicode="V" horiz-adv-x="1232" 
d="M950 1585q-45 -68 -53 -82q-184 -277 -362 -631q-265 -533 -429 -1087q-38 -120 -53 -240q-2 -10 -2 -30q0 -16 8 -21q1 0 2 -1t2 -1q7 0 17 10q49 49 72 76q49 59 258 334q287 376 532 657q144 163 277 299q201 201 260 256q304 288 569 516q233 201 410 332
q21 16 106 72q35 21 66 29q16 4 22 4q10 0 14 -2q11 0 11 -11q0 -10 -11 -10q-16 -3 -33 -9t-29 -11.5t-29.5 -16.5t-25.5 -16.5t-27.5 -20t-24.5 -18.5q-131 -93 -322 -258q-152 -128 -410 -363q-255 -237 -411 -395q-290 -296 -529 -588q-200 -243 -471 -604
q-6 -8 -34.5 -45.5t-39.5 -51.5t-33.5 -42.5t-41.5 -49.5t-39 -42q-21 -24 -45 -45q-26 -22 -47 -27q-6 -2 -19 -2q-47 0 -53 53v15q0 38 10 90q31 153 119 430q185 572 436 1057q166 327 328 555q30 42 59 67q19 19 33 19q12 0 21 -6q28 -19 28 -43q0 -11 -2 -17
q-4 -17 -22 -84q-17 -53 -35 -133q-4 -24 -4 -37q0 -4 1 -12t1 -12v-5q0 -10 -8 -10q-1 0 -4 1t-5 1q-24 11 -24 41v13q0 27 8 77q8 47 14 72q-4 4 -6 4z" />
    <glyph glyph-name="W" unicode="W" horiz-adv-x="2226" 
d="M1640 1200q-11 -6 -31.5 -19.5t-31.5 -19.5q-135 -88 -336 -250q-200 -163 -367 -319q-155 -146 -387 -385q-55 -57 -156 -167.5t-143 -154.5l-61 -61q-30 -25 -45 -35q-17 -10 -33 -10t-29 8q-18 11 -18 39v14q2 28 31 135q53 165 153 387q180 399 381 723
q166 275 344 496q54 66 82 94q13 13 21 17q15 12 28 12q10 0 21 -8q27 -18 27 -41q0 -9 -3 -15q-5 -13 -28 -67q-42 -83 -66 -150q-3 -8 -8 -23.5t-8 -25t-5.5 -22.5t-2.5 -25q0 -9 4 -29v-4q0 -8 -10 -8h-7q-18 8 -28 31q-4 10 -4 31q0 18 2 26q4 31 24 94q6 15 6 33
l-55 -67q-271 -353 -493 -764q-183 -333 -291 -615q-46 -115 -62 -192q-4 -12 -4 -21q0 -4 4 -12q1 0 3 -1t3 -1q5 0 15 10q31 26 104 99l142 153q263 277 471 477q400 376 766 635q88 56 94 60q30 12 33 12q10 0 20 -10q20 -20 20 -39q0 -5 -4 -21q-17 -42 -28 -57
q-77 -124 -195 -307q-238 -377 -369 -715q-79 -204 -104 -363q-12 -64 -12 -129q0 -49 8 -90q8 -42 33 -84q26 -39 63 -39q14 0 43 11q59 27 127 102q126 137 293 412q58 95 170 288.5t170 288.5q198 331 492 703q198 252 311 379q130 149 217 221q15 12 35 22q1 0 4 1t4 1
q9 0 12 -8q2 -2 2 -6t-8 -12q-61 -47 -127 -115.5t-101.5 -111.5t-107.5 -132q-330 -403 -549 -739q-144 -220 -346 -575q-189 -331 -315 -506q-86 -116 -154 -181q-70 -63 -135 -75q-10 -2 -31 -2q-87 0 -131 77q-37 63 -37 158v29q0 122 41 266q57 223 189 508
q156 341 432 733q4 5 11 16.5t11 16.5v10z" />
    <glyph glyph-name="X" unicode="X" horiz-adv-x="1380" 
d="M977 815q17 16 45 42t35 32q366 340 743 639q339 265 553 391q120 75 227 111q24 6 25 6h6q14 0 17 -11q2 -2 2 -8q0 -8 -17 -12q-13 -6 -39.5 -16.5t-40.5 -16.5q-144 -66 -348 -209q-286 -201 -651 -516q-247 -211 -518 -469l-7 -7q-24 -30 -26 -42q0 -5 4 -33
q79 -536 230 -972q47 -135 104 -224q48 -73 102 -94q13 -9 13 -14v-2q-6 -11 -21 -11q-33 7 -51 23q-36 23 -64 59q-61 80 -120 236q-110 295 -191 676q-30 141 -57 282q-2 6 -2 17q-3 8 -8 8t-9 -4q-6 -4 -16 -14q-425 -425 -725 -961q-19 -34 -54.5 -100.5t-54.5 -100.5
q-10 -13 -10 -30v-13q0 -8 -12 -8h-4q-15 0 -24 10t-9 25q0 8 2 12q16 51 53 127q137 291 375 604q204 263 440 490q35 30 35 71q0 15 -2 23q-16 90 -28 274q-7 115 -7 199q0 26 1 80t1 80q3 144 27 285q5 27 10 38q6 17 21 17q8 0 12 -2q35 -11 35 -47q-1 -22 -4 -67.5
t-4 -68.5q-8 -92 -10 -143q-9 -129 -9 -256q0 -109 2 -162q1 -36 6.5 -105t6.5 -89q6 -22 10 -29z" />
    <glyph glyph-name="Y" unicode="Y" horiz-adv-x="2492" 
d="M2998 1651q-7 0 -24 -13q-94 -58 -277 -192q-287 -208 -727 -545q-168 -127 -776 -606q-246 -197 -383 -293q-82 -60 -143 -90q-36 -16 -58 -16h-8q-33 0 -53.5 18.5t-20.5 50.5q0 2 1 7t1 8q5 41 25 92q54 127 133 252q84 138 160 245q8 12 10 21h-12q-24 0 -70 -8
q-206 -34 -289 -43q-72 -7 -120 -7q-66 0 -142 13q-55 10 -92 28q-58 28 -89.5 77t-31.5 112q0 13 4 41q14 79 62 160q84 147 252 301q254 227 626 409q284 141 545 205q102 25 178 25q54 -3 85.5 -32.5t31.5 -78.5q0 -11 -4 -35q-11 -56 -49 -117q-15 -25 -30 -49
t-37.5 -54.5t-32 -43.5t-39.5 -52.5t-35 -45.5q-82 -108 -239 -301.5t-222 -276.5q-280 -360 -422 -600q-65 -110 -98 -205q-10 -45 -10 -53q0 -22 14 -22q1 0 3.5 1t4.5 1q11 1 45 16q72 36 186 119q225 164 615 471q553 430 1042 792q344 254 473 342q42 30 66 41
q12 6 25 6q28 0 28 -38v-5q-2 -16 -20 -53q-33 -55 -107 -153q-143 -191 -493 -637q-215 -269 -488 -604q-35 -44 -215 -259q-2 -3 -7 -9t-7 -9q-8 -12 -8 -14q0 -5 16 -8q29 -4 43 -13q4 -4 4 -10v-4q-4 -4 -8 -4h-4q-1 0 -18 2t-25 4q-2 0 -7 1t-7 1q-26 0 -46 -23
q-67 -77 -135 -147q-184 -192 -307 -281q-94 -69 -166 -102q-79 -33 -129 -33q-21 0 -31 2q-50 7 -79 40t-29 79q0 27 4 39q16 71 82 141q85 90 215 146q256 111 485 151q61 11 99 58q156 186 438 544q516 654 704 895q25 33 77 99.5t77 99.5q14 19 14 29h-4zM358 571
q79 0 246 25q24 3 114.5 16.5t139.5 16.5q31 0 51 26q52 74 118 162t106 139t129.5 164t113.5 144q22 28 66 82.5t71.5 88t63.5 81.5t65 90q69 95 97 161q10 27 10 41q0 18 -14 27t-45 12h-60q-54 0 -131 -18q-421 -101 -835 -367q-248 -155 -418 -344q-105 -117 -154 -223
q-37 -76 -37 -154v-10q6 -85 78 -125q24 -13 57 -20q61 -15 152 -15h16zM1612 -102q-350 -74 -574 -209q-77 -46 -139 -127q-43 -55 -51 -113v-14q0 -31 18.5 -50t51.5 -20h10q45 0 116 29q79 37 170 108q137 104 328 312q5 6 18.5 19.5t20 21t16 19.5t15.5 24z" />
    <glyph glyph-name="Z" unicode="Z" horiz-adv-x="2648" 
d="M434 -401q120 0 197 -7q3 0 9 -1t9 -1h35q69 0 213 -8q55 -2 116.5 -5t136.5 -7t116 -6q43 -3 135.5 -9.5t142.5 -9.5q37 -3 103.5 -8.5t121.5 -10.5t103 -11q104 -13 199 -21q30 -4 43 -8q14 -4 14 -16v-5q-2 -12 -21 -12q-40 4 -63 6q-192 21 -391 33q-165 12 -322 21
q-48 2 -145.5 6t-145.5 6q-218 12 -542 12q-49 0 -148.5 -1t-148.5 -1q-88 0 -133 2q-35 0 -52 25q-10 17 -10 24q0 14 19 23q16 9 45 20q360 143 465 185q544 227 968 448q167 88 330 180q15 10 16 15q-4 4 -14 4h-8q-27 0 -83 1t-83 1q-78 0 -234 -4q-108 -4 -155 -19
q-1 0 -4 -1t-4 -1q-12 0 -19 15q-2 4 -2 12q0 10 6 16q11 11 29 15q62 12 92 12q28 0 86 1t86 1q82 0 246 -4q18 0 56.5 -2t58.5 -2q33 0 55 12q227 137 399.5 252.5t325.5 243.5q81 70 135.5 125t95.5 120q45 70 56 121q4 14 4 41q0 63 -47 119q-52 59 -166 106
q-135 51 -303 64q-98 8 -148 8q-34 0 -96 -4q-451 -19 -795 -194q-147 -77 -233 -168q-45 -45 -74 -93q-35 -59 -35 -125v-16q3 -53 37 -90q66 -66 176 -86q54 -10 129 -10q115 0 250 33q152 38 268 96q15 6 33 12q4 2 10 2q13 0 19 -12q2 -4 2 -8q0 -11 -16 -19
q-115 -58 -213 -88q-183 -59 -349 -59h-41q-154 7 -252 82q-92 73 -92 182q0 26 11 72q20 68 86 145q87 96 221 170q222 124 536 186q204 39 428 39q80 0 119 -2q196 -10 340 -67q63 -26 111 -60q121 -83 121 -221q0 -39 -13 -86q-20 -72 -80 -156q-75 -102 -223 -225
q-202 -170 -553 -383q-6 -4 -42.5 -26.5t-57.5 -34.5q13 -11 37 -11q116 -5 260 -32q7 -1 31 -11q12 -8 12 -14q0 -1 -1 -3t-1 -3q-2 -10 -10 -10q-2 0 -5.5 1t-5.5 1q-43 8 -129 20q-174 17 -243 17q-22 0 -48 -15q-232 -133 -526 -282q-436 -214 -909 -410
q-170 -68 -336 -135q-2 -1 -8 -3t-10 -4.5t-7 -6.5h291z" />
    <glyph glyph-name="bracketleft" unicode="[" horiz-adv-x="1341" 
d="M317 -129q-77 0 -229 16q-18 3 -39 13q-39 20 -39 61q0 16 6 31q10 28 39 69q102 145 260 351q184 243 392 493q109 128 268 309q12 13 36 40.5t36 41.5q35 44 88 50q9 0 27.5 1t27.5 1q26 0 70 -7q40 -7 55 -36q4 -8 4 -15q0 -4 -2 -8q-4 -4 -8 -4q-1 0 -13 6
q-18 10 -45 10h-67q-60 0 -97 -49q-47 -63 -131 -162q-43 -49 -129 -146t-129 -146q-285 -331 -477 -584q-10 -14 -45 -59.5t-57 -76t-41 -63.5q-19 -39 -21 -43q-1 -2 -2 -5l-1.5 -4.5t-0.5 -2.5q0 -13 21 -16q45 -12 121 -19q122 -16 190 -16q7 0 21.5 1t21.5 1h12
q19 -4 19 -19q0 -14 -19 -14h-123z" />
    <glyph glyph-name="backslash" unicode="\" horiz-adv-x="2056" 
d="M2 1362q2 19 14 31t29 12q6 0 18 -4q7 -2 68 -29q233 -118 453 -278q647 -455 1089 -840q184 -157 324 -315q13 -10 33 -35q4 -4 4 -13q0 -10 -4 -14q-12 -8 -17 -8q-6 0 -12 6l-19 19q-6 6 -18 19t-18 19q-165 173 -369 338q-394 329 -846 641q-275 189 -659 392
q-9 5 -28 16t-28 16q-14 11 -14 23v4z" />
    <glyph glyph-name="bracketright" unicode="]" horiz-adv-x="1343" 
d="M979 1348q123 0 256 -19q27 -4 39 -12q39 -17 39 -60q0 -14 -6 -32q-7 -17 -39 -70q-93 -132 -260 -350q-220 -288 -392 -494q-109 -128 -268 -309q-49 -52 -72 -82q-39 -42 -88 -47q-16 -2 -51 -2q-37 0 -74 6q-41 7 -57 37q-4 8 -4 12t4 8q2 5 8 5q3 0 13 -5
q18 -10 45 -10h73q56 0 91 47q65 87 131 162l258 295q243 278 477 584q106 136 141 196q18 32 23 43q2 6 2 13q0 12 -19 18q-39 10 -121 18q-158 15 -190 15q-7 0 -21.5 -1t-21.5 -1q-8 0 -12 2q-19 4 -19 18q0 10 19 15h96z" />
    <glyph glyph-name="asciicircum" unicode="^" horiz-adv-x="376" 
d="M180 1503q22 0 41 -16q27 -27 39 -41q24 -28 76 -92q12 -18 12 -19q0 -4 -6 -10q-4 -4 -8 -4q-7 0 -21 14q-3 3 -84 78q-19 19 -26 19q-8 0 -27 -13q-14 -8 -28 -18.5t-32 -24.5t-28 -22q-5 -3 -15.5 -10.5t-15.5 -10.5q-12 -4 -16 -4q-22 0 -35 19q-4 8 -4 12q0 6 4 10
q4 6 12 14q50 48 115 99q28 20 47 20z" />
    <glyph glyph-name="underscore" unicode="_" horiz-adv-x="894" 
d="M637 31q88 0 190 -13q33 -4 41 -22q2 -4 2 -10q0 -15 -18 -15q-37 0 -57 2q-36 4 -58 4q-19 0 -59 -4q-7 0 -20 -1t-19 -1q-65 0 -268 -18q-40 -3 -85 -8t-98.5 -12.5t-83.5 -10.5q-20 -4 -59 -4q-15 0 -26.5 10t-16.5 25v4q0 22 27 37q31 14 96 18q254 14 340 15
q86 4 133 4h39z" />
    <glyph glyph-name="grave" unicode="`" horiz-adv-x="323" 
d="M223 1329q-21 3 -39 12q-112 64 -153 93q-9 6 -19 16q-8 8 -8 16q0 12 10 19q12 12 25 12q8 0 20 -6q15 -10 37 -21q99 -47 176 -67q25 -6 25 -21q0 -8 -12 -20q-27 -30 -62 -33z" />
    <glyph glyph-name="a" unicode="a" 
d="M209 584q-8 -4 -24.5 -13.5t-24.5 -13.5q-16 -9 -56.5 -30.5t-62.5 -34.5q-31 -13 -45 -15h-8q-20 0 -32.5 12t-12.5 31q0 7 4 19q2 9 12 22q41 65 107 105q42 20 71 20q39 0 72 -29q8 -8 18 -8t21 8q18 13 52 36t44 30q9 6 18 6q12 0 23 -14q6 -9 6 -17q0 -10 -8 -18
l-49 -49q-54 -54 -92 -109q-2 -3 -7.5 -9.5t-8.5 -12.5t-3 -11q0 -2 4 -10q3 -6 11 -6q4 0 15 3.5t15 4.5q48 12 97.5 27t120.5 38.5t96 31.5l135 43q12 4 18 4t8 -2q11 -4 11 -11v-4q0 -4 -9 -8q-4 -4 -16 -8q-250 -86 -373 -129q-74 -25 -108 -29h-10q-16 0 -31 6
q-35 15 -35 47q0 17 4 25q9 26 37 66q-1 1 -2 3t-2 3zM12 526q49 21 102.5 51.5t65.5 45.5q-4 2 -14 2q-31 0 -75 -28t-79 -71z" />
    <glyph glyph-name="b" unicode="b" horiz-adv-x="751" 
d="M-63 475q8 1 34 14q184 118 342 177q66 26 127 34q6 2 19 2q19 0 39 -10q28 -19 28 -55q0 -10 -2 -16q-4 -14 -10 -27q0 -2 -12 -25q6 -6 10 -6q2 0 10 4q171 43 217 49q10 2 29 2q14 0 20 -2q17 -4 17 -14q-2 -10 -19 -10q-37 -1 -81 -9.5t-72 -16t-81.5 -24
t-72.5 -22.5q-12 -2 -28 -18q-206 -227 -492 -389q-85 -52 -162 -76q-42 -10 -76 -10h-16q-19 0 -29 4q-49 15 -49 61q0 19 8 35q18 38 68 80q69 58 170 115q110 62 309 135q145 51 201 67q33 8 55 39q4 5 15.5 20.5t18 26.5t11.5 23q6 12 6 18q0 11 -24 11h-14
q-30 0 -113 -27q-131 -46 -311 -158q-108 -68 -195 -141q-17 -14 -29 -14q-6 0 -18 8q-6 6 -6 12q0 10 18 31q66 78 195.5 233.5t195.5 233.5q155 182 351 401q296 323 467 490q30 35 65 65q12 12 21 12q6 0 12 -6q12 -9 12 -22q0 -11 -8 -19q-40 -47 -84 -90
q-55 -52 -92 -119q-8 -12 -14 -12h-5q-4 2 -10 2q-5 0 -8 -2t-7.5 -6t-6.5 -6q-48 -49 -283 -299q-45 -49 -270 -299q-195 -227 -316 -365q-4 -4 -75 -90zM362 481q-5 -1 -9.5 -2.5t-6.5 -1.5q-277 -94 -434 -180q-111 -62 -178 -119q-43 -34 -62 -69q-10 -17 -10 -27
q0 -20 37 -23h10q37 0 92 19q59 22 125 59q184 108 367 273q13 11 36.5 36.5t32.5 34.5z" />
    <glyph glyph-name="c" unicode="c" horiz-adv-x="458" 
d="M-72 465q19 1 68 16q63 19 188.5 58t188.5 59q30 9 80 20q20 5 22 5q11 0 14 -11v-4q0 -2 -8 -10q-2 -1 -6 -2t-6 -2q-110 -31 -432 -141q-67 -23 -86 -27q-8 -2 -25 -2t-32 6q-21 12 -21 31q0 12 4 20q4 12 21 33q84 102 217 188q29 18 51 23h8q24 0 45 -25q8 -11 8 -22
q0 -16 -8 -27q-6 -14 -18 -14q-13 0 -19 14q-5 13 -14 13q-6 0 -16 -7q-55 -31 -123 -88q-45 -36 -72 -63q-1 -2 -12.5 -16t-16.5 -25z" />
    <glyph glyph-name="d" unicode="d" horiz-adv-x="724" 
d="M659 973q-28 -23 -84 -71.5t-83 -72.5q-175 -146 -185 -155q-20 -17 -139 -111q-58 -48 -139 -108q-8 -6 -17.5 -12.5t-21 -13.5t-17.5 -11q-22 -13 -32 -15q-2 0 -6.5 -1t-6.5 -1q-22 0 -35.5 14t-13.5 36q0 2 1 6t1 6q7 25 19 43q76 119 200 190q33 17 70 23q8 2 23 2
q26 0 55 -16q10 -7 18 -7q12 0 21 9q114 95 225 186q179 150 600 518q52 46 155.5 139.5t155.5 139.5q23 21 71.5 61.5t72.5 60.5q7 7 16 13q8 8 16 8q7 0 13 -6q8 -12 8 -21q0 -10 -4 -14q-6 -10 -21 -25q-30 -26 -91.5 -80.5t-92.5 -80.5q-195 -171 -293 -263
q-59 -55 -167 -157t-134 -127q-89 -87 -307 -314q-125 -129 -367 -391q-219 -242 -338 -393q-42 -53 -61 -90q-9 -14 -16 -14q-5 0 -7 2q-8 5 -8 14q0 2 1 5t1 5q9 20 27 49q57 78 98 127q177 215 387 441q218 239 381 407l56 62q0 1 -2 2t-3 2zM221 666q-60 0 -158.5 -75
t-117.5 -136q123 73 282 211h-6z" />
    <glyph glyph-name="e" unicode="e" horiz-adv-x="571" 
d="M-25 424q-28 0 -47 16q-22 16 -22 39q0 15 4 23q11 29 24 45q76 89 168 131q25 13 52 16q6 2 16 2q16 0 29 -8q26 -14 26 -37q0 -18 -18 -33q-55 -52 -131 -77q-20 -4 -31 -4q-10 0 -16 2q-4 2 -11 2t-22 -11q-25 -30 -35 -45q-2 -4 -2 -10q0 -10 16 -10q19 0 37 6
q38 9 81 20.5t95 26.5t80 23q201 56 289 73q18 5 45 9h6q12 0 15 -11v-2q0 -10 -17 -14l-129 -31q-80 -22 -227 -69t-178 -56q-50 -16 -78 -16h-19zM164 643q-59 -20 -123 -74q34 5 71 26.5t52 47.5z" />
    <glyph glyph-name="f" unicode="f" horiz-adv-x="532" 
d="M-164 377q168 83 473 184q129 41 195 51q20 4 31 4q10 0 26 -4q12 -4 12 -12v-2q0 -10 -14 -10h-8q-70 0 -189 -45q-305 -99 -514 -207q-60 -29 -106 -64q-21 -14 -33 -26q-8 -8 -8 -10q0 -8 12 -11q7 -4 21 -8q38 -14 49 -22q51 -23 51 -76q0 -17 -6 -35q-6 -21 -37 -76
q-52 -78 -137 -166q-153 -156 -399 -352q-157 -121 -226 -166q-45 -31 -71 -41q-16 -4 -23 -4q-15 0 -25 10q-10 13 -10 23q0 4 6 22q23 54 88 146q138 191 385 485q292 340 494 535q230 220 432 352q73 44 101 57q38 13 40 13q1 0 4.5 1t4.5 1q16 0 26 -17q8 -12 8 -22
q0 -8 -6 -17q-12 -18 -43 -45q-71 -62 -190 -139q-108 -66 -178 -94q-18 -9 -21 -12q-71 -57 -215 -201zM-1049 -678q27 10 56 31q307 211 518 414q51 49 74.5 71.5t62.5 64.5t66 79q53 72 69 116q8 16 8 33q0 29 -41 43q-13 6 -37 15l-32 12q-15 6 -21 6q-8 0 -22 -17
q-47 -48 -94 -100q-256 -286 -428 -504q-132 -171 -166 -227q-13 -17 -13 -31v-6zM229 715q8 6 25 17.5t25 17.5q4 3 12 8t13 8.5t11 9.5t9 12q-63 -36 -95 -73z" />
    <glyph glyph-name="g" unicode="g" horiz-adv-x="647" 
d="M313 659q-22 -12 -69 -45q-108 -72 -209 -129q-36 -15 -41 -16q-6 -2 -14 -2q-22 0 -35 13.5t-13 33.5q0 10 2 16q5 16 15 29q65 92 168 129q18 6 37 6q34 0 55 -24q8 -8 16 -8q3 0 15 4q34 24 69 45q17 10 41 20q12 4 19 4q10 0 18 -8q12 -12 12 -29q0 -8 -2 -12
q-11 -25 -18 -37q-20 -31 -103 -153q-10 -10 -10 -19q1 0 3 -1t3 -1q5 0 17 6q181 76 299 117q40 12 63 16h23q10 -3 10 -14q0 -5 -10 -10q-53 -12 -117 -34t-94 -34t-117.5 -50t-97.5 -42q-31 -13 -53 -45q-182 -236 -388 -461q-133 -144 -288 -293q-178 -167 -326 -262
q-57 -34 -88 -45q-30 -10 -53 -10h-8q-33 1 -53.5 23t-20.5 55q3 38 14 65q30 76 92 162q141 192 336 352q312 253 711 437q30 15 41 30q25 34 73 101.5t72 101.5q6 6 6 10q0 6 -2 8zM92 356l-16 -8q-78 -37 -230 -123q-312 -183 -505 -368q-168 -161 -259 -301
q-52 -81 -69 -142q-6 -30 -6 -35q0 -14 10 -24q8 -8 22 -8q17 0 37 8q39 15 86 43q124 75 283 227q255 238 537 582q77 93 110 149zM176 637q-40 0 -103 -40.5t-83 -80.5q30 9 103 54.5t91 66.5h-8z" />
    <glyph glyph-name="h" unicode="h" horiz-adv-x="782" 
d="M307 471q40 5 119 31q263 79 365 112q2 0 5 1t5 1h6q9 0 14 -8q0 -1 1 -3t1 -3q0 -4 -12 -12q-27 -14 -39 -17q-20 -7 -57 -18t-51 -16q-45 -15 -134.5 -44.5t-134.5 -45.5q-41 -14 -71 -19q-2 0 -6 -1t-5 -1q-22 0 -43 25q-8 11 -8 26q0 16 8 27q21 35 43 57
q105 100 133 131q-4 2 -10 2q-8 0 -20 -4q-100 -41 -234 -117q-27 -15 -82.5 -46.5t-83.5 -47.5q-22 -13 -41 -18q-4 -2 -14 -2q-20 0 -31 14q-8 8 -8 23q0 6 4 18q6 10 18 28t15 23q46 58 123 142q192 208 295 307q295 288 536 467q166 125 310 194q58 26 84 33q20 4 32 4
h13q25 -1 40 -17.5t15 -41.5v-10q-4 -18 -21 -48q-32 -46 -73 -90q-163 -171 -406 -342q-242 -172 -458 -282q-115 -57 -181 -76q-22 -6 -37 -21q-151 -155 -221 -239q-12 -12 -12 -21v-4q6 0 12 2.5t13.5 7.5t11.5 7q201 117 297 163q82 35 96 39q14 6 31 9q2 0 5.5 1
t4.5 1q19 0 37 -21q6 -12 6 -20q0 -14 -10 -31q-6 -6 -17.5 -19.5t-17.5 -19.5l-113 -113q-29 -29 -47 -57zM322 870q37 8 96 39q261 135 481 291q212 149 365 313q57 61 82 101q20 28 20 45l-8 4q-4 0 -12 -4q-58 -14 -117 -51q-199 -109 -465 -328q-122 -100 -346 -311
q-26 -24 -96 -99z" />
    <glyph glyph-name="i" unicode="i" horiz-adv-x="448" 
d="M-78 432q30 0 62 14q52 15 106 33t129.5 45t104.5 37q93 33 131 49q8 4 14 4h4q10 -3 12 -10v-4q0 -4 -6 -10q-39 -20 -43 -21q-30 -12 -92 -35t-92 -34q-41 -16 -122 -46.5t-122 -45.5q-57 -17 -82 -17q-27 0 -43 13.5t-16 35.5q0 16 6 31q11 22 25 39q64 88 153 156
q6 5 17.5 11t13.5 7q8 4 12 4q9 0 17 -8q16 -13 16 -23q0 -11 -14 -22q-57 -44 -103 -90q-30 -26 -63 -64q-24 -24 -33 -49h8zM178 711q-26 6 -35 28q-4 8 -4 13t13 22q19 22 59 39q4 2 12 2q13 0 21 -8t8 -16q0 -10 -8 -15q-41 -28 -49 -57q-3 -8 -17 -8z" />
    <glyph glyph-name="j" unicode="j" horiz-adv-x="417" 
d="M33 508h4q13 0 29 8q159 51 292 88l62 12q6 2 16 2q9 0 13 -2q12 -4 12 -14t-12 -10q-40 -6 -89 -18.5t-71.5 -19.5t-91 -29.5t-76.5 -24.5q-17 -5 -51.5 -17.5t-51.5 -17.5q-36 -10 -71 -45q-262 -278 -398 -412q-329 -322 -581 -510q-173 -130 -316 -188
q-45 -17 -98 -27q-6 -2 -18 -2q-25 0 -52 10q-63 22 -63 86q0 17 2 25q7 43 39 102q52 88 106 148q116 136 338 295q427 302 908 479q28 10 55 37q108 123 211 235q33 37 49 50q15 12 33 12q34 0 43 -41v-8q0 -11 -10 -11q-13 -4 -27 -22q-60 -77 -131 -158q-4 -4 -4 -8v-4z
M-225 371q-7 0 -17.5 -4.5t-11.5 -4.5q-132 -52 -258 -114q-287 -141 -541 -322q-194 -137 -329 -284q-85 -92 -125 -177q-29 -60 -31 -90v-6q0 -49 45 -49h10q45 3 92 18q81 33 144 72q138 84 321 242q230 198 430 416q84 92 256 276q15 15 15 27zM252 784q-26 7 -37 27
q-2 4 -2 10q0 9 12 25q17 19 49 37q8 4 15 4q9 0 18 -6q15 -11 15 -19q0 -5 -11 -16q-28 -25 -39 -49q-6 -13 -20 -13z" />
    <glyph glyph-name="k" unicode="k" horiz-adv-x="796" 
d="M86 645h4q1 0 19 6q41 19 123.5 54.5t123.5 54.5q33 11 39 12q4 2 15 2q19 0 36 -20q5 -5 5 -13q0 -7 -13 -14q-21 -9 -82 -35.5t-91.5 -40t-80.5 -34t-93 -36.5t-85 -30q-18 -6 -23.5 -11.5t-5.5 -17.5v-125q3 -22 9.5 -31.5t19.5 -9.5q7 0 23 4q33 7 129 43
q310 116 587 195l60 12q4 2 12 2q6 0 8 -2q9 -6 9 -14q0 -4 -9 -8l-18 -6q-157 -43 -485 -164l-209 -80q-47 -15 -72 -19q-8 -2 -21 -2q-31 0 -54 19t-32 51q-6 18 -6 39q0 22 -6 43h-4q-1 0 -16 -10q-277 -300 -361 -400q-44 -55 -57 -77q-9 -13 -16 -13q-5 0 -7 2
q-10 5 -10 15q0 2 4 10q19 34 27 43q56 79 149 182q262 285 273 297q18 23 20 37q0 19 19 27q9 3 18 8.5t15 9.5t15 13l12 12t14 14.5t12 13.5q21 21 61.5 65t61.5 66q3 4 11 12t12.5 15.5t4.5 17.5q0 9 13 13q16 3 45 32q173 188 319 330q259 251 449 393q96 70 163 107
q55 31 91 37q6 2 16 2q23 0 38 -14.5t15 -36.5q0 -7 -4 -23q-7 -20 -33 -59q-58 -77 -180 -191q-236 -217 -549 -426q-150 -100 -291 -159q-15 -6 -28 -19q-25 -26 -75 -76.5t-75 -76.5q-8 -8 -8 -13v-4zM1278 1681q-31 -6 -76 -34q-113 -65 -268 -191q-244 -196 -586 -534
q-10 -10 -10 -17q48 24 57 29q148 84 363 242q237 175 399 342q72 76 107 131q14 23 14 32z" />
    <glyph glyph-name="l" unicode="l" horiz-adv-x="268" 
d="M1268 1692q33 0 53 -20t20 -50q0 -12 -2 -18q-6 -30 -39 -82q-62 -94 -159 -181q-134 -126 -301 -239q-308 -208 -543 -281q-71 -24 -117 -76q-428 -482 -735 -911q-77 -110 -96 -170q-3 -14 -15 -14h-4q-12 6 -12 20q0 17 10 37q26 57 58 103q132 204 319 438
q215 276 422 516q2 3 10 11t11 12t6.5 12t3.5 16t12 12q17 4 35 27q192 209 282 295q285 274 529 430q94 60 170 92q57 21 78 21h4zM291 860q6 0 31 10q391 159 706 422q141 123 217 228q34 50 49 90q4 8 4 14q0 4 -2 6q-2 4 -10 4q-10 0 -14 -2q-18 -4 -72 -26
q-110 -55 -256 -160q-298 -215 -649 -576q-1 -1 -2 -4.5t-2 -5.5z" />
    <glyph glyph-name="m" unicode="m" horiz-adv-x="878" 
d="M520 639q-80 -33 -184 -98q-56 -36 -76 -47q-11 -7 -18 -7q-12 0 -21 9q-14 10 -14 24q0 1 1 4t1 4q3 15 12 27q14 24 35 53l14 21q-6 0 -11.5 -1.5t-11.5 -5t-9 -4.5q-116 -58 -238 -143q-31 -22 -43 -29q-6 -4 -16 -4q-14 0 -23 9q-12 9 -12 22q0 2 4 14q3 5 8 15.5
t8 15.5q67 103 150 180q15 15 18 17q16 8 25 8q14 0 27.5 -9t17.5 -22q0 -1 1 -3t1 -3q0 -8 -14 -22q-14 -13 -39 -38t-39 -38q-17 -17 -23 -29q10 2 21 10q36 21 104.5 62t75.5 45q11 6 43 20q12 4 16 4q18 0 33 -18q14 -18 14 -31q0 -9 -6 -18q-18 -32 -24 -49q10 7 43 26
q81 49 137 76q25 8 35 10h6q17 0 29 -11t12 -28q0 -4 -4 -16q-1 -5 -23 -43q-7 -9 -39 -57q-12 -18 -12 -23q0 -1 1 -3t1 -3q18 2 66 14q261 75 286 82q11 4 37 8h4q10 0 13 -10q0 -1 1 -3t1 -3q0 -4 -13 -10q-6 -4 -18 -8q-115 -36 -295 -97q-39 -14 -66 -16h-10
q-34 0 -51 25q-10 13 -10 24q0 13 12 37q6 11 23.5 39.5t25.5 44.5z" />
    <glyph glyph-name="n" unicode="n" horiz-adv-x="673" 
d="M358 647q-25 -7 -69 -29q-125 -58 -328 -184q-18 -11 -31 -16q-12 -4 -14 -4q-12 0 -25 10q-10 13 -10 22q0 5 4 17q3 11 23 41q63 86 188 215q17 20 31 20q6 0 18 -8q23 -16 23 -31q0 -11 -16 -30l-148 -148q-2 -2 -6 -5t-7 -6t-5 -7h6q10 0 16 6q187 111 289 162
q38 19 65 26q6 2 17 2q18 0 29 -14q12 -15 12 -29q0 -8 -6 -20q-5 -10 -23 -37q-8 -14 -25 -36.5t-20 -26.5q-10 -15 -10 -21t2 -8q4 -4 8 -4q3 0 21 6q5 1 32 10l85.5 28.5t101 33.5t86.5 26l30 6q15 -4 15 -14v-4q0 -7 -10 -10l-19 -6q-40 -13 -282 -103q-25 -11 -56 -18
q-2 0 -7 -1t-7 -1q-23 0 -36 13.5t-13 35.5q0 12 2 18q3 18 18 41q8 15 51 82z" />
    <glyph glyph-name="o" unicode="o" horiz-adv-x="559" 
d="M-47 354q-28 0 -47 19t-19 47v10q5 31 27 68q53 99 154 186q27 23 43 23q12 0 28 -13q12 -4 17 -4q2 0 7 1t7 1q8 2 25 2q64 0 75 -67q5 -19 19 -19h6q30 3 91 4t91 4q31 2 94 2h9q18 0 18 -14v-2q0 -10 -16 -10l-68 -6q-22 -1 -101 -6.5t-122 -6.5q-25 -2 -43 -24
q-91 -127 -262 -187q-3 -2 -7 -3t-9.5 -1.5t-8.5 -1.5q-6 0 -8 -2zM203 569q-1 0 -3 1t-3 1q-66 8 -91 35q-2 4 -8 4t-14 -8q-54 -54 -61 -63q-56 -59 -80 -109q-1 -2 -5 -9.5t-4 -10.5q0 -6 5 -11q4 -4 10 -4q2 0 20 6q141 48 224 146q10 10 10 18v4zM201 608h12
q23 3 23 25q0 19 -23 22h-12q-40 0 -60 -20q-6 -6 -6 -10q0 -8 12 -11q14 -4 54 -8v2z" />
    <glyph glyph-name="p" unicode="p" horiz-adv-x="825" 
d="M-301 211q210 165 278 215q195 140 332 209q120 63 199 76q3 0 9 1t9 1q34 0 58 -27q16 -22 16 -45q0 -19 -10 -39q-16 -27 -17 -33q2 0 5.5 -1t5.5 -1q8 0 22 4t17 4q132 30 211 39q6 2 16 2h8q11 -3 14 -12q0 -10 -12 -14l-24 -6q-115 -17 -285 -62q-28 -6 -51 -26
q-130 -116 -303 -189q-42 -17 -74 -22q-4 -2 -12 -2q-13 0 -25 6q-20 11 -20 30q0 13 6 25q13 15 34 33q144 105 318 149q30 8 55 28t39 38t33 49q4 6 4 14q0 11 -18 11q-44 0 -107 -23q-106 -39 -211 -102q-193 -113 -432 -310q-106 -88 -276 -247q-32 -29 -63.5 -60.5
t-67 -71t-56 -63.5t-63 -74t-56.5 -67q-24 -29 -78.5 -94.5t-96.5 -115t-81 -93.5q-19 -19 -24 -21q-4 -2 -10 -2q-13 0 -23 10q-6 6 -6 13q0 6 4 14q15 23 27 37q87 113 184 213q39 41 78 87.5t92 111.5t74 90q246 300 444 505q159 169 328 328q15 12 30 27q9 6 17 6
q6 0 18 -8q15 -12 15 -27q0 -6 -4 -14q-18 -24 -39 -45q-76 -80 -156 -156q-161 -158 -287 -289q-2 -2 -6 -7t-6 -7zM356 457q-126 -47 -217 -117q116 39 217 117z" />
    <glyph glyph-name="q" unicode="q" horiz-adv-x="593" 
d="M344 666q-11 -6 -40 -19t-47.5 -24.5t-33.5 -28.5q-8 -8 -12 -8h-4q-18 0 -39 -17l-227 -135q-4 -3 -15.5 -8t-15.5 -8q-4 -2 -12 -2q-14 0 -27 10q-10 13 -10 27q0 10 2 14q7 21 18 35q75 97 178 160l20 10t17 8q16 8 37 8q37 0 60 -29q14 -14 18 -14q5 0 22 10
q13 7 113 66q54 27 62 29q4 2 10 2q14 0 24 -13q11 -15 11 -26q0 -9 -2 -13q-13 -22 -21 -30q-38 -44 -74 -80q-126 -126 -151 -150l-10 -10t-11 -16q13 2 29 14q187 104 330 160q6 3 57 18q12 4 21 4q2 0 7 -1t7 -1q18 0 18 -14q0 -12 -18 -12q-28 0 -72 -19
q-292 -125 -469 -272q-57 -45 -106 -107q-20 -32 -27 -55q-2 -6 -2 -16q0 -21 16 -37q6 -6 20 -19t21 -20q47 -41 47 -92q0 -21 -10 -51q-13 -38 -55 -91q-45 -63 -156 -170q-175 -159 -334 -270q-67 -48 -108 -70q-40 -20 -62 -22q-2 0 -6 -1t-6 -1q-23 0 -36 14t-13 39
q2 23 23 76q28 65 90 160q155 237 364 483q234 276 492 528q24 24 82 78q6 9 16 19zM-74 143q-1 0 -3.5 1t-4.5 1q-5 -6 -15 -16.5t-14 -15.5q-88 -96 -196 -226q-181 -218 -295 -391q-48 -77 -64 -112q-15 -34 -20 -58v-10q0 -14 10 -14q2 0 14 4q36 15 44 20
q119 71 299 217q158 130 251 240q60 68 82 115q17 42 17 61q0 35 -43 72q-62 48 -62 98v14zM-35 496q28 17 60 36t71.5 42t61.5 36q1 1 4.5 3.5t5.5 4t2 3.5v4q-2 6 -10 6q-9 0 -13 -2q-4 0 -12 -4q-32 -13 -66 -35.5t-54 -39t-56 -48.5z" />
    <glyph glyph-name="r" unicode="r" horiz-adv-x="487" 
d="M76 561q-9 -4 -31 -8q-4 -2 -12 -2q-17 0 -31 14q-12 15 -12 31q0 4 4 16q26 63 88 99q12 4 16 4q17 0 31 -21q4 -12 4 -14q0 -10 -18 -25q-32 -19 -54 -47q4 -4 9 -4q6 0 14 4q17 6 44.5 22t37.5 21q13 8 24 8q10 0 19 -12q6 -6 6 -16q0 -12 -12 -27l-29 -29
q-76 -72 -117 -131q-2 -3 -8 -9t-9 -10t-6 -9.5t-3 -9.5q0 -3 4 -11q6 -6 12 -6q7 0 21 7.5t20 9.5q7 3 72 34q276 135 291 142q9 4 59 24q4 2 10 2q7 0 12 -8q0 -1 1.5 -3t1.5 -3q0 -6 -13 -12q-31 -16 -51 -23q-189 -95 -295 -153q-42 -23 -88 -41q-5 -2 -16.5 -5.5
t-16.5 -5.5q-6 -2 -16 -2q-23 0 -39 19q-12 15 -12 30q0 7 4 23q3 10 8.5 20.5t8.5 15.5t12.5 18.5t11.5 15.5l49 61z" />
    <glyph glyph-name="s" unicode="s" horiz-adv-x="405" 
d="M-678 -303q3 132 82 264q82 135 242 268q170 142 313 217q25 15 25 50q0 67 14 122q32 129 145 179q36 12 58 12h8q29 -1 46 -18t17 -41q0 -16 -14 -41q-20 -33 -84 -74q-8 -4 -10 -4q-4 0 -12 8l-5 10q0 6 7 13q6 6 19.5 17t19.5 17q21 18 32 39q8 8 8 17q0 1 -1 3t-1 3
q-3 6 -10 6q-2 0 -7 -1t-7 -1q-34 -7 -78 -41q-68 -57 -84 -156q-6 -54 -6 -57q0 -14 8 -14q6 0 10 2q31 12 97 36q150 53 235 74q6 1 41 6h4q15 0 15 -12v-2q0 -3 -1.5 -5t-3.5 -2.5t-5.5 -1.5t-4.5 -1q-40 -9 -78 -21q-107 -32 -284 -102q-39 -17 -39 -59q0 -113 -6 -168
q-27 -282 -148 -478q-77 -129 -194 -202q-84 -54 -166 -60h-19q-64 0 -110 33t-60 104q-8 33 -8 62zM-23 385q0 25 -8 25q-4 0 -18 -7q-1 -1 -4 -3t-4 -3q-258 -153 -422 -342q-92 -105 -131 -213q-29 -76 -29 -145q0 -35 4 -53q18 -111 119 -111q21 0 33 2q92 16 178 86
q114 93 186 260q86 216 96 490v14z" />
    <glyph glyph-name="t" unicode="t" horiz-adv-x="227" 
d="M522 1264q-10 4 -24 4h-13q-181 -15 -221 -19q-140 -12 -217 -20q-137 -12 -346 -41q-221 -27 -436 -68q-313 -62 -459 -108q-1 0 -11 -3t-13 -4t-10 -4.5t-11.5 -7.5t-7.5 -10q-4 -4 -8 -4q-5 0 -7 2q-18 6 -18 29q0 15 12 24q16 13 37 19q29 12 64.5 23t58.5 17.5
t69 18.5t62 16q221 54 563 99q229 31 400 49q251 23 323 27q40 3 121 9t121 9q28 0 47 22q129 129 180 175q168 154 309 239q23 16 62 29q6 2 16 2q18 0 29 -14q14 -18 14 -33q0 -9 -6 -21q-6 -13 -35 -47q-82 -88 -206 -184q-123 -96 -220 -150q-8 -4 -8 -8h135q8 0 23 1
t22 1q45 2 136 2q116 0 350 -8q223 -11 350 -31q64 -12 96 -24q39 -12 39 -43q0 -20 -26 -43q-33 -23 -76 -39q-90 -38 -275 -78q-17 -3 -49.5 -10t-48.5 -10q-10 -5 -14 -5q-2 0 -6 -1t-5 -1q-13 0 -16 13v2q0 12 18 16q5 1 31 8t41 11q9 2 69 16t82 19.5t64.5 18
t75.5 25.5q59 20 98 54q-3 5 -7 8t-13.5 5t-11.5 3q-59 16 -160 27q-210 20 -502 20q-101 0 -297 -4q-100 0 -199 -6q-28 -2 -55 -29q-156 -156 -360 -399q-366 -449 -660 -873q-92 -130 -153 -237q-44 -77 -50 -107q-4 -16 -14 -16q-14 0 -18 18v7q0 12 8 32q29 71 96 174
q118 187 352 512q234 317 408 537q153 192 274 324q7 7 20 22.5t17 20.5zM1096 1679q-153 -102 -340 -282q190 121 340 282z" />
    <glyph glyph-name="u" unicode="u" horiz-adv-x="583" 
d="M197 571q-27 -7 -50 -26q-6 -3 -48 -29.5t-66 -38.5q-5 -2 -15.5 -7t-15.5 -7q-4 -2 -14 -2q-18 0 -29.5 11.5t-11.5 29.5v8q0 18 10 35q41 81 109 155q17 17 30 17q15 0 27 -12q14 -11 14 -23q0 -11 -12 -23q-59 -67 -90 -104q-15 -23 -29 -39q16 0 39 14q63 34 193 123
q13 9 38 23q8 4 13 4q11 0 20 -12q8 -12 8 -21q0 -5 -6 -14q-11 -17 -28 -37q-45 -52 -58 -82q-2 -4 -2 -12t10 -8h7q28 5 65 16q255 84 281 94q6 4 22 8h4q9 0 13 -8l2 -4q0 -3 -1.5 -5t-5 -4t-4.5 -3q-11 -8 -28 -15q-140 -57 -295 -108q-25 -7 -45 -10h-10q-28 0 -44 15
t-16 40q0 11 4 27q4 8 6 14q5 10 9 20z" />
    <glyph glyph-name="v" unicode="v" horiz-adv-x="606" 
d="M8 451q4 0 8 1.5t6 3t5.5 5t5.5 4.5q76 66 211 180q8 7 23.5 19.5t28 22.5t23.5 18q20 14 37 14q25 0 31 -41q10 -55 62 -64q58 -8 90 -8q33 0 49 4q4 1 12 2t12 2h11q14 0 16 -12v-4q0 -3 -2 -5t-4 -3l-6 -3l-6 -3q-30 -6 -33 -6q-10 0 -31 -1.5t-31 -1.5q-30 0 -77 7
q-68 13 -91 71q-9 21 -14 21q-6 0 -18 -12q-17 -14 -187 -162q-15 -12 -30.5 -26t-34 -30.5t-29.5 -25.5q-4 -3 -13.5 -9.5t-13.5 -9.5q-12 -6 -22 -6q-18 0 -31 11.5t-16 29.5q-2 6 -2 19q0 10 4 26q22 95 92 217q11 17 23 17q8 0 12 -2q26 -11 26 -35v-4q-1 -5 -12 -33
q-43 -76 -76 -145q-12 -28 -12 -43h4z" />
    <glyph glyph-name="w" unicode="w" horiz-adv-x="915" 
d="M213 604q-7 -4 -92 -57q-11 -7 -119 -82q-27 -18 -37 -21q-2 0 -5 -1t-5 -1q-13 0 -23 11t-10 26q0 8 10 33q50 87 121 174q7 7 13 10q11 11 22 11q12 0 23 -11q12 -12 12 -22t-10 -23q-43 -53 -90 -108q-13 -13 -13 -21q1 0 2 -1t2 -1q5 0 15 10q45 27 124.5 79
t110.5 71q21 12 29 12t16 -8q15 -15 15 -27q0 -8 -11 -26q-86 -136 -94 -150q-38 -70 -45 -104q0 -2 -1 -6t-1 -6q0 -15 12 -15q5 0 17 4q26 10 78 43q31 20 67 46.5t58.5 44t67 52.5t60.5 48q62 49 115 88q3 3 11.5 8.5t11.5 7.5q20 8 26 8q19 0 25 -20q20 -44 84 -55
q76 -13 100 -13h27q22 0 22 -14q0 -10 -18 -14q-10 -2 -31 -2q-23 0 -63 4q-22 2 -60 10q-48 9 -73 47q-9 12 -15 12q-7 0 -18 -8q-4 -2 -37 -24q-44 -34 -142.5 -113t-152.5 -119q-31 -23 -82 -57q-28 -17 -53 -23q-6 -2 -16 -2q-28 0 -46 18t-20 46q0 35 12 69
q20 62 68 138q6 6 6 18v6z" />
    <glyph glyph-name="x" unicode="x" horiz-adv-x="536" 
d="M59 625q20 17 64 57q87 74 127 100q18 11 26 11q13 0 27 -17q6 -9 6 -16q0 -9 -8 -17q-6 -4 -18.5 -13t-18.5 -13q-32 -26 -93 -70t-81 -59q-24 -18 -24 -41q0 -5 4 -21q17 -48 32 -67q19 -22 48 -25h10q37 0 92 25q69 34 139 71q120 66 150 82q4 4 8 4q10 5 12 5
q6 0 12 -9q2 -2 2 -6q0 -6 -12 -14l-19 -11q-18 -11 -28 -16q-104 -63 -205 -119q-45 -26 -84 -40q-33 -11 -53 -11q-66 0 -119 64q-17 20 -26 45q-1 1 -3 6t-4.5 7.5t-7.5 4.5q-7 -5 -23.5 -18.5t-23.5 -18.5q-97 -85 -133 -120q-11 -11 -16 -11q-7 0 -11 4q-6 4 -6 13
t6 18q34 39 99 96q26 26 84 76q10 10 10 25q0 14 -2 20q-10 55 -10 96v21q6 34 6 35q6 28 22 28h4q14 -2 25.5 -12.5t11.5 -23.5v-2q0 -14 -3 -39.5t-3 -30.5q0 -2 -1 -7t-1 -7q0 -16 10 -39z" />
    <glyph glyph-name="y" unicode="y" horiz-adv-x="600" 
d="M-4 494q67 32 160 92q19 13 58.5 39.5t59.5 40.5q23 14 33 14t19 -6q18 -15 18 -41q0 -11 -2 -17q-7 -21 -23 -53q-10 -25 -10 -31q1 0 3 -1t3 -1q3 0 6 1.5t7 3t6 2.5q183 56 198 59q25 8 58 12q16 4 22 4q3 0 9.5 -1t9.5 -1q12 -4 12 -12v-4q0 -3 -1.5 -5t-3 -2.5
t-5 -1.5t-4.5 -1q-52 -5 -106.5 -20.5t-122.5 -40t-103 -34.5q-22 -8 -31 -30q-208 -359 -456 -664q-188 -232 -357 -358q-98 -74 -186 -109q-58 -22 -111 -22h-12q-63 3 -102 42.5t-39 102.5t30 131q57 132 162 246q229 256 594 469q217 123 393 186q23 6 35 27q6 11 18 31
t15 26q2 3 5.5 11t4.5 10q-10 0 -27 -13q-133 -87 -200 -124q-31 -17 -43 -21t-19 -4q-22 0 -35.5 15t-15.5 38q0 25 14 49q41 75 107 144q17 20 31 20q6 0 18 -8q25 -16 25 -37q0 -10 -6 -22q-11 -25 -22 -29q-4 -2 -9 -2q-8 0 -12 -8q-52 -60 -70 -92zM164 434
q-11 0 -27 -8q-131 -52 -284 -137q-334 -185 -572 -426q-121 -125 -186 -246q-51 -97 -51 -174v-14q6 -86 92 -86h12q45 6 92 24q118 48 252 168q158 145 305 342q146 191 363 539q8 12 8 18h-4z" />
    <glyph glyph-name="z" unicode="z" horiz-adv-x="509" 
d="M-72 342q-5 4 -10.5 5t-12 1.5t-9.5 1.5q-20 3 -33 23q-6 9 -6 16q0 12 12 21q10 7 43 26q121 64 172 101q59 41 80 73q10 10 10 17q0 1 -1 3t-1 3q-4 10 -25 10q-61 -3 -106 -51q-6 -4 -6 -19q-3 -14 -12 -14q-5 0 -13 4q-18 9 -18 35q0 12 4 18q29 62 104 78q10 2 29 2
q47 0 78 -34q20 -23 20 -50q0 -23 -14 -43q-22 -34 -66 -65q-61 -46 -155 -94l-25 -15q9 -6 19 -6q6 0 22 8q82 51 88 54q161 89 389 155q11 4 37 8q21 0 29 -6q10 -7 10 -16q-1 -6 -14 -10q-20 -2 -40.5 -6.5t-42.5 -11.5t-37.5 -12t-41 -15.5t-36.5 -15t-40 -18t-37 -16.5
q-95 -39 -186 -96q-26 -15 -29 -22q3 -5 7 -8.5t10.5 -6t9.5 -4.5q176 -101 211 -303q6 -30 6 -61q0 -101 -59 -207q-110 -201 -328 -332q-145 -86 -279 -102q-44 -7 -75 -7q-42 0 -92 13q-72 22 -112 73t-40 121q0 15 4 43q20 119 113 260q171 255 424 443q5 3 71 51z
M-459 -616q3 0 10 -1t11 -1q21 0 61 8q51 11 82 22q326 117 500 436q47 89 47 172q0 34 -4 52q-35 194 -221 258q-12 4 -19 4q-13 0 -26 -10q-301 -203 -488 -465q-81 -121 -115 -221q-16 -56 -16 -103q0 -4 1 -13.5t1 -13.5q6 -100 103 -118q30 -6 59 -6h14z" />
    <glyph glyph-name="braceleft" unicode="{" horiz-adv-x="1673" 
d="M1593 1380q-17 0 -41 -20q-59 -37 -176 -133q-100 -83 -279 -242t-241 -213q-87 -75 -178 -139q-70 -42 -103 -53q-17 -6 -26 -23q-27 -57 -67.5 -119.5t-71.5 -103t-86 -107.5q-34 -45 -100 -125t-93 -114q-38 -48 -55 -76q-12 -20 -17 -35q-2 -4 -2 -10q0 -13 21 -19
h18q9 0 27 -1t27 -1q91 0 243 19q70 8 105 14q8 2 22 2q25 0 25 -16v-2q0 -9 -21 -13q-38 -9 -125 -22q-157 -20 -278 -23q-11 0 -31.5 3.5t-21.5 3.5q-21 6 -39 18q-25 19 -25 43q0 5 4 21q11 30 41 73q14 17 66 83t80 100q194 248 260 346l37 61q6 9 6 16q0 11 -9 17
q-12 12 -12 28q0 7 2 11q6 30 37 30q19 0 33 -14q16 -16 22 -16q5 0 25 10q73 43 180 139q63 55 174 161t152 144q7 7 43 40t47.5 43.5t43 39t48.5 43t44 37.5t51 41.5t48 36.5q49 40 103 63q14 9 41 17h10q26 0 42.5 -17t16.5 -41q0 -6 -4 -22q-4 -18 -14 -18h-2
q-10 0 -18 16q-5 15 -9 18z" />
    <glyph glyph-name="bar" unicode="|" horiz-adv-x="1341" 
d="M23 -168q-7 0 -13 7t-6 16v4q1 4 10 22q101 178 265 391q256 336 602 758q144 171 321 342q2 2 18.5 17t26.5 22q15 12 27 12q10 0 18 -8q25 -21 25 -43q0 -6 -4 -14q-9 -21 -29 -41q-14 -14 -40 -40.5t-47 -47.5t-40 -39q-23 -23 -81 -80.5t-88.5 -88t-76 -78.5
t-82.5 -89q-107 -118 -270 -315q-216 -262 -366 -467q-99 -140 -146 -217q-1 -1 -3.5 -5.5t-3.5 -6.5t-3.5 -5t-5.5 -4l-6 -2h-2z" />
    <glyph glyph-name="braceright" unicode="}" horiz-adv-x="1675" 
d="M59 -131q10 1 43 20q86 58 177 136q101 83 282.5 244t235.5 208q105 90 180 139q55 38 102 56q20 4 25 20q14 30 32 62t32 53.5t40.5 58.5t37 50.5t43.5 56t40 51.5q63 80 195 240q40 51 53 73q3 6 9 17.5t9 17.5q2 4 2 12q0 14 -20 17q-6 2 -21 2h-36q-110 0 -260 -17
q-70 -8 -105 -14q-6 -2 -22 -2h-5q-17 0 -20 14q0 12 20 17q59 14 127 20q176 23 279 23q26 0 53 -6q19 -3 37 -17q25 -19 25 -41q0 -16 -4 -24q-8 -28 -39 -72q-104 -129 -146 -184q-184 -231 -260 -346q-8 -10 -20.5 -31t-18.5 -29q-4 -12 -4 -16q0 -11 8 -19
q13 -13 13 -26q0 -6 -2 -10q-3 -15 -14 -24t-23 -9q-17 0 -33 16q-20 17 -25 17q-3 0 -22 -13q-78 -46 -180 -137q-65 -56 -177 -163.5t-149 -141.5q-191 -180 -326 -281q-57 -43 -102 -65q-31 -13 -43 -15h-10q-25 0 -42.5 16.5t-17.5 41.5q0 8 4 20q8 21 19 21
q12 0 16 -17q2 -2 3.5 -9.5t4.5 -10.5z" />
    <glyph glyph-name="asciitilde" unicode="~" horiz-adv-x="616" 
d="M201 651q35 0 63 -22q21 -15 41 -35q27 -27 64 -27q2 0 7.5 1t8.5 1q58 11 150 49q25 12 28 13h4q15 0 23 -15q2 -2 2 -8q0 -8 -12 -16q-103 -61 -187 -76q-2 0 -7 -1t-7 -1q-29 0 -60 21q-35 19 -51 38q-14 17 -35 17q-6 0 -22 -4q-80 -28 -129 -92q-5 -5 -8 -11
q-14 -22 -27 -22q-7 0 -16 6q-25 13 -25 35q0 8 4 20v2q58 100 191 127z" />
    <glyph glyph-name="exclamdown" unicode="&#xa1;" horiz-adv-x="1173" 
d="M0 -770q0 15 20 35q96 85 113 100q134 121 285 285q210 229 375 440q121 159 174 250q22 36 32 66q8 20 21 20q6 0 8 -2q16 -3 16 -21q0 -8 -2 -14q-21 -61 -75 -149q-81 -127 -275 -375q-157 -196 -409 -486q-86 -97 -160 -165q-15 -15 -47 -39q-9 -9 -19 -9q-4 0 -10 3
q-15 4 -30 25t-17 36zM1094 633q21 -2 40 -19.5t19 -35.5q-2 -22 -19.5 -43.5t-37.5 -22.5q-23 0 -41.5 15t-18.5 34v2q0 23 19.5 46.5t38.5 23.5z" />
    <glyph glyph-name="cent" unicode="&#xa2;" horiz-adv-x="1519" 
d="M309 240q-6 4 -18 4h-39q-64 0 -129 12q-9 0 -21 4q-31 10 -49 33.5t-18 52.5q0 28 18 55q13 20 33 41.5t30.5 30t39.5 33.5q152 120 342 221q173 94 303 139q49 20 106 35q24 6 43 25q144 153 297 297q94 90 162 151q6 9 12 15q16 16 29 16t23 -10q20 -14 20 -35
q0 -14 -8 -25q-5 -9 -12 -17.5t-17 -19t-14 -14.5q-37 -37 -197 -180q-109 -98 -164 -150q-16 -12 -22 -26q39 0 59 -2q77 -7 103 -66q8 -24 8 -35q0 -26 -21 -47q-8 -10 -28 -26q-55 -45 -152 -95q-8 -4 -24 -8q-1 0 -4.5 -1t-4.5 -1q-16 0 -22 19q-2 2 -2 6q0 9 14 18
q37 22 90 58q39 23 74 61q8 8 14 20q4 8 4 9q0 5 -10 8h-16q-14 2 -43 2q-69 0 -129 -14q-21 -6 -39 -21q-189 -189 -281 -287q-49 -50 -198 -213q-13 -13 -13 -16q2 -6 8 -6h9q120 0 233 26q9 1 27.5 6.5t21.5 6.5q4 2 13 2q10 0 14 -4q8 -5 8 -13q0 -7 -8 -12
q-7 -3 -25 -8q-69 -23 -207 -39q-70 -8 -106 -8q-40 0 -66 -33q-10 -11 -40.5 -44.5t-42 -46.5t-39 -44t-41.5 -47.5t-38 -44.5t-40.5 -48.5t-36 -46t-37.5 -49.5q-4 -6 -12 -14q-4 -4 -8 -4q-5 0 -13 4q-10 7 -10 14q0 4 2 6q9 19 14 25q48 71 156 201q36 43 129 149
q6 6 6 11v4zM821 791q-9 0 -12 -3q-310 -106 -604 -319q-70 -51 -101 -96q-22 -28 -22 -45q0 -22 51 -31q82 -12 203 -12q19 0 35 16q223 249 354 385q49 55 96 105z" />
    <glyph glyph-name="sterling" unicode="&#xa3;" horiz-adv-x="1619" 
d="M1090 670q85 0 149 -13q24 -4 31 -18q4 -8 4 -12q0 -13 -17 -13q-28 0 -40 2q-34 5 -78 5q-31 0 -92.5 -3.5t-90.5 -3.5q-16 0 -32 -20q-59 -75 -174 -211q-153 -186 -285 -307q-13 -13 -38 -34.5t-36 -31.5q23 -2 62.5 -4t44.5 -2q146 -8 225 -16q250 -22 405 -56
l48 -12q15 -8 20 -14q2 -2 2 -10v-5q-3 -6 -8 -6h-4q-8 0 -12 2q-97 23 -300 43q-250 23 -454 23q-16 0 -34.5 -1t-40 -2.5t-34.5 -2.5q-13 0 -39 -13q-66 -37 -145 -49q-4 0 -12.5 -1t-12.5 -1q-24 0 -45 6q-12 3 -24 9q-31 19 -31 41v4q2 22 39 34q55 20 121 23
q70 8 102 8h23q25 0 53 21q96 81 217 213q131 149 272 333q1 1 6.5 7.5t8.5 12t4 11.5q-94 -7 -146 -14q-29 -2 -92 -10h-6q-15 0 -29 14q-10 13 -10 25q0 16 23 26q29 15 76 15q18 1 83.5 4.5t100.5 3.5h29q27 0 45 24q247 328 262 348q104 136 186 209q52 52 100 78
q9 6 35 19q8 4 27 4q26 0 45 -18.5t22 -47.5q0 -6 -2 -10q-6 -17 -10 -19h-4q-9 0 -14 9q-6 12 -17 12q-4 0 -16 -8q-27 -19 -41 -31q-98 -79 -248 -248q-79 -92 -241 -295q-8 -8 -21 -26h105z" />
    <glyph glyph-name="currency" unicode="&#xa4;" horiz-adv-x="555" 
d="M535 748q-2 -8 -13 -15q-35 -18 -47 -26q-10 -5 -29.5 -16.5t-29.5 -16.5q-15 -11 -15 -27v-6q0 -60 -61 -121q-21 -18 -21 -26q0 -4 13 -27q24 -46 51 -80q8 -8 8 -14q0 -4 -2 -6q-5 -5 -8 -5t-8.5 3t-7.5 4q-12 7 -27 26q-9 12 -37 54q-2 2 -4 5.5t-3.5 5t-3 4
t-2.5 3.5t-2.5 2t-3 1.5t-3.5 0.5q-5 0 -25 -10q-24 -14 -45 -19q-12 -6 -27 -6q-13 0 -30 10q-10 7 -15 7q-7 0 -20 -9q-34 -23 -58 -51q-3 -2 -8 -7t-8 -7q-9 -6 -16 -6q-9 0 -17 8q-8 5 -8 14q0 8 6 17q14 20 39 34q72 45 92 109q3 11 9.5 23.5t11 20.5t16 22t15 18
t18.5 21t16 18q15 15 15 20q0 7 -13 23l-67 92q-2 4 -8.5 13.5t-8.5 13.5l-2.5 5t-2.5 5.5t-1 5.5q0 4 4 8t11 4q10 0 16 -6q10 -6 22 -26q3 -6 62 -97q10 -14 20 -14q6 0 15 6q17 10 32 10q23 0 41 -24q10 -10 21 -10q7 0 16 6q20 13 92 45q16 8 25 8q19 -4 21 -18z
M205 492q62 26 110 77q23 26 23 37q0 10 -16 39q-1 1 -2.5 1.5l-3 1t-3.5 1.5q-37 -29 -98 -98q-16 -19 -16 -37q0 -10 6 -22z" />
    <glyph glyph-name="yen" unicode="&#xa5;" horiz-adv-x="1548" 
d="M365 213q-76 -7 -121 -16q-2 0 -8 -1t-9 -1q-7 0 -16 6q-18 14 -18 30v5q0 20 28 24q36 8 58 8q40 4 120 8q22 0 32 7t20 32q-6 2 -17 2q-14 0 -20 -2q-13 -2 -42 -4.5t-50.5 -6t-40.5 -9.5q-1 0 -4.5 -1t-4.5 -1q-9 0 -22 22q-4 6 -4 19q0 15 12 24q14 11 39 15
q37 6 76 6h114q33 0 52 22q320 340 489 517q33 34 201 202q4 4 13.5 12t14.5 13q-4 2 -10 2q-2 0 -4 -1t-3.5 -2t-3.5 -2.5t-3 -2.5q-168 -121 -641 -459q-207 -149 -320 -221q-44 -26 -63 -33q-6 -2 -16 -2q-17 0 -27 11t-10 30v10q5 24 24 55q49 96 152 238
q159 219 350 422q97 102 117 121q8 8 26 35q21 30 39 30h6q24 -4 37 -47q0 -2 1 -5t1 -5q0 -16 -14 -33q-7 -8 -21.5 -25.5t-21.5 -25.5q-70 -66 -104 -100q-302 -298 -467 -531q-42 -56 -66 -102q-12 -16 -12 -29v-4q2 -2 6 -2q2 0 4 1t3.5 2t3.5 2.5t3 2.5q57 31 183 115
q222 147 567 401q156 113 485 363l19 12q2 1 5.5 3.5t6 4t6 3t6.5 1.5q2 0 10 -4q15 -11 15 -35q0 -2 -1 -5.5t-1 -4.5q-2 -6 -21 -29q-50 -59 -139 -141q-214 -204 -442 -432q-50 -51 -150.5 -154.5t-150.5 -154.5q-2 -3 -8.5 -9t-10.5 -12t-6 -12q4 -6 14 -6h13
q72 -3 139 -12q23 -3 51 -13q12 -3 21 -12q10 -10 10 -16q0 -1 -1 -3.5t-1 -3.5q-3 -8 -11 -8q-2 0 -6 1t-6 1q-61 13 -143 13q-16 0 -49 -1t-49 -1q-37 0 -47 -5t-35 -36q2 -7 10 -7h12q67 -3 121 -14q29 -4 43 -18q6 -6 6 -17v-4q-3 -8 -12 -8q-1 0 -4 1t-4 1
q-8 1 -23.5 3t-23.5 3q-36 4 -54 4q-17 0 -52 -2t-52 -2q-25 0 -47 -22q-120 -128 -178 -193q-28 -29 -82 -89.5t-82 -90.5q-6 -7 -18.5 -22.5t-18.5 -22.5q-8 -8 -14 -8q-7 0 -11 4q-8 5 -8 14q0 4 4 12q33 46 55 68q9 10 226 256q11 12 35.5 39.5t40.5 44.5z" />
    <glyph glyph-name="brokenbar" unicode="&#xa6;" horiz-adv-x="1312" 
d="M584 575q-9 0 -15 7.5t-6 15.5q0 6 2 8l13 19q31 38 111 136.5t122 149.5t108.5 128.5t124.5 140.5q7 7 57.5 64t78.5 85q25 25 39 35q10 10 24 10q15 0 29 -14t14 -31q0 -12 -12 -24q-30 -34 -64 -64q-181 -166 -344 -350l-245 -283q-3 -4 -10.5 -12t-10.5 -12
q-14 -9 -16 -9zM23 -174q-21 4 -21 20q0 2 1 5t1 4q4 10 16 26q21 34 47.5 73t46 66.5t52.5 72.5t49 67q17 25 86.5 123t104.5 153q2 3 6 8.5t6 8.5q16 22 37 22q27 0 43 -33q2 -4 2 -12q0 -7 -11 -22q-16 -16 -31.5 -32.5t-33 -37t-28.5 -33.5t-31 -38.5t-27.5 -35
t-30.5 -39t-28 -36.5q-26 -35 -75 -97.5t-88.5 -115.5t-72.5 -101q-11 -16 -20 -16z" />
    <glyph glyph-name="section" unicode="&#xa7;" horiz-adv-x="1761" 
d="M627 537q-46 12 -66 20q-49 12 -88 45q-49 43 -49 94q0 38 22 72q31 50 82 98q62 57 152 123q289 203 606 299q146 47 275 47q41 0 81 -12q38 -11 60 -46.5t22 -74.5q0 -26 -8 -45q-19 -42 -57 -80q-58 -63 -164 -139q-204 -147 -393 -242q-62 -30 -101 -39q-6 -2 -14 -2
q-14 0 -29 11q-6 6 -6 14q0 5 11 12q1 1 4 2t4 2q259 117 549 338q71 55 116 113q25 29 33 55q4 12 4 17q0 14 -22 22q-15 6 -49 10h-33q-96 0 -172 -16q-248 -54 -504 -195q-161 -85 -283 -188q-69 -55 -106 -113q-17 -28 -23 -53q-2 -6 -2 -18q0 -26 29 -41
q43 -25 127 -41q99 -16 326 -58q40 -6 112 -26q43 -15 66 -31q35 -27 35 -68q0 -22 -17 -49q-24 -37 -80 -73q-49 -29 -84 -41q-10 -7 -10 -13q0 -2 4 -10q1 -1 2 -3t2 -3q35 -46 35 -98q0 -60 -49 -115q-68 -83 -172 -127q-146 -66 -316 -78q-66 -4 -100 -4q-98 0 -174 16
q-90 21 -143 62q-18 12 -35 29q-27 34 -27 67q0 35 23 64q24 35 76 67q74 47 235 92q148 39 268 52q40 4 60 4q32 0 78 -11q26 -4 38 -18q3 -3 3 -6t-3 -6q0 -4 -8 -4q-6 0 -8 2q-40 12 -78 12q-28 0 -82 -8q-199 -29 -362 -97q-78 -29 -137 -79q-26 -19 -41 -47
q-11 -22 -11 -37q0 -28 27 -49q24 -18 51 -27q67 -26 156 -33q23 -2 65 -2q129 0 271 37q140 37 235 115q56 45 78 88q23 41 23 69q0 51 -56 92q-47 32 -116 60q-100 42 -127 55q-35 17 -64 49q-24 27 -24 56q0 30 24 57q2 2 6 5.5t7 6t6 6.5t4 9zM1133 416q0 14 -15 22
q-25 12 -41 17q-33 10 -74 19t-68 14t-79 13t-70 11h-10q-12 0 -16 -6q-10 -10 -17 -10q-8 0 -14 6t-16 6q-3 0 -11 -4q-40 -24 -57 -55q-6 -12 -6 -19q0 -10 18 -22q46 -26 88 -39q126 -54 183 -95q16 -8 20 -8q5 0 17 4q71 37 100 58q40 32 55 57q10 17 13 31z" />
    <glyph glyph-name="dieresis" unicode="&#xa8;" horiz-adv-x="317" 
d="M129 1395q-2 -16 -15.5 -32t-31.5 -20q-6 -2 -14 -2q-23 0 -54 23q-6 12 -6 14q-2 4 -2 13q0 13 9.5 30.5t21.5 26.5q13 10 29 10q17 0 32 -12q31 -24 31 -51zM295 1403q0 -18 -15.5 -35.5t-31.5 -19.5q-22 0 -45 20.5t-25 40.5q0 20 20 37.5t42 17.5q19 0 37 -19.5
t18 -39.5v-2z" />
    <glyph glyph-name="copyright" unicode="&#xa9;" horiz-adv-x="1722" 
d="M1186 1366q154 0 270 -39q198 -69 232 -270q6 -30 6 -62q0 -64 -33 -161q-53 -141 -168 -279q-147 -179 -385 -354q-254 -187 -524 -293q-121 -45 -222 -64q-40 -6 -81 -6q-52 0 -91 10q-172 43 -184 226v28q0 92 45 222q104 280 320 542q158 188 340 320q17 14 22 31
q6 19 37 45q79 64 215 92q71 12 143 12h58zM1071 1319q1 -3 4 -5.5t5.5 -3.5t6 -2.5t5.5 -2.5q29 -25 38 -48q5 -15 5 -20q0 -16 -11 -20h-4q-19 0 -26 22q-5 18 -27 18h-8q-44 -7 -78 -20q-100 -41 -213 -119q-308 -217 -516 -551q-103 -156 -156 -321q-17 -58 -28 -146
v-16q0 -34 10 -76q30 -125 162 -131h12q100 0 227 43q211 68 428 203q324 204 535 450q101 123 151 234q52 114 52 207q0 5 -1.5 14t-1.5 14q-13 164 -147 224q-29 15 -65 24q-126 35 -273 35q-47 0 -72 -2q-10 0 -14 -4zM1235 1167q54 0 88.5 -33.5t34.5 -80.5
q0 -11 -4 -31q-9 -43 -45 -102q-81 -122 -187 -215q-42 -38 -82 -54q-12 -6 -26 -6q-18 0 -33 12q-8 8 -8 15v4q3 8 16 8q28 0 53 25q68 54 152 168q41 55 72 122q15 34 20 58q2 6 2 16q0 14 -16 14q-9 0 -15 -2q-22 -4 -57 -20q-106 -51 -233 -158q-208 -183 -353 -393
q-81 -114 -120 -207q-18 -47 -27 -96v-23q3 -17 9 -22.5t20 -5.5h8q32 5 43 10q314 119 518 252q6 4 18.5 13.5t18.5 13.5q6 6 18 10q2 2 6 2q14 0 17 -10q2 -2 2 -7q0 -10 -8 -14q-8 -6 -23 -17.5t-28 -21t-25 -16.5q-121 -82 -336 -185q-87 -43 -141 -61q-40 -16 -76 -16
q-23 0 -35 4q-74 24 -74 94v6q0 42 33 131q45 101 135 236q140 202 297 352q118 114 221 176q57 37 113 51q28 4 37 4z" />
    <glyph glyph-name="ordfeminine" unicode="&#xaa;" horiz-adv-x="393" 
d="M186 1053q-86 -60 -96 -66q-10 -10 -22 -16q-8 -4 -21 -4q-17 0 -29 10q-16 13 -16 33q0 1 1 4.5t1 5.5q1 2 2 7t2 7q45 102 127 164q30 23 55 23q31 0 62 -25q15 -12 20 -12t19 14q3 3 8 9.5t8 9.5q10 10 19 10q7 0 20 -10q21 -21 21 -35q0 -15 -17 -35
q-80 -89 -108 -123q-58 -72 -86 -129q0 -1 -3 -6.5t-5.5 -7.5t-6.5 -2q-14 0 -22 16q-2 4 -2 14q0 15 6 27q7 15 51 92q10 16 12 25zM115 1059q76 53 96 76q-46 -19 -96 -76z" />
    <glyph glyph-name="guillemotleft" unicode="&#xab;" horiz-adv-x="897" 
d="M477 907q37 0 55 -35q7 -11 7 -18q0 -9 -9 -16t-22 -7h-8q-9 0 -29 -8q-174 -73 -346 -188q-12 -8 -33 -29q-14 -14 -14 -24q0 -11 14 -25q52 -44 80 -65q130 -97 193 -138q26 -16 26 -26q0 -4 -2 -6q-6 -9 -12 -9q-12 0 -27 15q-88 50 -205 137q-46 31 -79 57
q-28 25 -41 45q-17 27 -17 45q0 29 25 54q34 34 73 57q127 89 261 151q70 30 100 33h10zM809 901q37 0 55 -37q4 -6 4 -16q0 -23 -26 -23h-13q-12 0 -28 -8q-185 -71 -352 -176q-18 -12 -35 -29q-15 -15 -15 -24q0 -6 15 -25q8 -8 78 -67q15 -12 44.5 -36.5t47.5 -39
t44.5 -34t49.5 -34.5q24 -14 24 -26q0 -7 -2 -9q-6 -6 -10 -6q-8 0 -28 15q-122 81 -199 143q-70 52 -80 61q-29 29 -39 45q-14 22 -14 46q0 30 26 53q24 24 76 55q137 86 264 143q70 25 103 29h10z" />
    <glyph glyph-name="logicalnot" unicode="&#xac;" horiz-adv-x="591" 
d="M481 578q-6 4 -18 4h-51q-76 0 -267 -13h-26q-24 0 -74 4q-29 6 -39 33q-2 4 -2 12q0 14 16 19q12 4 37 4q217 8 328 10h23q30 0 96 -4q39 -3 59 -45q4 -6 4 -20q0 -16 -8 -27q-5 -10 -18 -20q-21 -22 -131 -132l-13 -12q-12 -8 -18 -8t-12 6q-11 7 -11 17q0 7 6 16
q9 12 21 24q40 52 88 109q10 10 10 23z" />
    <glyph glyph-name="registered" unicode="&#xae;" horiz-adv-x="1257" 
d="M555 1202q-12 -11 -34 -29t-32 -28l-139 -139q-5 -3 -12.5 -12t-9.5 -11q-6 -6 -17 -6q-7 0 -16 6q-10 10 -10 21q0 6 2 10q14 28 20 37q44 68 113 147q122 144 242 256q40 40 73 62q13 8 27 8q17 0 33 -19q10 -10 10 -22q0 -14 -14 -25q-27 -20 -74 -67q-8 -8 -8 -15
q3 2 15.5 11t18.5 12q89 54 160 74q28 8 41 8h6q32 0 51 -31q7 -14 7 -23q0 -16 -11 -34q-23 -33 -59 -58q-124 -96 -301 -118q-19 -3 -24 -6t-5 -11q0 -2 1 -7.5t1 -8.5q4 -48 8 -74q0 -11 7 -25q14 -45 53 -45q12 0 18 2q43 6 111 45q195 114 303 289q64 106 64 199
q0 63 -28.5 101t-88.5 55q-46 14 -101 14q-54 0 -106 -12q-175 -33 -358 -164q-196 -142 -320 -338q-89 -141 -102 -270q-2 -14 -2 -41q0 -54 20 -101q30 -79 117 -94q35 -6 65 -6q67 0 154 24q103 31 227 109q269 165 459 358q14 14 16 17q8 4 13 4q6 0 12 -6q4 -4 4 -8
q0 -7 -6 -13q-3 -3 -9.5 -10t-9.5 -10q-155 -163 -364 -307q-119 -84 -191 -121q-153 -78 -282 -78h-25q-54 0 -112 22q-141 60 -150 218q0 5 -1 14.5t-1 13.5q0 95 49 207q88 202 273 373q151 142 315 213q155 67 281 67q6 0 18 -1t18 -1q104 -7 170 -59q93 -78 93 -182
q0 -28 -11 -74q-20 -85 -75 -162q-127 -182 -320 -291q-38 -22 -84 -32q-30 -5 -35 -5q-62 0 -104 60q-23 35 -29 82q-1 6 -4 26.5t-4 34.5zM633 1266q64 9 121 30q111 42 178 109q18 18 18 25v2h-10q-50 0 -143 -51.5t-164 -114.5z" />
    <glyph glyph-name="macron" unicode="&#xaf;" horiz-adv-x="423" 
d="M236 1440q55 0 108 -6q34 -4 47 -19q6 -9 6 -16q0 -16 -20 -19h-47q-97 0 -211 -26l-37 -6h-10q-37 0 -58 34q-8 11 -8 21q0 14 23 24q3 0 13.5 3.5t16.5 3.5q22 0 64.5 3t62.5 3h50z" />
    <glyph glyph-name="degree" unicode="&#xb0;" horiz-adv-x="235" 
d="M213 1393q0 -38 -27 -68q-36 -38 -94 -51q-2 0 -6 -1t-6 -1q-28 0 -51 22t-23 49v9q13 75 60 125q22 22 40 22q12 0 35 -10q40 -19 64 -66q8 -20 8 -26v-4zM166 1409q0 2 -4 14q-4 11 -10 11q-7 0 -9 -2q-53 -33 -75 -97q0 -1 -1 -3t-1 -3q0 -8 10 -8q1 0 3 1t3 1
q50 15 68 41q16 19 16 45z" />
    <glyph glyph-name="plusminus" unicode="&#xb1;" horiz-adv-x="1265" 
d="M684 600h-70q-23 -2 -65.5 -5t-76.5 -6t-64 -7q-71 -8 -248 -43q-15 -6 -27 -15q-12 -8 -16 -8q-7 0 -17 10t-10 27q0 20 14 31q16 14 56 26q61 18 145 25q148 14 324 14h63q36 0 56 29q98 147 188 229q50 44 70 51q10 5 24 5q28 0 45 -23q8 -12 8 -18q0 -9 -16 -19
q-20 -10 -47 -37q-122 -116 -193 -198q-8 -8 -8 -13v-4q31 -4 101 -8q109 -3 217 -27q23 -4 69 -20q5 -3 19 -8q1 -1 6.5 -5.5t7.5 -7.5t2 -8v-4q-3 -6 -10 -6q-1 0 -19 6q-76 29 -219 37q-36 2 -102.5 2.5t-87.5 1.5q-31 0 -51 -26q-191 -241 -312 -447l-6 -12
q-9 -13 -16 -13q-3 0 -6 3q-15 7 -15 18q0 2 1 4.5t1 3.5q1 10 17 41q74 137 196 311q47 67 66 93q0 1 3 6t3 10v4zM623 -6q143 0 266 -12q27 -3 47 -11q12 -8 12 -16v-4q-2 -10 -14 -10h-6q-1 0 -35 3t-51 3q-18 0 -54 1t-53 1q-117 0 -213 -8q-281 -24 -411 -58
q-5 -1 -15.5 -3.5t-16.5 -4t-13.5 -7t-12.5 -13.5q-3 -5 -10 -5q-5 0 -8 3q-30 15 -33 49v4q0 18 27 37q33 14 69 20q109 12 113 12q30 1 135.5 8t163.5 7q21 0 55 2t45 2h13z" />
    <glyph glyph-name="twosuperior" unicode="&#xb2;" horiz-adv-x="360" 
d="M147 940q14 -2 43 -5t43 -5q24 -2 62 -10q14 -3 22 -9q15 -10 15 -20q0 -1 -1 -3t-1 -3q-3 -6 -11 -6q-2 0 -6 1t-6 1q-94 8 -143 8h-23q-8 -1 -21.5 -2.5t-25 -2.5t-22.5 -1h-11q-32 0 -49 26q-8 16 -8 21q0 9 19 22q61 31 114 70q47 31 94 78q18 18 21 26q-7 7 -12 7
q-2 0 -6 -1.5t-5 -1.5q-38 -8 -59 -24q-12 -12 -18 -12q-7 0 -13 6q-12 9 -12 28v9q3 16 20 26q38 30 99 37h6q27 0 48.5 -25t21.5 -55q0 -14 -7 -28q-8 -21 -28 -41q-38 -40 -113 -86q-1 -1 -8.5 -5.5t-11.5 -9t-7 -10.5z" />
    <glyph glyph-name="threesuperior" unicode="&#xb3;" horiz-adv-x="299" 
d="M188 1137q-6 2 -16 2q-12 0 -18 -11q-10 -10 -13 -10q-1 0 -3 1t-3 1q-11 3 -18.5 14.5t-7.5 24.5q0 20 12 29q20 20 57 20q27 0 51.5 -11.5t34.5 -31.5t10 -30q0 -19 -18 -37q-19 -22 -72 -56q-28 -19 -34 -26q0 -4 2 -6.5t3.5 -4t5.5 -3.5t5 -3q30 -16 47 -55
q4 -16 4 -22q0 -29 -31 -41q-10 -5 -16 -7q-54 -15 -131 -43q-8 -4 -12 -4h-4q-10 0 -17 11q-4 8 -4 12t4 12q7 7 27 17l86 43q26 13 35 24q-10 15 -41 19q-2 1 -14.5 4.5t-18.5 7.5q-25 13 -25 39q0 19 19 35q15 12 43.5 31t34.5 24q25 17 36 31z" />
    <glyph glyph-name="acute" unicode="&#xb4;" horiz-adv-x="323" 
d="M80 1329q-35 3 -62 33q-12 12 -12 20q0 15 25 21q77 20 176 67q22 11 37 21q12 6 20 6q13 0 25 -12q10 -7 10 -19q0 -8 -8 -16q-10 -10 -19 -16q-41 -29 -153 -93q-18 -9 -39 -12z" />
    <glyph glyph-name="mu" unicode="&#xb5;" horiz-adv-x="583" 
d="M135 690q2 -2 2 -8q0 -11 -12 -23q-59 -67 -90 -104q-6 -12 -29 -39q9 0 21 4q3 1 8 4.5t6 3.5q2 0 4 2q77 43 170 109q2 1 10 6t13 8q9 7 26 17l12 6q8 4 13 4q11 0 20 -12q8 -8 8 -21q0 -5 -6 -14q-11 -17 -28 -37q-41 -45 -58 -82q-2 -4 -2 -12t10 -8h7q28 5 65 16
l66 20q119 38 215 74q6 4 22 8h4q10 0 13 -8l2 -4q0 -4 -2 -6q-1 -1 -4.5 -3t-4.5 -3q-11 -8 -28 -15q-140 -57 -295 -108q-25 -7 -45 -10h-10q-54 0 -60 55q0 7 4 27q4 8 6 14l5 10l4 10q-32 -8 -50 -26l-41 -25q-57 -35 -73 -43q-9 -3 -15 -6l-16 -8q-4 -2 -14 -2
q-17 0 -29 12q-12 9 -12 29v8q0 18 10 35q13 27 47 80l-27 -19q-64 -42 -100 -78q-78 -68 -133 -149q-1 -1 -2 -3t-2 -3q-3 -6 -6 -15q-2 -6 2 -18q0 -6 -2 -8q-3 -3 -10 0q-20 8 -35 30q-11 17 -8 33q3 27 12 41q0 2 2 2q22 35 47 58q79 70 172 135q24 17 61 39
q52 34 115 49h6q6 0 10 2q7 0 9 -2q12 -8 16 -14l4 -9v-6z" />
    <glyph glyph-name="paragraph" unicode="&#xb6;" horiz-adv-x="2129" 
d="M1049 451q18 1 52 4t52 4q21 0 57 4q17 0 21 -6q6 -3 6 -8t-6 -11q-12 -4 -19 -4q-47 -6 -155 -14q-47 -3 -74 -37q-293 -364 -399 -506q-10 -15 -31 -42.5t-31 -41.5q-2 -2 -6 -7t-6 -7q-5 -8 -14 -8q-5 0 -9 2q-8 8 -8 16q0 4 2 6q7 17 15 25q105 157 274 375
q24 32 74 94t74 94l12 18q-5 7 -15 7t-16 -2q-14 -1 -76.5 -6.5t-95.5 -6.5q-50 0 -78 -41q-217 -283 -338 -454q-27 -40 -51 -78q-2 -3 -6 -10.5t-6 -10.5q-7 -10 -17 -10q-6 0 -10 2q-12 6 -12 16q0 3 4 11l18 37q44 75 177 258q22 32 174 237q1 2 7 10.5t7 14.5
q-2 8 -12 8h-6l-228 -12q-16 0 -50 -1t-50 -1q-50 0 -103 6q-55 10 -94 37q-45 36 -45 80q0 14 6 32q6 30 37 78q63 96 172 184q439 374 987 553q205 68 394 91q94 8 139 8q73 0 147 -15q104 -18 156 -75q49 -52 49 -117q0 -35 -18 -76q-21 -45 -74 -102q-77 -86 -188 -160
q-224 -155 -445 -240q-102 -39 -166 -43q-35 0 -57 -28q-76 -93 -103 -125q1 -1 2.5 -3t2.5 -3zM1333 1294q0 2 -2 4q-51 -13 -119 -34q-418 -131 -798 -400q-162 -115 -262 -225q-45 -48 -66 -92q-17 -27 -20 -53v-17q0 -25 11 -37t40 -16q56 -12 143 -12q150 0 342 10
q34 3 53 27q64 85 340 444q123 159 265 317q13 14 37 41.5t36 42.5zM721 432q8 -4 14 -4q3 0 9.5 1t9.5 1q143 10 172 10q39 3 63 33q315 401 436 541q156 181 279 289q57 46 63 51q-2 4 -8 4h-22q-91 0 -240 -23q-24 -7 -31 -24q-8 -22 -39 -58q-48 -55 -237 -254
q-183 -197 -459 -542q-1 -3 -4 -7t-4.5 -7t-1.5 -7v-4zM1219 664q8 -2 14 -2q13 4 37.5 11t36.5 11q226 83 460 250q117 84 187 162q66 74 82 133q6 18 6 33q0 32 -45 55q-79 38 -195 41q23 -38 23 -47q0 -13 -29 -45q-41 -45 -127 -127q-196 -187 -377 -389
q-53 -57 -73 -86z" />
    <glyph glyph-name="periodcentered" unicode="&#xb7;" horiz-adv-x="122" 
d="M102 594q-4 -25 -24 -35q-8 -4 -15 -4q-13 0 -24 14q-3 3 -9.5 8.5t-9.5 8.5q-12 15 -12 30q0 28 29 41q4 2 14 2q19 -3 35 -23t16 -42z" />
    <glyph glyph-name="periodcentered" unicode="&#x2219;" horiz-adv-x="122" 
d="M102 594q-4 -25 -24 -35q-8 -4 -15 -4q-13 0 -24 14q-3 3 -9.5 8.5t-9.5 8.5q-12 15 -12 30q0 28 29 41q4 2 14 2q19 -3 35 -23t16 -42z" />
    <glyph glyph-name="cedilla" unicode="&#xb8;" horiz-adv-x="319" 
d="M88 -141q-30 0 -50 20.5t-20 48.5q0 21 11 37q14 25 43 41q56 29 86 35q19 3 32 22q1 1 12.5 20.5t18.5 29.5q9 18 23 18q9 0 22 -10q25 -19 25 -39q0 -14 -10 -31q-70 -102 -113 -147q-13 -18 -39 -33q-20 -12 -35 -12h-6zM137 -14q-51 -22 -67 -60q-4 -4 -4 -10
q0 -7 6 -10q1 0 2 -1t2 -1q4 0 12 8q33 33 49 74z" />
    <glyph glyph-name="onesuperior" unicode="&#xb9;" horiz-adv-x="303" 
d="M283 1157q0 -14 -17 -27q-78 -73 -160 -178q-35 -40 -63 -92q-8 -16 -14 -16q-7 0 -9 2q-18 6 -18 22q0 1 1 4.5t1 4.5q5 20 23 49q41 70 90 135q15 22 44 61.5t32 44.5q6 6 16 21q14 14 27 14q8 0 12 -2q28 -13 35 -43z" />
    <glyph glyph-name="ordmasculine" unicode="&#xba;" horiz-adv-x="296" 
d="M276 1081q0 -30 -22 -63q-52 -78 -150 -121q-16 -8 -36 -8q-22 0 -41 16q-23 20 -23 53q0 15 2 23q9 27 21 51q49 86 123 150q21 18 38 18t35 -24q13 -16 45 -62q8 -13 8 -33zM70 940q5 4 34 21q79 53 107 104q10 17 10 35q0 10 -8 10q-6 0 -8 -2q-8 -4 -10 -8
q-70 -66 -103 -113q-20 -24 -22 -47z" />
    <glyph glyph-name="guillemotright" unicode="&#xbb;" horiz-adv-x="897" 
d="M399 311q-37 0 -55 35q-6 9 -6 19q0 9 7.5 15.5t19.5 6.5h10q11 0 31 8q170 72 346 189q12 8 32 28q15 15 15 25q0 13 -15 25q-58 50 -79 65q-144 108 -193 137q-27 16 -27 27q0 4 2 6q5 8 13 8t26 -12q78 -47 205 -137q76 -56 80 -60q28 -25 41 -45q16 -26 16 -45
q0 -29 -24 -53q-32 -32 -74 -57q-134 -93 -260 -152q-63 -27 -100 -33h-11zM68 317q-38 0 -56 37q-4 6 -4 17q0 22 25 22h6q17 0 37 8q181 69 352 177q21 14 35 28t14 25q0 13 -14 24q-39 39 -78 68q-12 9 -44 35.5t-48.5 39.5t-43.5 33t-50 35q-25 15 -25 27q0 6 2 8
q5 8 10 8q8 0 29 -16q102 -65 199 -143q65 -48 80 -62q21 -18 38 -45q15 -24 15 -45q0 -29 -27 -53q-40 -34 -76 -56q-140 -89 -264 -141q-63 -27 -102 -31h-10z" />
    <glyph glyph-name="onequarter" unicode="&#xbc;" horiz-adv-x="1431" 
d="M1262 1229q-35 -14 -127 -70q-210 -132 -586 -391l-166 -111q-25 -15 -53 -28q-12 -6 -27 -6q-16 0 -31 12q-18 15 -18 37q0 6 4 18q11 52 53 127q125 226 330 457q4 2 8 6q18 18 37 18q31 0 43 -38q0 -1 1 -4.5t1 -4.5q0 -7 -14 -30q-16 -18 -46.5 -53.5t-45.5 -53.5
q-158 -179 -252 -319q-40 -62 -56 -95q-10 -25 -10 -32q4 -4 8 -4q1 0 13 6q44 23 102 63q4 3 567 383q197 129 293 184q30 19 53 29q12 6 21 6q12 0 25 -10q16 -19 16 -35q0 -12 -4 -18q-3 -10 -12 -23q-11 -15 -41 -49q-73 -74 -213 -207.5t-193 -185.5
q-118 -118 -211 -219q-99 -106 -301 -330q-230 -258 -334 -397q-38 -51 -57 -82q-10 -15 -16 -15q-4 0 -7 3q-12 6 -12 20q0 6 2 10q15 31 27 47q51 77 182 240q173 207 586 670q146 164 438 450q4 4 11.5 12.5t11.5 12.5zM965 272q-56 -3 -115 -16q-38 -6 -164 -33
q-6 -2 -20 -2q-44 0 -64 39q-6 12 -6 23q0 14 12 26q15 15 47 39q166 116 326 211q15 10 37 21q4 2 12 2q17 0 30 -12t13 -29q0 -16 -14 -23q-43 -30 -64 -41q-142 -88 -225 -145q-2 -2 -8.5 -5.5t-10.5 -7.5t-6 -8q12 -4 17 -4q3 0 8.5 1t7.5 1q128 13 185 13h22
q18 0 35 20q78 98 121 145q67 71 112 99q17 10 31 10q21 0 37 -25q6 -9 6 -16q0 -8 -8 -16q-2 -2 -5.5 -6t-6.5 -7t-7 -6q-290 -259 -540 -602q-7 -10 -21.5 -31.5t-21.5 -31.5q-10 -15 -17 -15q-4 0 -8 2q-14 7 -14 21q0 1 1 4t1 4q15 30 18 35q53 87 113 164l135 178
q4 6 19 24z" />
    <glyph glyph-name="onehalf" unicode="&#xbd;" horiz-adv-x="1474" 
d="M1325 1227q-17 -2 -39 -15q-161 -84 -371 -219q-62 -40 -183 -119.5t-183 -119.5q-60 -38 -98 -56q-12 -6 -25 -6q-12 0 -23 8q-16 16 -16 33q0 9 4 21q9 34 39 80q146 233 326 413q6 7 37 33q13 10 24 10q13 0 23 -10q20 -20 20 -37q0 -4 -4 -16q-6 -14 -29 -37
l-129 -135q-130 -133 -217 -246q-42 -60 -49 -76q20 5 60 27q68 39 167 106q370 246 496 320q30 18 89.5 51.5t88.5 50.5q1 1 56 25q12 4 16 4q15 0 29 -17q14 -18 14 -32q0 -11 -4 -17q-5 -13 -19 -30q-23 -32 -61 -70q-59 -60 -287 -274q-315 -294 -567 -564
q-178 -187 -227 -243q-171 -184 -240 -273q-11 -16 -18 -16t-9 2q-12 6 -12 20q0 8 6 17q34 54 92 119q123 146 412 458q317 347 553 578l229 223zM668 -2q121 -4 196 -18q27 -2 64 -17q20 -8 30 -16q1 -2 5 -6t6 -7.5t2 -7.5t-2 -6q-3 -6 -8 -6t-17 6q-35 12 -86 19
q-62 6 -121 6q-92 0 -211 -17q-5 0 -16.5 -1t-17.5 -1q-19 2 -35.5 15t-20.5 32q-2 4 -2 13q0 14 21 28q15 10 46 32t46 32q194 127 354 301q39 42 74 92q3 5 8 15.5t8 15.5q2 2 2 6q0 8 -12 8h-6q-28 0 -66.5 -20.5t-50.5 -42.5q-6 -13 -14 -13q-6 0 -15 6q-18 15 -18 37
q0 19 12 31q63 69 156 72q29 0 53 -25.5t27 -58.5q0 -2 1 -7.5t1 -7.5q0 -30 -21 -65q-31 -49 -84 -105q-97 -99 -268 -223q-20 -15 -123 -88l4 -8h99z" />
    <glyph glyph-name="threequarters" unicode="&#xbe;" horiz-adv-x="1445" 
d="M1343 1319q-20 -1 -77 -16q-110 -33 -281 -115q-241 -113 -457 -248q-13 -9 -14 -12q1 -5 3.5 -8t6.5 -6t6 -5q60 -57 60 -118q0 -58 -47 -111q-83 -95 -213 -154q-93 -42 -187 -51h-18q-17 0 -45 4q-30 6 -47 26.5t-17 47.5q0 20 13 43q22 39 77 90q77 69 236 182
q1 0 6.5 3.5t8.5 6t5 7.5q-8 4 -12 4q-3 0 -8 -1t-8 -1q-9 -1 -26.5 -3t-26.5 -3h-5q-22 0 -36.5 13.5t-16.5 33.5v4q0 16 21 29q63 44 127 98q90 73 145 141q8 8 14 17q11 17 11 20q0 4 -2 6q-6 6 -15 6q-2 0 -6.5 -1t-7.5 -1q-91 -17 -158 -59q-30 -19 -37 -43
q-4 -15 -12 -15q-3 0 -14 11q-13 16 -13 39q0 24 13 43q12 16 28 28q94 64 189 64h16q36 -1 61 -27.5t25 -62.5q0 -11 -4 -27q-8 -35 -41 -68q-66 -75 -164 -149q-7 -5 -30 -25q47 0 84 -6h6q9 0 26 13q228 140 494 268q148 69 268 112q48 18 92 27q6 2 15 2q25 0 41 -16
t16 -41q0 -17 -4 -25q-6 -19 -31 -53q-63 -78 -106 -119q-36 -36 -107.5 -108.5t-107.5 -108.5q-328 -325 -658 -723q-173 -211 -278 -360q-7 -9 -20.5 -29t-20.5 -29q-1 -1 -3 -4.5t-4 -5.5t-5 -2q-1 0 -2.5 1t-2.5 1q-14 6 -14 21q0 11 14 34q56 87 125 179
q121 162 418 520q147 182 303 354q148 164 318 334q17 17 51 52.5t51 53.5q2 2 7 9t9 12zM92 532q15 0 27 3q203 29 358 190q38 42 49 86q2 4 2 14q0 11 -6 23q-24 31 -67 31q-17 0 -35 -11q-156 -102 -258 -194q-62 -51 -92 -96q-15 -25 -15 -29q0 -6 2 -10q5 -7 15 -7h20z
M750 281q62 6 168 14q4 0 7.5 1t6.5 4t4.5 5t5 6t4.5 6q50 67 105 132q52 55 88 83q19 13 32 13q22 0 37 -27q9 -18 9 -22q0 -12 -13 -25q-6 -9 -30 -33q-21 -22 -75.5 -75.5t-82.5 -83.5q-131 -137 -236 -283q-50 -76 -61 -105q-6 -14 -17 -14q-8 0 -16 8t-8 21q0 6 4 18
q6 17 33 70q56 91 139 203q4 6 13.5 18t13.5 18q-6 3 -15 3q-6 0 -26 -5q-33 -6 -91.5 -20t-74.5 -18q-30 -5 -39 -5q-24 0 -45 21q-17 17 -17 29t19 28q50 42 117 86q139 92 229 144q20 10 23 12q8 4 20 4q21 0 35 -20q8 -11 8 -21q0 -9 -12 -18q-55 -39 -66 -45
q-28 -17 -84.5 -51t-83.5 -52q-2 -1 -8 -4.5t-11 -8t-9 -11.5z" />
    <glyph glyph-name="questiondown" unicode="&#xbf;" horiz-adv-x="1351" 
d="M436 -887q338 9 584 221q55 49 88 111q8 13 16 43v10q0 21 -14 33q-8 4 -8 14q0 5 4 9t10 4q5 0 12 -7q50 -29 50 -79v-9q0 -43 -33 -104q-38 -62 -111 -121q-166 -125 -399 -172q-117 -20 -209 -20q-9 0 -26.5 1t-26.5 1q-117 7 -207 45q-28 10 -64 35q-37 26 -58 69
t-21 90q0 41 18 82q29 65 88 121q67 73 201 174q39 32 111 88t130.5 102.5t108.5 90.5q240 212 395 385q37 43 53 71q9 13 13 13h4q10 -2 14 -19v-6q0 -11 -12 -31q-29 -48 -98 -125q-130 -144 -402 -393q-53 -50 -113.5 -101t-138.5 -115.5t-116 -96.5q-105 -83 -160 -156
q-36 -52 -45 -88q-4 -16 -4 -20q0 -25 18 -43q22 -28 59 -47q65 -38 158 -52q70 -8 109 -8h22zM1200 588q0 25 22.5 51t45.5 27h4q20 0 34.5 -15.5t14.5 -34.5q0 -4 -4 -16q-14 -35 -53 -59q-8 -4 -15 -4q-14 0 -29.5 12t-19.5 29v10z" />
    <glyph glyph-name="Agrave" unicode="&#xc0;" horiz-adv-x="2727" 
d="M2304 635q12 -2 35 -2q7 0 21.5 1t21.5 1q89 6 178 6q101 0 180 -8h10q21 -4 21 -17v-4q-2 -10 -16 -10h-7q-47 6 -141 6h-70q-138 -3 -247 -14q-27 -3 -43 -25q-277 -351 -453 -589q-21 -29 -57 -79t-66 -91.5t-57 -77.5q-30 -36 -33 -39q-12 -8 -22 -8q-9 0 -15 2
q-16 10 -16 32q4 30 8 43q4 19 15 63t17 69.5t12.5 62.5t10.5 68q2 25 2 69q0 116 -41 199q-12 18 -14 22q-6 13 -14 13q-6 0 -15 -9l-28 -20q-296 -222 -484 -342q-221 -141 -356 -193q-125 -47 -225 -47h-17q-18 4 -18 17q0 12 18 16q7 1 30 1.5t34 2.5q99 19 213 74
q163 75 319 182q182 113 475 332q25 22 25 29q0 9 -22 28q-45 40 -123 80q-27 15 -60 15h-22q-50 -6 -150.5 -19.5t-150.5 -19.5q-16 -2 -383 -54q-175 -26 -367 -51q-67 -12 -135 -18l-14 -2q-27 0 -48 12q-16 13 -16 25q0 9 16 22q47 27 76 35q251 99 551 145
q126 22 244 25l51 2q178 0 320 -45q24 -8 57 -8q25 0 37 2q38 4 114.5 12t114.5 12q35 5 180 19q25 2 56 22l393 320q248 199 459 383q159 138 315 276q16 14 97.5 87t127.5 110q3 2 10.5 8t10.5 8q11 8 24 8q11 0 18 -8.5t7 -23.5l2 -6q0 -10 -14 -33q-11 -12 -36 -41.5
t-40 -44.5q-55 -60 -161.5 -175.5t-119.5 -129.5q-270 -289 -551 -631q-6 -8 -18.5 -23t-23 -29t-17.5 -30zM2169 565q5 10 8 13v4q-4 2 -4 4h-14q-55 -4 -328 -29q-15 0 -39 -16q-36 -29 -109.5 -86t-109.5 -86q-14 -11 -14 -19q0 -7 6 -16q71 -114 71 -264q0 -56 -8 -105
q-4 -28 -15.5 -87t-15.5 -89zM1876 604q16 -4 22 -4t19 2t20 2q29 2 112.5 10.5t129.5 10.5q36 0 66 37q297 381 632 745q16 20 48 53.5t43 46.5q-399 -343 -1092 -903zM102 381q432 66 1092 147l-20 9q-114 20 -242 20q-90 0 -158 -8q-173 -15 -412 -76q-182 -56 -260 -92z
M1386 506q2 -4 5.5 -7.5t9.5 -6.5t8 -5q62 -42 104 -84q9 -12 17 -12q2 0 18 8q40 32 168 129q0 2 2 5.5t2 5.5q0 1 -1 3t-1 3q-55 -7 -165.5 -19.5t-166.5 -19.5zM3342 1882q-21 3 -39 12q-112 64 -153 93q-9 6 -19 16q-8 8 -8 16q0 11 10 19q12 12 25 12q8 0 20 -6
q15 -10 37 -21q99 -47 176 -67q25 -6 25 -21q0 -8 -12 -20q-27 -30 -62 -33z" />
    <glyph glyph-name="Aacute" unicode="&#xc1;" horiz-adv-x="2727" 
d="M2304 635q12 -2 35 -2q7 0 21.5 1t21.5 1q89 6 178 6q101 0 180 -8h10q21 -4 21 -17v-4q-2 -10 -16 -10h-7q-47 6 -141 6h-70q-138 -3 -247 -14q-27 -3 -43 -25q-277 -351 -453 -589q-21 -29 -57 -79t-66 -91.5t-57 -77.5q-30 -36 -33 -39q-12 -8 -22 -8q-9 0 -15 2
q-16 10 -16 32q4 30 8 43q4 19 15 63t17 69.5t12.5 62.5t10.5 68q2 25 2 69q0 116 -41 199q-12 18 -14 22q-6 13 -14 13q-6 0 -15 -9l-28 -20q-296 -222 -484 -342q-221 -141 -356 -193q-125 -47 -225 -47h-17q-18 4 -18 17q0 12 18 16q7 1 30 1.5t34 2.5q99 19 213 74
q163 75 319 182q182 113 475 332q25 22 25 29q0 9 -22 28q-45 40 -123 80q-27 15 -60 15h-22q-50 -6 -150.5 -19.5t-150.5 -19.5q-16 -2 -383 -54q-175 -26 -367 -51q-67 -12 -135 -18l-14 -2q-27 0 -48 12q-16 13 -16 25q0 9 16 22q47 27 76 35q251 99 551 145
q126 22 244 25l51 2q178 0 320 -45q24 -8 57 -8q25 0 37 2q38 4 114.5 12t114.5 12q35 5 180 19q25 2 56 22l393 320q248 199 459 383q159 138 315 276q16 14 97.5 87t127.5 110q3 2 10.5 8t10.5 8q11 8 24 8q11 0 18 -8.5t7 -23.5l2 -6q0 -10 -14 -33q-11 -12 -36 -41.5
t-40 -44.5q-55 -60 -161.5 -175.5t-119.5 -129.5q-270 -289 -551 -631q-6 -8 -18.5 -23t-23 -29t-17.5 -30zM2169 565q5 10 8 13v4q-4 2 -4 4h-14q-55 -4 -328 -29q-15 0 -39 -16q-36 -29 -109.5 -86t-109.5 -86q-14 -11 -14 -19q0 -7 6 -16q71 -114 71 -264q0 -56 -8 -105
q-4 -28 -15.5 -87t-15.5 -89zM1876 604q16 -4 22 -4t19 2t20 2q29 2 112.5 10.5t129.5 10.5q36 0 66 37q297 381 632 745q16 20 48 53.5t43 46.5q-399 -343 -1092 -903zM102 381q432 66 1092 147l-20 9q-114 20 -242 20q-90 0 -158 -8q-173 -15 -412 -76q-182 -56 -260 -92z
M1386 506q2 -4 5.5 -7.5t9.5 -6.5t8 -5q62 -42 104 -84q9 -12 17 -12q2 0 18 8q40 32 168 129q0 2 2 5.5t2 5.5q0 1 -1 3t-1 3q-55 -7 -165.5 -19.5t-166.5 -19.5zM3271 1905q-36 3 -62 32q-12 12 -12 21q0 14 25 20q73 19 176 68q24 12 36 20q14 7 21 7q12 0 25 -13
q10 -8 10 -18q0 -9 -8 -17q-10 -10 -19 -16q-34 -25 -153 -92q-18 -9 -39 -12z" />
    <glyph glyph-name="Acircumflex" unicode="&#xc2;" horiz-adv-x="2727" 
d="M2304 635q12 -2 35 -2q7 0 21.5 1t21.5 1q89 6 178 6q101 0 180 -8h10q21 -4 21 -17v-4q-2 -10 -16 -10h-7q-47 6 -141 6h-70q-138 -3 -247 -14q-27 -3 -43 -25q-277 -351 -453 -589q-21 -29 -57 -79t-66 -91.5t-57 -77.5q-30 -36 -33 -39q-12 -8 -22 -8q-9 0 -15 2
q-16 10 -16 32q4 30 8 43q4 19 15 63t17 69.5t12.5 62.5t10.5 68q2 25 2 69q0 116 -41 199q-12 18 -14 22q-6 13 -14 13q-6 0 -15 -9l-28 -20q-296 -222 -484 -342q-221 -141 -356 -193q-125 -47 -225 -47h-17q-18 4 -18 17q0 12 18 16q7 1 30 1.5t34 2.5q99 19 213 74
q163 75 319 182q182 113 475 332q25 22 25 29q0 9 -22 28q-45 40 -123 80q-27 15 -60 15h-22q-50 -6 -150.5 -19.5t-150.5 -19.5q-16 -2 -383 -54q-175 -26 -367 -51q-67 -12 -135 -18l-14 -2q-27 0 -48 12q-16 13 -16 25q0 9 16 22q47 27 76 35q251 99 551 145
q126 22 244 25l51 2q178 0 320 -45q24 -8 57 -8q25 0 37 2q38 4 114.5 12t114.5 12q35 5 180 19q25 2 56 22l393 320q248 199 459 383q159 138 315 276q16 14 97.5 87t127.5 110q3 2 10.5 8t10.5 8q11 8 24 8q11 0 18 -8.5t7 -23.5l2 -6q0 -10 -14 -33q-11 -12 -36 -41.5
t-40 -44.5q-55 -60 -161.5 -175.5t-119.5 -129.5q-270 -289 -551 -631q-6 -8 -18.5 -23t-23 -29t-17.5 -30zM2169 565q5 10 8 13v4q-4 2 -4 4h-14q-55 -4 -328 -29q-15 0 -39 -16q-36 -29 -109.5 -86t-109.5 -86q-14 -11 -14 -19q0 -7 6 -16q71 -114 71 -264q0 -56 -8 -105
q-4 -28 -15.5 -87t-15.5 -89zM1876 604q16 -4 22 -4t19 2t20 2q29 2 112.5 10.5t129.5 10.5q36 0 66 37q297 381 632 745q16 20 48 53.5t43 46.5q-399 -343 -1092 -903zM102 381q432 66 1092 147l-20 9q-114 20 -242 20q-90 0 -158 -8q-173 -15 -412 -76q-182 -56 -260 -92z
M1386 506q2 -4 5.5 -7.5t9.5 -6.5t8 -5q62 -42 104 -84q9 -12 17 -12q2 0 18 8q40 32 168 129q0 2 2 5.5t2 5.5q0 1 -1 3t-1 3q-55 -7 -165.5 -19.5t-166.5 -19.5zM3258 2054q22 0 41 -16q27 -27 39 -41q24 -28 76 -92q12 -18 12 -19q0 -4 -6 -10q-4 -4 -8 -4q-7 0 -21 14
q-17 15 -46.5 43.5t-36.5 34.5q-18 18 -27 18t-27 -12q-14 -8 -28 -18.5t-32 -24.5t-28 -22q-5 -3 -15.5 -10.5t-15.5 -10.5q-12 -4 -16 -4q-23 0 -35 18q-4 8 -4 13q0 6 4 10q2 3 13 14q55 53 114 99q28 20 47 20z" />
    <glyph glyph-name="Atilde" unicode="&#xc3;" horiz-adv-x="2727" 
d="M2304 635q12 -2 35 -2q7 0 21.5 1t21.5 1q89 6 178 6q101 0 180 -8h10q21 -4 21 -17v-4q-2 -10 -16 -10h-7q-47 6 -141 6h-70q-138 -3 -247 -14q-27 -3 -43 -25q-277 -351 -453 -589q-21 -29 -57 -79t-66 -91.5t-57 -77.5q-30 -36 -33 -39q-12 -8 -22 -8q-9 0 -15 2
q-16 10 -16 32q4 30 8 43q4 19 15 63t17 69.5t12.5 62.5t10.5 68q2 25 2 69q0 116 -41 199q-12 18 -14 22q-6 13 -14 13q-6 0 -15 -9l-28 -20q-296 -222 -484 -342q-221 -141 -356 -193q-125 -47 -225 -47h-17q-18 4 -18 17q0 12 18 16q7 1 30 1.5t34 2.5q99 19 213 74
q163 75 319 182q182 113 475 332q25 22 25 29q0 9 -22 28q-45 40 -123 80q-27 15 -60 15h-22q-50 -6 -150.5 -19.5t-150.5 -19.5q-16 -2 -383 -54q-175 -26 -367 -51q-67 -12 -135 -18l-14 -2q-27 0 -48 12q-16 13 -16 25q0 9 16 22q47 27 76 35q251 99 551 145
q126 22 244 25l51 2q178 0 320 -45q24 -8 57 -8q25 0 37 2q38 4 114.5 12t114.5 12q35 5 180 19q25 2 56 22l393 320q248 199 459 383q159 138 315 276q16 14 97.5 87t127.5 110q3 2 10.5 8t10.5 8q11 8 24 8q11 0 18 -8.5t7 -23.5l2 -6q0 -10 -14 -33q-11 -12 -36 -41.5
t-40 -44.5q-55 -60 -161.5 -175.5t-119.5 -129.5q-270 -289 -551 -631q-6 -8 -18.5 -23t-23 -29t-17.5 -30zM2169 565q5 10 8 13v4q-4 2 -4 4h-14q-55 -4 -328 -29q-15 0 -39 -16q-36 -29 -109.5 -86t-109.5 -86q-14 -11 -14 -19q0 -7 6 -16q71 -114 71 -264q0 -56 -8 -105
q-4 -28 -15.5 -87t-15.5 -89zM1876 604q16 -4 22 -4t19 2t20 2q29 2 112.5 10.5t129.5 10.5q36 0 66 37q297 381 632 745q16 20 48 53.5t43 46.5q-399 -343 -1092 -903zM102 381q432 66 1092 147l-20 9q-114 20 -242 20q-90 0 -158 -8q-173 -15 -412 -76q-182 -56 -260 -92z
M1386 506q2 -4 5.5 -7.5t9.5 -6.5t8 -5q62 -42 104 -84q9 -12 17 -12q2 0 18 8q40 32 168 129q0 2 2 5.5t2 5.5q0 1 -1 3t-1 3q-55 -7 -165.5 -19.5t-166.5 -19.5zM3178 2034q27 0 58 -27q8 -6 22 -20q28 -25 45 -25q10 0 33 10q20 9 88 56q4 2 12.5 7t12.5 7q8 4 10 4
q6 0 14 -8q7 -7 7 -13q0 -5 -9 -14q-78 -69 -104 -88q-17 -14 -43 -14q-13 0 -37 8q-29 13 -61 41q-14 14 -23 14q-8 0 -22 -14q-19 -17 -43 -57q-2 -2 -5 -9t-7 -10.5t-9 -3.5h-6q-11 2 -21.5 12.5t-11.5 22.5q0 1 -1 2t-1 2l2 4q9 70 72 109q8 4 28 4z" />
    <glyph glyph-name="Adieresis" unicode="&#xc4;" horiz-adv-x="2727" 
d="M2304 635q12 -2 35 -2q7 0 21.5 1t21.5 1q89 6 178 6q101 0 180 -8h10q21 -4 21 -17v-4q-2 -10 -16 -10h-7q-47 6 -141 6h-70q-138 -3 -247 -14q-27 -3 -43 -25q-277 -351 -453 -589q-21 -29 -57 -79t-66 -91.5t-57 -77.5q-30 -36 -33 -39q-12 -8 -22 -8q-9 0 -15 2
q-16 10 -16 32q4 30 8 43q4 19 15 63t17 69.5t12.5 62.5t10.5 68q2 25 2 69q0 116 -41 199q-12 18 -14 22q-6 13 -14 13q-6 0 -15 -9l-28 -20q-296 -222 -484 -342q-221 -141 -356 -193q-125 -47 -225 -47h-17q-18 4 -18 17q0 12 18 16q7 1 30 1.5t34 2.5q99 19 213 74
q163 75 319 182q182 113 475 332q25 22 25 29q0 9 -22 28q-45 40 -123 80q-27 15 -60 15h-22q-50 -6 -150.5 -19.5t-150.5 -19.5q-16 -2 -383 -54q-175 -26 -367 -51q-67 -12 -135 -18l-14 -2q-27 0 -48 12q-16 13 -16 25q0 9 16 22q47 27 76 35q251 99 551 145
q126 22 244 25l51 2q178 0 320 -45q24 -8 57 -8q25 0 37 2q38 4 114.5 12t114.5 12q35 5 180 19q25 2 56 22l393 320q248 199 459 383q159 138 315 276q16 14 97.5 87t127.5 110q3 2 10.5 8t10.5 8q11 8 24 8q11 0 18 -8.5t7 -23.5l2 -6q0 -10 -14 -33q-11 -12 -36 -41.5
t-40 -44.5q-55 -60 -161.5 -175.5t-119.5 -129.5q-270 -289 -551 -631q-6 -8 -18.5 -23t-23 -29t-17.5 -30zM2169 565q5 10 8 13v4q-4 2 -4 4h-14q-55 -4 -328 -29q-15 0 -39 -16q-36 -29 -109.5 -86t-109.5 -86q-14 -11 -14 -19q0 -7 6 -16q71 -114 71 -264q0 -56 -8 -105
q-4 -28 -15.5 -87t-15.5 -89zM1876 604q16 -4 22 -4t19 2t20 2q29 2 112.5 10.5t129.5 10.5q36 0 66 37q297 381 632 745q16 20 48 53.5t43 46.5q-399 -343 -1092 -903zM102 381q432 66 1092 147l-20 9q-114 20 -242 20q-90 0 -158 -8q-173 -15 -412 -76q-182 -56 -260 -92z
M1386 506q2 -4 5.5 -7.5t9.5 -6.5t8 -5q62 -42 104 -84q9 -12 17 -12q2 0 18 8q40 32 168 129q0 2 2 5.5t2 5.5q0 1 -1 3t-1 3q-55 -7 -165.5 -19.5t-166.5 -19.5zM2994 1714q-2 -16 -15.5 -31.5t-31.5 -19.5q-6 -2 -14 -2q-25 0 -54 22q-6 12 -6 15q-2 4 -2 12
q0 13 9.5 30.5t21.5 26.5q15 11 29 11q16 0 32 -13q31 -24 31 -51zM3160 1722q0 -18 -15.5 -35.5t-31.5 -19.5q-22 0 -45 21t-25 41q0 20 20 37.5t42 17.5q19 0 37 -20t18 -40v-2z" />
    <glyph glyph-name="Aring" unicode="&#xc5;" horiz-adv-x="2727" 
d="M2304 635q12 -2 35 -2q7 0 21.5 1t21.5 1q89 6 178 6q101 0 180 -8h10q21 -4 21 -17v-4q-2 -10 -16 -10h-7q-47 6 -141 6h-70q-138 -3 -247 -14q-27 -3 -43 -25q-277 -351 -453 -589q-21 -29 -57 -79t-66 -91.5t-57 -77.5q-30 -36 -33 -39q-12 -8 -22 -8q-9 0 -15 2
q-16 10 -16 32q4 30 8 43q4 19 15 63t17 69.5t12.5 62.5t10.5 68q2 25 2 69q0 116 -41 199q-12 18 -14 22q-6 13 -14 13q-6 0 -15 -9l-28 -20q-296 -222 -484 -342q-221 -141 -356 -193q-125 -47 -225 -47h-17q-18 4 -18 17q0 12 18 16q7 1 30 1.5t34 2.5q99 19 213 74
q163 75 319 182q182 113 475 332q25 22 25 29q0 9 -22 28q-45 40 -123 80q-27 15 -60 15h-22q-50 -6 -150.5 -19.5t-150.5 -19.5q-16 -2 -383 -54q-175 -26 -367 -51q-67 -12 -135 -18l-14 -2q-27 0 -48 12q-16 13 -16 25q0 9 16 22q47 27 76 35q251 99 551 145
q126 22 244 25l51 2q178 0 320 -45q24 -8 57 -8q25 0 37 2q38 4 114.5 12t114.5 12q35 5 180 19q25 2 56 22l393 320q248 199 459 383q159 138 315 276q16 14 97.5 87t127.5 110q3 2 10.5 8t10.5 8q11 8 24 8q11 0 18 -8.5t7 -23.5l2 -6q0 -10 -14 -33q-11 -12 -36 -41.5
t-40 -44.5q-55 -60 -161.5 -175.5t-119.5 -129.5q-270 -289 -551 -631q-6 -8 -18.5 -23t-23 -29t-17.5 -30zM2169 565q5 10 8 13v4q-4 2 -4 4h-14q-55 -4 -328 -29q-15 0 -39 -16q-36 -29 -109.5 -86t-109.5 -86q-14 -11 -14 -19q0 -7 6 -16q71 -114 71 -264q0 -56 -8 -105
q-4 -28 -15.5 -87t-15.5 -89zM1876 604q16 -4 22 -4t19 2t20 2q29 2 112.5 10.5t129.5 10.5q36 0 66 37q297 381 632 745q16 20 48 53.5t43 46.5q-399 -343 -1092 -903zM102 381q432 66 1092 147l-20 9q-114 20 -242 20q-90 0 -158 -8q-173 -15 -412 -76q-182 -56 -260 -92z
M1386 506q2 -4 5.5 -7.5t9.5 -6.5t8 -5q62 -42 104 -84q9 -12 17 -12q2 0 18 8q40 32 168 129q0 2 2 5.5t2 5.5q0 1 -1 3t-1 3q-55 -7 -165.5 -19.5t-166.5 -19.5zM3178 1821q0 -39 -26 -68q-36 -38 -94 -51q-2 0 -6.5 -1t-6.5 -1q-28 0 -50.5 22t-22.5 50v8q13 76 59 125
q22 22 41 22q12 0 35 -10q38 -19 63 -66q8 -20 8 -26v-4zM3131 1837q0 2 -4 14q-4 11 -10 11t-8 -2q-54 -34 -76 -97q0 -1 -1 -3t-1 -3q0 -8 10 -8q1 0 3 1t3 1q50 15 68 41q16 19 16 45z" />
    <glyph glyph-name="AE" unicode="&#xc6;" horiz-adv-x="3794" 
d="M1442 -221l516 700q0 2 2 2l4 8v7h-2v2h-14q-152 -12 -295 -27q-22 -4 -35 -14q-9 -7 -27.5 -21.5t-27.5 -21.5q-6 -4 -61 -47t-83 -66q-10 -5 -10 -16t4 -15q66 -120 66 -241q0 -44 -9 -90q-4 -31 -16 -97q-8 -40 -12 -63zM1251 426q2 -4 6 -8q1 -1 4.5 -3t4.5 -3
q2 -2 6 -2q53 -34 94 -76q10 -10 16 -10t15 6q18 15 100 78q19 17 51 38q1 1 2 3.5t2 3.5q0 4 -2 8l-65 -8q-117 -12 -234 -27zM92 313q532 79 985 133q-3 1 -9 3.5t-9 3.5q-111 18 -225 18q-68 0 -136 -6q-192 -22 -370 -70q-127 -32 -236 -82zM1694 514q16 -4 24 -4
q11 0 15 2q6 2 16 2l82 8q90 8 135 10q38 3 59 33q281 357 572 674q9 10 27.5 30.5t27.5 30.5q19 19 27 29q-486 -411 -924 -766zM2236 696q-10 14 -16 25l-86 -105l-12 -16q-27 -31 -43 -57q12 -2 32 -2q21 0 31 2h8q74 6 150 6q98 0 174 -8h8q9 -3 15 -6q4 -4 4 -9v-4
q-3 -8 -9 -8q-4 -2 -12 -2q-61 6 -125 6h-65q-109 -3 -217 -12h-7q-27 -3 -38 -23q-195 -246 -408 -532l-74 -103q-8 -11 -40 -54t-50 -66q-12 -18 -29 -35q-8 -8 -20 -8q-8 0 -12 2q-17 10 -17 24v4q1 8 4 21t4 18l9 37q31 112 41 201q4 40 4 61q0 98 -39 180l-8 13l-4 8
q-7 10 -15 10q-6 0 -12 -6l-16 -12q-1 -1 -4.5 -3t-4.5 -3q-233 -180 -436 -310q-153 -104 -321 -174q-98 -40 -205 -43h-15q-8 4 -10 6q-6 3 -6 11q0 9 6 12q2 2 10 2q17 0 25 2q23 0 33 2q104 22 192 66q148 70 289 163q212 140 428 302q23 16 23 24q0 9 -21 27
q-55 46 -110 71q-24 15 -56 15q-12 0 -18 -2q-18 -2 -52.5 -6.5t-52.5 -6.5q-67 -7 -168 -22q-59 -7 -346 -47l-168 -25q-117 -17 -161 -22q-103 -15 -123 -17h-13q-24 0 -43 11q-14 8 -14 20t14 20q37 22 70 33q235 90 496 131q126 20 221 23q8 0 25 1t26 1q143 0 283 -41
q24 -8 57 -8q19 0 29 2q26 3 75.5 8t73.5 8q9 1 29 3t29 3q5 1 16.5 2t17.5 2l127 13q25 3 49 20q72 60 136 109l221 180q227 182 414 344q203 178 284 250l53 49q74 64 150 129q2 2 4 2q8 8 14 12q18 9 23 9q19 0 22 -31v-4q0 -19 -12 -31q-3 -3 -8 -9t-8 -9
q-36 -45 -51 -60q-28 -30 -83.5 -89.5t-82.5 -88.5q-16 -17 -45 -49t-43 -47q-17 -19 -85.5 -94t-105.5 -117q68 46 178 106q426 235 871 377q249 82 504 123q106 16 198 16q49 0 74 -2q69 -3 123 -28q39 -20 57 -60q8 -19 8 -39q0 -30 -22 -61q-22 -29 -51 -51
q-74 -57 -166 -105q-150 -79 -326 -137q-65 -18 -129 -27h-8q-4 0 -14 5q-9 6 -9 14v2q0 6 9 12q16 4 22 6q82 11 170 48q183 70 332 165q58 37 108 84q19 16 31 37q8 11 8 23v4q-2 6 -22 16q-52 19 -103 19q-10 0 -31.5 1t-31.5 1q-171 0 -332 -37q-469 -99 -903 -295
q-251 -112 -467 -244q-115 -67 -201 -153q-20 -20 -35 -47q-6 -9 -6 -19q0 -13 23 -20q56 -13 78 -15q34 -4 90 -8q153 -8 346 -8h422q63 0 94 -2l61 -4q23 0 39 -8q24 -15 27 -27v-14q0 -20 -21 -35q-18 -13 -45 -23q-107 -41 -239 -86q-30 -8 -107 -35
q-381 -129 -743 -307q-211 -106 -379 -223q-68 -47 -111 -90q-29 -29 -45 -60q-10 -20 -10 -34q0 -29 41 -41q43 -15 66 -17q20 0 30 -2q38 -6 72 -6h82q80 0 121 2q65 2 186 10q15 1 45.5 3.5t46.5 3.5q23 0 33 2q13 1 38 2t38 2q74 6 219 14q21 1 65.5 4t67.5 4q26 1 77 4
t77 4q109 9 211 15l106 4l94 4q108 6 213 6h60q15 0 43 -4q2 -1 6 -2t6 -2q4 -4 4 -12q-3 -7 -6 -7q-2 -2 -8 -2h-27q-176 0 -352 -12l-135 -6l-144 -8q-43 -2 -139 -10q-16 -1 -45.5 -3.5t-42.5 -3.5q-18 -1 -51 -4t-49 -4q-82 -4 -121 -8q-43 -2 -139 -10q-14 -1 -40 -3
t-40 -3q-15 0 -21 -2q-27 -2 -83 -6.5t-83 -6.5q-148 -8 -219 -8q-14 0 -44 1t-44 1q-69 3 -145 19q-41 8 -76 36q-35 25 -35 66q0 23 10 43q17 32 45 57q88 88 195 152q307 194 631 330q323 132 651 243l90 33l41 16q-11 0 -26 3q-57 8 -129 8h-27q-94 -4 -143 -4h-549
q-87 0 -172 18q-54 9 -95 53z" />
    <glyph glyph-name="Ccedilla" unicode="&#xc7;" horiz-adv-x="1662" 
d="M231 -481q-48 -17 -67 -60q-2 -4 -2 -10v-2q0 -4 4 -8h8q1 1 4 3t4 3q31 28 49 74zM291 -393v2h-68q-51 0 -90 10l-24 8q-97 38 -97 123q0 23 6 47q26 97 84 187q99 160 232 315q186 220 385 410q402 390 868 671q213 127 443 209q92 30 172 41q10 2 30 2q15 0 47 -4
q56 -12 74 -49q21 -34 21 -63q0 -22 -9 -43q-27 -68 -77 -121q-108 -120 -234 -219q-133 -110 -297 -203q-59 -30 -86 -41q-10 -4 -26 -12q-15 -5 -17 -5q-14 0 -20 13v6q0 6 2 8q4 4 8 6l20 13q227 116 406 272q102 80 192 184q50 56 80 121q13 26 13 41q0 35 -56 35h-4
q-95 0 -186 -31q-186 -57 -365 -158q-418 -231 -764 -534q-138 -120 -303 -281q-263 -260 -467 -549q-42 -61 -90 -159q-28 -61 -28 -127v-4q0 -61 59 -70q39 -8 86 -8h29l73 8q9 0 15 2q8 4 12 4q6 0 8 -2q99 8 150 14q71 7 131 15q35 5 119 14q51 7 139 14q14 1 39.5 3.5
t36.5 3.5q27 2 86 10q98 8 147 14q82 8 123 10l53 4q9 1 30 2.5t30 2.5l141 12q46 4 65 4q7 1 20 2t19 2q96 8 215 8h52q10 0 16 -2q8 -3 8 -14q0 -8 -4 -12h-10h-12q-88 0 -224 -11l-69 -4q-30 -3 -92.5 -8t-94.5 -8q-11 -1 -32.5 -3t-32.5 -3q-9 -1 -28 -3t-28 -3
q-28 -2 -237 -23q-44 -4 -299 -35q-124 -13 -289 -37l-131 -16q0 -14 -10 -31q-51 -83 -113 -147q-13 -18 -39 -33q-21 -12 -41 -12q-43 3 -57 26q-12 24 -12 41q0 21 10 39q14 25 43 41q46 27 86 35q23 3 33 23q4 8 6 10z" />
    <glyph glyph-name="Egrave" unicode="&#xc8;" horiz-adv-x="2009" 
d="M1673 618q-8 1 -63 7t-84 6q-6 0 -17.5 -1t-17.5 -1q-47 -4 -143 -4h-531q-109 0 -190 18q-63 14 -95 53q-22 28 -22 52q0 19 16 45q21 35 60 69q120 106 327 219q413 228 871 377q270 86 504 123q106 16 200 16q47 0 72 -2q69 -3 123 -28q39 -20 57 -60q8 -19 8 -41
q0 -31 -22 -59q-14 -18 -51 -51q-64 -50 -166 -105q-166 -85 -326 -137q-50 -16 -131 -27q-13 0 -20 5q-9 6 -9 14q0 11 9 14q4 1 11 3t11 3q73 7 170 48q198 78 332 165q67 43 108 84q19 16 31 37q8 13 8 23q0 11 -22 20q-52 19 -103 19q-23 2 -69 2q-151 0 -326 -37
q-424 -83 -903 -295q-260 -117 -467 -244q-131 -78 -201 -153q-27 -32 -34 -47q-7 -14 -7 -21q0 -12 23 -18q56 -13 78 -15q30 -4 90 -8q121 -8 364 -8h426q20 0 42.5 -1t49.5 -2.5t42 -2.5q14 0 38 -8q27 -12 27 -39q0 -23 -20 -37q-13 -9 -45 -23q-64 -25 -347 -121
q-429 -148 -743 -307q-242 -126 -379 -223q-75 -52 -111 -90q-29 -29 -45 -60q-10 -23 -10 -34q0 -26 41 -41q42 -15 66 -17q12 -1 47 -4.5t55 -3.5h127q51 0 76 2q18 0 278 17q35 2 109 6q60 4 177.5 11t174.5 11q60 3 181.5 11.5t183.5 11.5q34 2 100.5 4t99.5 4
q111 6 218 6h49q33 0 49 -4t16 -16q-2 -9 -12 -9h-76q-101 0 -305 -12q-193 -8 -279 -14q-38 -2 -113.5 -8.5t-113.5 -8.5q-37 -3 -110.5 -8t-110.5 -8q-77 -4 -219 -16q-32 -2 -94.5 -7.5t-92.5 -7.5q-114 -6 -229 -6h-78q-71 0 -145 19q-46 13 -76 36q-35 25 -35 66
q0 25 10 43q16 30 46 57q78 81 194 152q278 179 631 330q226 96 651 243q26 9 74.5 27.5t56.5 21.5zM2206 1765q-18 3 -39 13q-124 70 -154 92q-6 4 -18 16q-8 8 -8 17q0 10 10 18q12 12 24 12q9 0 21 -6q9 -6 37 -20q103 -49 176 -68q24 -6 24 -20q0 -9 -12 -21
q-27 -30 -61 -33z" />
    <glyph glyph-name="Eacute" unicode="&#xc9;" horiz-adv-x="2009" 
d="M1673 618q-8 1 -63 7t-84 6q-6 0 -17.5 -1t-17.5 -1q-47 -4 -143 -4h-531q-109 0 -190 18q-63 14 -95 53q-22 28 -22 52q0 19 16 45q21 35 60 69q120 106 327 219q413 228 871 377q270 86 504 123q106 16 200 16q47 0 72 -2q69 -3 123 -28q39 -20 57 -60q8 -19 8 -41
q0 -31 -22 -59q-14 -18 -51 -51q-64 -50 -166 -105q-166 -85 -326 -137q-50 -16 -131 -27q-13 0 -20 5q-9 6 -9 14q0 11 9 14q4 1 11 3t11 3q73 7 170 48q198 78 332 165q67 43 108 84q19 16 31 37q8 13 8 23q0 11 -22 20q-52 19 -103 19q-23 2 -69 2q-151 0 -326 -37
q-424 -83 -903 -295q-260 -117 -467 -244q-131 -78 -201 -153q-27 -32 -34 -47q-7 -14 -7 -21q0 -12 23 -18q56 -13 78 -15q30 -4 90 -8q121 -8 364 -8h426q20 0 42.5 -1t49.5 -2.5t42 -2.5q14 0 38 -8q27 -12 27 -39q0 -23 -20 -37q-13 -9 -45 -23q-64 -25 -347 -121
q-429 -148 -743 -307q-242 -126 -379 -223q-75 -52 -111 -90q-29 -29 -45 -60q-10 -23 -10 -34q0 -26 41 -41q42 -15 66 -17q12 -1 47 -4.5t55 -3.5h127q51 0 76 2q18 0 278 17q35 2 109 6q60 4 177.5 11t174.5 11q60 3 181.5 11.5t183.5 11.5q34 2 100.5 4t99.5 4
q111 6 218 6h49q33 0 49 -4t16 -16q-2 -9 -12 -9h-76q-101 0 -305 -12q-193 -8 -279 -14q-38 -2 -113.5 -8.5t-113.5 -8.5q-37 -3 -110.5 -8t-110.5 -8q-77 -4 -219 -16q-32 -2 -94.5 -7.5t-92.5 -7.5q-114 -6 -229 -6h-78q-71 0 -145 19q-46 13 -76 36q-35 25 -35 66
q0 25 10 43q16 30 46 57q78 81 194 152q278 179 631 330q226 96 651 243q26 9 74.5 27.5t56.5 21.5zM2152 1743q-34 3 -61 33q-12 12 -12 20q0 15 24 21q77 20 176 67q22 11 37 21q12 6 21 6q11 0 24 -13q11 -8 11 -18q0 -7 -9 -16q-15 -15 -18 -17q-30 -22 -154 -92
q-18 -9 -39 -12z" />
    <glyph glyph-name="Ecircumflex" unicode="&#xca;" horiz-adv-x="2009" 
d="M1673 618q-8 1 -63 7t-84 6q-6 0 -17.5 -1t-17.5 -1q-47 -4 -143 -4h-531q-109 0 -190 18q-63 14 -95 53q-22 28 -22 52q0 19 16 45q21 35 60 69q120 106 327 219q413 228 871 377q270 86 504 123q106 16 200 16q47 0 72 -2q69 -3 123 -28q39 -20 57 -60q8 -19 8 -41
q0 -31 -22 -59q-14 -18 -51 -51q-64 -50 -166 -105q-166 -85 -326 -137q-50 -16 -131 -27q-13 0 -20 5q-9 6 -9 14q0 11 9 14q4 1 11 3t11 3q73 7 170 48q198 78 332 165q67 43 108 84q19 16 31 37q8 13 8 23q0 11 -22 20q-52 19 -103 19q-23 2 -69 2q-151 0 -326 -37
q-424 -83 -903 -295q-260 -117 -467 -244q-131 -78 -201 -153q-27 -32 -34 -47q-7 -14 -7 -21q0 -12 23 -18q56 -13 78 -15q30 -4 90 -8q121 -8 364 -8h426q20 0 42.5 -1t49.5 -2.5t42 -2.5q14 0 38 -8q27 -12 27 -39q0 -23 -20 -37q-13 -9 -45 -23q-64 -25 -347 -121
q-429 -148 -743 -307q-242 -126 -379 -223q-75 -52 -111 -90q-29 -29 -45 -60q-10 -23 -10 -34q0 -26 41 -41q42 -15 66 -17q12 -1 47 -4.5t55 -3.5h127q51 0 76 2q18 0 278 17q35 2 109 6q60 4 177.5 11t174.5 11q60 3 181.5 11.5t183.5 11.5q34 2 100.5 4t99.5 4
q111 6 218 6h49q33 0 49 -4t16 -16q-2 -9 -12 -9h-76q-101 0 -305 -12q-193 -8 -279 -14q-38 -2 -113.5 -8.5t-113.5 -8.5q-37 -3 -110.5 -8t-110.5 -8q-77 -4 -219 -16q-32 -2 -94.5 -7.5t-92.5 -7.5q-114 -6 -229 -6h-78q-71 0 -145 19q-46 13 -76 36q-35 25 -35 66
q0 25 10 43q16 30 46 57q78 81 194 152q278 179 631 330q226 96 651 243q26 9 74.5 27.5t56.5 21.5zM2091 1888q22 0 41 -16q27 -27 39 -41q24 -28 76 -92q12 -18 12 -19q0 -4 -6 -10q-4 -4 -8 -4q-7 0 -21 14q-3 3 -84 78q-19 19 -26 19q-8 0 -27 -13q-14 -8 -28 -18.5
t-32 -24.5t-28 -22q-5 -3 -15.5 -10.5t-15.5 -10.5q-12 -4 -16 -4q-22 0 -35 19q-4 8 -4 12q0 6 4 10q4 6 12 14q50 48 115 99q28 20 47 20z" />
    <glyph glyph-name="Edieresis" unicode="&#xcb;" horiz-adv-x="2009" 
d="M1673 618q-8 1 -63 7t-84 6q-6 0 -17.5 -1t-17.5 -1q-47 -4 -143 -4h-531q-109 0 -190 18q-63 14 -95 53q-22 28 -22 52q0 19 16 45q21 35 60 69q120 106 327 219q413 228 871 377q270 86 504 123q106 16 200 16q47 0 72 -2q69 -3 123 -28q39 -20 57 -60q8 -19 8 -41
q0 -31 -22 -59q-14 -18 -51 -51q-64 -50 -166 -105q-166 -85 -326 -137q-50 -16 -131 -27q-13 0 -20 5q-9 6 -9 14q0 11 9 14q4 1 11 3t11 3q73 7 170 48q198 78 332 165q67 43 108 84q19 16 31 37q8 13 8 23q0 11 -22 20q-52 19 -103 19q-23 2 -69 2q-151 0 -326 -37
q-424 -83 -903 -295q-260 -117 -467 -244q-131 -78 -201 -153q-27 -32 -34 -47q-7 -14 -7 -21q0 -12 23 -18q56 -13 78 -15q30 -4 90 -8q121 -8 364 -8h426q20 0 42.5 -1t49.5 -2.5t42 -2.5q14 0 38 -8q27 -12 27 -39q0 -23 -20 -37q-13 -9 -45 -23q-64 -25 -347 -121
q-429 -148 -743 -307q-242 -126 -379 -223q-75 -52 -111 -90q-29 -29 -45 -60q-10 -23 -10 -34q0 -26 41 -41q42 -15 66 -17q12 -1 47 -4.5t55 -3.5h127q51 0 76 2q18 0 278 17q35 2 109 6q60 4 177.5 11t174.5 11q60 3 181.5 11.5t183.5 11.5q34 2 100.5 4t99.5 4
q111 6 218 6h49q33 0 49 -4t16 -16q-2 -9 -12 -9h-76q-101 0 -305 -12q-193 -8 -279 -14q-38 -2 -113.5 -8.5t-113.5 -8.5q-37 -3 -110.5 -8t-110.5 -8q-77 -4 -219 -16q-32 -2 -94.5 -7.5t-92.5 -7.5q-114 -6 -229 -6h-78q-71 0 -145 19q-46 13 -76 36q-35 25 -35 66
q0 25 10 43q16 30 46 57q78 81 194 152q278 179 631 330q226 96 651 243q26 9 74.5 27.5t56.5 21.5zM1915 1812q-2 -16 -15.5 -31.5t-31.5 -19.5q-6 -2 -15 -2q-22 0 -53 23q-6 12 -6 14q-2 4 -2 12q0 13 9.5 31t21.5 27q13 10 28 10q18 0 33 -12q31 -24 31 -52zM2081 1821
q0 -18 -16 -36t-31 -20q-22 0 -45 21t-25 41q0 20 19.5 37.5t41.5 17.5q19 0 37.5 -19.5t18.5 -39.5v-2z" />
    <glyph glyph-name="Igrave" unicode="&#xcc;" horiz-adv-x="1519" 
d="M494 -330q28 -4 41 -4q6 0 18 1t18 1q61 6 125 6q74 0 144 -6q86 -6 161 -26q23 -9 29 -15q8 -8 8 -14v-4q-3 -8 -10 -8q-2 0 -5 1t-5 1q-48 12 -70 16q-85 14 -184 14q-64 0 -131 -6q-22 -1 -67 -4t-68 -4q-44 -3 -60 -39q-25 -68 -28 -82q-5 -20 -15 -20h-4
q-16 5 -16 22v6q5 28 18 66l4 8q4 9 4 14t-2 7q-6 6 -12 6q-8 0 -20 -4q-120 -16 -222 -41q-48 -16 -57 -21q-32 -14 -41 -37q-6 -12 -14 -12q-6 0 -15 6q-14 11 -14 31q0 18 12 33q16 21 56 37q30 12 121 30q160 23 210 27q34 4 48 27q101 161 309 415q227 277 526 607
q221 241 483 509q67 69 193 192t166 163q9 9 31.5 32t38.5 40.5t30 35.5q9 9 13 15q8 12 8 16v4q-2 6 -15 6h-8q-32 0 -98 -16q-85 -21 -234 -86q-271 -117 -462 -268q-81 -59 -127 -113q-25 -25 -25 -49v-6q0 -11 -8 -11l-10 5q-21 15 -21 43q0 14 6 26q15 34 51 70
q89 89 218 170q300 188 610 278q67 19 104 19q36 0 58 -20.5t22 -51.5q0 -17 -6 -35q-10 -23 -25 -41q-18 -28 -57 -67q-97 -99 -326 -314q-43 -40 -87.5 -84.5t-105.5 -106t-85 -85.5q-259 -265 -488 -520q-355 -396 -555 -664q-36 -46 -81 -121zM2322 1894q-17 2 -38 13
q-124 70 -154 92q-9 6 -19 16q-8 8 -8 17q0 10 11 18q12 12 24 12q9 0 21 -6q12 -8 36 -20q102 -48 177 -68q24 -6 24 -20q0 -9 -12 -21q-27 -30 -62 -33z" />
    <glyph glyph-name="Iacute" unicode="&#xcd;" horiz-adv-x="1519" 
d="M494 -330q28 -4 41 -4q6 0 18 1t18 1q61 6 125 6q74 0 144 -6q86 -6 161 -26q23 -9 29 -15q8 -8 8 -14v-4q-3 -8 -10 -8q-2 0 -5 1t-5 1q-48 12 -70 16q-85 14 -184 14q-64 0 -131 -6q-22 -1 -67 -4t-68 -4q-44 -3 -60 -39q-25 -68 -28 -82q-5 -20 -15 -20h-4
q-16 5 -16 22v6q5 28 18 66l4 8q4 9 4 14t-2 7q-6 6 -12 6q-8 0 -20 -4q-120 -16 -222 -41q-48 -16 -57 -21q-32 -14 -41 -37q-6 -12 -14 -12q-6 0 -15 6q-14 11 -14 31q0 18 12 33q16 21 56 37q30 12 121 30q160 23 210 27q34 4 48 27q101 161 309 415q227 277 526 607
q221 241 483 509q67 69 193 192t166 163q9 9 31.5 32t38.5 40.5t30 35.5q9 9 13 15q8 12 8 16v4q-2 6 -15 6h-8q-32 0 -98 -16q-85 -21 -234 -86q-271 -117 -462 -268q-81 -59 -127 -113q-25 -25 -25 -49v-6q0 -11 -8 -11l-10 5q-21 15 -21 43q0 14 6 26q15 34 51 70
q89 89 218 170q300 188 610 278q67 19 104 19q36 0 58 -20.5t22 -51.5q0 -17 -6 -35q-10 -23 -25 -41q-18 -28 -57 -67q-97 -99 -326 -314q-43 -40 -87.5 -84.5t-105.5 -106t-85 -85.5q-259 -265 -488 -520q-355 -396 -555 -664q-36 -46 -81 -121zM2202 1907q-36 3 -62 32
q-12 12 -12 21q0 14 24 20q75 20 177 68q24 12 36 20q14 7 21 7q11 0 24 -13q11 -8 11 -18q0 -8 -8 -16q-13 -13 -19 -17q-34 -25 -153 -92q-18 -9 -39 -12z" />
    <glyph glyph-name="Icircumflex" unicode="&#xce;" horiz-adv-x="1519" 
d="M494 -330q28 -4 41 -4q6 0 18 1t18 1q61 6 125 6q74 0 144 -6q86 -6 161 -26q23 -9 29 -15q8 -8 8 -14v-4q-3 -8 -10 -8q-2 0 -5 1t-5 1q-48 12 -70 16q-85 14 -184 14q-64 0 -131 -6q-22 -1 -67 -4t-68 -4q-44 -3 -60 -39q-25 -68 -28 -82q-5 -20 -15 -20h-4
q-16 5 -16 22v6q5 28 18 66l4 8q4 9 4 14t-2 7q-6 6 -12 6q-8 0 -20 -4q-120 -16 -222 -41q-48 -16 -57 -21q-32 -14 -41 -37q-6 -12 -14 -12q-6 0 -15 6q-14 11 -14 31q0 18 12 33q16 21 56 37q30 12 121 30q160 23 210 27q34 4 48 27q101 161 309 415q227 277 526 607
q221 241 483 509q67 69 193 192t166 163q9 9 31.5 32t38.5 40.5t30 35.5q9 9 13 15q8 12 8 16v4q-2 6 -15 6h-8q-32 0 -98 -16q-85 -21 -234 -86q-271 -117 -462 -268q-81 -59 -127 -113q-25 -25 -25 -49v-6q0 -11 -8 -11l-10 5q-21 15 -21 43q0 14 6 26q15 34 51 70
q89 89 218 170q300 188 610 278q67 19 104 19q36 0 58 -20.5t22 -51.5q0 -17 -6 -35q-10 -23 -25 -41q-18 -28 -57 -67q-97 -99 -326 -314q-43 -40 -87.5 -84.5t-105.5 -106t-85 -85.5q-259 -265 -488 -520q-355 -396 -555 -664q-36 -46 -81 -121zM1835 2025q22 0 41 -16
q27 -27 39 -41q24 -28 76 -92q1 -2 4.5 -5.5t5.5 -6.5t2 -6q0 -5 -6 -11q-4 -4 -8 -4q-6 0 -21 15q-18 15 -84 77q-19 19 -26 19q-9 0 -27 -12q-14 -8 -28.5 -19t-31.5 -25t-28 -22q-5 -3 -15.5 -10.5t-15.5 -10.5q-12 -4 -16 -4q-22 0 -35 19q-4 8 -4 12q0 6 4 10
q6 9 12 15q44 41 115 98q28 20 47 20z" />
    <glyph glyph-name="Idieresis" unicode="&#xcf;" horiz-adv-x="1519" 
d="M494 -330q28 -4 41 -4q6 0 18 1t18 1q61 6 125 6q74 0 144 -6q86 -6 161 -26q23 -9 29 -15q8 -8 8 -14v-4q-3 -8 -10 -8q-2 0 -5 1t-5 1q-48 12 -70 16q-85 14 -184 14q-64 0 -131 -6q-22 -1 -67 -4t-68 -4q-44 -3 -60 -39q-25 -68 -28 -82q-5 -20 -15 -20h-4
q-16 5 -16 22v6q5 28 18 66l4 8q4 9 4 14t-2 7q-6 6 -12 6q-8 0 -20 -4q-120 -16 -222 -41q-48 -16 -57 -21q-32 -14 -41 -37q-6 -12 -14 -12q-6 0 -15 6q-14 11 -14 31q0 18 12 33q16 21 56 37q30 12 121 30q160 23 210 27q34 4 48 27q101 161 309 415q227 277 526 607
q221 241 483 509q67 69 193 192t166 163q9 9 31.5 32t38.5 40.5t30 35.5q9 9 13 15q8 12 8 16v4q-2 6 -15 6h-8q-32 0 -98 -16q-85 -21 -234 -86q-271 -117 -462 -268q-81 -59 -127 -113q-25 -25 -25 -49v-6q0 -11 -8 -11l-10 5q-21 15 -21 43q0 14 6 26q15 34 51 70
q89 89 218 170q300 188 610 278q67 19 104 19q36 0 58 -20.5t22 -51.5q0 -17 -6 -35q-10 -23 -25 -41q-18 -28 -57 -67q-97 -99 -326 -314q-43 -40 -87.5 -84.5t-105.5 -106t-85 -85.5q-259 -265 -488 -520q-355 -396 -555 -664q-36 -46 -81 -121zM1821 1886
q-2 -16 -15.5 -31.5t-31.5 -19.5q-6 -2 -15 -2q-24 0 -53 22q-6 12 -6 15q-2 4 -2 12q0 13 9.5 30.5t21.5 26.5q15 11 28 11q17 0 33 -13q31 -24 31 -51zM1987 1894q0 -18 -16 -35.5t-32 -19.5q-22 0 -44.5 21t-24.5 41q0 20 19.5 37.5t41.5 17.5q19 0 37.5 -20t18.5 -40v-2
z" />
    <glyph glyph-name="Eth" unicode="&#xd0;" horiz-adv-x="2564" 
d="M532 37q28 11 83.5 32t82.5 33l45 17q15 6 25 16q117 111 199 242q31 48 47 112q4 24 4 35q0 40 -29 80q-7 10 -14 10q-4 0 -14 -10q-1 -2 -11 -12q-163 -193 -352 -453l-12 -18q-47 -71 -54 -84zM670 47q-37 -13 -86 -33q-24 -13 -56 -24q-39 -16 -53 -41
q-16 -24 -26 -62q-1 -3 -4.5 -9t-4.5 -9q132 77 230 178zM1006 629l8 -8q45 -48 45 -111q0 -23 -6 -47q-9 -39 -27 -80q-56 -100 -125 -178q-18 -18 -29 -37q2 -2 9 -2q6 0 8 2t4 2l111 31q128 30 204 41q4 2 13 2q8 0 12 -2q1 -2 6 -15q0 -7 -6 -10q-2 -1 -7 -2t-7 -2h-9
q-186 -30 -364 -94q-43 -16 -68 -41q-115 -115 -229 -197q-50 -37 -88 -53q-12 -6 -23 -6q-20 0 -37 14q-12 15 -12 31t2 22q2 2 2 7q6 9 6 16q0 6 -2 8q-16 0 -24 -8q-126 -62 -230 -135q-25 -15 -59 -53q-17 -14 -27 -41q-4 -12 -4 -19q0 -22 25 -31q25 -14 61 -14
q14 -2 41 -2q80 0 156 18q186 43 360 113q382 151 748 363q282 158 565 352q270 186 520 414q130 118 234 268q51 74 73 170q5 35 5 41q0 60 -48 114q-22 26 -47 41q-75 50 -159 74q-188 54 -396 57h-61q-58 0 -168 -4q-160 -12 -240 -22q-259 -37 -475 -96
q-314 -79 -626 -242q-122 -66 -224 -154q-48 -39 -75 -98q-11 -26 -11 -43q0 -46 43 -76q44 -31 84 -47q68 -29 131 -49q17 -5 51 -15.5t52 -15.5q141 -37 254 -92h28q0 1 1 2t1 2q9 9 11 13q196 234 352 405q4 6 14 16q76 84 164 179q81 91 191 192q1 1 4 3t4 3
q22 22 49 37q12 4 18 4q14 0 27 -10q20 -14 20 -41v-6q-1 -2 -2 -5.5t-2 -4.5q-4 -4 -6 -4t-4 2q-12 4 -14 4q-7 0 -15 -4q-7 -7 -10 -13l-4 -4q-201 -201 -297 -303q-228 -240 -424 -465q91 -3 158 -14q8 0 24 -4q11 -4 17 -19q2 -4 2 -10q0 -11 -19 -14q-39 0 -57 2
q-36 4 -59 4q-22 0 -58 -4h-20q-2 0 -7 -1t-7 -1zM852 686q-93 35 -166 53q-99 23 -223 70q-90 38 -152 94q-45 45 -45 101q0 35 25 77q36 58 84 95q130 107 280 174q423 200 877 282q188 35 373 47q19 1 52 3.5t48 3.5q61 4 100 6q239 0 451 -52q105 -23 197 -84
q120 -85 120 -215q0 -37 -8 -73q-22 -85 -67 -154q-101 -152 -230 -270q-212 -197 -461 -371q-239 -166 -501 -319q-440 -261 -899 -441q-185 -73 -381 -114q-80 -17 -138 -17q-30 0 -65 6q-43 10 -72 27q-41 27 -41 66q0 20 13 43q18 29 53 61q72 57 149 96q2 1 6.5 3
t6.5 3q88 53 180 93q21 12 37 34q154 243 338 471q46 62 71 93q6 8 19.5 24.5t19.5 24.5q-20 -1 -123 -11l-47 -6q-91 -6 -180 -18l-86 -12q-45 -5 -59 -5q-31 0 -43 35v6q0 21 26 35q49 19 96 19q226 12 340 14q17 0 25 2z" />
    <glyph glyph-name="Ntilde" unicode="&#xd1;" horiz-adv-x="2537" 
d="M729 90q13 3 33 23q114 110 172 168q125 128 332 325q425 402 784 688q371 296 705 486q189 110 352 170q77 30 129 30h8q58 -3 66 -55q2 -6 2 -20q0 -26 -13 -52q-18 -39 -77 -114q-107 -127 -203 -228q-480 -516 -842 -1042q-243 -350 -432 -668q-141 -238 -203 -383
q-9 -18 -20 -51q-17 -49 -17 -69q0 -15 2 -21l2 -4q0 -7 -6 -10h-4q-4 0 -12 8q-10 10 -10 27q0 2 1 6t1 6q0 20 14 67q35 100 119 258q279 516 737 1151q218 303 438 557q50 58 143 163t117 132q141 158 191 230q16 19 24 41q3 6 3 10q0 10 -15 10q-3 0 -10 1t-10 1
q-9 0 -29 -4q-94 -16 -238 -82q-170 -77 -389 -217q-322 -206 -692 -514q-147 -123 -393 -350q-60 -54 -119.5 -111t-130.5 -127t-111.5 -110.5t-128 -129t-114.5 -116.5q-19 -20 -58 -58t-59 -57q-29 -25 -45 -30q-7 -5 -18 -5q-15 0 -26 11t-11 28v4q2 23 18 58
q46 95 125 221q172 269 451 627q50 64 216 273t253 325q78 101 133 196q33 60 45 103q4 20 4 26q0 23 -35 37q-46 15 -94 15q-27 0 -39 -2q-210 -21 -512 -150q-381 -165 -664 -399q-243 -199 -374 -406q-106 -168 -129 -309q-7 -44 -7 -76q0 -44 11 -84q19 -77 73 -121
t138 -47h172q32 0 53 -8q8 -2 20 -10q4 -4 4 -6v-4q-2 -5 -10 -9q-8 0 -12 2q-20 4 -59 4q-28 0 -82 -4q-5 0 -16.5 -1t-16.5 -1q-54 0 -129 21q-164 55 -191 227q-4 20 -4 60q0 92 41 200q56 152 176 301q169 216 449 414q393 270 825 408q119 38 238 53q36 4 53 4
q21 0 53 -4q55 -6 85 -41t32 -92q0 -34 -18 -86q-20 -57 -68 -131q-75 -115 -274 -367q-44 -54 -144 -177t-156 -192.5t-136.5 -173.5t-145.5 -192q-163 -223 -240 -357q-34 -58 -51 -98zM2396 2210q27 0 58 -27q8 -6 22 -20q28 -25 45 -25q10 0 33 10q20 9 88 56q4 2 12 7
t12 7q8 4 11 4q6 0 14 -8q6 -6 6 -12q0 -7 -8 -15q-78 -69 -104 -88q-17 -14 -43 -14q-13 0 -37 8q-31 14 -62 41q-14 14 -22 14q-9 0 -23 -14q-19 -17 -43 -57q-2 -2 -4 -6.5t-3.5 -8t-5 -6t-7.5 -2.5h-6q-11 2 -21.5 12.5t-11.5 22.5q0 1 -1 2t-1 2l2 4q9 71 71 109
q8 4 29 4z" />
    <glyph glyph-name="Ograve" unicode="&#xd2;" horiz-adv-x="1884" 
d="M0 -127q6 142 53 287q83 258 254 538q150 243 340 451q180 202 344 326q73 55 156 96q50 21 88 28q25 5 29 5q28 0 53 -19q11 -8 20 -8t21 6q134 72 264 94q64 11 104 11q48 0 105 -13q90 -23 146.5 -87t66.5 -154q4 -36 4 -58q0 -74 -33 -190q-51 -163 -172 -350
q-107 -163 -287 -373q-146 -167 -335 -346q-264 -251 -514 -418q-122 -76 -201 -113q-101 -47 -197 -55h-24q-98 0 -169.5 54t-97.5 145q-18 64 -18 143zM1229 1509q-5 -2 -14.5 -6t-14.5 -6q-75 -37 -184 -117q-183 -139 -373 -352q-291 -330 -461 -696
q-116 -244 -131 -443q-4 -36 -4 -55q0 -90 37 -160q52 -109 176 -112q75 0 160 30q98 35 231 119q255 161 539 428q225 212 393 410q195 237 293 409q100 183 129 334q10 52 10 92q0 53 -14 99q-19 73 -76 110q-53 39 -125 45q-18 2 -57 2q-166 0 -361 -100q-20 -11 -20 -35
v-10q0 -15 -4 -47q-4 -12 -10 -14h-5q-4 0 -16 8q-3 4 -8 31q-6 20 -10 20q-3 0 -19 -8q-4 -4 -6 -4q-267 -189 -391 -451q-57 -124 -62 -223q-2 -18 -2 -55q0 -168 64 -338q41 -95 90 -144q47 -47 102 -47q13 0 19 -2q16 -4 16 -14q-2 -10 -18 -10q-59 3 -98 26
q-41 25 -82 80q-41 54 -72 135q-42 118 -57 250q-5 36 -5 84q0 118 39 225q71 189 228 355q63 68 174 157zM1827 1827q-21 3 -39 12q-124 70 -154 92q-3 2 -18 17q-8 8 -8 16q0 10 10 18q13 13 24 13q9 0 21 -6q15 -10 37 -21q99 -47 176 -67q25 -6 25 -21q0 -7 -13 -20
q-27 -30 -61 -33z" />
    <glyph glyph-name="Oacute" unicode="&#xd3;" horiz-adv-x="1884" 
d="M0 -127q6 142 53 287q83 258 254 538q150 243 340 451q180 202 344 326q73 55 156 96q50 21 88 28q25 5 29 5q28 0 53 -19q11 -8 20 -8t21 6q134 72 264 94q64 11 104 11q48 0 105 -13q90 -23 146.5 -87t66.5 -154q4 -36 4 -58q0 -74 -33 -190q-51 -163 -172 -350
q-107 -163 -287 -373q-146 -167 -335 -346q-264 -251 -514 -418q-122 -76 -201 -113q-101 -47 -197 -55h-24q-98 0 -169.5 54t-97.5 145q-18 64 -18 143zM1229 1509q-5 -2 -14.5 -6t-14.5 -6q-75 -37 -184 -117q-183 -139 -373 -352q-291 -330 -461 -696
q-116 -244 -131 -443q-4 -36 -4 -55q0 -90 37 -160q52 -109 176 -112q75 0 160 30q98 35 231 119q255 161 539 428q225 212 393 410q195 237 293 409q100 183 129 334q10 52 10 92q0 53 -14 99q-19 73 -76 110q-53 39 -125 45q-18 2 -57 2q-166 0 -361 -100q-20 -11 -20 -35
v-10q0 -15 -4 -47q-4 -12 -10 -14h-5q-4 0 -16 8q-3 4 -8 31q-6 20 -10 20q-3 0 -19 -8q-4 -4 -6 -4q-267 -189 -391 -451q-57 -124 -62 -223q-2 -18 -2 -55q0 -168 64 -338q41 -95 90 -144q47 -47 102 -47q13 0 19 -2q16 -4 16 -14q-2 -10 -18 -10q-59 3 -98 26
q-41 25 -82 80q-41 54 -72 135q-42 118 -57 250q-5 36 -5 84q0 118 39 225q71 189 228 355q63 68 174 157zM1780 1810q-35 3 -62 33q-12 12 -12 21q0 14 25 20q73 19 176 68q28 14 37 20q12 6 20 6q13 0 25 -12q10 -8 10 -18q0 -9 -8 -17q-10 -10 -19 -16q-34 -25 -153 -92
q-21 -10 -39 -13z" />
    <glyph glyph-name="Ocircumflex" unicode="&#xd4;" horiz-adv-x="1884" 
d="M0 -127q6 142 53 287q83 258 254 538q150 243 340 451q180 202 344 326q73 55 156 96q50 21 88 28q25 5 29 5q28 0 53 -19q11 -8 20 -8t21 6q134 72 264 94q64 11 104 11q48 0 105 -13q90 -23 146.5 -87t66.5 -154q4 -36 4 -58q0 -74 -33 -190q-51 -163 -172 -350
q-107 -163 -287 -373q-146 -167 -335 -346q-264 -251 -514 -418q-122 -76 -201 -113q-101 -47 -197 -55h-24q-98 0 -169.5 54t-97.5 145q-18 64 -18 143zM1229 1509q-5 -2 -14.5 -6t-14.5 -6q-75 -37 -184 -117q-183 -139 -373 -352q-291 -330 -461 -696
q-116 -244 -131 -443q-4 -36 -4 -55q0 -90 37 -160q52 -109 176 -112q75 0 160 30q98 35 231 119q255 161 539 428q225 212 393 410q195 237 293 409q100 183 129 334q10 52 10 92q0 53 -14 99q-19 73 -76 110q-53 39 -125 45q-18 2 -57 2q-166 0 -361 -100q-20 -11 -20 -35
v-10q0 -15 -4 -47q-4 -12 -10 -14h-5q-4 0 -16 8q-3 4 -8 31q-6 20 -10 20q-3 0 -19 -8q-4 -4 -6 -4q-267 -189 -391 -451q-57 -124 -62 -223q-2 -18 -2 -55q0 -168 64 -338q41 -95 90 -144q47 -47 102 -47q13 0 19 -2q16 -4 16 -14q-2 -10 -18 -10q-59 3 -98 26
q-41 25 -82 80q-41 54 -72 135q-42 118 -57 250q-5 36 -5 84q0 118 39 225q71 189 228 355q63 68 174 157zM1696 1995q21 0 41 -17q27 -27 39 -41q11 -13 75 -92q1 -2 4.5 -5.5t6 -6.5t2.5 -6q0 -4 -6 -10q-5 -5 -9 -5q-5 0 -20 15q-3 3 -84 78q-18 18 -27 18q-8 0 -26 -12
q-14 -8 -28.5 -19t-31.5 -25t-28 -22q-5 -3 -15.5 -10t-15.5 -10q-12 -4 -17 -4q-22 0 -34 18q-4 8 -4 12q0 7 4 11q4 6 12 14q44 41 115 98q29 21 47 21z" />
    <glyph glyph-name="Otilde" unicode="&#xd5;" horiz-adv-x="1884" 
d="M0 -127q6 142 53 287q83 258 254 538q150 243 340 451q180 202 344 326q73 55 156 96q50 21 88 28q25 5 29 5q28 0 53 -19q11 -8 20 -8t21 6q134 72 264 94q64 11 104 11q48 0 105 -13q90 -23 146.5 -87t66.5 -154q4 -36 4 -58q0 -74 -33 -190q-51 -163 -172 -350
q-107 -163 -287 -373q-146 -167 -335 -346q-264 -251 -514 -418q-122 -76 -201 -113q-101 -47 -197 -55h-24q-98 0 -169.5 54t-97.5 145q-18 64 -18 143zM1229 1509q-5 -2 -14.5 -6t-14.5 -6q-75 -37 -184 -117q-183 -139 -373 -352q-291 -330 -461 -696
q-116 -244 -131 -443q-4 -36 -4 -55q0 -90 37 -160q52 -109 176 -112q75 0 160 30q98 35 231 119q255 161 539 428q225 212 393 410q195 237 293 409q100 183 129 334q10 52 10 92q0 53 -14 99q-19 73 -76 110q-53 39 -125 45q-18 2 -57 2q-166 0 -361 -100q-20 -11 -20 -35
v-10q0 -15 -4 -47q-4 -12 -10 -14h-5q-4 0 -16 8q-3 4 -8 31q-6 20 -10 20q-3 0 -19 -8q-4 -4 -6 -4q-267 -189 -391 -451q-57 -124 -62 -223q-2 -18 -2 -55q0 -168 64 -338q41 -95 90 -144q47 -47 102 -47q13 0 19 -2q16 -4 16 -14q-2 -10 -18 -10q-59 3 -98 26
q-41 25 -82 80q-41 54 -72 135q-42 118 -57 250q-5 36 -5 84q0 118 39 225q71 189 228 355q63 68 174 157zM1612 1944q26 0 57 -27q8 -6 23 -21q27 -24 45 -24q9 0 32 10q27 12 89 55q4 2 12 7.5t12 7.5q8 4 10 4q7 0 15 -8q6 -6 6 -13q0 -6 -8 -14q-73 -65 -105 -88
q-17 -14 -43 -14q-13 0 -37 8q-29 13 -61 41q-14 14 -23 14q-8 0 -22 -14q-18 -16 -43 -58q-1 -2 -4.5 -8.5t-7.5 -10t-9 -3.5h-6q-11 2 -21.5 12.5t-11.5 22.5q0 1 -1 2t-1 2l2 4q8 69 72 108q10 5 29 5z" />
    <glyph glyph-name="Odieresis" unicode="&#xd6;" horiz-adv-x="1884" 
d="M0 -127q6 142 53 287q83 258 254 538q150 243 340 451q180 202 344 326q73 55 156 96q50 21 88 28q25 5 29 5q28 0 53 -19q11 -8 20 -8t21 6q134 72 264 94q64 11 104 11q48 0 105 -13q90 -23 146.5 -87t66.5 -154q4 -36 4 -58q0 -74 -33 -190q-51 -163 -172 -350
q-107 -163 -287 -373q-146 -167 -335 -346q-264 -251 -514 -418q-122 -76 -201 -113q-101 -47 -197 -55h-24q-98 0 -169.5 54t-97.5 145q-18 64 -18 143zM1229 1509q-5 -2 -14.5 -6t-14.5 -6q-75 -37 -184 -117q-183 -139 -373 -352q-291 -330 -461 -696
q-116 -244 -131 -443q-4 -36 -4 -55q0 -90 37 -160q52 -109 176 -112q75 0 160 30q98 35 231 119q255 161 539 428q225 212 393 410q195 237 293 409q100 183 129 334q10 52 10 92q0 53 -14 99q-19 73 -76 110q-53 39 -125 45q-18 2 -57 2q-166 0 -361 -100q-20 -11 -20 -35
v-10q0 -15 -4 -47q-4 -12 -10 -14h-5q-4 0 -16 8q-3 4 -8 31q-6 20 -10 20q-3 0 -19 -8q-4 -4 -6 -4q-267 -189 -391 -451q-57 -124 -62 -223q-2 -18 -2 -55q0 -168 64 -338q41 -95 90 -144q47 -47 102 -47q13 0 19 -2q16 -4 16 -14q-2 -10 -18 -10q-59 3 -98 26
q-41 25 -82 80q-41 54 -72 135q-42 118 -57 250q-5 36 -5 84q0 118 39 225q71 189 228 355q63 68 174 157zM1917 1866q-2 -16 -15.5 -31.5t-31.5 -19.5q-9 -3 -15 -3q-22 0 -53 23q-6 12 -6 14q-2 4 -2 13q0 13 9.5 30.5t21.5 26.5q13 10 28 10q18 0 33 -12q31 -24 31 -51z
M2083 1874q0 -18 -15.5 -35.5t-31.5 -19.5q-22 0 -45 20.5t-25 40.5q0 20 20 37.5t42 17.5q19 0 37 -19.5t18 -39.5v-2z" />
    <glyph glyph-name="multiply" unicode="&#xd7;" horiz-adv-x="835" 
d="M815 772q0 -14 -7.5 -22.5t-19.5 -8.5q-6 0 -10 2t-10 2q-10 0 -14 -2q-138 -42 -299 -114q-17 -9 -17 -21v-6q19 -95 40 -160.5t61 -122.5q1 -3 4.5 -7.5t5.5 -8.5t2 -8q0 -6 -4 -8l-8 -4q-7 0 -27 20q-46 57 -76 139q-20 52 -41 133q-6 21 -10 21q-6 0 -18 -6
q-18 -9 -80 -39t-90 -44.5t-74 -41t-82 -51.5q-11 -8 -18 -8q-10 0 -15 8q-4 8 -4 12q0 11 12 20q43 36 125 84q102 58 207 111q12 6 16.5 8.5t7.5 6.5t3 10q0 12 -2 20q-10 54 -17 129q0 3 -1 10t-1 11t11 67l6 19q13 20 28 20q1 0 4.5 -1t4.5 -1q11 -5 18.5 -16t7.5 -21
v-6q-12 -40 -12 -98v-80q3 -31 12 -31q10 0 29 8q156 73 209 97q52 21 86 28h8q46 0 49 -49z" />
    <glyph glyph-name="Oslash" unicode="&#xd8;" horiz-adv-x="1884" 
d="M838 477q-399 -301 -578 -452q-65 -52 -213 -185v-6q0 -85 37 -160q54 -109 176 -112q84 0 160 30q126 48 231 119q289 187 539 428q210 198 393 410q163 190 293 409q89 156 129 334q0 1 1 4t1 4q-218 -129 -377 -237q-413 -298 -766 -565q4 -13 8.5 -26.5t11 -30.5
t9.5 -27q29 -77 90 -144q41 -47 102 -47q13 0 19 -2q2 -1 6 -2t6 -2q4 -4 4 -10q-2 -4 -6 -8q-4 -2 -12 -2q-54 3 -98 26q-47 33 -82 80q-43 60 -72 135q-2 6 -6 19.5t-6 19.5zM0 -141v14q6 142 53 287q93 279 254 538q150 243 340 451q156 182 344 326q73 55 156 96
q50 21 88 28q25 5 29 5q28 0 53 -19q8 -8 20 -8q9 0 21 6q125 70 264 94q64 11 104 11q48 0 105 -13q186 -53 213 -241q0 -9 2 -11q103 61 184 101q33 17 66 28q12 4 18 4q16 0 31 -12q12 -12 12 -31v-4q0 -14 -14 -22l-29 -17l-26 -16q-134 -71 -242 -131q-6 -65 -31 -137
q-61 -187 -172 -350q-139 -203 -287 -373q-146 -167 -335 -346q-233 -227 -514 -418q-83 -54 -201 -113q-93 -46 -197 -55h-24q-197 0 -267 199q-8 29 -14 69q-67 -64 -113 -112q-3 -3 -9 -9.5t-9 -9.5t-9 -10t-9 -10q-1 -1 -3.5 -3t-3.5 -3q-4 -8 -12 -13q-8 -4 -12 -4
q-8 0 -17 6q-4 8 -4 15q0 4 4 12q10 12 33 35q77 86 160 166zM2015 1405q-3 41 -14 78q-14 67 -76 110q-53 39 -125 45q-18 2 -57 2q-99 0 -184 -26q-93 -28 -177 -74q-20 -9 -20 -35v-10q0 -21 -2 -31q-2 -6 -2 -16q-1 -1 -2 -4t-2 -4l-6 -6h-5q-4 0 -6 2q-2 0 -6 4
q-2 0 -4 2q-6 12 -6 22q-2 2 -2 9q-3 20 -10 20q-8 0 -19 -8l-2 -2q-2 -2 -4 -2q-257 -177 -391 -451q-53 -110 -62 -223q-2 -18 -2 -55q0 -100 21 -195q349 268 926 688q129 94 239 160zM821 535q-18 64 -28 153q-5 72 -5 84q0 118 39 225q77 201 228 355q86 89 174 157
q-9 -3 -15 -6q-8 -4 -14 -6q-99 -55 -184 -117q-199 -153 -373 -352q-282 -316 -461 -696q-98 -189 -129 -422l111 98q280 239 657 527z" />
    <glyph glyph-name="Ugrave" unicode="&#xd9;" horiz-adv-x="3018" 
d="M3027 1008q-17 -15 -54 -46.5t-57 -48.5q-88 -76 -274.5 -234t-282.5 -241q-352 -300 -530 -450q-17 -15 -94.5 -80.5t-103.5 -88t-92 -77.5t-104.5 -87t-93.5 -75.5t-104 -81.5q-118 -91 -190 -125q-42 -22 -82 -22q-34 1 -54.5 21.5t-23.5 54.5v10q0 32 16 86
q29 86 107 223q62 108 168 258q12 18 12 23q-6 6 -23 6h-45q-66 0 -231 -13q-80 -8 -238 -8h-121q-60 0 -159 15q-147 22 -236 77q-119 75 -133 203q0 4 -1 11.5t-1 11.5q0 43 18 102q38 134 150 273q155 196 416 387q317 234 723 413q312 139 594 201q130 28 276 41
q5 0 14.5 1t14.5 1q57 0 129 -20q57 -17 85.5 -56.5t28.5 -91.5q0 -13 -4 -41q-11 -62 -65 -149q-80 -127 -217 -285q-59 -68 -214 -247.5t-239 -276.5q-267 -315 -409 -508q-161 -211 -259 -379q-68 -115 -96 -205q-12 -40 -12 -68v-10q3 -24 16 -24q2 0 6.5 1t6.5 1
q19 2 51 18q66 32 155 96q149 108 449 359q412 345 459 385q212 177 481 407q116 96 373 318q65 56 181.5 160t145.5 129q16 15 42 42t32 33q63 68 144 140q6 5 19 15t19 15q14 9 21 9q5 0 14 -9q8 -8 8 -22q0 -10 -6 -19l-24 -24q-453 -453 -766 -877q-375 -504 -692 -1038
q-74 -124 -127 -240l-6 -12t-6 -12.5t-5.5 -12t-5.5 -13t-4.5 -11.5t-5 -13t-3.5 -12.5t-3 -13.5t-1.5 -13t-0.5 -14v-6q0 -6 -7 -10h-4l-8 4q-8 10 -8 35q2 23 18 78q51 124 148 290q269 466 690 1059q142 202 291 379q4 8 4 12v7zM49 317q3 -119 98 -184q37 -24 78 -39
q118 -42 254 -45q35 -2 103 -2q116 0 192 12q45 6 130.5 11t99.5 6q20 2 61 2q69 0 121 -8h10q33 0 51 26q181 249 381 486q85 102 256 302.5t256 301.5q140 167 207 274q49 80 57 131q2 8 2 21q0 29 -30 45q-30 21 -78 31q-75 10 -135 10q-55 0 -111 -6q-151 -17 -371 -84
q-531 -170 -997 -494q-233 -161 -405 -348q-123 -137 -179 -254q-48 -98 -51 -195zM3054 1808q-18 3 -39 13q-124 70 -154 92q-6 4 -18 16q-9 9 -9 17q0 10 11 18q12 12 24 12q9 0 21 -6q9 -6 37 -20q103 -49 176 -68q24 -6 24 -20q0 -9 -12 -21q-27 -30 -61 -33z" />
    <glyph glyph-name="Uacute" unicode="&#xda;" horiz-adv-x="3018" 
d="M3027 1008q-17 -15 -54 -46.5t-57 -48.5q-88 -76 -274.5 -234t-282.5 -241q-352 -300 -530 -450q-17 -15 -94.5 -80.5t-103.5 -88t-92 -77.5t-104.5 -87t-93.5 -75.5t-104 -81.5q-118 -91 -190 -125q-42 -22 -82 -22q-34 1 -54.5 21.5t-23.5 54.5v10q0 32 16 86
q29 86 107 223q62 108 168 258q12 18 12 23q-6 6 -23 6h-45q-66 0 -231 -13q-80 -8 -238 -8h-121q-60 0 -159 15q-147 22 -236 77q-119 75 -133 203q0 4 -1 11.5t-1 11.5q0 43 18 102q38 134 150 273q155 196 416 387q317 234 723 413q312 139 594 201q130 28 276 41
q5 0 14.5 1t14.5 1q57 0 129 -20q57 -17 85.5 -56.5t28.5 -91.5q0 -13 -4 -41q-11 -62 -65 -149q-80 -127 -217 -285q-59 -68 -214 -247.5t-239 -276.5q-267 -315 -409 -508q-161 -211 -259 -379q-68 -115 -96 -205q-12 -40 -12 -68v-10q3 -24 16 -24q2 0 6.5 1t6.5 1
q19 2 51 18q66 32 155 96q149 108 449 359q412 345 459 385q212 177 481 407q116 96 373 318q65 56 181.5 160t145.5 129q16 15 42 42t32 33q63 68 144 140q6 5 19 15t19 15q14 9 21 9q5 0 14 -9q8 -8 8 -22q0 -10 -6 -19l-24 -24q-453 -453 -766 -877q-375 -504 -692 -1038
q-74 -124 -127 -240l-6 -12t-6 -12.5t-5.5 -12t-5.5 -13t-4.5 -11.5t-5 -13t-3.5 -12.5t-3 -13.5t-1.5 -13t-0.5 -14v-6q0 -6 -7 -10h-4l-8 4q-8 10 -8 35q2 23 18 78q51 124 148 290q269 466 690 1059q142 202 291 379q4 8 4 12v7zM49 317q3 -119 98 -184q37 -24 78 -39
q118 -42 254 -45q35 -2 103 -2q116 0 192 12q45 6 130.5 11t99.5 6q20 2 61 2q69 0 121 -8h10q33 0 51 26q181 249 381 486q85 102 256 302.5t256 301.5q140 167 207 274q49 80 57 131q2 8 2 21q0 29 -30 45q-30 21 -78 31q-75 10 -135 10q-55 0 -111 -6q-151 -17 -371 -84
q-531 -170 -997 -494q-233 -161 -405 -348q-123 -137 -179 -254q-48 -98 -51 -195zM3078 1774q-35 3 -61 32q-13 13 -13 21q0 14 25 20q73 19 176 68q28 14 37 20q14 7 20 7q12 0 25 -13q10 -7 10 -18q0 -9 -8 -17q-12 -12 -18 -16q-30 -22 -154 -92q-18 -9 -39 -12z" />
    <glyph glyph-name="Ucircumflex" unicode="&#xdb;" horiz-adv-x="3018" 
d="M3027 1008q-17 -15 -54 -46.5t-57 -48.5q-88 -76 -274.5 -234t-282.5 -241q-352 -300 -530 -450q-17 -15 -94.5 -80.5t-103.5 -88t-92 -77.5t-104.5 -87t-93.5 -75.5t-104 -81.5q-118 -91 -190 -125q-42 -22 -82 -22q-34 1 -54.5 21.5t-23.5 54.5v10q0 32 16 86
q29 86 107 223q62 108 168 258q12 18 12 23q-6 6 -23 6h-45q-66 0 -231 -13q-80 -8 -238 -8h-121q-60 0 -159 15q-147 22 -236 77q-119 75 -133 203q0 4 -1 11.5t-1 11.5q0 43 18 102q38 134 150 273q155 196 416 387q317 234 723 413q312 139 594 201q130 28 276 41
q5 0 14.5 1t14.5 1q57 0 129 -20q57 -17 85.5 -56.5t28.5 -91.5q0 -13 -4 -41q-11 -62 -65 -149q-80 -127 -217 -285q-59 -68 -214 -247.5t-239 -276.5q-267 -315 -409 -508q-161 -211 -259 -379q-68 -115 -96 -205q-12 -40 -12 -68v-10q3 -24 16 -24q2 0 6.5 1t6.5 1
q19 2 51 18q66 32 155 96q149 108 449 359q412 345 459 385q212 177 481 407q116 96 373 318q65 56 181.5 160t145.5 129q16 15 42 42t32 33q63 68 144 140q6 5 19 15t19 15q14 9 21 9q5 0 14 -9q8 -8 8 -22q0 -10 -6 -19l-24 -24q-453 -453 -766 -877q-375 -504 -692 -1038
q-74 -124 -127 -240l-6 -12t-6 -12.5t-5.5 -12t-5.5 -13t-4.5 -11.5t-5 -13t-3.5 -12.5t-3 -13.5t-1.5 -13t-0.5 -14v-6q0 -6 -7 -10h-4l-8 4q-8 10 -8 35q2 23 18 78q51 124 148 290q269 466 690 1059q142 202 291 379q4 8 4 12v7zM49 317q3 -119 98 -184q37 -24 78 -39
q118 -42 254 -45q35 -2 103 -2q116 0 192 12q45 6 130.5 11t99.5 6q20 2 61 2q69 0 121 -8h10q33 0 51 26q181 249 381 486q85 102 256 302.5t256 301.5q140 167 207 274q49 80 57 131q2 8 2 21q0 29 -30 45q-30 21 -78 31q-75 10 -135 10q-55 0 -111 -6q-151 -17 -371 -84
q-531 -170 -997 -494q-233 -161 -405 -348q-123 -137 -179 -254q-48 -98 -51 -195zM3080 1921q22 0 41 -16q27 -27 39 -41q24 -28 76 -92q12 -18 12 -19q0 -4 -6 -10q-4 -4 -8 -4q-7 0 -21 14q-3 3 -84 78q-18 18 -26 18q-9 0 -27 -12q-14 -8 -28 -18.5t-32 -24.5t-28 -22
q-5 -3 -15.5 -10.5t-15.5 -10.5q-12 -4 -16 -4q-23 0 -35 18q-4 8 -4 13q0 6 4 10q4 6 12 14q50 48 115 99q28 20 47 20z" />
    <glyph glyph-name="Udieresis" unicode="&#xdc;" horiz-adv-x="3018" 
d="M3027 1008q-17 -15 -54 -46.5t-57 -48.5q-88 -76 -274.5 -234t-282.5 -241q-352 -300 -530 -450q-17 -15 -94.5 -80.5t-103.5 -88t-92 -77.5t-104.5 -87t-93.5 -75.5t-104 -81.5q-118 -91 -190 -125q-42 -22 -82 -22q-34 1 -54.5 21.5t-23.5 54.5v10q0 32 16 86
q29 86 107 223q62 108 168 258q12 18 12 23q-6 6 -23 6h-45q-66 0 -231 -13q-80 -8 -238 -8h-121q-60 0 -159 15q-147 22 -236 77q-119 75 -133 203q0 4 -1 11.5t-1 11.5q0 43 18 102q38 134 150 273q155 196 416 387q317 234 723 413q312 139 594 201q130 28 276 41
q5 0 14.5 1t14.5 1q57 0 129 -20q57 -17 85.5 -56.5t28.5 -91.5q0 -13 -4 -41q-11 -62 -65 -149q-80 -127 -217 -285q-59 -68 -214 -247.5t-239 -276.5q-267 -315 -409 -508q-161 -211 -259 -379q-68 -115 -96 -205q-12 -40 -12 -68v-10q3 -24 16 -24q2 0 6.5 1t6.5 1
q19 2 51 18q66 32 155 96q149 108 449 359q412 345 459 385q212 177 481 407q116 96 373 318q65 56 181.5 160t145.5 129q16 15 42 42t32 33q63 68 144 140q6 5 19 15t19 15q14 9 21 9q5 0 14 -9q8 -8 8 -22q0 -10 -6 -19l-24 -24q-453 -453 -766 -877q-375 -504 -692 -1038
q-74 -124 -127 -240l-6 -12t-6 -12.5t-5.5 -12t-5.5 -13t-4.5 -11.5t-5 -13t-3.5 -12.5t-3 -13.5t-1.5 -13t-0.5 -14v-6q0 -6 -7 -10h-4l-8 4q-8 10 -8 35q2 23 18 78q51 124 148 290q269 466 690 1059q142 202 291 379q4 8 4 12v7zM49 317q3 -119 98 -184q37 -24 78 -39
q118 -42 254 -45q35 -2 103 -2q116 0 192 12q45 6 130.5 11t99.5 6q20 2 61 2q69 0 121 -8h10q33 0 51 26q181 249 381 486q85 102 256 302.5t256 301.5q140 167 207 274q49 80 57 131q2 8 2 21q0 29 -30 45q-30 21 -78 31q-75 10 -135 10q-55 0 -111 -6q-151 -17 -371 -84
q-531 -170 -997 -494q-233 -161 -405 -348q-123 -137 -179 -254q-48 -98 -51 -195zM3019 1845q-2 -16 -15.5 -31.5t-31.5 -19.5q-6 -2 -15 -2q-22 0 -53 23q-6 12 -6 14q-2 4 -2 12q0 13 9.5 30.5t21.5 26.5q15 11 28 11q17 0 33 -13q31 -24 31 -51zM3185 1853
q0 -18 -15.5 -35.5t-31.5 -19.5q-22 0 -45 21t-25 41q0 20 19.5 37.5t41.5 17.5q19 0 37.5 -20t18.5 -40v-2z" />
    <glyph glyph-name="Yacute" unicode="&#xdd;" horiz-adv-x="2492" 
d="M2998 1651q-7 0 -24 -13q-94 -58 -277 -192q-287 -208 -727 -545q-168 -127 -776 -606q-246 -197 -383 -293q-82 -60 -143 -90q-36 -16 -58 -16h-8q-33 0 -53.5 18.5t-20.5 50.5q0 2 1 7t1 8q5 41 25 92q54 127 133 252q84 138 160 245q8 12 10 21h-12q-24 0 -70 -8
q-206 -34 -289 -43q-72 -7 -120 -7q-66 0 -142 13q-55 10 -92 28q-58 28 -89.5 77t-31.5 112q0 13 4 41q14 79 62 160q84 147 252 301q254 227 626 409q284 141 545 205q102 25 178 25q54 -3 85.5 -32.5t31.5 -78.5q0 -11 -4 -35q-11 -56 -49 -117q-15 -25 -30 -49
t-37.5 -54.5t-32 -43.5t-39.5 -52.5t-35 -45.5q-82 -108 -239 -301.5t-222 -276.5q-280 -360 -422 -600q-65 -110 -98 -205q-10 -45 -10 -53q0 -22 14 -22q1 0 3.5 1t4.5 1q11 1 45 16q72 36 186 119q225 164 615 471q553 430 1042 792q344 254 473 342q42 30 66 41
q12 6 25 6q28 0 28 -38v-5q-2 -16 -20 -53q-33 -55 -107 -153q-143 -191 -493 -637q-215 -269 -488 -604q-35 -44 -215 -259q-2 -3 -7 -9t-7 -9q-8 -12 -8 -14q0 -5 16 -8q29 -4 43 -13q4 -4 4 -10v-4q-4 -4 -8 -4h-4q-1 0 -18 2t-25 4q-2 0 -7 1t-7 1q-26 0 -46 -23
q-67 -77 -135 -147q-184 -192 -307 -281q-94 -69 -166 -102q-79 -33 -129 -33q-21 0 -31 2q-50 7 -79 40t-29 79q0 27 4 39q16 71 82 141q85 90 215 146q256 111 485 151q61 11 99 58q156 186 438 544q516 654 704 895q25 33 77 99.5t77 99.5q14 19 14 29h-4zM358 571
q79 0 246 25q24 3 114.5 16.5t139.5 16.5q31 0 51 26q52 74 118 162t106 139t129.5 164t113.5 144q22 28 66 82.5t71.5 88t63.5 81.5t65 90q69 95 97 161q10 27 10 41q0 18 -14 27t-45 12h-60q-54 0 -131 -18q-421 -101 -835 -367q-248 -155 -418 -344q-105 -117 -154 -223
q-37 -76 -37 -154v-10q6 -85 78 -125q24 -13 57 -20q61 -15 152 -15h16zM1612 -102q-350 -74 -574 -209q-77 -46 -139 -127q-43 -55 -51 -113v-14q0 -31 18.5 -50t51.5 -20h10q45 0 116 29q79 37 170 108q137 104 328 312q5 6 18.5 19.5t20 21t16 19.5t15.5 24zM2423 1929
q-35 3 -62 33q-12 12 -12 20q0 15 25 21q73 19 176 68q28 14 37 20q12 6 20 6q13 0 25 -12q10 -7 10 -19q0 -8 -8 -16q-10 -10 -19 -16q-34 -25 -153 -92q-21 -10 -39 -13z" />
    <glyph glyph-name="Thorn" unicode="&#xde;" horiz-adv-x="2605" 
d="M2171 1753q-202 -241 -377 -442l-283 -330q-43 -47 -110 -127q-211 -248 -369 -444q-14 -14 -14 -37q0 -9 2 -13q4 -20 4 -34q2 -6 2 -19v-31q0 -89 -31 -180q0 -4 -2 -6t-2 -10q0 -4 4 -12q10 7 23 10l18 6q637 278 1178 563q215 113 418 250q175 117 325 277
q83 89 127 204q13 44 13 72q0 84 -68 149q-74 67 -160 101q-154 61 -327 67q-98 5 -115 5q-120 0 -256 -19zM682 -55q8 -4 10 -4t4 2l209 86q20 8 29 30q49 110 55 234q0 19 -10 49q-178 -232 -297 -397zM217 -782q6 2 19 8q4 2 12 10l41 37l90 82q156 150 295 311
q106 122 200 279v2q10 10 11 14q4 8 4 14q-2 2 -6 2q-9 0 -11 -2t-4 -2q-130 -56 -204 -84q-33 -13 -50 -39q-116 -163 -233 -344q-94 -148 -143 -243q-9 -21 -21 -45zM2032 1729q-185 -42 -351 -107q-278 -102 -516 -287q-152 -121 -243 -278q-58 -101 -58 -217v-21
q10 -98 47 -176q5 -13 35 -76q2 -4 15.5 -33t19.5 -45q1 -1 2 -3t2 -3l6 -6q8 4 10 6q1 1 3.5 4.5t3.5 4.5l4 8q165 217 426 530l274 322zM2083 1786l37 45q241 282 278 323q8 11 29 27q12 4 16 4q5 0 17 -4q26 -14 26 -45q0 -8 -2 -12q-1 -2 -2 -5.5t-2 -4.5q-4 -7 -8 -7
q-8 0 -16 -4q-10 -9 -11 -14q-1 -1 -2 -3t-2 -3q-27 -38 -28 -39q-5 -7 -15.5 -20.5t-15.5 -20.5q-33 -41 -92 -110.5t-72 -84.5q114 13 211 13q32 0 102 -4q179 -6 344 -70q83 -33 144 -82q107 -88 116 -221v-17q0 -90 -47 -167q-70 -124 -182 -220q-217 -189 -469 -323
q-502 -275 -1016 -504q-327 -144 -430 -188q-15 -6 -24 -15q-15 -15 -19 -22q-93 -181 -235 -342q-154 -180 -318 -334q-72 -72 -135 -119q-15 -12 -35 -22q-11 -7 -22 -7q-13 0 -25 9t-12 24q0 9 4 21q22 68 57 125q135 231 250 405q5 7 15.5 22.5t15.5 22.5q1 1 3 4t3 4
q9 15 18 33h-6q-13 0 -22 -6q-4 0 -6 -2q-220 -84 -455 -137q-6 0 -8 -2q-6 -2 -15 -2h-6q-1 1 -4 3t-4 3q-4 4 -4 6v4q0 7 8 10q7 4 29 8q270 66 514 166q24 9 37 29q176 255 360 504q8 8 8 22q0 7 -4 23q-36 95 -69 160q-41 77 -56 161q-8 36 -8 82q0 110 60 221
q92 160 235 273q253 197 541 303q209 83 426 123z" />
    <glyph glyph-name="germandbls" unicode="&#xdf;" horiz-adv-x="1193" 
d="M274 496q4 -8 19 -13q25 -11 84 -55q108 -85 108 -209q0 -73 -43 -149q-46 -82 -129 -152q-121 -97 -250 -135q-49 -14 -104 -14q-37 0 -55 4q-61 9 -105 45q-41 38 -41 88q0 11 4 35q15 66 68 110q152 126 328 168q16 4 22 4q11 0 15 -2q18 -5 18 -16q-1 -7 -16 -12
q-103 -21 -240 -115q-86 -59 -119 -135q-14 -32 -14 -54q0 -3 1 -8t1 -8q3 -36 37 -45q24 -6 51 -6q19 0 29 2q226 40 376 213q79 89 95 186q2 12 2 35q0 93 -84 156q-21 16 -64 35q-27 10 -43 26q-18 15 -18 31q0 14 14 31q24 24 51 45q29 22 96 72.5t117 89t95 75.5
q184 152 297 275q57 63 104 137q25 42 29 67q0 2 1 6.5t1 6.5q0 12 -6.5 16t-24.5 6q-48 0 -121 -30q-93 -42 -188 -115q-188 -139 -396 -361q-253 -271 -507 -620q-33 -44 -97.5 -133t-97.5 -133q-5 -9 -23 -31q-16 -16 -36 -16q-23 0 -39 22q-4 12 -4 14q0 10 6 19
q8 11 23.5 34t23.5 35q126 180 371 476q253 309 469 518q203 196 372 297q79 45 146 69q37 12 78 15h2q42 0 77 -32t35 -77q0 -18 -6 -39q-16 -51 -59 -108q-70 -96 -197 -207q-143 -133 -442 -355q-16 -11 -84 -65q-1 -1 -4.5 -3.5t-5.5 -4.5t-3 -6z" />
    <glyph glyph-name="agrave" unicode="&#xe0;" 
d="M209 584q-8 -4 -24.5 -13.5t-24.5 -13.5q-16 -9 -56.5 -30.5t-62.5 -34.5q-31 -13 -45 -15h-8q-20 0 -32.5 12t-12.5 31q0 7 4 19q2 9 12 22q41 65 107 105q42 20 71 20q39 0 72 -29q8 -8 18 -8t21 8q18 13 52 36t44 30q9 6 18 6q12 0 23 -14q6 -9 6 -17q0 -10 -8 -18
l-49 -49q-54 -54 -92 -109q-2 -3 -7.5 -9.5t-8.5 -12.5t-3 -11q0 -2 4 -10q3 -6 11 -6q4 0 15 3.5t15 4.5q48 12 97.5 27t120.5 38.5t96 31.5l135 43q12 4 18 4t8 -2q11 -4 11 -11v-4q0 -4 -9 -8q-4 -4 -16 -8q-250 -86 -373 -129q-74 -25 -108 -29h-10q-16 0 -31 6
q-35 15 -35 47q0 17 4 25q9 26 37 66q-1 1 -2 3t-2 3zM12 526q49 21 102.5 51.5t65.5 45.5q-4 2 -14 2q-31 0 -75 -28t-79 -71zM326 784q-18 3 -39 13q-124 70 -154 92q-6 4 -18 16q-9 9 -9 17q0 10 11 18q12 12 24 12q9 0 21 -6q9 -6 37 -20q103 -49 176 -68q24 -6 24 -20
q0 -9 -12 -21q-27 -30 -61 -33z" />
    <glyph glyph-name="aacute" unicode="&#xe1;" 
d="M209 584q-8 -4 -24.5 -13.5t-24.5 -13.5q-16 -9 -56.5 -30.5t-62.5 -34.5q-31 -13 -45 -15h-8q-20 0 -32.5 12t-12.5 31q0 7 4 19q2 9 12 22q41 65 107 105q42 20 71 20q39 0 72 -29q8 -8 18 -8t21 8q18 13 52 36t44 30q9 6 18 6q12 0 23 -14q6 -9 6 -17q0 -10 -8 -18
l-49 -49q-54 -54 -92 -109q-2 -3 -7.5 -9.5t-8.5 -12.5t-3 -11q0 -2 4 -10q3 -6 11 -6q4 0 15 3.5t15 4.5q48 12 97.5 27t120.5 38.5t96 31.5l135 43q12 4 18 4t8 -2q11 -4 11 -11v-4q0 -4 -9 -8q-4 -4 -16 -8q-250 -86 -373 -129q-74 -25 -108 -29h-10q-16 0 -31 6
q-35 15 -35 47q0 17 4 25q9 26 37 66q-1 1 -2 3t-2 3zM12 526q49 21 102.5 51.5t65.5 45.5q-4 2 -14 2q-31 0 -75 -28t-79 -71zM233 754q-35 3 -61 32q-12 12 -12 21q0 14 24 20q73 19 176 68q28 14 37 20q14 7 21 7q11 0 24 -13q11 -8 11 -18q0 -8 -9 -17q-12 -12 -18 -16
q-30 -22 -154 -92q-18 -9 -39 -12z" />
    <glyph glyph-name="acircumflex" unicode="&#xe2;" 
d="M209 584q-8 -4 -24.5 -13.5t-24.5 -13.5q-16 -9 -56.5 -30.5t-62.5 -34.5q-31 -13 -45 -15h-8q-20 0 -32.5 12t-12.5 31q0 7 4 19q2 9 12 22q41 65 107 105q42 20 71 20q39 0 72 -29q8 -8 18 -8t21 8q18 13 52 36t44 30q9 6 18 6q12 0 23 -14q6 -9 6 -17q0 -10 -8 -18
l-49 -49q-54 -54 -92 -109q-2 -3 -7.5 -9.5t-8.5 -12.5t-3 -11q0 -2 4 -10q3 -6 11 -6q4 0 15 3.5t15 4.5q48 12 97.5 27t120.5 38.5t96 31.5l135 43q12 4 18 4t8 -2q11 -4 11 -11v-4q0 -4 -9 -8q-4 -4 -16 -8q-250 -86 -373 -129q-74 -25 -108 -29h-10q-16 0 -31 6
q-35 15 -35 47q0 17 4 25q9 26 37 66q-1 1 -2 3t-2 3zM12 526q49 21 102.5 51.5t65.5 45.5q-4 2 -14 2q-31 0 -75 -28t-79 -71zM246 936q22 0 41 -16q27 -27 39 -41l75 -93q1 -2 4.5 -5.5t6 -6.5t2.5 -6q0 -4 -6 -10q-4 -4 -9 -4q-6 0 -20 14q-3 3 -84 78q-18 18 -27 18
q-8 0 -26 -12q-14 -8 -28.5 -19t-31.5 -25t-28 -22q-5 -3 -15.5 -10t-15.5 -10q-12 -4 -17 -4q-22 0 -34 18q-4 8 -4 13q0 6 4 10q4 6 12 14q44 41 115 98q29 21 47 21z" />
    <glyph glyph-name="atilde" unicode="&#xe3;" 
d="M209 584q-8 -4 -24.5 -13.5t-24.5 -13.5q-16 -9 -56.5 -30.5t-62.5 -34.5q-31 -13 -45 -15h-8q-20 0 -32.5 12t-12.5 31q0 7 4 19q2 9 12 22q41 65 107 105q42 20 71 20q39 0 72 -29q8 -8 18 -8t21 8q18 13 52 36t44 30q9 6 18 6q12 0 23 -14q6 -9 6 -17q0 -10 -8 -18
l-49 -49q-54 -54 -92 -109q-2 -3 -7.5 -9.5t-8.5 -12.5t-3 -11q0 -2 4 -10q3 -6 11 -6q4 0 15 3.5t15 4.5q48 12 97.5 27t120.5 38.5t96 31.5l135 43q12 4 18 4t8 -2q11 -4 11 -11v-4q0 -4 -9 -8q-4 -4 -16 -8q-250 -86 -373 -129q-74 -25 -108 -29h-10q-16 0 -31 6
q-35 15 -35 47q0 17 4 25q9 26 37 66q-1 1 -2 3t-2 3zM12 526q49 21 102.5 51.5t65.5 45.5q-4 2 -14 2q-31 0 -75 -28t-79 -71zM152 905q27 0 57 -26q4 -3 22 -21q27 -24 45 -24q10 0 33 10q24 11 88 55q4 2 12.5 7t12.5 7l10 5q5 0 14 -9q7 -7 7 -12t-9 -14
q-78 -69 -104 -88q-18 -15 -43 -15q-13 0 -37 8q-29 13 -61 41q-15 15 -23 15q-7 0 -22 -15q-19 -17 -43 -57q-1 -2 -4.5 -8.5t-7.5 -10t-9 -3.5h-6q-11 2 -21.5 12t-11.5 22q0 1 -1 2t-1 2l2 5q8 69 72 108q8 4 29 4z" />
    <glyph glyph-name="adieresis" unicode="&#xe4;" 
d="M209 584q-8 -4 -24.5 -13.5t-24.5 -13.5q-16 -9 -56.5 -30.5t-62.5 -34.5q-31 -13 -45 -15h-8q-20 0 -32.5 12t-12.5 31q0 7 4 19q2 9 12 22q41 65 107 105q42 20 71 20q39 0 72 -29q8 -8 18 -8t21 8q18 13 52 36t44 30q9 6 18 6q12 0 23 -14q6 -9 6 -17q0 -10 -8 -18
l-49 -49q-54 -54 -92 -109q-2 -3 -7.5 -9.5t-8.5 -12.5t-3 -11q0 -2 4 -10q3 -6 11 -6q4 0 15 3.5t15 4.5q48 12 97.5 27t120.5 38.5t96 31.5l135 43q12 4 18 4t8 -2q11 -4 11 -11v-4q0 -4 -9 -8q-4 -4 -16 -8q-250 -86 -373 -129q-74 -25 -108 -29h-10q-16 0 -31 6
q-35 15 -35 47q0 17 4 25q9 26 37 66q-1 1 -2 3t-2 3zM12 526q49 21 102.5 51.5t65.5 45.5q-4 2 -14 2q-31 0 -75 -28t-79 -71zM80 819q-2 -16 -15.5 -31.5t-31.5 -19.5q-6 -2 -15 -2q-24 0 -53 22q-6 12 -6 15q-2 4 -2 12q0 13 9.5 30.5t21.5 26.5q15 11 28 11q17 0 33 -13
q31 -24 31 -51zM246 827q0 -18 -15.5 -35.5t-31.5 -19.5q-22 0 -45 21t-25 41q0 20 19.5 37.5t41.5 17.5q19 0 37.5 -20t18.5 -40v-2z" />
    <glyph glyph-name="aring" unicode="&#xe5;" 
d="M209 584q-8 -4 -24.5 -13.5t-24.5 -13.5q-16 -9 -56.5 -30.5t-62.5 -34.5q-31 -13 -45 -15h-8q-20 0 -32.5 12t-12.5 31q0 7 4 19q2 9 12 22q41 65 107 105q42 20 71 20q39 0 72 -29q8 -8 18 -8t21 8q18 13 52 36t44 30q9 6 18 6q12 0 23 -14q6 -9 6 -17q0 -10 -8 -18
l-49 -49q-54 -54 -92 -109q-2 -3 -7.5 -9.5t-8.5 -12.5t-3 -11q0 -2 4 -10q3 -6 11 -6q4 0 15 3.5t15 4.5q48 12 97.5 27t120.5 38.5t96 31.5l135 43q12 4 18 4t8 -2q11 -4 11 -11v-4q0 -4 -9 -8q-4 -4 -16 -8q-250 -86 -373 -129q-74 -25 -108 -29h-10q-16 0 -31 6
q-35 15 -35 47q0 17 4 25q9 26 37 66q-1 1 -2 3t-2 3zM12 526q49 21 102.5 51.5t65.5 45.5q-4 2 -14 2q-31 0 -75 -28t-79 -71zM223 887q0 -39 -26 -68q-35 -38 -95 -51q-2 0 -6 -1t-6 -1q-28 0 -51 22t-23 50v8q13 75 60 125q22 22 41 22q12 0 35 -10q39 -19 63 -65
q8 -20 8 -27v-4zM176 903q0 3 -4 15q-3 10 -10 10q-6 0 -8 -2q-54 -34 -76 -97q0 -1 -1 -3t-1 -3q0 -8 10 -8q1 0 3 1t3 1q50 15 68 41q16 19 16 45z" />
    <glyph glyph-name="ae" unicode="&#xe6;" horiz-adv-x="1222" 
d="M12 526q9 3 103 52q41 21 65 45q-4 2 -14 2q-30 0 -74 -27t-80 -72zM834 643q-66 -27 -123 -74q27 2 71 27q39 24 52 47zM606 551q-42 -14 -125 -43.5t-125 -44.5q-48 -19 -108 -29h-10q-16 0 -31 6q-35 15 -35 47q0 9 4 25q15 35 37 66q-2 2 -2 4l-2 2l-25 -13
q-8 -6 -24 -14q-2 -1 -16.5 -8.5t-22.5 -11.5q-14 -7 -40 -22.5t-40 -22.5q-31 -13 -45 -15h-8q-21 0 -33 12t-12 31q0 7 4 19q3 13 12 22q41 65 107 105q36 20 71 20t72 -29q8 -8 18 -8q13 0 21 8q8 6 18 13t22 15t19 13l37 25q9 6 18 6q12 0 23 -14q6 -9 6 -17
q0 -10 -8 -18l-49 -49q-48 -45 -92 -109q-1 -1 -3 -4t-3 -4q-1 -2 -4.5 -6t-4.5 -6q-4 -8 -4 -13q0 -2 4 -10q3 -6 11 -6q4 0 16 4q2 1 7 2t7 2q107 25 224 68l163 51q49 47 117 78q27 13 51 16q6 2 17 2q15 0 28 -8q27 -15 27 -37q0 -18 -18 -33q-59 -53 -132 -77
q-20 -4 -30 -4q-11 0 -17 2q-4 2 -10 2q-11 0 -22 -11q-25 -30 -35 -45q-2 -4 -2 -10q0 -10 16 -10q19 0 37 6q27 7 82 21.5t82 21.5q50 16 92 27q34 9 47 14q121 35 242 59l41 9h10q6 0 8 -2q3 -3 6 -9v-2q0 -6 -4 -10q-2 -1 -6 -2t-6 -2l-129 -31q-133 -36 -256 -78
q-112 -37 -150 -47q-2 -2 -8 -2q-32 -14 -69 -14h-19q-25 0 -47 16q-23 16 -23 39q0 3 5 23q9 27 24 45q0 1 1 2t1 2z" />
    <glyph glyph-name="ccedilla" unicode="&#xe7;" horiz-adv-x="458" 
d="M-227 330q-49 -18 -68 -60q-4 -8 -4 -10q0 -7 6 -10q2 -2 4 -2q4 0 8 4q1 1 2.5 2t2.5 2q31 28 49 74zM-125 475q0 1 1 3t1 3q9 18 21 33q96 113 217 188q29 18 51 23h8q29 0 45 -25q8 -11 8 -22q0 -16 -8 -27q-8 -14 -18 -14q-11 0 -19 14q-10 13 -14 13q-2 0 -4 -1
t-5 -2t-5 -2q0 -2 -2 -2q-71 -41 -123 -88q-45 -36 -72 -63q-2 -4 -10 -12q-8 -11 -19 -29q33 3 54 12q2 1 7 2t7 2q37 11 108.5 34.5t79.5 25.5l189 57q30 9 80 20q4 1 11.5 3t10.5 2q6 0 8 -2q3 -3 6 -9v-4q0 -7 -8 -10q-2 -2 -6 -2t-6 -2q-193 -56 -354 -115
q-39 -12 -78 -26q-67 -23 -86 -27q-8 -2 -25 -2q0 -12 -10 -29q-52 -80 -113 -147q-13 -18 -39 -33q-15 -12 -34 -12h-6q-31 0 -50 22q-20 20 -20 47q0 17 10 37q14 25 43 41q46 27 86 35q20 3 33 23q1 2 10 16q16 27 21 33q9 15 18 18z" />
    <glyph glyph-name="egrave" unicode="&#xe8;" horiz-adv-x="571" 
d="M-25 424q-28 0 -47 16q-22 16 -22 39q0 15 4 23q11 29 24 45q76 89 168 131q25 13 52 16q6 2 16 2q16 0 29 -8q26 -14 26 -37q0 -18 -18 -33q-55 -52 -131 -77q-20 -4 -31 -4q-10 0 -16 2q-4 2 -11 2t-22 -11q-25 -30 -35 -45q-2 -4 -2 -10q0 -10 16 -10q19 0 37 6
q38 9 81 20.5t95 26.5t80 23q201 56 289 73q18 5 45 9h6q12 0 15 -11v-2q0 -10 -17 -14l-129 -31q-80 -22 -227 -69t-178 -56q-50 -16 -78 -16h-19zM164 643q-59 -20 -123 -74q34 5 71 26.5t52 47.5zM221 768q-21 3 -39 12q-119 67 -153 92q-6 4 -19 17q-8 8 -8 16
q0 11 10 19q12 12 25 12q8 0 20 -6q15 -10 37 -21q99 -47 176 -67q25 -6 25 -21q0 -8 -12 -20q-27 -30 -62 -33z" />
    <glyph glyph-name="eacute" unicode="&#xe9;" horiz-adv-x="571" 
d="M-25 424q-28 0 -47 16q-22 16 -22 39q0 15 4 23q11 29 24 45q76 89 168 131q25 13 52 16q6 2 16 2q16 0 29 -8q26 -14 26 -37q0 -18 -18 -33q-55 -52 -131 -77q-20 -4 -31 -4q-10 0 -16 2q-4 2 -11 2t-22 -11q-25 -30 -35 -45q-2 -4 -2 -10q0 -10 16 -10q19 0 37 6
q38 9 81 20.5t95 26.5t80 23q201 56 289 73q18 5 45 9h6q12 0 15 -11v-2q0 -10 -17 -14l-129 -31q-80 -22 -227 -69t-178 -56q-50 -16 -78 -16h-19zM164 643q-59 -20 -123 -74q34 5 71 26.5t52 47.5zM150 760q-35 3 -62 33q-12 12 -12 20q0 15 24 21q77 20 176 67
q22 11 37 21q12 6 21 6q11 0 24 -13q11 -8 11 -18q0 -7 -9 -16q-15 -15 -18 -17q-30 -22 -154 -92q-18 -9 -38 -12z" />
    <glyph glyph-name="ecircumflex" unicode="&#xea;" horiz-adv-x="571" 
d="M-25 424q-28 0 -47 16q-22 16 -22 39q0 15 4 23q11 29 24 45q76 89 168 131q25 13 52 16q6 2 16 2q16 0 29 -8q26 -14 26 -37q0 -18 -18 -33q-55 -52 -131 -77q-20 -4 -31 -4q-10 0 -16 2q-4 2 -11 2t-22 -11q-25 -30 -35 -45q-2 -4 -2 -10q0 -10 16 -10q19 0 37 6
q38 9 81 20.5t95 26.5t80 23q201 56 289 73q18 5 45 9h6q12 0 15 -11v-2q0 -10 -17 -14l-129 -31q-80 -22 -227 -69t-178 -56q-50 -16 -78 -16h-19zM164 643q-59 -20 -123 -74q34 5 71 26.5t52 47.5zM184 887q21 0 41 -17q27 -27 39 -41q24 -28 76 -92q1 -2 4.5 -5.5
t5.5 -6.5t2 -6q0 -4 -6 -10q-4 -4 -8 -4q-7 0 -21 14q-3 3 -84 78q-18 18 -26 18q-9 0 -27 -12q-14 -8 -28.5 -19t-31.5 -25t-28 -22q-5 -3 -15.5 -10t-15.5 -10q-12 -4 -16 -4q-23 0 -35 18q-4 8 -4 12q0 7 4 11q2 3 13 14q49 46 114 98q29 21 47 21z" />
    </font>
</defs>
</svg>
