<?xml version="1.0" standalone="no"?>
<!DOCTYPE svg PUBLIC "-//W3C//DTD SVG 1.1//EN" "http://www.w3.org/Graphics/SVG/1.1/DTD/svg11.dtd" >
<svg xmlns="http://www.w3.org/2000/svg" xmlns:xlink="http://www.w3.org/1999/xlink" version="1.1">
<metadata>
Created by FontForge 20170731 at Fri Nov  4 05:12:58 2022
 By Aleksey,,,
(c)Storytype Studio 2021. All Rights Reserved
</metadata>
<defs>
<font id="SVN-QalishaSignature-Serif" horiz-adv-x="1142" >
  <font-face 
    font-family="SVN-Qalisha Signature Serif"
    font-weight="400"
    font-stretch="normal"
    units-per-em="2048"
    panose-1="2 0 0 0 0 0 0 0 0 0"
    ascent="1638"
    descent="-410"
    x-height="1069"
    cap-height="1495"
    bbox="-872 -735 2578 2159"
    underline-thickness="2"
    underline-position="-2"
    unicode-range="U+0020-2212"
  />
<missing-glyph horiz-adv-x="1079" 
d="M102 1434h875v-1434h-875v1434zM160 1393l379 -633l381 633h-760zM565 717l371 -621v1239zM514 717l-369 614v-1231zM541 674l-379 -631h758z" />
    <glyph glyph-name=".notdef" horiz-adv-x="1079" 
d="M102 1434h875v-1434h-875v1434zM160 1393l379 -633l381 633h-760zM565 717l371 -621v1239zM514 717l-369 614v-1231zM541 674l-379 -631h758z" />
    <glyph glyph-name="uni0000" horiz-adv-x="0" 
 />
    <glyph glyph-name="uni0000" horiz-adv-x="0" 
 />
    <glyph glyph-name="nonmarkingreturn" horiz-adv-x="0" 
 />
    <glyph glyph-name="space" unicode=" " horiz-adv-x="468" 
 />
    <glyph glyph-name="exclam" unicode="!" horiz-adv-x="518" 
d="M246 416l-84 493q-31 201 -31 391v68q0 57 35.5 92t93.5 35q57 0 92 -34.5t35 -90.5v-74q0 -192 -33 -385l-84 -495q-3 -10 -12 -10t-12 10zM98 139q0 72 44 116t116 44t116 -44t44 -116t-44 -115.5t-116 -43.5t-116 43.5t-44 115.5z" />
    <glyph glyph-name="quotedbl" unicode="&#x22;" horiz-adv-x="468" 
d="M309 926l-45 264q-18 92 -18 209v37q0 32 18.5 50.5t50.5 18.5q30 0 49 -18.5t19 -48.5v-39q0 -109 -16 -207l-45 -266q0 -6 -7 -6q-6 0 -6 6zM145 926l-45 264q-16 98 -16 209v37q0 32 19.5 50.5t50.5 18.5t50 -18t19 -49v-39q0 -97 -18 -207l-45 -266q0 -6 -8 -6
q-7 0 -7 6z" />
    <glyph glyph-name="numbersign" unicode="#" horiz-adv-x="1488" 
d="M262 143l53 250h-249l8 43h250l133 623h-250l8 43h250l53 250h43l-53 -250h625l53 250h41l-53 -250h249l-8 -43h-250l-131 -623h250l-10 -43h-250l-53 -250h-43l55 250h-625l-53 -250h-43zM367 436h624l131 623h-622z" />
    <glyph glyph-name="dollar" unicode="$" horiz-adv-x="1222" 
d="M592 -170v150q-130 4 -242 42t-184 109.5t-72 161.5q0 78 50 132t132 54q75 0 122.5 -48t47.5 -118q0 -33 -12 -67.5t-25.5 -59t-24 -48t-8 -44.5t22.5 -39q63 -52 193 -55v645q-21 12 -66.5 38.5t-68.5 40.5t-64.5 40t-64.5 43t-57 44.5t-52.5 49.5t-41.5 52t-34.5 58.5
t-19.5 63t-8 70.5q0 164 133 268.5t344 104.5v127h20v-127q88 -4 171 -26.5t150 -61t107.5 -97.5t40.5 -129q0 -80 -48.5 -129t-131.5 -49q-75 0 -119.5 42.5t-44.5 113.5q-1 34 10.5 68.5t25 59.5t23.5 49t6.5 46t-24.5 41q-54 45 -166 49v-565q22 -13 69.5 -40.5t73.5 -43
t70 -43t69.5 -46.5t61.5 -49t57.5 -54.5t46 -58t37.5 -65.5t22 -71t9 -80q0 -179 -139.5 -289t-370.5 -110h-6v-150h-20zM319 1268q0 -51 20.5 -97t61 -86.5t84.5 -72.5t107 -70v553q-121 -1 -197 -64.5t-76 -162.5zM612 633v-633q139 3 226.5 76.5t87.5 189.5
q0 60 -24 112.5t-72 98t-96.5 79.5t-121.5 77z" />
    <glyph glyph-name="percent" unicode="%" horiz-adv-x="1353" 
d="M82 1128q0 173 74.5 281.5t195.5 108.5q124 0 201.5 -110t77.5 -288q0 -176 -74 -285.5t-195 -109.5q-124 0 -202 112t-78 291zM215 1120q0 -171 38.5 -278t102.5 -107q63 0 103.5 107.5t40.5 277.5q0 171 -41 278t-103 107q-63 0 -102 -107t-39 -278zM406 0l430 1495
h108l-430 -1495h-108zM721 383q0 173 74.5 281t195.5 108q124 0 201.5 -109.5t77.5 -287.5q0 -176 -74 -285.5t-195 -109.5q-124 0 -202 112t-78 291zM854 375q0 -170 38 -277.5t101 -107.5q65 0 105.5 107.5t40.5 277.5q0 172 -41 278.5t-105 106.5q-61 0 -100 -107.5
t-39 -277.5z" />
    <glyph glyph-name="ampersand" unicode="&#x26;" horiz-adv-x="1380" 
d="M1182 0q-66 0 -131 36.5t-119 108.5q-9 18 -55 80q-21 -53 -46 -92t-65.5 -76.5t-102.5 -57t-143 -19.5q-194 0 -316 110.5t-122 292.5q0 292 362 500q-65 122 -96 203.5t-31 152.5q0 124 95 201.5t237 77.5q134 0 231 -64t97 -162q0 -58 -36.5 -94.5t-96.5 -36.5
q-55 0 -87 31.5t-34 85.5q0 30 12 55t23.5 36t17 31t-7.5 40q-29 55 -109 55q-79 0 -114 -47t-35 -121q0 -75 36 -177.5t102.5 -221.5t134.5 -225t157 -234q8 48 20 160t25 187.5t33 103.5l104 -74q-19 1 -36.5 -11t-31.5 -39t-25.5 -53.5t-22.5 -70.5t-18 -73.5t-17 -78
t-15 -69.5q59 -85 175 -244t145 -207h-94zM616 20q86 0 146 54t106 162q-264 356 -407 618q-65 -79 -94 -199.5t-29 -230.5q0 -180 75 -292t203 -112z" />
    <glyph glyph-name="quotesingle" unicode="'" horiz-adv-x="307" 
d="M145 926l-45 264q-16 98 -16 209v37q0 32 19.5 50.5t50.5 18.5t50 -18t19 -49v-39q0 -97 -18 -207l-45 -266q0 -6 -8 -6q-7 0 -7 6z" />
    <glyph glyph-name="parenleft" unicode="(" horiz-adv-x="606" 
d="M678 -106q-261 0 -419.5 228t-158.5 615q0 255 71.5 451.5t203 305t303.5 108.5v-21q-94 0 -167.5 -104t-114 -294t-40.5 -435q0 -248 39 -436.5t112.5 -293t170.5 -104.5v-20z" />
    <glyph glyph-name="parenright" unicode=")" horiz-adv-x="606" 
d="M-72 -106v20q97 0 170 104.5t111.5 293t38.5 436.5q0 245 -40 435t-113 294t-167 104v21q172 0 303.5 -108.5t203 -305t71.5 -451.5q0 -387 -158.5 -615t-419.5 -228z" />
    <glyph glyph-name="asterisk" unicode="*" horiz-adv-x="442" 
d="M190 1196l31 131l-94 -96q-11 -12 -24.5 -11t-22.5 15q-9 13 -5 26t21 19l125 47l-125 49q-17 4 -21 17t5 28q9 13 23 14t24 -10l94 -98l-31 131q-6 37 31 37t31 -37l-31 -131l94 98q10 11 24 10t23 -14q8 -15 4.5 -28t-18.5 -17l-127 -49l127 -47q15 -6 18 -19t-6 -26
q-8 -14 -21 -15t-24 11l-94 96l31 -131q3 -16 -5 -26.5t-26 -10.5q-17 0 -25.5 11t-5.5 26z" />
    <glyph glyph-name="plus" unicode="+" horiz-adv-x="1048" 
d="M502 281v446h-447v43h447v449h43v-449h448v-43h-448v-446h-43z" />
    <glyph glyph-name="comma" unicode="," horiz-adv-x="466" 
d="M72 139q0 72 43.5 116t115.5 44q73 0 116.5 -46.5t43.5 -131.5q0 -84 -47 -148.5t-109.5 -94.5t-123.5 -30l-5 19q56 18 90.5 43.5t53.5 69.5q-82 0 -130 39t-48 120z" />
    <glyph glyph-name="hyphen" unicode="-" horiz-adv-x="868" 
d="M823 727h-778v43h778v-43z" />
    <glyph glyph-name="period" unicode="." horiz-adv-x="464" 
d="M231 -20q-66 0 -112.5 46.5t-46.5 112.5t46.5 113t112.5 47t113 -47t47 -113t-47 -112.5t-113 -46.5z" />
    <glyph glyph-name="slash" unicode="/" horiz-adv-x="567" 
d="M74 0l399 1495h23l-402 -1495h-20z" />
    <glyph glyph-name="zero" unicode="0" horiz-adv-x="1261" 
d="M96 762q0 222 65.5 394t185.5 267t276 95q238 0 390 -213.5t152 -559.5q0 -223 -66 -397.5t-185.5 -271t-274.5 -96.5q-157 0 -280.5 98.5t-193 277.5t-69.5 406zM352 748q0 -217 34 -386.5t97 -265.5t146 -96q81 0 144.5 94.5t98.5 265t35 388.5q0 221 -36 392t-99 263
t-143 92q-81 0 -144 -94t-98 -264t-35 -389z" />
    <glyph glyph-name="one" unicode="1" horiz-adv-x="583" 
d="M127 1325l-27 43v21q119 15 181.5 37.5t117.5 68.5h21v-1305q0 -57 33 -114l32 -56v-20h-385v20l33 56q31 53 31 114v996q0 76 -37 139z" />
    <glyph glyph-name="two" unicode="2" horiz-adv-x="1155" 
d="M928 240l92 39h20l-43 -279h-905v86q0 91 42.5 188t110.5 184t150 174.5t164 170.5t150 161t110.5 158.5t42.5 149.5q0 97 -79 160t-203 63q-122 0 -179 -49q-22 -19 -25.5 -41t6.5 -46t23 -49t25 -60t12 -68q-2 -71 -45.5 -113.5t-117.5 -42.5q-83 0 -133 49t-50 129
q0 95 74 168.5t185 109.5t233 36q209 0 342 -104.5t133 -268.5q0 -90 -44.5 -172t-117.5 -146.5t-162.5 -125t-184.5 -117.5t-177.5 -112.5t-147.5 -122.5t-90 -136h668q54 0 121 27z" />
    <glyph glyph-name="three" unicode="3" 
d="M332 801v22q194 0 284.5 84t90.5 283q0 302 -197 305q-70 0 -111 -41q-22 -21 -25.5 -44.5t6.5 -48.5t23 -50.5t25 -60.5t12 -68q-2 -71 -46 -113.5t-118 -42.5q-85 0 -133.5 50t-48.5 138q0 135 122.5 219.5t303.5 84.5q198 0 321.5 -101t123.5 -260q0 -123 -76 -215.5
t-195 -122.5q156 -36 255.5 -142.5t99.5 -270.5q0 -190 -139 -308t-367 -118q-193 0 -321 84t-128 221q0 85 48.5 134.5t133.5 49.5q74 0 118 -42t46 -112q0 -40 -16.5 -85t-31.5 -72.5t-12.5 -60t34.5 -60.5q43 -37 112 -37q125 0 196 86t71 244q0 114 -38 205
t-102.5 148.5t-146.5 87.5t-174 30z" />
    <glyph glyph-name="four" unicode="4" horiz-adv-x="1040" 
d="M47 438v21l598 1036h176v-1034q49 6 86 43l21 20h20v-149h-20l-21 20q-40 35 -86 41v-246q0 -61 31 -114l33 -56v-20h-385v20l32 56q31 53 31 114v248h-516zM74 459h489v850z" />
    <glyph glyph-name="five" unicode="5" horiz-adv-x="1077" 
d="M555 924q191 0 308.5 -130.5t117.5 -340.5q0 -219 -131.5 -346t-337.5 -127q-113 0 -208.5 37t-154.5 107.5t-59 160.5q0 85 48.5 134.5t133.5 49.5q74 0 118 -42t46 -112q0 -40 -16.5 -85t-31.5 -72.5t-12.5 -60t34.5 -60.5q43 -37 96 -37q94 0 156.5 96.5t62.5 284.5
q0 207 -77 339t-206 132q-84 0 -155 -56.5t-88 -144.5h-21l107 844h415q58 0 121 25l92 41h21l-43 -279h-612l-68 -534q45 79 137.5 127.5t206.5 48.5z" />
    <glyph glyph-name="six" unicode="6" horiz-adv-x="1191" 
d="M641 -20q-248 0 -395.5 202t-147.5 547q0 231 68 410.5t190.5 279t280.5 99.5q142 0 249 -75t107 -194q0 -72 -42.5 -115.5t-112.5 -43.5q-66 0 -105 37t-39 100q-1 35 12 76t25 68t10 56t-28 50q-28 20 -70 20q-76 0 -132 -57.5t-90 -165.5t-50.5 -252.5t-16.5 -329.5
q0 -99 6 -162q29 181 133 287.5t246 106.5q157 0 257 -125.5t100 -323.5q0 -222 -124.5 -358.5t-330.5 -136.5zM377 416q0 -175 66.5 -295.5t170.5 -120.5q103 0 164.5 115t61.5 297q0 183 -61.5 296t-164.5 113t-170 -113.5t-67 -291.5z" />
    <glyph glyph-name="seven" unicode="7" horiz-adv-x="860" 
d="M741 1282h-465q-85 0 -153 -43l-37 -20h-20v276h737v-145q-86 -155 -143 -282.5t-94.5 -251.5t-52 -251t-12.5 -261.5t21 -303.5h-256q10 206 33.5 354.5t77 301t140 299t224.5 327.5z" />
    <glyph glyph-name="eight" unicode="8" horiz-adv-x="1097" 
d="M365 760q-107 85 -166.5 175.5t-59.5 209.5q0 166 112 269.5t292 103.5q177 0 284 -100.5t107 -241.5q0 -104 -59 -193t-162 -143q65 -48 110.5 -88.5t89.5 -96t66 -121t22 -141.5q0 -123 -60 -218t-160.5 -145t-221.5 -50q-63 0 -127 14t-124.5 44.5t-107.5 74
t-75.5 107.5t-28.5 140q0 123 71 227.5t198 172.5zM342 1286q0 -53 17 -101t46 -87t69.5 -76.5t84.5 -70t93 -67.5l18 -12q48 61 73 144t25 168q0 83 -21.5 150.5t-75.5 114t-134 46.5q-91 0 -143 -56t-52 -153zM389 743q-90 -144 -90 -340q0 -184 70.5 -293.5t199.5 -109.5
q102 0 166 70.5t64 185.5q0 43 -10.5 82.5t-26.5 71.5t-43.5 65.5t-53.5 58t-64.5 55t-67.5 51.5t-72.5 51.5t-71.5 51.5z" />
    <glyph glyph-name="nine" unicode="9" horiz-adv-x="1171" 
d="M547 1518q246 0 386 -202.5t140 -557.5q0 -233 -62.5 -408.5t-182.5 -272.5t-285 -97q-96 0 -179 31.5t-135.5 93.5t-52.5 141q0 72 43 116t113 44q66 0 104.5 -37.5t38.5 -100.5q1 -35 -12 -75.5t-24.5 -67.5t-10 -56t26.5 -51q32 -20 71 -20q76 0 132 57.5t90 166
t50.5 253t16.5 328.5q0 111 -8 164q-26 -180 -128.5 -287t-238.5 -107q-150 0 -248 126t-98 325q0 220 125 357t328 137zM793 1079q0 114 -29.5 209t-82.5 151t-118 56q-95 0 -154 -115.5t-59 -296.5q0 -182 59 -294.5t154 -112.5q98 0 164 113.5t66 289.5z" />
    <glyph glyph-name="colon" unicode=":" horiz-adv-x="493" 
d="M86 928q0 72 44 115.5t116 43.5t116 -43.5t44 -115.5t-44 -116t-116 -44t-116 44t-44 116zM86 139q0 72 44 116t116 44t116 -44t44 -116t-44 -115.5t-116 -43.5t-116 43.5t-44 115.5z" />
    <glyph glyph-name="semicolon" unicode=";" horiz-adv-x="493" 
d="M86 928q0 72 44 115.5t116 43.5t116 -43.5t44 -115.5t-44 -116t-116 -44t-116 44t-44 116zM86 139q0 72 44 116t116 44q73 0 116.5 -46.5t43.5 -131.5q0 -64 -27.5 -117.5t-70.5 -86.5t-91.5 -51t-93.5 -18l-2 19q56 18 90 43.5t53 69.5q-82 0 -130 39t-48 120z" />
    <glyph glyph-name="less" unicode="&#x3c;" horiz-adv-x="976" 
d="M59 754l854 434v-23l-833 -422l833 -424v-22l-854 434v23z" />
    <glyph glyph-name="equal" unicode="=" horiz-adv-x="1044" 
d="M53 983h938v-43h-938v43zM53 555h938v-43h-938v43z" />
    <glyph glyph-name="greater" unicode="&#x3e;" horiz-adv-x="976" 
d="M61 1188l854 -434v-23l-854 -434v22l834 424l-834 422v23z" />
    <glyph glyph-name="question" unicode="?" horiz-adv-x="1044" 
d="M459 406h-23q0 96 18 177.5t47.5 137.5t64.5 105t70 92t64.5 85.5t47.5 97.5t18 118q0 131 -70 203.5t-174 72.5q-97 0 -149 -49q-22 -19 -25.5 -41t6.5 -46t23 -49t24.5 -59.5t10.5 -68.5q0 -71 -44.5 -113.5t-119.5 -42.5q-83 0 -131.5 49t-48.5 129q0 95 73.5 168.5
t180.5 109.5t221 36q183 0 304.5 -95.5t121.5 -248.5q0 -70 -28 -130t-73 -105.5t-99.5 -88.5t-109 -87.5t-99.5 -93.5t-73 -116.5t-28 -146.5zM324 129q0 72 43.5 116t115.5 44t117 -44t45 -116t-45 -117t-117 -45t-115.5 45t-43.5 117z" />
    <glyph glyph-name="at" unicode="@" horiz-adv-x="1681" 
d="M1223 557v-309q0 -76 32 -119t80 -43q74 0 121 100t47 248q0 204 -89 365t-247.5 250.5t-359.5 89.5q-198 0 -351.5 -89.5t-237 -247.5t-83.5 -360q0 -209 89.5 -371.5t250 -251.5t365.5 -89l-2 -23q-335 0 -540.5 206t-205.5 542q0 166 53.5 305.5t149.5 236.5t231 151
t295 54q217 0 391 -94t274.5 -269t100.5 -401q0 -205 -81 -329.5t-222 -124.5q-94 0 -176 52.5t-104 139.5q-24 -93 -93 -146t-172 -53q-134 0 -225.5 86t-91.5 220q0 131 89.5 220t223.5 89q96 0 165 -48.5t97 -135.5v178q0 169 -47 256.5t-135 87.5q-71 0 -96 -37
q-13 -16 -14 -42.5t5 -50.5t12.5 -53t6.5 -45q0 -39 -32 -66.5t-83 -27.5q-57 0 -89.5 32.5t-32.5 84.5q0 91 95.5 157t243.5 66q77 0 144 -21t124.5 -65t90.5 -122t33 -183zM823 33q77 0 125 59t49 172v31q-2 98 -49 164.5t-123 66.5q-81 0 -130.5 -72t-49.5 -184
q0 -107 49 -172t129 -65z" />
    <glyph glyph-name="A" unicode="A" horiz-adv-x="1173" 
d="M795 188l-76 250h-508l-78 -250q-16 -59 10 -116l23 -52v-20h-172v20l55 64q43 39 60 104l409 1307h152l395 -1307q17 -64 59 -106l56 -62v-20h-418v20l24 52q24 60 9 116zM219 459h494l-244 805z" />
    <glyph glyph-name="B" unicode="B" horiz-adv-x="1175" 
d="M700 0h-632v23l32 55q31 53 31 115v1112q0 57 -31 114l-32 56v20h546q192 0 306 -87.5t114 -240.5q0 -122 -71.5 -207.5t-198.5 -119.5q162 -20 258 -132t96 -284q0 -193 -114.5 -308.5t-303.5 -115.5zM401 1475h-14v-631h14q190 0 282.5 73.5t92.5 227.5q0 162 -97 246
t-278 84zM465 823h-78v-803h78q180 0 288.5 110.5t108.5 293.5q0 180 -108.5 289.5t-288.5 109.5z" />
    <glyph glyph-name="C" unicode="C" horiz-adv-x="1413" 
d="M1331 1159q0 -86 -57 -141t-150 -55q-87 0 -137.5 49t-50.5 129q-1 40 12.5 80t28.5 68.5t27 56t8.5 51.5t-27.5 45q-61 53 -186 53q-151 0 -263.5 -94t-168.5 -252.5t-56 -357.5q0 -330 150.5 -529t396.5 -199q71 0 141.5 18t139.5 56t127 106.5t92 159.5h22
q-79 -202 -245 -312.5t-385 -110.5q-204 0 -362 95.5t-245.5 270.5t-87.5 402q0 345 194.5 557.5t508.5 212.5q146 0 277.5 -46t213.5 -129.5t82 -183.5z" />
    <glyph glyph-name="D" unicode="D" horiz-adv-x="1216" 
d="M422 0h-354v20l32 56q31 53 31 114v1115q0 57 -31 114l-32 56v20h354q164 0 301.5 -54t234 -151.5t150 -238.5t53.5 -310q0 -340 -199.5 -540.5t-539.5 -200.5zM399 1475h-12v-1455h12q155 0 271 94t175.5 258t59.5 376q0 327 -137.5 527t-368.5 200z" />
    <glyph glyph-name="E" unicode="E" horiz-adv-x="1042" 
d="M737 823h-350v-803h434q58 0 103.5 32.5t64.5 88.5l2 9h21l-43 -150h-901v20l32 56q31 53 31 114v1115q0 57 -31 114l-32 56v20h901l43 -149h-21l-2 8q-19 56 -64.5 88.5t-103.5 32.5h-434v-631h350q37 0 59.5 23.5t22.5 60.5v2h23v-193h-23v2q0 37 -22.5 60.5
t-59.5 23.5z" />
    <glyph glyph-name="F" unicode="F" horiz-adv-x="1015" 
d="M737 823h-350v-633q0 -59 33 -112l33 -58v-20h-385v20l32 56q31 53 31 114v1115q0 57 -31 114l-32 56v20h901l43 -149h-21l-2 8q-19 56 -64.5 88.5t-103.5 32.5h-434v-631h350q37 0 59.5 23.5t22.5 60.5v2h23v-193h-23v2q0 37 -22.5 60.5t-59.5 23.5z" />
    <glyph glyph-name="G" unicode="G" horiz-adv-x="1431" 
d="M1331 1159q0 -86 -57 -141t-150 -55q-87 0 -137.5 49t-50.5 129q-1 40 12.5 80t28.5 68.5t27 56t8.5 51.5t-27.5 45q-61 53 -186 53q-151 0 -263.5 -94t-168.5 -252.5t-56 -357.5q0 -330 150.5 -529t396.5 -199q100 0 201 37v494q0 62 -31 115l-33 53v22h385v-22l-32 -53
q-33 -57 -33 -115v-315q-91 -145 -236.5 -222t-328.5 -77q-204 0 -362 95.5t-245.5 270.5t-87.5 402q0 345 194.5 557.5t508.5 212.5q146 0 277.5 -46t213.5 -129.5t82 -183.5z" />
    <glyph glyph-name="H" unicode="H" horiz-adv-x="1251" 
d="M420 76l33 -56v-20h-385v20l32 56q31 53 31 114v1115q0 57 -31 114l-32 56v20h385v-20l-33 -56q-33 -61 -33 -114v-631h475v631q0 60 -33 114l-30 56v20h385v-20l-33 -56q-33 -61 -33 -114v-1115q0 -57 33 -114l33 -56v-20h-385v20l30 56q33 51 33 114v461h-475v-461
q0 -57 33 -114z" />
    <glyph glyph-name="I" unicode="I" horiz-adv-x="520" 
d="M420 76l33 -56v-20h-385v20l32 56q31 53 31 114v1115q0 57 -31 114l-32 56v20h385v-20l-33 -56q-33 -61 -33 -114v-1115q0 -57 33 -114z" />
    <glyph glyph-name="J" unicode="J" horiz-adv-x="1056" 
d="M498 -20q-126 0 -236 42t-179 122.5t-69 181.5q0 92 57 149t150 57q87 0 138 -49t51 -129q1 -47 -18 -97.5t-36.5 -81.5t-15.5 -66.5t37 -65.5q59 -41 123 -41q106 0 142 103t36 360v840q0 57 -31 114l-33 56v20h385v-20l-32 -56q-31 -57 -31 -114v-840
q0 -226 -112 -355.5t-326 -129.5z" />
    <glyph glyph-name="K" unicode="K" horiz-adv-x="1140" 
d="M1073 86l72 -66v-20h-436v20l14 48q16 59 -14 114l-322 533v-525q0 -57 33 -114l33 -56v-20h-385v20l32 56q31 53 31 114v1115q0 57 -31 114l-32 56v20h385v-20l-33 -56q-33 -61 -33 -114v-535l449 549q38 55 41 111l2 45v20h176v-20l-105 -74q-24 -13 -49.5 -36.5
t-40.5 -45.5l-313 -387l448 -750q26 -48 78 -96z" />
    <glyph glyph-name="L" unicode="L" horiz-adv-x="1005" 
d="M453 1475l-33 -56q-33 -57 -33 -114v-1285h434q58 0 103.5 32.5t64.5 88.5l2 9h21l-43 -150h-901v23l32 55q31 53 31 115v1112q0 59 -31 116l-32 54v20h385v-20z" />
    <glyph glyph-name="M" unicode="M" horiz-adv-x="1572" 
d="M184 76l33 -56v-20h-149v20l32 56q31 53 31 114v1115q0 57 -31 114l-32 56v20h331l387 -1262l398 1262h319v-20l-33 -56q-30 -55 -30 -114v-1115q0 -62 30 -114l33 -56v-20h-385v20l33 56q33 57 33 114v1237l-451 -1427h-141l-438 1425v-1235q0 -62 30 -114z" />
    <glyph glyph-name="N" unicode="N" horiz-adv-x="1247" 
d="M184 76l33 -56v-20h-149v20l32 56q31 53 31 114v1115q0 57 -31 114l-32 56v20h358l672 -1198v1008q0 60 -33 114l-31 56v20h150v-20l-33 -56q-33 -61 -33 -114v-1305h-149l-815 1456v-1266q0 -62 30 -114z" />
    <glyph glyph-name="O" unicode="O" horiz-adv-x="1501" 
d="M55 748q0 171 51 314.5t142.5 243.5t221 156t282.5 56q310 0 501 -212t191 -556q0 -170 -50 -313t-140 -243.5t-219.5 -157t-282.5 -56.5q-154 0 -283.5 56t-220.5 155.5t-142 243t-51 313.5zM311 735q0 -334 118.5 -534.5t315.5 -200.5q200 0 321.5 204t121.5 546
q0 339 -119 542t-315 203q-131 0 -232 -95.5t-156 -268t-55 -396.5z" />
    <glyph glyph-name="P" unicode="P" horiz-adv-x="1148" 
d="M702 651h-315v-461q0 -57 33 -114l33 -56v-20h-385v20l32 56q31 53 31 114v1115q0 57 -31 114l-32 56v20h632q189 0 303.5 -115t114.5 -305q0 -192 -114 -308t-302 -116zM465 1475h-78v-801h78q180 0 288.5 109t108.5 292q0 181 -108.5 290.5t-288.5 109.5z" />
    <glyph glyph-name="Q" unicode="Q" horiz-adv-x="1501" 
d="M55 748q0 171 51 314.5t142.5 243.5t221 156t282.5 56q310 0 501 -212t191 -556q0 -170 -50 -313t-140 -243.5t-219.5 -157t-282.5 -56.5q-64 0 -111 8q-14 -49 -14 -103q0 -146 99.5 -236.5t250.5 -90.5q109 0 166 51q21 18 24 34t-7 33t-23.5 35t-25 47t-11.5 62
q2 69 47 114.5t117 45.5q79 0 128.5 -52t49.5 -131q0 -113 -102 -198.5t-281 -85.5q-201 0 -328 107t-127 271q0 53 12 99q-256 44 -408.5 248.5t-152.5 509.5zM311 735q0 -281 84.5 -469.5t233.5 -245.5q48 136 184 224t313 88q62 180 62 418q0 339 -119 542t-315 203
q-131 0 -232 -95.5t-156 -268t-55 -396.5zM649 14q43 -14 96 -14q124 0 219.5 80t151.5 227q-180 -1 -301.5 -84t-165.5 -209z" />
    <glyph glyph-name="R" unicode="R" horiz-adv-x="1206" 
d="M702 651h-36q49 -21 88 -64t84 -114l198 -307q41 -67 82 -103l56 -43l2 -20h-238q-95 0 -160 100l-342 551h-49v-461q0 -57 33 -114l33 -56v-20h-385v20l32 56q31 53 31 114v1115q0 57 -31 114l-32 56v20h632q189 0 303.5 -115t114.5 -305q0 -192 -114 -308t-302 -116z
M465 1475h-78v-801h78q180 0 288.5 109t108.5 292q0 181 -108.5 290.5t-288.5 109.5z" />
    <glyph glyph-name="S" unicode="S" horiz-adv-x="1146" 
d="M283 1268q0 -58 27.5 -110t74.5 -94t107.5 -82t128 -78.5t134.5 -78t127.5 -86.5t107.5 -98.5t74.5 -118.5t27.5 -143q0 -179 -139.5 -289t-370.5 -110q-135 0 -253.5 36.5t-195 109.5t-76.5 167q0 78 50.5 132t132.5 54q75 0 122.5 -48t47.5 -118q0 -33 -12 -67.5
t-25.5 -59t-24.5 -48t-8.5 -44.5t22.5 -39q62 -55 201 -55q143 0 234.5 74t91.5 192q0 62 -27.5 117.5t-74.5 99.5t-108 85t-128.5 79.5t-134.5 77t-128 83t-108 93t-74.5 111t-27.5 133.5q0 164 133 268.5t342 104.5q122 0 232.5 -36t184.5 -109.5t74 -168.5
q0 -80 -48.5 -129t-131.5 -49q-75 0 -119.5 42.5t-44.5 113.5q-1 34 10.5 68.5t25 59.5t23.5 49t6.5 46t-24.5 41q-60 49 -180 49q-124 0 -201 -63.5t-77 -163.5z" />
    <glyph glyph-name="T" unicode="T" horiz-adv-x="1095" 
d="M709 76l30 -56v-20h-385v20l33 56q33 57 33 114v1285h-240q-58 0 -103.5 -32.5t-64.5 -88.5l-2 -8h-20l43 149h1030l43 -149h-23l-2 8q-17 55 -63 88t-103 33h-239v-1285q0 -63 33 -114z" />
    <glyph glyph-name="U" unicode="U" horiz-adv-x="1226" 
d="M623 -20q-225 0 -364.5 133t-139.5 352v840q0 57 -31 114l-33 56v20h385v-20l-32 -56q-33 -61 -33 -114v-840q0 -106 43.5 -201.5t128 -158t190.5 -62.5q68 0 129 27t110.5 80t79 140t29.5 197v818q0 61 -32 114l-33 56v20h151v-20l-32 -56q-33 -54 -33 -114v-840
q0 -216 -129 -350.5t-354 -134.5z" />
    <glyph glyph-name="V" unicode="V" horiz-adv-x="1173" 
d="M379 1307l326 -1074l333 1074q19 58 -8 116l-24 52v20h174v-20l-56 -62q-39 -39 -61 -106l-408 -1307h-151l-395 1307q-17 61 -60 108l-55 60v20h418v-20l-25 -52q-23 -59 -8 -116z" />
    <glyph glyph-name="W" unicode="W" horiz-adv-x="1880" 
d="M655 0h-151l-395 1307q-17 61 -60 108l-55 60v20h418v-20l-25 -52q-23 -59 -8 -116l326 -1074l221 707l-111 367q-21 65 -61 108l-56 60v20h420v-20l-26 -52q-24 -60 -9 -116l328 -1074l332 1074q22 58 -8 116l-23 52v20h172v-20l-55 -62q-43 -46 -62 -106l-405 -1307
h-152l-274 901z" />
    <glyph glyph-name="X" unicode="X" horiz-adv-x="1144" 
d="M1071 86l70 -66v-20h-436v20l14 48q19 59 -10 116l-213 430l-293 -434q-33 -57 -27 -114l8 -46v-20h-176v20l86 70q55 44 82 90l309 457l-335 676q-25 52 -76 96l-70 66v20h436v-20l-16 -48q-17 -62 12 -114l213 -430l293 434q34 55 25 113l-6 45v20h176v-20l-86 -70
q-51 -41 -84 -88l-308 -459l336 -674q25 -54 76 -98z" />
    <glyph glyph-name="Y" unicode="Y" horiz-adv-x="1085" 
d="M936 1313l-270 -584v-539q0 -62 30 -114l33 -56v-20h-385v20l33 56q33 57 33 114v439l-281 680q-23 58 -72 100l-69 66v20h436v-20l-16 -48q-17 -63 8 -118l231 -566l264 570q25 59 19 117l-6 45v20h174v-20l-84 -70q-57 -42 -78 -92z" />
    <glyph glyph-name="Z" unicode="Z" horiz-adv-x="944" 
d="M301 20h410q57 0 103 33t63 88l2 9h22l-43 -150h-838v20l623 1455h-412q-57 0 -102.5 -33t-62.5 -88l-3 -8h-22l43 149h838v-20z" />
    <glyph glyph-name="bracketleft" unicode="[" horiz-adv-x="483" 
d="M113 -106v1708h362v-21h-106v-1667h106v-20h-362z" />
    <glyph glyph-name="backslash" unicode="\" horiz-adv-x="567" 
d="M92 1495l402 -1495h-23l-399 1495h20z" />
    <glyph glyph-name="bracketright" unicode="]" horiz-adv-x="483" 
d="M369 1602v-1708h-363v20h107v1667h-107v21h363z" />
    <glyph glyph-name="asciicircum" unicode="^" horiz-adv-x="501" 
d="M260 1495l180 -276h-73l-117 190l-119 -190h-70l179 276h20z" />
    <glyph glyph-name="underscore" unicode="_" horiz-adv-x="1040" 
d="M926 -63h-813v20h813v-20z" />
    <glyph glyph-name="grave" unicode="`" horiz-adv-x="387" 
d="M307 1239l-244 178l72 101l193 -279h-21z" />
    <glyph glyph-name="a" unicode="a" horiz-adv-x="1081" 
d="M971 641v-451q0 -62 30 -114l33 -56v-20h-151q-75 0 -122.5 46.5t-47.5 121.5v12q-33 -96 -109.5 -149.5t-187.5 -53.5q-154 0 -258.5 98t-104.5 251q0 152 102.5 254t256.5 102q109 0 188 -57t113 -156v207q0 193 -54 293t-155 100q-33 0 -65 -11t-46 -32
q-15 -18 -16 -48t6 -57t15 -61t8 -53q0 -44 -37 -75.5t-97 -31.5q-63 0 -100 37t-37 97q0 103 109 179.5t276 76.5q89 0 166 -24t143 -74.5t104 -140.5t38 -210zM512 41q90 0 145.5 71t55.5 203v25q-2 113 -56 189.5t-143 76.5q-92 0 -148.5 -81.5t-56.5 -211.5
q0 -124 55.5 -198t147.5 -74z" />
    <glyph glyph-name="b" unicode="b" horiz-adv-x="1187" 
d="M358 1495v-797q37 184 133 288t234 104q172 0 286.5 -153.5t114.5 -389.5q0 -258 -138 -412.5t-361 -154.5q-211 0 -355 141l-147 -121h-23v1241q0 61 -30 113l-33 55v23l299 63h20zM618 0q118 0 185 134.5t67 359.5t-65 367.5t-176 142.5q-76 0 -138.5 -71.5t-97.5 -193
t-35 -264.5q9 -225 78.5 -350t181.5 -125z" />
    <glyph glyph-name="c" unicode="c" horiz-adv-x="1087" 
d="M997 834q0 -66 -40 -106t-111 -40q-64 0 -104 34t-40 83q0 21 8.5 54t16 58.5t6.5 55t-16 49.5q-36 47 -121 47q-88 0 -152.5 -66t-96.5 -178.5t-32 -257.5q0 -243 93.5 -383.5t259.5 -140.5q65 0 123.5 22.5t98 55t70.5 71.5t46.5 69.5t21.5 51.5h21
q-53 -156 -179 -244.5t-299 -88.5q-230 0 -371 152.5t-141 402.5q0 252 144.5 403.5t390.5 151.5q176 0 289.5 -73t113.5 -183z" />
    <glyph glyph-name="d" unicode="d" horiz-adv-x="1212" 
d="M834 166v168q-58 -357 -324 -357q-188 0 -318.5 157.5t-130.5 410.5q0 238 120.5 390t312.5 152q141 0 225 -92t115 -276v518q0 58 -33 115l-33 53v25l299 63h23v-1305q0 -61 30 -116l33 -54v-20h-152q-76 0 -121.5 46.5t-45.5 121.5zM584 61q105 0 171 109.5t74 355.5
q-16 475 -241 475q-128 0 -199.5 -135.5t-71.5 -341.5q0 -133 30.5 -237t91.5 -165t145 -61z" />
    <glyph glyph-name="e" unicode="e" horiz-adv-x="1093" 
d="M997 723q0 -178 -139 -282.5t-375 -104.5q-58 0 -143 10q36 -144 120.5 -223.5t207.5 -79.5q65 0 123.5 22.5t98 55t70.5 71.5t46.5 69.5t21.5 51.5h21q-53 -156 -179 -244.5t-299 -88.5q-230 0 -371 152.5t-141 402.5t141 402.5t371 152.5q189 0 307.5 -101t118.5 -266z
M334 379q88 26 160 66.5t120.5 87.5t81.5 100.5t47.5 105.5t14.5 103q0 95 -48.5 161t-131.5 66q-119 0 -191 -141.5t-72 -360.5q0 -101 19 -188z" />
    <glyph glyph-name="f" unicode="f" horiz-adv-x="561" 
d="M125 190v857h-72v22h72v41q0 216 80 312t262 96q164 0 263 -67t99 -177q0 -70 -41 -114t-112 -44q-63 0 -102 34t-39 83q0 20 8 53t15 59t5 58t-20 55q-32 37 -78 37q-57 0 -69.5 -63t-12.5 -244v-14.5v-13.5v-15v-76h162v-22h-162v-857q0 -61 31 -114l32 -56v-20h-385
v20l33 56q31 53 31 114z" />
    <glyph glyph-name="g" unicode="g" horiz-adv-x="1114" 
d="M86 670q0 185 127 302.5t324 117.5q15 0 65 -5q34 61 56.5 94.5t54.5 66t70 46t89 13.5q101 0 166.5 -52.5t65.5 -136.5q0 -62 -36 -102.5t-97 -40.5q-50 0 -82.5 26t-32.5 68q0 17 7 42.5t13 44.5t4 42.5t-18 42.5q-27 31 -59 31q-25 0 -46.5 -11.5t-46.5 -42.5
t-39.5 -54.5t-47.5 -78.5q163 -25 260.5 -138t97.5 -281q0 -189 -121.5 -308.5t-318.5 -119.5q-136 0 -242 59q-4 -8 -4 -16q0 -32 39.5 -53.5t102 -35t138.5 -27t152.5 -35t139 -52.5t102 -86t39.5 -129q0 -140 -127 -225t-330 -85q-70 0 -137.5 10.5t-137.5 36.5
t-122.5 66t-85.5 104t-33 144q0 118 64 195t165 77q74 0 123 -42t49 -115q0 -60 -31.5 -99t-82.5 -39q-26 0 -79.5 16.5t-82.5 16.5q-39 0 -69 -17t-30 -52q0 -68 55.5 -123.5t140.5 -85t177 -29.5q139 0 219 69t80 185q0 64 -25.5 113t-66 78t-90 50.5t-98.5 36t-89.5 28.5
t-66 34t-25.5 47q0 23 15 47q-94 58 -147.5 153.5t-53.5 213.5zM342 647q0 -176 52.5 -283.5t137.5 -107.5t139 111.5t54 291.5q0 178 -52.5 294t-135.5 116q-84 0 -139.5 -120.5t-55.5 -301.5z" />
    <glyph glyph-name="h" unicode="h" horiz-adv-x="1118" 
d="M1001 727v-537q0 -63 33 -114l31 -56v-20h-383v20l31 56q32 50 32 114v457q0 86 -8 149.5t-26.5 114t-53 76t-84.5 25.5q-82 0 -136 -65.5t-60 -172.5v-584q0 -57 33 -114l32 -56v-20h-385v20l33 56q31 53 31 114v1051q0 60 -31 113l-33 55v23l299 63h21v-612
q35 95 121 151t198 56q146 0 225.5 -95.5t79.5 -267.5z" />
    <glyph glyph-name="i" unicode="i" horiz-adv-x="503" 
d="M121 1309q0 60 36.5 97.5t96.5 37.5t96.5 -37.5t36.5 -97.5t-36.5 -96.5t-96.5 -36.5t-96.5 36.5t-36.5 96.5zM414 76l32 -56v-20h-385v20l33 56q31 53 31 114v623q0 58 -31 115l-33 55v21l299 65h21v-879q0 -57 33 -114z" />
    <glyph glyph-name="j" unicode="j" horiz-adv-x="481" 
d="M117 1309q0 60 36.5 97.5t96.5 37.5t96.5 -37.5t36.5 -97.5t-36.5 -96.5t-96.5 -36.5t-96.5 36.5t-36.5 96.5zM377 1069v-1112q0 -216 -79.5 -311t-260.5 -95q-163 0 -263 67t-100 177q0 70 41.5 114t112.5 44q64 0 102.5 -34t38.5 -83q0 -20 -8 -54t-15 -60t-4 -58
t21 -55q27 -37 74 -37q20 0 34 6.5t23.5 23.5t15.5 36t8.5 53t3.5 66t1 83v973q0 63 -33 117l-31 53v21l297 65h21z" />
    <glyph glyph-name="k" unicode="k" horiz-adv-x="980" 
d="M709 891l-99 -123l211 -582q25 -62 70 -98l76 -68v-20h-422v20l10 48q13 62 -6 118l-125 351l-47 -60v-287q0 -57 33 -114l32 -56v-20h-385v20l33 56q31 53 31 114v1051q0 60 -31 113l-33 55v23l299 63h21v-985l305 381q37 50 37 110v68h178v-22l-98 -70q-51 -38 -90 -86
z" />
    <glyph glyph-name="l" unicode="l" horiz-adv-x="499" 
d="M410 76l32 -56v-20h-385v20l33 56q31 53 31 114v1051q0 60 -31 113l-33 55v23l299 63h21v-1305q0 -57 33 -114z" />
    <glyph glyph-name="m" unicode="m" horiz-adv-x="1622" 
d="M414 76l32 -56v-20h-385v20l33 56q31 53 31 114v623q0 58 -31 115l-33 55v21l299 65h21v-180q33 93 109 147t180 54q108 0 175.5 -61.5t88.5 -170.5q26 107 105.5 169.5t191.5 62.5q130 0 201 -85t71 -235v-580q0 -63 33 -114l31 -56v-20h-383v20l30 56q33 51 33 114v457
q0 191 -30 278t-101 87t-122 -72.5t-52 -185.5v-564q0 -61 31 -114l33 -56v-20h-385v20l32 56q33 57 33 114v457q0 191 -30 278t-101 87q-68 0 -118 -66.5t-56 -171.5v-584q0 -57 33 -114z" />
    <glyph glyph-name="n" unicode="n" horiz-adv-x="1122" 
d="M1006 727v-537q0 -64 32 -114l31 -56v-20h-383v20l31 56q33 51 33 114v457q0 86 -8 149.5t-26.5 114t-53 76t-84.5 25.5q-82 0 -136.5 -65.5t-60.5 -172.5v-584q0 -57 33 -114l32 -56v-20h-385v20l33 56q31 53 31 114v623q0 58 -31 115l-33 55v21l299 65h21v-186
q35 95 121 151t198 56q146 0 226 -95.5t80 -267.5z" />
    <glyph glyph-name="o" unicode="o" 
d="M59 535q0 250 141 402.5t371 152.5t371 -152.5t141 -402.5t-141 -402.5t-371 -152.5t-371 152.5t-141 402.5zM315 524q0 -246 70 -385t188 -139q121 0 187.5 139.5t66.5 386.5q0 248 -67 395.5t-187 147.5q-118 0 -188 -148.5t-70 -396.5z" />
    <glyph glyph-name="p" unicode="p" horiz-adv-x="1206" 
d="M410 -352l32 -54v-22h-385v22l33 54q31 57 31 114v1051q0 58 -31 115l-33 55v21l299 65h21v-328q64 346 336 346q191 0 311.5 -152t120.5 -390q0 -253 -130.5 -410.5t-318.5 -157.5q-256 0 -319 334v-549q0 -54 33 -114zM623 61q125 0 195.5 129t70.5 334
q0 206 -71.5 341.5t-199.5 135.5q-225 0 -241 -475q7 -245 73.5 -355t172.5 -110z" />
    <glyph glyph-name="q" unicode="q" horiz-adv-x="1187" 
d="M561 1090q210 0 354 -144l148 123h22v-1307q0 -57 31 -114l33 -54v-22h-385v22l33 54q32 59 32 114v607q-37 -182 -132.5 -285.5t-233.5 -103.5q-173 0 -287.5 152.5t-114.5 389.5q0 258 138.5 413t361.5 155zM559 63q76 0 138.5 72t97 193.5t34.5 265.5
q-9 224 -79 349.5t-181 125.5q-118 0 -185 -134.5t-67 -359.5q0 -148 29 -263.5t84.5 -182t128.5 -66.5z" />
    <glyph glyph-name="r" unicode="r" horiz-adv-x="950" 
d="M414 76l32 -56v-20h-385v20l33 56q31 53 31 114v623q0 58 -31 115l-33 55v21l299 65h21v-160q59 181 262 181q123 0 201 -64t78 -166q0 -74 -42.5 -123t-115.5 -49q-59 0 -98 33t-39 82q0 21 8.5 51.5t16 53t5.5 51t-20 51.5q-33 37 -76 37q-68 0 -121 -79t-59 -192v-586
q0 -57 33 -114z" />
    <glyph glyph-name="s" unicode="s" horiz-adv-x="856" 
d="M590 147q0 51 -27 100t-70 90t-95.5 81.5t-105 83.5t-95.5 88.5t-70 103t-27 119.5q0 125 94.5 201t249.5 76q148 0 241 -70t93 -182q0 -69 -37 -108.5t-104 -39.5q-61 0 -98 30.5t-37 76.5q0 19 7.5 50.5t14.5 57t6 56.5t-16 55q-13 23 -38.5 38t-57.5 15
q-52 0 -84.5 -38.5t-32.5 -96.5q0 -49 27 -96.5t70 -88t95.5 -81.5t105 -85t95.5 -90.5t70 -105t27 -121.5q0 -128 -102 -207t-271 -79q-158 0 -260.5 69.5t-102.5 179.5q0 68 41 110t111 42q66 0 105.5 -34t39.5 -85q0 -20 -8 -53t-15.5 -59t-6 -56t17.5 -51
q29 -43 104 -43q67 0 106.5 41t39.5 106z" />
    <glyph glyph-name="t" unicode="t" horiz-adv-x="557" 
d="M483 55q-35 -75 -149 -75q-120 0 -166.5 88.5t-46.5 273.5v705h-76v22h76l233 213h23v-213h160v-22h-160v-625v-17q0 -68 0.5 -100.5t3.5 -82t9.5 -72.5t18 -49t30 -36t44.5 -10z" />
    <glyph glyph-name="u" unicode="u" horiz-adv-x="1120" 
d="M117 342v471q0 60 -31 117l-33 53v21l299 65h21v-647q0 -87 8 -150.5t26.5 -114.5t53 -76.5t84.5 -25.5q82 0 137 66.5t59 173.5v518q0 64 -32 117l-31 53v21l299 65h20v-879q0 -63 33 -114l31 -56v-20h-152q-75 0 -121.5 46t-46.5 122v18q-35 -96 -120.5 -151
t-198.5 -55q-145 0 -225 94.5t-80 267.5z" />
    <glyph glyph-name="v" unicode="v" horiz-adv-x="1009" 
d="M879 883l-295 -883h-172l-285 881q-19 59 -61 104l-60 62v22h422v-22l-22 -52q-25 -59 -7 -114l222 -697l233 699q19 56 -4 114l-21 50v22h172v-22l-59 -62q-44 -48 -63 -102z" />
    <glyph glyph-name="w" unicode="w" horiz-adv-x="1564" 
d="M584 0h-172l-285 881q-19 59 -61 104l-60 62v22h422v-22l-22 -52q-25 -59 -7 -114l222 -697l145 437l-82 260q-23 61 -63 104l-60 62v22h422v-22l-22 -52q-25 -59 -7 -114l224 -697l231 699q22 56 -4 114l-21 50v22h172v-22l-59 -62q-47 -54 -63 -102l-295 -883h-172
l-187 584z" />
    <glyph glyph-name="x" unicode="x" horiz-adv-x="1019" 
d="M201 66v-66h-178v20l98 72q40 24 90 86l207 258l-248 451q-21 43 -76 94l-78 66v22h443v-22l-10 -48q-12 -57 14 -112l129 -234l188 238q39 48 39 110v68h178v-22l-98 -70q-58 -43 -90 -86l-207 -258l248 -451q24 -50 76 -94l78 -68v-20h-443v20l10 48q13 59 -14 114
l-129 232l-190 -236q-37 -50 -37 -112z" />
    <glyph glyph-name="y" unicode="y" horiz-adv-x="1005" 
d="M877 883l-295 -840q-75 -214 -108 -282q-70 -143 -168 -186q-53 -24 -122 -24q-124 0 -214.5 68.5t-90.5 175.5q0 70 41.5 114t112.5 44q64 0 102.5 -34t38.5 -83q0 -21 -8 -51t-15 -52t-5 -49.5t20 -50.5q27 -39 86 -39q41 0 76.5 20.5t63 53.5t58 94t54 122.5
t57.5 158.5h-149l-285 840q-18 52 -61 102l-60 62v22h420v-22l-20 -52q-28 -59 -7 -112l222 -664l233 664q19 56 -4 114l-23 50v22h174v-22l-61 -62q-47 -54 -63 -102z" />
    <glyph glyph-name="z" unicode="z" horiz-adv-x="804" 
d="M326 20h235q57 0 103 33t63 88l2 9h23l-43 -150h-676v20l446 1027h-235q-57 0 -103 -32.5t-63 -86.5l-2 -8h-23l43 149h676v-22z" />
    <glyph glyph-name="braceleft" unicode="{" horiz-adv-x="598" 
d="M74 784v21q47 0 79 5t52.5 13.5t30.5 26t13.5 35.5t1.5 48.5t-5 60t-6.5 75.5t-3.5 88q0 232 95 338.5t279 106.5v-21q-57 0 -89.5 -10t-45.5 -26.5t-13 -50t6.5 -67.5t13.5 -93t7 -113q0 -97 -21 -173t-59.5 -124.5t-84 -78t-101.5 -44.5q269 -31 269 -340
q0 -60 -11 -127t-23.5 -117t-23.5 -100.5t-10 -85t16.5 -62.5t57 -41.5t110.5 -13.5v-20q-379 0 -379 485q0 46 3.5 102t6.5 90.5t2.5 73t-8.5 61t-26 42t-51 28t-82 8.5z" />
    <glyph glyph-name="bar" unicode="|" horiz-adv-x="247" 
d="M133 -319h-20v1814h20v-1814z" />
    <glyph glyph-name="braceright" unicode="}" horiz-adv-x="598" 
d="M365 1157q0 -47 -4.5 -99.5t-8 -83t-4 -63t7 -49.5t26.5 -31.5t53.5 -20t88.5 -5.5v-21q-49 0 -82 -8.5t-51 -28t-26 -42t-8.5 -61t2.5 -73t6.5 -90.5t3.5 -102q0 -485 -379 -485v20q69 0 110 13.5t57 41.5t16.5 62.5t-10.5 85t-24 100.5t-24 117t-11 127q0 63 12.5 116
t42 102t85 81t133.5 41q-120 31 -195.5 132t-75.5 288q0 54 7.5 113t14 93t7 67.5t-12 50t-45 26.5t-89.5 10v21q184 0 280.5 -107t96.5 -338z" />
    <glyph glyph-name="asciitilde" unicode="~" horiz-adv-x="763" 
d="M94 688h-28q2 76 44 122t115 46q54 0 131 -29t145.5 -57.5t102.5 -28.5q30 0 47 18t19 48h28q-3 -83 -41.5 -125.5t-107.5 -42.5q-56 0 -134 28.5t-148.5 57.5t-106.5 29q-63 0 -66 -66z" />
    <glyph glyph-name="uni00A0" unicode="&#xa0;" horiz-adv-x="468" 
 />
    <glyph glyph-name="exclamdown" unicode="&#xa1;" horiz-adv-x="497" 
d="M88 930q0 72 44 116t116 44t116 -44t44 -116t-44 -116t-116 -44t-116 44t-44 116zM152 158l84 493q4 11 12 11t12 -11l84 -495q33 -190 33 -385v-72q0 -57 -35 -92t-92 -35q-58 0 -93.5 35t-35.5 94v66q0 193 31 391z" />
    <glyph glyph-name="cent" unicode="&#xa2;" horiz-adv-x="1161" 
d="M1028 834q0 -66 -40 -106t-111 -40q-64 0 -104 34t-40 83q0 21 8.5 54t16 58.5t6.5 55t-16 49.5q-9 12 -21 18l-244 -911q86 -86 215 -86q65 0 123.5 22.5t98 55t71 71.5t47 69.5t21.5 51.5h20q-53 -156 -179 -244.5t-298 -88.5q-86 0 -153 20l-60 -225h-20l61 229
q-158 51 -249 192t-91 339q0 252 144.5 403.5t390.5 151.5q40 0 94 -7l59 222h21l-62 -224q131 -23 211 -90.5t80 -156.5zM467 147l244 904q-49 18 -84 18q-88 0 -152.5 -66t-96.5 -178.5t-32 -257.5q0 -280 121 -420z" />
    <glyph glyph-name="sterling" unicode="&#xa3;" horiz-adv-x="1161" 
d="M279 43l-31 -23h606q57 0 103 33t63 88l2 9h22l-43 -150h-837v23l31 55q32 50 32 115v534h-151v43h151v41q-1 147 9 252.5t36 195.5t71 144.5t115.5 84.5t168.5 30q191 0 319.5 -97t128.5 -245q0 -97 -56 -155t-151 -58q-86 0 -137 49.5t-51 134.5q-1 45 15.5 98t31.5 88
t14.5 72t-28.5 63q-36 27 -82 27q-30 0 -53 -8t-39 -27.5t-27 -40.5t-17.5 -60t-9.5 -71.5t-4 -88.5t-0.5 -98.5t1.5 -114.5t1 -124v-92h197v-43h-197v-266q0 -117 -56 -231.5t-148 -186.5z" />
    <glyph glyph-name="currency" unicode="&#xa4;" horiz-adv-x="886" 
d="M104 750q0 143 84 237l-102 103l14 14l103 -103q99 86 239 86q147 0 238 -88l104 105l15 -14l-105 -105q88 -91 88 -235q0 -142 -88 -240l105 -104l-15 -15l-104 105q-92 -86 -238 -86q-145 0 -237 86l-105 -105l-14 15l104 104q-86 89 -86 240zM127 748
q0 -141 86.5 -228.5t228.5 -87.5q141 0 229.5 87.5t88.5 228.5q0 142 -88.5 229.5t-229.5 87.5q-142 0 -228.5 -87t-86.5 -230z" />
    <glyph glyph-name="yen" unicode="&#xa5;" horiz-adv-x="1249" 
d="M1020 1313l-270 -584v-194h337v-43h-337v-173h337v-40h-337v-89q0 -62 30 -114l33 -56v-20h-385v20l33 56q33 57 33 114v89h-344v40h344v173h-344v43h344v94l-281 680q-23 58 -72 100l-69 66v20h436v-20l-16 -48q-17 -63 8 -118l231 -566l264 570q25 59 19 117l-6 45v20
h174v-20l-84 -70q-57 -42 -78 -92z" />
    <glyph glyph-name="section" unicode="&#xa7;" horiz-adv-x="937" 
d="M834 694q0 -123 -95 -202q95 -109 95 -226q0 -128 -102 -207t-271 -79q-158 0 -260.5 69.5t-102.5 179.5q0 68 41 110t111 42q66 0 105.5 -34t39.5 -85q0 -20 -8 -53t-15.5 -59t-6 -56t17.5 -51q29 -43 104 -43q67 0 106.5 41t39.5 106q0 51 -27 100t-70 90t-95.5 81.5
t-105 83.5t-95.5 88.5t-70 103t-27 119.5q0 125 99 205q-99 109 -99 223q0 123 94.5 200t249.5 77q148 0 241 -70t93 -182q0 -69 -37 -108.5t-104 -39.5q-61 0 -98 30.5t-37 76.5q0 19 7.5 50.5t14.5 56.5t6 56t-16 54q-27 53 -96 53q-52 0 -84.5 -37.5t-32.5 -95.5
q0 -49 27 -96.5t70 -88t95.5 -82t105 -85.5t95.5 -90t70 -104.5t27 -121.5zM344 924q2 -32 16 -63.5t31.5 -55.5t51 -56t57 -51t67.5 -53.5t66 -52.5q-3 32 -17.5 64t-32.5 56.5t-51 55.5t-56.5 50.5t-66.5 53t-65 52.5z" />
    <glyph glyph-name="dieresis" unicode="&#xa8;" horiz-adv-x="514" 
d="M270 1329q0 40 25 65t65 25t65.5 -25t25.5 -65t-25.5 -65t-65.5 -25t-65 25t-25 65zM63 1329q0 40 25.5 65t65.5 25q41 0 65.5 -25t24.5 -65t-24.5 -65t-65.5 -25q-40 0 -65.5 25t-25.5 65z" />
    <glyph glyph-name="copyright" unicode="&#xa9;" horiz-adv-x="1681" 
d="M92 748q0 222 93 392t263 262.5t392 92.5q167 0 306 -54t236 -151t151 -236t54 -306q0 -222 -92.5 -392t-262.5 -263t-392 -93t-392 93t-263 263t-93 392zM113 748q0 -327 200 -527.5t527 -200.5t527 200.5t200 527.5t-200 527t-527 200t-527 -200t-200 -527zM1264 1047
q0 -65 -41.5 -105.5t-110.5 -40.5q-66 0 -105.5 34t-39.5 85q0 20 8.5 53t16 58.5t6.5 54.5t-17 49q-34 47 -121 47q-130 0 -205 -139.5t-75 -360.5q0 -245 92.5 -385.5t261.5 -140.5q65 0 123.5 22.5t97.5 55t69.5 71.5t45.5 70t20 53h23q-54 -158 -179 -246.5t-298 -88.5
q-230 0 -371 152.5t-141 402.5q0 252 144.5 403.5t391.5 151.5q173 0 288.5 -73.5t115.5 -182.5z" />
    <glyph glyph-name="ordfeminine" unicode="&#xaa;" horiz-adv-x="622" 
d="M512 1305v-213q0 -30 14 -54l15 -26v-11h-70q-37 0 -59.5 22.5t-22.5 59.5v4q-14 -45 -50 -70.5t-89 -25.5q-71 0 -120.5 46.5t-49.5 117.5q0 72 48 121t120 49q53 0 90 -27t51 -73v96q0 184 -98 184q-38 0 -53 -18q-8 -18 -6.5 -31.5t7 -37.5t5.5 -34q0 -22 -16.5 -36.5
t-45.5 -14.5q-30 0 -46.5 17t-16.5 45q0 49 50.5 86t129.5 37q92 0 152.5 -51t60.5 -162zM295 1022q41 0 67.5 34t26.5 95v8q0 56 -25 92.5t-69 36.5q-43 0 -69.5 -38.5t-26.5 -98.5q0 -58 26.5 -93.5t69.5 -35.5z" />
    <glyph glyph-name="guillemotleft" unicode="&#xab;" horiz-adv-x="614" 
d="M510 401l-346 347l346 346l31 -29l-318 -317l318 -316zM414 401l-346 347l346 346l30 -29l-317 -317l317 -316z" />
    <glyph glyph-name="uni00AD" unicode="&#xad;" horiz-adv-x="0" 
 />
    <glyph glyph-name="registered" unicode="&#xae;" horiz-adv-x="1681" 
d="M92 748q0 222 93 392t263 262.5t392 92.5q167 0 306 -54t236 -151t151 -236t54 -306q0 -222 -92.5 -392t-262.5 -263t-392 -93t-392 93t-263 263t-93 392zM113 748q0 -327 200 -527.5t527 -200.5t527 200.5t200 527.5t-200 527t-527 200t-527 -200t-200 -527zM1227 283
l39 -31l2 -12h-166q-65 0 -109 67l-233 377h-31v-317q0 -41 21 -76l22 -39v-12h-264v12l24 39q21 35 21 76v763q0 43 -21 78l-24 37v15h434q129 0 207 -78.5t78 -208.5q0 -131 -78 -210t-207 -79h-22q52 -25 114 -123l137 -209q29 -48 56 -69zM782 1245h-53v-547h53
q122 0 195.5 75.5t73.5 199.5t-73.5 198t-195.5 74z" />
    <glyph glyph-name="macron" unicode="&#xaf;" horiz-adv-x="663" 
d="M608 1239h-555v86h555v-86z" />
    <glyph glyph-name="degree" unicode="&#xb0;" horiz-adv-x="534" 
d="M76 1319q0 85 53 136.5t139 51.5q85 0 138 -52t53 -136q0 -87 -53 -140t-138 -53q-86 0 -139 53t-53 140zM164 1319q0 -47 29 -76t75 -29q45 0 74 29t29 76q0 44 -29.5 73t-73.5 29q-46 0 -75 -29t-29 -73z" />
    <glyph glyph-name="plusminus" unicode="&#xb1;" horiz-adv-x="1077" 
d="M516 350v447h-446v43h446v448h43v-448h449v-43h-449v-447h-43zM70 301h938v-43h-938v43z" />
    <glyph glyph-name="acute" unicode="&#xb4;" horiz-adv-x="387" 
d="M322 1417l-244 -178h-21l193 279z" />
    <glyph glyph-name="paragraph" unicode="&#xb6;" horiz-adv-x="1056" 
d="M895 1305v-1305h-258v1475h-21v-1475h-20v770q-138 0 -256.5 44t-193 129.5t-74.5 195.5q0 157 147 256.5t391 99.5h348v-20l-32 -54q-31 -57 -31 -116z" />
    <glyph glyph-name="cedilla" unicode="&#xb8;" horiz-adv-x="438" 
d="M213 -309q-55 0 -82 38t-14 83q0 -28 24 -46t58 -18q32 0 51.5 17.5t19.5 46.5q0 57 -57 67h-31l41 121h56l-29 -84q35 -6 55.5 -33.5t20.5 -70.5q0 -53 -31 -87t-82 -34z" />
    <glyph glyph-name="ordmasculine" unicode="&#xba;" horiz-adv-x="638" 
d="M80 1257q0 117 66 189t173 72t173.5 -72t66.5 -189t-66.5 -188.5t-173.5 -71.5t-173 71.5t-66 188.5zM199 1251q0 -114 33.5 -178.5t89.5 -64.5q55 0 85.5 64.5t30.5 180.5t-30.5 184t-85.5 68q-56 0 -89.5 -69.5t-33.5 -184.5z" />
    <glyph glyph-name="guillemotright" unicode="&#xbb;" horiz-adv-x="616" 
d="M453 748l-347 -347l-32 31l317 316l-317 317l32 29zM549 748l-346 -347l-31 31l315 316l-315 317l31 29z" />
    <glyph glyph-name="questiondown" unicode="&#xbf;" horiz-adv-x="1105" 
d="M748 930q0 -72 -44 -116t-116 -44t-116 44t-44 116t44 116t116 44t116 -44t44 -116zM612 651h23q0 -96 -18.5 -177t-47.5 -137t-64.5 -105t-71 -92t-64.5 -86t-47.5 -98t-18.5 -118q0 -132 71 -204t175 -72q89 0 149 49q22 20 25.5 41.5t-6.5 45.5t-23 48.5t-25 59.5
t-12 69q2 71 47 114.5t119 43.5q82 0 131.5 -50.5t49.5 -129.5q0 -95 -74 -168t-180.5 -108.5t-219.5 -35.5q-185 0 -306.5 94.5t-121.5 249.5q0 70 28 130t73 105t99.5 88t109 87.5t99.5 93t73 116t28 146.5z" />
    <glyph glyph-name="Agrave" unicode="&#xc0;" horiz-adv-x="1173" 
d="M653 1595l-297 187l154 102l172 -289h-29zM795 188l-76 250h-508l-78 -250q-16 -59 10 -116l23 -52v-20h-172v20l55 64q43 39 60 104l409 1307h152l395 -1307q17 -64 59 -106l56 -62v-20h-418v20l24 52q24 60 9 116zM219 459h494l-244 805z" />
    <glyph glyph-name="Aacute" unicode="&#xc1;" horiz-adv-x="1173" 
d="M823 1782l-297 -187h-28l172 289zM795 188l-76 250h-508l-78 -250q-16 -59 10 -116l23 -52v-20h-172v20l55 64q43 39 60 104l409 1307h152l395 -1307q17 -64 59 -106l56 -62v-20h-418v20l24 52q24 60 9 116zM219 459h494l-244 805z" />
    <glyph glyph-name="Acircumflex" unicode="&#xc2;" horiz-adv-x="1173" 
d="M608 1880l266 -194l-100 -111l-180 287l-176 -287l-99 111l265 194h24zM795 188l-76 250h-508l-78 -250q-16 -59 10 -116l23 -52v-20h-172v20l55 64q43 39 60 104l409 1307h152l395 -1307q17 -64 59 -106l56 -62v-20h-418v20l24 52q24 60 9 116zM219 459h494l-244 805z
" />
    <glyph glyph-name="Atilde" unicode="&#xc3;" horiz-adv-x="1173" 
d="M358 1651h-22q3 84 38.5 134t94.5 50q37 0 81.5 -20t78.5 -43.5t74 -43.5t69 -20q24 0 38.5 20.5t14.5 51.5h23q-1 -90 -33 -137.5t-88 -47.5q-39 0 -85 20t-80.5 43.5t-75.5 43.5t-72 20q-25 0 -40 -18.5t-16 -52.5zM795 188l-76 250h-508l-78 -250q-16 -59 10 -116
l23 -52v-20h-172v20l55 64q43 39 60 104l409 1307h152l395 -1307q17 -64 59 -106l56 -62v-20h-418v20l24 52q24 60 9 116zM219 459h494l-244 805z" />
    <glyph glyph-name="Adieresis" unicode="&#xc4;" horiz-adv-x="1173" 
d="M600 1735q0 40 25 65t65 25t65 -25t25 -65t-25 -65t-65 -25t-65 25t-25 65zM393 1735q0 40 25 65t65 25q41 0 65.5 -25t24.5 -65t-24.5 -65t-65.5 -25q-40 0 -65 25t-25 65zM795 188l-76 250h-508l-78 -250q-16 -59 10 -116l23 -52v-20h-172v20l55 64q43 39 60 104
l409 1307h152l395 -1307q17 -64 59 -106l56 -62v-20h-418v20l24 52q24 60 9 116zM219 459h494l-244 805z" />
    <glyph glyph-name="Aring" unicode="&#xc5;" horiz-adv-x="1173" 
d="M465 1767q0 54 34 87.5t89 33.5q54 0 87.5 -33.5t33.5 -87.5q0 -55 -33.5 -88.5t-87.5 -33.5q-56 0 -89.5 33.5t-33.5 88.5zM522 1767q0 -30 18 -48.5t48 -18.5q29 0 46 18.5t17 48.5q0 28 -17 47t-46 19q-30 0 -48 -19t-18 -47zM795 188l-76 250h-508l-78 -250
q-16 -59 10 -116l23 -52v-20h-172v20l55 64q43 39 60 104l409 1307h152l395 -1307q17 -64 59 -106l56 -62v-20h-418v20l24 52q24 60 9 116zM219 459h494l-244 805z" />
    <glyph glyph-name="AE" unicode="&#xc6;" horiz-adv-x="1667" 
d="M1362 823h-348v-803h432q58 0 103.5 32.5t64.5 88.5l2 9h20l-43 -150h-901v20l33 56q33 57 33 114v248h-494l-125 -250q-25 -62 0 -116l23 -52v-20h-172v20l55 64q42 39 72 104l606 1235l-31 52v20h901l43 -149h-20l-2 8q-19 56 -64.5 88.5t-103.5 32.5h-432v-631h348
q37 0 59.5 23.5t22.5 60.5v2h22v-193h-22v2q0 37 -22.5 60.5t-59.5 23.5zM274 459h484v846q0 38 -23 94z" />
    <glyph glyph-name="Ccedilla" unicode="&#xc7;" horiz-adv-x="1413" 
d="M1331 1159q0 -86 -57 -141t-150 -55q-87 0 -137.5 49t-50.5 129q-1 40 12.5 80t28.5 68.5t27 56t8.5 51.5t-27.5 45q-61 53 -186 53q-151 0 -263.5 -94t-168.5 -252.5t-56 -357.5q0 -330 150.5 -529t396.5 -199q71 0 141.5 18t139.5 56t127 106.5t92 159.5h22
q-77 -199 -240.5 -309.5t-379.5 -113.5l-23 -64q35 -6 55.5 -33.5t20.5 -70.5q0 -53 -31 -87t-82 -34q-55 0 -82 38t-14 83q0 -28 25 -46t57 -18t52 17.5t20 46.5q0 56 -58 67h-30l35 103q-291 15 -470.5 225.5t-179.5 540.5q0 345 194.5 557.5t508.5 212.5q146 0 277.5 -46
t213.5 -129.5t82 -183.5z" />
    <glyph glyph-name="Egrave" unicode="&#xc8;" horiz-adv-x="1042" 
d="M647 1595l-297 187l154 102l172 -289h-29zM737 823h-350v-803h434q58 0 103.5 32.5t64.5 88.5l2 9h21l-43 -150h-901v20l32 56q31 53 31 114v1115q0 57 -31 114l-32 56v20h901l43 -149h-21l-2 8q-19 56 -64.5 88.5t-103.5 32.5h-434v-631h350q37 0 59.5 23.5t22.5 60.5v2
h23v-193h-23v2q0 37 -22.5 60.5t-59.5 23.5z" />
    <glyph glyph-name="Eacute" unicode="&#xc9;" horiz-adv-x="1042" 
d="M807 1782l-297 -187h-29l172 289zM737 823h-350v-803h434q58 0 103.5 32.5t64.5 88.5l2 9h21l-43 -150h-901v20l32 56q31 53 31 114v1115q0 57 -31 114l-32 56v20h901l43 -149h-21l-2 8q-19 56 -64.5 88.5t-103.5 32.5h-434v-631h350q37 0 59.5 23.5t22.5 60.5v2h23v-193
h-23v2q0 37 -22.5 60.5t-59.5 23.5z" />
    <glyph glyph-name="Ecircumflex" unicode="&#xca;" horiz-adv-x="1042" 
d="M567 1880l267 -194l-101 -111l-180 287l-176 -287l-98 111l264 194h24zM737 823h-350v-803h434q58 0 103.5 32.5t64.5 88.5l2 9h21l-43 -150h-901v20l32 56q31 53 31 114v1115q0 57 -31 114l-32 56v20h901l43 -149h-21l-2 8q-19 56 -64.5 88.5t-103.5 32.5h-434v-631h350
q37 0 59.5 23.5t22.5 60.5v2h23v-193h-23v2q0 37 -22.5 60.5t-59.5 23.5z" />
    <glyph glyph-name="Edieresis" unicode="&#xcb;" horiz-adv-x="1042" 
d="M535 1735q0 40 25 65t65 25t65 -25t25 -65t-25 -65t-65 -25t-65 25t-25 65zM328 1735q0 40 25 65t65 25q41 0 65.5 -25t24.5 -65t-24.5 -65t-65.5 -25q-40 0 -65 25t-25 65zM737 823h-350v-803h434q58 0 103.5 32.5t64.5 88.5l2 9h21l-43 -150h-901v20l32 56
q31 53 31 114v1115q0 57 -31 114l-32 56v20h901l43 -149h-21l-2 8q-19 56 -64.5 88.5t-103.5 32.5h-434v-631h350q37 0 59.5 23.5t22.5 60.5v2h23v-193h-23v2q0 37 -22.5 60.5t-59.5 23.5z" />
    <glyph glyph-name="Igrave" unicode="&#xcc;" horiz-adv-x="520" 
d="M342 1595l-297 187l154 102l172 -289h-29zM420 76l33 -56v-20h-385v20l32 56q31 53 31 114v1115q0 57 -31 114l-32 56v20h385v-20l-33 -56q-33 -61 -33 -114v-1115q0 -57 33 -114z" />
    <glyph glyph-name="Iacute" unicode="&#xcd;" horiz-adv-x="520" 
d="M465 1782l-297 -187h-29l172 289zM420 76l33 -56v-20h-385v20l32 56q31 53 31 114v1115q0 57 -31 114l-32 56v20h385v-20l-33 -56q-33 -61 -33 -114v-1115q0 -57 33 -114z" />
    <glyph glyph-name="Icircumflex" unicode="&#xce;" horiz-adv-x="520" 
d="M270 1923l244 -178l-74 -100l-182 262l-180 -262l-72 100l242 178h22zM420 76l33 -56v-20h-385v20l32 56q31 53 31 114v1115q0 57 -31 114l-32 56v20h385v-20l-33 -56q-33 -61 -33 -114v-1115q0 -57 33 -114z" />
    <glyph glyph-name="Idieresis" unicode="&#xcf;" horiz-adv-x="520" 
d="M274 1735q0 40 25.5 65t65.5 25t64 -25t24 -65t-24 -65t-64 -25t-65.5 25t-25.5 65zM68 1735q0 40 24 65t64 25q42 0 66 -25t24 -65t-24 -65t-66 -25q-40 0 -64 25t-24 65zM420 76l33 -56v-20h-385v20l32 56q31 53 31 114v1115q0 57 -31 114l-32 56v20h385v-20l-33 -56
q-33 -61 -33 -114v-1115q0 -57 33 -114z" />
    <glyph glyph-name="Eth" unicode="&#xd0;" horiz-adv-x="1236" 
d="M444 0h-354v20l31 56q33 51 33 114v547h-103v21h103v547q0 60 -33 114l-31 56v20h354q219 0 387 -92.5t260.5 -264t92.5 -397.5q0 -340 -200 -540.5t-540 -200.5zM420 1475h-10v-717h188v-21h-188v-717h10q156 0 272 94t176 258t60 376q0 215 -61 379.5t-177 256
t-270 91.5z" />
    <glyph glyph-name="Ntilde" unicode="&#xd1;" horiz-adv-x="1247" 
d="M414 1694h-23q3 77 35 122.5t86 45.5q39 0 94.5 -29t105 -57.5t74.5 -28.5q23 0 35.5 17.5t12.5 47.5h22q-1 -82 -30 -124.5t-81 -42.5q-40 0 -96.5 28.5t-107.5 57t-78 28.5q-46 0 -49 -65zM184 76l33 -56v-20h-149v20l32 56q31 53 31 114v1115q0 57 -31 114l-32 56v20
h358l672 -1198v1008q0 60 -33 114l-31 56v20h150v-20l-33 -56q-33 -61 -33 -114v-1305h-149l-815 1456v-1266q0 -62 30 -114z" />
    <glyph glyph-name="Ograve" unicode="&#xd2;" horiz-adv-x="1501" 
d="M817 1595l-297 187l154 102l172 -289h-29zM55 748q0 171 51 314.5t142.5 243.5t221 156t282.5 56q310 0 501 -212t191 -556q0 -170 -50 -313t-140 -243.5t-219.5 -157t-282.5 -56.5q-154 0 -283.5 56t-220.5 155.5t-142 243t-51 313.5zM311 735q0 -334 118.5 -534.5
t315.5 -200.5q200 0 321.5 204t121.5 546q0 339 -119 542t-315 203q-131 0 -232 -95.5t-156 -268t-55 -396.5z" />
    <glyph glyph-name="Oacute" unicode="&#xd3;" horiz-adv-x="1501" 
d="M1018 1782l-297 -187h-29l172 289zM55 748q0 171 51 314.5t142.5 243.5t221 156t282.5 56q310 0 501 -212t191 -556q0 -170 -50 -313t-140 -243.5t-219.5 -157t-282.5 -56.5q-154 0 -283.5 56t-220.5 155.5t-142 243t-51 313.5zM311 735q0 -334 118.5 -534.5
t315.5 -200.5q200 0 321.5 204t121.5 546q0 339 -119 542t-315 203q-131 0 -232 -95.5t-156 -268t-55 -396.5z" />
    <glyph glyph-name="Ocircumflex" unicode="&#xd4;" horiz-adv-x="1501" 
d="M764 1880l266 -194l-100 -111l-180 287l-177 -287l-98 111l264 194h25zM55 748q0 171 51 314.5t142.5 243.5t221 156t282.5 56q310 0 501 -212t191 -556q0 -170 -50 -313t-140 -243.5t-219.5 -157t-282.5 -56.5q-154 0 -283.5 56t-220.5 155.5t-142 243t-51 313.5z
M311 735q0 -334 118.5 -534.5t315.5 -200.5q200 0 321.5 204t121.5 546q0 339 -119 542t-315 203q-131 0 -232 -95.5t-156 -268t-55 -396.5z" />
    <glyph glyph-name="Otilde" unicode="&#xd5;" horiz-adv-x="1501" 
d="M516 1651h-22q3 84 38.5 134t94.5 50q37 0 81.5 -20t78.5 -43.5t74 -43.5t69 -20q24 0 38.5 20.5t14.5 51.5h23q-1 -90 -33 -137.5t-88 -47.5q-39 0 -85 20t-80.5 43.5t-76 43.5t-72.5 20q-25 0 -39 -18.5t-16 -52.5zM55 748q0 171 51 314.5t142.5 243.5t221 156
t282.5 56q310 0 501 -212t191 -556q0 -170 -50 -313t-140 -243.5t-219.5 -157t-282.5 -56.5q-154 0 -283.5 56t-220.5 155.5t-142 243t-51 313.5zM311 735q0 -334 118.5 -534.5t315.5 -200.5q200 0 321.5 204t121.5 546q0 339 -119 542t-315 203q-131 0 -232 -95.5
t-156 -268t-55 -396.5z" />
    <glyph glyph-name="Odieresis" unicode="&#xd6;" horiz-adv-x="1501" 
d="M764 1735q0 40 25 65t65 25t65 -25t25 -65t-25 -65t-65 -25t-65 25t-25 65zM557 1735q0 40 25 65t65 25q41 0 65.5 -25t24.5 -65t-24.5 -65t-65.5 -25q-40 0 -65 25t-25 65zM55 748q0 171 51 314.5t142.5 243.5t221 156t282.5 56q310 0 501 -212t191 -556
q0 -170 -50 -313t-140 -243.5t-219.5 -157t-282.5 -56.5q-154 0 -283.5 56t-220.5 155.5t-142 243t-51 313.5zM311 735q0 -334 118.5 -534.5t315.5 -200.5q200 0 321.5 204t121.5 546q0 339 -119 542t-315 203q-131 0 -232 -95.5t-156 -268t-55 -396.5z" />
    <glyph glyph-name="multiply" unicode="&#xd7;" horiz-adv-x="839" 
d="M74 432l315 316l-315 317l30 29l316 -316l315 316l31 -29l-315 -317l315 -316l-31 -31l-315 318l-316 -318z" />
    <glyph glyph-name="Oslash" unicode="&#xd8;" horiz-adv-x="1505" 
d="M57 748q0 171 51 314.5t142.5 243.5t221 156t282.5 56q247 0 426 -140l80 117h22l-90 -129q122 -101 188 -259t66 -357q0 -170 -50 -313t-140 -243.5t-219.5 -157t-282.5 -56.5q-247 0 -430 141l-82 -121h-23l92 133q-121 101 -187.5 260t-66.5 355zM313 735
q0 -285 88 -475l691 993q-123 242 -336 242q-131 0 -232 -95.5t-156 -268t-55 -396.5zM1100 1235l-690 -993q58 -117 144 -179.5t194 -62.5q200 0 321 204t121 546q0 284 -90 485z" />
    <glyph glyph-name="Ugrave" unicode="&#xd9;" horiz-adv-x="1226" 
d="M727 1595l-297 187l154 102l172 -289h-29zM623 -20q-225 0 -364.5 133t-139.5 352v840q0 57 -31 114l-33 56v20h385v-20l-32 -56q-33 -61 -33 -114v-840q0 -106 43.5 -201.5t128 -158t190.5 -62.5q68 0 129 27t110.5 80t79 140t29.5 197v818q0 61 -32 114l-33 56v20h151
v-20l-32 -56q-33 -54 -33 -114v-840q0 -216 -129 -350.5t-354 -134.5z" />
    <glyph glyph-name="Uacute" unicode="&#xda;" horiz-adv-x="1226" 
d="M895 1782l-297 -187h-29l172 289zM623 -20q-225 0 -364.5 133t-139.5 352v840q0 57 -31 114l-33 56v20h385v-20l-32 -56q-33 -61 -33 -114v-840q0 -106 43.5 -201.5t128 -158t190.5 -62.5q68 0 129 27t110.5 80t79 140t29.5 197v818q0 61 -32 114l-33 56v20h151v-20
l-32 -56q-33 -54 -33 -114v-840q0 -216 -129 -350.5t-354 -134.5z" />
    <glyph glyph-name="Ucircumflex" unicode="&#xdb;" horiz-adv-x="1226" 
d="M623 1923l243 -178l-71 -100l-183 262l-182 -262l-70 100l242 178h21zM623 -20q-225 0 -364.5 133t-139.5 352v840q0 57 -31 114l-33 56v20h385v-20l-32 -56q-33 -61 -33 -114v-840q0 -106 43.5 -201.5t128 -158t190.5 -62.5q68 0 129 27t110.5 80t79 140t29.5 197v818
q0 61 -32 114l-33 56v20h151v-20l-32 -56q-33 -54 -33 -114v-840q0 -216 -129 -350.5t-354 -134.5z" />
    <glyph glyph-name="Udieresis" unicode="&#xdc;" horiz-adv-x="1226" 
d="M627 1735q0 40 25 65t65 25t65 -25t25 -65t-25 -65t-65 -25t-65 25t-25 65zM420 1735q0 40 25 65t65 25q41 0 65.5 -25t24.5 -65t-24.5 -65t-65.5 -25q-40 0 -65 25t-25 65zM623 -20q-225 0 -364.5 133t-139.5 352v840q0 57 -31 114l-33 56v20h385v-20l-32 -56
q-33 -61 -33 -114v-840q0 -106 43.5 -201.5t128 -158t190.5 -62.5q68 0 129 27t110.5 80t79 140t29.5 197v818q0 61 -32 114l-33 56v20h151v-20l-32 -56q-33 -54 -33 -114v-840q0 -216 -129 -350.5t-354 -134.5z" />
    <glyph glyph-name="Yacute" unicode="&#xdd;" horiz-adv-x="1085" 
d="M805 1782l-297 -187h-29l172 289zM936 1313l-270 -584v-539q0 -62 30 -114l33 -56v-20h-385v20l33 56q33 57 33 114v439l-281 680q-23 58 -72 100l-69 66v20h436v-20l-16 -48q-17 -63 8 -118l231 -566l264 570q25 59 19 117l-6 45v20h174v-20l-84 -70q-57 -42 -78 -92z
" />
    <glyph glyph-name="Thorn" unicode="&#xde;" 
d="M420 76l33 -56v-20h-385v20l32 56q31 53 31 114v1115q0 57 -31 114l-32 56v20h385v-20l-33 -56q-33 -61 -33 -114v-134h303q189 0 303.5 -116t114.5 -307q0 -190 -114.5 -305t-303.5 -115h-303v-138q0 -57 33 -114zM387 1149v-801h68q180 0 288.5 109.5t108.5 290.5
q0 182 -108.5 291.5t-288.5 109.5h-68z" />
    <glyph glyph-name="germandbls" unicode="&#xdf;" horiz-adv-x="1202" 
d="M57 0v23l33 55q31 53 31 115v804q0 249 128.5 385t350.5 136q191 0 307.5 -96.5t116.5 -254.5q0 -122 -71.5 -207.5t-198.5 -119.5q182 -41 289.5 -167.5t107.5 -299.5q0 -180 -111 -286.5t-301 -106.5q-168 0 -260 81t-92 209q0 94 48 146.5t132 52.5q74 0 119 -40
t47 -101q0 -38 -18.5 -75.5t-40.5 -65t-40 -54t-17.5 -52.5t26.5 -50q25 -29 64 -29q85 0 136.5 90t51.5 240q0 121 -34.5 216t-95.5 154.5t-139.5 90t-170.5 30.5v21q135 0 223 95t88 259q0 125 -50.5 210t-140.5 85t-144 -89t-54 -235v-1169h-320z" />
    <glyph glyph-name="agrave" unicode="&#xe0;" horiz-adv-x="1081" 
d="M582 1165l-297 187l153 102l172 -289h-28zM971 641v-451q0 -62 30 -114l33 -56v-20h-151q-75 0 -122.5 46.5t-47.5 121.5v12q-33 -96 -109.5 -149.5t-187.5 -53.5q-154 0 -258.5 98t-104.5 251q0 152 102.5 254t256.5 102q109 0 188 -57t113 -156v207q0 193 -54 293
t-155 100q-33 0 -65 -11t-46 -32q-15 -18 -16 -48t6 -57t15 -61t8 -53q0 -44 -37 -75.5t-97 -31.5q-63 0 -100 37t-37 97q0 103 109 179.5t276 76.5q89 0 166 -24t143 -74.5t104 -140.5t38 -210zM512 41q90 0 145.5 71t55.5 203v25q-2 113 -56 189.5t-143 76.5
q-92 0 -148.5 -81.5t-56.5 -211.5q0 -124 55.5 -198t147.5 -74z" />
    <glyph glyph-name="aacute" unicode="&#xe1;" horiz-adv-x="1081" 
d="M778 1352l-297 -187h-28l172 289zM971 641v-451q0 -62 30 -114l33 -56v-20h-151q-75 0 -122.5 46.5t-47.5 121.5v12q-33 -96 -109.5 -149.5t-187.5 -53.5q-154 0 -258.5 98t-104.5 251q0 152 102.5 254t256.5 102q109 0 188 -57t113 -156v207q0 193 -54 293t-155 100
q-33 0 -65 -11t-46 -32q-15 -18 -16 -48t6 -57t15 -61t8 -53q0 -44 -37 -75.5t-97 -31.5q-63 0 -100 37t-37 97q0 103 109 179.5t276 76.5q89 0 166 -24t143 -74.5t104 -140.5t38 -210zM512 41q90 0 145.5 71t55.5 203v25q-2 113 -56 189.5t-143 76.5q-92 0 -148.5 -81.5
t-56.5 -211.5q0 -124 55.5 -198t147.5 -74z" />
    <glyph glyph-name="acircumflex" unicode="&#xe2;" horiz-adv-x="1081" 
d="M559 1450l266 -195l-100 -110l-180 287l-176 -287l-99 110l265 195h24zM971 641v-451q0 -62 30 -114l33 -56v-20h-151q-75 0 -122.5 46.5t-47.5 121.5v12q-33 -96 -109.5 -149.5t-187.5 -53.5q-154 0 -258.5 98t-104.5 251q0 152 102.5 254t256.5 102q109 0 188 -57
t113 -156v207q0 193 -54 293t-155 100q-33 0 -65 -11t-46 -32q-15 -18 -16 -48t6 -57t15 -61t8 -53q0 -44 -37 -75.5t-97 -31.5q-63 0 -100 37t-37 97q0 103 109 179.5t276 76.5q89 0 166 -24t143 -74.5t104 -140.5t38 -210zM512 41q90 0 145.5 71t55.5 203v25
q-2 113 -56 189.5t-143 76.5q-92 0 -148.5 -81.5t-56.5 -211.5q0 -124 55.5 -198t147.5 -74z" />
    <glyph glyph-name="atilde" unicode="&#xe3;" horiz-adv-x="1081" 
d="M315 1221h-22q3 84 38.5 134t94.5 50q37 0 81.5 -20t78.5 -43.5t74 -43.5t69 -20q24 0 38.5 20.5t14.5 51.5h23q-1 -90 -33 -137.5t-88 -47.5q-39 0 -85 20t-80.5 43.5t-75.5 43.5t-72 20q-25 0 -40 -18.5t-16 -52.5zM971 641v-451q0 -62 30 -114l33 -56v-20h-151
q-75 0 -122.5 46.5t-47.5 121.5v12q-33 -96 -109.5 -149.5t-187.5 -53.5q-154 0 -258.5 98t-104.5 251q0 152 102.5 254t256.5 102q109 0 188 -57t113 -156v207q0 193 -54 293t-155 100q-33 0 -65 -11t-46 -32q-15 -18 -16 -48t6 -57t15 -61t8 -53q0 -44 -37 -75.5
t-97 -31.5q-63 0 -100 37t-37 97q0 103 109 179.5t276 76.5q89 0 166 -24t143 -74.5t104 -140.5t38 -210zM512 41q90 0 145.5 71t55.5 203v25q-2 113 -56 189.5t-143 76.5q-92 0 -148.5 -81.5t-56.5 -211.5q0 -124 55.5 -198t147.5 -74z" />
    <glyph glyph-name="adieresis" unicode="&#xe4;" horiz-adv-x="1081" 
d="M555 1329q0 40 25 65t65 25t64 -25t24 -65t-24 -65t-64 -25t-65 25t-25 65zM348 1329q0 40 24 65t64 25q42 0 66 -25t24 -65t-24 -65t-66 -25q-40 0 -64 25t-24 65zM971 641v-451q0 -62 30 -114l33 -56v-20h-151q-75 0 -122.5 46.5t-47.5 121.5v12q-33 -96 -109.5 -149.5
t-187.5 -53.5q-154 0 -258.5 98t-104.5 251q0 152 102.5 254t256.5 102q109 0 188 -57t113 -156v207q0 193 -54 293t-155 100q-33 0 -65 -11t-46 -32q-15 -18 -16 -48t6 -57t15 -61t8 -53q0 -44 -37 -75.5t-97 -31.5q-63 0 -100 37t-37 97q0 103 109 179.5t276 76.5
q89 0 166 -24t143 -74.5t104 -140.5t38 -210zM512 41q90 0 145.5 71t55.5 203v25q-2 113 -56 189.5t-143 76.5q-92 0 -148.5 -81.5t-56.5 -211.5q0 -124 55.5 -198t147.5 -74z" />
    <glyph glyph-name="aring" unicode="&#xe5;" horiz-adv-x="1081" 
d="M418 1362q0 54 34 87.5t91 33.5q54 0 87.5 -33.5t33.5 -87.5q0 -55 -33.5 -89t-87.5 -34q-57 0 -91 33.5t-34 89.5zM475 1362q0 -30 19 -49t49 -19q28 0 45.5 19.5t17.5 48.5q0 28 -17.5 46.5t-45.5 18.5q-30 0 -49 -18.5t-19 -46.5zM971 641v-451q0 -62 30 -114l33 -56
v-20h-151q-75 0 -122.5 46.5t-47.5 121.5v12q-33 -96 -109.5 -149.5t-187.5 -53.5q-154 0 -258.5 98t-104.5 251q0 152 102.5 254t256.5 102q109 0 188 -57t113 -156v207q0 193 -54 293t-155 100q-33 0 -65 -11t-46 -32q-15 -18 -16 -48t6 -57t15 -61t8 -53q0 -44 -37 -75.5
t-97 -31.5q-63 0 -100 37t-37 97q0 103 109 179.5t276 76.5q89 0 166 -24t143 -74.5t104 -140.5t38 -210zM512 41q90 0 145.5 71t55.5 203v25q-2 113 -56 189.5t-143 76.5q-92 0 -148.5 -81.5t-56.5 -211.5q0 -124 55.5 -198t147.5 -74z" />
    <glyph glyph-name="ae" unicode="&#xe6;" horiz-adv-x="1753" 
d="M1657 723q0 -178 -139.5 -282.5t-376.5 -104.5q-59 0 -144 10q37 -145 121.5 -224t208.5 -79q80 0 149.5 33t111.5 80t67 88t31 69h20q-53 -156 -178.5 -244.5t-296.5 -88.5q-170 0 -294 84.5t-181 236.5l-21 -2q-5 -147 -90 -234.5t-229 -87.5q-154 0 -258.5 98
t-104.5 251q0 152 102.5 254t256.5 102q109 0 188 -57t113 -156v207q0 193 -54 293t-155 100q-33 0 -65 -11t-46 -32q-15 -18 -16 -48t6 -57t15 -61t8 -53q0 -44 -37 -75.5t-97 -31.5q-63 0 -100 37t-37 97q0 103 109 179.5t276 76.5q227 0 352 -142q136 142 359 142
q189 0 307.5 -101t118.5 -266zM991 379q109 32 193.5 86t134 117.5t74 129t24.5 130.5q0 95 -48 161t-130 66q-79 0 -139.5 -65.5t-92.5 -179.5t-32 -257q0 -100 16 -188zM512 41q90 0 145.5 71t55.5 203v25q-2 113 -56 189.5t-143 76.5q-92 0 -148.5 -81.5t-56.5 -211.5
q0 -124 55.5 -198t147.5 -74z" />
    <glyph glyph-name="ccedilla" unicode="&#xe7;" horiz-adv-x="1087" 
d="M997 834q0 -66 -40 -106t-111 -40q-64 0 -104 34t-40 83q0 21 8.5 54t16 58.5t6.5 55t-16 49.5q-36 47 -121 47q-88 0 -152.5 -66t-96.5 -178.5t-32 -257.5q0 -243 93.5 -383.5t259.5 -140.5q65 0 123.5 22.5t98 55t70.5 71.5t46.5 69.5t21.5 51.5h21
q-51 -150 -170.5 -238.5t-282.5 -94.5l-21 -64q35 -6 54.5 -33.5t19.5 -70.5q0 -54 -30 -87.5t-82 -33.5q-53 0 -80.5 38t-16.5 83q0 -28 25 -46t59 -18q32 0 51 17.5t19 46.5q0 57 -57 67h-29l33 101q-218 11 -350 162.5t-132 392.5q0 252 144.5 403.5t390.5 151.5
q176 0 289.5 -73t113.5 -183z" />
    <glyph glyph-name="egrave" unicode="&#xe8;" horiz-adv-x="1093" 
d="M637 1165l-297 187l154 102l172 -289h-29zM997 723q0 -178 -139 -282.5t-375 -104.5q-58 0 -143 10q36 -144 120.5 -223.5t207.5 -79.5q65 0 123.5 22.5t98 55t70.5 71.5t46.5 69.5t21.5 51.5h21q-53 -156 -179 -244.5t-299 -88.5q-230 0 -371 152.5t-141 402.5
t141 402.5t371 152.5q189 0 307.5 -101t118.5 -266zM334 379q88 26 160 66.5t120.5 87.5t81.5 100.5t47.5 105.5t14.5 103q0 95 -48.5 161t-131.5 66q-119 0 -191 -141.5t-72 -360.5q0 -101 19 -188z" />
    <glyph glyph-name="eacute" unicode="&#xe9;" horiz-adv-x="1093" 
d="M819 1352l-297 -187h-28l172 289zM997 723q0 -178 -139 -282.5t-375 -104.5q-58 0 -143 10q36 -144 120.5 -223.5t207.5 -79.5q65 0 123.5 22.5t98 55t70.5 71.5t46.5 69.5t21.5 51.5h21q-53 -156 -179 -244.5t-299 -88.5q-230 0 -371 152.5t-141 402.5t141 402.5
t371 152.5q189 0 307.5 -101t118.5 -266zM334 379q88 26 160 66.5t120.5 87.5t81.5 100.5t47.5 105.5t14.5 103q0 95 -48.5 161t-131.5 66q-119 0 -191 -141.5t-72 -360.5q0 -101 19 -188z" />
    <glyph glyph-name="ecircumflex" unicode="&#xea;" horiz-adv-x="1093" 
d="M565 1450l266 -195l-100 -110l-180 287l-176 -287l-99 110l265 195h24zM997 723q0 -178 -139 -282.5t-375 -104.5q-58 0 -143 10q36 -144 120.5 -223.5t207.5 -79.5q65 0 123.5 22.5t98 55t70.5 71.5t46.5 69.5t21.5 51.5h21q-53 -156 -179 -244.5t-299 -88.5
q-230 0 -371 152.5t-141 402.5t141 402.5t371 152.5q189 0 307.5 -101t118.5 -266zM334 379q88 26 160 66.5t120.5 87.5t81.5 100.5t47.5 105.5t14.5 103q0 95 -48.5 161t-131.5 66q-119 0 -191 -141.5t-72 -360.5q0 -101 19 -188z" />
    <glyph glyph-name="edieresis" unicode="&#xeb;" horiz-adv-x="1093" 
d="M561 1329q0 40 25 65t65 25t64 -25t24 -65t-24 -65t-64 -25t-65 25t-25 65zM354 1329q0 40 24 65t64 25q42 0 66 -25t24 -65t-24 -65t-66 -25q-40 0 -64 25t-24 65zM997 723q0 -178 -139 -282.5t-375 -104.5q-58 0 -143 10q36 -144 120.5 -223.5t207.5 -79.5
q65 0 123.5 22.5t98 55t70.5 71.5t46.5 69.5t21.5 51.5h21q-53 -156 -179 -244.5t-299 -88.5q-230 0 -371 152.5t-141 402.5t141 402.5t371 152.5q189 0 307.5 -101t118.5 -266zM334 379q88 26 160 66.5t120.5 87.5t81.5 100.5t47.5 105.5t14.5 103q0 95 -48.5 161
t-131.5 66q-119 0 -191 -141.5t-72 -360.5q0 -101 19 -188z" />
    <glyph glyph-name="igrave" unicode="&#xec;" horiz-adv-x="503" 
d="M352 1165l-297 187l154 102l172 -289h-29zM414 76l32 -56v-20h-385v20l33 56q31 53 31 114v623q0 58 -31 115l-33 55v21l299 65h21v-879q0 -57 33 -114z" />
    <glyph glyph-name="iacute" unicode="&#xed;" horiz-adv-x="503" 
d="M453 1352l-297 -187h-29l172 289zM414 76l32 -56v-20h-385v20l33 56q31 53 31 114v623q0 58 -31 115l-33 55v21l299 65h21v-879q0 -57 33 -114z" />
    <glyph glyph-name="icircumflex" unicode="&#xee;" horiz-adv-x="503" 
d="M262 1518l244 -179l-74 -100l-182 262l-180 -262l-72 100l242 179h22zM414 76l32 -56v-20h-385v20l33 56q31 53 31 114v623q0 58 -31 115l-33 55v21l299 65h21v-879q0 -57 33 -114z" />
    <glyph glyph-name="idieresis" unicode="&#xef;" horiz-adv-x="503" 
d="M266 1329q0 40 25 65t65 25t64 -25t24 -65t-24 -65t-64 -25t-65 25t-25 65zM59 1329q0 40 24 65t64 25q42 0 66.5 -25t24.5 -65t-24.5 -65t-66.5 -25q-40 0 -64 25t-24 65zM414 76l32 -56v-20h-385v20l33 56q31 53 31 114v623q0 58 -31 115l-33 55v21l299 65h21v-879
q0 -57 33 -114z" />
    <glyph glyph-name="eth" unicode="&#xf0;" horiz-adv-x="1122" 
d="M850 1366q98 -104 151.5 -268.5t53.5 -368.5q0 -345 -147.5 -547t-397.5 -202q-205 0 -330 136.5t-125 358.5q0 198 100 323.5t257 125.5q143 0 247.5 -106.5t131.5 -287.5q6 47 6 162q0 367 -62 565l-164 -151l-14 16l172 160q-74 215 -221 215q-42 0 -70 -20
q-26 -21 -28 -50t10 -56t25 -68t12 -76q0 -63 -39 -100t-105 -37q-70 0 -112.5 43.5t-42.5 115.5q0 119 107.5 194t248.5 75q184 0 322 -138l139 131l14 -16zM311 412q0 -182 61.5 -297t164.5 -115q105 0 172 120.5t67 295.5q0 178 -67 291.5t-172 113.5q-103 0 -164.5 -113
t-61.5 -296z" />
    <glyph glyph-name="ntilde" unicode="&#xf1;" horiz-adv-x="1122" 
d="M350 1288h-20q3 76 34.5 122t84.5 46q39 0 95 -29t106 -57.5t75 -28.5q22 0 34.5 18t12.5 48h21q-1 -82 -30 -125t-79 -43q-41 0 -98 28.5t-108 57.5t-79 29q-22 0 -34.5 -17.5t-14.5 -48.5zM1006 727v-537q0 -64 32 -114l31 -56v-20h-383v20l31 56q33 51 33 114v457
q0 86 -8 149.5t-26.5 114t-53 76t-84.5 25.5q-82 0 -136.5 -65.5t-60.5 -172.5v-584q0 -57 33 -114l32 -56v-20h-385v20l33 56q31 53 31 114v623q0 58 -31 115l-33 55v21l299 65h21v-186q35 95 121 151t198 56q146 0 226 -95.5t80 -267.5z" />
    <glyph glyph-name="ograve" unicode="&#xf2;" 
d="M627 1165l-297 187l153 102l172 -289h-28zM59 535q0 250 141 402.5t371 152.5t371 -152.5t141 -402.5t-141 -402.5t-371 -152.5t-371 152.5t-141 402.5zM315 524q0 -246 70 -385t188 -139q121 0 187.5 139.5t66.5 386.5q0 248 -67 395.5t-187 147.5q-118 0 -188 -148.5
t-70 -396.5z" />
    <glyph glyph-name="oacute" unicode="&#xf3;" 
d="M844 1352l-297 -187h-29l172 289zM59 535q0 250 141 402.5t371 152.5t371 -152.5t141 -402.5t-141 -402.5t-371 -152.5t-371 152.5t-141 402.5zM315 524q0 -246 70 -385t188 -139q121 0 187.5 139.5t66.5 386.5q0 248 -67 395.5t-187 147.5q-118 0 -188 -148.5
t-70 -396.5z" />
    <glyph glyph-name="ocircumflex" unicode="&#xf4;" 
d="M586 1450l266 -195l-100 -110l-181 287l-176 -287l-98 110l264 195h25zM59 535q0 250 141 402.5t371 152.5t371 -152.5t141 -402.5t-141 -402.5t-371 -152.5t-371 152.5t-141 402.5zM315 524q0 -246 70 -385t188 -139q121 0 187.5 139.5t66.5 386.5q0 248 -67 395.5
t-187 147.5q-118 0 -188 -148.5t-70 -396.5z" />
    <glyph glyph-name="otilde" unicode="&#xf5;" 
d="M338 1221h-23q3 84 39 134t95 50q37 0 81.5 -20t78.5 -43.5t74 -43.5t69 -20q24 0 38.5 20.5t14.5 51.5h22q-1 -90 -32.5 -137.5t-87.5 -47.5q-39 0 -85 20t-80.5 43.5t-76 43.5t-72.5 20q-25 0 -39 -18.5t-16 -52.5zM59 535q0 250 141 402.5t371 152.5t371 -152.5
t141 -402.5t-141 -402.5t-371 -152.5t-371 152.5t-141 402.5zM315 524q0 -246 70 -385t188 -139q121 0 187.5 139.5t66.5 386.5q0 248 -67 395.5t-187 147.5q-118 0 -188 -148.5t-70 -396.5z" />
    <glyph glyph-name="odieresis" unicode="&#xf6;" 
d="M586 1329q0 40 25 65t65 25t64 -25t24 -65t-24 -65t-64 -25t-65 25t-25 65zM379 1329q0 40 24 65t64 25q42 0 66 -25t24 -65t-24 -65t-66 -25q-40 0 -64 25t-24 65zM59 535q0 250 141 402.5t371 152.5t371 -152.5t141 -402.5t-141 -402.5t-371 -152.5t-371 152.5
t-141 402.5zM315 524q0 -246 70 -385t188 -139q121 0 187.5 139.5t66.5 386.5q0 248 -67 395.5t-187 147.5q-118 0 -188 -148.5t-70 -396.5z" />
    <glyph glyph-name="divide" unicode="&#xf7;" 
d="M428 1141q0 72 44 115.5t116 43.5t116 -43.5t44 -115.5t-44 -116t-116 -44t-116 44t-44 116zM102 793h938v-43h-938v43zM428 354q0 72 44 116t116 44t116 -44t44 -116t-44 -115.5t-116 -43.5t-116 43.5t-44 115.5z" />
    <glyph glyph-name="oslash" unicode="&#xf8;" horiz-adv-x="1144" 
d="M61 535q0 250 141 402.5t371 152.5q187 0 322 -107l80 107h22l-90 -117q86 -74 132 -186t46 -252q0 -250 -141 -402.5t-371 -152.5q-205 0 -331 114l-72 -94h-20l77 104q-79 75 -122.5 185.5t-43.5 245.5zM317 524q0 -156 29 -266l445 586q-31 107 -86.5 166t-129.5 59
q-118 0 -188 -148.5t-70 -396.5zM797 823l-447 -585q32 -114 90.5 -176t134.5 -62q121 0 187.5 139.5t66.5 386.5q0 166 -32 297z" />
    <glyph glyph-name="ugrave" unicode="&#xf9;" horiz-adv-x="1120" 
d="M604 1165l-297 187l154 102l172 -289h-29zM117 342v471q0 60 -31 117l-33 53v21l299 65h21v-647q0 -87 8 -150.5t26.5 -114.5t53 -76.5t84.5 -25.5q82 0 137 66.5t59 173.5v518q0 64 -32 117l-31 53v21l299 65h20v-879q0 -63 33 -114l31 -56v-20h-152q-75 0 -121.5 46
t-46.5 122v18q-35 -96 -120.5 -151t-198.5 -55q-145 0 -225 94.5t-80 267.5z" />
    <glyph glyph-name="uacute" unicode="&#xfa;" horiz-adv-x="1120" 
d="M813 1352l-297 -187h-29l172 289zM117 342v471q0 60 -31 117l-33 53v21l299 65h21v-647q0 -87 8 -150.5t26.5 -114.5t53 -76.5t84.5 -25.5q82 0 137 66.5t59 173.5v518q0 64 -32 117l-31 53v21l299 65h20v-879q0 -63 33 -114l31 -56v-20h-152q-75 0 -121.5 46t-46.5 122
v18q-35 -96 -120.5 -151t-198.5 -55q-145 0 -225 94.5t-80 267.5z" />
    <glyph glyph-name="ucircumflex" unicode="&#xfb;" horiz-adv-x="1120" 
d="M569 1518l244 -179l-72 -100l-182 262l-182 -262l-70 100l242 179h20zM117 342v471q0 60 -31 117l-33 53v21l299 65h21v-647q0 -87 8 -150.5t26.5 -114.5t53 -76.5t84.5 -25.5q82 0 137 66.5t59 173.5v518q0 64 -32 117l-31 53v21l299 65h20v-879q0 -63 33 -114l31 -56
v-20h-152q-75 0 -121.5 46t-46.5 122v18q-35 -96 -120.5 -151t-198.5 -55q-145 0 -225 94.5t-80 267.5z" />
    <glyph glyph-name="udieresis" unicode="&#xfc;" horiz-adv-x="1120" 
d="M573 1329q0 40 25.5 65t65.5 25t65 -25t25 -65t-25 -65t-65 -25t-65.5 25t-25.5 65zM367 1329q0 40 25 65t65 25q41 0 65.5 -25t24.5 -65t-24.5 -65t-65.5 -25q-40 0 -65 25t-25 65zM117 342v471q0 60 -31 117l-33 53v21l299 65h21v-647q0 -87 8 -150.5t26.5 -114.5
t53 -76.5t84.5 -25.5q82 0 137 66.5t59 173.5v518q0 64 -32 117l-31 53v21l299 65h20v-879q0 -63 33 -114l31 -56v-20h-152q-75 0 -121.5 46t-46.5 122v18q-35 -96 -120.5 -151t-198.5 -55q-145 0 -225 94.5t-80 267.5z" />
    <glyph glyph-name="yacute" unicode="&#xfd;" horiz-adv-x="1005" 
d="M788 1352l-296 -187h-29l172 289zM877 883l-295 -840q-75 -214 -108 -282q-70 -143 -168 -186q-53 -24 -122 -24q-124 0 -214.5 68.5t-90.5 175.5q0 70 41.5 114t112.5 44q64 0 102.5 -34t38.5 -83q0 -21 -8 -51t-15 -52t-5 -49.5t20 -50.5q27 -39 86 -39q41 0 76.5 20.5
t63 53.5t58 94t54 122.5t57.5 158.5h-149l-285 840q-18 52 -61 102l-60 62v22h420v-22l-20 -52q-28 -59 -7 -112l222 -664l233 664q19 56 -4 114l-23 50v22h174v-22l-61 -62q-47 -54 -63 -102z" />
    <glyph glyph-name="thorn" unicode="&#xfe;" horiz-adv-x="1187" 
d="M391 -352l33 -54v-22h-385v22l33 54q30 55 30 114v1479q0 61 -30 113l-33 55v23l299 63h20v-754q64 346 336 346q191 0 311.5 -152t120.5 -390q0 -253 -130 -410.5t-318 -157.5q-254 0 -320 334v-549q0 -54 33 -114zM604 61q125 0 195.5 129t70.5 334q0 206 -71 341.5
t-199 135.5q-226 0 -242 -475q7 -245 73.5 -355t172.5 -110z" />
    <glyph glyph-name="ydieresis" unicode="&#xff;" horiz-adv-x="1005" 
d="M516 1329q0 40 25 65t65 25t65 -25t25 -65t-25 -65t-65 -25t-65 25t-25 65zM309 1329q0 40 25 65t65 25q41 0 65.5 -25t24.5 -65t-24.5 -65t-65.5 -25q-40 0 -65 25t-25 65zM877 883l-295 -840q-75 -214 -108 -282q-70 -143 -168 -186q-53 -24 -122 -24
q-124 0 -214.5 68.5t-90.5 175.5q0 70 41.5 114t112.5 44q64 0 102.5 -34t38.5 -83q0 -21 -8 -51t-15 -52t-5 -49.5t20 -50.5q27 -39 86 -39q41 0 76.5 20.5t63 53.5t58 94t54 122.5t57.5 158.5h-149l-285 840q-18 52 -61 102l-60 62v22h420v-22l-20 -52q-28 -59 -7 -112
l222 -664l233 664q19 56 -4 114l-23 50v22h174v-22l-61 -62q-47 -54 -63 -102z" />
    <glyph glyph-name="Abreve" unicode="&#x102;" horiz-adv-x="1173" 
d="M838 1823h18q0 -113 -71 -180.5t-189 -67.5q-116 0 -186 68t-70 180h18q0 -45 65 -85t169 -40q108 0 177 40.5t69 84.5zM795 188l-76 250h-508l-78 -250q-16 -59 10 -116l23 -52v-20h-172v20l55 64q43 39 60 104l409 1307h152l395 -1307q17 -64 59 -106l56 -62v-20h-418
v20l24 52q24 60 9 116zM219 459h494l-244 805z" />
    <glyph glyph-name="abreve" unicode="&#x103;" horiz-adv-x="1081" 
d="M786 1413h19q0 -113 -71 -180.5t-189 -67.5q-116 0 -186 68t-70 180h18q0 -45 65 -85t169 -40q108 0 176.5 40.5t68.5 84.5zM971 641v-451q0 -62 30 -114l33 -56v-20h-151q-75 0 -122.5 46.5t-47.5 121.5v12q-33 -96 -109.5 -149.5t-187.5 -53.5q-154 0 -258.5 98
t-104.5 251q0 152 102.5 254t256.5 102q109 0 188 -57t113 -156v207q0 193 -54 293t-155 100q-33 0 -65 -11t-46 -32q-15 -18 -16 -48t6 -57t15 -61t8 -53q0 -44 -37 -75.5t-97 -31.5q-63 0 -100 37t-37 97q0 103 109 179.5t276 76.5q89 0 166 -24t143 -74.5t104 -140.5
t38 -210zM512 41q90 0 145.5 71t55.5 203v25q-2 113 -56 189.5t-143 76.5q-92 0 -148.5 -81.5t-56.5 -211.5q0 -124 55.5 -198t147.5 -74z" />
    <glyph glyph-name="Dcroat" unicode="&#x110;" horiz-adv-x="1236" 
d="M444 0h-354v20l31 56q33 51 33 114v547h-103v21h103v547q0 60 -33 114l-31 56v20h354q219 0 387 -92.5t260.5 -264t92.5 -397.5q0 -340 -200 -540.5t-540 -200.5zM420 1475h-10v-717h249v-21h-249v-717h10q156 0 272 94t176 258t60 376q0 215 -61 379.5t-177 256
t-270 91.5z" />
    <glyph glyph-name="dcroat" unicode="&#x111;" horiz-adv-x="1212" 
d="M1214 1194h-124v-1006q0 -61 30 -116l33 -54v-20h-152q-76 0 -121.5 46.5t-45.5 121.5v168q-58 -357 -324 -357q-188 0 -318.5 157.5t-130.5 410.5q0 238 120.5 390t312.5 152q141 0 225 -92t115 -276v475h-316v20h316v23q0 58 -33 115l-33 53v25l299 63h23v-279h124v-20
zM584 61q105 0 171 109.5t74 355.5q-16 475 -241 475q-128 0 -199.5 -135.5t-71.5 -341.5q0 -133 30.5 -237t91.5 -165t145 -61z" />
    <glyph glyph-name="Itilde" unicode="&#x128;" horiz-adv-x="520" 
d="M27 1651h-23q3 84 38.5 134t94.5 50q37 0 81.5 -20t78.5 -43.5t74 -43.5t69 -20q24 0 39 20.5t15 51.5h22q-1 -90 -33 -137.5t-88 -47.5q-39 0 -85 20t-80.5 43.5t-75.5 43.5t-72 20q-25 0 -39 -18.5t-16 -52.5zM420 76l33 -56v-20h-385v20l32 56q31 53 31 114v1115
q0 57 -31 114l-32 56v20h385v-20l-33 -56q-33 -61 -33 -114v-1115q0 -57 33 -114z" />
    <glyph glyph-name="itilde" unicode="&#x129;" horiz-adv-x="503" 
d="M18 1221h-22q3 84 38.5 134t94.5 50q37 0 81.5 -20t78.5 -43.5t74 -43.5t69 -20q24 0 38.5 20.5t14.5 51.5h23q-1 -90 -33 -137.5t-88 -47.5q-39 0 -85 20t-80.5 43.5t-75.5 43.5t-72 20q-25 0 -40 -18.5t-16 -52.5zM414 76l32 -56v-20h-385v20l33 56q31 53 31 114v623
q0 58 -31 115l-33 55v21l299 65h21v-879q0 -57 33 -114z" />
    <glyph glyph-name="dotlessi" unicode="&#x131;" horiz-adv-x="503" 
d="M414 76l32 -56v-20h-385v20l33 56q31 53 31 114v623q0 58 -31 115l-33 55v21l299 65h21v-879q0 -57 33 -114z" />
    <glyph glyph-name="Lslash" unicode="&#x141;" horiz-adv-x="1024" 
d="M473 1475l-33 -56q-32 -55 -32 -114v-451l170 168l14 -16l-184 -183v-803h434q59 0 104 33t62 88l2 9h22l-43 -150h-901v23l31 55q33 51 33 115v372l-89 -86l-14 15l103 104v707q0 62 -33 116l-31 54v20h385v-20z" />
    <glyph glyph-name="lslash" unicode="&#x142;" horiz-adv-x="595" 
d="M440 76l33 -56v-20h-385v20l33 56q31 53 31 114v394l-101 -101l-14 15l115 114v629q0 60 -31 113l-33 55v23l299 63h23v-625l155 156l15 -16l-170 -170v-650q0 -62 30 -114z" />
    <glyph glyph-name="OE" unicode="&#x152;" horiz-adv-x="2109" 
d="M1804 823h-348v-803h434q59 0 104 33t62 88l4 9h21l-43 -150h-901v20l30 56q19 26 25 59q-178 -155 -440 -155q-154 0 -283.5 56t-220.5 155.5t-142 243t-51 313.5q0 171 51 314.5t142.5 243.5t221 156t282.5 56q262 0 440 -152q-12 35 -25 53l-30 56v20h901l43 -149h-21
l-4 8q-17 55 -62 88t-104 33h-434v-631h348q37 0 60.5 23.5t23.5 60.5v2h21v-193h-21v2q0 37 -23.5 60.5t-60.5 23.5zM311 735q0 -334 118.5 -534.5t315.5 -200.5q200 0 321.5 204t121.5 546q0 339 -119 542t-315 203q-131 0 -232 -95.5t-156 -268t-55 -396.5z" />
    <glyph glyph-name="oe" unicode="&#x153;" horiz-adv-x="1867" 
d="M59 535q0 250 140.5 402.5t369.5 152.5q244 0 389 -172q68 83 168 127.5t222 44.5q188 0 307 -101.5t119 -265.5q0 -178 -140.5 -282.5t-376.5 -104.5q-61 0 -143 10q36 -144 120.5 -223.5t209.5 -79.5q65 0 123.5 22.5t97.5 55t70 71.5t46 69.5t19 51.5h23
q-55 -157 -179.5 -245t-297.5 -88q-121 0 -220.5 44.5t-167.5 127.5q-143 -172 -389 -172q-229 0 -369.5 152.5t-140.5 402.5zM1108 379q109 32 193 86t133.5 117.5t74.5 129t25 130.5q0 95 -49 161t-131 66q-119 0 -190.5 -141.5t-71.5 -360.5q0 -115 16 -188zM313 524
q0 -246 70.5 -385t189.5 -139q120 0 187 139.5t67 386.5t-67.5 395t-186.5 148q-118 0 -189 -148.5t-71 -396.5z" />
    <glyph glyph-name="Scaron" unicode="&#x160;" horiz-adv-x="1146" 
d="M827 1815l-243 -177h-23l-242 177l72 102l180 -264l183 264zM283 1268q0 -58 27.5 -110t74.5 -94t107.5 -82t128 -78.5t134.5 -78t127.5 -86.5t107.5 -98.5t74.5 -118.5t27.5 -143q0 -179 -139.5 -289t-370.5 -110q-135 0 -253.5 36.5t-195 109.5t-76.5 167
q0 78 50.5 132t132.5 54q75 0 122.5 -48t47.5 -118q0 -33 -12 -67.5t-25.5 -59t-24.5 -48t-8.5 -44.5t22.5 -39q62 -55 201 -55q143 0 234.5 74t91.5 192q0 62 -27.5 117.5t-74.5 99.5t-108 85t-128.5 79.5t-134.5 77t-128 83t-108 93t-74.5 111t-27.5 133.5
q0 164 133 268.5t342 104.5q122 0 232.5 -36t184.5 -109.5t74 -168.5q0 -80 -48.5 -129t-131.5 -49q-75 0 -119.5 42.5t-44.5 113.5q-1 34 10.5 68.5t25 59.5t23.5 49t6.5 46t-24.5 41q-60 49 -180 49q-124 0 -201 -63.5t-77 -163.5z" />
    <glyph glyph-name="scaron" unicode="&#x161;" horiz-adv-x="856" 
d="M682 1409l-244 -176h-22l-242 176l72 102l180 -264l182 264zM590 147q0 51 -27 100t-70 90t-95.5 81.5t-105 83.5t-95.5 88.5t-70 103t-27 119.5q0 125 94.5 201t249.5 76q148 0 241 -70t93 -182q0 -69 -37 -108.5t-104 -39.5q-61 0 -98 30.5t-37 76.5q0 19 7.5 50.5
t14.5 57t6 56.5t-16 55q-13 23 -38.5 38t-57.5 15q-52 0 -84.5 -38.5t-32.5 -96.5q0 -49 27 -96.5t70 -88t95.5 -81.5t105 -85t95.5 -90.5t70 -105t27 -121.5q0 -128 -102 -207t-271 -79q-158 0 -260.5 69.5t-102.5 179.5q0 68 41 110t111 42q66 0 105.5 -34t39.5 -85
q0 -20 -8 -53t-15.5 -59t-6 -56t17.5 -51q29 -43 104 -43q67 0 106.5 41t39.5 106z" />
    <glyph glyph-name="Utilde" unicode="&#x168;" horiz-adv-x="1226" 
d="M403 1651h-22q3 84 38.5 134t94.5 50q37 0 81.5 -20t78.5 -43.5t74 -43.5t69 -20q24 0 38.5 20.5t14.5 51.5h23q-1 -90 -33 -137.5t-88 -47.5q-39 0 -85 20t-80.5 43.5t-75.5 43.5t-72 20q-25 0 -40 -18.5t-16 -52.5zM623 -20q-225 0 -364.5 133t-139.5 352v840
q0 57 -31 114l-33 56v20h385v-20l-32 -56q-33 -61 -33 -114v-840q0 -106 43.5 -201.5t128 -158t190.5 -62.5q68 0 129 27t110.5 80t79 140t29.5 197v818q0 61 -32 114l-33 56v20h151v-20l-32 -56q-33 -54 -33 -114v-840q0 -216 -129 -350.5t-354 -134.5z" />
    <glyph glyph-name="utilde" unicode="&#x169;" horiz-adv-x="1120" 
d="M326 1221h-23q3 84 38.5 134t94.5 50q37 0 81.5 -20t78.5 -43.5t74 -43.5t69 -20q24 0 39 20.5t15 51.5h22q-1 -90 -33 -137.5t-88 -47.5q-39 0 -85 20t-80.5 43.5t-75.5 43.5t-72 20q-25 0 -39 -18.5t-16 -52.5zM117 342v471q0 60 -31 117l-33 53v21l299 65h21v-647
q0 -87 8 -150.5t26.5 -114.5t53 -76.5t84.5 -25.5q82 0 137 66.5t59 173.5v518q0 64 -32 117l-31 53v21l299 65h20v-879q0 -63 33 -114l31 -56v-20h-152q-75 0 -121.5 46t-46.5 122v18q-35 -96 -120.5 -151t-198.5 -55q-145 0 -225 94.5t-80 267.5z" />
    <glyph glyph-name="Ydieresis" unicode="&#x178;" horiz-adv-x="1085" 
d="M557 1735q0 40 25 65t65 25t64 -25t24 -65t-24 -65t-64 -25t-65 25t-25 65zM350 1735q0 40 24 65t64 25q42 0 66 -25t24 -65t-24 -65t-66 -25q-40 0 -64 25t-24 65zM936 1313l-270 -584v-539q0 -62 30 -114l33 -56v-20h-385v20l33 56q33 57 33 114v439l-281 680
q-23 58 -72 100l-69 66v20h436v-20l-16 -48q-17 -63 8 -118l231 -566l264 570q25 59 19 117l-6 45v20h174v-20l-84 -70q-57 -42 -78 -92z" />
    <glyph glyph-name="Zcaron" unicode="&#x17d;" horiz-adv-x="944" 
d="M725 1815l-244 -177h-20l-242 177l70 102l182 -264l182 264zM301 20h410q57 0 103 33t63 88l2 9h22l-43 -150h-838v20l623 1455h-412q-57 0 -102.5 -33t-62.5 -88l-3 -8h-22l43 149h838v-20z" />
    <glyph glyph-name="zcaron" unicode="&#x17e;" horiz-adv-x="804" 
d="M655 1409l-243 -176h-21l-241 176l69 102l182 -264l183 264zM326 20h235q57 0 103 33t63 88l2 9h23l-43 -150h-676v20l446 1027h-235q-57 0 -103 -32.5t-63 -86.5l-2 -8h-23l43 149h676v-22z" />
    <glyph glyph-name="Ohorn" unicode="&#x1a0;" horiz-adv-x="1501" 
d="M55 748q0 171 51 314.5t142.5 243.5t221 156t282.5 56q242 0 419 -138q58 32 86 97q8 24 -3 43.5t-29 32t-34.5 34.5t-16.5 49q0 40 27 66.5t69 26.5q46 0 75 -30t29 -75q0 -28 -6 -57t-23 -67.5t-57 -74t-98 -59.5q122 -103 188 -261t66 -355q0 -170 -50 -313
t-140 -243.5t-219.5 -157t-282.5 -56.5q-154 0 -283.5 56t-220.5 155.5t-142 243t-51 313.5zM311 735q0 -334 118.5 -534.5t315.5 -200.5q200 0 321.5 204t121.5 546q0 339 -119 542t-315 203q-131 0 -232 -95.5t-156 -268t-55 -396.5z" />
    <glyph glyph-name="ohorn" unicode="&#x1a1;" 
d="M59 535q0 250 141 402.5t371 152.5q213 0 357 -138q40 30 61 82q8 24 -3 44t-29.5 32t-35 34.5t-16.5 49.5q0 40 27 66t69 26q47 0 76 -29.5t29 -74.5q0 -26 -5.5 -53t-20.5 -63.5t-49.5 -71.5t-84.5 -60q137 -153 137 -399q0 -250 -141 -402.5t-371 -152.5t-371 152.5
t-141 402.5zM315 524q0 -246 70 -385t188 -139q121 0 187.5 139.5t66.5 386.5q0 248 -67 395.5t-187 147.5q-118 0 -188 -148.5t-70 -396.5z" />
    <glyph glyph-name="Uhorn" unicode="&#x1af;" horiz-adv-x="1226" 
d="M623 -20q-225 0 -364.5 133t-139.5 352v840q0 57 -31 114l-33 56v20h385v-20l-32 -56q-33 -61 -33 -114v-840q0 -106 43.5 -201.5t128 -158t190.5 -62.5q68 0 129 27t110.5 80t79 140t29.5 197v818q0 61 -32 114l-33 56v20h151v-20l-32 -56q-16 -25 -25 -53
q30 12 51.5 27t34 31.5t18.5 27.5t11 25q8 24 -3 43.5t-29.5 32t-35 34.5t-16.5 49q0 40 27 66.5t69 26.5q47 0 76 -30t29 -75q0 -24 -4 -48.5t-18.5 -59.5t-38.5 -64t-69 -58t-106 -46q-4 -14 -4 -43v-840q0 -216 -129 -350.5t-354 -134.5z" />
    <glyph glyph-name="uhorn" unicode="&#x1b0;" horiz-adv-x="1120" 
d="M117 342v471q0 60 -31 117l-33 53v21l299 65h21v-647q0 -87 8 -150.5t26.5 -114.5t53 -76.5t84.5 -25.5q82 0 137 66.5t59 173.5v518q0 64 -32 117l-31 53v21l299 65h20v-133q28 15 48 36t26 32.5t14 29.5q8 24 -3 44t-29.5 32t-35 34.5t-16.5 49.5q0 40 27 66t70 26
q47 0 75.5 -29.5t28.5 -74.5q0 -29 -7 -59.5t-26 -71t-63 -77.5t-109 -61v-723q0 -63 33 -114l31 -56v-20h-152q-75 0 -121.5 46t-46.5 122v18q-35 -96 -120.5 -151t-198.5 -55q-145 0 -225 94.5t-80 267.5z" />
    <glyph glyph-name="circumflex" unicode="&#x2c6;" horiz-adv-x="634" 
d="M326 1518l243 -179l-71 -100l-183 262l-182 -262l-70 100l242 179h21z" />
    <glyph glyph-name="caron" unicode="&#x2c7;" horiz-adv-x="634" 
d="M569 1409l-243 -176h-21l-242 176l70 102l182 -264l183 264z" />
    <glyph glyph-name="breve" unicode="&#x2d8;" horiz-adv-x="567" 
d="M496 1450h8q0 -95 -60.5 -153t-160.5 -58q-99 0 -159.5 58t-60.5 153h9q0 -35 57 -59.5t150 -24.5q96 0 156.5 24.5t60.5 59.5z" />
    <glyph glyph-name="dotaccent" unicode="&#x2d9;" horiz-adv-x="307" 
d="M63 1329q0 40 25.5 65t65.5 25q41 0 65.5 -25t24.5 -65t-24.5 -65t-65.5 -25q-40 0 -65.5 25t-25.5 65z" />
    <glyph glyph-name="ring" unicode="&#x2da;" horiz-adv-x="385" 
d="M70 1362q0 54 34 87.5t91 33.5q54 0 87 -33.5t33 -87.5q0 -55 -33 -89t-87 -34q-57 0 -91 33.5t-34 89.5zM127 1362q0 -30 19 -49t49 -19q28 0 45.5 19.5t17.5 48.5q0 28 -17.5 46.5t-45.5 18.5q-30 0 -49 -18.5t-19 -46.5z" />
    <glyph glyph-name="ogonek" unicode="&#x2db;" horiz-adv-x="438" 
d="M223 -309q-51 0 -80.5 35.5t-29.5 97.5q0 85 47 176h35q-44 -97 -33 -178q9 -74 78 -74q32 0 55.5 18t23.5 46q14 -45 -13 -83t-83 -38z" />
    <glyph glyph-name="tilde" unicode="&#x2dc;" horiz-adv-x="595" 
d="M86 1288h-20q3 77 34 122.5t84 45.5q39 0 95.5 -29t106.5 -57.5t75 -28.5q23 0 35 18t12 48h20q-3 -168 -108 -168q-41 0 -98 28.5t-108 57.5t-79 29q-22 0 -34.5 -17.5t-14.5 -48.5z" />
    <glyph glyph-name="hungarumlaut" unicode="&#x2dd;" horiz-adv-x="579" 
d="M514 1417l-244 -178h-20l192 279zM322 1417l-244 -178h-21l193 279z" />
    <glyph glyph-name="uni1EA0" unicode="&#x1ea0;" horiz-adv-x="1173" 
d="M795 188l-76 250h-508l-78 -250q-16 -59 10 -116l23 -52v-20h-172v20l55 64q43 39 60 104l409 1307h152l395 -1307q17 -64 59 -106l56 -62v-20h-418v20l24 52q24 60 9 116zM219 459h494l-244 805zM352 -268q0 60 36.5 97.5t96.5 37.5t96.5 -37.5t36.5 -97.5t-36.5 -96.5
t-96.5 -36.5t-96.5 36.5t-36.5 96.5z" />
    <glyph glyph-name="uni1EA1" unicode="&#x1ea1;" horiz-adv-x="1081" 
d="M971 641v-451q0 -62 30 -114l33 -56v-20h-151q-75 0 -122.5 46.5t-47.5 121.5v12q-33 -96 -109.5 -149.5t-187.5 -53.5q-154 0 -258.5 98t-104.5 251q0 152 102.5 254t256.5 102q109 0 188 -57t113 -156v207q0 193 -54 293t-155 100q-33 0 -65 -11t-46 -32
q-15 -18 -16 -48t6 -57t15 -61t8 -53q0 -44 -37 -75.5t-97 -31.5q-63 0 -100 37t-37 97q0 103 109 179.5t276 76.5q89 0 166 -24t143 -74.5t104 -140.5t38 -210zM512 41q90 0 145.5 71t55.5 203v25q-2 113 -56 189.5t-143 76.5q-92 0 -148.5 -81.5t-56.5 -211.5
q0 -124 55.5 -198t147.5 -74zM371 -268q0 60 36.5 97.5t96.5 37.5t96.5 -37.5t36.5 -97.5t-36.5 -96.5t-96.5 -36.5t-96.5 36.5t-36.5 96.5z" />
    <glyph glyph-name="uni1EA2" unicode="&#x1ea2;" horiz-adv-x="1173" 
d="M543 1817q0 51 33.5 83.5t85.5 32.5q54 0 87 -34.5t33 -94.5q0 -91 -69 -150t-142 -59l-2 15q80 22 107 90q-59 0 -96 29t-37 88zM795 188l-76 250h-508l-78 -250q-16 -59 10 -116l23 -52v-20h-172v20l55 64q43 39 60 104l409 1307h152l395 -1307q17 -64 59 -106l56 -62
v-20h-418v20l24 52q24 60 9 116zM219 459h494l-244 805z" />
    <glyph glyph-name="uni1EA3" unicode="&#x1ea3;" horiz-adv-x="1081" 
d="M479 1386q0 51 33.5 84t85.5 33q55 0 88 -35t33 -94q0 -91 -69 -150t-142 -59l-2 15q79 22 106 90q-59 0 -96 29t-37 87zM971 641v-451q0 -62 30 -114l33 -56v-20h-151q-75 0 -122.5 46.5t-47.5 121.5v12q-33 -96 -109.5 -149.5t-187.5 -53.5q-154 0 -258.5 98
t-104.5 251q0 152 102.5 254t256.5 102q109 0 188 -57t113 -156v207q0 193 -54 293t-155 100q-33 0 -65 -11t-46 -32q-15 -18 -16 -48t6 -57t15 -61t8 -53q0 -44 -37 -75.5t-97 -31.5q-63 0 -100 37t-37 97q0 103 109 179.5t276 76.5q89 0 166 -24t143 -74.5t104 -140.5
t38 -210zM512 41q90 0 145.5 71t55.5 203v25q-2 113 -56 189.5t-143 76.5q-92 0 -148.5 -81.5t-56.5 -211.5q0 -124 55.5 -198t147.5 -74z" />
    <glyph glyph-name="uni1EA4" unicode="&#x1ea4;" horiz-adv-x="1173" 
d="M1096 2028l-297 -187h-29l172 289zM608 1880l266 -194l-100 -111l-180 287l-176 -287l-99 111l265 194h24zM795 188l-76 250h-508l-78 -250q-16 -59 10 -116l23 -52v-20h-172v20l55 64q43 39 60 104l409 1307h152l395 -1307q17 -64 59 -106l56 -62v-20h-418v20l24 52
q24 60 9 116zM219 459h494l-244 805z" />
    <glyph glyph-name="uni1EA5" unicode="&#x1ea5;" horiz-adv-x="1081" 
d="M1047 1597l-297 -186h-29l172 289zM559 1450l266 -195l-100 -110l-180 287l-176 -287l-99 110l265 195h24zM971 641v-451q0 -62 30 -114l33 -56v-20h-151q-75 0 -122.5 46.5t-47.5 121.5v12q-33 -96 -109.5 -149.5t-187.5 -53.5q-154 0 -258.5 98t-104.5 251
q0 152 102.5 254t256.5 102q109 0 188 -57t113 -156v207q0 193 -54 293t-155 100q-33 0 -65 -11t-46 -32q-15 -18 -16 -48t6 -57t15 -61t8 -53q0 -44 -37 -75.5t-97 -31.5q-63 0 -100 37t-37 97q0 103 109 179.5t276 76.5q89 0 166 -24t143 -74.5t104 -140.5t38 -210z
M512 41q90 0 145.5 71t55.5 203v25q-2 113 -56 189.5t-143 76.5q-92 0 -148.5 -81.5t-56.5 -211.5q0 -124 55.5 -198t147.5 -74z" />
    <glyph glyph-name="uni1EA6" unicode="&#x1ea6;" horiz-adv-x="1173" 
d="M862 1841l-297 187l154 102l172 -289h-29zM608 1880l266 -194l-100 -111l-180 287l-176 -287l-99 111l265 194h24zM795 188l-76 250h-508l-78 -250q-16 -59 10 -116l23 -52v-20h-172v20l55 64q43 39 60 104l409 1307h152l395 -1307q17 -64 59 -106l56 -62v-20h-418v20
l24 52q24 60 9 116zM219 459h494l-244 805z" />
    <glyph glyph-name="uni1EA7" unicode="&#x1ea7;" horiz-adv-x="1081" 
d="M813 1411l-297 186l154 103l172 -289h-29zM559 1450l266 -195l-100 -110l-180 287l-176 -287l-99 110l265 195h24zM971 641v-451q0 -62 30 -114l33 -56v-20h-151q-75 0 -122.5 46.5t-47.5 121.5v12q-33 -96 -109.5 -149.5t-187.5 -53.5q-154 0 -258.5 98t-104.5 251
q0 152 102.5 254t256.5 102q109 0 188 -57t113 -156v207q0 193 -54 293t-155 100q-33 0 -65 -11t-46 -32q-15 -18 -16 -48t6 -57t15 -61t8 -53q0 -44 -37 -75.5t-97 -31.5q-63 0 -100 37t-37 97q0 103 109 179.5t276 76.5q89 0 166 -24t143 -74.5t104 -140.5t38 -210z
M512 41q90 0 145.5 71t55.5 203v25q-2 113 -56 189.5t-143 76.5q-92 0 -148.5 -81.5t-56.5 -211.5q0 -124 55.5 -198t147.5 -74z" />
    <glyph glyph-name="uni1EA8" unicode="&#x1ea8;" horiz-adv-x="1173" 
d="M748 2042q0 51 33 84t85 33q55 0 88 -35t33 -94q0 -91 -69 -150t-142 -59l-2 14q80 22 107 90q-59 0 -96 29t-37 88zM608 1880l266 -194l-100 -111l-180 287l-176 -287l-99 111l265 194h24zM795 188l-76 250h-508l-78 -250q-16 -59 10 -116l23 -52v-20h-172v20l55 64
q43 39 60 104l409 1307h152l395 -1307q17 -64 59 -106l56 -62v-20h-418v20l24 52q24 60 9 116zM219 459h494l-244 805z" />
    <glyph glyph-name="uni1EA9" unicode="&#x1ea9;" horiz-adv-x="1081" 
d="M698 1612q0 51 33.5 84t85.5 33q54 0 87.5 -35t33.5 -95q0 -91 -69 -149.5t-142 -58.5l-2 14q79 22 106 90q-59 0 -96 29t-37 88zM559 1450l266 -195l-100 -110l-180 287l-176 -287l-99 110l265 195h24zM971 641v-451q0 -62 30 -114l33 -56v-20h-151q-75 0 -122.5 46.5
t-47.5 121.5v12q-33 -96 -109.5 -149.5t-187.5 -53.5q-154 0 -258.5 98t-104.5 251q0 152 102.5 254t256.5 102q109 0 188 -57t113 -156v207q0 193 -54 293t-155 100q-33 0 -65 -11t-46 -32q-15 -18 -16 -48t6 -57t15 -61t8 -53q0 -44 -37 -75.5t-97 -31.5q-63 0 -100 37
t-37 97q0 103 109 179.5t276 76.5q89 0 166 -24t143 -74.5t104 -140.5t38 -210zM512 41q90 0 145.5 71t55.5 203v25q-2 113 -56 189.5t-143 76.5q-92 0 -148.5 -81.5t-56.5 -211.5q0 -124 55.5 -198t147.5 -74z" />
    <glyph glyph-name="uni1EAA" unicode="&#x1eaa;" horiz-adv-x="1173" 
d="M383 1972h-23q3 84 39 134.5t95 50.5q37 0 81.5 -20t78.5 -43.5t74 -43.5t69 -20q24 0 38.5 20t14.5 51h22q-1 -90 -32.5 -137t-87.5 -47q-39 0 -85 20t-80.5 43.5t-76 43.5t-72.5 20q-25 0 -39 -19t-16 -53zM608 1880l266 -194l-100 -111l-180 287l-176 -287l-99 111
l265 194h24zM795 188l-76 250h-508l-78 -250q-16 -59 10 -116l23 -52v-20h-172v20l55 64q43 39 60 104l409 1307h152l395 -1307q17 -64 59 -106l56 -62v-20h-418v20l24 52q24 60 9 116zM219 459h494l-244 805z" />
    <glyph glyph-name="uni1EAB" unicode="&#x1eab;" horiz-adv-x="1081" 
d="M334 1542h-23q3 84 38.5 134t94.5 50q47 0 104.5 -32t110.5 -63.5t89 -31.5q24 0 38.5 20.5t14.5 51.5h22q-1 -90 -33 -137t-88 -47q-39 0 -85 20t-80.5 43.5t-75.5 43.5t-72 20q-25 0 -39 -19t-16 -53zM559 1450l266 -195l-100 -110l-180 287l-176 -287l-99 110l265 195
h24zM971 641v-451q0 -62 30 -114l33 -56v-20h-151q-75 0 -122.5 46.5t-47.5 121.5v12q-33 -96 -109.5 -149.5t-187.5 -53.5q-154 0 -258.5 98t-104.5 251q0 152 102.5 254t256.5 102q109 0 188 -57t113 -156v207q0 193 -54 293t-155 100q-33 0 -65 -11t-46 -32
q-15 -18 -16 -48t6 -57t15 -61t8 -53q0 -44 -37 -75.5t-97 -31.5q-63 0 -100 37t-37 97q0 103 109 179.5t276 76.5q89 0 166 -24t143 -74.5t104 -140.5t38 -210zM512 41q90 0 145.5 71t55.5 203v25q-2 113 -56 189.5t-143 76.5q-92 0 -148.5 -81.5t-56.5 -211.5
q0 -124 55.5 -198t147.5 -74z" />
    <glyph glyph-name="uni1EAC" unicode="&#x1eac;" horiz-adv-x="1173" 
d="M608 1880l266 -194l-100 -111l-180 287l-176 -287l-99 111l265 194h24zM795 188l-76 250h-508l-78 -250q-16 -59 10 -116l23 -52v-20h-172v20l55 64q43 39 60 104l409 1307h152l395 -1307q17 -64 59 -106l56 -62v-20h-418v20l24 52q24 60 9 116zM219 459h494l-244 805z
M352 -268q0 60 36.5 97.5t96.5 37.5t96.5 -37.5t36.5 -97.5t-36.5 -96.5t-96.5 -36.5t-96.5 36.5t-36.5 96.5z" />
    <glyph glyph-name="uni1EAD" unicode="&#x1ead;" horiz-adv-x="1081" 
d="M559 1450l266 -195l-100 -110l-180 287l-176 -287l-99 110l265 195h24zM971 641v-451q0 -62 30 -114l33 -56v-20h-151q-75 0 -122.5 46.5t-47.5 121.5v12q-33 -96 -109.5 -149.5t-187.5 -53.5q-154 0 -258.5 98t-104.5 251q0 152 102.5 254t256.5 102q109 0 188 -57
t113 -156v207q0 193 -54 293t-155 100q-33 0 -65 -11t-46 -32q-15 -18 -16 -48t6 -57t15 -61t8 -53q0 -44 -37 -75.5t-97 -31.5q-63 0 -100 37t-37 97q0 103 109 179.5t276 76.5q89 0 166 -24t143 -74.5t104 -140.5t38 -210zM512 41q90 0 145.5 71t55.5 203v25
q-2 113 -56 189.5t-143 76.5q-92 0 -148.5 -81.5t-56.5 -211.5q0 -124 55.5 -198t147.5 -74zM371 -268q0 60 36.5 97.5t96.5 37.5t96.5 -37.5t36.5 -97.5t-36.5 -96.5t-96.5 -36.5t-96.5 36.5t-36.5 96.5z" />
    <glyph glyph-name="uni1EAE" unicode="&#x1eae;" horiz-adv-x="1173" 
d="M856 1989l-297 -187h-29l172 289zM838 1823h18q0 -113 -71 -180.5t-189 -67.5q-116 0 -186 68t-70 180h18q0 -45 65 -85t169 -40q108 0 177 40.5t69 84.5zM795 188l-76 250h-508l-78 -250q-16 -59 10 -116l23 -52v-20h-172v20l55 64q43 39 60 104l409 1307h152l395 -1307
q17 -64 59 -106l56 -62v-20h-418v20l24 52q24 60 9 116zM219 459h494l-244 805z" />
    <glyph glyph-name="uni1EAF" unicode="&#x1eaf;" horiz-adv-x="1081" 
d="M805 1579l-297 -186h-29l172 288zM786 1413h19q0 -113 -71 -180.5t-189 -67.5q-116 0 -186 68t-70 180h18q0 -45 65 -85t169 -40q108 0 176.5 40.5t68.5 84.5zM971 641v-451q0 -62 30 -114l33 -56v-20h-151q-75 0 -122.5 46.5t-47.5 121.5v12q-33 -96 -109.5 -149.5
t-187.5 -53.5q-154 0 -258.5 98t-104.5 251q0 152 102.5 254t256.5 102q109 0 188 -57t113 -156v207q0 193 -54 293t-155 100q-33 0 -65 -11t-46 -32q-15 -18 -16 -48t6 -57t15 -61t8 -53q0 -44 -37 -75.5t-97 -31.5q-63 0 -100 37t-37 97q0 103 109 179.5t276 76.5
q89 0 166 -24t143 -74.5t104 -140.5t38 -210zM512 41q90 0 145.5 71t55.5 203v25q-2 113 -56 189.5t-143 76.5q-92 0 -148.5 -81.5t-56.5 -211.5q0 -124 55.5 -198t147.5 -74z" />
    <glyph glyph-name="uni1EB0" unicode="&#x1eb0;" horiz-adv-x="1173" 
d="M659 1802l-297 187l154 102l172 -289h-29zM838 1823h18q0 -113 -71 -180.5t-189 -67.5q-116 0 -186 68t-70 180h18q0 -45 65 -85t169 -40q108 0 177 40.5t69 84.5zM795 188l-76 250h-508l-78 -250q-16 -59 10 -116l23 -52v-20h-172v20l55 64q43 39 60 104l409 1307h152
l395 -1307q17 -64 59 -106l56 -62v-20h-418v20l24 52q24 60 9 116zM219 459h494l-244 805z" />
    <glyph glyph-name="uni1EB1" unicode="&#x1eb1;" horiz-adv-x="1081" 
d="M608 1393l-297 186l154 102l172 -288h-29zM786 1413h19q0 -113 -71 -180.5t-189 -67.5q-116 0 -186 68t-70 180h18q0 -45 65 -85t169 -40q108 0 176.5 40.5t68.5 84.5zM971 641v-451q0 -62 30 -114l33 -56v-20h-151q-75 0 -122.5 46.5t-47.5 121.5v12
q-33 -96 -109.5 -149.5t-187.5 -53.5q-154 0 -258.5 98t-104.5 251q0 152 102.5 254t256.5 102q109 0 188 -57t113 -156v207q0 193 -54 293t-155 100q-33 0 -65 -11t-46 -32q-15 -18 -16 -48t6 -57t15 -61t8 -53q0 -44 -37 -75.5t-97 -31.5q-63 0 -100 37t-37 97
q0 103 109 179.5t276 76.5q89 0 166 -24t143 -74.5t104 -140.5t38 -210zM512 41q90 0 145.5 71t55.5 203v25q-2 113 -56 189.5t-143 76.5q-92 0 -148.5 -81.5t-56.5 -211.5q0 -124 55.5 -198t147.5 -74z" />
    <glyph glyph-name="uni1EB2" unicode="&#x1eb2;" horiz-adv-x="1173" 
d="M541 2023q0 51 33 84t85 33q55 0 88 -35t33 -94q0 -91 -69 -150t-142 -59l-2 15q80 22 107 90q-59 0 -96 29t-37 87zM838 1823h18q0 -113 -71 -180.5t-189 -67.5q-116 0 -186 68t-70 180h18q0 -45 65 -85t169 -40q108 0 177 40.5t69 84.5zM795 188l-76 250h-508l-78 -250
q-16 -59 10 -116l23 -52v-20h-172v20l55 64q43 39 60 104l409 1307h152l395 -1307q17 -64 59 -106l56 -62v-20h-418v20l24 52q24 60 9 116zM219 459h494l-244 805z" />
    <glyph glyph-name="uni1EB3" unicode="&#x1eb3;" horiz-adv-x="1081" 
d="M489 1614q0 51 33.5 84t85.5 33q55 0 88 -35t33 -94q0 -91 -69 -150t-142 -59l-2 14q80 22 107 90q-59 0 -96.5 29.5t-37.5 87.5zM786 1413h19q0 -113 -71 -180.5t-189 -67.5q-116 0 -186 68t-70 180h18q0 -45 65 -85t169 -40q108 0 176.5 40.5t68.5 84.5zM971 641v-451
q0 -62 30 -114l33 -56v-20h-151q-75 0 -122.5 46.5t-47.5 121.5v12q-33 -96 -109.5 -149.5t-187.5 -53.5q-154 0 -258.5 98t-104.5 251q0 152 102.5 254t256.5 102q109 0 188 -57t113 -156v207q0 193 -54 293t-155 100q-33 0 -65 -11t-46 -32q-15 -18 -16 -48t6 -57t15 -61
t8 -53q0 -44 -37 -75.5t-97 -31.5q-63 0 -100 37t-37 97q0 103 109 179.5t276 76.5q89 0 166 -24t143 -74.5t104 -140.5t38 -210zM512 41q90 0 145.5 71t55.5 203v25q-2 113 -56 189.5t-143 76.5q-92 0 -148.5 -81.5t-56.5 -211.5q0 -124 55.5 -198t147.5 -74z" />
    <glyph glyph-name="uni1EB4" unicode="&#x1eb4;" horiz-adv-x="1173" 
d="M358 1905h-22q3 84 38.5 134t94.5 50q37 0 81.5 -20t78.5 -43.5t74 -43.5t69 -20q24 0 38.5 20.5t14.5 51.5h23q-1 -90 -33 -137.5t-88 -47.5q-39 0 -85 20t-80.5 43.5t-75.5 43.5t-72 20q-25 0 -40 -18.5t-16 -52.5zM838 1823h18q0 -113 -71 -180.5t-189 -67.5
q-116 0 -186 68t-70 180h18q0 -45 65 -85t169 -40q108 0 177 40.5t69 84.5zM795 188l-76 250h-508l-78 -250q-16 -59 10 -116l23 -52v-20h-172v20l55 64q43 39 60 104l409 1307h152l395 -1307q17 -64 59 -106l56 -62v-20h-418v20l24 52q24 60 9 116zM219 459h494l-244 805z
" />
    <glyph glyph-name="uni1EB5" unicode="&#x1eb5;" horiz-adv-x="1081" 
d="M307 1495h-22q3 84 38.5 134t94.5 50q37 0 81.5 -20t78.5 -43.5t74 -43.5t69 -20q24 0 38.5 20.5t14.5 51.5h23q-1 -90 -33 -137t-88 -47q-39 0 -85 20t-80.5 43.5t-76 43.5t-72.5 20q-25 0 -39 -19t-16 -53zM786 1413h19q0 -113 -71 -180.5t-189 -67.5q-116 0 -186 68
t-70 180h18q0 -45 65 -85t169 -40q108 0 176.5 40.5t68.5 84.5zM971 641v-451q0 -62 30 -114l33 -56v-20h-151q-75 0 -122.5 46.5t-47.5 121.5v12q-33 -96 -109.5 -149.5t-187.5 -53.5q-154 0 -258.5 98t-104.5 251q0 152 102.5 254t256.5 102q109 0 188 -57t113 -156v207
q0 193 -54 293t-155 100q-33 0 -65 -11t-46 -32q-15 -18 -16 -48t6 -57t15 -61t8 -53q0 -44 -37 -75.5t-97 -31.5q-63 0 -100 37t-37 97q0 103 109 179.5t276 76.5q89 0 166 -24t143 -74.5t104 -140.5t38 -210zM512 41q90 0 145.5 71t55.5 203v25q-2 113 -56 189.5
t-143 76.5q-92 0 -148.5 -81.5t-56.5 -211.5q0 -124 55.5 -198t147.5 -74z" />
    <glyph glyph-name="uni1EB6" unicode="&#x1eb6;" horiz-adv-x="1173" 
d="M838 1823h18q0 -113 -71 -180.5t-189 -67.5q-116 0 -186 68t-70 180h18q0 -45 65 -85t169 -40q108 0 177 40.5t69 84.5zM795 188l-76 250h-508l-78 -250q-16 -59 10 -116l23 -52v-20h-172v20l55 64q43 39 60 104l409 1307h152l395 -1307q17 -64 59 -106l56 -62v-20h-418
v20l24 52q24 60 9 116zM219 459h494l-244 805zM352 -268q0 60 36.5 97.5t96.5 37.5t96.5 -37.5t36.5 -97.5t-36.5 -96.5t-96.5 -36.5t-96.5 36.5t-36.5 96.5z" />
    <glyph glyph-name="uni1EB7" unicode="&#x1eb7;" horiz-adv-x="1081" 
d="M786 1413h19q0 -113 -71 -180.5t-189 -67.5q-116 0 -186 68t-70 180h18q0 -45 65 -85t169 -40q108 0 176.5 40.5t68.5 84.5zM971 641v-451q0 -62 30 -114l33 -56v-20h-151q-75 0 -122.5 46.5t-47.5 121.5v12q-33 -96 -109.5 -149.5t-187.5 -53.5q-154 0 -258.5 98
t-104.5 251q0 152 102.5 254t256.5 102q109 0 188 -57t113 -156v207q0 193 -54 293t-155 100q-33 0 -65 -11t-46 -32q-15 -18 -16 -48t6 -57t15 -61t8 -53q0 -44 -37 -75.5t-97 -31.5q-63 0 -100 37t-37 97q0 103 109 179.5t276 76.5q89 0 166 -24t143 -74.5t104 -140.5
t38 -210zM512 41q90 0 145.5 71t55.5 203v25q-2 113 -56 189.5t-143 76.5q-92 0 -148.5 -81.5t-56.5 -211.5q0 -124 55.5 -198t147.5 -74zM371 -268q0 60 36.5 97.5t96.5 37.5t96.5 -37.5t36.5 -97.5t-36.5 -96.5t-96.5 -36.5t-96.5 36.5t-36.5 96.5z" />
    <glyph glyph-name="uni1EB8" unicode="&#x1eb8;" horiz-adv-x="1042" 
d="M737 823h-350v-803h434q58 0 103.5 32.5t64.5 88.5l2 9h21l-43 -150h-901v20l32 56q31 53 31 114v1115q0 57 -31 114l-32 56v20h901l43 -149h-21l-2 8q-19 56 -64.5 88.5t-103.5 32.5h-434v-631h350q37 0 59.5 23.5t22.5 60.5v2h23v-193h-23v2q0 37 -22.5 60.5
t-59.5 23.5zM420 -268q0 60 36.5 97.5t96.5 37.5t96.5 -37.5t36.5 -97.5t-36.5 -96.5t-96.5 -36.5t-96.5 36.5t-36.5 96.5z" />
    <glyph glyph-name="uni1EB9" unicode="&#x1eb9;" horiz-adv-x="1093" 
d="M997 723q0 -178 -139 -282.5t-375 -104.5q-58 0 -143 10q36 -144 120.5 -223.5t207.5 -79.5q65 0 123.5 22.5t98 55t70.5 71.5t46.5 69.5t21.5 51.5h21q-53 -156 -179 -244.5t-299 -88.5q-230 0 -371 152.5t-141 402.5t141 402.5t371 152.5q189 0 307.5 -101t118.5 -266z
M334 379q88 26 160 66.5t120.5 87.5t81.5 100.5t47.5 105.5t14.5 103q0 95 -48.5 161t-131.5 66q-119 0 -191 -141.5t-72 -360.5q0 -101 19 -188zM418 -268q0 60 36.5 97.5t96.5 37.5t96.5 -37.5t36.5 -97.5t-36.5 -96.5t-96.5 -36.5t-96.5 36.5t-36.5 96.5z" />
    <glyph glyph-name="uni1EBA" unicode="&#x1eba;" horiz-adv-x="1042" 
d="M506 1817q0 51 33.5 83.5t85.5 32.5q54 0 87 -34.5t33 -94.5q0 -91 -68.5 -150t-141.5 -59l-3 15q80 22 107 90q-59 0 -96 29t-37 88zM737 823h-350v-803h434q58 0 103.5 32.5t64.5 88.5l2 9h21l-43 -150h-901v20l32 56q31 53 31 114v1115q0 57 -31 114l-32 56v20h901
l43 -149h-21l-2 8q-19 56 -64.5 88.5t-103.5 32.5h-434v-631h350q37 0 59.5 23.5t22.5 60.5v2h23v-193h-23v2q0 37 -22.5 60.5t-59.5 23.5z" />
    <glyph glyph-name="uni1EBB" unicode="&#x1ebb;" horiz-adv-x="1093" 
d="M516 1386q0 51 33.5 84t85.5 33q55 0 88 -35t33 -94q0 -91 -69 -150t-142 -59l-2 15q79 22 106 90q-59 0 -96 29t-37 87zM997 723q0 -178 -139 -282.5t-375 -104.5q-58 0 -143 10q36 -144 120.5 -223.5t207.5 -79.5q65 0 123.5 22.5t98 55t70.5 71.5t46.5 69.5t21.5 51.5
h21q-53 -156 -179 -244.5t-299 -88.5q-230 0 -371 152.5t-141 402.5t141 402.5t371 152.5q189 0 307.5 -101t118.5 -266zM334 379q88 26 160 66.5t120.5 87.5t81.5 100.5t47.5 105.5t14.5 103q0 95 -48.5 161t-131.5 66q-119 0 -191 -141.5t-72 -360.5q0 -101 19 -188z" />
    <glyph glyph-name="uni1EBC" unicode="&#x1ebc;" horiz-adv-x="1042" 
d="M322 1651h-23q3 84 38.5 134t94.5 50q37 0 81.5 -20t78.5 -43.5t74 -43.5t69 -20q24 0 38.5 20.5t14.5 51.5h23q-1 -90 -33 -137.5t-88 -47.5q-39 0 -85 20t-80.5 43.5t-75.5 43.5t-72 20q-25 0 -39 -18.5t-16 -52.5zM737 823h-350v-803h434q58 0 103.5 32.5t64.5 88.5
l2 9h21l-43 -150h-901v20l32 56q31 53 31 114v1115q0 57 -31 114l-32 56v20h901l43 -149h-21l-2 8q-19 56 -64.5 88.5t-103.5 32.5h-434v-631h350q37 0 59.5 23.5t22.5 60.5v2h23v-193h-23v2q0 37 -22.5 60.5t-59.5 23.5z" />
    <glyph glyph-name="uni1EBD" unicode="&#x1ebd;" horiz-adv-x="1093" 
d="M319 1221h-22q3 84 38.5 134t94.5 50q37 0 81.5 -20t78.5 -43.5t74 -43.5t69 -20q24 0 38.5 20.5t14.5 51.5h23q-1 -90 -33 -137.5t-88 -47.5q-39 0 -85 20t-80.5 43.5t-75.5 43.5t-72 20q-25 0 -40 -18.5t-16 -52.5zM997 723q0 -178 -139 -282.5t-375 -104.5
q-58 0 -143 10q36 -144 120.5 -223.5t207.5 -79.5q65 0 123.5 22.5t98 55t70.5 71.5t46.5 69.5t21.5 51.5h21q-53 -156 -179 -244.5t-299 -88.5q-230 0 -371 152.5t-141 402.5t141 402.5t371 152.5q189 0 307.5 -101t118.5 -266zM334 379q88 26 160 66.5t120.5 87.5
t81.5 100.5t47.5 105.5t14.5 103q0 95 -48.5 161t-131.5 66q-119 0 -191 -141.5t-72 -360.5q0 -101 19 -188z" />
    <glyph glyph-name="uni1EBE" unicode="&#x1ebe;" horiz-adv-x="1042" 
d="M1055 2028l-297 -187h-29l172 289zM567 1880l267 -194l-101 -111l-180 287l-176 -287l-98 111l264 194h24zM737 823h-350v-803h434q58 0 103.5 32.5t64.5 88.5l2 9h21l-43 -150h-901v20l32 56q31 53 31 114v1115q0 57 -31 114l-32 56v20h901l43 -149h-21l-2 8
q-19 56 -64.5 88.5t-103.5 32.5h-434v-631h350q37 0 59.5 23.5t22.5 60.5v2h23v-193h-23v2q0 37 -22.5 60.5t-59.5 23.5z" />
    <glyph glyph-name="uni1EBF" unicode="&#x1ebf;" horiz-adv-x="1093" 
d="M1053 1597l-297 -186h-29l172 289zM565 1450l266 -195l-100 -110l-180 287l-176 -287l-99 110l265 195h24zM997 723q0 -178 -139 -282.5t-375 -104.5q-58 0 -143 10q36 -144 120.5 -223.5t207.5 -79.5q65 0 123.5 22.5t98 55t70.5 71.5t46.5 69.5t21.5 51.5h21
q-53 -156 -179 -244.5t-299 -88.5q-230 0 -371 152.5t-141 402.5t141 402.5t371 152.5q189 0 307.5 -101t118.5 -266zM334 379q88 26 160 66.5t120.5 87.5t81.5 100.5t47.5 105.5t14.5 103q0 95 -48.5 161t-131.5 66q-119 0 -191 -141.5t-72 -360.5q0 -101 19 -188z" />
    <glyph glyph-name="uni1EC0" unicode="&#x1ec0;" horiz-adv-x="1042" 
d="M821 1841l-297 187l154 102l172 -289h-29zM567 1880l267 -194l-101 -111l-180 287l-176 -287l-98 111l264 194h24zM737 823h-350v-803h434q58 0 103.5 32.5t64.5 88.5l2 9h21l-43 -150h-901v20l32 56q31 53 31 114v1115q0 57 -31 114l-32 56v20h901l43 -149h-21l-2 8
q-19 56 -64.5 88.5t-103.5 32.5h-434v-631h350q37 0 59.5 23.5t22.5 60.5v2h23v-193h-23v2q0 37 -22.5 60.5t-59.5 23.5z" />
    <glyph glyph-name="uni1EC1" unicode="&#x1ec1;" horiz-adv-x="1093" 
d="M819 1411l-297 186l154 103l172 -289h-29zM565 1450l266 -195l-100 -110l-180 287l-176 -287l-99 110l265 195h24zM997 723q0 -178 -139 -282.5t-375 -104.5q-58 0 -143 10q36 -144 120.5 -223.5t207.5 -79.5q65 0 123.5 22.5t98 55t70.5 71.5t46.5 69.5t21.5 51.5h21
q-53 -156 -179 -244.5t-299 -88.5q-230 0 -371 152.5t-141 402.5t141 402.5t371 152.5q189 0 307.5 -101t118.5 -266zM334 379q88 26 160 66.5t120.5 87.5t81.5 100.5t47.5 105.5t14.5 103q0 95 -48.5 161t-131.5 66q-119 0 -191 -141.5t-72 -360.5q0 -101 19 -188z" />
    <glyph glyph-name="uni1EC2" unicode="&#x1ec2;" horiz-adv-x="1042" 
d="M707 2042q0 51 33 84t85 33q55 0 88 -35t33 -94q0 -91 -69 -150t-142 -59l-2 14q80 22 107 90q-59 0 -96 29t-37 88zM567 1880l267 -194l-101 -111l-180 287l-176 -287l-98 111l264 194h24zM737 823h-350v-803h434q58 0 103.5 32.5t64.5 88.5l2 9h21l-43 -150h-901v20
l32 56q31 53 31 114v1115q0 57 -31 114l-32 56v20h901l43 -149h-21l-2 8q-19 56 -64.5 88.5t-103.5 32.5h-434v-631h350q37 0 59.5 23.5t22.5 60.5v2h23v-193h-23v2q0 37 -22.5 60.5t-59.5 23.5z" />
    <glyph glyph-name="uni1EC3" unicode="&#x1ec3;" horiz-adv-x="1093" 
d="M705 1612q0 51 33 84t85 33q54 0 87.5 -35t33.5 -95q0 -91 -69 -149.5t-142 -58.5l-2 14q80 22 107 90q-59 0 -96 29t-37 88zM565 1450l266 -195l-100 -110l-180 287l-176 -287l-99 110l265 195h24zM997 723q0 -178 -139 -282.5t-375 -104.5q-58 0 -143 10
q36 -144 120.5 -223.5t207.5 -79.5q65 0 123.5 22.5t98 55t70.5 71.5t46.5 69.5t21.5 51.5h21q-53 -156 -179 -244.5t-299 -88.5q-230 0 -371 152.5t-141 402.5t141 402.5t371 152.5q189 0 307.5 -101t118.5 -266zM334 379q88 26 160 66.5t120.5 87.5t81.5 100.5t47.5 105.5
t14.5 103q0 95 -48.5 161t-131.5 66q-119 0 -191 -141.5t-72 -360.5q0 -101 19 -188z" />
    <glyph glyph-name="uni1EC4" unicode="&#x1ec4;" horiz-adv-x="1042" 
d="M342 1972h-23q3 84 39 134.5t95 50.5q37 0 81.5 -20t78.5 -43.5t74 -43.5t69 -20q24 0 38.5 20t14.5 51h22q-1 -90 -32.5 -137t-87.5 -47q-39 0 -85 20t-80.5 43.5t-76 43.5t-72.5 20q-25 0 -39 -19t-16 -53zM567 1880l267 -194l-101 -111l-180 287l-176 -287l-98 111
l264 194h24zM737 823h-350v-803h434q58 0 103.5 32.5t64.5 88.5l2 9h21l-43 -150h-901v20l32 56q31 53 31 114v1115q0 57 -31 114l-32 56v20h901l43 -149h-21l-2 8q-19 56 -64.5 88.5t-103.5 32.5h-434v-631h350q37 0 59.5 23.5t22.5 60.5v2h23v-193h-23v2q0 37 -22.5 60.5
t-59.5 23.5z" />
    <glyph glyph-name="uni1EC5" unicode="&#x1ec5;" horiz-adv-x="1093" 
d="M340 1542h-23q3 84 39 134t95 50q37 0 81.5 -20t78.5 -43.5t74 -43.5t69 -20q24 0 38.5 20.5t14.5 51.5h22q-1 -90 -32.5 -137t-87.5 -47q-39 0 -85 20t-80.5 43.5t-76 43.5t-72.5 20q-25 0 -39 -19t-16 -53zM565 1450l266 -195l-100 -110l-180 287l-176 -287l-99 110
l265 195h24zM997 723q0 -178 -139 -282.5t-375 -104.5q-58 0 -143 10q36 -144 120.5 -223.5t207.5 -79.5q65 0 123.5 22.5t98 55t70.5 71.5t46.5 69.5t21.5 51.5h21q-53 -156 -179 -244.5t-299 -88.5q-230 0 -371 152.5t-141 402.5t141 402.5t371 152.5q189 0 307.5 -101
t118.5 -266zM334 379q88 26 160 66.5t120.5 87.5t81.5 100.5t47.5 105.5t14.5 103q0 95 -48.5 161t-131.5 66q-119 0 -191 -141.5t-72 -360.5q0 -101 19 -188z" />
    <glyph glyph-name="uni1EC6" unicode="&#x1ec6;" horiz-adv-x="1042" 
d="M567 1880l267 -194l-101 -111l-180 287l-176 -287l-98 111l264 194h24zM737 823h-350v-803h434q58 0 103.5 32.5t64.5 88.5l2 9h21l-43 -150h-901v20l32 56q31 53 31 114v1115q0 57 -31 114l-32 56v20h901l43 -149h-21l-2 8q-19 56 -64.5 88.5t-103.5 32.5h-434v-631h350
q37 0 59.5 23.5t22.5 60.5v2h23v-193h-23v2q0 37 -22.5 60.5t-59.5 23.5zM420 -268q0 60 36.5 97.5t96.5 37.5t96.5 -37.5t36.5 -97.5t-36.5 -96.5t-96.5 -36.5t-96.5 36.5t-36.5 96.5z" />
    <glyph glyph-name="uni1EC7" unicode="&#x1ec7;" horiz-adv-x="1093" 
d="M565 1450l266 -195l-100 -110l-180 287l-176 -287l-99 110l265 195h24zM997 723q0 -178 -139 -282.5t-375 -104.5q-58 0 -143 10q36 -144 120.5 -223.5t207.5 -79.5q65 0 123.5 22.5t98 55t70.5 71.5t46.5 69.5t21.5 51.5h21q-53 -156 -179 -244.5t-299 -88.5
q-230 0 -371 152.5t-141 402.5t141 402.5t371 152.5q189 0 307.5 -101t118.5 -266zM334 379q88 26 160 66.5t120.5 87.5t81.5 100.5t47.5 105.5t14.5 103q0 95 -48.5 161t-131.5 66q-119 0 -191 -141.5t-72 -360.5q0 -101 19 -188zM418 -268q0 60 36.5 97.5t96.5 37.5
t96.5 -37.5t36.5 -97.5t-36.5 -96.5t-96.5 -36.5t-96.5 36.5t-36.5 96.5z" />
    <glyph glyph-name="uni1EC8" unicode="&#x1ec8;" horiz-adv-x="520" 
d="M176 1817q0 51 33.5 83.5t85.5 32.5q55 0 88 -35t33 -94q0 -91 -69 -150t-142 -59l-2 15q79 22 106 90q-59 0 -96 29t-37 88zM420 76l33 -56v-20h-385v20l32 56q31 53 31 114v1115q0 57 -31 114l-32 56v20h385v-20l-33 -56q-33 -61 -33 -114v-1115q0 -57 33 -114z" />
    <glyph glyph-name="uni1EC9" unicode="&#x1ec9;" horiz-adv-x="503" 
d="M199 1386q0 51 33 84t85 33q55 0 88 -35t33 -94q0 -91 -69 -150t-142 -59l-2 15q80 22 107 90q-59 0 -96 29t-37 87zM414 76l32 -56v-20h-385v20l33 56q31 53 31 114v623q0 58 -31 115l-33 55v21l299 65h21v-879q0 -57 33 -114z" />
    <glyph glyph-name="uni1ECA" unicode="&#x1eca;" horiz-adv-x="520" 
d="M420 76l33 -56v-20h-385v20l32 56q31 53 31 114v1115q0 57 -31 114l-32 56v20h385v-20l-33 -56q-33 -61 -33 -114v-1115q0 -57 33 -114zM127 -268q0 60 36.5 97.5t96.5 37.5t96.5 -37.5t36.5 -97.5t-36.5 -96.5t-96.5 -36.5t-96.5 36.5t-36.5 96.5z" />
    <glyph glyph-name="uni1ECB" unicode="&#x1ecb;" horiz-adv-x="503" 
d="M121 1309q0 60 36.5 97.5t96.5 37.5t96.5 -37.5t36.5 -97.5t-36.5 -96.5t-96.5 -36.5t-96.5 36.5t-36.5 96.5zM414 76l32 -56v-20h-385v20l33 56q31 53 31 114v623q0 58 -31 115l-33 55v21l299 65h21v-879q0 -57 33 -114zM121 -268q0 60 36.5 97.5t96.5 37.5t96.5 -37.5
t36.5 -97.5t-36.5 -96.5t-96.5 -36.5t-96.5 36.5t-36.5 96.5z" />
    <glyph glyph-name="uni1ECC" unicode="&#x1ecc;" horiz-adv-x="1501" 
d="M55 748q0 171 51 314.5t142.5 243.5t221 156t282.5 56q310 0 501 -212t191 -556q0 -170 -50 -313t-140 -243.5t-219.5 -157t-282.5 -56.5q-154 0 -283.5 56t-220.5 155.5t-142 243t-51 313.5zM311 735q0 -334 118.5 -534.5t315.5 -200.5q200 0 321.5 204t121.5 546
q0 339 -119 542t-315 203q-131 0 -232 -95.5t-156 -268t-55 -396.5zM616 -268q0 60 37 97.5t97 37.5t96.5 -37.5t36.5 -97.5t-36.5 -96.5t-96.5 -36.5t-97 36.5t-37 96.5z" />
    <glyph glyph-name="uni1ECD" unicode="&#x1ecd;" 
d="M59 535q0 250 141 402.5t371 152.5t371 -152.5t141 -402.5t-141 -402.5t-371 -152.5t-371 152.5t-141 402.5zM315 524q0 -246 70 -385t188 -139q121 0 187.5 139.5t66.5 386.5q0 248 -67 395.5t-187 147.5q-118 0 -188 -148.5t-70 -396.5zM438 -268q0 60 36.5 97.5
t96.5 37.5t97 -37.5t37 -97.5t-37 -96.5t-97 -36.5t-96.5 36.5t-36.5 96.5z" />
    <glyph glyph-name="uni1ECE" unicode="&#x1ece;" horiz-adv-x="1501" 
d="M727 1817q0 51 33.5 83.5t85.5 32.5q55 0 88 -35t33 -94q0 -91 -69 -150t-142 -59l-2 15q79 22 106 90q-59 0 -96 29t-37 88zM55 748q0 171 51 314.5t142.5 243.5t221 156t282.5 56q310 0 501 -212t191 -556q0 -170 -50 -313t-140 -243.5t-219.5 -157t-282.5 -56.5
q-154 0 -283.5 56t-220.5 155.5t-142 243t-51 313.5zM311 735q0 -334 118.5 -534.5t315.5 -200.5q200 0 321.5 204t121.5 546q0 339 -119 542t-315 203q-131 0 -232 -95.5t-156 -268t-55 -396.5z" />
    <glyph glyph-name="uni1ECF" unicode="&#x1ecf;" 
d="M541 1386q0 51 33 84t85 33q55 0 88 -35t33 -94q0 -91 -69 -150t-142 -59l-2 15q80 22 107 90q-59 0 -96 29t-37 87zM59 535q0 250 141 402.5t371 152.5t371 -152.5t141 -402.5t-141 -402.5t-371 -152.5t-371 152.5t-141 402.5zM315 524q0 -246 70 -385t188 -139
q121 0 187.5 139.5t66.5 386.5q0 248 -67 395.5t-187 147.5q-118 0 -188 -148.5t-70 -396.5z" />
    <glyph glyph-name="uni1ED0" unicode="&#x1ed0;" horiz-adv-x="1501" 
d="M1251 2028l-297 -187h-28l172 289zM764 1880l266 -194l-100 -111l-180 287l-177 -287l-98 111l264 194h25zM55 748q0 171 51 314.5t142.5 243.5t221 156t282.5 56q310 0 501 -212t191 -556q0 -170 -50 -313t-140 -243.5t-219.5 -157t-282.5 -56.5q-154 0 -283.5 56
t-220.5 155.5t-142 243t-51 313.5zM311 735q0 -334 118.5 -534.5t315.5 -200.5q200 0 321.5 204t121.5 546q0 339 -119 542t-315 203q-131 0 -232 -95.5t-156 -268t-55 -396.5z" />
    <glyph glyph-name="uni1ED1" unicode="&#x1ed1;" 
d="M1073 1597l-297 -186h-28l172 289zM586 1450l266 -195l-100 -110l-181 287l-176 -287l-98 110l264 195h25zM59 535q0 250 141 402.5t371 152.5t371 -152.5t141 -402.5t-141 -402.5t-371 -152.5t-371 152.5t-141 402.5zM315 524q0 -246 70 -385t188 -139
q121 0 187.5 139.5t66.5 386.5q0 248 -67 395.5t-187 147.5q-118 0 -188 -148.5t-70 -396.5z" />
    <glyph glyph-name="uni1ED2" unicode="&#x1ed2;" horiz-adv-x="1501" 
d="M1018 1841l-297 187l153 102l173 -289h-29zM764 1880l266 -194l-100 -111l-180 287l-177 -287l-98 111l264 194h25zM55 748q0 171 51 314.5t142.5 243.5t221 156t282.5 56q310 0 501 -212t191 -556q0 -170 -50 -313t-140 -243.5t-219.5 -157t-282.5 -56.5
q-154 0 -283.5 56t-220.5 155.5t-142 243t-51 313.5zM311 735q0 -334 118.5 -534.5t315.5 -200.5q200 0 321.5 204t121.5 546q0 339 -119 542t-315 203q-131 0 -232 -95.5t-156 -268t-55 -396.5z" />
    <glyph glyph-name="uni1ED3" unicode="&#x1ed3;" 
d="M840 1411l-297 186l153 103l172 -289h-28zM586 1450l266 -195l-100 -110l-181 287l-176 -287l-98 110l264 195h25zM59 535q0 250 141 402.5t371 152.5t371 -152.5t141 -402.5t-141 -402.5t-371 -152.5t-371 152.5t-141 402.5zM315 524q0 -246 70 -385t188 -139
q121 0 187.5 139.5t66.5 386.5q0 248 -67 395.5t-187 147.5q-118 0 -188 -148.5t-70 -396.5z" />
    <glyph glyph-name="uni1ED4" unicode="&#x1ed4;" horiz-adv-x="1501" 
d="M903 2042q0 51 33.5 84t85.5 33q55 0 88 -35t33 -94q0 -91 -69 -150t-142 -59l-2 14q79 22 106 90q-59 0 -96 29t-37 88zM764 1880l266 -194l-100 -111l-180 287l-177 -287l-98 111l264 194h25zM55 748q0 171 51 314.5t142.5 243.5t221 156t282.5 56q310 0 501 -212
t191 -556q0 -170 -50 -313t-140 -243.5t-219.5 -157t-282.5 -56.5q-154 0 -283.5 56t-220.5 155.5t-142 243t-51 313.5zM311 735q0 -334 118.5 -534.5t315.5 -200.5q200 0 321.5 204t121.5 546q0 339 -119 542t-315 203q-131 0 -232 -95.5t-156 -268t-55 -396.5z" />
    <glyph glyph-name="uni1ED5" unicode="&#x1ed5;" 
d="M725 1612q0 51 33.5 84t85.5 33q54 0 87.5 -35t33.5 -95q0 -91 -69 -149.5t-142 -58.5l-2 14q79 22 106 90q-59 0 -96 29t-37 88zM586 1450l266 -195l-100 -110l-181 287l-176 -287l-98 110l264 195h25zM59 535q0 250 141 402.5t371 152.5t371 -152.5t141 -402.5
t-141 -402.5t-371 -152.5t-371 152.5t-141 402.5zM315 524q0 -246 70 -385t188 -139q121 0 187.5 139.5t66.5 386.5q0 248 -67 395.5t-187 147.5q-118 0 -188 -148.5t-70 -396.5z" />
    <glyph glyph-name="uni1ED6" unicode="&#x1ed6;" horiz-adv-x="1501" 
d="M539 1972h-23q3 84 38.5 134.5t94.5 50.5q37 0 81.5 -20t78.5 -43.5t74 -43.5t69 -20q24 0 39 20t15 51h22q-1 -90 -33 -137t-88 -47q-39 0 -85 20t-80.5 43.5t-75.5 43.5t-72 20q-25 0 -39 -19t-16 -53zM764 1880l266 -194l-100 -111l-180 287l-177 -287l-98 111
l264 194h25zM55 748q0 171 51 314.5t142.5 243.5t221 156t282.5 56q310 0 501 -212t191 -556q0 -170 -50 -313t-140 -243.5t-219.5 -157t-282.5 -56.5q-154 0 -283.5 56t-220.5 155.5t-142 243t-51 313.5zM311 735q0 -334 118.5 -534.5t315.5 -200.5q200 0 321.5 204
t121.5 546q0 339 -119 542t-315 203q-131 0 -232 -95.5t-156 -268t-55 -396.5z" />
    <glyph glyph-name="uni1ED7" unicode="&#x1ed7;" 
d="M360 1542h-22q3 84 38.5 134t94.5 50q37 0 81.5 -20t78.5 -43.5t74 -43.5t69 -20q24 0 38.5 20.5t14.5 51.5h23q-1 -90 -33 -137t-88 -47q-39 0 -85 20t-80.5 43.5t-75.5 43.5t-72 20q-25 0 -40 -19t-16 -53zM586 1450l266 -195l-100 -110l-181 287l-176 -287l-98 110
l264 195h25zM59 535q0 250 141 402.5t371 152.5t371 -152.5t141 -402.5t-141 -402.5t-371 -152.5t-371 152.5t-141 402.5zM315 524q0 -246 70 -385t188 -139q121 0 187.5 139.5t66.5 386.5q0 248 -67 395.5t-187 147.5q-118 0 -188 -148.5t-70 -396.5z" />
    <glyph glyph-name="uni1ED8" unicode="&#x1ed8;" horiz-adv-x="1501" 
d="M764 1880l266 -194l-100 -111l-180 287l-177 -287l-98 111l264 194h25zM55 748q0 171 51 314.5t142.5 243.5t221 156t282.5 56q310 0 501 -212t191 -556q0 -170 -50 -313t-140 -243.5t-219.5 -157t-282.5 -56.5q-154 0 -283.5 56t-220.5 155.5t-142 243t-51 313.5z
M311 735q0 -334 118.5 -534.5t315.5 -200.5q200 0 321.5 204t121.5 546q0 339 -119 542t-315 203q-131 0 -232 -95.5t-156 -268t-55 -396.5zM616 -268q0 60 37 97.5t97 37.5t96.5 -37.5t36.5 -97.5t-36.5 -96.5t-96.5 -36.5t-97 36.5t-37 96.5z" />
    <glyph glyph-name="uni1ED9" unicode="&#x1ed9;" 
d="M586 1450l266 -195l-100 -110l-181 287l-176 -287l-98 110l264 195h25zM59 535q0 250 141 402.5t371 152.5t371 -152.5t141 -402.5t-141 -402.5t-371 -152.5t-371 152.5t-141 402.5zM315 524q0 -246 70 -385t188 -139q121 0 187.5 139.5t66.5 386.5q0 248 -67 395.5
t-187 147.5q-118 0 -188 -148.5t-70 -396.5zM438 -268q0 60 36.5 97.5t96.5 37.5t97 -37.5t37 -97.5t-37 -96.5t-97 -36.5t-96.5 36.5t-36.5 96.5z" />
    <glyph glyph-name="uni1EDA" unicode="&#x1eda;" horiz-adv-x="1501" 
d="M1018 1782l-297 -187h-29l172 289zM55 748q0 171 51 314.5t142.5 243.5t221 156t282.5 56q242 0 419 -138q58 32 86 97q8 24 -3 43.5t-29 32t-34.5 34.5t-16.5 49q0 40 27 66.5t69 26.5q46 0 75 -30t29 -75q0 -28 -6 -57t-23 -67.5t-57 -74t-98 -59.5q122 -103 188 -261
t66 -355q0 -170 -50 -313t-140 -243.5t-219.5 -157t-282.5 -56.5q-154 0 -283.5 56t-220.5 155.5t-142 243t-51 313.5zM311 735q0 -334 118.5 -534.5t315.5 -200.5q200 0 321.5 204t121.5 546q0 339 -119 542t-315 203q-131 0 -232 -95.5t-156 -268t-55 -396.5z" />
    <glyph glyph-name="uni1EDB" unicode="&#x1edb;" 
d="M844 1352l-297 -187h-29l172 289zM59 535q0 250 141 402.5t371 152.5q213 0 357 -138q40 30 61 82q8 24 -3 44t-29.5 32t-35 34.5t-16.5 49.5q0 40 27 66t69 26q47 0 76 -29.5t29 -74.5q0 -26 -5.5 -53t-20.5 -63.5t-49.5 -71.5t-84.5 -60q137 -153 137 -399
q0 -250 -141 -402.5t-371 -152.5t-371 152.5t-141 402.5zM315 524q0 -246 70 -385t188 -139q121 0 187.5 139.5t66.5 386.5q0 248 -67 395.5t-187 147.5q-118 0 -188 -148.5t-70 -396.5z" />
    <glyph glyph-name="uni1EDC" unicode="&#x1edc;" horiz-adv-x="1501" 
d="M817 1595l-297 187l154 102l172 -289h-29zM55 748q0 171 51 314.5t142.5 243.5t221 156t282.5 56q242 0 419 -138q58 32 86 97q8 24 -3 43.5t-29 32t-34.5 34.5t-16.5 49q0 40 27 66.5t69 26.5q46 0 75 -30t29 -75q0 -28 -6 -57t-23 -67.5t-57 -74t-98 -59.5
q122 -103 188 -261t66 -355q0 -170 -50 -313t-140 -243.5t-219.5 -157t-282.5 -56.5q-154 0 -283.5 56t-220.5 155.5t-142 243t-51 313.5zM311 735q0 -334 118.5 -534.5t315.5 -200.5q200 0 321.5 204t121.5 546q0 339 -119 542t-315 203q-131 0 -232 -95.5t-156 -268
t-55 -396.5z" />
    <glyph glyph-name="uni1EDD" unicode="&#x1edd;" 
d="M627 1165l-297 187l153 102l172 -289h-28zM59 535q0 250 141 402.5t371 152.5q213 0 357 -138q40 30 61 82q8 24 -3 44t-29.5 32t-35 34.5t-16.5 49.5q0 40 27 66t69 26q47 0 76 -29.5t29 -74.5q0 -26 -5.5 -53t-20.5 -63.5t-49.5 -71.5t-84.5 -60q137 -153 137 -399
q0 -250 -141 -402.5t-371 -152.5t-371 152.5t-141 402.5zM315 524q0 -246 70 -385t188 -139q121 0 187.5 139.5t66.5 386.5q0 248 -67 395.5t-187 147.5q-118 0 -188 -148.5t-70 -396.5z" />
    <glyph glyph-name="uni1EDE" unicode="&#x1ede;" horiz-adv-x="1501" 
d="M727 1817q0 51 33.5 83.5t85.5 32.5q55 0 88 -35t33 -94q0 -91 -69 -150t-142 -59l-2 15q79 22 106 90q-59 0 -96 29t-37 88zM55 748q0 171 51 314.5t142.5 243.5t221 156t282.5 56q242 0 419 -138q58 32 86 97q8 24 -3 43.5t-29 32t-34.5 34.5t-16.5 49q0 40 27 66.5
t69 26.5q46 0 75 -30t29 -75q0 -28 -6 -57t-23 -67.5t-57 -74t-98 -59.5q122 -103 188 -261t66 -355q0 -170 -50 -313t-140 -243.5t-219.5 -157t-282.5 -56.5q-154 0 -283.5 56t-220.5 155.5t-142 243t-51 313.5zM311 735q0 -334 118.5 -534.5t315.5 -200.5q200 0 321.5 204
t121.5 546q0 339 -119 542t-315 203q-131 0 -232 -95.5t-156 -268t-55 -396.5z" />
    <glyph glyph-name="uni1EDF" unicode="&#x1edf;" 
d="M541 1386q0 51 33 84t85 33q55 0 88 -35t33 -94q0 -91 -69 -150t-142 -59l-2 15q80 22 107 90q-59 0 -96 29t-37 87zM59 535q0 250 141 402.5t371 152.5q213 0 357 -138q40 30 61 82q8 24 -3 44t-29.5 32t-35 34.5t-16.5 49.5q0 40 27 66t69 26q47 0 76 -29.5t29 -74.5
q0 -26 -5.5 -53t-20.5 -63.5t-49.5 -71.5t-84.5 -60q137 -153 137 -399q0 -250 -141 -402.5t-371 -152.5t-371 152.5t-141 402.5zM315 524q0 -246 70 -385t188 -139q121 0 187.5 139.5t66.5 386.5q0 248 -67 395.5t-187 147.5q-118 0 -188 -148.5t-70 -396.5z" />
    <glyph glyph-name="uni1EE0" unicode="&#x1ee0;" horiz-adv-x="1501" 
d="M516 1651h-22q3 84 38.5 134t94.5 50q37 0 81.5 -20t78.5 -43.5t74 -43.5t69 -20q24 0 38.5 20.5t14.5 51.5h23q-1 -90 -33 -137.5t-88 -47.5q-39 0 -85 20t-80.5 43.5t-76 43.5t-72.5 20q-25 0 -39 -18.5t-16 -52.5zM55 748q0 171 51 314.5t142.5 243.5t221 156
t282.5 56q242 0 419 -138q58 32 86 97q8 24 -3 43.5t-29 32t-34.5 34.5t-16.5 49q0 40 27 66.5t69 26.5q46 0 75 -30t29 -75q0 -28 -6 -57t-23 -67.5t-57 -74t-98 -59.5q122 -103 188 -261t66 -355q0 -170 -50 -313t-140 -243.5t-219.5 -157t-282.5 -56.5q-154 0 -283.5 56
t-220.5 155.5t-142 243t-51 313.5zM311 735q0 -334 118.5 -534.5t315.5 -200.5q200 0 321.5 204t121.5 546q0 339 -119 542t-315 203q-131 0 -232 -95.5t-156 -268t-55 -396.5z" />
    <glyph glyph-name="uni1EE1" unicode="&#x1ee1;" 
d="M338 1221h-23q3 84 39 134t95 50q37 0 81.5 -20t78.5 -43.5t74 -43.5t69 -20q24 0 38.5 20.5t14.5 51.5h22q-1 -90 -32.5 -137.5t-87.5 -47.5q-39 0 -85 20t-80.5 43.5t-76 43.5t-72.5 20q-25 0 -39 -18.5t-16 -52.5zM59 535q0 250 141 402.5t371 152.5q213 0 357 -138
q40 30 61 82q8 24 -3 44t-29.5 32t-35 34.5t-16.5 49.5q0 40 27 66t69 26q47 0 76 -29.5t29 -74.5q0 -26 -5.5 -53t-20.5 -63.5t-49.5 -71.5t-84.5 -60q137 -153 137 -399q0 -250 -141 -402.5t-371 -152.5t-371 152.5t-141 402.5zM315 524q0 -246 70 -385t188 -139
q121 0 187.5 139.5t66.5 386.5q0 248 -67 395.5t-187 147.5q-118 0 -188 -148.5t-70 -396.5z" />
    <glyph glyph-name="uni1EE2" unicode="&#x1ee2;" horiz-adv-x="1501" 
d="M55 748q0 171 51 314.5t142.5 243.5t221 156t282.5 56q242 0 419 -138q58 32 86 97q8 24 -3 43.5t-29 32t-34.5 34.5t-16.5 49q0 40 27 66.5t69 26.5q46 0 75 -30t29 -75q0 -28 -6 -57t-23 -67.5t-57 -74t-98 -59.5q122 -103 188 -261t66 -355q0 -170 -50 -313
t-140 -243.5t-219.5 -157t-282.5 -56.5q-154 0 -283.5 56t-220.5 155.5t-142 243t-51 313.5zM311 735q0 -334 118.5 -534.5t315.5 -200.5q200 0 321.5 204t121.5 546q0 339 -119 542t-315 203q-131 0 -232 -95.5t-156 -268t-55 -396.5zM616 -268q0 60 37 97.5t97 37.5
t96.5 -37.5t36.5 -97.5t-36.5 -96.5t-96.5 -36.5t-97 36.5t-37 96.5z" />
    <glyph glyph-name="uni1EE3" unicode="&#x1ee3;" 
d="M59 535q0 250 141 402.5t371 152.5q213 0 357 -138q40 30 61 82q8 24 -3 44t-29.5 32t-35 34.5t-16.5 49.5q0 40 27 66t69 26q47 0 76 -29.5t29 -74.5q0 -26 -5.5 -53t-20.5 -63.5t-49.5 -71.5t-84.5 -60q137 -153 137 -399q0 -250 -141 -402.5t-371 -152.5t-371 152.5
t-141 402.5zM315 524q0 -246 70 -385t188 -139q121 0 187.5 139.5t66.5 386.5q0 248 -67 395.5t-187 147.5q-118 0 -188 -148.5t-70 -396.5zM438 -268q0 60 36.5 97.5t96.5 37.5t97 -37.5t37 -97.5t-37 -96.5t-97 -36.5t-96.5 36.5t-36.5 96.5z" />
    <glyph glyph-name="uni1EE4" unicode="&#x1ee4;" horiz-adv-x="1226" 
d="M623 -20q-225 0 -364.5 133t-139.5 352v840q0 57 -31 114l-33 56v20h385v-20l-32 -56q-33 -61 -33 -114v-840q0 -106 43.5 -201.5t128 -158t190.5 -62.5q68 0 129 27t110.5 80t79 140t29.5 197v818q0 61 -32 114l-33 56v20h151v-20l-32 -56q-33 -54 -33 -114v-840
q0 -216 -129 -350.5t-354 -134.5zM479 -268q0 60 36.5 97.5t96.5 37.5t96.5 -37.5t36.5 -97.5t-36.5 -96.5t-96.5 -36.5t-96.5 36.5t-36.5 96.5z" />
    <glyph glyph-name="uni1EE5" unicode="&#x1ee5;" horiz-adv-x="1120" 
d="M117 342v471q0 60 -31 117l-33 53v21l299 65h21v-647q0 -87 8 -150.5t26.5 -114.5t53 -76.5t84.5 -25.5q82 0 137 66.5t59 173.5v518q0 64 -32 117l-31 53v21l299 65h20v-879q0 -63 33 -114l31 -56v-20h-152q-75 0 -121.5 46t-46.5 122v18q-35 -96 -120.5 -151
t-198.5 -55q-145 0 -225 94.5t-80 267.5zM424 -268q0 60 36.5 97.5t96.5 37.5t96.5 -37.5t36.5 -97.5t-36.5 -96.5t-96.5 -36.5t-96.5 36.5t-36.5 96.5z" />
    <glyph glyph-name="uni1EE6" unicode="&#x1ee6;" horiz-adv-x="1226" 
d="M608 1817q0 51 33.5 83.5t85.5 32.5q55 0 88 -35t33 -94q0 -91 -69 -150t-142 -59l-2 15q79 22 106 90q-59 0 -96 29t-37 88zM623 -20q-225 0 -364.5 133t-139.5 352v840q0 57 -31 114l-33 56v20h385v-20l-32 -56q-33 -61 -33 -114v-840q0 -106 43.5 -201.5t128 -158
t190.5 -62.5q68 0 129 27t110.5 80t79 140t29.5 197v818q0 61 -32 114l-33 56v20h151v-20l-32 -56q-33 -54 -33 -114v-840q0 -216 -129 -350.5t-354 -134.5z" />
    <glyph glyph-name="uni1EE7" unicode="&#x1ee7;" horiz-adv-x="1120" 
d="M500 1386q0 51 33 84t85 33q55 0 88 -35t33 -94q0 -91 -69 -150t-142 -59l-2 15q80 22 107 90q-59 0 -96 29t-37 87zM117 342v471q0 60 -31 117l-33 53v21l299 65h21v-647q0 -87 8 -150.5t26.5 -114.5t53 -76.5t84.5 -25.5q82 0 137 66.5t59 173.5v518q0 64 -32 117
l-31 53v21l299 65h20v-879q0 -63 33 -114l31 -56v-20h-152q-75 0 -121.5 46t-46.5 122v18q-35 -96 -120.5 -151t-198.5 -55q-145 0 -225 94.5t-80 267.5z" />
    <glyph glyph-name="uni1EE8" unicode="&#x1ee8;" horiz-adv-x="1226" 
d="M895 1782l-297 -187h-29l172 289zM623 -20q-225 0 -364.5 133t-139.5 352v840q0 57 -31 114l-33 56v20h385v-20l-32 -56q-33 -61 -33 -114v-840q0 -106 43.5 -201.5t128 -158t190.5 -62.5q68 0 129 27t110.5 80t79 140t29.5 197v818q0 61 -32 114l-33 56v20h151v-20
l-32 -56q-16 -25 -25 -53q30 12 51.5 27t34 31.5t18.5 27.5t11 25q8 24 -3 43.5t-29.5 32t-35 34.5t-16.5 49q0 40 27 66.5t69 26.5q47 0 76 -30t29 -75q0 -24 -4 -48.5t-18.5 -59.5t-38.5 -64t-69 -58t-106 -46q-4 -14 -4 -43v-840q0 -216 -129 -350.5t-354 -134.5z" />
    <glyph glyph-name="uni1EE9" unicode="&#x1ee9;" horiz-adv-x="1120" 
d="M813 1352l-297 -187h-29l172 289zM117 342v471q0 60 -31 117l-33 53v21l299 65h21v-647q0 -87 8 -150.5t26.5 -114.5t53 -76.5t84.5 -25.5q82 0 137 66.5t59 173.5v518q0 64 -32 117l-31 53v21l299 65h20v-133q28 15 48 36t26 32.5t14 29.5q8 24 -3 44t-29.5 32t-35 34.5
t-16.5 49.5q0 40 27 66t70 26q47 0 75.5 -29.5t28.5 -74.5q0 -29 -7 -59.5t-26 -71t-63 -77.5t-109 -61v-723q0 -63 33 -114l31 -56v-20h-152q-75 0 -121.5 46t-46.5 122v18q-35 -96 -120.5 -151t-198.5 -55q-145 0 -225 94.5t-80 267.5z" />
    <glyph glyph-name="uni1EEA" unicode="&#x1eea;" horiz-adv-x="1226" 
d="M727 1595l-297 187l154 102l172 -289h-29zM623 -20q-225 0 -364.5 133t-139.5 352v840q0 57 -31 114l-33 56v20h385v-20l-32 -56q-33 -61 -33 -114v-840q0 -106 43.5 -201.5t128 -158t190.5 -62.5q68 0 129 27t110.5 80t79 140t29.5 197v818q0 61 -32 114l-33 56v20h151
v-20l-32 -56q-16 -25 -25 -53q30 12 51.5 27t34 31.5t18.5 27.5t11 25q8 24 -3 43.5t-29.5 32t-35 34.5t-16.5 49q0 40 27 66.5t69 26.5q47 0 76 -30t29 -75q0 -24 -4 -48.5t-18.5 -59.5t-38.5 -64t-69 -58t-106 -46q-4 -14 -4 -43v-840q0 -216 -129 -350.5t-354 -134.5z
" />
    <glyph glyph-name="uni1EEB" unicode="&#x1eeb;" horiz-adv-x="1120" 
d="M604 1165l-297 187l154 102l172 -289h-29zM117 342v471q0 60 -31 117l-33 53v21l299 65h21v-647q0 -87 8 -150.5t26.5 -114.5t53 -76.5t84.5 -25.5q82 0 137 66.5t59 173.5v518q0 64 -32 117l-31 53v21l299 65h20v-133q28 15 48 36t26 32.5t14 29.5q8 24 -3 44t-29.5 32
t-35 34.5t-16.5 49.5q0 40 27 66t70 26q47 0 75.5 -29.5t28.5 -74.5q0 -29 -7 -59.5t-26 -71t-63 -77.5t-109 -61v-723q0 -63 33 -114l31 -56v-20h-152q-75 0 -121.5 46t-46.5 122v18q-35 -96 -120.5 -151t-198.5 -55q-145 0 -225 94.5t-80 267.5z" />
    <glyph glyph-name="uni1EEC" unicode="&#x1eec;" horiz-adv-x="1226" 
d="M608 1817q0 51 33.5 83.5t85.5 32.5q55 0 88 -35t33 -94q0 -91 -69 -150t-142 -59l-2 15q79 22 106 90q-59 0 -96 29t-37 88zM623 -20q-225 0 -364.5 133t-139.5 352v840q0 57 -31 114l-33 56v20h385v-20l-32 -56q-33 -61 -33 -114v-840q0 -106 43.5 -201.5t128 -158
t190.5 -62.5q68 0 129 27t110.5 80t79 140t29.5 197v818q0 61 -32 114l-33 56v20h151v-20l-32 -56q-16 -25 -25 -53q30 12 51.5 27t34 31.5t18.5 27.5t11 25q8 24 -3 43.5t-29.5 32t-35 34.5t-16.5 49q0 40 27 66.5t69 26.5q47 0 76 -30t29 -75q0 -24 -4 -48.5t-18.5 -59.5
t-38.5 -64t-69 -58t-106 -46q-4 -14 -4 -43v-840q0 -216 -129 -350.5t-354 -134.5z" />
    <glyph glyph-name="uni1EED" unicode="&#x1eed;" horiz-adv-x="1120" 
d="M500 1386q0 51 33 84t85 33q55 0 88 -35t33 -94q0 -91 -69 -150t-142 -59l-2 15q80 22 107 90q-59 0 -96 29t-37 87zM117 342v471q0 60 -31 117l-33 53v21l299 65h21v-647q0 -87 8 -150.5t26.5 -114.5t53 -76.5t84.5 -25.5q82 0 137 66.5t59 173.5v518q0 64 -32 117
l-31 53v21l299 65h20v-133q28 15 48 36t26 32.5t14 29.5q8 24 -3 44t-29.5 32t-35 34.5t-16.5 49.5q0 40 27 66t70 26q47 0 75.5 -29.5t28.5 -74.5q0 -29 -7 -59.5t-26 -71t-63 -77.5t-109 -61v-723q0 -63 33 -114l31 -56v-20h-152q-75 0 -121.5 46t-46.5 122v18
q-35 -96 -120.5 -151t-198.5 -55q-145 0 -225 94.5t-80 267.5z" />
    <glyph glyph-name="uni1EEE" unicode="&#x1eee;" horiz-adv-x="1226" 
d="M403 1651h-22q3 84 38.5 134t94.5 50q37 0 81.5 -20t78.5 -43.5t74 -43.5t69 -20q24 0 38.5 20.5t14.5 51.5h23q-1 -90 -33 -137.5t-88 -47.5q-39 0 -85 20t-80.5 43.5t-75.5 43.5t-72 20q-25 0 -40 -18.5t-16 -52.5zM623 -20q-225 0 -364.5 133t-139.5 352v840
q0 57 -31 114l-33 56v20h385v-20l-32 -56q-33 -61 -33 -114v-840q0 -106 43.5 -201.5t128 -158t190.5 -62.5q68 0 129 27t110.5 80t79 140t29.5 197v818q0 61 -32 114l-33 56v20h151v-20l-32 -56q-16 -25 -25 -53q30 12 51.5 27t34 31.5t18.5 27.5t11 25q8 24 -3 43.5
t-29.5 32t-35 34.5t-16.5 49q0 40 27 66.5t69 26.5q47 0 76 -30t29 -75q0 -24 -4 -48.5t-18.5 -59.5t-38.5 -64t-69 -58t-106 -46q-4 -14 -4 -43v-840q0 -216 -129 -350.5t-354 -134.5z" />
    <glyph glyph-name="uni1EEF" unicode="&#x1eef;" horiz-adv-x="1120" 
d="M326 1221h-23q3 84 38.5 134t94.5 50q37 0 81.5 -20t78.5 -43.5t74 -43.5t69 -20q24 0 39 20.5t15 51.5h22q-1 -90 -33 -137.5t-88 -47.5q-39 0 -85 20t-80.5 43.5t-75.5 43.5t-72 20q-25 0 -39 -18.5t-16 -52.5zM117 342v471q0 60 -31 117l-33 53v21l299 65h21v-647
q0 -87 8 -150.5t26.5 -114.5t53 -76.5t84.5 -25.5q82 0 137 66.5t59 173.5v518q0 64 -32 117l-31 53v21l299 65h20v-133q28 15 48 36t26 32.5t14 29.5q8 24 -3 44t-29.5 32t-35 34.5t-16.5 49.5q0 40 27 66t70 26q47 0 75.5 -29.5t28.5 -74.5q0 -29 -7 -59.5t-26 -71
t-63 -77.5t-109 -61v-723q0 -63 33 -114l31 -56v-20h-152q-75 0 -121.5 46t-46.5 122v18q-35 -96 -120.5 -151t-198.5 -55q-145 0 -225 94.5t-80 267.5z" />
    <glyph glyph-name="uni1EF0" unicode="&#x1ef0;" horiz-adv-x="1226" 
d="M623 -20q-225 0 -364.5 133t-139.5 352v840q0 57 -31 114l-33 56v20h385v-20l-32 -56q-33 -61 -33 -114v-840q0 -106 43.5 -201.5t128 -158t190.5 -62.5q68 0 129 27t110.5 80t79 140t29.5 197v818q0 61 -32 114l-33 56v20h151v-20l-32 -56q-16 -25 -25 -53
q30 12 51.5 27t34 31.5t18.5 27.5t11 25q8 24 -3 43.5t-29.5 32t-35 34.5t-16.5 49q0 40 27 66.5t69 26.5q47 0 76 -30t29 -75q0 -24 -4 -48.5t-18.5 -59.5t-38.5 -64t-69 -58t-106 -46q-4 -14 -4 -43v-840q0 -216 -129 -350.5t-354 -134.5zM479 -268q0 60 36.5 97.5
t96.5 37.5t96.5 -37.5t36.5 -97.5t-36.5 -96.5t-96.5 -36.5t-96.5 36.5t-36.5 96.5z" />
    <glyph glyph-name="uni1EF1" unicode="&#x1ef1;" horiz-adv-x="1120" 
d="M117 342v471q0 60 -31 117l-33 53v21l299 65h21v-647q0 -87 8 -150.5t26.5 -114.5t53 -76.5t84.5 -25.5q82 0 137 66.5t59 173.5v518q0 64 -32 117l-31 53v21l299 65h20v-133q28 15 48 36t26 32.5t14 29.5q8 24 -3 44t-29.5 32t-35 34.5t-16.5 49.5q0 40 27 66t70 26
q47 0 75.5 -29.5t28.5 -74.5q0 -29 -7 -59.5t-26 -71t-63 -77.5t-109 -61v-723q0 -63 33 -114l31 -56v-20h-152q-75 0 -121.5 46t-46.5 122v18q-35 -96 -120.5 -151t-198.5 -55q-145 0 -225 94.5t-80 267.5zM424 -268q0 60 36.5 97.5t96.5 37.5t96.5 -37.5t36.5 -97.5
t-36.5 -96.5t-96.5 -36.5t-96.5 36.5t-36.5 96.5z" />
    <glyph glyph-name="Ygrave" unicode="&#x1ef2;" horiz-adv-x="1085" 
d="M666 1595l-297 187l153 102l172 -289h-28zM936 1313l-270 -584v-539q0 -62 30 -114l33 -56v-20h-385v20l33 56q33 57 33 114v439l-281 680q-23 58 -72 100l-69 66v20h436v-20l-16 -48q-17 -63 8 -118l231 -566l264 570q25 59 19 117l-6 45v20h174v-20l-84 -70
q-57 -42 -78 -92z" />
    <glyph glyph-name="ygrave" unicode="&#x1ef3;" horiz-adv-x="1005" 
d="M604 1165l-297 187l154 102l172 -289h-29zM877 883l-295 -840q-75 -214 -108 -282q-70 -143 -168 -186q-53 -24 -122 -24q-124 0 -214.5 68.5t-90.5 175.5q0 70 41.5 114t112.5 44q64 0 102.5 -34t38.5 -83q0 -21 -8 -51t-15 -52t-5 -49.5t20 -50.5q27 -39 86 -39
q41 0 76.5 20.5t63 53.5t58 94t54 122.5t57.5 158.5h-149l-285 840q-18 52 -61 102l-60 62v22h420v-22l-20 -52q-28 -59 -7 -112l222 -664l233 664q19 56 -4 114l-23 50v22h174v-22l-61 -62q-47 -54 -63 -102z" />
    <glyph glyph-name="uni1EF4" unicode="&#x1ef4;" horiz-adv-x="1085" 
d="M936 1313l-270 -584v-539q0 -62 30 -114l33 -56v-20h-385v20l33 56q33 57 33 114v439l-281 680q-23 58 -72 100l-69 66v20h436v-20l-16 -48q-17 -63 8 -118l231 -566l264 570q25 59 19 117l-6 45v20h174v-20l-84 -70q-57 -42 -78 -92zM410 -268q0 60 36.5 97.5t96.5 37.5
t96.5 -37.5t36.5 -97.5t-36.5 -96.5t-96.5 -36.5t-96.5 36.5t-36.5 96.5z" />
    <glyph glyph-name="uni1EF5" unicode="&#x1ef5;" horiz-adv-x="1005" 
d="M877 883l-295 -840q-75 -214 -108 -282q-70 -143 -168 -186q-53 -24 -122 -24q-124 0 -214.5 68.5t-90.5 175.5q0 70 41.5 114t112.5 44q64 0 102.5 -34t38.5 -83q0 -21 -8 -51t-15 -52t-5 -49.5t20 -50.5q27 -39 86 -39q41 0 76.5 20.5t63 53.5t58 94t54 122.5
t57.5 158.5h-149l-285 840q-18 52 -61 102l-60 62v22h420v-22l-20 -52q-28 -59 -7 -112l222 -664l233 664q19 56 -4 114l-23 50v22h174v-22l-61 -62q-47 -54 -63 -102zM610 -268q0 60 36.5 97.5t96.5 37.5t97 -37.5t37 -97.5t-37 -96.5t-97 -36.5t-96.5 36.5t-36.5 96.5z
" />
    <glyph glyph-name="uni1EF6" unicode="&#x1ef6;" horiz-adv-x="1085" 
d="M522 1817q0 51 33.5 83.5t85.5 32.5q55 0 88 -35t33 -94q0 -91 -69 -150t-142 -59l-2 15q79 22 106 90q-59 0 -96 29t-37 88zM936 1313l-270 -584v-539q0 -62 30 -114l33 -56v-20h-385v20l33 56q33 57 33 114v439l-281 680q-23 58 -72 100l-69 66v20h436v-20l-16 -48
q-17 -63 8 -118l231 -566l264 570q25 59 19 117l-6 45v20h174v-20l-84 -70q-57 -42 -78 -92z" />
    <glyph glyph-name="uni1EF7" unicode="&#x1ef7;" horiz-adv-x="1005" 
d="M502 1386q0 51 33.5 84t85.5 33q54 0 87 -34.5t33 -94.5q0 -91 -69 -150t-142 -59l-2 15q80 22 107 90q-59 0 -96 29t-37 87zM877 883l-295 -840q-75 -214 -108 -282q-70 -143 -168 -186q-53 -24 -122 -24q-124 0 -214.5 68.5t-90.5 175.5q0 70 41.5 114t112.5 44
q64 0 102.5 -34t38.5 -83q0 -21 -8 -51t-15 -52t-5 -49.5t20 -50.5q27 -39 86 -39q41 0 76.5 20.5t63 53.5t58 94t54 122.5t57.5 158.5h-149l-285 840q-18 52 -61 102l-60 62v22h420v-22l-20 -52q-28 -59 -7 -112l222 -664l233 664q19 56 -4 114l-23 50v22h174v-22l-61 -62
q-47 -54 -63 -102z" />
    <glyph glyph-name="uni1EF8" unicode="&#x1ef8;" horiz-adv-x="1085" 
d="M326 1651h-23q3 84 38.5 134t94.5 50q37 0 81.5 -20t78.5 -43.5t74 -43.5t69 -20q24 0 39 20.5t15 51.5h22q-1 -90 -33 -137.5t-88 -47.5q-39 0 -85 20t-80.5 43.5t-75.5 43.5t-72 20q-25 0 -39 -18.5t-16 -52.5zM936 1313l-270 -584v-539q0 -62 30 -114l33 -56v-20h-385
v20l33 56q33 57 33 114v439l-281 680q-23 58 -72 100l-69 66v20h436v-20l-16 -48q-17 -63 8 -118l231 -566l264 570q25 59 19 117l-6 45v20h174v-20l-84 -70q-57 -42 -78 -92z" />
    <glyph glyph-name="uni1EF9" unicode="&#x1ef9;" horiz-adv-x="1005" 
d="M295 1221h-23q3 84 39 134t95 50q37 0 81.5 -20t78.5 -43.5t74 -43.5t69 -20q24 0 38.5 20.5t14.5 51.5h22q-1 -90 -32.5 -137.5t-87.5 -47.5q-39 0 -85 20t-80.5 43.5t-76 43.5t-72.5 20q-25 0 -39 -18.5t-16 -52.5zM877 883l-295 -840q-75 -214 -108 -282
q-70 -143 -168 -186q-53 -24 -122 -24q-124 0 -214.5 68.5t-90.5 175.5q0 70 41.5 114t112.5 44q64 0 102.5 -34t38.5 -83q0 -21 -8 -51t-15 -52t-5 -49.5t20 -50.5q27 -39 86 -39q41 0 76.5 20.5t63 53.5t58 94t54 122.5t57.5 158.5h-149l-285 840q-18 52 -61 102l-60 62
v22h420v-22l-20 -52q-28 -59 -7 -112l222 -664l233 664q19 56 -4 114l-23 50v22h174v-22l-61 -62q-47 -54 -63 -102z" />
    <glyph glyph-name="endash" unicode="&#x2013;" horiz-adv-x="868" 
d="M823 512h-778v43h778v-43z" />
    <glyph glyph-name="emdash" unicode="&#x2014;" horiz-adv-x="1529" 
d="M1483 492h-1438v43h1438v-43z" />
    <glyph glyph-name="quoteleft" unicode="&#x2018;" horiz-adv-x="477" 
d="M397 1227q0 -72 -43.5 -116t-115.5 -44q-73 0 -116.5 46t-43.5 128q0 65 27 119.5t69.5 88t91 51.5t94.5 18l5 -21q-59 -18 -93.5 -43.5t-52.5 -69.5q6 2 17 2q73 0 117 -43.5t44 -115.5z" />
    <glyph glyph-name="quoteright" unicode="&#x2019;" horiz-adv-x="477" 
d="M78 1356q0 72 44 117t116 45q73 0 116 -47.5t43 -131.5q0 -64 -27.5 -118t-70 -86.5t-90 -50t-92.5 -17.5l-4 18q106 30 143 111q-82 0 -130 39.5t-48 120.5z" />
    <glyph glyph-name="quotesinglbase" unicode="&#x201a;" horiz-adv-x="466" 
d="M72 139q0 72 43.5 116t115.5 44q73 0 116.5 -46.5t43.5 -131.5q0 -84 -47 -148.5t-109.5 -94.5t-123.5 -30l-5 19q56 18 90.5 43.5t53.5 69.5q-82 0 -130 39t-48 120z" />
    <glyph glyph-name="quotereversed" unicode="&#x201b;" horiz-adv-x="477" 
d="M397 1356q0 -81 -48 -120.5t-130 -39.5q34 -81 146 -111l-5 -18q-46 0 -94.5 17.5t-91 50.5t-69.5 86.5t-27 117.5q0 84 43.5 131.5t116.5 47.5q72 0 115.5 -45t43.5 -117z" />
    <glyph glyph-name="quotedblleft" unicode="&#x201c;" horiz-adv-x="829" 
d="M397 1227q0 -72 -43.5 -116t-115.5 -44q-73 0 -116.5 46t-43.5 128q0 65 27 119.5t69.5 88t91 51.5t94.5 18l5 -21q-59 -18 -93.5 -43.5t-52.5 -69.5q6 2 17 2q73 0 117 -43.5t44 -115.5zM752 1227q0 -72 -45 -116t-117 -44q-73 0 -116.5 46t-43.5 128q0 86 47 151.5
t110 95.5t126 30l4 -21q-59 -18 -93.5 -43.5t-52.5 -69.5q6 2 17 2q74 0 119 -43.5t45 -115.5z" />
    <glyph glyph-name="quotedblright" unicode="&#x201d;" horiz-adv-x="829" 
d="M430 1356q0 72 44 117t116 45q73 0 117.5 -47.5t44.5 -131.5q0 -64 -28 -118t-71 -86.5t-92 -50t-94 -17.5l-2 18q106 30 143 111q-82 0 -130 39.5t-48 120.5zM78 1356q0 72 44 117t116 45q73 0 116 -47.5t43 -131.5q0 -64 -27.5 -118t-70 -86.5t-91 -50t-93.5 -17.5
l-2 18q106 30 143 111q-82 0 -130 39.5t-48 120.5z" />
    <glyph glyph-name="quotedblbase" unicode="&#x201e;" horiz-adv-x="819" 
d="M424 139q0 72 44 116t116 44q73 0 117 -46.5t44 -131.5q0 -84 -47.5 -148.5t-111 -94.5t-125.5 -30l-2 19q56 18 90 43.5t53 69.5q-82 0 -130 39t-48 120zM72 139q0 72 43.5 116t115.5 44q73 0 116.5 -46.5t43.5 -131.5q0 -84 -47 -148.5t-110 -94.5t-125 -30l-3 19
q56 18 90.5 43.5t53.5 69.5q-82 0 -130 39t-48 120z" />
    <glyph glyph-name="dagger" unicode="&#x2020;" horiz-adv-x="1101" 
d="M541 -319v1327h-439v22h439v465h20v-465h438v-22h-438v-1327h-20z" />
    <glyph glyph-name="daggerdbl" unicode="&#x2021;" horiz-adv-x="1034" 
d="M506 -319v550h-438v21h438v756h-438v22h438v465h20v-465h439v-22h-439v-756h439v-21h-439v-550h-20z" />
    <glyph glyph-name="bullet" unicode="&#x2022;" horiz-adv-x="481" 
d="M74 748q0 75 45.5 120t120.5 45q74 0 121 -45.5t47 -119.5q0 -73 -47 -119.5t-121 -46.5q-75 0 -120.5 46t-45.5 120z" />
    <glyph glyph-name="ellipsis" unicode="&#x2026;" horiz-adv-x="1175" 
d="M782 139q0 72 45 116t117 44t116 -44t44 -116t-44 -115.5t-116 -43.5t-117 43.5t-45 115.5zM428 139q0 72 44.5 116t115.5 44q72 0 117 -44t45 -116t-45 -115.5t-117 -43.5q-71 0 -115.5 43.5t-44.5 115.5zM72 139q0 72 43.5 116t115.5 44t116 -44t44 -116t-44 -115.5
t-116 -43.5t-115.5 43.5t-43.5 115.5z" />
    <glyph glyph-name="perthousand" unicode="&#x2030;" horiz-adv-x="1943" 
d="M82 1128q0 173 74.5 281.5t195.5 108.5q124 0 201.5 -110t77.5 -288q0 -176 -74 -285.5t-195 -109.5q-124 0 -202 112t-78 291zM215 1120q0 -171 38.5 -278t102.5 -107q63 0 103.5 107.5t40.5 277.5q0 171 -41 278t-103 107q-63 0 -102 -107t-39 -278zM406 0l430 1495
h108l-430 -1495h-108zM1313 383q0 173 74.5 281t195.5 108q124 0 201.5 -109.5t77.5 -287.5q0 -176 -74 -285.5t-195 -109.5q-124 0 -202 112t-78 291zM721 383q0 173 74.5 281t195.5 108q124 0 201.5 -109.5t77.5 -287.5q0 -176 -74 -285.5t-195 -109.5q-124 0 -202 112
t-78 291zM1446 375q0 -170 38 -277.5t101 -107.5q65 0 105.5 107.5t40.5 277.5q0 172 -41 278.5t-105 106.5q-61 0 -100 -107.5t-39 -277.5zM854 375q0 -170 38 -277.5t101 -107.5q65 0 105.5 107.5t40.5 277.5q0 172 -41 278.5t-105 106.5q-61 0 -100 -107.5t-39 -277.5z
" />
    <glyph glyph-name="guilsinglleft" unicode="&#x2039;" horiz-adv-x="520" 
d="M416 401l-346 347l346 346l30 -29l-317 -317l317 -316z" />
    <glyph glyph-name="guilsinglright" unicode="&#x203a;" horiz-adv-x="520" 
d="M451 748l-347 -347l-30 31l315 316l-315 317l30 29z" />
    <glyph glyph-name="fraction" unicode="&#x2044;" horiz-adv-x="663" 
d="M63 0l431 1495h108l-430 -1495h-109z" />
    <glyph glyph-name="Euro" unicode="&#x20ac;" horiz-adv-x="1701" 
d="M1571 1159q0 -86 -57 -141t-150 -55q-87 0 -137.5 49t-50.5 129q-1 40 12.5 80t28.5 68.5t27 56t8.5 51.5t-27.5 45q-61 53 -187 53q-143 0 -251 -84.5t-166 -226.5t-68 -326h393l-8 -20h-387q0 -122 6 -181h324l-9 -20h-313q34 -264 179 -419t360 -155q71 0 141.5 18
t139.5 56t126.5 106.5t91.5 159.5h23q-79 -202 -245.5 -312.5t-385.5 -110.5q-282 0 -470 179.5t-220 477.5h-258l8 20h248q-2 31 -2 91q0 59 2 90h-191l11 20h182q32 299 222 479.5t476 180.5q146 0 277.5 -46t214 -129.5t82.5 -183.5z" />
    <glyph glyph-name="trademark" unicode="&#x2122;" horiz-adv-x="1062" 
d="M514 993l10 -18v-8h-53v8l12 18q13 16 13 41v393q0 21 -13 41l-12 19v8h119l135 -446l141 446h115v-8l-12 -19q-13 -20 -13 -41v-393q0 -25 13 -41l12 -18v-8h-137v8l12 18q10 17 10 41v439l-157 -506h-52l-155 503v-436q0 -26 12 -41zM317 993l11 -18v-8h-135v8l12 18
q10 17 10 41v453h-86q-45 0 -57 -41l-2 -4h-7l15 53h364l17 -53h-8v4q-12 41 -60 41h-86v-453q0 -21 12 -41z" />
    <glyph glyph-name="minus" unicode="&#x2212;" horiz-adv-x="1028" 
d="M983 727h-938v43h938v-43z" />
    <glyph glyph-name="LF" horiz-adv-x="0" 
 />
    <glyph glyph-name="A.ss02" horiz-adv-x="1130" 
d="M473 1495h152l395 -1307q16 -60 59 -106l58 -62v-20h-420v20l26 52q24 60 9 116l-78 250h-506l-137 -438q-33 -107 -65.5 -189t-77 -161.5t-93.5 -131t-114 -83t-140 -31.5q-68 0 -140.5 25t-133.5 69t-100 110.5t-39 141.5q0 92 56.5 149.5t149.5 57.5q87 0 138 -48.5
t51 -127.5q1 -47 -18 -97t-35.5 -80.5t-12.5 -67.5t43 -71q33 -28 92 -28q110 0 218.5 140t205.5 454zM174 459h494l-244 805z" />
    <glyph glyph-name="A.ss01" horiz-adv-x="1411" 
d="M1032 188l-78 250h-505l-80 -250q-16 -59 10 -116l24 -52v-20h-174v20l56 64q39 36 61 104l399 1285h-163q-219 0 -332.5 -47t-149.5 -162q-11 -34 -12 -63.5t4 -42.5l4 -13q18 -40 41.5 -55t55.5 -15q18 0 61.5 6t69.5 6q36 0 77 -12q76 -25 107.5 -88.5t5.5 -144.5
q-21 -70 -72 -109t-116 -39q-24 0 -70 11q-73 24 -124.5 82t-74.5 132t-23.5 156.5t23.5 159.5q44 141 161.5 200.5t338.5 59.5h348l395 -1307q16 -58 60 -106l55 -62v-20h-418v20l25 52q26 57 10 116zM455 459h493l-243 805z" />
    <glyph glyph-name="B.ss01" horiz-adv-x="1595" 
d="M1120 0h-631v23l31 55q33 51 33 115v1280q-209 -3 -315.5 -50t-141.5 -159q-11 -34 -12 -63.5t4 -42.5l4 -13q18 -40 41 -55t55 -15q18 0 61.5 6t69.5 6q37 0 78 -12q76 -25 107.5 -88.5t5.5 -144.5q-21 -70 -72 -109t-116 -39q-24 0 -70 11q-73 24 -124.5 82t-74.5 132
t-23.5 156.5t23.5 159.5q44 140 161 199t339 61h483q192 0 305 -87.5t113 -240.5q0 -122 -70.5 -207.5t-197.5 -119.5q162 -20 258 -132t96 -284q0 -193 -114.5 -308.5t-305.5 -115.5zM821 1475h-12v-631h12q190 0 283.5 73.5t93.5 227.5q0 162 -98 246t-279 84zM887 823
h-78v-803h78q180 0 288.5 110.5t108.5 293.5q0 180 -108.5 289.5t-288.5 109.5z" />
    <glyph glyph-name="D.ss01" horiz-adv-x="1638" 
d="M846 0h-354v20l30 56q33 51 33 114v1283q-208 -2 -316 -49.5t-143 -159.5q-11 -34 -12 -63.5t4 -42.5l4 -13q18 -40 41 -55t55 -15q18 0 61.5 6t69.5 6q37 0 78 -12q76 -25 107.5 -88.5t5.5 -144.5q-21 -70 -72 -109t-116 -39q-24 0 -70 11q-73 24 -124.5 82t-74.5 132
t-23.5 156.5t23.5 159.5q44 141 161.5 200.5t338.5 59.5h293q164 0 301.5 -54t234 -151.5t150 -238.5t53.5 -310q0 -340 -199.5 -540.5t-539.5 -200.5zM821 1475h-10v-1455h10q156 0 272 94t176 258t60 376q0 215 -61 379.5t-177 256t-270 91.5z" />
    <glyph glyph-name="E.ss01" horiz-adv-x="1466" 
d="M1161 823h-348v-803h434q59 0 104 33t62 88l2 9h23l-43 -150h-901v20l30 56q33 51 33 114v1283q-209 -2 -317.5 -49.5t-143.5 -159.5q-11 -34 -12 -63.5t4 -42.5l4 -13q18 -40 41 -55t55 -15q18 0 61.5 6t69.5 6q37 0 78 -12q76 -25 107.5 -88.5t5.5 -144.5
q-21 -70 -72 -109t-116 -39q-24 0 -70 11q-73 24 -124.5 82t-74.5 132t-23.5 156.5t23.5 159.5q44 141 161.5 200.5t338.5 59.5h842l43 -149h-23l-2 8q-17 55 -62 88t-104 33h-434v-631h348q37 0 60.5 23.5t23.5 60.5v2h21v-193h-21v2q0 37 -23.5 60.5t-60.5 23.5z" />
    <glyph glyph-name="F.ss01" horiz-adv-x="1439" 
d="M1161 823h-348v-633q0 -64 33 -112l33 -58v-20h-385v20l30 56q33 51 33 114v1283q-209 -2 -317.5 -49.5t-143.5 -159.5q-11 -34 -12 -63.5t4 -42.5l4 -13q18 -40 41 -55t55 -15q18 0 61.5 6t69.5 6q37 0 78 -12q76 -25 107.5 -88.5t5.5 -144.5q-21 -70 -72 -109t-116 -39
q-24 0 -70 11q-73 24 -124.5 82t-74.5 132t-23.5 156.5t23.5 159.5q44 141 161.5 200.5t338.5 59.5h842l43 -149h-23l-2 8q-17 55 -62 88t-104 33h-434v-631h348q37 0 60.5 23.5t23.5 60.5v2h21v-193h-21v2q0 37 -23.5 60.5t-60.5 23.5z" />
    <glyph glyph-name="H.ss01" horiz-adv-x="1681" 
d="M850 76l33 -56v-20h-385v20l30 56q33 51 33 114v1283q-210 -2 -320 -49.5t-145 -159.5q-11 -34 -12 -63.5t4 -42.5l4 -13q18 -40 41 -55t55 -15q18 0 61.5 6t69.5 6q37 0 78 -12q76 -25 107.5 -88.5t5.5 -144.5q-21 -70 -72 -109t-116 -39q-24 0 -70 11q-73 24 -124.5 82
t-74.5 132t-23.5 156.5t23.5 159.5q44 141 161.5 200.5t338.5 59.5h330v-20l-33 -56q-33 -61 -33 -114v-631h475v631q0 61 -32 114l-31 56v20h383v-20l-31 -56q-33 -54 -33 -114v-1115q0 -63 33 -114l31 -56v-20h-383v20l31 56q32 50 32 114v461h-475v-461q0 -57 33 -114z
" />
    <glyph glyph-name="K.ss02" horiz-adv-x="1107" 
d="M1595 -598q-87 0 -168.5 24.5t-157 74t-144 113t-139.5 155t-134 185t-137 216.5l-328 545v-525q0 -57 33 -114l33 -56v-20h-385v20l32 56q31 53 31 114v1115q0 57 -31 114l-32 56v20h385v-20l-33 -56q-33 -61 -33 -114v-535l449 549q38 55 41 111l2 45v20h176v-20
l-105 -74q-24 -13 -49.5 -36.5t-40.5 -45.5l-313 -387l479 -803q92 -153 171 -271.5t160 -221.5t151 -158.5t122 -55.5q33 0 58 31q18 22 10.5 62.5t-24.5 73t-34 85t-16 97.5q0 86 50.5 135t137.5 49q95 0 151 -58t56 -155q0 -147 -121.5 -243.5t-302.5 -96.5z" />
    <glyph glyph-name="K.ss01" horiz-adv-x="1570" 
d="M1503 86l72 -66v-20h-436v20l14 48q16 59 -14 114l-322 533v-525q0 -57 33 -114l33 -56v-20h-385v20l30 56q33 51 33 114v1283q-210 -2 -320 -49.5t-145 -159.5q-11 -34 -12 -63.5t4 -42.5l4 -13q18 -40 41 -55t55 -15q18 0 61.5 6t69.5 6q37 0 78 -12
q76 -25 107.5 -88.5t5.5 -144.5q-21 -70 -72 -109t-116 -39q-24 0 -70 11q-73 24 -124.5 82t-74.5 132t-23.5 156.5t23.5 159.5q44 141 161.5 200.5t338.5 59.5h330v-20l-33 -56q-33 -61 -33 -114v-535l447 549q40 50 43 111l2 45v20h176v-20l-105 -74q-24 -13 -49.5 -36.5
t-40.5 -45.5l-315 -387l450 -750q26 -48 78 -96z" />
    <glyph glyph-name="L.ss01" horiz-adv-x="1429" 
d="M879 1475l-33 -56q-33 -51 -33 -114v-1285h434q59 0 104 33t62 88l2 9h23l-43 -150h-901v23l30 55q33 51 33 115v1280q-209 -2 -317.5 -49.5t-143.5 -159.5q-11 -34 -12 -63.5t4 -42.5l4 -13q18 -40 41 -55t55 -15q18 0 61.5 6t69.5 6q37 0 78 -12q76 -25 107.5 -88.5
t5.5 -144.5q-21 -70 -72 -109t-116 -39q-24 0 -70 11q-73 24 -124.5 82t-74.5 132t-23.5 156.5t23.5 159.5q44 141 161.5 200.5t338.5 59.5h326v-20z" />
    <glyph glyph-name="M.ss01" horiz-adv-x="2004" 
d="M618 76l33 -56v-20h-149v20l33 56q30 52 30 114v1283q-212 -2 -323.5 -49t-145.5 -160q-11 -34 -12 -63.5t4 -42.5l4 -13q18 -40 41 -55t55 -15q18 0 61.5 6t69.5 6q37 0 78 -12q76 -25 107.5 -88.5t5.5 -144.5q-21 -70 -72 -109t-116 -39q-24 0 -70 11q-73 24 -124.5 82
t-74.5 132t-23.5 156.5t23.5 159.5q44 141 161.5 200.5t338.5 59.5h281l385 -1262l397 1262h321v-20l-32 -56q-31 -57 -31 -114v-1115q0 -61 31 -114l32 -56v-20h-385v20l33 56q31 53 31 114v1237l-449 -1427h-143l-436 1425v-1235q0 -62 30 -114z" />
    <glyph glyph-name="N.ss01" horiz-adv-x="1675" 
d="M612 76l33 -56v-20h-149v20l30 56q33 51 33 114v1283q-208 -2 -318 -49.5t-145 -159.5q-11 -34 -12 -63.5t4 -42.5l4 -13q18 -40 41 -55t55 -15q18 0 61.5 6t69.5 6q37 0 78 -12q76 -25 107.5 -88.5t5.5 -144.5q-21 -70 -72 -109t-116 -39q-24 0 -70 11q-73 24 -124.5 82
t-74.5 132t-23.5 156.5t23.5 159.5q44 141 161.5 200.5t338.5 59.5h301l672 -1198v1008q0 53 -33 114l-33 56v20h150v-20l-31 -56q-33 -54 -33 -114v-1305h-149l-817 1456v-1266q0 -59 32 -114z" />
    <glyph glyph-name="P.ss01" horiz-adv-x="1576" 
d="M1130 651h-315v-461q0 -57 33 -114l33 -56v-20h-385v20l30 56q33 51 33 114v1283q-208 -2 -318 -49.5t-145 -159.5q-11 -34 -12 -63.5t4 -42.5l4 -13q18 -40 41 -55t55 -15q18 0 61.5 6t69.5 6q37 0 78 -12q76 -25 107.5 -88.5t5.5 -144.5q-21 -70 -72 -109t-116 -39
q-24 0 -70 11q-73 24 -124.5 82t-74.5 132t-23.5 156.5t23.5 159.5q44 141 161.5 200.5t338.5 59.5h575q189 0 303.5 -115t114.5 -305q0 -192 -114 -308t-302 -116zM893 1475h-78v-801h78q180 0 288.5 109t108.5 292q0 181 -108.5 290.5t-288.5 109.5z" />
    <glyph glyph-name="Q.ss01" horiz-adv-x="1499" 
d="M55 748q0 171 51 314.5t142.5 243.5t221 156t282.5 56q310 0 501 -212t191 -556q0 -170 -50 -313t-140 -243.5t-219.5 -157t-282.5 -56.5h-37q-4 -32 -4 -46q0 -72 25 -145t74.5 -146.5t131.5 -137t187.5 -112.5t252 -77.5t316.5 -28.5q99 0 183.5 10t143.5 25.5
t107 37.5t77.5 43.5t51.5 46.5t32 42.5t17 36.5q16 40 6.5 76.5t-27.5 58.5t-35.5 58.5t-17.5 76.5q0 68 45.5 113t118.5 45q79 0 128.5 -50t49.5 -128q0 -34 -9 -73t-34.5 -90t-65.5 -98.5t-108.5 -94.5t-156.5 -81t-216.5 -55.5t-281.5 -21.5q-161 0 -300.5 23.5
t-241.5 63.5t-184 94.5t-135.5 114.5t-89 126t-50.5 126.5t-15 118.5q0 18 4 50q-142 10 -261 70t-202.5 159.5t-129.5 237t-46 299.5zM311 735q0 -314 103.5 -509.5t281.5 -221.5q29 147 150.5 237.5t279.5 90.5q62 180 62 418q0 339 -119 542t-315 203q-131 0 -232 -95.5
t-156 -268t-55 -396.5zM717 2q10 -2 28 -2q124 0 219.5 80t151.5 229q-147 -3 -260 -86.5t-139 -220.5z" />
    <glyph glyph-name="R.ss02" horiz-adv-x="1169" 
d="M702 651h-235l125 -28q74 -19 143 -70t107 -115l184 -309q92 -153 171 -271.5t160 -221.5t151 -158.5t122 -55.5q33 0 58 31q18 22 10.5 62.5t-24.5 73t-34 85t-16 97.5q0 86 50.5 135t137.5 49q95 0 151 -58t56 -155q0 -147 -121.5 -243.5t-302.5 -96.5
q-87 0 -168.5 24.5t-157 74t-144 113t-139.5 155t-134 185t-137 216.5l-289 481h-39v-461q0 -57 33 -114l33 -56v-20h-385v20l32 56q31 53 31 114v1115q0 57 -31 114l-32 56v20h632q189 0 303.5 -115t114.5 -305q0 -192 -114 -308t-302 -116zM465 1475h-78v-801h78
q180 0 288.5 109t108.5 292q0 181 -108.5 290.5t-288.5 109.5z" />
    <glyph glyph-name="R..ss01" horiz-adv-x="1636" 
d="M1133 651h-37q48 -21 86.5 -64t83.5 -114l198 -307q56 -80 84 -103l56 -43l2 -20h-240q-46 0 -87.5 27.5t-70.5 72.5l-342 551h-49v-461q0 -57 33 -114l33 -56v-20h-385v20l30 56q33 51 33 114v1283q-210 -2 -320 -49.5t-145 -159.5q-11 -34 -12 -63.5t4 -42.5l4 -13
q18 -40 41 -55t55 -15q18 0 61.5 6t69.5 6q37 0 78 -12q76 -25 107.5 -88.5t5.5 -144.5q-21 -70 -72 -109t-116 -39q-24 0 -70 11q-73 24 -124.5 82t-74.5 132t-23.5 156.5t23.5 159.5q44 141 161.5 200.5t338.5 59.5h577q189 0 303.5 -115t114.5 -305q0 -192 -113.5 -308
t-301.5 -116zM895 1475h-78v-801h78q180 0 288.5 109t108.5 292q0 181 -108.5 290.5t-288.5 109.5z" />
    <glyph glyph-name="a.ss01" horiz-adv-x="1546" 
d="M416 -23q-154 0 -258.5 98t-104.5 251q0 152 102.5 254t256.5 102q109 0 188 -57t113 -156v207q0 193 -54 293t-155 100q-33 0 -65 -11t-46 -32q-15 -18 -16 -48t6 -57t15 -61t8 -53q0 -44 -37 -75.5t-97 -31.5q-63 0 -100 37t-37 97q0 103 109 179.5t276 76.5
q89 0 166 -24t143 -74.5t104 -140.5t38 -210v-621q210 5 318.5 52.5t142.5 158.5q5 16 7.5 30.5t3.5 26t0.5 21.5t-2 17.5l-2.5 12.5t-2 8l-1 3q-32 70 -97 70q-18 0 -63 -6t-72 -6q-40 0 -74 10q-77 25 -108 88t-6 145q22 71 71.5 110.5t116.5 39.5q31 0 72 -13
q58 -18 103 -59t71 -95.5t38.5 -118t8.5 -129.5t-22 -126q-43 -142 -161.5 -201t-340.5 -59h-90q-75 0 -122.5 46.5t-47.5 121.5v12q-33 -96 -109.5 -149.5t-187.5 -53.5zM512 41q90 0 145.5 71t55.5 203v25q-2 113 -56 189.5t-143 76.5q-92 0 -148.5 -81.5t-56.5 -211.5
q0 -124 55.5 -198t147.5 -74z" />
    <glyph glyph-name="b.ss01" horiz-adv-x="1187" 
d="M358 1495v-797q37 183 132.5 287.5t232.5 104.5q173 0 287 -153t114 -390q0 -258 -138 -412.5t-361 -154.5q-211 0 -355 141l-147 -121h-21v1241q0 58 -32 113l-33 53l-21 -4q-125 -23 -202 -23q-123 0 -204.5 45.5t-133.5 143.5q-50 94 -60.5 202.5t29 207t127.5 145.5
q51 26 104 26q55 0 102 -28.5t77 -83.5q39 -77 19 -145t-91 -105q-34 -19 -74.5 -26t-71.5 -8t-60.5 -6t-50 -25t-30.5 -60q-10 -45 27 -117q40 -73 109 -107t175 -34q81 0 230 27l299 63h22zM616 0q118 0 185 134.5t67 359.5t-65 367.5t-176 142.5q-115 0 -192 -154.5
t-77 -374.5q7 -225 76.5 -350t181.5 -125z" />
    <glyph glyph-name="d.ss02" horiz-adv-x="1212" 
d="M834 166v170q-58 -359 -324 -359q-188 0 -318.5 157.5t-130.5 410.5q0 238 120.5 390t312.5 152q142 0 225.5 -92t114.5 -278v520q0 58 -33 115l-33 53l-20 -4q-125 -23 -203 -23q-123 0 -204.5 45.5t-133.5 143.5q-50 94 -60.5 202.5t29 207t127.5 145.5q51 26 105 26
q116 0 178 -112q39 -77 19 -145t-91 -105q-34 -19 -74.5 -26t-71.5 -8t-60.5 -6t-50 -25t-30.5 -60q-10 -45 27 -117q73 -141 285 -141q80 0 229 27l299 63h23v-1305q0 -61 30 -116l33 -54v-20h-152q-76 0 -121.5 46.5t-45.5 121.5zM584 61q106 0 172 109.5t73 355.5
q-16 475 -241 475q-128 0 -199.5 -135.5t-71.5 -341.5q0 -133 30.5 -237t91.5 -165t145 -61z" />
    <glyph glyph-name="d.ss01" horiz-adv-x="1669" 
d="M1090 1493v-1305q0 -78 46.5 -122.5t118.5 -34.5q128 18 199 64t98 134q5 16 8 30.5t3.5 26t0.5 21.5t-1.5 17.5t-3 12.5t-2.5 8l-1 3q-32 70 -96 70q-18 0 -63 -6t-72 -6q-40 0 -74 10q-77 25 -107.5 88.5t-4.5 144.5q20 71 70 110.5t116 39.5q31 0 72 -13
q58 -18 102.5 -59t70.5 -95.5t38.5 -118t8.5 -129.5t-22 -126q-43 -142 -160.5 -201t-340.5 -59h-93q-76 0 -121.5 46.5t-45.5 121.5v170q-58 -359 -324 -359q-188 0 -318.5 157.5t-130.5 410.5q0 238 120.5 390t312.5 152q142 0 225.5 -92t114.5 -278v520q0 58 -33 115
l-33 53v25l299 63h23zM317 524q0 -133 30.5 -237t91.5 -165t145 -61q106 0 172 109.5t73 355.5q-16 475 -241 475q-128 0 -199.5 -135.5t-71.5 -341.5z" />
    <glyph glyph-name="g.ss01" horiz-adv-x="1212" 
d="M834 137v199q-58 -359 -324 -359q-188 0 -318.5 157.5t-130.5 410.5q0 238 120.5 390t312.5 152q142 0 225.5 -92t114.5 -278v350h18l301 -66v-22l-33 -53q-30 -55 -30 -117v-639q0 -93 -13.5 -174.5t-52 -166t-99 -143.5t-163.5 -97t-238 -38q-187 0 -292 66t-105 178
q0 70 43 114t113 44q63 0 102 -34t39 -83q0 -21 -8 -54.5t-15 -59.5t-5 -58t20 -55q34 -37 104 -37q65 0 116 20t83.5 47.5t55.5 79t34.5 91t17 108t6.5 106t1 106.5v7zM584 61q106 0 172 109.5t73 355.5q-16 475 -241 475q-128 0 -199.5 -135.5t-71.5 -341.5
q0 -133 30.5 -237t91.5 -165t145 -61z" />
    <glyph glyph-name="h.ss01" horiz-adv-x="1116" 
d="M999 727v-537q0 -57 33 -114l33 -56v-20h-385v20l33 56q30 52 30 114v457q0 87 -7.5 149.5t-26 113.5t-52.5 76.5t-84 25.5q-82 0 -137 -65.5t-59 -172.5v-584q0 -63 33 -114l30 -56v-20h-385v20l33 56q33 57 33 114v1051q0 56 -33 113l-33 53l-20 -4q-125 -23 -203 -23
q-123 0 -204.5 45.5t-133.5 143.5q-50 94 -60.5 202.5t29 207t127.5 145.5q51 26 105 26q116 0 178 -112q39 -77 19 -145t-91 -105q-34 -19 -74.5 -26t-71.5 -8t-60 -6t-49.5 -25t-30.5 -60q-11 -45 26 -117q76 -141 285 -141q80 0 229 27l299 63h23v-612q35 96 120 151.5
t197 55.5q146 0 225.5 -95.5t79.5 -267.5z" />
    <glyph glyph-name="h.ss02" horiz-adv-x="1576" 
d="M1169 35q124 15 194.5 62t96.5 134q5 16 8 30.5t3.5 26t0.5 21.5t-1.5 17.5t-3 12.5t-2.5 8l-1 3q-32 70 -96 70q-18 0 -63 -6t-72 -6q-40 0 -74 10q-77 25 -107.5 88.5t-4.5 144.5q22 71 71.5 110.5t114.5 39.5q31 0 72 -13q58 -18 102.5 -59t70.5 -95.5t38.5 -118
t8.5 -129.5t-22 -126q-43 -142 -161 -201t-341 -59h-319v20l31 56q32 50 32 114v457q0 86 -8 149.5t-26.5 114t-53 76t-84.5 25.5q-82 0 -136 -65.5t-60 -172.5v-584q0 -57 33 -114l32 -56v-20h-385v20l33 56q31 53 31 114v1051q0 60 -31 113l-33 55v23l299 63h21v-612
q35 95 121 151t198 56q146 0 225.5 -95.5t79.5 -267.5v-537q0 -78 48 -122.5t120 -32.5z" />
    <glyph glyph-name="l.ss01" horiz-adv-x="499" 
d="M410 76l30 -56v-20h-385v20l33 56q33 57 33 114v1051q0 56 -33 113l-33 53l-20 -4q-125 -23 -203 -23q-123 0 -204.5 45.5t-133.5 143.5q-50 94 -60.5 202.5t29 207t127.5 145.5q51 26 105 26q116 0 178 -112q39 -77 19 -145t-91 -105q-34 -19 -74.5 -26t-71.5 -8t-60 -6
t-49.5 -25t-30.5 -60q-11 -45 26 -117q76 -141 285 -141q80 0 229 27l299 63h23v-1305q0 -63 33 -114z" />
    <glyph glyph-name="k.ss01" horiz-adv-x="978" 
d="M709 891l-99 -125l211 -580q9 -26 28 -53t40 -45l78 -68v-20h-424v20l10 48q17 61 -6 118l-123 351l-47 -60v-287q0 -63 33 -114l30 -56v-20h-385v20l33 56q33 57 33 114v1051q0 56 -33 113l-33 53l-20 -4q-125 -23 -203 -23q-123 0 -204.5 45.5t-133.5 143.5
q-50 94 -60.5 202.5t29 207t127.5 145.5q51 26 105 26q116 0 178 -112q39 -77 19 -145t-91 -105q-34 -19 -74.5 -26t-71.5 -8t-60 -6t-49.5 -25t-30.5 -60q-11 -45 26 -117q76 -141 285 -141q80 0 229 27l299 63h23v-985l303 381q39 53 39 110v68h176v-22l-98 -70
q-59 -47 -88 -86z" />
    <glyph glyph-name="k.ss02" horiz-adv-x="911" 
d="M709 891l-154 -193l236 -569q133 -323 263.5 -516t233.5 -193q35 0 51 27q16 19 9.5 53.5t-20.5 62.5t-28.5 73t-13.5 85q0 74 44.5 118t119.5 44q80 0 130 -51t50 -135q0 -129 -110 -212t-279 -83q-84 0 -156 22t-135.5 68.5t-117.5 107.5t-108 152t-100.5 189
t-101.5 229l-131 324l-14 -17v-287q0 -57 33 -114l32 -56v-20h-385v20l33 56q31 53 31 114v1051q0 60 -31 113l-33 55v23l299 63h21v-985l305 381q37 50 37 110v68h178v-22l-98 -70q-51 -38 -90 -86z" />
    <glyph glyph-name="m.ss01" horiz-adv-x="2080" 
d="M1671 33q126 17 196.5 64t96.5 134q5 16 8 30.5t4 26t1 21.5t-1.5 17.5l-2.5 12.5t-2 8l-1 3q-32 70 -98 70q-18 0 -63 -6t-72 -6q-40 0 -74 10q-77 25 -108 88.5t-5 144.5q21 71 71.5 110.5t115.5 39.5q30 0 71 -13q72 -22 124 -80t74 -131.5t24.5 -157.5t-23.5 -159
q-43 -142 -161 -201t-341 -59h-321v20l30 56q33 51 33 114v457q0 191 -30 278t-101 87t-122 -72.5t-52 -185.5v-564q0 -61 31 -114l33 -56v-20h-385v20l32 56q33 57 33 114v457q0 191 -30 278t-101 87q-68 0 -118 -66.5t-56 -171.5v-584q0 -57 33 -114l32 -56v-20h-385v20
l33 56q31 53 31 114v623q0 58 -31 115l-33 55v21l299 65h21v-180q33 93 109 147t180 54q108 0 175.5 -61.5t88.5 -170.5q26 107 105.5 169.5t191.5 62.5q130 0 201 -85t71 -235v-580q0 -78 48 -123t120 -34z" />
    <glyph glyph-name="n.ss01" horiz-adv-x="1585" 
d="M1174 33q126 17 197 64t97 134q5 16 8 30.5t4 26t1 21.5t-1 17.5t-2 12.5t-2 8l-1 3q-32 70 -99 70q-18 0 -63 -6t-72 -6q-40 0 -74 10q-77 25 -107.5 88.5t-4.5 144.5q22 71 71.5 110.5t114.5 39.5q31 0 72 -13q72 -22 124 -80t73.5 -131.5t24 -157.5t-23.5 -159
q-43 -142 -160.5 -201t-340.5 -59h-324v20l31 56q33 51 33 114v457q0 86 -8 149.5t-26.5 114t-53 76t-84.5 25.5q-82 0 -136.5 -65.5t-60.5 -172.5v-584q0 -57 33 -114l32 -56v-20h-385v20l33 56q31 53 31 114v623q0 58 -31 115l-33 55v21l299 65h21v-186q35 95 121 151
t198 56q146 0 226 -95.5t80 -267.5v-537q0 -78 48 -123t120 -34z" />
    <glyph glyph-name="glyph192" horiz-adv-x="1517" 
d="M1407 1307l-408 -1307h-237v20l24 52q24 60 9 116l-76 250h-508l-78 -250q-16 -59 10 -116l23 -52v-20h-172v20l55 64q43 39 60 104l409 1307h152l379 -1259l333 1071q19 58 -8 116l-24 52v20h174v-20l-56 -62q-39 -39 -61 -106zM219 459h494l-244 805z" />
    <glyph glyph-name="glyph193" horiz-adv-x="1751" 
d="M1372 188l-78 250h-501l-138 -438h-151l-395 1307q-17 61 -60 108l-55 60v20h418v-20l-25 -52q-23 -59 -8 -116l326 -1074l333 1074q19 58 -8 116l-24 52v20h239l395 -1307q21 -63 60 -106l57 -62v-20h-420v20l27 52q23 59 8 116zM799 459h489l-241 796z" />
    <glyph glyph-name="glyph194" horiz-adv-x="1560" 
d="M1376 1159q0 -86 -57.5 -141t-151.5 -55q-85 0 -135.5 49t-50.5 129q-1 40 12 80t28.5 68.5t27 56t8.5 51.5t-27 45q-61 53 -188 53q-167 0 -288.5 -105t-181 -280t-59.5 -397q0 -380 175 -599.5t487 -219.5q85 0 161.5 18t149 56t130.5 105.5t93 159.5h23
q-80 -206 -252.5 -316t-421.5 -110q-365 0 -583 227t-218 607q0 185 55 347t152.5 278.5t239 184t307.5 67.5q143 0 272 -46t211 -129.5t82 -183.5zM485 492q0 201 132 324.5t346 123.5q217 0 349 -126.5t132 -328.5q0 -204 -132 -334.5t-345 -130.5t-347.5 132t-134.5 340z
M741 483q0 -195 63.5 -317.5t162.5 -122.5q100 0 160.5 122.5t60.5 317.5t-60 316t-161 121t-163.5 -122t-62.5 -315z" />
    <glyph glyph-name="glyph195" horiz-adv-x="2056" 
d="M1548 -279q-116 0 -212.5 31t-196.5 106t-196 177.5t-228 269.5l-328 416v-531q0 -57 33 -114l33 -56v-20h-385v20l32 56q31 53 31 114v1115q0 57 -31 114l-32 56v20h385v-20l-33 -56q-33 -61 -33 -114v-535l449 549q38 55 41 111l2 45v20h176v-20l-105 -74
q-24 -13 -49.5 -36.5t-40.5 -45.5l-313 -387l479 -613q97 -123 155 -195t131 -154.5t121.5 -125t99 -71.5t91.5 -29t64 29q18 23 10.5 63t-24.5 72.5t-34 85t-16 98.5q0 85 51 134.5t137 49.5q95 0 151 -58.5t56 -156.5q0 -150 -129 -245t-342 -95zM1890 961v-451
q0 -58 31 -115l33 -53v-23h-152q-75 0 -121.5 47.5t-46.5 122.5v11q-33 -95 -109.5 -149t-187.5 -54q-154 0 -259 98t-105 250q0 153 102.5 254.5t257.5 101.5q109 0 188 -55.5t113 -154.5v204q0 193 -55 293.5t-156 100.5q-78 0 -110 -43q-15 -18 -16 -48t6 -57.5
t14.5 -60.5t7.5 -52q0 -44 -36.5 -75t-94.5 -31q-65 0 -102 36.5t-37 94.5q0 103 109.5 179.5t277.5 76.5q70 0 132.5 -14t121 -47.5t101 -84t68 -128t25.5 -174.5zM1229 635q0 -126 55.5 -200.5t149.5 -74.5q88 0 144 72t56 205v22q-2 113 -56 191t-142 78q-93 0 -150 -82
t-57 -211z" />
    <glyph glyph-name="glyph196" horiz-adv-x="2045" 
d="M1548 -279q-116 0 -212.5 31t-196.5 106t-196 177.5t-228 269.5l-328 416v-531q0 -57 33 -114l33 -56v-20h-385v20l32 56q31 53 31 114v1115q0 57 -31 114l-32 56v20h385v-20l-33 -56q-33 -61 -33 -114v-535l449 549q38 55 41 111l2 45v20h176v-20l-105 -74
q-24 -13 -49.5 -36.5t-40.5 -45.5l-313 -387l479 -613q97 -123 155 -195t131 -154.5t121.5 -125t99 -71.5t91.5 -29t64 29q18 23 10.5 63t-24.5 72.5t-34 85t-16 98.5q0 85 51 134.5t137 49.5q95 0 151 -58.5t56 -156.5q0 -150 -129 -245t-342 -95zM1438 1409
q189 0 306.5 -100.5t117.5 -266.5q0 -177 -139.5 -282t-374.5 -105q-54 0 -144 11q36 -143 121 -223.5t209 -80.5q79 0 148.5 33.5t111.5 81t67 89t31 69.5h21q-53 -156 -178.5 -246t-296.5 -90q-231 0 -372.5 153t-141.5 402q0 250 141 402.5t373 152.5zM1180 889
q0 -92 18 -191q109 33 193 87t133 117.5t73.5 128.5t24.5 130q0 96 -48 162t-130 66q-79 0 -139.5 -65t-92.5 -178.5t-32 -256.5z" />
    <glyph glyph-name="glyph197" horiz-adv-x="2072" 
d="M1548 -279q-116 0 -212.5 31t-196.5 106t-196 177.5t-228 269.5l-328 416v-531q0 -57 33 -114l33 -56v-20h-385v20l32 56q31 53 31 114v1115q0 57 -31 114l-32 56v20h385v-20l-33 -56q-33 -61 -33 -114v-535l449 549q38 55 41 111l2 45v20h176v-20l-105 -74
q-24 -13 -49.5 -36.5t-40.5 -45.5l-313 -387l479 -613q97 -123 155 -195t131 -154.5t121.5 -125t99 -71.5t91.5 -29t64 29q18 23 10.5 63t-24.5 72.5t-34 85t-16 98.5q0 85 51 134.5t137 49.5q95 0 151 -58.5t56 -156.5q0 -150 -129 -245t-342 -95zM1030 662v473
q0 61 -31 114l-32 54v22l299 64h22v-648q0 -179 37 -271.5t133 -92.5q82 0 137.5 66t59.5 171v521q0 63 -33 114l-31 54v22l299 64h21v-879q0 -54 33 -115l32 -53v-23h-153q-75 0 -121.5 47.5t-46.5 122.5v17q-35 -96 -120.5 -151.5t-197.5 -55.5q-146 0 -226.5 95.5
t-80.5 267.5z" />
    <glyph glyph-name="glyph198" horiz-adv-x="2164" 
d="M702 651h-208l211 -51q74 -19 148.5 -65t121.5 -103l96 -113q244 -283 405.5 -429t260.5 -146q39 0 59 29q18 22 10.5 62.5t-23.5 73t-32.5 85t-15.5 98.5q0 85 50 134.5t136 49.5q95 0 152 -58.5t57 -156.5q0 -149 -129 -244.5t-338 -95.5q-117 0 -222.5 33.5
t-215.5 110t-217.5 179.5t-247.5 261l-307 346h-66v-461q0 -57 33 -114l33 -56v-20h-385v20l32 56q31 53 31 114v1115q0 57 -31 114l-32 56v20h632q189 0 303.5 -115t114.5 -305q0 -192 -114 -308t-302 -116zM465 1475h-78v-801h78q180 0 288.5 109t108.5 292
q0 181 -108.5 290.5t-288.5 109.5zM1999 961v-451q0 -61 33 -115l30 -53v-23h-151q-75 0 -121.5 47.5t-46.5 122.5v11q-33 -95 -109.5 -149t-187.5 -54q-154 0 -258.5 98t-104.5 250t102.5 254t256.5 102q109 0 188 -55.5t113 -154.5v204q0 193 -54.5 293.5t-154.5 100.5
q-81 0 -113 -43q-14 -18 -14.5 -48t6.5 -57.5t15 -60.5t8 -52q0 -44 -36.5 -75t-96.5 -31q-65 0 -102.5 36.5t-37.5 94.5q0 103 109.5 179.5t277.5 76.5q70 0 132.5 -14t121.5 -47.5t101.5 -84t68 -128t25.5 -174.5zM1542 360q89 0 145 72t56 205v22q-2 113 -56.5 191
t-142.5 78q-93 0 -149 -82t-56 -211q0 -126 54.5 -200.5t148.5 -74.5z" />
    <glyph glyph-name="glyph199" horiz-adv-x="2205" 
d="M702 651h-208l211 -51q74 -19 148.5 -65t121.5 -103l96 -113q244 -283 405.5 -429t260.5 -146q39 0 59 29q18 22 10.5 62.5t-23.5 73t-32.5 85t-15.5 98.5q0 85 50 134.5t136 49.5q95 0 152 -58.5t57 -156.5q0 -149 -129 -244.5t-338 -95.5q-117 0 -222.5 33.5
t-215.5 110t-217.5 179.5t-247.5 261l-307 346h-66v-461q0 -57 33 -114l33 -56v-20h-385v20l32 56q31 53 31 114v1115q0 57 -31 114l-32 56v20h632q189 0 303.5 -115t114.5 -305q0 -192 -114 -308t-302 -116zM465 1475h-78v-801h78q180 0 288.5 109t108.5 292
q0 181 -108.5 290.5t-288.5 109.5zM2097 1042q0 -177 -139.5 -282t-374.5 -105q-53 0 -143 11q36 -143 120 -223.5t207 -80.5q65 0 123.5 22.5t98 55.5t71 72.5t47 70.5t21.5 52h20q-53 -156 -179 -246t-298 -90q-230 0 -371 153t-141 402q0 250 141 402.5t371 152.5
q189 0 307.5 -100.5t118.5 -266.5zM1434 698q109 33 193 87t133 117.5t73.5 128.5t24.5 130q0 96 -48.5 162t-130.5 66q-80 0 -140.5 -65.5t-92 -178t-31.5 -256.5q0 -104 19 -191z" />
    <glyph glyph-name="glyph200" horiz-adv-x="2240" 
d="M702 651h-208l211 -51q74 -19 148.5 -65t121.5 -103l96 -113q244 -283 405.5 -429t260.5 -146q39 0 59 29q18 22 10.5 62.5t-23.5 73t-32.5 85t-15.5 98.5q0 85 50 134.5t136 49.5q95 0 152 -58.5t57 -156.5q0 -149 -129 -244.5t-338 -95.5q-117 0 -222.5 33.5
t-215.5 110t-217.5 179.5t-247.5 261l-307 346h-66v-461q0 -57 33 -114l33 -56v-20h-385v20l32 56q31 53 31 114v1115q0 57 -31 114l-32 56v20h632q189 0 303.5 -115t114.5 -305q0 -192 -114 -308t-302 -116zM465 1475h-78v-801h78q180 0 288.5 109t108.5 292
q0 181 -108.5 290.5t-288.5 109.5zM1229 662v473q0 61 -31 114l-33 54v22l299 64h23v-648q0 -179 37 -271.5t133 -92.5q82 0 137 66t59 171v521q0 64 -32 114l-31 54v22l299 64h20v-879q0 -54 33 -115l33 -53v-23h-152q-76 0 -123 47.5t-47 122.5v17q-35 -96 -120 -151.5
t-197 -55.5q-146 0 -226.5 95.5t-80.5 267.5z" />
    <glyph glyph-name="glyph201" horiz-adv-x="1644" 
d="M815 1495v-797q37 183 132.5 287.5t232.5 104.5q173 0 287 -153t114 -390q0 -257 -138.5 -412t-361.5 -155q-210 0 -354 141l-147 -121h-21v1202q-87 -74 -180 -92q-69 -11 -138 16t-119.5 78t-78 125t-18.5 152q10 100 72.5 151.5t158.5 42.5q85 -9 129.5 -65t36.5 -142
q-6 -56 -38 -118t-51.5 -104.5t-2.5 -71.5q26 -46 96 -25q51 18 168 131l201 215h20zM416 76l33 -56v-20h-386v20l31 56q33 51 33 114v623q0 61 -33 115l-31 55v21l299 65h21v-879q0 -63 33 -114zM1073 0q118 0 185 134.5t67 359.5t-65.5 367.5t-176.5 142.5q-76 0 -138 -72
t-96 -192.5t-34 -264.5q7 -225 76.5 -350t181.5 -125z" />
    <glyph glyph-name="glyph202" horiz-adv-x="1554" 
d="M815 1495v-612q35 96 120.5 151.5t197.5 55.5q146 0 226.5 -95.5t80.5 -267.5v-537q0 -62 30 -114l33 -56v-20h-385v20l33 56q31 53 31 114v457q0 87 -7.5 149.5t-26 113.5t-52.5 76.5t-84 25.5q-82 0 -137.5 -66t-59.5 -172v-584q0 -63 33 -114l31 -56v-20h-385v20
l32 56q33 51 33 114v1012q-87 -74 -180 -92q-69 -11 -138 16t-119.5 78t-78 125t-18.5 152q10 100 72.5 151.5t158.5 42.5q85 -9 129.5 -65t36.5 -142q-6 -56 -38 -118t-51.5 -104.5t-2.5 -71.5q26 -46 96 -25q51 18 168 131l201 215h20zM416 76l33 -56v-20h-386v20l31 56
q33 51 33 114v623q0 61 -33 115l-31 55v21l299 65h21v-879q0 -63 33 -114z" />
    <glyph glyph-name="glyph203" horiz-adv-x="937" 
d="M848 76l31 -56v-20h-385v20l32 56q33 51 33 114v1012q-87 -74 -180 -92q-69 -11 -138 16t-119.5 78t-78 125t-18.5 152q10 100 72.5 151.5t158.5 42.5q85 -9 129.5 -65t36.5 -142q-6 -56 -38 -118t-51.5 -104.5t-2.5 -71.5q26 -46 96 -25q51 18 168 131l201 215h20v-1305
q0 -63 33 -114zM416 76l33 -56v-20h-386v20l31 56q33 51 33 114v623q0 61 -33 115l-31 55v21l299 65h21v-879q0 -63 33 -114z" />
    <glyph glyph-name="glyph204" horiz-adv-x="1417" 
d="M848 76l31 -56v-20h-385v20l32 56q33 51 33 114v1012q-87 -74 -180 -92q-69 -11 -138 16t-119.5 78t-78 125t-18.5 152q10 100 72.5 151.5t158.5 42.5q85 -9 129.5 -65t36.5 -142q-6 -56 -38 -118t-51.5 -104.5t-2.5 -71.5q26 -46 96 -25q51 18 168 131l201 215h20v-985
l303 381q39 48 39 110v68h176v-22l-98 -70q-59 -47 -88 -86l-98 -125l211 -580q20 -58 67 -98l78 -68v-20h-424v20l12 48q14 64 -8 118l-123 351l-47 -60v-287q0 -63 33 -114zM416 76l33 -56v-20h-386v20l31 56q33 51 33 114v623q0 61 -33 115l-31 55v21l299 65h21v-879
q0 -63 33 -114z" />
    <glyph glyph-name="Agrave.ss02" horiz-adv-x="1130" 
d="M608 1595l-297 187l154 102l172 -289h-29zM473 1495h152l395 -1307q16 -60 59 -106l58 -62v-20h-420v20l26 52q24 60 9 116l-78 250h-506l-137 -438q-33 -107 -65.5 -189t-77 -161.5t-93.5 -131t-114 -83t-140 -31.5q-68 0 -140.5 25t-133.5 69t-100 110.5t-39 141.5
q0 92 56.5 149.5t149.5 57.5q87 0 138 -48.5t51 -127.5q1 -47 -18 -97t-35.5 -80.5t-12.5 -67.5t43 -71q33 -28 92 -28q110 0 218.5 140t205.5 454zM174 459h494l-244 805z" />
    <glyph glyph-name="Aacute.ss02" horiz-adv-x="1130" 
d="M778 1782l-297 -187h-28l172 289zM473 1495h152l395 -1307q16 -60 59 -106l58 -62v-20h-420v20l26 52q24 60 9 116l-78 250h-506l-137 -438q-33 -107 -65.5 -189t-77 -161.5t-93.5 -131t-114 -83t-140 -31.5q-68 0 -140.5 25t-133.5 69t-100 110.5t-39 141.5
q0 92 56.5 149.5t149.5 57.5q87 0 138 -48.5t51 -127.5q1 -47 -18 -97t-35.5 -80.5t-12.5 -67.5t43 -71q33 -28 92 -28q110 0 218.5 140t205.5 454zM174 459h494l-244 805z" />
    <glyph glyph-name="Acircumflex.ss02" horiz-adv-x="1130" 
d="M563 1880l266 -194l-100 -111l-180 287l-176 -287l-99 111l265 194h24zM473 1495h152l395 -1307q16 -60 59 -106l58 -62v-20h-420v20l26 52q24 60 9 116l-78 250h-506l-137 -438q-33 -107 -65.5 -189t-77 -161.5t-93.5 -131t-114 -83t-140 -31.5q-68 0 -140.5 25
t-133.5 69t-100 110.5t-39 141.5q0 92 56.5 149.5t149.5 57.5q87 0 138 -48.5t51 -127.5q1 -47 -18 -97t-35.5 -80.5t-12.5 -67.5t43 -71q33 -28 92 -28q110 0 218.5 140t205.5 454zM174 459h494l-244 805z" />
    <glyph glyph-name="Atilde.ss02" horiz-adv-x="1130" 
d="M313 1651h-22q3 84 38.5 134t94.5 50q37 0 81.5 -20t78.5 -43.5t74 -43.5t69 -20q24 0 38.5 20.5t14.5 51.5h23q-1 -90 -33 -137.5t-88 -47.5q-39 0 -85 20t-80.5 43.5t-75.5 43.5t-72 20q-25 0 -40 -18.5t-16 -52.5zM473 1495h152l395 -1307q16 -60 59 -106l58 -62v-20
h-420v20l26 52q24 60 9 116l-78 250h-506l-137 -438q-33 -107 -65.5 -189t-77 -161.5t-93.5 -131t-114 -83t-140 -31.5q-68 0 -140.5 25t-133.5 69t-100 110.5t-39 141.5q0 92 56.5 149.5t149.5 57.5q87 0 138 -48.5t51 -127.5q1 -47 -18 -97t-35.5 -80.5t-12.5 -67.5
t43 -71q33 -28 92 -28q110 0 218.5 140t205.5 454zM174 459h494l-244 805z" />
    <glyph glyph-name="Abreve.ss02" horiz-adv-x="1130" 
d="M793 1823h18q0 -113 -71 -180.5t-189 -67.5q-116 0 -186 68t-70 180h18q0 -45 65 -85t169 -40q108 0 177 40.5t69 84.5zM473 1495h152l395 -1307q16 -60 59 -106l58 -62v-20h-420v20l26 52q24 60 9 116l-78 250h-506l-137 -438q-33 -107 -65.5 -189t-77 -161.5
t-93.5 -131t-114 -83t-140 -31.5q-68 0 -140.5 25t-133.5 69t-100 110.5t-39 141.5q0 92 56.5 149.5t149.5 57.5q87 0 138 -48.5t51 -127.5q1 -47 -18 -97t-35.5 -80.5t-12.5 -67.5t43 -71q33 -28 92 -28q110 0 218.5 140t205.5 454zM174 459h494l-244 805z" />
    <glyph glyph-name="uni1EA0.ss02" horiz-adv-x="1130" 
d="M473 1495h152l395 -1307q16 -60 59 -106l58 -62v-20h-420v20l26 52q24 60 9 116l-78 250h-506l-137 -438q-33 -107 -65.5 -189t-77 -161.5t-93.5 -131t-114 -83t-140 -31.5q-68 0 -140.5 25t-133.5 69t-100 110.5t-39 141.5q0 92 56.5 149.5t149.5 57.5q87 0 138 -48.5
t51 -127.5q1 -47 -18 -97t-35.5 -80.5t-12.5 -67.5t43 -71q33 -28 92 -28q110 0 218.5 140t205.5 454zM174 459h494l-244 805zM307 -268q0 60 36.5 97.5t96.5 37.5t96.5 -37.5t36.5 -97.5t-36.5 -96.5t-96.5 -36.5t-96.5 36.5t-36.5 96.5z" />
    <glyph glyph-name="uni1EA2.ss02" horiz-adv-x="1130" 
d="M498 1817q0 51 33 83.5t85 32.5q55 0 88 -35t33 -94q0 -91 -69 -150t-142 -59l-2 15q80 22 107 90q-59 0 -96 29t-37 88zM473 1495h152l395 -1307q16 -60 59 -106l58 -62v-20h-420v20l26 52q24 60 9 116l-78 250h-506l-137 -438q-33 -107 -65.5 -189t-77 -161.5
t-93.5 -131t-114 -83t-140 -31.5q-68 0 -140.5 25t-133.5 69t-100 110.5t-39 141.5q0 92 56.5 149.5t149.5 57.5q87 0 138 -48.5t51 -127.5q1 -47 -18 -97t-35.5 -80.5t-12.5 -67.5t43 -71q33 -28 92 -28q110 0 218.5 140t205.5 454zM174 459h494l-244 805z" />
    <glyph glyph-name="uni1EA4.ss02" horiz-adv-x="1130" 
d="M1051 2028l-297 -187h-29l172 289zM563 1880l266 -194l-100 -111l-180 287l-176 -287l-99 111l265 194h24zM473 1495h152l395 -1307q16 -60 59 -106l58 -62v-20h-420v20l26 52q24 60 9 116l-78 250h-506l-137 -438q-33 -107 -65.5 -189t-77 -161.5t-93.5 -131t-114 -83
t-140 -31.5q-68 0 -140.5 25t-133.5 69t-100 110.5t-39 141.5q0 92 56.5 149.5t149.5 57.5q87 0 138 -48.5t51 -127.5q1 -47 -18 -97t-35.5 -80.5t-12.5 -67.5t43 -71q33 -28 92 -28q110 0 218.5 140t205.5 454zM174 459h494l-244 805z" />
    <glyph glyph-name="uni1EA6.ss02" horiz-adv-x="1130" 
d="M817 1841l-297 187l154 102l172 -289h-29zM563 1880l266 -194l-100 -111l-180 287l-176 -287l-99 111l265 194h24zM473 1495h152l395 -1307q16 -60 59 -106l58 -62v-20h-420v20l26 52q24 60 9 116l-78 250h-506l-137 -438q-33 -107 -65.5 -189t-77 -161.5t-93.5 -131
t-114 -83t-140 -31.5q-68 0 -140.5 25t-133.5 69t-100 110.5t-39 141.5q0 92 56.5 149.5t149.5 57.5q87 0 138 -48.5t51 -127.5q1 -47 -18 -97t-35.5 -80.5t-12.5 -67.5t43 -71q33 -28 92 -28q110 0 218.5 140t205.5 454zM174 459h494l-244 805z" />
    <glyph glyph-name="uni1EA8.ss02" horiz-adv-x="1130" 
d="M702 2042q0 51 33.5 84t85.5 33q55 0 88 -35t33 -94q0 -91 -69 -150t-142 -59l-2 14q80 22 107 90q-59 0 -96.5 29.5t-37.5 87.5zM563 1880l266 -194l-100 -111l-180 287l-176 -287l-99 111l265 194h24zM473 1495h152l395 -1307q16 -60 59 -106l58 -62v-20h-420v20l26 52
q24 60 9 116l-78 250h-506l-137 -438q-33 -107 -65.5 -189t-77 -161.5t-93.5 -131t-114 -83t-140 -31.5q-68 0 -140.5 25t-133.5 69t-100 110.5t-39 141.5q0 92 56.5 149.5t149.5 57.5q87 0 138 -48.5t51 -127.5q1 -47 -18 -97t-35.5 -80.5t-12.5 -67.5t43 -71
q33 -28 92 -28q110 0 218.5 140t205.5 454zM174 459h494l-244 805z" />
    <glyph glyph-name="uni1EAA.ss02" horiz-adv-x="1130" 
d="M338 1972h-23q3 84 39 134.5t95 50.5q37 0 81.5 -20t78.5 -43.5t74 -43.5t69 -20q24 0 38.5 20t14.5 51h22q-1 -90 -32.5 -137t-87.5 -47q-39 0 -85 20t-80.5 43.5t-76 43.5t-72.5 20q-25 0 -39 -19t-16 -53zM563 1880l266 -194l-100 -111l-180 287l-176 -287l-99 111
l265 194h24zM473 1495h152l395 -1307q16 -60 59 -106l58 -62v-20h-420v20l26 52q24 60 9 116l-78 250h-506l-137 -438q-33 -107 -65.5 -189t-77 -161.5t-93.5 -131t-114 -83t-140 -31.5q-68 0 -140.5 25t-133.5 69t-100 110.5t-39 141.5q0 92 56.5 149.5t149.5 57.5
q87 0 138 -48.5t51 -127.5q1 -47 -18 -97t-35.5 -80.5t-12.5 -67.5t43 -71q33 -28 92 -28q110 0 218.5 140t205.5 454zM174 459h494l-244 805z" />
    <glyph glyph-name="uni1EAC.ss02" horiz-adv-x="1130" 
d="M563 1880l266 -194l-100 -111l-180 287l-176 -287l-99 111l265 194h24zM473 1495h152l395 -1307q16 -60 59 -106l58 -62v-20h-420v20l26 52q24 60 9 116l-78 250h-506l-137 -438q-33 -107 -65.5 -189t-77 -161.5t-93.5 -131t-114 -83t-140 -31.5q-68 0 -140.5 25
t-133.5 69t-100 110.5t-39 141.5q0 92 56.5 149.5t149.5 57.5q87 0 138 -48.5t51 -127.5q1 -47 -18 -97t-35.5 -80.5t-12.5 -67.5t43 -71q33 -28 92 -28q110 0 218.5 140t205.5 454zM174 459h494l-244 805zM307 -268q0 60 36.5 97.5t96.5 37.5t96.5 -37.5t36.5 -97.5
t-36.5 -96.5t-96.5 -36.5t-96.5 36.5t-36.5 96.5z" />
    <glyph glyph-name="uni1EAE.ss02" horiz-adv-x="1130" 
d="M811 1989l-297 -187h-29l172 289zM793 1823h18q0 -113 -71 -180.5t-189 -67.5q-116 0 -186 68t-70 180h18q0 -45 65 -85t169 -40q108 0 177 40.5t69 84.5zM473 1495h152l395 -1307q16 -60 59 -106l58 -62v-20h-420v20l26 52q24 60 9 116l-78 250h-506l-137 -438
q-33 -107 -65.5 -189t-77 -161.5t-93.5 -131t-114 -83t-140 -31.5q-68 0 -140.5 25t-133.5 69t-100 110.5t-39 141.5q0 92 56.5 149.5t149.5 57.5q87 0 138 -48.5t51 -127.5q1 -47 -18 -97t-35.5 -80.5t-12.5 -67.5t43 -71q33 -28 92 -28q110 0 218.5 140t205.5 454z
M174 459h494l-244 805z" />
    <glyph glyph-name="uni1EB0.ss02" horiz-adv-x="1130" 
d="M614 1802l-297 187l154 102l172 -289h-29zM793 1823h18q0 -113 -71 -180.5t-189 -67.5q-116 0 -186 68t-70 180h18q0 -45 65 -85t169 -40q108 0 177 40.5t69 84.5zM473 1495h152l395 -1307q16 -60 59 -106l58 -62v-20h-420v20l26 52q24 60 9 116l-78 250h-506l-137 -438
q-33 -107 -65.5 -189t-77 -161.5t-93.5 -131t-114 -83t-140 -31.5q-68 0 -140.5 25t-133.5 69t-100 110.5t-39 141.5q0 92 56.5 149.5t149.5 57.5q87 0 138 -48.5t51 -127.5q1 -47 -18 -97t-35.5 -80.5t-12.5 -67.5t43 -71q33 -28 92 -28q110 0 218.5 140t205.5 454z
M174 459h494l-244 805z" />
    <glyph glyph-name="uni1EB2.ss02" horiz-adv-x="1130" 
d="M496 2023q0 51 33 84t85 33q55 0 88 -35t33 -94q0 -91 -69 -150t-142 -59l-2 15q80 22 107 90q-59 0 -96 29t-37 87zM793 1823h18q0 -113 -71 -180.5t-189 -67.5q-116 0 -186 68t-70 180h18q0 -45 65 -85t169 -40q108 0 177 40.5t69 84.5zM473 1495h152l395 -1307
q16 -60 59 -106l58 -62v-20h-420v20l26 52q24 60 9 116l-78 250h-506l-137 -438q-33 -107 -65.5 -189t-77 -161.5t-93.5 -131t-114 -83t-140 -31.5q-68 0 -140.5 25t-133.5 69t-100 110.5t-39 141.5q0 92 56.5 149.5t149.5 57.5q87 0 138 -48.5t51 -127.5q1 -47 -18 -97
t-35.5 -80.5t-12.5 -67.5t43 -71q33 -28 92 -28q110 0 218.5 140t205.5 454zM174 459h494l-244 805z" />
    <glyph glyph-name="uni1EB4.ss02" horiz-adv-x="1130" 
d="M313 1905h-22q3 84 38.5 134t94.5 50q37 0 81.5 -20t78.5 -43.5t74 -43.5t69 -20q24 0 38.5 20.5t14.5 51.5h23q-1 -90 -33 -137.5t-88 -47.5q-39 0 -85 20t-80.5 43.5t-75.5 43.5t-72 20q-25 0 -40 -18.5t-16 -52.5zM793 1823h18q0 -113 -71 -180.5t-189 -67.5
q-116 0 -186 68t-70 180h18q0 -45 65 -85t169 -40q108 0 177 40.5t69 84.5zM473 1495h152l395 -1307q16 -60 59 -106l58 -62v-20h-420v20l26 52q24 60 9 116l-78 250h-506l-137 -438q-33 -107 -65.5 -189t-77 -161.5t-93.5 -131t-114 -83t-140 -31.5q-68 0 -140.5 25
t-133.5 69t-100 110.5t-39 141.5q0 92 56.5 149.5t149.5 57.5q87 0 138 -48.5t51 -127.5q1 -47 -18 -97t-35.5 -80.5t-12.5 -67.5t43 -71q33 -28 92 -28q110 0 218.5 140t205.5 454zM174 459h494l-244 805z" />
    <glyph glyph-name="uni1EB6.ss02" horiz-adv-x="1130" 
d="M793 1823h18q0 -113 -71 -180.5t-189 -67.5q-116 0 -186 68t-70 180h18q0 -45 65 -85t169 -40q108 0 177 40.5t69 84.5zM473 1495h152l395 -1307q16 -60 59 -106l58 -62v-20h-420v20l26 52q24 60 9 116l-78 250h-506l-137 -438q-33 -107 -65.5 -189t-77 -161.5
t-93.5 -131t-114 -83t-140 -31.5q-68 0 -140.5 25t-133.5 69t-100 110.5t-39 141.5q0 92 56.5 149.5t149.5 57.5q87 0 138 -48.5t51 -127.5q1 -47 -18 -97t-35.5 -80.5t-12.5 -67.5t43 -71q33 -28 92 -28q110 0 218.5 140t205.5 454zM174 459h494l-244 805zM307 -268
q0 60 36.5 97.5t96.5 37.5t96.5 -37.5t36.5 -97.5t-36.5 -96.5t-96.5 -36.5t-96.5 36.5t-36.5 96.5z" />
    <glyph glyph-name="Agrave.ss01" horiz-adv-x="1411" 
d="M889 1595l-297 187l153 102l173 -289h-29zM1032 188l-78 250h-505l-80 -250q-16 -59 10 -116l24 -52v-20h-174v20l56 64q39 36 61 104l399 1285h-163q-219 0 -332.5 -47t-149.5 -162q-11 -34 -12 -63.5t4 -42.5l4 -13q18 -40 41.5 -55t55.5 -15q18 0 61.5 6t69.5 6
q36 0 77 -12q76 -25 107.5 -88.5t5.5 -144.5q-21 -70 -72 -109t-116 -39q-24 0 -70 11q-73 24 -124.5 82t-74.5 132t-23.5 156.5t23.5 159.5q44 141 161.5 200.5t338.5 59.5h348l395 -1307q16 -58 60 -106l55 -62v-20h-418v20l25 52q26 57 10 116zM455 459h493l-243 805z
" />
    <glyph glyph-name="Aacute.ss01" horiz-adv-x="1411" 
d="M1059 1782l-297 -187h-29l172 289zM1032 188l-78 250h-505l-80 -250q-16 -59 10 -116l24 -52v-20h-174v20l56 64q39 36 61 104l399 1285h-163q-219 0 -332.5 -47t-149.5 -162q-11 -34 -12 -63.5t4 -42.5l4 -13q18 -40 41.5 -55t55.5 -15q18 0 61.5 6t69.5 6q36 0 77 -12
q76 -25 107.5 -88.5t5.5 -144.5q-21 -70 -72 -109t-116 -39q-24 0 -70 11q-73 24 -124.5 82t-74.5 132t-23.5 156.5t23.5 159.5q44 141 161.5 200.5t338.5 59.5h348l395 -1307q16 -58 60 -106l55 -62v-20h-418v20l25 52q26 57 10 116zM455 459h493l-243 805z" />
    <glyph glyph-name="Acircumflex.ss01" horiz-adv-x="1411" 
d="M844 1880l266 -194l-100 -111l-181 287l-176 -287l-98 111l264 194h25zM1032 188l-78 250h-505l-80 -250q-16 -59 10 -116l24 -52v-20h-174v20l56 64q39 36 61 104l399 1285h-163q-219 0 -332.5 -47t-149.5 -162q-11 -34 -12 -63.5t4 -42.5l4 -13q18 -40 41.5 -55
t55.5 -15q18 0 61.5 6t69.5 6q36 0 77 -12q76 -25 107.5 -88.5t5.5 -144.5q-21 -70 -72 -109t-116 -39q-24 0 -70 11q-73 24 -124.5 82t-74.5 132t-23.5 156.5t23.5 159.5q44 141 161.5 200.5t338.5 59.5h348l395 -1307q16 -58 60 -106l55 -62v-20h-418v20l25 52
q26 57 10 116zM455 459h493l-243 805z" />
    <glyph glyph-name="Atilde.ss01" horiz-adv-x="1411" 
d="M594 1651h-23q3 84 39 134t95 50q37 0 81.5 -20t78.5 -43.5t74 -43.5t69 -20q24 0 38.5 20.5t14.5 51.5h22q-1 -90 -32.5 -137.5t-87.5 -47.5q-39 0 -85 20t-80.5 43.5t-76 43.5t-72.5 20q-25 0 -39 -18.5t-16 -52.5zM1032 188l-78 250h-505l-80 -250q-16 -59 10 -116
l24 -52v-20h-174v20l56 64q39 36 61 104l399 1285h-163q-219 0 -332.5 -47t-149.5 -162q-11 -34 -12 -63.5t4 -42.5l4 -13q18 -40 41.5 -55t55.5 -15q18 0 61.5 6t69.5 6q36 0 77 -12q76 -25 107.5 -88.5t5.5 -144.5q-21 -70 -72 -109t-116 -39q-24 0 -70 11
q-73 24 -124.5 82t-74.5 132t-23.5 156.5t23.5 159.5q44 141 161.5 200.5t338.5 59.5h348l395 -1307q16 -58 60 -106l55 -62v-20h-418v20l25 52q26 57 10 116zM455 459h493l-243 805z" />
    <glyph glyph-name="Abreve.ss01" horiz-adv-x="1411" 
d="M1073 1823h19q0 -113 -71.5 -180.5t-189.5 -67.5q-116 0 -186 68t-70 180h19q0 -45 64.5 -85t168.5 -40q108 0 177 40.5t69 84.5zM1032 188l-78 250h-505l-80 -250q-16 -59 10 -116l24 -52v-20h-174v20l56 64q39 36 61 104l399 1285h-163q-219 0 -332.5 -47t-149.5 -162
q-11 -34 -12 -63.5t4 -42.5l4 -13q18 -40 41.5 -55t55.5 -15q18 0 61.5 6t69.5 6q36 0 77 -12q76 -25 107.5 -88.5t5.5 -144.5q-21 -70 -72 -109t-116 -39q-24 0 -70 11q-73 24 -124.5 82t-74.5 132t-23.5 156.5t23.5 159.5q44 141 161.5 200.5t338.5 59.5h348l395 -1307
q16 -58 60 -106l55 -62v-20h-418v20l25 52q26 57 10 116zM455 459h493l-243 805z" />
    <glyph glyph-name="uni1EA0.ss01" horiz-adv-x="1411" 
d="M1032 188l-78 250h-505l-80 -250q-16 -59 10 -116l24 -52v-20h-174v20l56 64q39 36 61 104l399 1285h-163q-219 0 -332.5 -47t-149.5 -162q-11 -34 -12 -63.5t4 -42.5l4 -13q18 -40 41.5 -55t55.5 -15q18 0 61.5 6t69.5 6q36 0 77 -12q76 -25 107.5 -88.5t5.5 -144.5
q-21 -70 -72 -109t-116 -39q-24 0 -70 11q-73 24 -124.5 82t-74.5 132t-23.5 156.5t23.5 159.5q44 141 161.5 200.5t338.5 59.5h348l395 -1307q16 -58 60 -106l55 -62v-20h-418v20l25 52q26 57 10 116zM455 459h493l-243 805zM588 -268q0 60 36.5 97.5t96.5 37.5t96.5 -37.5
t36.5 -97.5t-36.5 -96.5t-96.5 -36.5t-96.5 36.5t-36.5 96.5z" />
    <glyph glyph-name="uni1EA2.ss01" horiz-adv-x="1411" 
d="M778 1817q0 51 33.5 83.5t85.5 32.5q55 0 88 -35t33 -94q0 -91 -69 -150t-142 -59l-2 15q79 22 106 90q-59 0 -96 29t-37 88zM1032 188l-78 250h-505l-80 -250q-16 -59 10 -116l24 -52v-20h-174v20l56 64q39 36 61 104l399 1285h-163q-219 0 -332.5 -47t-149.5 -162
q-11 -34 -12 -63.5t4 -42.5l4 -13q18 -40 41.5 -55t55.5 -15q18 0 61.5 6t69.5 6q36 0 77 -12q76 -25 107.5 -88.5t5.5 -144.5q-21 -70 -72 -109t-116 -39q-24 0 -70 11q-73 24 -124.5 82t-74.5 132t-23.5 156.5t23.5 159.5q44 141 161.5 200.5t338.5 59.5h348l395 -1307
q16 -58 60 -106l55 -62v-20h-418v20l25 52q26 57 10 116zM455 459h493l-243 805z" />
    <glyph glyph-name="uni1EA4.ss01" horiz-adv-x="1411" 
d="M1331 2028l-297 -187h-28l172 289zM844 1880l266 -194l-100 -111l-181 287l-176 -287l-98 111l264 194h25zM1032 188l-78 250h-505l-80 -250q-16 -59 10 -116l24 -52v-20h-174v20l56 64q39 36 61 104l399 1285h-163q-219 0 -332.5 -47t-149.5 -162q-11 -34 -12 -63.5
t4 -42.5l4 -13q18 -40 41.5 -55t55.5 -15q18 0 61.5 6t69.5 6q36 0 77 -12q76 -25 107.5 -88.5t5.5 -144.5q-21 -70 -72 -109t-116 -39q-24 0 -70 11q-73 24 -124.5 82t-74.5 132t-23.5 156.5t23.5 159.5q44 141 161.5 200.5t338.5 59.5h348l395 -1307q16 -58 60 -106
l55 -62v-20h-418v20l25 52q26 57 10 116zM455 459h493l-243 805z" />
    <glyph glyph-name="uni1EA6.ss01" horiz-adv-x="1411" 
d="M1098 1841l-297 187l153 102l172 -289h-28zM844 1880l266 -194l-100 -111l-181 287l-176 -287l-98 111l264 194h25zM1032 188l-78 250h-505l-80 -250q-16 -59 10 -116l24 -52v-20h-174v20l56 64q39 36 61 104l399 1285h-163q-219 0 -332.5 -47t-149.5 -162
q-11 -34 -12 -63.5t4 -42.5l4 -13q18 -40 41.5 -55t55.5 -15q18 0 61.5 6t69.5 6q36 0 77 -12q76 -25 107.5 -88.5t5.5 -144.5q-21 -70 -72 -109t-116 -39q-24 0 -70 11q-73 24 -124.5 82t-74.5 132t-23.5 156.5t23.5 159.5q44 141 161.5 200.5t338.5 59.5h348l395 -1307
q16 -58 60 -106l55 -62v-20h-418v20l25 52q26 57 10 116zM455 459h493l-243 805z" />
    <glyph glyph-name="uni1EA8.ss01" horiz-adv-x="1411" 
d="M983 2042q0 51 33.5 84t85.5 33q55 0 88 -35t33 -94q0 -91 -69 -150t-142 -59l-2 14q79 22 106 90q-59 0 -96 29t-37 88zM844 1880l266 -194l-100 -111l-181 287l-176 -287l-98 111l264 194h25zM1032 188l-78 250h-505l-80 -250q-16 -59 10 -116l24 -52v-20h-174v20
l56 64q39 36 61 104l399 1285h-163q-219 0 -332.5 -47t-149.5 -162q-11 -34 -12 -63.5t4 -42.5l4 -13q18 -40 41.5 -55t55.5 -15q18 0 61.5 6t69.5 6q36 0 77 -12q76 -25 107.5 -88.5t5.5 -144.5q-21 -70 -72 -109t-116 -39q-24 0 -70 11q-73 24 -124.5 82t-74.5 132
t-23.5 156.5t23.5 159.5q44 141 161.5 200.5t338.5 59.5h348l395 -1307q16 -58 60 -106l55 -62v-20h-418v20l25 52q26 57 10 116zM455 459h493l-243 805z" />
    <glyph glyph-name="uni1EAA.ss01" horiz-adv-x="1411" 
d="M618 1972h-22q3 84 38.5 134.5t94.5 50.5q37 0 81.5 -20t78.5 -43.5t74 -43.5t69 -20q24 0 38.5 20t14.5 51h23q-1 -90 -33 -137t-88 -47q-39 0 -85 20t-80.5 43.5t-75.5 43.5t-72 20q-25 0 -39.5 -19t-16.5 -53zM844 1880l266 -194l-100 -111l-181 287l-176 -287
l-98 111l264 194h25zM1032 188l-78 250h-505l-80 -250q-16 -59 10 -116l24 -52v-20h-174v20l56 64q39 36 61 104l399 1285h-163q-219 0 -332.5 -47t-149.5 -162q-11 -34 -12 -63.5t4 -42.5l4 -13q18 -40 41.5 -55t55.5 -15q18 0 61.5 6t69.5 6q36 0 77 -12
q76 -25 107.5 -88.5t5.5 -144.5q-21 -70 -72 -109t-116 -39q-24 0 -70 11q-73 24 -124.5 82t-74.5 132t-23.5 156.5t23.5 159.5q44 141 161.5 200.5t338.5 59.5h348l395 -1307q16 -58 60 -106l55 -62v-20h-418v20l25 52q26 57 10 116zM455 459h493l-243 805z" />
    <glyph glyph-name="uni1EAC.ss01" horiz-adv-x="1411" 
d="M844 1880l266 -194l-100 -111l-181 287l-176 -287l-98 111l264 194h25zM1032 188l-78 250h-505l-80 -250q-16 -59 10 -116l24 -52v-20h-174v20l56 64q39 36 61 104l399 1285h-163q-219 0 -332.5 -47t-149.5 -162q-11 -34 -12 -63.5t4 -42.5l4 -13q18 -40 41.5 -55
t55.5 -15q18 0 61.5 6t69.5 6q36 0 77 -12q76 -25 107.5 -88.5t5.5 -144.5q-21 -70 -72 -109t-116 -39q-24 0 -70 11q-73 24 -124.5 82t-74.5 132t-23.5 156.5t23.5 159.5q44 141 161.5 200.5t338.5 59.5h348l395 -1307q16 -58 60 -106l55 -62v-20h-418v20l25 52
q26 57 10 116zM455 459h493l-243 805zM588 -268q0 60 36.5 97.5t96.5 37.5t96.5 -37.5t36.5 -97.5t-36.5 -96.5t-96.5 -36.5t-96.5 36.5t-36.5 96.5z" />
    <glyph glyph-name="uni1EAE.ss01" horiz-adv-x="1411" 
d="M1092 1989l-297 -187h-29l172 289zM1073 1823h19q0 -113 -71.5 -180.5t-189.5 -67.5q-116 0 -186 68t-70 180h19q0 -45 64.5 -85t168.5 -40q108 0 177 40.5t69 84.5zM1032 188l-78 250h-505l-80 -250q-16 -59 10 -116l24 -52v-20h-174v20l56 64q39 36 61 104l399 1285
h-163q-219 0 -332.5 -47t-149.5 -162q-11 -34 -12 -63.5t4 -42.5l4 -13q18 -40 41.5 -55t55.5 -15q18 0 61.5 6t69.5 6q36 0 77 -12q76 -25 107.5 -88.5t5.5 -144.5q-21 -70 -72 -109t-116 -39q-24 0 -70 11q-73 24 -124.5 82t-74.5 132t-23.5 156.5t23.5 159.5
q44 141 161.5 200.5t338.5 59.5h348l395 -1307q16 -58 60 -106l55 -62v-20h-418v20l25 52q26 57 10 116zM455 459h493l-243 805z" />
    <glyph glyph-name="uni1EB0.ss01" horiz-adv-x="1411" 
d="M895 1802l-297 187l154 102l172 -289h-29zM1073 1823h19q0 -113 -71.5 -180.5t-189.5 -67.5q-116 0 -186 68t-70 180h19q0 -45 64.5 -85t168.5 -40q108 0 177 40.5t69 84.5zM1032 188l-78 250h-505l-80 -250q-16 -59 10 -116l24 -52v-20h-174v20l56 64q39 36 61 104
l399 1285h-163q-219 0 -332.5 -47t-149.5 -162q-11 -34 -12 -63.5t4 -42.5l4 -13q18 -40 41.5 -55t55.5 -15q18 0 61.5 6t69.5 6q36 0 77 -12q76 -25 107.5 -88.5t5.5 -144.5q-21 -70 -72 -109t-116 -39q-24 0 -70 11q-73 24 -124.5 82t-74.5 132t-23.5 156.5t23.5 159.5
q44 141 161.5 200.5t338.5 59.5h348l395 -1307q16 -58 60 -106l55 -62v-20h-418v20l25 52q26 57 10 116zM455 459h493l-243 805z" />
    <glyph glyph-name="uni1EB2.ss01" horiz-adv-x="1411" 
d="M776 2023q0 51 33.5 84t85.5 33q55 0 88 -35t33 -94q0 -91 -69 -150t-142 -59l-2 15q79 22 106 90q-59 0 -96 29t-37 87zM1073 1823h19q0 -113 -71.5 -180.5t-189.5 -67.5q-116 0 -186 68t-70 180h19q0 -45 64.5 -85t168.5 -40q108 0 177 40.5t69 84.5zM1032 188l-78 250
h-505l-80 -250q-16 -59 10 -116l24 -52v-20h-174v20l56 64q39 36 61 104l399 1285h-163q-219 0 -332.5 -47t-149.5 -162q-11 -34 -12 -63.5t4 -42.5l4 -13q18 -40 41.5 -55t55.5 -15q18 0 61.5 6t69.5 6q36 0 77 -12q76 -25 107.5 -88.5t5.5 -144.5q-21 -70 -72 -109
t-116 -39q-24 0 -70 11q-73 24 -124.5 82t-74.5 132t-23.5 156.5t23.5 159.5q44 141 161.5 200.5t338.5 59.5h348l395 -1307q16 -58 60 -106l55 -62v-20h-418v20l25 52q26 57 10 116zM455 459h493l-243 805z" />
    <glyph glyph-name="uni1EB4.ss01" horiz-adv-x="1411" 
d="M594 1905h-23q3 84 39 134t95 50q37 0 81.5 -20t78.5 -43.5t74 -43.5t69 -20q24 0 38.5 20.5t14.5 51.5h22q-1 -90 -32.5 -137.5t-87.5 -47.5q-39 0 -85 20t-80.5 43.5t-76 43.5t-72.5 20q-25 0 -39 -18.5t-16 -52.5zM1073 1823h19q0 -113 -71.5 -180.5t-189.5 -67.5
q-116 0 -186 68t-70 180h19q0 -45 64.5 -85t168.5 -40q108 0 177 40.5t69 84.5zM1032 188l-78 250h-505l-80 -250q-16 -59 10 -116l24 -52v-20h-174v20l56 64q39 36 61 104l399 1285h-163q-219 0 -332.5 -47t-149.5 -162q-11 -34 -12 -63.5t4 -42.5l4 -13q18 -40 41.5 -55
t55.5 -15q18 0 61.5 6t69.5 6q36 0 77 -12q76 -25 107.5 -88.5t5.5 -144.5q-21 -70 -72 -109t-116 -39q-24 0 -70 11q-73 24 -124.5 82t-74.5 132t-23.5 156.5t23.5 159.5q44 141 161.5 200.5t338.5 59.5h348l395 -1307q16 -58 60 -106l55 -62v-20h-418v20l25 52
q26 57 10 116zM455 459h493l-243 805z" />
    <glyph glyph-name="uni1EB6.ss01" horiz-adv-x="1411" 
d="M1073 1823h19q0 -113 -71.5 -180.5t-189.5 -67.5q-116 0 -186 68t-70 180h19q0 -45 64.5 -85t168.5 -40q108 0 177 40.5t69 84.5zM1032 188l-78 250h-505l-80 -250q-16 -59 10 -116l24 -52v-20h-174v20l56 64q39 36 61 104l399 1285h-163q-219 0 -332.5 -47t-149.5 -162
q-11 -34 -12 -63.5t4 -42.5l4 -13q18 -40 41.5 -55t55.5 -15q18 0 61.5 6t69.5 6q36 0 77 -12q76 -25 107.5 -88.5t5.5 -144.5q-21 -70 -72 -109t-116 -39q-24 0 -70 11q-73 24 -124.5 82t-74.5 132t-23.5 156.5t23.5 159.5q44 141 161.5 200.5t338.5 59.5h348l395 -1307
q16 -58 60 -106l55 -62v-20h-418v20l25 52q26 57 10 116zM455 459h493l-243 805zM588 -268q0 60 36.5 97.5t96.5 37.5t96.5 -37.5t36.5 -97.5t-36.5 -96.5t-96.5 -36.5t-96.5 36.5t-36.5 96.5z" />
    <glyph glyph-name="Dcroat.ss01" horiz-adv-x="1638" 
d="M846 0h-354v20l30 56q33 51 33 114v547h-53v21h53v715q-208 -2 -316 -49.5t-143 -159.5q-11 -34 -12 -63.5t4 -42.5l4 -13q18 -40 41 -55t55 -15q18 0 61.5 6t69.5 6q37 0 78 -12q76 -25 107.5 -88.5t5.5 -144.5q-21 -70 -72 -109t-116 -39q-24 0 -70 11
q-73 24 -124.5 82t-74.5 132t-23.5 156.5t23.5 159.5q44 141 161.5 200.5t338.5 59.5h293q164 0 301.5 -54t234 -151.5t150 -238.5t53.5 -310q0 -340 -199.5 -540.5t-539.5 -200.5zM1069 737h-258v-717h10q156 0 272 94t176 258t60 376q0 215 -61 379.5t-177 256t-270 91.5
h-10v-717h258v-21z" />
    <glyph glyph-name="Egrave.ss01" horiz-adv-x="1466" 
d="M1073 1595l-297 187l154 102l172 -289h-29zM1161 823h-348v-803h434q59 0 104 33t62 88l2 9h23l-43 -150h-901v20l30 56q33 51 33 114v1283q-209 -2 -317.5 -49.5t-143.5 -159.5q-11 -34 -12 -63.5t4 -42.5l4 -13q18 -40 41 -55t55 -15q18 0 61.5 6t69.5 6q37 0 78 -12
q76 -25 107.5 -88.5t5.5 -144.5q-21 -70 -72 -109t-116 -39q-24 0 -70 11q-73 24 -124.5 82t-74.5 132t-23.5 156.5t23.5 159.5q44 141 161.5 200.5t338.5 59.5h842l43 -149h-23l-2 8q-17 55 -62 88t-104 33h-434v-631h348q37 0 60.5 23.5t23.5 60.5v2h21v-193h-21v2
q0 37 -23.5 60.5t-60.5 23.5z" />
    <glyph glyph-name="Eacute.ss01" horiz-adv-x="1466" 
d="M1233 1782l-297 -187h-29l172 289zM1161 823h-348v-803h434q59 0 104 33t62 88l2 9h23l-43 -150h-901v20l30 56q33 51 33 114v1283q-209 -2 -317.5 -49.5t-143.5 -159.5q-11 -34 -12 -63.5t4 -42.5l4 -13q18 -40 41 -55t55 -15q18 0 61.5 6t69.5 6q37 0 78 -12
q76 -25 107.5 -88.5t5.5 -144.5q-21 -70 -72 -109t-116 -39q-24 0 -70 11q-73 24 -124.5 82t-74.5 132t-23.5 156.5t23.5 159.5q44 141 161.5 200.5t338.5 59.5h842l43 -149h-23l-2 8q-17 55 -62 88t-104 33h-434v-631h348q37 0 60.5 23.5t23.5 60.5v2h21v-193h-21v2
q0 37 -23.5 60.5t-60.5 23.5z" />
    <glyph glyph-name="Ecircumflex.ss01" horiz-adv-x="1466" 
d="M993 1880l267 -194l-101 -111l-180 287l-176 -287l-98 111l264 194h24zM1161 823h-348v-803h434q59 0 104 33t62 88l2 9h23l-43 -150h-901v20l30 56q33 51 33 114v1283q-209 -2 -317.5 -49.5t-143.5 -159.5q-11 -34 -12 -63.5t4 -42.5l4 -13q18 -40 41 -55t55 -15
q18 0 61.5 6t69.5 6q37 0 78 -12q76 -25 107.5 -88.5t5.5 -144.5q-21 -70 -72 -109t-116 -39q-24 0 -70 11q-73 24 -124.5 82t-74.5 132t-23.5 156.5t23.5 159.5q44 141 161.5 200.5t338.5 59.5h842l43 -149h-23l-2 8q-17 55 -62 88t-104 33h-434v-631h348q37 0 60.5 23.5
t23.5 60.5v2h21v-193h-21v2q0 37 -23.5 60.5t-60.5 23.5z" />
    <glyph glyph-name="uni1EB8.ss01" horiz-adv-x="1466" 
d="M1161 823h-348v-803h434q59 0 104 33t62 88l2 9h23l-43 -150h-901v20l30 56q33 51 33 114v1283q-209 -2 -317.5 -49.5t-143.5 -159.5q-11 -34 -12 -63.5t4 -42.5l4 -13q18 -40 41 -55t55 -15q18 0 61.5 6t69.5 6q37 0 78 -12q76 -25 107.5 -88.5t5.5 -144.5
q-21 -70 -72 -109t-116 -39q-24 0 -70 11q-73 24 -124.5 82t-74.5 132t-23.5 156.5t23.5 159.5q44 141 161.5 200.5t338.5 59.5h842l43 -149h-23l-2 8q-17 55 -62 88t-104 33h-434v-631h348q37 0 60.5 23.5t23.5 60.5v2h21v-193h-21v2q0 37 -23.5 60.5t-60.5 23.5zM846 -268
q0 60 36.5 97.5t96.5 37.5t96.5 -37.5t36.5 -97.5t-36.5 -96.5t-96.5 -36.5t-96.5 36.5t-36.5 96.5z" />
    <glyph glyph-name="uni1EBA.ss01" horiz-adv-x="1466" 
d="M932 1817q0 51 33.5 83.5t85.5 32.5q54 0 87 -34.5t33 -94.5q0 -91 -68.5 -150t-141.5 -59l-3 15q80 22 107 90q-59 0 -96 29t-37 88zM1161 823h-348v-803h434q59 0 104 33t62 88l2 9h23l-43 -150h-901v20l30 56q33 51 33 114v1283q-209 -2 -317.5 -49.5t-143.5 -159.5
q-11 -34 -12 -63.5t4 -42.5l4 -13q18 -40 41 -55t55 -15q18 0 61.5 6t69.5 6q37 0 78 -12q76 -25 107.5 -88.5t5.5 -144.5q-21 -70 -72 -109t-116 -39q-24 0 -70 11q-73 24 -124.5 82t-74.5 132t-23.5 156.5t23.5 159.5q44 141 161.5 200.5t338.5 59.5h842l43 -149h-23l-2 8
q-17 55 -62 88t-104 33h-434v-631h348q37 0 60.5 23.5t23.5 60.5v2h21v-193h-21v2q0 37 -23.5 60.5t-60.5 23.5z" />
    <glyph glyph-name="uni1EBC.ss01" horiz-adv-x="1466" 
d="M748 1651h-23q3 84 38.5 134t94.5 50q37 0 81.5 -20t78.5 -43.5t74 -43.5t69 -20q24 0 38.5 20.5t14.5 51.5h23q-1 -90 -33 -137.5t-88 -47.5q-39 0 -85 20t-80.5 43.5t-75.5 43.5t-72 20q-25 0 -39 -18.5t-16 -52.5zM1161 823h-348v-803h434q59 0 104 33t62 88l2 9h23
l-43 -150h-901v20l30 56q33 51 33 114v1283q-209 -2 -317.5 -49.5t-143.5 -159.5q-11 -34 -12 -63.5t4 -42.5l4 -13q18 -40 41 -55t55 -15q18 0 61.5 6t69.5 6q37 0 78 -12q76 -25 107.5 -88.5t5.5 -144.5q-21 -70 -72 -109t-116 -39q-24 0 -70 11q-73 24 -124.5 82
t-74.5 132t-23.5 156.5t23.5 159.5q44 141 161.5 200.5t338.5 59.5h842l43 -149h-23l-2 8q-17 55 -62 88t-104 33h-434v-631h348q37 0 60.5 23.5t23.5 60.5v2h21v-193h-21v2q0 37 -23.5 60.5t-60.5 23.5z" />
    <glyph glyph-name="uni1EBE.ss01" horiz-adv-x="1466" 
d="M1481 2028l-297 -187h-29l172 289zM993 1880l267 -194l-101 -111l-180 287l-176 -287l-98 111l264 194h24zM1161 823h-348v-803h434q59 0 104 33t62 88l2 9h23l-43 -150h-901v20l30 56q33 51 33 114v1283q-209 -2 -317.5 -49.5t-143.5 -159.5q-11 -34 -12 -63.5t4 -42.5
l4 -13q18 -40 41 -55t55 -15q18 0 61.5 6t69.5 6q37 0 78 -12q76 -25 107.5 -88.5t5.5 -144.5q-21 -70 -72 -109t-116 -39q-24 0 -70 11q-73 24 -124.5 82t-74.5 132t-23.5 156.5t23.5 159.5q44 141 161.5 200.5t338.5 59.5h842l43 -149h-23l-2 8q-17 55 -62 88t-104 33
h-434v-631h348q37 0 60.5 23.5t23.5 60.5v2h21v-193h-21v2q0 37 -23.5 60.5t-60.5 23.5z" />
    <glyph glyph-name="uni1EC0.ss01" horiz-adv-x="1466" 
d="M1247 1841l-297 187l154 102l172 -289h-29zM993 1880l267 -194l-101 -111l-180 287l-176 -287l-98 111l264 194h24zM1161 823h-348v-803h434q59 0 104 33t62 88l2 9h23l-43 -150h-901v20l30 56q33 51 33 114v1283q-209 -2 -317.5 -49.5t-143.5 -159.5q-11 -34 -12 -63.5
t4 -42.5l4 -13q18 -40 41 -55t55 -15q18 0 61.5 6t69.5 6q37 0 78 -12q76 -25 107.5 -88.5t5.5 -144.5q-21 -70 -72 -109t-116 -39q-24 0 -70 11q-73 24 -124.5 82t-74.5 132t-23.5 156.5t23.5 159.5q44 141 161.5 200.5t338.5 59.5h842l43 -149h-23l-2 8q-17 55 -62 88
t-104 33h-434v-631h348q37 0 60.5 23.5t23.5 60.5v2h21v-193h-21v2q0 37 -23.5 60.5t-60.5 23.5z" />
    <glyph glyph-name="uni1EC2.ss01" horiz-adv-x="1466" 
d="M1133 2042q0 51 33 84t85 33q55 0 88 -35t33 -94q0 -91 -69 -150t-142 -59l-2 14q80 22 107 90q-59 0 -96 29t-37 88zM993 1880l267 -194l-101 -111l-180 287l-176 -287l-98 111l264 194h24zM1161 823h-348v-803h434q59 0 104 33t62 88l2 9h23l-43 -150h-901v20l30 56
q33 51 33 114v1283q-209 -2 -317.5 -49.5t-143.5 -159.5q-11 -34 -12 -63.5t4 -42.5l4 -13q18 -40 41 -55t55 -15q18 0 61.5 6t69.5 6q37 0 78 -12q76 -25 107.5 -88.5t5.5 -144.5q-21 -70 -72 -109t-116 -39q-24 0 -70 11q-73 24 -124.5 82t-74.5 132t-23.5 156.5
t23.5 159.5q44 141 161.5 200.5t338.5 59.5h842l43 -149h-23l-2 8q-17 55 -62 88t-104 33h-434v-631h348q37 0 60.5 23.5t23.5 60.5v2h21v-193h-21v2q0 37 -23.5 60.5t-60.5 23.5z" />
    <glyph glyph-name="uni1EC4.ss01" horiz-adv-x="1466" 
d="M768 1972h-23q3 84 39 134.5t95 50.5q37 0 81.5 -20t78.5 -43.5t74 -43.5t69 -20q24 0 38.5 20t14.5 51h22q-1 -90 -32.5 -137t-87.5 -47q-39 0 -85 20t-80.5 43.5t-76 43.5t-72.5 20q-25 0 -39 -19t-16 -53zM993 1880l267 -194l-101 -111l-180 287l-176 -287l-98 111
l264 194h24zM1161 823h-348v-803h434q59 0 104 33t62 88l2 9h23l-43 -150h-901v20l30 56q33 51 33 114v1283q-209 -2 -317.5 -49.5t-143.5 -159.5q-11 -34 -12 -63.5t4 -42.5l4 -13q18 -40 41 -55t55 -15q18 0 61.5 6t69.5 6q37 0 78 -12q76 -25 107.5 -88.5t5.5 -144.5
q-21 -70 -72 -109t-116 -39q-24 0 -70 11q-73 24 -124.5 82t-74.5 132t-23.5 156.5t23.5 159.5q44 141 161.5 200.5t338.5 59.5h842l43 -149h-23l-2 8q-17 55 -62 88t-104 33h-434v-631h348q37 0 60.5 23.5t23.5 60.5v2h21v-193h-21v2q0 37 -23.5 60.5t-60.5 23.5z" />
    <glyph glyph-name="uni1EC6.ss01" horiz-adv-x="1466" 
d="M993 1880l267 -194l-101 -111l-180 287l-176 -287l-98 111l264 194h24zM1161 823h-348v-803h434q59 0 104 33t62 88l2 9h23l-43 -150h-901v20l30 56q33 51 33 114v1283q-209 -2 -317.5 -49.5t-143.5 -159.5q-11 -34 -12 -63.5t4 -42.5l4 -13q18 -40 41 -55t55 -15
q18 0 61.5 6t69.5 6q37 0 78 -12q76 -25 107.5 -88.5t5.5 -144.5q-21 -70 -72 -109t-116 -39q-24 0 -70 11q-73 24 -124.5 82t-74.5 132t-23.5 156.5t23.5 159.5q44 141 161.5 200.5t338.5 59.5h842l43 -149h-23l-2 8q-17 55 -62 88t-104 33h-434v-631h348q37 0 60.5 23.5
t23.5 60.5v2h21v-193h-21v2q0 37 -23.5 60.5t-60.5 23.5zM846 -268q0 60 36.5 97.5t96.5 37.5t96.5 -37.5t36.5 -97.5t-36.5 -96.5t-96.5 -36.5t-96.5 36.5t-36.5 96.5z" />
    <glyph glyph-name="agrave.ss01" horiz-adv-x="1546" 
d="M582 1165l-297 187l153 102l172 -289h-28zM416 -23q-154 0 -258.5 98t-104.5 251q0 152 102.5 254t256.5 102q109 0 188 -57t113 -156v207q0 193 -54 293t-155 100q-33 0 -65 -11t-46 -32q-15 -18 -16 -48t6 -57t15 -61t8 -53q0 -44 -37 -75.5t-97 -31.5q-63 0 -100 37
t-37 97q0 103 109 179.5t276 76.5q89 0 166 -24t143 -74.5t104 -140.5t38 -210v-621q210 5 318.5 52.5t142.5 158.5q5 16 7.5 30.5t3.5 26t0.5 21.5t-2 17.5l-2.5 12.5t-2 8l-1 3q-32 70 -97 70q-18 0 -63 -6t-72 -6q-40 0 -74 10q-77 25 -108 88t-6 145q22 71 71.5 110.5
t116.5 39.5q31 0 72 -13q58 -18 103 -59t71 -95.5t38.5 -118t8.5 -129.5t-22 -126q-43 -142 -161.5 -201t-340.5 -59h-90q-75 0 -122.5 46.5t-47.5 121.5v12q-33 -96 -109.5 -149.5t-187.5 -53.5zM512 41q90 0 145.5 71t55.5 203v25q-2 113 -56 189.5t-143 76.5
q-92 0 -148.5 -81.5t-56.5 -211.5q0 -124 55.5 -198t147.5 -74z" />
    <glyph glyph-name="aacute.ss01" horiz-adv-x="1546" 
d="M778 1352l-297 -187h-28l172 289zM416 -23q-154 0 -258.5 98t-104.5 251q0 152 102.5 254t256.5 102q109 0 188 -57t113 -156v207q0 193 -54 293t-155 100q-33 0 -65 -11t-46 -32q-15 -18 -16 -48t6 -57t15 -61t8 -53q0 -44 -37 -75.5t-97 -31.5q-63 0 -100 37t-37 97
q0 103 109 179.5t276 76.5q89 0 166 -24t143 -74.5t104 -140.5t38 -210v-621q210 5 318.5 52.5t142.5 158.5q5 16 7.5 30.5t3.5 26t0.5 21.5t-2 17.5l-2.5 12.5t-2 8l-1 3q-32 70 -97 70q-18 0 -63 -6t-72 -6q-40 0 -74 10q-77 25 -108 88t-6 145q22 71 71.5 110.5
t116.5 39.5q31 0 72 -13q58 -18 103 -59t71 -95.5t38.5 -118t8.5 -129.5t-22 -126q-43 -142 -161.5 -201t-340.5 -59h-90q-75 0 -122.5 46.5t-47.5 121.5v12q-33 -96 -109.5 -149.5t-187.5 -53.5zM512 41q90 0 145.5 71t55.5 203v25q-2 113 -56 189.5t-143 76.5
q-92 0 -148.5 -81.5t-56.5 -211.5q0 -124 55.5 -198t147.5 -74z" />
    <glyph glyph-name="acircumflex.ss01" horiz-adv-x="1546" 
d="M559 1450l266 -195l-100 -110l-180 287l-176 -287l-99 110l265 195h24zM416 -23q-154 0 -258.5 98t-104.5 251q0 152 102.5 254t256.5 102q109 0 188 -57t113 -156v207q0 193 -54 293t-155 100q-33 0 -65 -11t-46 -32q-15 -18 -16 -48t6 -57t15 -61t8 -53
q0 -44 -37 -75.5t-97 -31.5q-63 0 -100 37t-37 97q0 103 109 179.5t276 76.5q89 0 166 -24t143 -74.5t104 -140.5t38 -210v-621q210 5 318.5 52.5t142.5 158.5q5 16 7.5 30.5t3.5 26t0.5 21.5t-2 17.5l-2.5 12.5t-2 8l-1 3q-32 70 -97 70q-18 0 -63 -6t-72 -6q-40 0 -74 10
q-77 25 -108 88t-6 145q22 71 71.5 110.5t116.5 39.5q31 0 72 -13q58 -18 103 -59t71 -95.5t38.5 -118t8.5 -129.5t-22 -126q-43 -142 -161.5 -201t-340.5 -59h-90q-75 0 -122.5 46.5t-47.5 121.5v12q-33 -96 -109.5 -149.5t-187.5 -53.5zM512 41q90 0 145.5 71t55.5 203v25
q-2 113 -56 189.5t-143 76.5q-92 0 -148.5 -81.5t-56.5 -211.5q0 -124 55.5 -198t147.5 -74z" />
    <glyph glyph-name="atilde.ss01" horiz-adv-x="1546" 
d="M315 1221h-22q3 84 38.5 134t94.5 50q37 0 81.5 -20t78.5 -43.5t74 -43.5t69 -20q24 0 38.5 20.5t14.5 51.5h23q-1 -90 -33 -137.5t-88 -47.5q-39 0 -85 20t-80.5 43.5t-75.5 43.5t-72 20q-25 0 -40 -18.5t-16 -52.5zM416 -23q-154 0 -258.5 98t-104.5 251
q0 152 102.5 254t256.5 102q109 0 188 -57t113 -156v207q0 193 -54 293t-155 100q-33 0 -65 -11t-46 -32q-15 -18 -16 -48t6 -57t15 -61t8 -53q0 -44 -37 -75.5t-97 -31.5q-63 0 -100 37t-37 97q0 103 109 179.5t276 76.5q89 0 166 -24t143 -74.5t104 -140.5t38 -210v-621
q210 5 318.5 52.5t142.5 158.5q5 16 7.5 30.5t3.5 26t0.5 21.5t-2 17.5l-2.5 12.5t-2 8l-1 3q-32 70 -97 70q-18 0 -63 -6t-72 -6q-40 0 -74 10q-77 25 -108 88t-6 145q22 71 71.5 110.5t116.5 39.5q31 0 72 -13q58 -18 103 -59t71 -95.5t38.5 -118t8.5 -129.5t-22 -126
q-43 -142 -161.5 -201t-340.5 -59h-90q-75 0 -122.5 46.5t-47.5 121.5v12q-33 -96 -109.5 -149.5t-187.5 -53.5zM512 41q90 0 145.5 71t55.5 203v25q-2 113 -56 189.5t-143 76.5q-92 0 -148.5 -81.5t-56.5 -211.5q0 -124 55.5 -198t147.5 -74z" />
    <glyph glyph-name="abreve.ss01" horiz-adv-x="1546" 
d="M786 1413h19q0 -113 -71 -180.5t-189 -67.5q-116 0 -186 68t-70 180h18q0 -45 65 -85t169 -40q108 0 176.5 40.5t68.5 84.5zM416 -23q-154 0 -258.5 98t-104.5 251q0 152 102.5 254t256.5 102q109 0 188 -57t113 -156v207q0 193 -54 293t-155 100q-33 0 -65 -11t-46 -32
q-15 -18 -16 -48t6 -57t15 -61t8 -53q0 -44 -37 -75.5t-97 -31.5q-63 0 -100 37t-37 97q0 103 109 179.5t276 76.5q89 0 166 -24t143 -74.5t104 -140.5t38 -210v-621q210 5 318.5 52.5t142.5 158.5q5 16 7.5 30.5t3.5 26t0.5 21.5t-2 17.5l-2.5 12.5t-2 8l-1 3
q-32 70 -97 70q-18 0 -63 -6t-72 -6q-40 0 -74 10q-77 25 -108 88t-6 145q22 71 71.5 110.5t116.5 39.5q31 0 72 -13q58 -18 103 -59t71 -95.5t38.5 -118t8.5 -129.5t-22 -126q-43 -142 -161.5 -201t-340.5 -59h-90q-75 0 -122.5 46.5t-47.5 121.5v12q-33 -96 -109.5 -149.5
t-187.5 -53.5zM512 41q90 0 145.5 71t55.5 203v25q-2 113 -56 189.5t-143 76.5q-92 0 -148.5 -81.5t-56.5 -211.5q0 -124 55.5 -198t147.5 -74z" />
    <glyph glyph-name="uni1EA1.ss01" horiz-adv-x="1546" 
d="M416 -23q-154 0 -258.5 98t-104.5 251q0 152 102.5 254t256.5 102q109 0 188 -57t113 -156v207q0 193 -54 293t-155 100q-33 0 -65 -11t-46 -32q-15 -18 -16 -48t6 -57t15 -61t8 -53q0 -44 -37 -75.5t-97 -31.5q-63 0 -100 37t-37 97q0 103 109 179.5t276 76.5
q89 0 166 -24t143 -74.5t104 -140.5t38 -210v-621q210 5 318.5 52.5t142.5 158.5q5 16 7.5 30.5t3.5 26t0.5 21.5t-2 17.5l-2.5 12.5t-2 8l-1 3q-32 70 -97 70q-18 0 -63 -6t-72 -6q-40 0 -74 10q-77 25 -108 88t-6 145q22 71 71.5 110.5t116.5 39.5q31 0 72 -13
q58 -18 103 -59t71 -95.5t38.5 -118t8.5 -129.5t-22 -126q-43 -142 -161.5 -201t-340.5 -59h-90q-75 0 -122.5 46.5t-47.5 121.5v12q-33 -96 -109.5 -149.5t-187.5 -53.5zM512 41q90 0 145.5 71t55.5 203v25q-2 113 -56 189.5t-143 76.5q-92 0 -148.5 -81.5t-56.5 -211.5
q0 -124 55.5 -198t147.5 -74zM371 -268q0 60 36.5 97.5t96.5 37.5t96.5 -37.5t36.5 -97.5t-36.5 -96.5t-96.5 -36.5t-96.5 36.5t-36.5 96.5z" />
    <glyph glyph-name="uni1EA3.ss01" horiz-adv-x="1546" 
d="M479 1386q0 51 33.5 84t85.5 33q55 0 88 -35t33 -94q0 -91 -69 -150t-142 -59l-2 15q79 22 106 90q-59 0 -96 29t-37 87zM416 -23q-154 0 -258.5 98t-104.5 251q0 152 102.5 254t256.5 102q109 0 188 -57t113 -156v207q0 193 -54 293t-155 100q-33 0 -65 -11t-46 -32
q-15 -18 -16 -48t6 -57t15 -61t8 -53q0 -44 -37 -75.5t-97 -31.5q-63 0 -100 37t-37 97q0 103 109 179.5t276 76.5q89 0 166 -24t143 -74.5t104 -140.5t38 -210v-621q210 5 318.5 52.5t142.5 158.5q5 16 7.5 30.5t3.5 26t0.5 21.5t-2 17.5l-2.5 12.5t-2 8l-1 3
q-32 70 -97 70q-18 0 -63 -6t-72 -6q-40 0 -74 10q-77 25 -108 88t-6 145q22 71 71.5 110.5t116.5 39.5q31 0 72 -13q58 -18 103 -59t71 -95.5t38.5 -118t8.5 -129.5t-22 -126q-43 -142 -161.5 -201t-340.5 -59h-90q-75 0 -122.5 46.5t-47.5 121.5v12q-33 -96 -109.5 -149.5
t-187.5 -53.5zM512 41q90 0 145.5 71t55.5 203v25q-2 113 -56 189.5t-143 76.5q-92 0 -148.5 -81.5t-56.5 -211.5q0 -124 55.5 -198t147.5 -74z" />
    <glyph glyph-name="uni1EA5.ss01" horiz-adv-x="1546" 
d="M1047 1597l-297 -186h-29l172 289zM559 1450l266 -195l-100 -110l-180 287l-176 -287l-99 110l265 195h24zM416 -23q-154 0 -258.5 98t-104.5 251q0 152 102.5 254t256.5 102q109 0 188 -57t113 -156v207q0 193 -54 293t-155 100q-33 0 -65 -11t-46 -32q-15 -18 -16 -48
t6 -57t15 -61t8 -53q0 -44 -37 -75.5t-97 -31.5q-63 0 -100 37t-37 97q0 103 109 179.5t276 76.5q89 0 166 -24t143 -74.5t104 -140.5t38 -210v-621q210 5 318.5 52.5t142.5 158.5q5 16 7.5 30.5t3.5 26t0.5 21.5t-2 17.5l-2.5 12.5t-2 8l-1 3q-32 70 -97 70q-18 0 -63 -6
t-72 -6q-40 0 -74 10q-77 25 -108 88t-6 145q22 71 71.5 110.5t116.5 39.5q31 0 72 -13q58 -18 103 -59t71 -95.5t38.5 -118t8.5 -129.5t-22 -126q-43 -142 -161.5 -201t-340.5 -59h-90q-75 0 -122.5 46.5t-47.5 121.5v12q-33 -96 -109.5 -149.5t-187.5 -53.5zM512 41
q90 0 145.5 71t55.5 203v25q-2 113 -56 189.5t-143 76.5q-92 0 -148.5 -81.5t-56.5 -211.5q0 -124 55.5 -198t147.5 -74z" />
    <glyph glyph-name="uni1EA7.ss01" horiz-adv-x="1546" 
d="M813 1411l-297 186l154 103l172 -289h-29zM559 1450l266 -195l-100 -110l-180 287l-176 -287l-99 110l265 195h24zM416 -23q-154 0 -258.5 98t-104.5 251q0 152 102.5 254t256.5 102q109 0 188 -57t113 -156v207q0 193 -54 293t-155 100q-33 0 -65 -11t-46 -32
q-15 -18 -16 -48t6 -57t15 -61t8 -53q0 -44 -37 -75.5t-97 -31.5q-63 0 -100 37t-37 97q0 103 109 179.5t276 76.5q89 0 166 -24t143 -74.5t104 -140.5t38 -210v-621q210 5 318.5 52.5t142.5 158.5q5 16 7.5 30.5t3.5 26t0.5 21.5t-2 17.5l-2.5 12.5t-2 8l-1 3
q-32 70 -97 70q-18 0 -63 -6t-72 -6q-40 0 -74 10q-77 25 -108 88t-6 145q22 71 71.5 110.5t116.5 39.5q31 0 72 -13q58 -18 103 -59t71 -95.5t38.5 -118t8.5 -129.5t-22 -126q-43 -142 -161.5 -201t-340.5 -59h-90q-75 0 -122.5 46.5t-47.5 121.5v12q-33 -96 -109.5 -149.5
t-187.5 -53.5zM512 41q90 0 145.5 71t55.5 203v25q-2 113 -56 189.5t-143 76.5q-92 0 -148.5 -81.5t-56.5 -211.5q0 -124 55.5 -198t147.5 -74z" />
    </font>
</defs>
</svg>
