<svg xmlns="http://www.w3.org/2000/svg">
<defs>
<font id="UTMAmericana" horiz-adv-x="1593" >
  <font-face 
    font-family="UTM Americana"
    font-weight="400"
    font-stretch="normal"
    units-per-em="2048"
    panose-1="2 4 6 3 5 5 6 2 2 4"
    ascent="1638"
    descent="-410"
    x-height="1065"
    cap-height="1319"
    bbox="-133 -512 4942 2048"
    underline-thickness="109"
    underline-position="-143"
    unicode-range="U+0020-U+2026"
  />
<missing-glyph horiz-adv-x="5040" 
d="M3351 2045h10c24.667 -6.66699 37 -24 37 -52c0 -8 -10.667 -27 -32 -57h-28c0 16 9.33301 34 28 54l2 10c-3.33301 8.66699 -6.66602 13.667 -10 15h-9c-5.33301 0 -8.66602 -6.33301 -10 -19h-30c4 32.667 18 49 42 49zM2019 2016l29.001 -31
c0 -10.667 -13.333 -20.667 -40 -30h-19l-59 12l-11 -12l-28 25c7.33301 19.333 21.666 29 42.999 29h11l42 -11h2c6.66699 0 16.667 6 30 18zM468.001 1980h142v-60h-94v-75h89v-59h-89v-129l-5 -5h-49v323zM1155 1980h43l6 -5v-78h30v-52h-30v-188l-6 -5h-49v193h-25v52
h25v78zM1621 1980h41.999l4 -5v-94h3c15.333 16 33.333 24 54 24h2c38.667 0 66.334 -23.667 83.001 -71l2 -39v-143h-52v115c0 53.333 -14 80 -42 80h-7c-28.667 0 -43 -28.667 -43 -86v-109h-51v323zM2200 1980l49 -0.000976562l5 -5v-222c6.66699 -34 21.667 -51 45 -51
c29.333 4.66699 44 24.334 44 59.001v214l5 5h49v-216c0 -56.667 -22 -94 -66 -112c-10 -5.33301 -21.667 -8 -35 -8c-31.333 0 -58.666 18.333 -82 55c-9.33301 16 -14 35 -14 57v224zM2435 1980h159v-60h-56v-268h-53v268h-55v55zM2621 1980l71 0.000976562
c4.66699 -2.66699 32.334 -86.334 83 -251.001h2l80 251h73v-328h-54v242h-2l-74 -242h-44c-2.66699 0 -22 60.667 -58 182l-19 60h-3v-242h-55v328zM3760 1980l52 -0.000976562v-328h-45l-5 5v11l3 2l-3 14c-19.333 -26.667 -45.333 -40 -78 -40
c-44.667 0 -78 30.333 -100 91l-5 39v3c0 62.667 30.667 104.334 92 125.001l23 3c23.333 0 44.333 -10.667 63 -32h3v107zM2057 1928l36 0.00195312l4 -6v-49h-45v-221h-48v23c-15.333 -20.667 -35 -31 -59 -31c-59.333 9.33301 -89 41.666 -89 96.999v156h51v-104

<glyph glyph-name=".notdef" horiz-adv-x="5040" 
d="M3351 2045h10c24.667 -6.66699 37 -24 37 -52c0 -8 -10.667 -27 -32 -57h-28c0 16 9.33301 34 28 54l2 10c-3.33301 8.66699 -6.66602 13.667 -10 15h-9c-5.33301 0 -8.66602 -6.33301 -10 -19h-30c4 32.667 18 49 42 49zM2019 2016l29.001 -31
c0 -10.667 -13.333 -20.667 -40 -30h-19l-59 12l-11 -12l-28 25c7.33301 19.333 21.666 29 42.999 29h11l42 -11h2c6.66699 0 16.667 6 30 18zM468.001 1980h142v-60h-94v-75h89v-59h-89v-129l-5 -5h-49v323zM1155 1980h43l6 -5v-78h30v-52h-30v-188l-6 -5h-49v193h-25v52
h25v78zM1621 1980h41.999l4 -5v-94h3c15.333 16 33.333 24 54 24h2c38.667 0 66.334 -23.667 83.001 -71l2 -39v-143h-52v115c0 53.333 -14 80 -42 80h-7c-28.667 0 -43 -28.667 -43 -86v-109h-51v323zM2200 1980l49 -0.000976562l5 -5v-222c6.66699 -34 21.667 -51 45 -51
c29.333 4.66699 44 24.334 44 59.001v214l5 5h49v-216c0 -56.667 -22 -94 -66 -112c-10 -5.33301 -21.667 -8 -35 -8c-31.333 0 -58.666 18.333 -82 55c-9.33301 16 -14 35 -14 57v224zM2435 1980h159v-60h-56v-268h-53v268h-55v55zM2621 1980l71 0.000976562
c4.66699 -2.66699 32.334 -86.334 83 -251.001h2l80 251h73v-328h-54v242h-2l-74 -242h-44c-2.66699 0 -22 60.667 -58 182l-19 60h-3v-242h-55v328zM3760 1980l52 -0.000976562v-328h-45l-5 5v11l3 2l-3 14c-19.333 -26.667 -45.333 -40 -78 -40
c-44.667 0 -78 30.333 -100 91l-5 39v3c0 62.667 30.667 104.334 92 125.001l23 3c23.333 0 44.333 -10.667 63 -32h3v107zM2057 1928l36 0.00195312l4 -6v-49h-45v-221h-48v23c-15.333 -20.667 -35 -31 -59 -31c-59.333 9.33301 -89 41.666 -89 96.999v156h51v-104
c0 -52.667 8.66699 -81.334 26 -86.001l18 -5h6c17.333 0 30.333 12 39 36l3 26v133h53v25zM3476 1928v-55h-31v-221h-47v25h-2c-10 -22 -29 -33 -57 -33c-45.333 0 -74 26 -86 78l-3 29v146h52v-120c0 -33.333 6.33301 -56 19 -68l21 -7h9c28 0 42 23 42 69v126h27
c2.66699 0 4 9.33301 4 28l3 3h49zM758 1905c45.333 0 79.667 -25.667 103 -77c6 -12 10 -30 12 -54c0 -58.667 -30 -101 -90 -127l-32 -3c-42 0 -75.667 24.333 -101 73c-8 14.667 -12 32 -12 52v10c0 62.667 33.667 104.667 101 126h19zM1011 1905h3
c49.333 0 77 -33.667 83 -101v-152h-51v119c0 50.667 -14 76 -42 76h-5c-29.333 0 -44 -25.333 -44 -76v-119h-52v245h46v-21c20 19.333 40.667 29 62 29zM1466 1905l7 -0.000976562c48 0 83 -29.667 105 -89h-60c-10.667 20.667 -24.667 31 -42 31h-17
c-35.333 -9.33301 -53 -29.666 -53 -60.999l-3 -15c8 -46 28.333 -69 61 -69h9c14.667 0 30.334 9 47.001 27h40l2 3h3l2 -3l2 3l3 -3l2 3l2 -7c-22 -54 -58.667 -81 -110 -81c-50.667 0 -87.334 31.333 -110.001 94l-4 36v3c0 56.667 25.667 96.667 77 120
c10 5.33301 22.333 8 37 8zM3141 1905h1.99902c32.667 0 56 -20 70 -60v-14h-52c0 10.667 -5.33301 16 -16 16h-4c-9.33301 0 -15.666 -4.33301 -18.999 -13v-13c0 -6 22.667 -17.667 68 -35c20 -12.667 30 -32.334 30 -59.001c0 -38.667 -20.333 -65.334 -61 -80.001
l-23 -3c-50.667 8 -76 35.667 -76 83h54c0 -13.333 9 -21.666 27 -24.999h4c12.667 0 20.667 7.66699 24 23c0 14.667 -22.667 29.334 -68 44.001c-22.667 18 -34 37.667 -34 59c0 44 24.667 69.667 74 77zM4203 1905c36.666 0 62.333 -21 77 -63
c4.66602 -12 7 -33.667 7 -65v-125h-52v112c0 55.333 -13.334 83 -40 83h-11c-22 0 -35.334 -18 -40 -54v-141h-52v5h-2l2 2v238h47v-21c16.666 19.333 38 29 64 29zM4432 1905h5c26.666 0 49.666 -13.333 69 -40v18l-3 3l3 11h47v-208c0 -64.667 -28.334 -108.667 -85 -132
l-33 -4h-7c-46.666 0 -81.333 26.667 -104 80h59c16 -14.667 31 -22.334 45 -23.001h13c14.666 0 29 7.33301 43 22c10 8.66699 17.334 26 22 52h-3c-21.334 -26.667 -45.667 -40 -73 -40c-38 0 -70 23.333 -96 70c-6.66602 12 -11.333 33 -14 63
c0 58.667 29 100.334 87 125.001zM3851 1897l53 -0.000976562v-136c4 -39.333 17.333 -59 40 -59h7c30.667 0 46 31 46 93v102h51v-245h-47l-3 10h3l-3 3v5l3 2v3h-4c0 -15.333 -19 -25.666 -57 -30.999h-3c-39.333 0 -67.333 25 -84 75l-2 85v93zM690 1771
c6.66699 -46 27.6689 -69 63.002 -69h7c39.333 9.33301 59 31 59 65v15c-8.66699 43.333 -28.334 65 -59.001 65h-5c-38.667 0 -60.334 -25.333 -65.001 -76zM3630 1774c8.66699 -48 29 -72 61 -72h5c38.667 0 60.667 25 66 75c0 32.667 -17 56 -51 70h-22
c-24.667 0 -43.334 -19 -56 -57zM4374 1774c5.33398 -48 27 -71.999 65 -71.999h5c39.334 8 59 32 59 72c0 40.667 -19.666 65 -59 73h-14c-37.334 -10.667 -56 -31.334 -56 -62.001v-11zM3928 1620h52v-57h-52v57zM1054 1402c28.667 -7.33301 43 -23.667 43 -49v-4
c0 -11.333 -10.667 -31.333 -32 -60h-28c0 16.667 10.333 35.667 31 57v7c0 8 -2.33301 13 -7 15h-12c-6.66699 -2.66699 -10 -9 -10 -19h-28v6c0 21.333 11 36 33 44zM3349 1339c61.333 0 107.333 -33.001 138 -99.001h-60c-24.667 28 -51.334 42 -80 42
c-36.667 0 -65.667 -22.667 -87 -68c-6.66699 -14.667 -10 -30.334 -10 -47.001c0 -52 27 -88.667 81 -110l18 -1c24 0 49 13 75 39h61c-29.333 -64.667 -75.333 -97 -138 -97c-62 0 -109 37.333 -141 112c-6.66699 20.667 -10 41.334 -10 62.001
c0 64.667 30 115.334 90 152.001c19.333 10 40.333 15 63 15zM3664 1339c38 0 72.333 -15.666 103 -46.999c30.667 -34 46 -72.333 46 -115v-20c0 -59.333 -30.333 -108 -91 -146c-22 -8.66699 -43 -13 -63 -13c-59.333 0 -105.333 33.667 -138 101
c-8.66699 22 -13 42 -13 60v18c0 65.333 32.667 115.666 98 150.999c19.333 7.33301 38.666 11 58 11zM2261 1337h2l47 -11h3c7.33301 0 16 3.66699 26 11l18 -36c-12 -12.667 -23.667 -19 -35 -19h-3l-54 10l-20 -7l-20 36c12 10.667 24 16 36 16zM716.002 1334h19
c78.667 0 121.667 -8.66699 129 -26c16.667 -17.333 25 -38 25 -62c-6.66699 -38 -16.667 -57 -30 -57v-6c31.333 -15.333 47 -37.333 47 -66v-18c0 -42 -23 -71.333 -69 -88l-54 -5h-67v328zM2550 1334h53v-217c4 -40.667 19 -61 45 -61c19.333 0 34 13 44 39l3 30v203l4 6
h45l5 -6v-171c0 -78.667 -13.333 -123 -40 -133c-16 -17.333 -37.333 -26 -64 -26c-36.667 0 -67 25.333 -91 76l-4 54v206zM2805 1334h59c2.66699 0 43.334 -79 122 -237h4v237h50l4 -6v-322h-58c-19.333 32 -61 111.333 -125 238h-3v-238h-53v328zM3101 1334h54v-328h-54
v328zM3859 1334l8 0.000976562c103.333 0 161.333 -13.333 174 -40c15.333 -7.33301 31 -32.333 47 -75l4 -36v-11l3 -2c0 -62.667 -27.333 -112.334 -82 -149.001c-23.333 -10 -56.333 -15 -99 -15h-55v328zM4141 1334h153v-60h-103v-75h101v-57h-101v-74l4 -5h99v-57h-157
v322zM3563 1175v-10c0 -50.667 26.333 -86.667 79 -108l19 -1c45.333 0 77.333 28.667 96 86l3 20v15c0 40.667 -20 72 -60 94c-8 5.33301 -21 9 -39 11c-44 0 -76 -27.667 -96 -83zM770.002 1274v-67h9c36 0 54 9.33301 54 28l3 14c-7.33301 16.667 -17 25 -29 25h-37z
M3912 1274v-206.001l2 -3v-2c69.333 0 110 25.333 122 76l2 15v29c0 22.667 -10.667 45.334 -32 68.001c-16.667 15.333 -42.667 23 -78 23h-16zM1041 1259h5c25.333 0 49 -13.333 71 -40v32h49v-245h-49v32c-24 -26.667 -50.667 -40 -80 -40c-50 0 -83.667 32.333 -101 97
l-5 36c0 59.333 28.333 101 85 125zM1314 1259h3c49.333 0 77 -34 83 -102v-151h-51v128c0 44.667 -14 67 -42 67h-10c-22.667 0 -35.667 -20.667 -39 -62v-133h-52v245h47v-21c18.667 19.333 39 29 61 29zM1543 1259h5c30 0 53.667 -13.333 71 -40v32h47v-219
c0 -63.333 -34.667 -105.333 -104 -126h-16c-49.333 0 -85.333 27.333 -108 82h59c17.333 -16.667 32 -25 44 -25h14c34.667 0 56 25.667 64 77c-22 -28 -47.333 -42 -76 -42c-40 0 -73.667 27 -101 81l-7 44v16c0 52.667 28.333 91.667 85 117zM1912 1259l2 0.000976562
c28.667 0 49 -12.333 61 -37h2c21.333 24.667 44.333 37 69 37h4c38 0 64.333 -18.333 79 -55c5.33301 -16.667 8 -31.667 8 -45v-153h-52v138c0 29.333 -7.66699 47.666 -23 54.999l-12 2h-15c-21.333 0 -33.333 -21.667 -36 -65v-130h-52v136c0 39.333 -14.333 59 -43 59
h-8c-21.333 0 -33.333 -19 -36 -57v-138h-54v245h50v-21h2c4 16 22 25.667 54 29zM2282 1259c31.333 0 56.333 -14 75 -42v34h47v-245h-47v32c-24 -26.667 -50 -40 -78 -40c-49.333 0 -83.333 30.667 -102 92l-6 41c0 60 28.333 101.667 85 125zM985.002 1117
c0 -32 20.333 -52.333 61 -61h4c30 0 50.667 15.333 62 46l3 15v22c-8 41.333 -27 62 -57 62h-14c-27.333 0 -47 -19 -59 -57v-27zM1487 1128c0 -32 14.332 -54.667 42.999 -68l18 -4h5c31.333 0 52.333 19 63 57v23c-7.33301 43.333 -26.666 65 -57.999 65h-12
c-33.333 0 -53 -24.333 -59 -73zM2225 1131v-14.001c10 -40.667 29 -61 57 -61h14c38.667 8 58 29.333 58 64v11c0 30 -12.333 51.667 -37 65l-18 5h-10c-42.667 -5.33301 -64 -28.666 -64 -69.999zM770.001 1150v-82c0 -3.33301 2.33301 -5 7 -5c51.333 0 77 15 77 45
c0 22.667 -15.667 36.667 -47 42h-37zM2966 752.999l24 -28l-51 -55c-12 8 -21 16.667 -27 26zM1524 726.999l85 -54c0 -10 -7 -24 -21 -42l-87 54c12 27.333 19.667 41.333 23 42zM2850 692.999h38l55 -60h-54l-21 26l-23 -26h-54c36 40 55.667 60 59 60zM3422 692.999h40
l56 -60h-54l-24 26h-1c0 -3.33301 -6.33301 -12 -19 -26h-54zM622.001 684.999l52 0.00195312c5.33301 -2.66699 21 -48.334 47 -137.001l34 -110c6 5.33301 17.333 38.666 34 99.999l48 147h54v-2l-112 -326h-44zM1159 685.001h51v-54h-51v54zM1354 685.001h46l6 -5v-323
h-52v328zM2317 685.001h45l4 -5v-78h31v-52h-31v-193h-53v193h-26v52h26v78zM2425 685.001h52v-98h2c15.333 15.333 33.333 23 54 23h3c38 0 65 -23.667 81 -71l3 -38v-144h-52v115c0 54 -13 81 -39 81h-10c-28 0 -42 -29 -42 -87v-109h-52v328zM2664 685.001h52v-54h-52v54
zM3028 685.001h44l6 -5v-78h29v-52h-29v-193h-54v193h-27v52h27v78zM3234 685.001h52v-328h-52v328zM3957 685.001h52v-328h-52v328zM4316 685.001h51v-54h-51v54zM1555 610.001h5c55.333 0 92 -34 110 -102l3 -23v-11c0 -55.333 -28.333 -95.333 -85 -120l-35 -5
c-50.667 0 -87.667 32.333 -111 97l-4 32c0 64.667 31 108 93 130zM1811 610.001h4c35.333 0 61.333 -20 78 -60c4.66699 -16.667 7 -43.667 7 -81v-112h-54v146c-4.66699 33.333 -17 50 -37 50h-10c-25.333 0 -39.333 -19 -42 -57v-139h-54v245h49v-21
c17.333 19.333 37 29 59 29zM2046 610.001h4.00098c30 0 51 -13 63 -39h3v31h49v-206c0 -68 -29.667 -113 -89 -135l-28 -3h-5c-48.667 0 -84 27 -106 81h52l37 -20l15 -3h14c33.333 0 53.666 24 60.999 72c-22 -26 -46.333 -39 -73 -39c-41.333 0 -74 25.333 -98 76
c-7.33301 15.333 -11.333 35.333 -12 60c0 56.667 28.667 97.667 86 123zM2866 610.001l2 -0.000976562c54.667 0 91.667 -34.667 111 -104l2 -25l-2 -27h-172c10 -30 25 -45 45 -45l14 -3c19.333 0 35.666 7.33301 49 22h57v-3c-23.333 -50.667 -59.333 -76 -108 -76
c-51.333 0 -88.333 32.333 -111 97l-1 28v8c0 32.667 10.667 62.334 32 89.001c22.667 26 50 39 82 39zM3429 610h5c27.333 0 50.666 -13 70 -39h2v31h47v-245h-47v31h-2c-23.333 -26 -49 -39 -77 -39c-47.333 0 -81 29.667 -101 89l-5 36v14c0 57.333 28 97.333 84 120z
M3711 610l7 -0.000976562c58.667 0 94.334 -42.667 107 -128l-2 -1v-15c0 -43.333 -22 -78.666 -66 -105.999c-14 -7.33301 -29.333 -11 -46 -11c-22.667 0 -44 10.667 -64 32v-99l-5 -5h-49v325h49v-28c20.667 24 43.667 36 69 36zM4151 609.999
c29.334 0 54.334 -13 75 -39v31h49v-245h-49v31c-23.334 -26 -49 -39 -77 -39c-61.333 0 -97.333 44 -108 132c0 56 24.333 96.333 73 121c10 5.33301 22.334 8 37 8zM922.002 601.999h50v-136c2 -40 16 -60 42 -60h5c29.333 0 44 29 44 87v109h52v-245h-47v24h-5
c0 -15.333 -18.667 -26 -56 -32h-3c-36.667 0 -64 22.667 -82 68c-2.66699 23.333 -4 56.333 -4 99v81zM1159 601.999h51v-245h-51v245zM2664 601.999h52v-245h-52v245zM4316 601.999h51v-245h-51v245zM1492 487.999v-15.999c8.66699 -44 28.334 -66 59.001 -66h4
c39.333 0 61.333 25.333 66 76c-8.66699 47.333 -28.334 71 -59.001 71h-11c-39.333 -10.667 -59 -32.334 -59 -65.001zM1987 472c10 -44 29.667 -66 59 -66h11c32 0 51.667 25 59 75v1c-8.66699 47.333 -28.334 71 -59 71h-14c-26 0 -44.667 -19 -56 -57v-24zM2805 506h122
v2c-10.667 30 -30.334 45 -59 45h-7c-23.333 0 -42 -15.667 -56 -47zM3373 474c8.66699 -45.333 29 -68 61 -68h5c34.667 0 56.334 21 65 63v12c-6.66699 48 -25.667 72 -57 72h-16c-37.333 -9.33301 -56 -30.333 -56 -63zM3642 478c8 -48 28.333 -72.001 61 -72.001h3
c33.333 0 55 20 65 60v22c0 28.667 -16.333 50.334 -49 65.001h-22c-31.333 0 -50.666 -24 -58 -72v-3zM4095 471.999c6.66602 -44 28.666 -66 66 -66c28.666 0 49 16 61 48l2 15v16c0 36 -17.334 58.667 -52 68h-18c-28 0 -47.666 -20 -59 -60v-21zM3416 320.999h51v-52
h-51v52zM4137 320.999h51v-52h-51v52zM2733 132.999h4c23.333 0 37.666 -16.667 43 -50v-2c0 -10.667 -8 -24.334 -24 -41.001l-10 -17h-28c0 16.667 9.33301 35.334 28 56.001l3 2v2c-2 12.667 -5 19 -9 19h-10c-5.33301 0 -8.33301 -6.33301 -9 -19h-30
c4 33.333 18 50 42 50zM1546 115.999l52 -60l-26 -19l-52 52zM352.002 78.999h4c50 -32 78.333 -52 85 -60l-20 -37c-58.667 32.667 -88 52 -88 58zM3490 78.999l86 -58l-18 -39c-6.66699 0 -37 18.333 -91 55c10 24 17.667 38 23 42zM4578 75.999l19 -42l-91 -52l-20 39
l92 58v-3zM1204 52.999h51v-19l5 -5h14v-36h-14l-5 -5v-279h-46v31c-22.667 -26.667 -49.667 -40 -81 -40c-48 0 -82 35 -102 105l-3 26c0 68 33.667 111.667 101 131h14c22 0 44 -11 66 -33v59l-6 5h-43v36h49v24zM1480 44.999h40l56 -61h-53l-23 27l-23 -27h-53z
M2641 44.999h33c8 0 29 -20.333 63 -61h-54l-23 27c-12.667 -14 -19 -23 -19 -27h-58v4zM49.002 36.999h160v-60h-56v-268h-50l-4 5v245l2 3v2l-2 2l2 3l-2 2l2 3l-2 3h-54v54zM699.002 36.999h47v-73l2 -2l-2 -3v-3l2 -2l-2 -3v-3l2 -2v-2l-2 -3l2 -3h3
c11.333 16 28.333 24 51 24h3c35.333 0 61 -19.333 77 -58c4.66699 -11.333 7 -25.333 7 -42v-153h-52v127c0 45.333 -13.333 68 -40 68h-8c-28.667 0 -43 -28.667 -43 -86v-109h-52v322zM1297 36.999h47l5 -6v-49h-52v55zM1987 36.999h52v-198l70 115h62l-78 -118l90 -125
v-2h-70c-6.66699 14.667 -31.334 53 -74 115v-115h-52v328zM2271 36.999v-98.999c16 16 33.667 24 53 24c38 0 64.667 -18.667 80 -56c6.66699 -12.667 10 -38.334 10 -77.001v-120h-54v133c0 41.333 -13.667 62 -41 62h-11c-20.667 0 -33 -18.333 -37 -55v-140h-53v314
l-1 3v3l1 2l-1 3l1 3h53zM2458 37h51v-55h-51v55zM3148 37h51v-108c18 22 40.667 33 68 33h3c50 0 85 -31.333 105 -94l5 -37c0 -50 -21.333 -90 -64 -120c-20 -7.33301 -36.333 -11 -49 -11c-27.333 0 -51.333 13.333 -72 40v-31h-47v328zM4275 37h52v-99h2
c15.334 16 33.334 24 54 24h3c40 0 67.334 -24.667 82 -74l2 -41v-138h-52v111c0 54.667 -10.666 82 -32 82l-10 2h-12c-24.666 0 -37 -26.667 -37 -80v-115h-52v328zM329.002 -38h3v-58h-5c-28 0 -42 -19 -42 -57v-138h-53v245h47v-21c12 19.333 28.667 29 50 29z
M564.002 -38c47.333 0 75.999 -29 85.999 -87v-166h-51v136c-4 39.333 -17.667 59 -41 59h-6c-30 0 -45 -28 -45 -84v-111h-52v245h50v-21c16.667 19.333 36.334 29 59.001 29zM1504 -38c48 0 83 -31.333 105 -94l5 -39c-1.33301 -16 -3.66602 -24 -6.99902 -24h-169
c11.333 -31.333 32 -47 62 -47c16 0 32 7 48 21h57c-22 -52.667 -58 -79 -108 -79c-54.667 0 -92.334 35 -113.001 105v37c0 54 29.667 93 89 117zM2657 -38h5c51.333 0 87 -32.333 107 -97l3 -26v-21l-3 -13h-170c12 -31.333 29.667 -47 53 -47h12c14 0 28 7 42 21h59
c-22.667 -52.667 -57.667 -79 -105 -79c-56 0 -94.333 34 -115 102l-2 29c0 62 30.333 104.667 91 128zM2915 -38h3.99902c36 0 62 -20 78 -60c4.66699 -16.667 7 -44 7 -82v-111h-54v138c0 32 -11.667 51 -35 57h-11c-25.333 0 -39.666 -19 -42.999 -57v-138h-54v245h50
v-21c16.667 19.333 36 29 58 29zM3508 -38h6c26.667 0 50 -13.333 70 -40h2v32h47v-245h-47v31h-2c-22.667 -26.667 -48.667 -40 -78 -40c-47.333 0 -81 30 -101 90l-4 37v12c0 54.667 25.667 93.667 77 117c7.33301 4 17.333 6 30 6zM3781 -38h4
c41.333 0 68.666 -26 82 -78l3 -84v-91h-54v138c0 32 -12.667 51 -38 57h-9c-25.333 0 -39.333 -17.333 -42 -52v-143h-54v245h49v-21c17.333 19.333 37 29 59 29zM4133 -38h1c49.334 0 84 -31 104 -93l4 -40c0 -58.667 -28 -100.667 -84 -126l-25 -3
c-27.333 0 -50 11.333 -68 34v-106h-52v326h47v-29c20 24.667 44.334 37 73 37zM4714 -38h5c22.666 0 43.666 -12.333 63 -37c18 24.667 41 37 69 37h6c37.334 0 63.667 -22 79 -66l6 -51v-136h-52v122c0 48.667 -13 73 -39 73h-7c-23.334 0 -37 -16.667 -41 -50v-140l-5 -5
h-48v140c0 28 -10.334 46.333 -31 55h-17c-26.666 0 -40 -25.667 -40 -77v-118h-51v245h47v-21c14.666 19.333 33.333 29 56 29zM359 -46h49l5 -6v-234l-5 -5h-49v245zM1297 -46h52v-245h-52v245zM1649 -46h52v-136c2.66699 -40 17 -60 43 -60h4c29.333 0 44 27 44 81v115
h52v-245h-47v24h-5c-8 -22 -27.667 -33 -59 -33c-34.667 0 -61 21 -79 63c-3.33301 8 -5 19.333 -5 34v157zM2458 -46h51v-245h-51v245zM4515 -46h51v-245h-51v245zM1077 -169c0 -35.333 16.999 -59.666 50.999 -72.999h12c36 0 58 22 66 66v10
c0 35.333 -18 58.666 -54 69.999h-17c-25.333 0 -44.666 -19 -57.999 -57v-16zM1438 -143h122.001c-12 31.333 -29.667 47 -53 47h-7c-28.667 0 -49.334 -14.667 -62.001 -44v-3zM2599 -143h122c-14 31.333 -32 47 -54 47h-7c-30.667 0 -51 -15.667 -61 -47zM3196 -158v-11
c6.66699 -48.667 27 -73 61 -73h5c42.667 5.33301 64 29 64 71v5c0 30 -12.667 51.667 -38 65l-18 5h-14c-40 -9.33301 -60 -30 -60 -62zM3452 -173c9.33301 -46 30 -69 62 -69h11c27.333 0 47 20 59 60v13c-5.33301 48.667 -24 73 -56 73h-17
c-31.333 0 -51 -24.333 -59 -73v-4zM4062 -158v-22c0 -31.333 19.667 -52 59 -62h9c33.334 0 53.667 25.333 61 76c-8.66602 46.667 -28 70 -58 70h-15c-37.333 -11.333 -56 -32 -56 -62z" />
    <glyph glyph-name="space" unicode=" " horiz-adv-x="663" 
 />
    <glyph glyph-name="exclam" unicode="!" horiz-adv-x="569" 
d="M264 229c0 160.667 -11.666 311.667 -34.999 453l-14 90c-6.66699 40 -12.334 76.667 -17.001 110c-12 91.333 -18 160.666 -18 207.999l2 67c2.66699 33.333 7 62.333 13 87c17.333 72 47 108 89 108c42.667 0 72.667 -36 90 -108c6 -24.667 10 -53.667 12 -87l3 -67
c0 -47.333 -6.33301 -116.666 -19 -207.999c-4 -33.333 -9.33301 -70 -16 -110l-14 -90c-23.333 -141.333 -35 -292.333 -35 -453h-41zM284.001 174c66 0 99 -33.333 99 -100c0 -66 -33 -99 -99 -99c-66.667 0 -100 33 -100 99c0 66.667 33.333 100 100 100z" />
    <glyph glyph-name="quotedbl" unicode="&#x22;" horiz-adv-x="681" 
d="M518 751l-4 -21c-5.33301 -16.667 -15 -25 -29 -25c-12.667 0 -21.667 8.33301 -27 25l-6 38l-36 440l-1 25c0 21.333 1.66699 39.666 5 54.999c8.66699 42.667 30.334 64 65.001 64c35.333 0 57.666 -21.333 66.999 -64c3.33301 -15.333 5 -33.666 5 -54.999l-1 -25z
M223 751l-4 -21c-5.33301 -16.667 -15 -25 -29 -25c-12.667 0 -21.667 8.33301 -27 25l-6 38l-36 440l-1 25c0 21.333 1.66699 39.666 5 54.999c8.66699 42.667 30.334 64 65.001 64c35.333 0 57.666 -21.333 66.999 -64c3.33301 -15.333 5 -33.666 5 -54.999l-1 -25z" />
    <glyph glyph-name="numbersign" unicode="#" horiz-adv-x="1327" 
d="M872 494h224v-91h-236l-55 -403h-101l58 403h-246l-55 -403h-101l58 403h-242v91h254l39 272h-240v90h252l55 404h101l-58 -404h246l56 404h100l-57 -404h225v-90h-238zM567 766l-39 -272h246l37 272h-244z" />
    <glyph glyph-name="dollar" unicode="$" horiz-adv-x="1327" 
d="M659 1413h69.0029v-188c128 -8 252.333 -36 373 -84l-43 -146c-7.33301 -24.667 -16.333 -37 -27 -37c-5.33301 0 -12.666 13 -21.999 39c-22.667 62 -71.334 108.333 -146.001 139c-54 22 -116.667 34.667 -188 38c-72.667 2.66699 -135.667 -15.666 -189 -54.999
c-55.333 -40.667 -83 -92.667 -83 -156c0 -84.667 34.333 -145 103 -181c26.667 -14 60.667 -26 102 -36l260 -47c58 -12.667 105.667 -27.667 143 -45c100.667 -47.333 151 -125.333 151 -234c0 -102 -48 -190 -144 -264c-86.667 -67.333 -183.334 -104.333 -290.001 -111
v-197h-69v197c-89.333 0 -175 8.33301 -257 25c-96.667 20 -176.334 50 -239.001 90l66 194c3.33301 10 7.33301 15 12 15c3.33301 0 6 -4.33301 8 -13c22.667 -75.333 74.667 -138 156 -188c77.333 -48 159.666 -72 246.999 -72c97.333 0 176 18 236 54
c74 43.333 111 110 111 200c0 78 -46.667 134 -140 168c-32 11.333 -74.333 22 -127 32l-125 23c-61.333 16 -109.333 30.333 -144 43c-48 17.333 -87 36.666 -117 57.999c-71.333 49.333 -107 121 -107 215c0 102.667 46 185.334 138 248.001
c79.333 55.333 173.333 84.666 282 87.999v188z" />
    <glyph glyph-name="percent" unicode="%" horiz-adv-x="1366" 
d="M117 1141c55.333 79.333 129.667 119 223 119c91.333 0 163.333 -36.667 216 -110c47.333 -64.667 71 -145 71 -241c0 -102.667 -23.333 -187.667 -70 -255c-52 -75.333 -125.667 -113 -221 -113c-89.333 0 -162 38 -218 114c-50 68 -75 146.667 -75 236
c0 96.667 24.667 180 74 250zM480.001 686c10 28 16.667 62.001 20 102.001c2.66699 27.333 4 62.333 4 105l-1 48l-3 53c-3.33301 42 -9.66602 77.667 -18.999 107c-26 80 -74.333 120 -145 120s-119.334 -39 -146.001 -117c-10 -28.667 -16.667 -63.667 -20 -105l-3 -52
l-1 -48c0 -34.667 1.33301 -66.334 4 -95.001c4.66699 -40 12 -75 22 -105c27.333 -79.333 75.333 -119 144 -119c70.667 0 118.667 35.333 144 106zM811.001 601.001c56 78.667 130.333 117.998 223 117.998c92 0 164.333 -36.333 217 -109
c46.667 -65.333 70 -145.666 70 -240.999c0 -103.333 -23 -188.333 -69 -255c-52.667 -76 -126.667 -114 -222 -114c-89.333 0 -162 38 -218 114c-50 68.667 -75 147.334 -75 236.001c0 97.333 24.667 181 74 251zM1174 145.999c10 27.333 16.668 61 20.001 101
c2.66699 27.333 4 62.333 4 105l-1 48l-2 54c-4 41.333 -10.667 77 -20 107c-26 79.333 -74.333 119 -145 119s-119.334 -38.667 -146.001 -116c-9.33301 -29.333 -16 -64.333 -20 -105l-3 -53l-1 -48c0 -34.667 1.66699 -66 5 -94c4 -40.667 11 -75.667 21 -105
c27.333 -80 75.333 -120 144 -120c70.667 0 118.667 35.667 144 107zM1126 1290l-786 -1321h-90l786 1321h90z" />
    <glyph glyph-name="ampersand" unicode="&#x26;" horiz-adv-x="1441" 
d="M398 113c76.667 -68.667 163 -103 259 -103c116 0 221 43.667 315 131c-100.667 84 -190 161.667 -268 233c-94 85.333 -178.667 168.333 -254 249c-114.667 -66 -172 -153 -172 -261c0 -94.667 40 -177.667 120 -249zM596 1208c-116.667 0 -175 -58 -175 -174
c0 -52.667 16.333 -108 49 -166c26 -47.333 61 -94.333 105 -141c139.333 37.333 209 131 209 281c0 140 -62.667 206.667 -188 200zM1276 657c5.33301 -60.667 -10.001 -136.669 -46.001 -228.002c-32 -80.667 -69.333 -148.667 -112 -204
c72 -58.667 131.333 -101.667 178 -129c58 -33.333 116.667 -55.666 176 -66.999c18 -2 27 -7.66699 27 -17c0 -5.33301 -3 -8.66602 -9 -9.99902c-3.33301 -1.33301 -9.33301 -2 -18 -2h-297c-13.333 0.666992 -40.666 16.667 -81.999 48l-80 63
c-127.333 -101.333 -269.333 -152 -426 -152c-125.333 -2 -233.333 24 -324 78c-107.333 63.333 -161 152.666 -161 267.999c0 79.333 35.667 152 107 218c28 26 62.333 51.667 103 77c30.667 18.667 67 38.334 109 59.001c-81.333 84.667 -122 177 -122 277
c0 91.333 34.333 168.666 103 231.999c66 61.333 143.333 92 232 92c192.667 0 289 -78 289 -234c0 -82.667 -34 -154 -102 -214c-28 -24 -62.333 -47 -103 -69c-30.667 -17.333 -68 -35 -112 -53c142 -154.667 296.333 -294.667 463 -420c32.667 49.333 49 104 49 164
c0 114.667 -55.333 182.334 -166 203.001c-9.33301 2 -14 5.33301 -14 10c0 6.66699 6 10 18 10h320z" />
    <glyph glyph-name="quotesingle" unicode="'" horiz-adv-x="266" 
d="M142 1352c71.333 0 107 -48.667 107 -146c0 -56 -22.333 -117.333 -67 -184c-40.667 -61.333 -73 -92 -97 -92c-6.66699 0 -10 2.66699 -10 8s1.33301 9.33301 4 12c28 38 47.667 69.667 59 95c15.333 33.333 23 69.333 23 108c-83.333 0 -125 30 -125 90
c0 72.667 35.333 109 106 109z" />
    <glyph glyph-name="parenleft" unicode="(" horiz-adv-x="530" 
d="M450 1352c-43.333 -61.333 -80.3359 -129.669 -111.003 -205.002c-27.333 -68.667 -49.333 -142.667 -66 -222c-15.333 -70.667 -26.666 -145.667 -33.999 -225c-5.33301 -68 -8 -139.667 -8 -215c0 -147.333 19 -302.666 57 -465.999
c20 -87.333 43.667 -164.666 71 -231.999c30.667 -74.667 64.334 -133.334 101.001 -176.001h-47c-22 25.333 -48.333 62 -79 110c-41.333 64 -78.666 131 -111.999 201c-42.667 89.333 -76 177.333 -100 264c-28.667 104.667 -43 204.334 -43 299.001
c0 156.667 30 309.334 90 458.001c26.667 67.333 60.667 136.333 102 207c36.667 63.333 80.667 130.666 132 201.999h47z" />
    <glyph glyph-name="parenright" unicode=")" horiz-adv-x="530" 
d="M126 1352c51.333 -71.333 95.3311 -138.663 131.998 -201.996c41.333 -70.667 75.333 -139.667 102 -207c60 -148.667 90 -301.334 90 -458.001c0 -94.667 -14.333 -194.334 -43 -299.001c-24 -86.667 -57.333 -174.667 -100 -264
c-33.333 -70 -70.666 -137 -111.999 -201c-30.667 -48 -57 -84.667 -79 -110h-47c36.667 42.667 70.334 101.334 101.001 176.001c27.333 67.333 51 144.666 71 231.999c38 163.333 57 318.666 57 465.999c0 75.333 -3 147 -9 215c-6.66699 79.333 -17.667 154.333 -33 225
c-16.667 79.333 -38.667 153.333 -66 222c-30.667 75.333 -67.667 143.666 -111 204.999h47z" />
    <glyph glyph-name="asterisk" unicode="*" horiz-adv-x="909" 
d="M161 1143c86 -83.333 176.332 -135.331 270.999 -155.998l-7 83c-3.33301 30.667 -6.66602 58 -9.99902 82c-10 60 -25 113 -45 159h176c-40 -95.333 -61 -203.333 -63 -324c86.667 22 172 74 256 156l59 -178c-69.333 0 -119 -1.66699 -149 -5
c-46.667 -4 -96.667 -14 -150 -30c69.333 -94.667 145 -166.334 227 -215.001l-135 -125c-34 110.667 -79 213 -135 307l-44 -71c-15.333 -26.667 -28.666 -51.667 -39.999 -75c-26.667 -56.667 -42.334 -110.334 -47.001 -161.001l-143 129c88.667 48 167 118.333 235 211
c-98 28 -201 41 -309 39z" />
    <glyph glyph-name="plus" unicode="+" horiz-adv-x="1228" 
d="M554 1065h119v-473h471v-119h-471v-473h-119v473h-471v119h471v473z" />
    <glyph glyph-name="comma" unicode="," horiz-adv-x="663" 
d="M331 174c71.333 0 107 -48.3311 107 -144.998c0 -56.667 -22.333 -118.334 -67 -185.001c-40.667 -61.333 -73 -92 -97 -92c-6.66699 0 -10 2.66699 -10 8c0 6 1.33301 10.333 4 13c28 37.333 47.667 68.666 59 93.999c15.333 33.333 23 69.333 23 108
c-83.333 0 -125 30.333 -125 91c0 72 35.333 108 106 108z" />
    <glyph glyph-name="hyphen" unicode="-" horiz-adv-x="530" 
d="M12 473l37 119h469l-37 -119h-469z" />
    <glyph glyph-name="hyphen" unicode="&#x2010;" horiz-adv-x="530" 
d="M12 473l37 119h469l-37 -119h-469z" />
    <glyph glyph-name="period" unicode="." horiz-adv-x="663" 
d="M331 174c66 0 99 -33.333 99 -100c0 -66 -33 -99 -99 -99c-66.667 0 -100 33 -100 99c0 66.667 33.333 100 100 100z" />
    <glyph glyph-name="slash" unicode="/" horiz-adv-x="569" 
d="M495 1352h114l-534 -1393h-115z" />
    <glyph glyph-name="zero" unicode="0" horiz-adv-x="1327" 
d="M436 1177c-52.667 -35.333 -94.334 -86.333 -125.001 -153c-25.333 -55.333 -43 -121.666 -53 -198.999c-4 -31.333 -7 -65 -9 -101c-1.33301 -29.333 -2 -61 -2 -95c0 -34.667 0.666992 -66.334 2 -95.001c2 -36 5 -69.667 9 -101c10 -77.333 27.667 -143.333 53 -198
c30.667 -66.667 72.334 -117.667 125.001 -153c60.667 -41.333 136.334 -62 227.001 -62c89.333 0 164.333 20.667 225 62c52.667 35.333 94 86.333 124 153c25.333 54.667 43 120.667 53 198c4.66699 31.333 7.66699 65 9 101c1.33301 28.667 2 60.334 2 95.001
c0 34 -0.666992 65.667 -2 95c-1.33301 36 -4.33301 69.667 -9 101c-10 77.333 -27.667 143.666 -53 198.999c-30 66.667 -71.333 117.667 -124 153c-60.667 41.333 -135.667 62 -225 62c-90.667 0 -166.334 -20.667 -227.001 -62zM1112 1105c118 -124 177 -282 177 -474
c0 -193.333 -59 -352 -177 -476s-268.333 -186 -451 -186s-332.667 62 -450 186c-118 124 -177 282.667 -177 476c0 192 59 350 177 474c117.333 123.333 267.333 185 450 185s333 -61.667 451 -185z" />
    <glyph glyph-name="one" unicode="1" horiz-adv-x="1327" 
d="M745 371c0 -133.333 9.33301 -223.668 28 -271.001c13.333 -35.333 41.333 -61 84 -77c22 -7.33301 32.333 -13.666 31 -18.999c0 -5.33301 -12.333 -8 -37 -8l-133 3h-141l-117 -3c-27.333 0 -41 3.33301 -41 10c0 4.66699 15 13.667 45 27c46 18 76.333 47.333 91 88
c17.333 45.333 26 129.333 26 252v600c0 80 -6.33301 133 -19 159s-42 44.667 -88 56c-18.667 4 -28 7.33301 -28 10c0 6 12 13.667 36 23l263 90v-940z" />
    <glyph glyph-name="two" unicode="2" horiz-adv-x="1327" 
d="M71 0c0 14 7.99805 39.6689 23.998 77.002c19.333 45.333 44 90.666 74 135.999c34.667 48.667 88.334 98.667 161.001 150c62.667 44 132.667 84 210 120c247.333 113.333 371 260.333 371 441c0 210 -112.667 315 -338 315c-175.333 0 -306.333 -77.667 -393 -233
c-3.33301 -6 -7.66602 -9 -12.999 -9c-8 0 -12 3 -12 9l-47 178c71.333 36 152 63 242 81c81.333 16.667 165.666 25 252.999 25c132.667 0 249 -32.667 349 -98c114.667 -75.333 172 -175.666 172 -300.999c0 -91.333 -35.667 -172.666 -107 -243.999
c-60 -60.667 -138.333 -108.334 -235 -143.001l-213 -74c-92.667 -32 -172 -79.333 -238 -142c-57.333 -54.667 -86 -99.334 -86 -134.001h436c62.667 0 122.667 4.66699 180 14c70.667 12.667 128.334 31 173.001 55c13.333 8 29.666 20.667 48.999 38
c22 19.333 36.333 34.666 43 45.999c6.66699 6.66699 11.334 10 14.001 10c8 0 12 -4.66699 12 -14l-12 -45l-84 -258h-985z" />
    <glyph glyph-name="three" unicode="3" horiz-adv-x="1327" 
d="M450 727c37.333 -13.333 82.9961 -20.0029 136.996 -20.0029c98 0 177 19.667 237 59c70 47.333 105 117.666 105 210.999c0 86 -32 152.333 -96 199c-56.667 42 -130.667 63 -222 63c-163.333 6 -289.333 -61.667 -378 -203c-8.66699 -13.333 -15.667 -23.333 -21 -30
c-7.33301 -8.66699 -12.666 -13 -15.999 -13c-5.33301 0 -10.333 9.66699 -15 29l-43 162c79.333 40.667 161.333 69 246 85c72.667 14 159.334 21 260.001 21c51.333 0 103 -4.33301 155 -13c61.333 -10.667 115.333 -26.667 162 -48c55.333 -24 98.333 -54.333 129 -91
c34.667 -41.333 52 -89.666 52 -144.999c0 -91.333 -45 -164.666 -135 -219.999c-35.333 -22 -77.666 -40.667 -126.999 -56c-40 -13.333 -83.667 -23.666 -131 -30.999v-4c58 -11.333 107.333 -22.666 148 -33.999c58 -17.333 107.333 -37.333 148 -60
c105.333 -59.333 158 -141.333 158 -246c0 -68.667 -20.667 -129 -62 -181c-36.667 -45.333 -88.334 -83.333 -155.001 -114c-56.667 -26.667 -122.334 -46.667 -197.001 -60c-63.333 -12 -126.666 -18 -189.999 -18c-104 0 -200.667 10.333 -290 31
c-99.333 22.667 -189.666 58 -270.999 106l49 148c16 45.333 28.333 68 37 68c7.33301 0 13.333 -12.333 18 -37c23.333 -88.667 80.333 -156.667 171 -204c78 -40.667 167.333 -61 268 -61c109.333 0 202 25.667 278 77c87.333 58.667 131 139.667 131 243
c0 98 -41.333 176.667 -124 236c-74 52.667 -162.333 79 -265 79c-51.333 0 -101.666 -7.33301 -150.999 -22v94z" />
    <glyph glyph-name="four" unicode="4" horiz-adv-x="1327" 
d="M882 317l0.00195312 -75c0 -120 37.333 -191 112 -213l41 -12c11.333 -4 17 -7.66699 17 -11c0 -4 -1.33301 -6.66699 -4 -8c-3.33301 -1.33301 -10.333 -2 -21 -2l-282 3l-134 -3c-21.333 0 -32 3.33301 -32 10c0 3.33301 3 6 9 8l28 9c68 24.667 102 97.667 102 219v80
h-680c0 29.333 6.33301 55.333 19 78c5.33301 8.66699 12.333 18 21 28l750 840l25 30c5.33301 8.66699 10.666 13 15.999 13c8.66699 0 13 -10.333 13 -31v-864c30.667 0 57 0.666992 79 2c33.333 2 63.333 5.33301 90 10c71.333 14 120.666 39.333 147.999 76
c7.33301 10 15.333 20.333 24 31l19 24c10 9.33301 17 14 21 14s6 -2 6 -6l-1 -6l-75 -244h-311zM165.002 412h553v661h-4z" />
    <glyph glyph-name="five" unicode="5" horiz-adv-x="1327" 
d="M127 295c6.66699 16 12.6699 24 18.0029 24s10.666 -6 15.999 -18l17 -41c36.667 -78.667 99.667 -139.667 189 -183c78.667 -38 165.667 -57 261 -57c104 0 192 28 264 84c78 60.667 117 141.334 117 242.001c0 118 -43 208 -129 270
c-75.333 53.333 -174.333 80 -297 80c-74 0 -144.333 -8.66699 -211 -26c-54.667 -14.667 -121.334 -39.334 -200.001 -74.001l53 664h766c37.333 0 66.666 4 87.999 12c9.33301 3.33301 17.333 7.66602 24 12.999c6 4 11.667 9 17 15c4.66699 7.33301 8.66699 11 12 11
c4 0 6 -2.66699 6 -8l-57 -197h-690c-81.333 0 -125 -47 -131 -141l-21 -287c130.667 46.667 253.667 70 369 70c64 0 128.333 -6 193 -18c75.333 -13.333 142 -33 200 -59c68 -31.333 120.667 -69.666 158 -114.999c42 -52.667 63 -113.667 63 -183
c0 -128 -58.667 -228 -176 -300c-112 -69.333 -260 -104 -444 -104c-84.667 0 -177.667 11.667 -279 35c-110.667 25.333 -198.667 57.333 -264 96z" />
    <glyph glyph-name="six" unicode="6" horiz-adv-x="1327" 
d="M1123 975c-1.33301 -2.66699 -4.00098 -3.99805 -8.00098 -3.99805c-1.33301 0 -3.33301 2.66699 -6 8c-48 173.333 -173 260 -375 260c-161.333 0 -280 -59 -356 -177c-33.333 -50.667 -58.333 -112.667 -75 -186c-14.667 -64.667 -23 -138.334 -25 -221.001
c0 -36.667 2 -67.334 6 -92.001c34 87.333 94.333 155.333 181 204c79.333 44.667 168.333 67 267 67c133.333 0 249 -34.667 347 -104c110 -77.333 165 -180.666 165 -309.999c0 -142 -55.667 -254.667 -167 -338c-100.667 -75.333 -223 -113 -367 -113
c-194 0 -347.667 59.333 -461 178c-112 116.667 -168 273 -168 469c0 191.333 62.667 351.333 188 480c126 129.333 284 194 474 194c126.667 0 266.334 -32 419.001 -96c18 -7.33301 27 -15 27 -23c0 -14.667 -4 -32.334 -12 -53.001zM940.999 674.002
c-70.667 72 -159.334 108 -266.001 108s-195.334 -36 -266.001 -108c-71.333 -72 -107 -163 -107 -273c0 -109.333 35.667 -200 107 -272c70.667 -72.667 159.334 -109 266.001 -109s195.334 36.333 266.001 109c71.333 72 107 162.667 107 272c0 110 -35.667 201 -107 273z
" />
    <glyph glyph-name="seven" unicode="7" horiz-adv-x="1327" 
d="M1261 1260c-0.666992 -53.333 -30.9971 -119.671 -90.9971 -199.004c-19.333 -25.333 -50 -62.666 -92 -111.999l-105 -125c-40 -50.667 -74.667 -98.667 -104 -144c-36 -55.333 -66.333 -110 -91 -164c-28 -62.667 -49.333 -126 -64 -190
c-16 -71.333 -24 -144.666 -24 -219.999c0 -47.333 0.666992 -82.666 2 -105.999h-260c1.33301 127.333 37.666 256 108.999 386c29.333 54.667 65.333 110.334 108 167.001c35.333 46.667 76.666 96 123.999 148l63 67l118 121c20.667 20.667 37.667 38.334 51 53.001
c70 75.333 105 130 105 164h-688c-114.667 0 -198.667 -35.667 -252 -107c-3.33301 -4 -8.33301 -8.33301 -15 -13s-12 -7 -16 -7s-6 4.66699 -6 14c0 3.33301 1.66699 8.66602 5 15.999c1.33301 4.66699 2.66602 8 3.99902 10l81 241h1038z" />
    <glyph glyph-name="eight" unicode="8" horiz-adv-x="1327" 
d="M379 94c75.333 -49.333 166.002 -73.999 272.002 -73.999c47.333 0 93.666 4.33301 138.999 13c52.667 10 99 24.667 139 44c100 49.333 150 122.666 150 219.999c0 66 -24.333 119.667 -73 161c-34.667 30 -89 58.333 -163 85c-15.333 5.33301 -37.333 12.333 -66 21
l-97 29c-38 10.667 -69.667 19 -95 25c-30 6.66699 -49.667 9.66699 -59 9c-74.667 -8.66699 -139.334 -41.334 -194.001 -98.001c-56.667 -58 -85 -123.667 -85 -197c0 -101.333 44 -180.666 132 -237.999zM889.002 1193c-57.333 30.667 -131.334 46.001 -222.001 46.001
c-39.333 0 -76.666 -3 -111.999 -9c-42.667 -7.33301 -79.667 -18.333 -111 -33c-79.333 -38 -119 -96.333 -119 -175c0 -76.667 46.667 -142.334 140 -197.001c80.667 -47.333 161.667 -71 243 -71c74.667 0 140.667 23.333 198 70c62 50 93 112 93 186
c0 82.667 -36.667 143.667 -110 183zM1043 807.002c-62.667 -40.667 -140.333 -68 -233 -82v-2c8.66699 -2 20 -5.33301 34 -10c18.667 -6 37.667 -12.667 57 -20c55.333 -20.667 105.666 -44.334 150.999 -71.001c60 -34.667 107 -71.667 141 -111
c41.333 -48 62 -98.333 62 -151c0 -75.333 -22 -140.333 -66 -195c-38 -48.667 -92 -88.667 -162 -120c-60 -26.667 -129.667 -46.667 -209 -60c-65.333 -10.667 -132.666 -16 -201.999 -16c-56.667 0 -114.334 5.66699 -173.001 17c-66.667 13.333 -125.667 32.333 -177 57
c-60 28.667 -106.333 64 -139 106c-37.333 47.333 -56 102 -56 164c0 94 44 171.333 132 232c36 25.333 78.333 46.666 127 63.999c42.667 15.333 87.334 27.333 134.001 36v4c-81.333 18 -150.333 53 -207 105c-64 59.333 -96 129 -96 209c0 119.333 60.333 207 181 263
c48 22.667 105 39.334 171 50.001c55.333 9.33301 114 14 176 14c50.667 0 100.667 -4 150 -12c58 -9.33301 109.333 -23.666 154 -42.999c113.333 -49.333 170 -125 170 -227c0 -81.333 -40 -148.333 -120 -201z" />
    <glyph glyph-name="nine" unicode="9" horiz-adv-x="1327" 
d="M935 1117c-71.333 82.667 -166 123.334 -284 122.001c-118.667 1.33301 -213.667 -39.334 -285 -122.001c-65.333 -76.667 -98 -172 -98 -286c0 -113.333 32.667 -208.333 98 -285c71.333 -82.667 166.333 -123.334 285 -122.001
c118 -1.33301 212.667 39.334 284 122.001c66 76.667 99 171.667 99 285c0 114 -33 209.333 -99 286zM206 285c1.33301 2.66699 4 4.00195 8 4.00195c1.33301 0 3.66602 -2.66699 6.99902 -8c48 -174 176.333 -261 385 -261c142 0 255 56.667 339 170
c75.333 101.333 113 223.666 113 366.999c0 42 -2.66699 74.667 -8 98h-4c-28 -86.667 -81.667 -156 -161 -208c-76 -49.333 -161 -74 -255 -74c-138 0 -262 37.333 -372 112c-124.667 84 -187 192 -187 324c0 152 59 273 177 363c104 78.667 228 118 372 118
c194.667 0 349.334 -59 464.001 -177c114 -117.333 171 -274 171 -470c0 -190.667 -63.667 -350.667 -191 -480c-128 -129.333 -287 -194 -477 -194c-127.333 0 -267.333 32.333 -420 97c-17.333 7.33301 -26 14.666 -26 21.999c0 15.333 4 33 12 53z" />
    <glyph glyph-name="colon" unicode=":" horiz-adv-x="663" 
d="M331 174c66 0 99 -33.333 99 -100c0 -66 -33 -99 -99 -99c-66.667 0 -100 33 -100 99c0 66.667 33.333 100 100 100zM331 932c66 0 99 -33.667 99 -101c0 -65.333 -33 -98 -99 -98c-66.667 0 -100 32.667 -100 98c0 67.333 33.333 101 100 101z" />
    <glyph glyph-name="semicolon" unicode=";" horiz-adv-x="663" 
d="M331 174c71.333 0 107 -48.3311 107 -144.998c0 -56.667 -22.333 -118.334 -67 -185.001c-40.667 -61.333 -73 -92 -97 -92c-6.66699 0 -10 2.66699 -10 8c0 6 1.33301 10.333 4 13c28 37.333 47.667 68.666 59 93.999c15.333 33.333 23 69.333 23 108
c-83.333 0 -125 30.333 -125 91c0 72 35.333 108 106 108zM331 932.002c66 0 99 -33.667 99 -101c0 -65.333 -33 -98 -99 -98c-66.667 0 -100 32.667 -100 98c0 67.333 33.333 101 100 101z" />
    <glyph glyph-name="less" unicode="&#x3c;" horiz-adv-x="1228" 
d="M1134 -2l-1040 475v119l1040 475v-127l-893 -408l893 -407v-127z" />
    <glyph glyph-name="equal" unicode="=" horiz-adv-x="1228" 
d="M1144 674h-1061v119h1061v-119zM1144 272h-1061v119h1061v-119z" />
    <glyph glyph-name="greater" unicode="&#x3e;" horiz-adv-x="1228" 
d="M987 532l-893 408v127l1040 -475v-119l-1040 -475v127z" />
    <glyph glyph-name="question" unicode="?" horiz-adv-x="1024" 
d="M30 1268c131.333 56 262.333 84 393 84c138.667 0 254.334 -30.667 347.001 -92c108.667 -71.333 163 -172.666 163 -303.999c0 -66.667 -25.667 -131.667 -77 -195c-20.667 -24.667 -47 -51.667 -79 -81l-90 -76c-39.333 -33.333 -68.666 -59.333 -87.999 -78
c-30.667 -29.333 -55.667 -57 -75 -83c-48.667 -65.333 -70.667 -134.333 -66 -207h-45c-4.66699 68 9.33301 137.667 42 209c13.333 28.667 30.666 60 51.999 94c12.667 21.333 32.667 51.333 60 90l62 91c22 34 40 65.333 54 94c36 71.333 54 140.666 54 207.999
c0 185.333 -96.333 278 -289 278c-172.667 0 -292.334 -89.333 -359.001 -268zM438 174c65.333 0 98 -33.333 98 -100c0 -66 -32.667 -99 -98 -99c-67.333 0 -101 33 -101 99c0 66.667 33.667 100 101 100z" />
    <glyph glyph-name="at" unicode="@" horiz-adv-x="1638" 
d="M956 928c-60 0 -120.333 -35 -181 -105c-70.667 -82 -106 -180.333 -106 -295c0 -112 45 -168 135 -168c47.333 0 94.333 37 141 111c53.333 85.333 86.333 194 99 326c0 87.333 -29.333 131 -88 131zM1234 987l-133.001 -521.999
c-2.66699 -7.33301 -4.33398 -17 -5.00098 -29c-1.33301 -14.667 -0.333008 -28.334 3 -41.001c10 -35.333 36 -53 78 -53c78 4 144.333 52 199 144c50 84 75 174.667 75 272c0 146.667 -53 272 -159 376c-112.667 110.667 -257 166 -433 166
c-169.333 0 -307.666 -59.667 -414.999 -179c-113.333 -127.333 -170 -299.666 -170 -516.999c0 -151.333 53.667 -282.666 161 -393.999c115.333 -119.333 261 -179 437 -179c81.333 0 157 9.33301 227 28c28.667 8 59 18 91 30l44 18l43 18l27 -49l-100 -44
c-37.333 -14.667 -72 -27 -104 -37c-78.667 -24 -154.667 -36 -228 -36c-124.667 0 -238 22 -340 66c-90.667 39.333 -169 94.333 -235 165c-120.667 130 -181 275 -181 435c0 213.333 73.333 389 220 527c142 133.333 316.333 200 523 200c194 0 353.667 -57.667 479 -173
c122 -112.667 183 -252.334 183 -419.001c0 -116 -32.667 -222 -98 -318c-73.333 -108.667 -166.333 -163 -279 -163c-60.667 0 -108.667 20.333 -144 61c-12 14 -21.667 29.667 -29 47c-5.33301 13.333 -7.66602 23.666 -6.99902 30.999l-4 4
c-20.667 -34 -54.334 -65.667 -101.001 -95c-48.667 -30.667 -93 -46 -133 -46c-8 0 -15.667 0.333008 -23 1c-10.667 0.666992 -20.667 2 -30 4c-24 6 -45.333 16.333 -64 31c-51.333 40 -77 110.333 -77 211c0 94 32.333 192 97 294c36.667 57.333 78.334 102 125.001 134
c54 37.333 113 56 177 56c58 -2 106.667 -37.667 146 -107l20 82h137z" />
    <glyph glyph-name="A" unicode="A" 
d="M743 1133l-247 -443h479zM471 639l-131 -248.001c-25.333 -46.667 -45.333 -89.667 -60 -129c-20 -52.667 -30 -97 -30 -133c0 -35.333 17 -65.333 51 -90l38 -20c12.667 -5.33301 19 -10.333 19 -15c0 -5.33301 -10 -8 -30 -8l-181 3l-112 -3
c-12.667 0 -21 0.333008 -25 1c-8 1.33301 -12 4.33301 -12 9s5.66699 11.334 17 20.001c1.33301 0.666992 3.66602 2.33398 6.99902 5.00098l19 14c36.667 34.667 76.334 84.334 119.001 149.001l90 150l541 995c4 8.66699 8.66699 13 14 13h4
c9.33301 0 14 -4.33301 14 -13l605 -1163c31.333 -61.333 74.333 -110.333 129 -147c20 -14 30 -21.667 30 -23c0 -2.66699 -1 -5 -3 -7c-3.33301 -2 -9 -3 -17 -3l-244 3c-12 0 -30 -0.333008 -54 -1l-102 -2c-10.667 0 -16 2 -16 6c0 5.33301 4 9.66602 12 12.999
c1.33301 0.666992 5.33301 2.33398 12 5.00098l15 7c24.667 13.333 37 37.666 37 72.999c0 26 -9.66699 64.333 -29 115c-16.667 43.333 -40 94.666 -70 153.999l-133 270h-524z" />
    <glyph glyph-name="B" unicode="B" horiz-adv-x="1554" 
d="M364 729h325c62 0 114 2.33301 156 7c57.333 7.33301 106 19.333 146 36c100.667 44 151 124.667 151 242c0 169.333 -151.667 254 -455 254h-323v-539zM188 1036c0 82 -3.99902 136.666 -11.999 163.999c-10.667 39.333 -34.667 68 -72 86c-16.667 6 -25 13 -25 21
c0 2.66699 3 5 9 7c8.66699 3.33301 20.667 5 36 5h436c127.333 0 233.333 -3.66699 318 -11c102 -8 186 -22.333 252 -43c150 -46.667 225 -131.667 225 -255c0 -54 -17.667 -102 -53 -144c-29.333 -36.667 -70.333 -68 -123 -94c-43.333 -21.333 -91.333 -38 -144 -50
c-43.333 -10 -80.666 -15 -111.999 -15v-5l80 -8c31.333 -4.66699 61 -9.66699 89 -15c70 -13.333 130.667 -31 182 -53c63.333 -27.333 112 -61 146 -101c40 -46 60 -101 60 -165c0 -103.333 -52.333 -190 -157 -260c-88.667 -59.333 -185.334 -91.333 -290.001 -96
c-111.333 -6.66699 -205.333 -10 -282 -10l-242 6l-356 -1h-7l-42 -1l-54 -4c-9.33301 0 -14 2.66699 -14 8s15 13 45 23c31.333 10.667 55.666 40.334 72.999 89.001c22.667 61.333 34 150.333 34 267v655zM364.001 405.999c0 -152 7.00195 -247 21.002 -285
c18 -46.667 62 -70 132 -70l185 -6c51.333 0 120.666 2.66699 207.999 8c108.667 6.66699 193 33.667 253 81c65.333 51.333 98 124 98 218c0 76.667 -21.667 139.667 -65 189c-37.333 42 -91 74 -161 96c-56.667 18 -126.334 30 -209.001 36l-107 4l-355 1v-272z" />
    <glyph glyph-name="C" unicode="C" horiz-adv-x="1554" 
d="M1420 1019l-8.99805 -24.002c-6 -13.333 -11.333 -20 -16 -20c-7.33301 0 -12.333 6 -15 18c-38 110.667 -104 191.667 -198 243c-78.667 42.667 -176.334 64 -293.001 64c-182 0 -326 -59.667 -432 -179c-101.333 -115.333 -152 -266.333 -152 -453
c0 -188 49 -342.333 147 -463c105.333 -130 250.333 -195 435 -195c128.667 0 240 27 334 81c84 47.333 145.333 110 184 188l10 23c4 6 8 9 12 9c4.66699 0 11.667 -16.333 21 -49l33 -127c-163.333 -117.333 -358 -176 -584 -176c-214.667 0 -399.334 57.667 -554.001 173
c-80.667 60 -142.667 130.667 -186 212c-47.333 88.667 -71 186.334 -71 293.001c0 220.667 81 397.334 243 530.001c150.667 123.333 338 185 562 185c225.333 0 418.333 -61 579 -183z" />
    <glyph glyph-name="D" unicode="D" horiz-adv-x="1630" 
d="M364 377c0 -122 10.333 -206.332 31 -252.999c18 -41.333 50 -64.333 96 -69c70 -6.66699 133.667 -10 191 -10c51.333 0 102.333 2 153 6c156.667 13.333 274 65 352 155c89.333 103.333 134 262.666 134 477.999c0 210.667 -50.333 361.667 -151 453
c-96 87.333 -250 131 -462 131h-344v-891zM188 1036c0 86 -6.33203 146.665 -18.999 181.998c-10.667 28 -30.334 48.667 -59.001 62l-15 10c-4.66699 4 -7 8.33301 -7 13s3.33301 8.33398 10 11.001c9.33301 3.33301 26.333 5 51 5h629c122.667 0 233.667 -17.667 333 -53
c92.667 -33.333 172 -80.666 238 -141.999c127.333 -118 191 -265.333 191 -442c0 -188 -61.333 -344.333 -184 -469c-124 -126 -288 -197 -492 -213c-51.333 -4 -104 -6 -158 -6l-239 6l-319 -3c-7.33301 0 -15 -0.333008 -23 -1l-60 -4c-9.33301 0 -14 2 -14 6
c0 5.33301 7.66699 12 23 20c52 30 84.667 64.667 98 104c10.667 34 16 106.667 16 218v696z" />
    <glyph glyph-name="E" unicode="E" horiz-adv-x="1441" 
d="M360 412c0 -37.333 1.33203 -77.001 3.99902 -119.001l11 -119c6 -54 27.667 -88.667 65 -104c32.667 -12.667 103.667 -19 213 -19c58.667 0 109.667 1 153 3c56 2.66699 107.667 7.66699 155 15c114.667 16 212 46.333 292 91c29.333 16 53.666 33.667 72.999 53l50 57
c6.66699 7.33301 13 11 19 11c6.66699 0 10 -3.66699 10 -11l-1 -10l-85 -260h-1245c-19.333 0 -29 2 -29 6c0 10.667 12.333 19 37 25c41.333 11.333 70.333 62 87 152c6 32.667 10.333 70 13 112l2 50v757c0 48 -3.66699 83.667 -11 107
c-11.333 34.667 -33.666 60.334 -66.999 77.001c-9.33301 4.66699 -14 8.66699 -14 12c0 6 5 9.66699 15 11c3.33301 0.666992 8 1.33398 14 2.00098h1104l62 -206c8.66699 -32 13 -50 13 -54c0 -6 -4 -9 -12 -9c-5.33301 0 -12 7 -20 21c-50 72 -121 123.667 -213 155
c-82 28 -189.333 42 -322 42h-373v-531h199c272.667 0 429 19 469 57c23.333 23.333 42.333 52 57 86c4.66699 7.33301 9.66699 11 15 11c6.66699 0 10 -11 10 -33l-1 -322c-1.33301 -8 -3.66602 -12 -6.99902 -12c-4 0 -8.33301 3.33301 -13 10
c-16.667 37.333 -39.667 66 -69 86c-42.667 28.667 -116.667 48 -222 58c-38.667 3.33301 -82 5.66602 -130 6.99902l-308 1v-266z" />
    <glyph glyph-name="F" unicode="F" horiz-adv-x="1327" 
d="M1288 1172l32.9971 -121c0 -6 -4 -9 -12 -9c-6 0 -13 7 -21 21c-48.667 70.667 -129.667 122.334 -243 155.001c-97.333 28 -219 42 -365 42h-320v-531h330c115.333 0 200 6 254 18c42.667 9.33301 78 26 106 50c19.333 16.667 33 37.667 41 63
c5.33301 12.667 10.333 19 15 19c8 0 12 -9.66699 12 -29v-348c0 -6.66699 -2 -10 -6 -10c-6.66699 0 -13.667 10 -21 30c-15.333 45.333 -50.666 81 -105.999 107c-68 32.667 -163 49 -285 49h-340v-328c0 -97.333 6.66699 -169.333 20 -216c16 -58 45.667 -96.667 89 -116
c13.333 -5.33301 20 -10.666 20 -15.999s-6.66699 -8 -20 -8l-195 6c-48.667 0 -96.667 -1 -144 -3c-7.33301 -0.666992 -15.333 -1 -24 -1l-43 -2c-9.33301 0 -14 2.66699 -14 8c0 4 6 7.33301 18 10c50 17.333 83.333 56 100 116c6.66699 26 11.334 59 14.001 99
c2 29.333 3 69.666 3 120.999v809c0 61.333 -26 103.666 -78 126.999c-5.33301 1.33301 -9.66602 3 -12.999 5c-4.66699 3.33301 -7 7 -7 11c0 7.33301 15.667 11 47 11h1112z" />
    <glyph glyph-name="G" unicode="G" horiz-adv-x="1669" 
d="M1489 145c-180.667 -124 -380.67 -185.999 -600.003 -185.999c-221.333 0 -408.333 64 -561 192c-161.333 135.333 -242 309.666 -242 522.999c0 106 25 204.333 75 295c44.667 80 107.334 150.667 188.001 212c149.333 114 307.333 171 474 171
c148 0 283.333 -17 406 -51c110.667 -30 196.667 -69.667 258 -119l-58 -174l-8 -19c-4 -6.66699 -8 -10 -12 -10c-2 0 -4.33301 3.66699 -7 11l-11 32c-35.333 83.333 -101.666 151 -198.999 203c-94 50 -195.667 75 -305 75c-194.667 0 -342.667 -62.333 -444 -187
c-92 -114.667 -138 -270.667 -138 -468c0 -198.667 54 -354.334 162 -467.001c106.667 -112 254 -168 442 -168c96 0 178.333 15 247 45c88 38.667 133.333 96 136 172v174c0 100 -13.333 163.333 -40 190c-21.333 20.667 -85.666 43.334 -192.999 68.001c-4 0 -6 3 -6 9
c0 8 13.667 12 41 12l295 -8l96 5l80 3c28.667 0 43 -5.33301 43 -16c0 -6.66699 -6.33301 -11 -19 -13c-66.667 -20.667 -100 -56.667 -100 -108v-398z" />
    <glyph glyph-name="H" unicode="H" horiz-adv-x="1630" 
d="M190 1112c0 45.333 -3.66895 80.333 -11.002 105c-11.333 38.667 -33 63.667 -65 75c-9.33301 4.66699 -14 9.66699 -14 15s2 8.66602 6 9.99902c3.33301 1.33301 12.333 2 27 2l53 -4c32 -2.66699 62.667 -4 92 -4c16 0 40 1.33301 72 4s55.667 4 71 4h9
c4.66699 -0.666992 8.66699 -1 12 -1c9.33301 -2 14 -5 14 -9c0 -9.33301 -4.66699 -15 -14 -17c-31.333 -9.33301 -52.666 -32 -63.999 -68c-8 -24.667 -12 -62 -12 -112v-383h899v383c0 50 -4 87.333 -12 112c-11.333 36 -32.666 58.667 -63.999 68
c-9.33301 2 -14 7.66699 -14 17c0 4 4.66699 7 14 9c3.33301 0 7.33301 0.333008 12 1h9c15.333 0 39.333 -1.33301 72 -4c32 -2.66699 55.667 -4 71 -4c29.333 0 60 1.33301 92 4l54 4c14 0 22.667 -0.666992 26 -2c4 -1.33301 6 -4.66602 6 -9.99902
s-4.66699 -10.333 -14 -15c-32 -11.333 -53.667 -36.333 -65 -75c-7.33301 -24.667 -11 -59.667 -11 -105v-721c0 -40.667 1 -75.667 3 -105c2 -40.667 6 -76.334 12 -107.001c14.667 -78.667 42 -130.667 82 -156c2.66699 -2.66699 6 -5 10 -7l5 -3
c2 -1.33301 3.33301 -2.33301 4 -3c6 -4 9 -6.66699 9 -8c0 -5.33301 -8 -8 -24 -8l-84 4c-9.33301 0.666992 -19.333 1 -30 1l-195 -2c-6 -0.666992 -13 -1 -21 -1l-39 -2c-15.333 0 -23 2 -23 6c0 6.66699 7.66699 12.667 23 18c41.333 18.667 68.333 62.667 81 132
c4.66699 29.333 8 66 10 110c0.666992 18 1 39 1 63v355h-899v-355c0.666992 -24 1 -45 1 -63c2 -44 5.66699 -80.667 11 -110c12 -69.333 38.667 -113.333 80 -132c15.333 -5.33301 23 -11.333 23 -18c0 -4 -7.66699 -6 -23 -6l-85 4
c-9.33301 0.666992 -18.666 1 -27.999 1l-197 -2c-6.66699 -0.666992 -13.667 -1 -21 -1l-37 -2c-16.667 0 -25 2.66699 -25 8c0 1.33301 3 4 9 8c0.666992 0.666992 2 1.66699 4 3l5 3c4 2 7.66699 4.33301 11 7c39.333 25.333 66.666 77.333 81.999 156
c5.33301 30.667 9.33301 66.334 12 107.001c1.33301 29.333 2 64.333 2 105v721z" />
    <glyph glyph-name="I" unicode="I" horiz-adv-x="569" 
d="M196 1112c0 45.333 -3.66797 80.333 -11.001 105c-11.333 38.667 -33 63.667 -65 75c-9.33301 4.66699 -14 9.66699 -14 15s2 8.66602 6 9.99902c3.33301 1.33301 12.333 2 27 2l53 -4c32 -2.66699 62.667 -4 92 -4c16 0 40 1.33301 72 4s55.667 4 71 4h9
c4.66699 -0.666992 8.66699 -1 12 -1c9.33301 -2 14 -5 14 -9c0 -9.33301 -4.66699 -15 -14 -17c-31.333 -9.33301 -52.666 -32 -63.999 -68c-8 -24.667 -12 -62 -12 -112v-789c0.666992 -24 1 -45 1 -63c2 -44 5.66699 -80.667 11 -110c12 -69.333 38.667 -113.333 80 -132
c15.333 -5.33301 23 -11.333 23 -18c0 -4 -7.66699 -6 -23 -6l-85 4c-9.33301 0.666992 -18.666 1 -27.999 1l-197 -2c-6.66699 -0.666992 -13.667 -1 -21 -1l-37 -2c-16.667 0 -25 2.66699 -25 8c0 1.33301 3 4 9 8c0.666992 0.666992 2 1.66699 4 3l5 3
c4 2 7.66699 4.33301 11 7c39.333 25.333 66.666 77.333 81.999 156c5.33301 30.667 9.33301 66.334 12 107.001c1.33301 29.333 2 64.333 2 105v721z" />
    <glyph glyph-name="J" unicode="J" horiz-adv-x="872" 
d="M41 174c2.66699 14 6.66699 21 12 21s9 -3 11 -9c32 -108.667 105 -163 219 -163c92 0 155.667 54 191 162c12.667 40 21.667 87.667 27 143c3.33301 37.333 5 81 5 131v700c0 58.667 -25.333 103 -76 133c-9.33301 7.33301 -14 12.333 -14 15c0 8 11 12 33 12l53 -4
c32 -2.66699 62.667 -4 92 -4l154 8c6.66699 0 11.667 -0.333008 15 -1c6 -2 9 -5 9 -9c0 -4.66699 -4.66699 -9.66699 -14 -15c-50.667 -28.667 -76 -73.667 -76 -135v-704c0 -144.667 -47.333 -263.667 -142 -357c-94.667 -92.667 -214.667 -139 -360 -139
c-76 0 -139.333 13.667 -190 41z" />
    <glyph glyph-name="K" unicode="K" horiz-adv-x="1478" 
d="M860 436c-22.667 31.333 -42.6699 57.6631 -60.0029 78.9961c-24.667 30.667 -48.667 56.667 -72 78c-61.333 55.333 -122 83 -182 83c-98 0 -147 -42.333 -147 -127v-246c0 -67.333 4.66699 -122.666 14 -165.999c13.333 -59.333 35.333 -95.333 66 -108
c30 -12 45 -21 45 -27c0 -5.33301 -7 -8 -21 -8l-98 4c-10 0.666992 -19.333 1 -28 1h-131l-103 -5c-23.333 0 -35 2.66699 -35 8c0 4.66699 14.333 13 43 25c23.333 9.33301 41.666 45 54.999 107c11.333 52 17 108.333 17 169v741c0 140 -25.333 222.667 -76 248
c-9.33301 4 -14 9.66699 -14 17c0 6.66699 7.33301 10 22 10l56 -4c16 -1.33301 31.333 -2.33301 46 -3c18.667 -0.666992 36.667 -1 54 -1c15.333 0 39 1.33301 71 4c32.667 2.66699 56.667 4 72 4c14 0 21 -4 21 -12c0 -7.33301 -9.66699 -15.666 -29 -24.999
c-18.667 -7.33301 -31.667 -29 -39 -65c-5.33301 -26 -8 -61 -8 -105v-420l358 269l106 83c35.333 29.333 65.333 55.333 90 78c58 54 87 91.667 87 113c0 20 -7.66699 35 -23 45c-2 2 -5 4.33301 -9 7l-8 5c-4.66699 4 -7 7.66699 -7 11c0 10.667 11.667 16 35 16
c12.667 0 32.334 -1.33301 59.001 -4s46.334 -4 59.001 -4l162 8c52 0 78 -5.33301 78 -16c0 -4.66699 -11.333 -11.667 -34 -21l-75 -31c-76.667 -35.333 -153.667 -81 -231 -137l-514 -387v-4c168.667 -7.33301 286.667 -30.666 354 -69.999
c62.667 -36 140.667 -122.667 234 -260l66 -96c26 -36 51 -68 75 -96c60 -71.333 118.667 -123.333 176 -156c8.66699 -5.33301 18.334 -10.666 29.001 -15.999l22 -12c14 -6.66699 21 -11.667 21 -15c0 -2 -3 -4 -9 -6c-5.33301 -1.33301 -10.666 -2 -15.999 -2l-94 5
l-159 -2c-2.66699 0 -6 -0.333008 -10 -1l-58 -2z" />
    <glyph glyph-name="L" unicode="L" horiz-adv-x="1366" 
d="M159 -1l-6.00098 -0.00195312l-36 -1l-43 -4c-15.333 0 -23 4 -23 12c0 6 9.66699 11.667 29 17c50.667 15.333 85.334 47.333 104.001 96c18 48.667 27 134 27 256v719c0 114.667 -28 180 -84 196c-11.333 4 -17 9 -17 15c0 9.33301 12.333 14 37 14l54 -4
c31.333 -2.66699 62 -4 92 -4l188 8c6.66699 0 11.334 -0.666992 14.001 -2c6 -1.33301 9 -4.66602 9 -9.99902c0 -4 -2 -7 -6 -9l-11 -6c-37.333 -10 -64 -32.667 -80 -68c-12 -27.333 -18.667 -64.666 -20 -111.999v-580c0 -222.667 13.333 -360 40 -412
c23.333 -46 86.333 -69 189 -69c59.333 0 115.666 2 168.999 6c69.333 5.33301 133 14.333 191 27c69.333 14.667 129.666 34 180.999 58c58.667 28 104.334 62 137.001 102l16 21c6 6 11.667 9 17 9c6.66699 0 10 -4.66699 10 -14c0 -5.33301 -1.33301 -13.333 -4 -24
l-78 -236z" />
    <glyph glyph-name="M" unicode="M" horiz-adv-x="1781" 
d="M892 256l524.999 1055h233c15.333 0 25 -0.666992 29 -2s6 -4.33301 6 -9c-0.666992 -4 -4.33398 -7.33301 -11.001 -10c-0.666992 0 -2 -0.333008 -4 -1c-2.66699 -1.33301 -4.33398 -2 -5.00098 -2l-11 -5c-40.667 -22.667 -61 -79.334 -61 -170.001v-666
c0 -164.667 16.333 -286 49 -364c9.33301 -22 25.333 -39.667 48 -53l21 -11c6 -4 9 -8 9 -12c0 -8 -9 -12 -27 -12l-182 6c-44 0 -90 -1 -138 -3c-7.33301 -0.666992 -15.333 -1 -24 -1l-41 -2c-9.33301 0 -14 4 -14 12c0 1.33301 8 5.33301 24 12l22 11
c8 5.33301 15 11.333 21 18c37.333 36.667 56 122 56 256v868h-4l-553 -1134c-9.33301 -17.333 -17.333 -30 -24 -38c-8 -10 -15 -15 -21 -15c-8 0 -15.333 6.33301 -22 19c-2.66699 4 -6 10.333 -10 19l-542 1135h-4v-829c0 -94.667 10.667 -164.667 32 -210
c14 -30.667 40.333 -60.334 79 -89.001c16 -12.667 24 -21.667 24 -27s-13 -8 -39 -8l-30 2c-5.33301 0 -10 0.333008 -14 1c-27.333 2 -55.666 3 -84.999 3l-64 -1l-95 -5c-15.333 0 -23 3.33301 -23 10c0 2.66699 4 6.66699 12 12c1.33301 0.666992 5 3 11 7l12 8
c42.667 35.333 73.334 85.333 92.001 150c15.333 54 23 122.667 23 206v686c0 113.333 -27.333 184.333 -82 213l-19 11c-5.33301 3.33301 -8 7.33301 -8 12c0.666992 3.33301 5.66699 6 15 8c6 1.33301 12 2 18 2c14.667 0 37 -1.33301 67 -4s52.667 -4 68 -4l71 7
c8.66699 0.666992 16.334 1 23.001 1l19 -1c6.66699 -0.666992 12.667 -2.33398 18 -5.00098z" />
    <glyph glyph-name="N" unicode="N" horiz-adv-x="1554" 
d="M184 1073c-1.33301 62 -8.33594 107.668 -21.0029 137.001c-16 38.667 -46 65.334 -90 80.001c-12 5.33301 -18 10.333 -18 15c0 9.33301 9 14 27 14l65 -4c38.667 -2.66699 67.334 -4 86.001 -4c45.333 0 96.666 1.33301 153.999 4
c34.667 -49.333 74.334 -99.333 119.001 -150c37.333 -42.667 81 -89 131 -139l682 -727v684c0 80 -12.333 146.333 -37 199c-20 43.333 -46 74.666 -78 93.999l-34 14c-8.66699 3.33301 -13 6.66602 -13 9.99902c0 12.667 11.667 19 35 19l76 -4
c41.333 -2.66699 69 -4 83 -4c14.667 0 38.334 1.33301 71.001 4s56.334 4 71.001 4c12.667 0 22 -2 28 -6c4 -2.66699 6 -6 6 -10c0 -5.33301 -10.667 -13 -32 -23c-32.667 -12.667 -57.667 -37 -75 -73c-24 -50 -36 -124.667 -36 -224v-829c0 -58 -1.66699 -104 -5 -138
c-3.33301 -38 -8.33301 -57 -15 -57h-4c-8 0 -23.667 14 -47 42l-125 151l-208 235l-235 261l-249 265l-246 248v-833c0 -93.333 11.667 -165.666 35 -216.999c9.33301 -20.667 20.666 -38 33.999 -52c10 -10.667 21.667 -20 35 -28c6 -4 12.333 -7.66699 19 -11l13 -7
c7.33301 -3.33301 11 -7 11 -11c0 -5.33301 -5.33301 -8 -16 -8l-207 5l-137 -5c-15.333 0 -23 2.66699 -23 8c0 4 9.66699 10 29 18c24.667 10 42.334 19.667 53.001 29c58.667 51.333 88 158.666 88 321.999v702z" />
    <glyph glyph-name="O" unicode="O" horiz-adv-x="1705" 
d="M1271 192c85.333 109.333 128.001 259 128.001 449c0 203.333 -42.667 361.333 -128 474c-93.333 123.333 -233 185 -419 185c-186.667 0 -326.334 -61.667 -419.001 -185c-85.333 -112.667 -128 -270.667 -128 -474c0 -190 42.667 -339.667 128 -449
c94 -121.333 233.667 -182 419 -182s325 60.667 419 182zM325.001 143c-74.667 62.667 -132.332 136 -172.999 220c-44 90.667 -66 189.334 -66 296.001c0 105.333 22 202.666 66 291.999c40.667 83.333 98.334 155.666 173.001 216.999c147.333 122.667 323 184 527 184
s379.667 -61.333 527 -184c74.667 -61.333 132.334 -133.666 173.001 -216.999c44 -89.333 66 -186.666 66 -291.999c0 -106.667 -22 -205.334 -66 -296.001c-40.667 -84 -98.334 -157.333 -173.001 -220c-146.667 -122.667 -322.334 -184 -527.001 -184
s-380.334 61.333 -527.001 184z" />
    <glyph glyph-name="P" unicode="P" horiz-adv-x="1402" 
d="M360 680c57.333 -9.33301 120.001 -13.999 188.001 -13.999l89 1c36 0.666992 69.333 2.33398 100 5.00098c78 6 145 18 201 36c70 22 123.667 53 161 93c43.333 47.333 65 106.666 65 177.999c0 98 -37.333 169.667 -112 215c-32 19.333 -72 34.666 -120 45.999
c-40.667 9.33301 -88.667 16 -144 20l-109 5c-40.667 2 -78.334 3 -113.001 3c-30 0 -64.667 -0.666992 -104 -2l-102 -2v-584zM183.001 1110c0 40.667 -4.66504 75.0029 -13.998 103.003c-13.333 37.333 -35 63 -65 77c-12.667 7.33301 -19 13 -19 17c0 8 9.66699 12 29 12
h598c217.333 0 385.666 -32.667 504.999 -98c111.333 -60.667 167 -141.334 167 -242.001c0 -78 -31 -144 -93 -198c-51.333 -45.333 -124.333 -82 -219 -110c-75.333 -21.333 -162.333 -37 -261 -47c-38.667 -3.33301 -78.667 -6 -120 -8
c-32.667 -1.33301 -65.334 -2 -98.001 -2l-233 4v-251c0 -206.667 34.667 -319.334 104 -338.001l41 -13c6.66699 -2.66699 10 -7.33398 10 -14.001c0 -5.33301 -7.33301 -8 -22 -8l-219 6c-52.667 0 -103 -1 -151 -3c-8 -0.666992 -16.333 -1 -25 -1l-42 -2
c-13.333 0 -20 3.33301 -20 10c0 4.66699 6.33301 9.33398 19 14.001l19 7c8 3.33301 15 6.66602 21 9.99902c28.667 17.333 50 53 64 107c16 60 24 145.667 24 257v711z" />
    <glyph glyph-name="Q" unicode="Q" horiz-adv-x="1705" 
d="M1271 192c85.333 109.333 128.001 259 128.001 449c0 203.333 -42.667 361.333 -128 474c-93.333 123.333 -233 185 -419 185c-186.667 0 -326.334 -61.667 -419.001 -185c-85.333 -112.667 -128 -270.667 -128 -474c0 -190 42.667 -339.667 128 -449
c94 -121.333 233.667 -182 419 -182s325 60.667 419 182zM1364 -420c-11.333 -4 -22.3369 -6.00391 -33.0039 -6.00391c-11.333 0 -39.333 11.667 -84 35l-436 224c-0.666992 0.666992 -2 1.66699 -4 3c-2 0.666992 -3.66699 1.33398 -5 2.00098l-9 4
c-13.333 6.66699 -24.333 11.334 -33 14.001c-22.667 8.66699 -48 13 -76 13c-60 0 -120 -28 -180 -84c-13.333 -10.667 -22.333 -16 -27 -16c-4 0 -7.66699 6.66699 -11 20c-2 10.667 -3 19.667 -3 27c0 5.33301 4 11.333 12 18c7.33301 5.33301 17 11.333 29 18l235 93
c20.667 8 39.334 12 56.001 12v6c-194 12 -357.667 78.333 -491 199c-145.333 131.333 -218 297 -218 497c0 105.333 22 202.666 66 291.999c40.667 83.333 98.334 155.666 173.001 216.999c147.333 122.667 323 184 527 184s379.667 -61.333 527 -184
c74.667 -61.333 132.334 -133.666 173.001 -216.999c44 -89.333 66 -186.666 66 -291.999c0 -207.333 -77 -376.666 -231 -507.999c-142 -122 -313.667 -185.333 -515 -190v-10l504 -211c56.667 -22 96.334 -33 119.001 -33c38.667 0 68 5.66699 88 17
c5.33301 2.66699 10 4 14 4c6 0 9 -3 9 -9c0 -13.333 -18.667 -29.666 -56 -48.999z" />
    <glyph glyph-name="R" unicode="R" horiz-adv-x="1554" 
d="M360 717h378.999c59.333 0 111.333 3.33301 156 10c56 8 103.333 21.667 142 41c95.333 46.667 143 127.334 143 242.001c0 87.333 -37.333 153.666 -112 198.999c-63.333 39.333 -143.666 59 -240.999 59h-467v-551zM359.999 367c0 -95.333 6.66699 -170.67 20 -226.003
c16.667 -69.333 44.334 -110.333 83.001 -123c9.33301 -2.66699 16.666 -5 21.999 -7c7.33301 -3.33301 11 -6.33301 11 -9c0 -5.33301 -13.667 -8 -41 -8l-104 5l-236 -2c-6.66699 -0.666992 -13.334 -1 -20.001 -1l-30 -2c-12 0 -18 2.66699 -18 8c0 2 3.66699 5 11 9
l22 12c69.333 34.667 104 170.334 104 407.001v680c0 40.667 -4.66699 75 -14 103c-13.333 36.667 -35.333 61 -66 73c-20 7.33301 -30 15 -30 23c0 6.66699 13.667 10 41 10h602c131.333 0 243.333 -8.33301 336 -25c86 -16 155.667 -39 209 -69
c91.333 -52 137 -128 137 -228c0 -60.667 -19.333 -113.667 -58 -159c-32.667 -38.667 -78.334 -71 -137.001 -97c-47.333 -21.333 -100.666 -37.333 -159.999 -48c-48 -8.66699 -91.667 -13 -131 -13v-4c66.667 -18.667 117.334 -34.667 152.001 -48
c44.667 -18 82 -38.333 112 -61c60 -46 111.333 -125 154 -237l30 -81c13.333 -35.333 25 -63.666 35 -84.999c29.333 -66 61 -109.667 95 -131c7.33301 -5.33301 14.666 -9.33301 21.999 -12l15 -6c8 -2.66699 12 -5.66699 12 -9c0 -4 -4.66699 -6 -14 -6h-236
c-36 0 -60.667 18.333 -74 55l-76 210c-31.333 84 -56.333 146.667 -75 188c-41.333 88.667 -91.666 146.334 -150.999 173.001s-169.333 40 -330 40h-224v-299z" />
    <glyph glyph-name="S" unicode="S" horiz-adv-x="1366" 
d="M536 625c-50 9.33301 -95 20.666 -135 33.999c-52 16.667 -96.667 36.334 -134 59.001c-96 58 -144 134 -144 228c0 127.333 57 228 171 302c106.667 69.333 243.334 104 410.001 104c197.333 0 376.333 -42.333 537 -127l-70 -198c-4 -8.66699 -7.33301 -13 -10 -13
s-5.33398 4 -8.00098 12l-10 31c-14.667 44 -42.667 83 -84 117c-35.333 30 -80 55 -134 75c-46 17.333 -96.333 30.666 -151 39.999c-46 7.33301 -89.667 11 -131 11c-90 0 -166 -19 -228 -57c-77.333 -47.333 -116 -117.666 -116 -210.999c0 -84.667 48 -149 144 -193
c34.667 -16 77.667 -30 129 -42l364 -70c102 -19.333 182 -53.333 240 -102c69.333 -58 104 -134.667 104 -230c0 -76.667 -23 -145 -69 -205c-40.667 -52.667 -97.334 -97.667 -170.001 -135c-63.333 -32 -134.666 -56.667 -213.999 -74
c-69.333 -14.667 -136.333 -22 -201 -22c-91.333 0 -194 14.333 -308 43c-106 26 -202 59.333 -288 100c-13.333 6 -20 10.333 -20 13s1.33301 6.66699 4 12l68 207c2 9.33301 7.33301 14 16 14c7.33301 0 12 -5.33301 14 -16c12.667 -104 81 -186.333 205 -247
c102.667 -50 214 -75 334 -75c114.667 0 213.667 22.333 297 67c104 54.667 156 133.334 156 236.001c0 81.333 -30.333 142.666 -91 183.999c-26 18 -59 33.333 -99 46c-30.667 10 -70.667 20 -120 30z" />
    <glyph glyph-name="T" unicode="T" horiz-adv-x="1441" 
d="M1347 1311l66.001 -227.999l4 -20c0 -5.33301 -1.33301 -8 -4 -8c-4 0 -8.33301 2 -13 6l-14 16c-41.333 62 -109.333 109.333 -204 142c-78 27.333 -161.667 41 -251 41c-82 0 -123 -28 -123 -84v-775c0 -228.667 33 -354 99 -376c34 -11.333 51 -19 51 -23
c0 -5.33301 -7.66699 -8 -23 -8l-82 4c-10.667 0.666992 -22 1 -34 1h-193l-135 -5c-12 0 -18 4 -18 12c0 4.66699 4.66699 8 14 10l37 7c38 9.33301 66.333 54.333 85 135c15.333 69.333 23 162.666 23 279.999v738c0 56 -41 84 -123 84
c-88.667 0 -172.334 -13.667 -251.001 -41c-94 -32.667 -161.667 -80 -203 -142l-14 -16c-4.66699 -4 -9 -6 -13 -6c-2.66699 0 -4 2.66699 -4 8l70 248h1253z" />
    <glyph glyph-name="U" unicode="U" 
d="M184 1112c0 64 -7.33203 109.663 -21.999 136.996c-5.33301 10.667 -12 19 -20 25l-11 7c-2 1.33301 -5.33301 3 -10 5c-20.667 8 -31 15 -31 21c0 8 7.66699 12 23 12l151 -8l180 8c8 0 15 -1 21 -3c6.66699 -2 10 -4.33301 10 -7c0 -3.33301 -2 -6.66602 -6 -9.99902
c-5.33301 -4.66699 -13 -9 -23 -13c-36.667 -12.667 -61 -48 -73 -106c-5.33301 -24 -9 -52.667 -11 -86c-1.33301 -24 -2 -55.667 -2 -95v-514c0 -144 37 -257.667 111 -341c79.333 -89.333 194.666 -134 345.999 -134c85.333 0 158.333 7.66699 219 23
c67.333 16.667 123.333 43.334 168 80.001c97.333 81.333 146 221 146 419v449c0 165.333 -37.667 265 -113 299c-27.333 12.667 -41 22.334 -41 29.001c0 3.33301 3.33301 6 10 8c4.66699 1.33301 9.33398 2 14.001 2l46 -4c14 -1.33301 29.667 -2.33301 47 -3
c22 -0.666992 46.333 -1 73 -1l146 4c14.667 0 22 -2.66699 22 -8c0 -2.66699 -3.66699 -6.33398 -11 -11.001l-23 -14c-40.667 -23.333 -68 -53.666 -82 -90.999c-15.333 -40.667 -23 -110.667 -23 -210v-414c0 -235.333 -54.333 -399.333 -163 -492
c-50 -42.667 -113.667 -73 -191 -91c-68.667 -16.667 -153.334 -25 -254.001 -25c-227.333 0 -390 41 -488 123c-90 74.667 -135 193.334 -135 356.001v674z" />
    <glyph glyph-name="V" unicode="V" horiz-adv-x="1554" 
d="M792 -16c-4 -8.66699 -7 -14.333 -9 -17c-4 -5.33301 -8.33301 -8 -13 -8h-4c-4.66699 0 -9 2.66699 -13 8c-2.66699 2.66699 -6 8.33398 -10 17.001l-516 1042c-27.333 56 -59.333 108 -96 156c-31.333 41.333 -59.333 71.333 -84 90l-31 17
c-8 4.66699 -12 9.33398 -12 14.001c0 10.667 6 16 18 16l170 -8l184 8c6 -0.666992 11 -1.33398 15 -2.00098c9.33301 -2 14 -6 14 -12c0 -3.33301 -3.66699 -7 -11 -11l-23 -14c-24.667 -16.667 -37 -41.334 -37 -74.001c0 -13.333 5.33301 -34 16 -62
c12.667 -35.333 31 -75.333 55 -120l441 -801l379 735c22 42.667 40.667 90 56 142l13 51c2.66699 13.333 4 22.333 4 27c0 48 -19 79.333 -57 94l-24 10l-19 8c-10.667 5.33301 -16 10.333 -16 15c0 9.33301 8 14 24 14l162 -8l160 8c14.667 0 22 -4 22 -12
c0 -2.66699 -4.33301 -6.66699 -13 -12c-6 -4 -11.333 -7.33301 -16 -10c-7.33301 -5.33301 -14.666 -11 -21.999 -17c-44.667 -41.333 -86.334 -99.333 -125.001 -174z" />
    <glyph glyph-name="W" unicode="W" horiz-adv-x="2048" 
d="M696 287l365 993.002c17.333 48 28 72 32 72h4c4.66699 0 15.667 -24 33 -72l373 -993l264 692c28 71.333 41 142.333 39 213c0 42 -20.333 72 -61 90c-4.66699 2 -9.66699 4 -15 6l-14 5c-8 3.33301 -12 7.33301 -12 12c0 5.33301 3.33301 9 10 11
c4.66699 2 11.334 3 20.001 3l66 -4c37.333 -2.66699 64.666 -4 81.999 -4c16.667 0 41.334 1.33301 74.001 4c33.333 2.66699 57.666 4 72.999 4c8.66699 0 15.667 -0.666992 21 -2c6.66699 -2 10 -4.66699 10 -8c0 -4.66699 -4 -11 -12 -19c-6.66699 -6 -15 -12 -25 -18
c-28 -16.667 -60 -52 -96 -106c-42 -64.667 -81 -144.667 -117 -240l-356 -940c-7.33301 -18 -13 -27 -17 -27h-4c-4.66699 0 -15.334 24 -32.001 72l-365 1007h-4l-381 -1052c-7.33301 -18 -12.666 -27 -15.999 -27h-4c-5.33301 0 -16.333 24 -33 72l-420 1034
c-42 105.333 -83.667 173.666 -125 204.999l-34 24c-6 4 -9 8.33301 -9 13c0 5.33301 5 8.66602 15 9.99902c4 0.666992 9 1.33398 15 2.00098h312c38 0 57 -4.66699 57 -14c0 -3.33301 -5.33301 -7.33301 -16 -12l-29 -13c-24.667 -16.667 -37 -41.334 -37 -74.001
c0 -53.333 23.333 -133 70 -239z" />
    <glyph glyph-name="X" unicode="X" horiz-adv-x="1441" 
d="M749 766l188.004 217c41.333 48 73.666 90.333 96.999 127c27.333 43.333 41 77.333 41 102c0 26 -9 45.333 -27 58c-4.66699 3.33301 -10.334 6.66602 -17.001 9.99902l-8 5c-4 2 -6.33301 3 -7 3c-10 6 -15 11 -15 15c0 10.667 6 16 18 16l168 -8l154 8
c8 0 14 -2.66699 18 -8c2.66699 -4 4 -8.33301 4 -13c0 -2 -2.66699 -4.33301 -8 -7l-18 -9c-36.667 -21.333 -69 -44 -97 -68c-63.333 -54.667 -127 -116.667 -191 -186c-54.667 -58.667 -113 -126.334 -175 -203.001l-88 -106l365 -461
c44.667 -54 87.334 -103 128.001 -147c16 -16.667 34.333 -33.667 55 -51c16.667 -14 32.667 -25.667 48 -35l28 -15c7.33301 -3.33301 11 -6.66602 11 -9.99902c0 -2 -2 -3.66699 -6 -5c-6.66699 -2 -18.334 -3 -35.001 -3l-189 8c-58.667 0 -110.334 -1.33301 -155.001 -4
l-56 -4c-9.33301 0 -14 2 -14 6c0 5.33301 9.66699 12.666 29 21.999c14.667 8 22 24.667 22 50c0 40.667 -48.333 126.667 -145 258l-191 264l-85 -101c-42 -51.333 -79 -99 -111 -143c-42 -56.667 -74.667 -105.667 -98 -147c-28 -50 -42 -87.667 -42 -113
c0 -37.333 11.667 -60.666 35 -69.999l25 -11c6.66699 -4 10 -7 10 -9c0 -4 -6 -6 -18 -6l-176 8c-31.333 0 -59.333 -0.333008 -84 -1c-18.667 -0.666992 -35.334 -1.66699 -50.001 -3l-43 -4c-10.667 0 -16 2.66699 -16 8c0 1.33301 5 4.33301 15 9l40 20
c46 23.333 97 66.333 153 129l62 73c4.66699 4.66699 7.66699 8.33398 9 11.001l73 84l264 317l-317 428c-84 112.667 -141.333 177 -172 193c-35.333 20.667 -53 35.667 -53 45c0 6.66699 6 10 18 10l64 -4c44.667 -2.66699 89.667 -4 135 -4l172 8
c12 0 18 -3.33301 18 -10c0 -8 -12.333 -17 -37 -27c-18.667 -8 -28 -33.333 -28 -76c0 -26 22.333 -69 67 -129z" />
    <glyph glyph-name="Y" unicode="Y" horiz-adv-x="1441" 
d="M791 303c0 -135.333 17.6689 -220.668 53.002 -256.001c8 -6.66699 16.333 -12.667 25 -18l23 -13c14 -7.33301 21 -11.333 21 -12c0 -5.33301 -7.33301 -8 -22 -8l-118 3h-137l-124 -3c-12 0 -18 2.66699 -18 8c0 2 7.33301 6.66699 22 14l21 11
c8.66699 5.33301 16 11.333 22 18c36.667 36.667 55 122 55 256v260l-309 410l-119 144c-56 68 -98.333 114.667 -127 140l-37 26c-16 10 -24 18 -24 24c0 8 4.66699 12 14 12l181 -8c25.333 0 65.666 1.33301 120.999 4l104 4c10.667 0 16 -5.33301 16 -16
c0 -2.66699 -3.33301 -5 -10 -7l-20 -6c-36 -10.667 -54 -33 -54 -67c0 -48 41 -120.333 123 -217l289 -349l282 326c24 28.667 44.333 54.334 61 77.001c48.667 66.667 73 118 73 154c0 21.333 -7.66699 39.333 -23 54l-21 15l-33 14c-4.66699 2.66699 -7 6 -7 10
c0 8 3.33301 12 10 12l158 -6l174 6c6.66699 -3.33301 10 -8 10 -14s-4.66699 -13 -14 -21c-140.667 -112.667 -266.334 -239 -377.001 -379l-264 -321v-281z" />
    <glyph glyph-name="Z" unicode="Z" horiz-adv-x="1290" 
d="M761 684c-106 -144.667 -191.997 -266.999 -257.997 -366.999c-75.333 -114.667 -113 -184 -113 -208c0 -26 26 -43 78 -51c20.667 -2.66699 47.667 -4.66699 81 -6l95 -1c119.333 0 220 12 302 36c102 29.333 189 79.666 261 150.999c21.333 22.667 35 34 41 34
c7.33301 0 11 -4 11 -12c0 -5.33301 -0.666992 -9.33301 -2 -12l-82 -248h-1135l565 738l196 267c39.333 55.333 68.666 99.333 87.999 132c22.667 36.667 34 61 34 73c0 8.66699 -2.33301 15.667 -7 21c-6 6.66699 -16 11.667 -30 15c-32 9.33301 -92 14 -180 14
c-170.667 0 -301.334 -15.667 -392.001 -47c-40.667 -14 -77.334 -32.333 -110.001 -55c-26 -18 -53.333 -41.667 -82 -71l-20 -21c-4.66699 -4.66699 -9 -7 -13 -7s-6 3.33301 -6 10c0 4 1.66699 12.667 5 26l5 15l68 201h1061z" />
    <glyph glyph-name="bracketleft" unicode="[" horiz-adv-x="530" 
d="M253 -131c0 -136.667 49.333 -205 148 -205v-31c-92.667 0 -162.334 27.333 -209.001 82c-53.333 62.667 -80 163.667 -80 303v949c0 139.333 26.667 240.333 80 303c46.667 54.667 116.334 82 209.001 82v-31c-98.667 0 -148 -68.333 -148 -205v-1247z" />
    <glyph glyph-name="backslash" unicode="\" horiz-adv-x="569" 
d="M611 -41h-114l-535 1393h115z" />
    <glyph glyph-name="bracketright" unicode="]" horiz-adv-x="530" 
d="M276 1116c0 136.667 -49 205 -147 205v31c92.667 0 162.334 -27.333 209.001 -82c53.333 -62.667 80 -163.667 80 -303v-949c0 -139.333 -26.667 -240.333 -80 -303c-46.667 -54.667 -116.334 -82 -209.001 -82v31c98 0 147 68.333 147 205v1247z" />
    <glyph glyph-name="asciicircum" unicode="^" horiz-adv-x="1228" 
d="M186 512l375 748h106l375 -748h-127l-301 604l-301 -604h-127z" />
    <glyph glyph-name="underscore" unicode="_" horiz-adv-x="1024" 
d="M1024 -154v-102h-1024v102h1024z" />
    <glyph glyph-name="grave" unicode="`" horiz-adv-x="266" 
d="M122 930c-70.667 0 -106 48.3311 -106 144.998c0 56.667 22.333 118.334 67 185.001c40.667 61.333 73 92 97 92c6.66699 0 10 -3 10 -9c0 -5.33301 -1.33301 -9.33301 -4 -12c-28 -37.333 -47.667 -68.666 -59 -93.999c-15.333 -34 -23 -70.333 -23 -109
c83.333 0 125 -30 125 -90c0 -72 -35.667 -108 -107 -108z" />
    <glyph glyph-name="a" unicode="a" horiz-adv-x="1251" 
d="M775 606c-62.667 0 -119.332 -3.33496 -169.999 -10.002c-64 -9.33301 -118.667 -24 -164 -44c-114 -51.333 -171 -137.666 -171 -258.999c0 -86.667 30 -154.667 90 -204c56 -46 127.667 -69 215 -69c138.667 0 235.667 51.667 291 155
c23.333 42.667 39.666 95.334 48.999 158.001c8 51.333 12 112.333 12 183v90h-152zM1091 306.998c0 -74 4.99902 -134.668 14.999 -182.001c12 -57.333 31 -90 57 -98c10.667 -4.66699 16 -10.334 16 -17.001c0 -9.33301 -6.33301 -14 -19 -14l-99 3
c-4.66699 0 -11.334 -0.333008 -20.001 -1l-36 -2c-16.667 0 -25 5.33301 -25 16c0 18.667 -5 50 -15 94l-12 52c-4 18.667 -6.66699 34.334 -8 47.001h-4c-42 -84 -101.333 -145.333 -178 -184c-68.667 -34.667 -153.334 -52 -254.001 -52
c-111.333 0 -208.666 26.667 -291.999 80c-96 62 -144 144.667 -144 248c0 73.333 25.667 136 77 188c43.333 45.333 105 82 185 110c66 22.667 142.667 39.334 230 50.001c66.667 8 135.334 12 206.001 12h156c0 129.333 -22 224 -66 284
c-51.333 68.667 -138.666 103 -261.999 103c-84.667 0 -165.667 -19.667 -243 -59c-91.333 -46 -141.333 -106 -150 -180c0 -5.33301 -3.33301 -8 -10 -8c-4 0 -6.66699 2 -8 6l-56 194c76.667 33.333 157 58.666 241 75.999c76 15.333 149.333 23 220 23
c177.333 0 307 -37 389 -111c72.667 -65.333 109 -161.666 109 -288.999v-389z" />
    <glyph glyph-name="b" unicode="b" horiz-adv-x="1366" 
d="M396 882c-62 -92.667 -92.999 -214.666 -92.999 -365.999c0 -143.333 29.667 -258 89 -344c69.333 -101.333 174.333 -152 315 -152c130.667 0 232 52 304 156c64.667 93.333 97 213.666 97 360.999c0 142.667 -28.333 258.667 -85 348
c-66.667 106 -167.334 159 -302.001 159c-144 0 -252.333 -54 -325 -162zM303.001 834.001l3.99902 -0.000976562c76.667 174.667 214 262 412 262c164.667 0 302.334 -49.667 413.001 -149c115.333 -102 173 -233.333 173 -394c0 -165.333 -51.667 -303.333 -155 -414
c-105.333 -113.333 -240.333 -170 -405 -170c-111.333 0 -200 17 -266 51c-58 30 -119.333 85.333 -184 166l-68 -186h-178c-4 0 -6 2 -6 6c0 2.66699 6 10.334 18 23.001c36.667 33.333 61.667 90.333 75 171c6 36.667 10 81 12 133c2.66699 43.333 4 97.666 4 162.999v731
c0 100.667 -26.667 158.667 -80 174c-16.667 4 -25 8.66699 -25 14c0 2.66699 3 5.33398 9 8.00098l247 62v-651z" />
    <glyph glyph-name="c" unicode="c" horiz-adv-x="1214" 
d="M1087 799c-4 -12.667 -9 -18.998 -15 -18.998c-4 0 -9 5.66699 -15 17c-7.33301 11.333 -18 33 -32 65c-19.333 60 -68 106.667 -146 140c-61.333 26 -129.333 40 -204 42c-142.667 0 -248.334 -52.333 -317.001 -157c-57.333 -88.667 -86 -210.334 -86 -365.001
c0 -140.667 34.333 -257 103 -349c76 -102 181.333 -153 316 -153c57.333 0 112.333 10.667 165 32c44 18 86 43 126 75c30.667 24.667 59.334 52.667 86.001 84l47 63c8 15.333 15.667 23 23 23c4.66699 0 8.66699 -4 12 -12c2.66699 -6.66699 4 -12.334 4 -17.001
c0 -6.66699 -2.66699 -14 -8 -22c-122.667 -184.667 -286.334 -277 -491.001 -277c-160.667 0 -296.667 52 -408 156c-114.667 106 -172 239 -172 399c0 170 57.333 308.333 172 415c112 104.667 254.667 157 428 157c104.667 -4 204.334 -20 299.001 -48
c82 -24 136.667 -49 164 -75z" />
    <glyph glyph-name="d" unicode="d" horiz-adv-x="1366" 
d="M354 874c-28 -48 -49 -104.333 -63 -169c-12.667 -58 -19 -119.667 -19 -185c0 -133.333 29.667 -246.333 89 -339c69.333 -107.333 165.666 -161 288.999 -161c146.667 0 256.334 52.667 329.001 158c62 90.667 93 213.667 93 369c0 152 -31.333 270.333 -94 355
c-70.667 94.667 -177.667 142 -321 142c-134 0 -235 -56.667 -303 -170zM1228 1485v-1032c0 -240.667 24 -378 72 -412c18.667 -14.667 28 -24.334 28 -29.001c0 -8 -6 -12 -18 -12c-7.33301 -0 -15.333 0.333008 -24 1l-68 7c-7.33301 0 -15.333 -0.333008 -24 -1l-68 -7
l-50 225c-103.333 -170.667 -247.333 -256 -432 -256c-162.667 0 -298 51.667 -406 155c-108.667 104.667 -163 236.667 -163 396c0 172 56.667 311.333 170 418c111.333 105.333 253.333 158 426 158c78 0 157 -20.333 237 -61c63.333 -32 119.333 -72.667 168 -122v285
c0 45.333 -4.33301 83 -13 113c-12 39.333 -31.333 63 -58 71c-14 4 -23.333 7.33301 -28 10c-4.66699 2 -7 4.33301 -7 7c0 6 6 11.333 18 16z" />
    <glyph glyph-name="e" unicode="e" horiz-adv-x="1290" 
d="M284 676c-2 -8.66699 -3.66504 -16.667 -4.99805 -24l-4 -26c-2 -18.667 -3 -35.667 -3 -51c0 -164 32 -292.667 96 -386c74.667 -106.667 188 -160 340 -160c71.333 0 138.666 15.667 201.999 47c52.667 26.667 100.667 63.334 144 110.001
c34.667 36.667 64 77.334 88 122.001c19.333 35.333 31 63.666 35 84.999c1.33301 7.33301 4 13.666 8 18.999c4.66699 6.66699 10.667 10 18 10c11.333 0 17 -6.33301 17 -19c0 -15.333 -3.33301 -32.333 -10 -51c-37.333 -119.333 -109.666 -213.333 -216.999 -282
c-104 -67.333 -225.667 -101 -365 -101c-156.667 0 -288.667 57.333 -396 172c-104.667 112.667 -157 248 -157 406c0 142.667 51.333 267.667 154 375c111.333 116 252.666 174 423.999 174c141.333 0 262.666 -35.667 363.999 -107c110 -76.667 170.667 -181 182 -313
h-915zM1003 727c0 97.333 -32.333 175 -97 233c-62 56 -142.333 84 -241 84c-203.333 0 -329 -105.667 -377 -317h715z" />
    <glyph glyph-name="f" unicode="f" horiz-adv-x="645" 
d="M52 1004l151.999 0.000976562v98c0 117.333 49 209.333 147 276c40.667 28 90 51 148 69c50 16 106 28.667 168 38l-56 -172c-17.333 22 -35.666 39 -54.999 51c-25.333 16.667 -53.333 25 -84 25c-78 0 -117 -45.333 -117 -136v-249h189l-14 -52h-175v-491
c0 -237.333 26.667 -378 80 -422c4 -3.33301 9.33301 -7 16 -11l12 -7c2 -0.666992 3.33301 -1.33398 4 -2.00098c11.333 -6 17 -11 17 -15c0 -5.33301 -6.66699 -8 -20 -8l-184 4l-146 -4c-14.667 0 -22 2 -22 6c0 2 3 5 9 9l19 14c24.667 19.333 42 46 52 80
c8 26.667 12 60 12 100v747h-166z" />
    <glyph glyph-name="g" unicode="g" horiz-adv-x="1290" 
d="M556 96c-46 0 -86.333 -2 -121 -6c-47.333 -5.33301 -87.666 -14.666 -120.999 -27.999c-86.667 -34 -130 -95 -130 -183c0 -80.667 51 -142.334 153 -185.001c39.333 -16.667 83.666 -29 132.999 -37c41.333 -7.33301 80.333 -11 117 -11c328 0 492 79 492 237
c0 48 -21.333 88 -64 120c-36 26.667 -86.333 48 -151 64c-50 12 -107.667 20.333 -173 25l-76 4h-59zM284 717c0 -218.667 114.667 -328 344 -328c218.667 0 328 112.667 328 338c0 218.667 -113.333 328 -340 328c-221.333 0 -332 -112.667 -332 -338zM1179 1065
c-35.333 25.333 -61.668 41.999 -79.001 49.999c-26 12 -56.333 18 -91 18c-61.333 0 -114 -25.333 -158 -76c87.333 -32.667 154 -74 200 -124c54 -58.667 81 -130 81 -214c0 -107.333 -47 -195.333 -141 -264c-81.333 -59.333 -179 -93.666 -293 -102.999
c-33.333 -2.66699 -72.666 -4 -117.999 -4h-118c-57.333 0 -86 -17.667 -86 -53c0 -18.667 18.667 -34.667 56 -48c30 -10.667 72 -20 126 -28c38.667 -5.33301 85 -10 139 -14l91 -6c45.333 -2.66699 89 -7.66699 131 -15c54.667 -10 102.334 -23.333 143.001 -40
c108 -45.333 162 -112.333 162 -201c0 -69.333 -20.667 -128.333 -62 -177c-37.333 -44 -90.333 -79.333 -159 -106c-59.333 -24 -130.333 -41.333 -213 -52c-68 -9.33301 -142.333 -14 -223 -14c-136.667 0 -256.334 24 -359.001 72
c-122.667 56.667 -184 135.334 -184 236.001c0 62 42 114.333 126 157c32.667 16 69.667 29.667 111 41c34 10 67 17 99 21v4l-49 11c-19.333 5.33301 -35.666 11.666 -48.999 18.999c-34.667 19.333 -52 46.333 -52 81c0 40 25.667 73.667 77 101
c42.667 22.667 86.667 34.667 132 36v4c-78 18 -147.667 57.667 -209 119c-68 68 -102 142.333 -102 223c0 117.333 55.333 211.666 166 282.999c96 62.667 206 94 330 94c31.333 0 66 -2.66699 104 -8c28.667 -4 62.667 -10.333 102 -19
c51.333 62.667 115.666 108.334 192.999 137.001c70.667 26.667 149 37.667 235 33z" />
    <glyph glyph-name="h" unicode="h" horiz-adv-x="1327" 
d="M311 829l6.00293 0.000976562c69.333 178 204.666 267 405.999 267c123.333 0 224.666 -29 303.999 -87c94.667 -70 142 -173 142 -309v-401c0 -160.667 21.333 -251.334 64 -272.001l28 -15c7.33301 -3.33301 11 -6 11 -8c0 -2.66699 -2.33301 -4.66699 -7 -6
c-4 -1.33301 -8.66699 -2 -14 -2l-114 3h-100l-120 -3c-9.33301 0 -14 2.66699 -14 8c0 4 3.66699 7.66699 11 11l12 5c4.66699 2 8.66699 4.33301 12 7c26 17.333 44.333 43.333 55 78c8 26 12 59.333 12 100v401c0 161.333 -32 278 -96 350
c-52.667 58.667 -128.334 88 -227.001 88c-108 0 -197.333 -43.333 -268 -130c-68.667 -84.667 -103 -188.667 -103 -312v-315c0 -142 24.667 -228.667 74 -260l26 -16c7.33301 -4 11 -7 11 -9c0 -4 -5.66699 -6 -17 -6l-123 3h-93l-124 -3c-12 0 -18 3.33301 -18 10
c0 2.66699 4 6 12 10l27 15c28.667 16.667 49 41.667 61 75c8.66699 25.333 13 58.333 13 99v1079c0 65.333 -24.667 102.333 -74 111l-12 4c-4.66699 2 -7 4.66699 -7 8c0 2 2.33301 4.66699 7 8c4.66699 2.66699 8.66699 4 12 4l225 66v-656z" />
    <glyph glyph-name="i" unicode="i" horiz-adv-x="530" 
d="M348 365c0 -212.667 28.667 -327.666 86 -344.999l13 -2c4.66699 -1.33301 8 -2.33301 10 -3c6.66699 -2.66699 10 -6.33398 10 -11.001c0 -2.66699 -3 -4.66699 -9 -6c-4 -1.33301 -9.33301 -2 -16 -2l-123 3l-217 -3c-10.667 0 -16 2.66699 -16 8
c0 7.33301 11.667 15.666 35 24.999c50.667 23.333 76 120 76 290v599c0 17.333 -7.33301 31 -22 41c-4.66699 3.33301 -12 7.33301 -22 12l-12 6c-4.66699 2 -8.66699 4 -12 6c-12 4.66699 -18 8.66699 -18 12c0 4.66699 4.66699 8.33398 14 11.001l223 59v-700zM369 1315
c0 -65.333 -32.333 -98 -97 -98c-64 0 -96 32.667 -96 98s32 98 96 98c64.667 0 97 -32.667 97 -98z" />
    <glyph glyph-name="j" unicode="j" horiz-adv-x="530" 
d="M367 215c0 -71.333 -1.66699 -127.667 -5 -169c-2.66699 -34.667 -7.33398 -68.334 -14.001 -101.001c-19.333 -97.333 -67.666 -179 -144.999 -245c-77.333 -67.333 -165.333 -102.666 -264 -105.999c-28 0 -52 5.66699 -72 17l47 133l9 13
c3.33301 4.66699 6.66602 7 9.99902 7c5.33301 0 12 -8 20 -24c24.667 -44 63 -66 115 -66c54 0 92 39.333 114 118c22 77.333 33 211.666 33 402.999v628c0 60 -7.33301 102 -22 126c-5.33301 9.33301 -12.666 17.333 -21.999 24l-12 7l-31 16
c-4.66699 2.66699 -7 5.33398 -7 8.00098s5.33301 6 16 10l230 51v-850zM387 1315c0 -65.333 -32 -98 -96 -98s-96 32.667 -96 98s32 98 96 98s96 -32.667 96 -98z" />
    <glyph glyph-name="k" unicode="k" horiz-adv-x="1175" 
d="M338 606c23.333 14.667 58.334 38.333 105.001 71c53.333 38 103.666 76 150.999 114c57.333 45.333 102.333 85 135 119c39.333 40 59 69 59 87c0 26 -8.66699 44 -26 54l-16 6c-4.66699 1.33301 -7 2.66602 -7 3.99902c0 6.66699 10.333 10 31 10l83 -4
c8.66699 -0.666992 17 -1 25 -1h105c6.66699 0 14 0.333008 22 1l86 4c11.333 0 21.666 -1 30.999 -3c10.667 -2 16 -4.33301 16 -7c0 -5.33301 -10.667 -10 -32 -14c-37.333 -7.33301 -86.333 -28 -147 -62c-54.667 -30.667 -113.667 -69.667 -177 -117l-311 -231v-4
c116 0 206.667 -24.333 272 -73c29.333 -22 58.666 -52 87.999 -90c21.333 -28 49.333 -70 84 -126c32 -51.333 58 -91.333 78 -120c28 -40 54.667 -73 80 -99c38 -41.333 79 -72 123 -92l14 -7c6.66699 -2.66699 11 -4.66699 13 -6c8 -4 12 -7.33301 12 -10
c0 -6.66699 -11 -10 -33 -10h-275l-202 342l-50 78c-21.333 30 -42.333 56 -63 78c-55.333 57.333 -110 86 -164 86c-45.333 0 -76.666 -22.333 -93.999 -67c-10.667 -29.333 -16 -75.333 -16 -138v-133c0 -52 5.33301 -97 16 -135c13.333 -46.667 33 -74.667 59 -84
c12.667 -4 23.334 -8 32.001 -12c10 -4.66699 15 -9 15 -13s-9.33301 -6 -28 -6l-123 3h-94l-123 -3c-23.333 0 -35 2 -35 6c0 2 5.33301 6 16 12l35 21c52 34 78 147.333 78 340v807c0 132 -24 204.333 -72 217c-20 4 -30 8.66699 -30 14
c0 4.66699 3.66699 8.33398 11 11.001l243 61v-879z" />
    <glyph glyph-name="l" unicode="l" horiz-adv-x="530" 
d="M348 297c0 -72 4.33301 -127.998 13 -167.998c12 -53.333 33 -86 63 -98l29 -13c9.33301 -4.66699 14 -9.33398 14 -14.001c0 -2.66699 -4.66699 -4.66699 -14 -6c-6.66699 -1.33301 -13.667 -2 -21 -2l-113 3h-94l-123 -3c-18 0 -30 0.666992 -36 2
c-6 0.666992 -9 2.66699 -9 6c0 4.66699 5.66699 9.66699 17 15l38 16c34 14.667 57.333 62.667 70 144c5.33301 35.333 9.33301 78 12 128c1.33301 41.333 2 92 2 152v727c0 128 -23.667 201 -71 219c-14 4 -21 8 -21 12c0 5.33301 6.33301 9.66602 19 12.999l225 55v-1188
z" />
    <glyph glyph-name="m" unicode="m" horiz-adv-x="2048" 
d="M300 1065l-0.000976562 -240h4c76 180.667 197 271 363 271c120.667 0 213 -25.667 277 -77c52.667 -42 97.667 -112.667 135 -212h4c54 192.667 171.333 289 352 289c164.667 0 284.667 -43 360 -129c64.667 -73.333 97 -180 97 -320v-358
c0 -147.333 19.667 -235.333 59 -264l25 -14c8 -3.33301 12 -5.66602 12 -6.99902c0 -5.33301 -4.66699 -8 -14 -8l-124 3l-204 -3c-12.667 0 -19 2.66699 -19 8c0 6 7.66699 12.333 23 19c52 26.667 78 105 78 235v356c0 155.333 -32.333 269.666 -97 342.999
c-52 58 -119.333 87 -202 87c-114.667 0 -197.667 -48 -249 -144c-44.667 -84.667 -67 -210 -67 -376v-319c0 -40 4.33301 -74.667 13 -104c10.667 -36.667 27 -60 49 -70c10 -5.33301 19 -10.666 27 -15.999s12 -9 12 -11c0 -5.33301 -7 -8 -21 -8l-126 3l-208 -3
c-10.667 0 -16 2.66699 -16 8c0 2 3.33301 4.66699 10 8l23 15c49.333 31.333 74 129.666 74 294.999v378c0 116 -32.333 205.333 -97 268c-52.667 50.667 -114.667 76 -186 76c-94.667 0 -177.334 -48.667 -248.001 -146c-68 -94.667 -102 -200 -102 -316v-344
c0 -108 22.333 -179.667 67 -215c2 -1.33301 5 -3 9 -5c4.66699 -1.33301 7.33398 -2.33301 8.00098 -3c6.66699 -3.33301 10 -7 10 -11c0 -5.33301 -7.66699 -8 -23 -8l-78 3l-219 -3c-12 0 -18 2.66699 -18 8c0 4 3 7.66699 9 11l9 5c4 2.66699 7.66699 5 11 7
c24 18.667 41 57.667 51 117c8 46 12 106.667 12 182v501c0 50 -6.66699 86.333 -20 109c-5.33301 8.66699 -11.666 16 -18.999 22l-18 11c-19.333 9.33301 -29 16 -29 20c0 8 4.66699 13 14 15z" />
    <glyph glyph-name="n" unicode="n" horiz-adv-x="1327" 
d="M295 1065l0.00390625 -236.005h6c27.333 84 81.666 150.333 162.999 199c76 45.333 162.333 68 259 68c123.333 0 224.666 -29 303.999 -87c94.667 -70 142 -173 142 -309v-401c0 -107.333 4.66699 -177.666 14 -210.999c7.33301 -27.333 24.666 -47 51.999 -59
c24.667 -11.333 37 -19.666 37 -24.999c0 -2.66699 -2.33301 -4.66699 -7 -6c-4 -1.33301 -8.66699 -2 -14 -2l-114 3h-100l-120 -3c-18.667 0 -28 2 -28 6c0 5.33301 5.33301 10.666 16 15.999l14 6c5.33301 2 9 3.66699 11 5c30 16.667 50.667 52 62 106
c8.66699 42.667 13 107 13 193v278c0 161.333 -32 278 -96 350c-52.667 58.667 -128.334 88 -227.001 88c-108 0 -197.333 -43.333 -268 -130c-68.667 -84.667 -103 -188.667 -103 -312v-315c0 -142 24.667 -228.667 74 -260l26 -16c7.33301 -4 11 -7 11 -9
c0 -4 -5.66699 -6 -17 -6l-123 3h-93l-124 -3c-12 0 -18 3.33301 -18 10c0 2.66699 4 6 12 10l27 15c28.667 16.667 49 55.667 61 117c8.66699 44.667 13 103.334 13 176.001v458c0 70.667 -7 121.334 -21 152.001c-10.667 22.667 -27 37.667 -49 45
c-18 4.66699 -27 11.334 -27 20.001c0 4 3.33301 7 10 9c2 0.666992 4.66699 1.33398 8 2.00098z" />
    <glyph glyph-name="o" unicode="o" horiz-adv-x="1366" 
d="M362 172c70 -101.333 176.333 -152 319 -152s249 50.667 319 152c61.333 88 91.666 208 90.999 360c0.666992 152.667 -29.666 273 -90.999 361c-70 100.667 -176.333 151 -319 151s-249 -50.333 -319 -151c-61.333 -88 -91.333 -208.333 -90 -361
c-1.33301 -152 28.667 -272 90 -360zM262 941c118.667 103.333 258.334 155 419.001 155c161.333 0 301 -51.667 419 -155c124.667 -109.333 187 -245.666 187 -408.999c0 -162.667 -62.333 -298.667 -187 -408c-118 -103.333 -257.667 -155 -419 -155
c-160.667 0 -300.334 51.667 -419.001 155c-124.667 109.333 -187 245.333 -187 408c0 163.333 62.333 299.666 187 408.999z" />
    <glyph glyph-name="p" unicode="p" horiz-adv-x="1366" 
d="M384 891c-64 -88.667 -95.999 -201.333 -95.999 -338c0 -160.667 29.667 -285.667 89 -375c69.333 -105.333 177.666 -158 324.999 -158c141.333 0 245 53.667 311 161c56 90 84 214 84 372c0 142.667 -31.333 258 -94 346c-70 96.667 -170.333 145 -301 145
c-138.667 0 -244.667 -51 -318 -153zM272.001 799.001l6 0.000976562c42 94 98.333 165.667 169 215c76 53.333 170 80.666 282 81.999c154.667 0 287.334 -53 398.001 -159c111.333 -106.667 167 -236.667 167 -390c0 -162 -53.667 -298 -161 -408
c-110.667 -113.333 -251.667 -170 -423 -170c-86.667 3.33301 -172 27 -256 71c-78 40.667 -132 86 -162 136h-4v-309c0 -62.667 4 -108.667 12 -138c11.333 -42.667 34 -74.667 68 -96l16 -7l8 -4c2.66699 -0.666992 4.66699 -1.33398 6 -2.00098
c8.66699 -4 13 -7.66699 13 -11c0 -6.66699 -8.66699 -10 -26 -10l-94 5h-150l-92 -5c-22 0 -33 2.66699 -33 8c0 4 3 7.66699 9 11l44 17c45.333 16 68 141 68 375v803c0 64 -8.33301 110 -25 138c-6.66699 10.667 -14.667 18.667 -24 24
c-6.66699 4 -14.334 6.66699 -23.001 8c-13.333 2 -20 5.33301 -20 10c0 6.66699 7.33301 11 22 13c72 12.667 140.333 32.334 205 59.001v-266z" />
    <glyph glyph-name="q" unicode="q" horiz-adv-x="1366" 
d="M369 891c-71.333 -94 -107 -206.666 -107 -337.999c0 -68.667 7 -132.334 21 -191.001c15.333 -66 38 -123 68 -171c71.333 -114 179.333 -171 324 -171c141.333 0 245.333 53.667 312 161c56 90 84 214 84 372c0 142.667 -31.667 258 -95 346
c-70 96.667 -170.333 145 -301 145c-126 0 -228 -51 -306 -153zM1284 1065c8 0 12 -3.33105 12 -9.99805c0 -4.66699 -4 -10.334 -12 -17.001c-24.667 -20.667 -42 -47.667 -52 -81c-8 -26.667 -12 -59.667 -12 -99v-813c0 -159.333 10.333 -271 31 -335
c15.333 -48 40.666 -77 75.999 -87c14.667 -4 22 -8.66699 22 -14c0 -4.66699 -2.66699 -7.66699 -8 -9c-3.33301 -0.666992 -8.66602 -1 -15.999 -1l-274 3l-95 -3c-11.333 0 -17 2.66699 -17 8c0 8 9.66699 14.667 29 20c67.333 16.667 101 130 101 340v256l-5 4
c-78 -172 -223.333 -258 -436 -258c-158.667 0 -292 52.667 -400 158c-108.667 106.667 -163 239.667 -163 399c0 162 57.333 298 172 408c113.333 108 251.333 162 414 162c89.333 0 168 -15.333 236 -46c60 -26.667 120.667 -69.334 182 -128.001l38 143h177z" />
    <glyph glyph-name="r" unicode="r" horiz-adv-x="757" 
d="M667 891c-1.33301 1.33301 -4.33203 4 -8.99902 8s-8.33398 7 -11.001 9l-24 17c-20.667 12.667 -42.667 19 -66 19c-82 0 -141.667 -48 -179 -144c-32.667 -85.333 -49 -214 -49 -386v-125c0 -164 33.667 -250 101 -258c23.333 -2 35 -10.333 35 -25
c0 -6.66699 -5.66699 -10 -17 -10l-128 3h-108l-128 -3c-6 0 -11.667 1 -17 3s-8 4.33301 -8 7c0 8.66699 11.667 17.667 35 27c56 28 84 125.667 84 293v594c0 36.667 -23.333 63 -70 79c-20.667 5.33301 -31 11 -31 17c0 2.66699 9 6.66699 27 12l213 57v-286h4
c91.333 198 230 297 416 297z" />
    <glyph glyph-name="s" unicode="s" horiz-adv-x="1175" 
d="M981 846c-6 -18 -12.001 -27 -18.001 -27c-6.66699 0 -15 15.667 -25 47c-17.333 58 -63 103.333 -137 136c-63.333 28 -133 42 -209 42c-79.333 0 -146.333 -16.667 -201 -50c-62.667 -38.667 -94 -93 -94 -163c0 -88 45.333 -148.667 136 -182
c33.333 -12 75 -21 125 -27l191 -19c25.333 -2.66699 48.333 -5.66699 69 -9c52 -9.33301 95.333 -22 130 -38c91.333 -41.333 137 -112 137 -212c0 -121.333 -58 -216.666 -174 -285.999c-98 -59.333 -211.333 -89 -340 -89c-104 0 -194.333 7 -271 21
c-96.667 17.333 -181.667 46.666 -255 87.999l43 133c8 26.667 14.667 45 20 55s11 15 17 15c4.66699 0 8.66699 -4 12 -12l12 -31c26.667 -77.333 84 -135 172 -173c70 -30 152 -45 246 -45s172 16 234 48c80.667 40.667 121 103.334 121 188.001
c0 87.333 -45.333 146.666 -136 177.999c-33.333 11.333 -75.666 20 -126.999 26c-18.667 2 -41 3.66699 -67 5l-64 4c-46 4.66699 -90 13 -132 25c-49.333 13.333 -92 31 -128 53c-90 53.333 -135 126.333 -135 219c0 112.667 56.333 199 169 259c46 24 99 42 159 54
c52.667 11.333 106.667 17 162 17c142.667 0 279.667 -28.667 411 -86z" />
    <glyph glyph-name="t" unicode="t" horiz-adv-x="645" 
d="M96 952c-26 0 -38.999 4.33398 -38.999 13.001c0 7.33301 11 16.666 33 27.999c58 30 107.667 68.333 149 115c46.667 52.667 78 111.334 94 176.001c5.33301 19.333 13 29 23 29c6.66699 0 10 -9 10 -27v-282h180c19.333 0 29 -3 29 -9l-8 -43h-201v-358
c0 -82.667 1.66699 -152.334 5 -209.001c4 -70 10.667 -128.667 20 -176c22.667 -110.667 63 -173.667 121 -189c9.33301 -1.33301 14 -4 14 -8c0 -5.33301 -11.667 -8 -35 -8l-64 -3c-24 -0.666992 -45.667 -1 -65 -1c-56.667 0 -94.334 12 -113.001 36
c-22.667 30 -34 95 -34 195v721h-119z" />
    <glyph glyph-name="u" unicode="u" horiz-adv-x="1327" 
d="M325 1065v-685.999c0 -104 24.333 -187.333 73 -250c55.333 -72.667 138.333 -109 249 -109c120 0 212.667 53.333 278 160c58.667 96.667 88 222.334 88 377.001v201c0 73.333 -4.66699 124.333 -14 153c-8.66699 26 -25.667 45.333 -51 58l-22 9
c-7.33301 3.33301 -11 7.66602 -11 12.999c0 3.33301 6 6.66602 18 9.99902l232 64v-686c0 -31.333 0.666992 -60.666 2 -87.999c2 -36.667 5 -70.334 9 -101.001c11.333 -80 31.333 -132.333 60 -157l10 -9l7 -7c4 -3.33301 6 -6.33301 6 -9c0 -5.33301 -11 -8 -33 -8h-149
l-62 213c-102 -162.667 -248 -244 -438 -244c-128.667 0 -230.667 35.667 -306 107c-73.333 69.333 -110 161.333 -110 276v463c0 93.333 -19.667 144 -59 152c-24.667 6 -37 13.333 -37 22c0 6 7.66699 10 23 12z" />
    <glyph glyph-name="v" unicode="v" horiz-adv-x="1251" 
d="M688 190l190.002 373.001c43.333 82.667 77.333 153.667 102 213c29.333 69.333 44 118 44 146c0 54.667 -17.667 90.667 -53 108l-36 19c-10.667 5.33301 -16 9.33301 -16 12c0 9.33301 4.33301 14 13 14l60 -5c37.333 -3.33301 67.666 -5 90.999 -5
c32 0 63.667 1.66699 95 5l49 5c12 0 18 -4 18 -12c0 -4.66699 -2 -8.66699 -6 -12l-14 -11c-32.667 -22.667 -71 -69.334 -115 -140.001c-36.667 -58.667 -81.667 -141.667 -135 -249l-297 -592c-19.333 -38.667 -32.666 -64 -39.999 -76
c-5.33301 -9.33301 -10 -14 -14 -14h-4c-2 0 -8 10 -18 30l-21 45c-2.66699 5.33301 -5.33398 10.333 -8.00098 15l-375 736c-70 138 -124.333 219 -163 243c-18 11.333 -27 19 -27 23c0 9.33301 11 14 33 14l61 -5c35.333 -3.33301 64.666 -5 87.999 -5
c24.667 0 53.667 1.66699 87 5l57 5c27.333 0 41 -4 41 -12c0 -3.33301 -3 -7.33301 -9 -12l-24 -17c-22 -13.333 -33 -36.333 -33 -69c0 -30 25.333 -95.667 76 -197z" />
    <glyph glyph-name="w" unicode="w" horiz-adv-x="1896" 
d="M633 221l353.997 854c2.66699 5.33301 5.33398 8 8.00098 8h2c1.33301 0 3.33301 -2.66699 6 -8l383 -848l254 572c19.333 49.333 29 96.333 29 141c0 38.667 -17 69.334 -51 92.001c-5.33301 3.33301 -11.333 6.66602 -18 9.99902
c-2.66699 1.33301 -5.66699 2.66602 -9 3.99902l-7 3c-10 4.66699 -15 9.33398 -15 14.001c0 8 4.66699 12 14 12l53 -5c36 -3.33301 66 -5 90 -5c32 0 63.667 1.66699 95 5l49 5c12 0 18 -4 18 -12c0 -4.66699 -2 -8.66699 -6 -12l-14 -11c-32 -31.333 -63 -73 -93 -125
c-12.667 -22 -26.667 -47.667 -42 -77l-402 -854c-3.33301 -10 -8.66602 -15 -15.999 -15h-4c-5.33301 0 -11 6.33301 -17 19l-348 829l-348 -829c-6 -12.667 -11.667 -19 -17 -19h-4c-7.33301 0 -12.666 5 -15.999 15l-336 712c-39.333 84.667 -74.333 154 -105 208
c-38 69.333 -67 112.666 -87 129.999l-17 15c-5.33301 6.66699 -8 11.334 -8 14.001c0 8 11.667 12 35 12l62 -5c34.667 -3.33301 63.667 -5 87 -5c24.667 0 53.667 1.66699 87 5l57 5c27.333 0 41 -4 41 -12c0 -2.66699 -3.66699 -6.66699 -11 -12l-22 -15
c-24 -14 -37 -36.333 -39 -67c-0.666992 -34.667 18 -98.667 56 -192c14 -34 29.667 -70 47 -108z" />
    <glyph glyph-name="x" unicode="x" horiz-adv-x="1175" 
d="M885 296l18.0029 -22.999l78 -92c60.667 -69.333 117.334 -124.333 170.001 -165l6 -6c2.66699 -2 4 -3.33301 4 -4c0 -4 -5 -6 -15 -6h-358c-6.66699 0 -10 0.666992 -10 2c0 0.666992 3 3 9 7l17 11c23.333 12 35 28 35 48c0 23.333 -30.667 75 -92 155l-192 256
l-183 -215c-23.333 -27.333 -43.333 -56.333 -60 -87c-20 -37.333 -30 -69.666 -30 -96.999c0 -29.333 7 -49.333 21 -60l26 -18c0 -1.33301 -1.66699 -2.66602 -5 -3.99902c-4.66699 -1.33301 -12.334 -2 -23.001 -2l-224 1h-16l-29 -1c-9.33301 0 -14 2 -14 6
c0 2 3.33301 4.33301 10 7l19 9c33.333 18.667 69.666 48 108.999 88c16.667 16.667 37.334 38.667 62.001 66l306 342l-339 434c-36.667 43.333 -70.334 74.666 -101.001 93.999l-16 12c-7.33301 4.66699 -11 8.33398 -11 11.001s2 5 6 7c6 2 16.333 3 31 3l56 -5
c15.333 -1.33301 29.666 -2.33301 42.999 -3c18 -1.33301 35.333 -2 52 -2c24.667 0 54 1.66699 88 5l56 5c14.667 0 22 -4 22 -12c0 -4 -5.33301 -10.333 -16 -19c-22.667 -14 -33 -33.667 -31 -59c0 -18 11.667 -46 35 -84l31 -46l184 -228l147 166
c68.667 77.333 103 140.666 103 189.999c0 19.333 -9 37.666 -27 54.999c-2.66699 2.66699 -5.66699 5 -9 7l-15 12c-3.33301 5.33301 -3.33301 10 0 14c3.33301 2.66699 7.33301 4 12 4c13.333 0 35 -1.66699 65 -5c30.667 -3.33301 54 -5 70 -5
c34.667 0 67.667 1.66699 99 5l44 5c10 0 15 -6 15 -18c0 -6.66699 -5.66699 -12.334 -17 -17.001c-36.667 -22 -82.334 -59.667 -137.001 -113l-66 -67l-55 -59l-198 -215z" />
    <glyph glyph-name="y" unicode="y" horiz-adv-x="1251" 
d="M641 -27c-57.333 -108 -118.332 -193.332 -182.999 -255.999c-87.333 -84 -199.333 -125 -336 -123l56 179c4.66699 13.333 8.66699 20 12 20c4 0 7.33301 -1.33301 10 -4c23.333 -40.667 63.666 -61 120.999 -61c58 0 114.333 30.333 169 91
c52.667 59.333 79 118.333 79 177c0 46.667 -11 93 -33 139l-327 664c-62 127.333 -116 203.666 -162 228.999c-20.667 10 -31 19.667 -31 29s9 14 27 14l95 -5l52 -1c24.667 0 54 1 88 3l57 3c15.333 0 26 -1.66699 32 -5c4.66699 -2 7 -5 7 -9s-3.33301 -8.66699 -10 -14
l-22 -15c-5.33301 -4 -9.33301 -7.33301 -12 -10c-4 -4.66699 -7.33301 -9 -10 -13c-7.33301 -11.333 -11 -24.666 -11 -39.999c0 -32.667 26.667 -99.667 80 -201l299 -574l190 373c22 42 40.667 79 56 111l48 104c30.667 72 46 124.667 46 158c0 41.333 -19.333 72 -58 92
l-24 15c-10 6 -15 10 -15 12c0 2.66699 1.66699 5.33398 5 8.00098c3.33301 4 7.33301 6 12 6l135 -4l137 4c4 0 8.33301 -1.66699 13 -5c4 -2.66699 6 -5 6 -7c0 -4.66699 -5 -10.334 -15 -17.001c-32 -22.667 -70.333 -69.334 -115 -140.001
c-36 -58.667 -81 -141.667 -135 -249z" />
    <glyph glyph-name="z" unicode="z" horiz-adv-x="1138" 
d="M802 936c1.33301 1.33301 2.99609 3.33496 4.99609 6.00195s3.33301 4.66699 4 6l10 14c6.66699 11.333 10 20.333 10 27c0 16.667 -13.667 25 -41 25h-266c-89.333 0 -166.666 -17.667 -231.999 -53c-49.333 -26.667 -99.666 -69 -150.999 -127
c-2 -4.66699 -5.33301 -7 -10 -7c-7.33301 0 -11 3.66699 -11 11l76 227h836c22 0 33 -4.66699 33 -14c0 -7.33301 -6.33301 -19 -19 -35l-676 -887c-10 -12.667 -16.667 -23.334 -20 -32.001c-2.66699 -6.66699 -4 -13 -4 -19c0 -18 13 -27 39 -27h313
c54.667 0 118.334 16.333 191.001 49c80.667 35.333 146 80.666 196 135.999l11 11c4 3.33301 7 5 9 5c7.33301 0 11 -3.33301 11 -10c0 -4 -1.33301 -10.333 -4 -19l-74 -223h-969c-5.33301 -0 -8 1.33301 -8 4c0 4.66699 4 12.667 12 24
c6.66699 9.33301 12.334 16.333 17.001 21l73 84z" />
    <glyph glyph-name="braceleft" unicode="{" horiz-adv-x="681" 
d="M263 1077c0 111.333 28 187.339 84 228.006c42.667 31.333 113 47 211 47v-31c-17.333 0 -33.666 -2.66699 -48.999 -8c-19.333 -6.66699 -36 -17.334 -50 -32.001c-36 -38.667 -54 -102.334 -54 -191.001v-345c0 -142.667 -58.667 -228.667 -176 -258v-4
c117.333 -28.667 176 -114.667 176 -258v-352c0 -88.667 18 -152.334 54 -191.001c14 -14.667 30.667 -25.334 50 -32.001c15.333 -5.33301 31.666 -8 48.999 -8v-31c-96.667 0 -167 17 -211 51c-56 42.667 -84 120 -84 232v360c0 71.333 -8 121.666 -24 150.999
c-19.333 36 -59 62.667 -119 80c60 17.333 99.667 44.333 119 81c16 29.333 24 79.666 24 150.999v360z" />
    <glyph glyph-name="bar" unicode="|" horiz-adv-x="454" 
d="M286 1536v-2048h-119v2048h119z" />
    <glyph glyph-name="braceright" unicode="}" horiz-adv-x="681" 
d="M417 717c0 -71.333 8 -121.672 24 -151.005c19.333 -36.667 59 -63.667 119 -81c-60 -17.333 -99.667 -44 -119 -80c-16 -29.333 -24 -79.666 -24 -150.999v-360c0 -112 -28 -189.333 -84 -232c-44 -34 -114.333 -51 -211 -51v31c17.333 0 33.666 2.66699 48.999 8
c19.333 6.66699 36 17.334 50 32.001c36.667 38.667 55 102.334 55 191.001v352c0 143.333 58.667 229.333 176 258v4c-117.333 29.333 -176 115.333 -176 258v345c0 88.667 -18.333 152.334 -55 191.001c-14 14.667 -30.667 25.334 -50 32.001
c-15.333 5.33301 -31.666 8 -48.999 8v31c98.667 0 169 -15.667 211 -47c56 -40.667 84 -116.667 84 -228v-360z" />
    <glyph glyph-name="asciitilde" unicode="~" horiz-adv-x="1228" 
d="M1087 582c-19.333 -28 -35.333 -49.334 -48 -64.001c-18.667 -22.667 -37 -41.667 -55 -57c-45.333 -36.667 -96.333 -55 -153 -55c-36 0 -73.333 7 -112 21c-14.667 6 -31.667 13.667 -51 23l-25 12l-25 13c-44 22.667 -79.333 38.667 -106 48
c-41.333 14.667 -83 22 -125 22c-40.667 0 -76.667 -15.667 -108 -47c-22.667 -23.333 -44 -57 -64 -101l-74 86c27.333 52 58.333 92.333 93 121c46.667 36.667 101 55 163 55c34 0 73.333 -7 118 -21c31.333 -10.667 70.666 -26.667 117.999 -48l57 -26
c20.667 -9.33301 38.334 -16.666 53.001 -21.999c38 -14.667 68 -22 90 -22c36.667 0 71 15.667 103 47c20 19.333 45.667 53 77 101z" />
    <glyph glyph-name="dieresis" unicode="&#xa8;" horiz-adv-x="1024" 
 />
    <glyph glyph-name="copyright" unicode="&#xa9;" horiz-adv-x="1638" 
d="M1333 1146c140.667 -136.667 211.001 -302.333 211.001 -497c0 -192 -70.333 -355 -211 -489s-312 -201 -514 -201c-201.333 0 -372.333 67 -513 201c-141.333 134 -212 297 -212 489c0 194 70.667 359.667 212 497s312.333 206 513 206
c201.333 0 372.666 -68.667 513.999 -206zM384.001 1084c-120.667 -123.333 -181 -268.334 -181 -435.001c0 -164 60.667 -306.667 182 -428c122 -121.333 266.667 -182 434 -182c168 0 313 60.667 435 182c120.667 120.667 181 263.334 181 428.001
c0 166.667 -60 311.667 -180 435c-122 125.333 -267.333 188 -436 188c-168 0 -313 -62.667 -435 -188zM1179 477l-33.999 -139.001c0 -14.667 -18.667 -27.667 -56 -39c-27.333 -9.33301 -57.666 -17 -90.999 -23c-44.667 -8 -89.334 -12 -134.001 -12
c-132 0 -238 31.333 -318 94c-90 70 -135 173.333 -135 310c0 96.667 37.667 182.334 113 257.001c88 88 205.333 132 352 132c50 0 94 -4 132 -12c15.333 -2.66699 31 -6.66699 47 -12l43 -13c31.333 -8 47 -21.667 47 -41v-141h-33
c-4.66699 50 -24.334 90.667 -59.001 122c-42.667 38.667 -104.334 58 -185.001 58c-100.667 0 -178 -32.333 -232 -97c-50 -60 -75.667 -141.667 -77 -245c-1.33301 -113.333 24.334 -202.333 77.001 -267c56.667 -70.667 139.667 -106 249 -106c68 0 125.333 18 172 54
c37.333 28.667 67.333 68.667 90 120h32z" />
    <glyph glyph-name="registered" unicode="&#xae;" horiz-adv-x="1638" 
d="M1333 1146c140.667 -136.667 211.001 -302.333 211.001 -497c0 -192 -70.333 -355 -211 -489s-312 -201 -514 -201c-201.333 0 -372.333 67 -513 201c-141.333 134 -212 297 -212 489c0 194 70.667 359.667 212 497s312.333 206 513 206
c201.333 0 372.666 -68.667 513.999 -206zM384.001 1084c-120.667 -123.333 -181 -268.334 -181 -435.001c0 -164 60.667 -306.667 182 -428c122 -121.333 266.667 -182 434 -182c168 0 313 60.667 435 182c120.667 120.667 181 263.334 181 428.001
c0 166.667 -60 311.667 -180 435c-122 125.333 -267.333 188 -436 188c-168 0 -313 -62.667 -435 -188zM475.001 1034l370.999 0.00195312c70 0 128 -14.333 174 -43c52 -32.667 78 -79 78 -139c0 -106 -58.333 -177 -175 -213l125 -164c70 -90 126.667 -147.333 170 -172
v-18h-127c-30 0 -65.667 29.667 -107 89l-32 48l-27 41c-3.33301 5.33301 -6.66602 10.333 -9.99902 15c-34 51.333 -65.333 96.666 -94 135.999h-113v-198c0 -46 4 -72.667 12 -80s39.667 -14.333 95 -21v-30h-340v30c54 6.66699 85 13.667 93 21
c7.33301 7.33301 11 34 11 80v489c0 47.333 -3.66699 74.666 -11 81.999c-8 7.33301 -39 14.333 -93 21v26zM708 653.002h101c106 0 159 63.667 159 191c0 100.667 -55 151 -165 151h-95v-342z" />
    <glyph glyph-name="acute" unicode="&#xb4;" horiz-adv-x="1024" 
 />
    <glyph glyph-name="paragraph" unicode="&#xb6;" horiz-adv-x="1024" 
 />
    <glyph glyph-name="onequarter" unicode="&#xbc;" horiz-adv-x="1990" 
d="M927 248h358v397zM1408 190v-45.001c0 -72.667 24.667 -115.667 74 -129l26 -7c7.33301 -1.33301 11 -3 11 -5c0 -4 -5.66699 -6 -17 -6h-286c-14 0 -21 3.33301 -21 10c0 4.66699 8.33301 10.334 25 17.001c43.333 14 65 54 65 120v48h-442
c0 17.333 4.33301 32.666 13 45.999l28 33l457 469l32 37c4 4 10.333 6 19 6c2.66699 0 5.66699 -1 9 -3c4.66699 -3.33301 7 -7.66602 7 -12.999v-518h19c8 0 15.667 0.333008 23 1c20 1.33301 38 3.33301 54 6c45.333 8.66699 77 24 95 46l26 33
c7.33301 5.33301 12.333 8 15 8s4 -1.33301 4 -4l-2 -12l-48 -138h-186zM1365 1290l-917 -1321h-103l918 1321h102zM474 661.999c0 -59.333 22.665 -99.666 67.998 -120.999c9.33301 -4 14 -10.333 14 -19c0 -5.33301 -7.33301 -8 -22 -8l-190 1l-66 -1
c-5.33301 0 -9.66602 0.333008 -12.999 1c-9.33301 1.33301 -14 3.66602 -14 6.99902c0 2.66699 4 6 12 10l19 9c46 22 69 62.333 69 121v438c0 32.667 -2.66699 56.667 -8 72c-9.33301 24 -27.666 39 -54.999 45l-10 1c-4 0.666992 -7.33301 1.33398 -10 2.00098
c-7.33301 2 -11 5 -11 9c0 5.33301 4.33301 9.66602 13 12.999c3.33301 1.33301 7.33301 2.66602 12 3.99902c1.33301 0.666992 3.33301 1.33398 6 2.00098l186 55v-641z" />
    <glyph glyph-name="onehalf" unicode="&#xbd;" horiz-adv-x="1990" 
d="M1341 1290l-924 -1321h-102l923 1321h103zM1021 0c0 8.66699 5.33203 24.334 15.999 47.001c12 26.667 28 53.334 48 80.001c21.333 29.333 56 59.333 104 90c40 26 85.667 50.667 137 74c84.667 35.333 144.667 74.666 180 117.999c32 39.333 48 88 48 146
c0 112 -69 168 -207 168c-121.333 0 -206.666 -39.667 -255.999 -119c0 -4 -2.66699 -6 -8 -6c-6 0 -9 2 -9 6l-30 107c92 42 199.667 63 323 63c86.667 0 162.334 -19.667 227.001 -59c74 -45.333 111 -105.333 111 -180c0 -55.333 -23 -104.333 -69 -147
c-39.333 -36 -90.666 -64.333 -153.999 -85l-137 -45c-59.333 -18 -111.333 -46 -156 -84c-36.667 -31.333 -55 -55.333 -55 -72h282c45.333 0 84.666 2 117.999 6c47.333 4.66699 84.666 13 111.999 25c30 18.667 50.333 35.667 61 51c2 4 4.66699 6 8 6
c6 0 9 -2.66699 9 -8c0 -4.66699 -3 -13.334 -9 -26.001l-55 -156h-639zM469.999 662c0 -59.333 22.665 -99.666 67.998 -120.999c9.33301 -4 14 -10.333 14 -19c0 -5.33301 -7.33301 -8 -22 -8l-190 1l-66 -1c-5.33301 0 -9.66602 0.333008 -12.999 1
c-9.33301 1.33301 -14 3.66602 -14 6.99902c0 2.66699 4 6 12 10l19 9c46 22 69 62.333 69 121v438c0 32.667 -2.66699 56.667 -8 72c-9.33301 24 -27.666 39 -54.999 45l-10 1c-4 0.666992 -7.33301 1.33398 -10 2.00098c-7.33301 2 -11 5 -11 9
c0 5.33301 4.33301 9.66602 13 12.999c3.33301 1.33301 7.33301 2.66602 12 3.99902c1.33301 0.666992 3.33301 1.33398 6 2.00098l186 55v-641z" />
    <glyph glyph-name="threequarters" unicode="&#xbe;" horiz-adv-x="1990" 
d="M1572 190l0.000976562 -45.001c0 -72.667 24.667 -115.667 74 -129l26 -7c7.33301 -1.33301 11 -3 11 -5c0 -4 -5.66699 -6 -17 -6h-287c-13.333 0 -20 3.33301 -20 10c0 4.66699 8.33301 10.334 25 17.001c43.333 14 65 54 65 120v48h-442
c0 17.333 4.33301 32.666 13 45.999l28 33l456 469l33 37c4 4 10.333 6 19 6c2.66699 0 5.66699 -1 9 -3c4.66699 -3.33301 7 -7.66602 7 -12.999v-518h19c8 0 15.667 0.333008 23 1c20 1.33301 38 3.33301 54 6c45.333 8.66699 76.666 24 93.999 46l27 33
c7.33301 5.33301 12 8 14 8c3.33301 0 5 -1.33301 5 -4l-3 -12l-47 -138h-186zM1091 247.999h358v395zM1586 1290l-923 -1321h-103l924 1321h102zM390.001 951.999c12.667 -0.666992 27.666 -1 44.999 -1l45 -1c64 0 113 10.333 147 31c41.333 24.667 62 65 62 121
c0 91.333 -64.667 137 -194 137c-114.667 4 -196.667 -29.333 -246 -100c-10 -18 -18.333 -27 -25 -27c-3.33301 0 -6 5.33301 -8 16l-28 99c52 24 105.667 41 161 51c46.667 8 102.667 12 168 12c78 0 147 -12.333 207 -37c78 -32 117 -79 117 -141
c0 -54.667 -29 -98.667 -87 -132c-43.333 -24 -99.666 -41.333 -168.999 -52v-4c36.667 -6 68.667 -12.667 96 -20c37.333 -9.33301 69.333 -21 96 -35c68.667 -35.333 103 -84.666 103 -147.999c0 -78 -47 -137 -141 -177c-37.333 -16 -80 -28 -128 -36
c-41.333 -6.66699 -82.666 -10 -123.999 -10c-141.333 0 -263 27.333 -365 82l33 88c9.33301 27.333 17.333 41 24 41c5.33301 0 9.66602 -7.66699 12.999 -23c14 -51.333 50.667 -88.333 110 -111c45.333 -17.333 103.333 -26 174 -26c73.333 0 131.666 12 174.999 36
c52.667 29.333 78.334 74.666 77.001 135.999c0 58.667 -24.667 104 -74 136c-43.333 28 -98.333 42 -165 42h-50l-49 -4v57z" />
    <glyph glyph-name="Agrave" unicode="&#xc0;" 
d="M743 1133l-247 -443h479zM471 639l-131 -248.001c-25.333 -46.667 -45.333 -89.667 -60 -129c-20 -52.667 -30 -97 -30 -133c0 -35.333 17 -65.333 51 -90l38 -20c12.667 -5.33301 19 -10.333 19 -15c0 -5.33301 -10 -8 -30 -8l-181 3l-112 -3
c-12.667 0 -21 0.333008 -25 1c-8 1.33301 -12 4.33301 -12 9s5.66699 11.334 17 20.001c1.33301 0.666992 3.66602 2.33398 6.99902 5.00098l19 14c36.667 34.667 76.334 84.334 119.001 149.001l90 150l541 995c4 8.66699 8.66699 13 14 13h4
c9.33301 0 14 -4.33301 14 -13l605 -1163c31.333 -61.333 74.333 -110.333 129 -147c20 -14 30 -21.667 30 -23c0 -2.66699 -1 -5 -3 -7c-3.33301 -2 -9 -3 -17 -3l-244 3c-12 0 -30 -0.333008 -54 -1l-102 -2c-10.667 0 -16 2 -16 6c0 5.33301 4 9.66602 12 12.999
c1.33301 0.666992 5.33301 2.33398 12 5.00098l15 7c24.667 13.333 37 37.666 37 72.999c0 26 -9.66699 64.333 -29 115c-16.667 43.333 -40 94.666 -70 153.999l-133 270h-524zM580 1595c-48 36 -72 65.333 -72 88c0 46.667 21.667 70 65 70c30 0 61 -17 93 -51l303 -301
h-86z" />
    <glyph glyph-name="Aacute" unicode="&#xc1;" 
d="M743 1133l-247 -443h479zM471 639l-131 -248.001c-25.333 -46.667 -45.333 -89.667 -60 -129c-20 -52.667 -30 -97 -30 -133c0 -35.333 17 -65.333 51 -90l38 -20c12.667 -5.33301 19 -10.333 19 -15c0 -5.33301 -10 -8 -30 -8l-181 3l-112 -3
c-12.667 0 -21 0.333008 -25 1c-8 1.33301 -12 4.33301 -12 9s5.66699 11.334 17 20.001c1.33301 0.666992 3.66602 2.33398 6.99902 5.00098l19 14c36.667 34.667 76.334 84.334 119.001 149.001l90 150l541 995c4 8.66699 8.66699 13 14 13h4
c9.33301 0 14 -4.33301 14 -13l605 -1163c31.333 -61.333 74.333 -110.333 129 -147c20 -14 30 -21.667 30 -23c0 -2.66699 -1 -5 -3 -7c-3.33301 -2 -9 -3 -17 -3l-244 3c-12 0 -30 -0.333008 -54 -1l-102 -2c-10.667 0 -16 2 -16 6c0 5.33301 4 9.66602 12 12.999
c1.33301 0.666992 5.33301 2.33398 12 5.00098l15 7c24.667 13.333 37 37.666 37 72.999c0 26 -9.66699 64.333 -29 115c-16.667 43.333 -40 94.666 -70 153.999l-133 270h-524zM660 1401l303 301c31.333 34 62 51 92 51c43.333 0 65 -23.333 65 -70
c0 -22.667 -23.667 -52 -71 -88l-303 -194h-86z" />
    <glyph glyph-name="Acircumflex" unicode="&#xc2;" 
d="M743 1133l-247 -443h479zM471 639l-131 -248.001c-25.333 -46.667 -45.333 -89.667 -60 -129c-20 -52.667 -30 -97 -30 -133c0 -35.333 17 -65.333 51 -90l38 -20c12.667 -5.33301 19 -10.333 19 -15c0 -5.33301 -10 -8 -30 -8l-181 3l-112 -3
c-12.667 0 -21 0.333008 -25 1c-8 1.33301 -12 4.33301 -12 9s5.66699 11.334 17 20.001c1.33301 0.666992 3.66602 2.33398 6.99902 5.00098l19 14c36.667 34.667 76.334 84.334 119.001 149.001l90 150l541 995c4 8.66699 8.66699 13 14 13h4
c9.33301 0 14 -4.33301 14 -13l605 -1163c31.333 -61.333 74.333 -110.333 129 -147c20 -14 30 -21.667 30 -23c0 -2.66699 -1 -5 -3 -7c-3.33301 -2 -9 -3 -17 -3l-244 3c-12 0 -30 -0.333008 -54 -1l-102 -2c-10.667 0 -16 2 -16 6c0 5.33301 4 9.66602 12 12.999
c1.33301 0.666992 5.33301 2.33398 12 5.00098l15 7c24.667 13.333 37 37.666 37 72.999c0 26 -9.66699 64.333 -29 115c-16.667 43.333 -40 94.666 -70 153.999l-133 270h-524zM567 1401h-71l254 342h129l256 -342h-72l-248 211z" />
    <glyph glyph-name="Atilde" unicode="&#xc3;" 
d="M743 1133l-247 -443h479zM471 639l-131 -248.001c-25.333 -46.667 -45.333 -89.667 -60 -129c-20 -52.667 -30 -97 -30 -133c0 -35.333 17 -65.333 51 -90l38 -20c12.667 -5.33301 19 -10.333 19 -15c0 -5.33301 -10 -8 -30 -8l-181 3l-112 -3
c-12.667 0 -21 0.333008 -25 1c-8 1.33301 -12 4.33301 -12 9s5.66699 11.334 17 20.001c1.33301 0.666992 3.66602 2.33398 6.99902 5.00098l19 14c36.667 34.667 76.334 84.334 119.001 149.001l90 150l541 995c4 8.66699 8.66699 13 14 13h4
c9.33301 0 14 -4.33301 14 -13l605 -1163c31.333 -61.333 74.333 -110.333 129 -147c20 -14 30 -21.667 30 -23c0 -2.66699 -1 -5 -3 -7c-3.33301 -2 -9 -3 -17 -3l-244 3c-12 0 -30 -0.333008 -54 -1l-102 -2c-10.667 0 -16 2 -16 6c0 5.33301 4 9.66602 12 12.999
c1.33301 0.666992 5.33301 2.33398 12 5.00098l15 7c24.667 13.333 37 37.666 37 72.999c0 26 -9.66699 64.333 -29 115c-16.667 43.333 -40 94.666 -70 153.999l-133 270h-524zM1153 1669c-28 -143.333 -102.999 -215.001 -224.999 -215.001
c-25.333 0 -51.666 4.66699 -78.999 14c-20 7.33301 -44.333 18.333 -73 33l-8 4c-0.666992 0.666992 -2 1.66699 -4 3c-2 0.666992 -3.33301 1.33398 -4 2.00098c-6.66699 3.33301 -12.334 6 -17.001 8l-32 14c-22.667 9.33301 -42.667 14 -60 14
c-58.667 0 -96 -30.667 -112 -92h-62c14.667 62.667 37.667 111 69 145c36.667 40 84.667 60 144 60c24 0 50.667 -4.66699 80 -14c19.333 -6.66699 44.666 -17 75.999 -31c32 -16 55.333 -27 70 -33c24.667 -9.33301 45.667 -14 63 -14c58 0 96.333 34 115 102h59z" />
    <glyph glyph-name="Egrave" unicode="&#xc8;" horiz-adv-x="1441" 
d="M360 412c0 -37.333 1.33203 -77.001 3.99902 -119.001l11 -119c6 -54 27.667 -88.667 65 -104c32.667 -12.667 103.667 -19 213 -19c58.667 0 109.667 1 153 3c56 2.66699 107.667 7.66699 155 15c114.667 16 212 46.333 292 91c29.333 16 53.666 33.667 72.999 53l50 57
c6.66699 7.33301 13 11 19 11c6.66699 0 10 -3.66699 10 -11l-1 -10l-85 -260h-1245c-19.333 0 -29 2 -29 6c0 10.667 12.333 19 37 25c41.333 11.333 70.333 62 87 152c6 32.667 10.333 70 13 112l2 50v757c0 48 -3.66699 83.667 -11 107
c-11.333 34.667 -33.666 60.334 -66.999 77.001c-9.33301 4.66699 -14 8.66699 -14 12c0 6 5 9.66699 15 11c3.33301 0.666992 8 1.33398 14 2.00098h1104l62 -206c8.66699 -32 13 -50 13 -54c0 -6 -4 -9 -12 -9c-5.33301 0 -12 7 -20 21c-50 72 -121 123.667 -213 155
c-82 28 -189.333 42 -322 42h-373v-531h199c272.667 0 429 19 469 57c23.333 23.333 42.333 52 57 86c4.66699 7.33301 9.66699 11 15 11c6.66699 0 10 -11 10 -33l-1 -322c-1.33301 -8 -3.66602 -12 -6.99902 -12c-4 0 -8.33301 3.33301 -13 10
c-16.667 37.333 -39.667 66 -69 86c-42.667 28.667 -116.667 48 -222 58c-38.667 3.33301 -82 5.66602 -130 6.99902l-308 1v-266zM474.999 1595c-48 36 -72 65.333 -72 88c0 46.667 22 70 66 70c30 0 60.667 -17 92 -51l303 -301h-86z" />
    <glyph glyph-name="Eacute" unicode="&#xc9;" horiz-adv-x="1441" 
d="M360 412c0 -37.333 1.33203 -77.001 3.99902 -119.001l11 -119c6 -54 27.667 -88.667 65 -104c32.667 -12.667 103.667 -19 213 -19c58.667 0 109.667 1 153 3c56 2.66699 107.667 7.66699 155 15c114.667 16 212 46.333 292 91c29.333 16 53.666 33.667 72.999 53l50 57
c6.66699 7.33301 13 11 19 11c6.66699 0 10 -3.66699 10 -11l-1 -10l-85 -260h-1245c-19.333 0 -29 2 -29 6c0 10.667 12.333 19 37 25c41.333 11.333 70.333 62 87 152c6 32.667 10.333 70 13 112l2 50v757c0 48 -3.66699 83.667 -11 107
c-11.333 34.667 -33.666 60.334 -66.999 77.001c-9.33301 4.66699 -14 8.66699 -14 12c0 6 5 9.66699 15 11c3.33301 0.666992 8 1.33398 14 2.00098h1104l62 -206c8.66699 -32 13 -50 13 -54c0 -6 -4 -9 -12 -9c-5.33301 0 -12 7 -20 21c-50 72 -121 123.667 -213 155
c-82 28 -189.333 42 -322 42h-373v-531h199c272.667 0 429 19 469 57c23.333 23.333 42.333 52 57 86c4.66699 7.33301 9.66699 11 15 11c6.66699 0 10 -11 10 -33l-1 -322c-1.33301 -8 -3.66602 -12 -6.99902 -12c-4 0 -8.33301 3.33301 -13 10
c-16.667 37.333 -39.667 66 -69 86c-42.667 28.667 -116.667 48 -222 58c-38.667 3.33301 -82 5.66602 -130 6.99902l-308 1v-266zM554.999 1401l303 301c32 34 62.667 51 92 51c44 0 66 -23.333 66 -70c0 -22.667 -24 -52 -72 -88l-303 -194h-86z" />
    <glyph glyph-name="Ecircumflex" unicode="&#xca;" horiz-adv-x="1441" 
d="M360 412c0 -37.333 1.33203 -77.001 3.99902 -119.001l11 -119c6 -54 27.667 -88.667 65 -104c32.667 -12.667 103.667 -19 213 -19c58.667 0 109.667 1 153 3c56 2.66699 107.667 7.66699 155 15c114.667 16 212 46.333 292 91c29.333 16 53.666 33.667 72.999 53l50 57
c6.66699 7.33301 13 11 19 11c6.66699 0 10 -3.66699 10 -11l-1 -10l-85 -260h-1245c-19.333 0 -29 2 -29 6c0 10.667 12.333 19 37 25c41.333 11.333 70.333 62 87 152c6 32.667 10.333 70 13 112l2 50v757c0 48 -3.66699 83.667 -11 107
c-11.333 34.667 -33.666 60.334 -66.999 77.001c-9.33301 4.66699 -14 8.66699 -14 12c0 6 5 9.66699 15 11c3.33301 0.666992 8 1.33398 14 2.00098h1104l62 -206c8.66699 -32 13 -50 13 -54c0 -6 -4 -9 -12 -9c-5.33301 0 -12 7 -20 21c-50 72 -121 123.667 -213 155
c-82 28 -189.333 42 -322 42h-373v-531h199c272.667 0 429 19 469 57c23.333 23.333 42.333 52 57 86c4.66699 7.33301 9.66699 11 15 11c6.66699 0 10 -11 10 -33l-1 -322c-1.33301 -8 -3.66602 -12 -6.99902 -12c-4 0 -8.33301 3.33301 -13 10
c-16.667 37.333 -39.667 66 -69 86c-42.667 28.667 -116.667 48 -222 58c-38.667 3.33301 -82 5.66602 -130 6.99902l-308 1v-266zM462.999 1401h-72l254 342h129l256 -342h-72l-247 211z" />
    <glyph glyph-name="Igrave" unicode="&#xcc;" horiz-adv-x="569" 
d="M197 1112c0 45.333 -3.66602 80.333 -10.999 105c-11.333 38.667 -32.666 63.667 -63.999 75c-10 4.66699 -15 9.66699 -15 15s2.33301 8.66602 7 9.99902c3.33301 1.33301 12 2 26 2l54 -4c31.333 -2.66699 61.666 -4 90.999 -4c16 0 40 1.33301 72 4s56 4 72 4h9
c4 -0.666992 7.66699 -1 11 -1c10 -2 15 -5 15 -9c0 -9.33301 -5 -15 -15 -17c-31.333 -9.33301 -52.666 -32 -63.999 -68c-7.33301 -24.667 -11 -62 -11 -112v-789c0 -24 0.333008 -45 1 -63c1.33301 -44 4.66602 -80.667 9.99902 -110
c12.667 -69.333 39.667 -113.333 81 -132c14.667 -5.33301 22 -11.333 22 -18c0 -4 -7.33301 -6 -22 -6l-85 4c-9.33301 0.666992 -19 1 -29 1l-197 -2c-6.66699 -0.666992 -13.334 -1 -20.001 -1l-38 -2c-16.667 0 -25 2.66699 -25 8c0 1.33301 3 4 9 8
c1.33301 0.666992 3 1.66699 5 3l5 3c4 2 7.33301 4.33301 10 7c40 25.333 67.333 77.333 82 156c6 30.667 10 66.334 12 107.001c1.33301 29.333 2 64.333 2 105v721zM40.001 1595c-48 36 -72 65.333 -72 88c0 46.667 22 70 66 70c29.333 0 60 -17 92 -51l303 -301h-86z
" />
    <glyph glyph-name="Iacute" unicode="&#xcd;" horiz-adv-x="569" 
d="M196 1112c0 45.333 -3.66797 80.333 -11.001 105c-11.333 38.667 -33 63.667 -65 75c-9.33301 4.66699 -14 9.66699 -14 15s2 8.66602 6 9.99902c3.33301 1.33301 12.333 2 27 2l53 -4c32 -2.66699 62.667 -4 92 -4c16 0 40 1.33301 72 4s55.667 4 71 4h9
c4.66699 -0.666992 8.66699 -1 12 -1c9.33301 -2 14 -5 14 -9c0 -9.33301 -4.66699 -15 -14 -17c-31.333 -9.33301 -52.666 -32 -63.999 -68c-8 -24.667 -12 -62 -12 -112v-789c0.666992 -24 1 -45 1 -63c2 -44 5.66699 -80.667 11 -110c12 -69.333 38.667 -113.333 80 -132
c15.333 -5.33301 23 -11.333 23 -18c0 -4 -7.66699 -6 -23 -6l-85 4c-9.33301 0.666992 -18.666 1 -27.999 1l-197 -2c-6.66699 -0.666992 -13.667 -1 -21 -1l-37 -2c-16.667 0 -25 2.66699 -25 8c0 1.33301 3 4 9 8c0.666992 0.666992 2 1.66699 4 3l5 3
c4 2 7.66699 4.33301 11 7c39.333 25.333 66.666 77.333 81.999 156c5.33301 30.667 9.33301 66.334 12 107.001c1.33301 29.333 2 64.333 2 105v721zM117.999 1401l303 301c32 34 62.667 51 92 51c44 0 66 -23.333 66 -70c0 -22.667 -24 -52 -72 -88l-303 -194h-86z" />
    <glyph glyph-name="Eth" unicode="&#xd0;" horiz-adv-x="1630" 
d="M733 678h-368.999v-301c0 -122 10 -206.333 30 -253c18 -41.333 50.333 -64.333 97 -69c70 -6.66699 133.333 -10 190 -10c51.333 0 102.666 2 153.999 6c158 13.333 275.667 65 353 155c88 102.667 132 262 132 478c0 210.667 -50.333 361.667 -151 453
c-95.333 87.333 -249 131 -461 131h-344v-539h369v-51zM28.001 729l160 -0.00195312v307c0 86 -6.66699 146.667 -20 182c-10.667 28 -30 48.667 -58 62l-16 10c-4.66699 4 -7 8.33301 -7 13s3.33301 8.33398 10 11.001c9.33301 3.33301 26.666 5 51.999 5h629
c122.667 0 233.667 -17.667 333 -53c92.667 -33.333 172 -80.666 238 -141.999c126.667 -118 190 -265.333 190 -442c0 -188 -61.333 -344.333 -184 -469c-123.333 -126 -287 -197 -491 -213c-51.333 -4 -104 -6 -158 -6l-240 6l-319 -3c-7.33301 0 -15 -0.333008 -23 -1
l-59 -4c-9.33301 0 -14 2 -14 6c0 5.33301 7.33301 12 22 20c52.667 30 85.334 64.667 98.001 104c11.333 34 17 106.667 17 218v338h-160v51z" />
    <glyph glyph-name="Ograve" unicode="&#xd2;" horiz-adv-x="1705" 
d="M1271 192c85.333 109.333 128.001 259 128.001 449c0 203.333 -42.667 361.333 -128 474c-93.333 123.333 -233 185 -419 185c-186.667 0 -326.334 -61.667 -419.001 -185c-85.333 -112.667 -128 -270.667 -128 -474c0 -190 42.667 -339.667 128 -449
c94 -121.333 233.667 -182 419 -182s325 60.667 419 182zM325.001 143c-74.667 62.667 -132.332 136 -172.999 220c-44 90.667 -66 189.334 -66 296.001c0 105.333 22 202.666 66 291.999c40.667 83.333 98.334 155.666 173.001 216.999c147.333 122.667 323 184 527 184
s379.667 -61.333 527 -184c74.667 -61.333 132.334 -133.666 173.001 -216.999c44 -89.333 66 -186.666 66 -291.999c0 -106.667 -22 -205.334 -66 -296.001c-40.667 -84 -98.334 -157.333 -173.001 -220c-146.667 -122.667 -322.334 -184 -527.001 -184
s-380.334 61.333 -527.001 184zM618.003 1595c-47.333 36 -71 65.333 -71 88c0 46.667 21.667 70 65 70c30 0 60.667 -17 92 -51l304 -301h-86z" />
    <glyph glyph-name="Oacute" unicode="&#xd3;" horiz-adv-x="1705" 
d="M1271 192c85.333 109.333 128.001 259 128.001 449c0 203.333 -42.667 361.333 -128 474c-93.333 123.333 -233 185 -419 185c-186.667 0 -326.334 -61.667 -419.001 -185c-85.333 -112.667 -128 -270.667 -128 -474c0 -190 42.667 -339.667 128 -449
c94 -121.333 233.667 -182 419 -182s325 60.667 419 182zM325.001 143c-74.667 62.667 -132.332 136 -172.999 220c-44 90.667 -66 189.334 -66 296.001c0 105.333 22 202.666 66 291.999c40.667 83.333 98.334 155.666 173.001 216.999c147.333 122.667 323 184 527 184
s379.667 -61.333 527 -184c74.667 -61.333 132.334 -133.666 173.001 -216.999c44 -89.333 66 -186.666 66 -291.999c0 -106.667 -22 -205.334 -66 -296.001c-40.667 -84 -98.334 -157.333 -173.001 -220c-146.667 -122.667 -322.334 -184 -527.001 -184
s-380.334 61.333 -527.001 184zM698.003 1401l303 301c32 34 63 51 93 51c43.333 0 65 -23.333 65 -70c0 -22.667 -24 -52 -72 -88l-303 -194h-86z" />
    <glyph glyph-name="Ocircumflex" unicode="&#xd4;" horiz-adv-x="1705" 
d="M1271 192c85.333 109.333 128.001 259 128.001 449c0 203.333 -42.667 361.333 -128 474c-93.333 123.333 -233 185 -419 185c-186.667 0 -326.334 -61.667 -419.001 -185c-85.333 -112.667 -128 -270.667 -128 -474c0 -190 42.667 -339.667 128 -449
c94 -121.333 233.667 -182 419 -182s325 60.667 419 182zM325.001 143c-74.667 62.667 -132.332 136 -172.999 220c-44 90.667 -66 189.334 -66 296.001c0 105.333 22 202.666 66 291.999c40.667 83.333 98.334 155.666 173.001 216.999c147.333 122.667 323 184 527 184
s379.667 -61.333 527 -184c74.667 -61.333 132.334 -133.666 173.001 -216.999c44 -89.333 66 -186.666 66 -291.999c0 -106.667 -22 -205.334 -66 -296.001c-40.667 -84 -98.334 -157.333 -173.001 -220c-146.667 -122.667 -322.334 -184 -527.001 -184
s-380.334 61.333 -527.001 184zM606.003 1401h-71l253 342h129l256 -342h-71l-248 211z" />
    <glyph glyph-name="Otilde" unicode="&#xd5;" horiz-adv-x="1705" 
d="M1271 192c85.333 109.333 128.001 259 128.001 449c0 203.333 -42.667 361.333 -128 474c-93.333 123.333 -233 185 -419 185c-186.667 0 -326.334 -61.667 -419.001 -185c-85.333 -112.667 -128 -270.667 -128 -474c0 -190 42.667 -339.667 128 -449
c94 -121.333 233.667 -182 419 -182s325 60.667 419 182zM325.001 143c-74.667 62.667 -132.332 136 -172.999 220c-44 90.667 -66 189.334 -66 296.001c0 105.333 22 202.666 66 291.999c40.667 83.333 98.334 155.666 173.001 216.999c147.333 122.667 323 184 527 184
s379.667 -61.333 527 -184c74.667 -61.333 132.334 -133.666 173.001 -216.999c44 -89.333 66 -186.666 66 -291.999c0 -106.667 -22 -205.334 -66 -296.001c-40.667 -84 -98.334 -157.333 -173.001 -220c-146.667 -122.667 -322.334 -184 -527.001 -184
s-380.334 61.333 -527.001 184zM1192 1669c-28 -143.333 -103.001 -215.001 -225.001 -215.001c-25.333 0 -51.666 4.66699 -78.999 14c-20 7.33301 -44.333 18.333 -73 33l-8 4c-0.666992 0.666992 -2 1.66699 -4 3c-2 0.666992 -3.66699 1.33398 -5 2.00098l-16 8l-32 14
c-22.667 9.33301 -42.667 14 -60 14c-58.667 0 -96 -30.667 -112 -92h-62c14.667 62.667 37.667 111 69 145c36.667 40 84.667 60 144 60c24 0 50.333 -4.66699 79 -14c20 -6.66699 45.667 -17 77 -31c32 -16 55.333 -27 70 -33c24.667 -9.33301 45.667 -14 63 -14
c58 0 96.333 34 115 102h59z" />
    <glyph glyph-name="Ugrave" unicode="&#xd9;" 
d="M184 1112c0 64 -7.33203 109.663 -21.999 136.996c-5.33301 10.667 -12 19 -20 25l-11 7c-2 1.33301 -5.33301 3 -10 5c-20.667 8 -31 15 -31 21c0 8 7.66699 12 23 12l151 -8l180 8c8 0 15 -1 21 -3c6.66699 -2 10 -4.33301 10 -7c0 -3.33301 -2 -6.66602 -6 -9.99902
c-5.33301 -4.66699 -13 -9 -23 -13c-36.667 -12.667 -61 -48 -73 -106c-5.33301 -24 -9 -52.667 -11 -86c-1.33301 -24 -2 -55.667 -2 -95v-514c0 -144 37 -257.667 111 -341c79.333 -89.333 194.666 -134 345.999 -134c85.333 0 158.333 7.66699 219 23
c67.333 16.667 123.333 43.334 168 80.001c97.333 81.333 146 221 146 419v449c0 165.333 -37.667 265 -113 299c-27.333 12.667 -41 22.334 -41 29.001c0 3.33301 3.33301 6 10 8c4.66699 1.33301 9.33398 2 14.001 2l46 -4c14 -1.33301 29.667 -2.33301 47 -3
c22 -0.666992 46.333 -1 73 -1l146 4c14.667 0 22 -2.66699 22 -8c0 -2.66699 -3.66699 -6.33398 -11 -11.001l-23 -14c-40.667 -23.333 -68 -53.666 -82 -90.999c-15.333 -40.667 -23 -110.667 -23 -210v-414c0 -235.333 -54.333 -399.333 -163 -492
c-50 -42.667 -113.667 -73 -191 -91c-68.667 -16.667 -153.334 -25 -254.001 -25c-227.333 0 -390 41 -488 123c-90 74.667 -135 193.334 -135 356.001v674zM604.001 1595c-48 36 -72 65.333 -72 88c0 46.667 22 70 66 70c30 0 60.667 -17 92 -51l303 -301h-86z" />
    <glyph glyph-name="Uacute" unicode="&#xda;" 
d="M184 1112c0 64 -7.33203 109.663 -21.999 136.996c-5.33301 10.667 -12 19 -20 25l-11 7c-2 1.33301 -5.33301 3 -10 5c-20.667 8 -31 15 -31 21c0 8 7.66699 12 23 12l151 -8l180 8c8 0 15 -1 21 -3c6.66699 -2 10 -4.33301 10 -7c0 -3.33301 -2 -6.66602 -6 -9.99902
c-5.33301 -4.66699 -13 -9 -23 -13c-36.667 -12.667 -61 -48 -73 -106c-5.33301 -24 -9 -52.667 -11 -86c-1.33301 -24 -2 -55.667 -2 -95v-514c0 -144 37 -257.667 111 -341c79.333 -89.333 194.666 -134 345.999 -134c85.333 0 158.333 7.66699 219 23
c67.333 16.667 123.333 43.334 168 80.001c97.333 81.333 146 221 146 419v449c0 165.333 -37.667 265 -113 299c-27.333 12.667 -41 22.334 -41 29.001c0 3.33301 3.33301 6 10 8c4.66699 1.33301 9.33398 2 14.001 2l46 -4c14 -1.33301 29.667 -2.33301 47 -3
c22 -0.666992 46.333 -1 73 -1l146 4c14.667 0 22 -2.66699 22 -8c0 -2.66699 -3.66699 -6.33398 -11 -11.001l-23 -14c-40.667 -23.333 -68 -53.666 -82 -90.999c-15.333 -40.667 -23 -110.667 -23 -210v-414c0 -235.333 -54.333 -399.333 -163 -492
c-50 -42.667 -113.667 -73 -191 -91c-68.667 -16.667 -153.334 -25 -254.001 -25c-227.333 0 -390 41 -488 123c-90 74.667 -135 193.334 -135 356.001v674zM684.001 1401l303 301c32 34 62.667 51 92 51c44 0 66 -23.333 66 -70c0 -22.667 -24 -52 -72 -88l-303 -194h-86z
" />
    <glyph glyph-name="Yacute" unicode="&#xdd;" horiz-adv-x="1441" 
d="M791 303c0 -135.333 17.6689 -220.668 53.002 -256.001c8 -6.66699 16.333 -12.667 25 -18l23 -13c14 -7.33301 21 -11.333 21 -12c0 -5.33301 -7.33301 -8 -22 -8l-118 3h-137l-124 -3c-12 0 -18 2.66699 -18 8c0 2 7.33301 6.66699 22 14l21 11
c8.66699 5.33301 16 11.333 22 18c36.667 36.667 55 122 55 256v260l-309 410l-119 144c-56 68 -98.333 114.667 -127 140l-37 26c-16 10 -24 18 -24 24c0 8 4.66699 12 14 12l181 -8c25.333 0 65.666 1.33301 120.999 4l104 4c10.667 0 16 -5.33301 16 -16
c0 -2.66699 -3.33301 -5 -10 -7l-20 -6c-36 -10.667 -54 -33 -54 -67c0 -48 41 -120.333 123 -217l289 -349l282 326c24 28.667 44.333 54.334 61 77.001c48.667 66.667 73 118 73 154c0 21.333 -7.66699 39.333 -23 54l-21 15l-33 14c-4.66699 2.66699 -7 6 -7 10
c0 8 3.33301 12 10 12l158 -6l174 6c6.66699 -3.33301 10 -8 10 -14s-4.66699 -13 -14 -21c-140.667 -112.667 -266.334 -239 -377.001 -379l-264 -321v-281zM571.002 1401l304 301c31.333 34 62 51 92 51c43.333 0 65 -23.333 65 -70c0 -22.667 -23.667 -52 -71 -88
l-304 -194h-86z" />
    <glyph glyph-name="agrave" unicode="&#xe0;" horiz-adv-x="1251" 
d="M775 606c-62.667 0 -119.332 -3.33496 -169.999 -10.002c-64 -9.33301 -118.667 -24 -164 -44c-114 -51.333 -171 -137.666 -171 -258.999c0 -86.667 30 -154.667 90 -204c56 -46 127.667 -69 215 -69c138.667 0 235.667 51.667 291 155
c23.333 42.667 39.666 95.334 48.999 158.001c8 51.333 12 112.333 12 183v90h-152zM1091 306.998c0 -74 4.99902 -134.668 14.999 -182.001c12 -57.333 31 -90 57 -98c10.667 -4.66699 16 -10.334 16 -17.001c0 -9.33301 -6.33301 -14 -19 -14l-99 3
c-4.66699 0 -11.334 -0.333008 -20.001 -1l-36 -2c-16.667 0 -25 5.33301 -25 16c0 18.667 -5 50 -15 94l-12 52c-4 18.667 -6.66699 34.334 -8 47.001h-4c-42 -84 -101.333 -145.333 -178 -184c-68.667 -34.667 -153.334 -52 -254.001 -52
c-111.333 0 -208.666 26.667 -291.999 80c-96 62 -144 144.667 -144 248c0 73.333 25.667 136 77 188c43.333 45.333 105 82 185 110c66 22.667 142.667 39.334 230 50.001c66.667 8 135.334 12 206.001 12h156c0 129.333 -22 224 -66 284
c-51.333 68.667 -138.666 103 -261.999 103c-84.667 0 -165.667 -19.667 -243 -59c-91.333 -46 -141.333 -106 -150 -180c0 -5.33301 -3.33301 -8 -10 -8c-4 0 -6.66699 2 -8 6l-56 194c76.667 33.333 157 58.666 241 75.999c76 15.333 149.333 23 220 23
c177.333 0 307 -37 389 -111c72.667 -65.333 109 -161.666 109 -288.999v-389zM390.001 1389c-47.333 35.333 -71 64.667 -71 88c0 46 21.667 69 65 69c30 0 60.667 -17 92 -51l304 -301h-86z" />
    <glyph glyph-name="aacute" unicode="&#xe1;" horiz-adv-x="1251" 
d="M775 606c-62.667 0 -119.332 -3.33496 -169.999 -10.002c-64 -9.33301 -118.667 -24 -164 -44c-114 -51.333 -171 -137.666 -171 -258.999c0 -86.667 30 -154.667 90 -204c56 -46 127.667 -69 215 -69c138.667 0 235.667 51.667 291 155
c23.333 42.667 39.666 95.334 48.999 158.001c8 51.333 12 112.333 12 183v90h-152zM1091 306.998c0 -74 4.99902 -134.668 14.999 -182.001c12 -57.333 31 -90 57 -98c10.667 -4.66699 16 -10.334 16 -17.001c0 -9.33301 -6.33301 -14 -19 -14l-99 3
c-4.66699 0 -11.334 -0.333008 -20.001 -1l-36 -2c-16.667 0 -25 5.33301 -25 16c0 18.667 -5 50 -15 94l-12 52c-4 18.667 -6.66699 34.334 -8 47.001h-4c-42 -84 -101.333 -145.333 -178 -184c-68.667 -34.667 -153.334 -52 -254.001 -52
c-111.333 0 -208.666 26.667 -291.999 80c-96 62 -144 144.667 -144 248c0 73.333 25.667 136 77 188c43.333 45.333 105 82 185 110c66 22.667 142.667 39.334 230 50.001c66.667 8 135.334 12 206.001 12h156c0 129.333 -22 224 -66 284
c-51.333 68.667 -138.666 103 -261.999 103c-84.667 0 -165.667 -19.667 -243 -59c-91.333 -46 -141.333 -106 -150 -180c0 -5.33301 -3.33301 -8 -10 -8c-4 0 -6.66699 2 -8 6l-56 194c76.667 33.333 157 58.666 241 75.999c76 15.333 149.333 23 220 23
c177.333 0 307 -37 389 -111c72.667 -65.333 109 -161.666 109 -288.999v-389zM470.001 1194l303 300.999c32 34 63 51 93 51c43.333 0 65 -23 65 -69c0 -23.333 -24 -52.666 -72 -87.999l-303 -195h-86z" />
    <glyph glyph-name="acircumflex" unicode="&#xe2;" horiz-adv-x="1251" 
d="M775 606c-62.667 0 -119.332 -3.33496 -169.999 -10.002c-64 -9.33301 -118.667 -24 -164 -44c-114 -51.333 -171 -137.666 -171 -258.999c0 -86.667 30 -154.667 90 -204c56 -46 127.667 -69 215 -69c138.667 0 235.667 51.667 291 155
c23.333 42.667 39.666 95.334 48.999 158.001c8 51.333 12 112.333 12 183v90h-152zM1091 306.998c0 -74 4.99902 -134.668 14.999 -182.001c12 -57.333 31 -90 57 -98c10.667 -4.66699 16 -10.334 16 -17.001c0 -9.33301 -6.33301 -14 -19 -14l-99 3
c-4.66699 0 -11.334 -0.333008 -20.001 -1l-36 -2c-16.667 0 -25 5.33301 -25 16c0 18.667 -5 50 -15 94l-12 52c-4 18.667 -6.66699 34.334 -8 47.001h-4c-42 -84 -101.333 -145.333 -178 -184c-68.667 -34.667 -153.334 -52 -254.001 -52
c-111.333 0 -208.666 26.667 -291.999 80c-96 62 -144 144.667 -144 248c0 73.333 25.667 136 77 188c43.333 45.333 105 82 185 110c66 22.667 142.667 39.334 230 50.001c66.667 8 135.334 12 206.001 12h156c0 129.333 -22 224 -66 284
c-51.333 68.667 -138.666 103 -261.999 103c-84.667 0 -165.667 -19.667 -243 -59c-91.333 -46 -141.333 -106 -150 -180c0 -5.33301 -3.33301 -8 -10 -8c-4 0 -6.66699 2 -8 6l-56 194c76.667 33.333 157 58.666 241 75.999c76 15.333 149.333 23 220 23
c177.333 0 307 -37 389 -111c72.667 -65.333 109 -161.666 109 -288.999v-389zM378.001 1194h-72l254 342h129l256 -342h-71l-248 211z" />
    <glyph glyph-name="atilde" unicode="&#xe3;" horiz-adv-x="1251" 
d="M775 606c-62.667 0 -119.332 -3.33496 -169.999 -10.002c-64 -9.33301 -118.667 -24 -164 -44c-114 -51.333 -171 -137.666 -171 -258.999c0 -86.667 30 -154.667 90 -204c56 -46 127.667 -69 215 -69c138.667 0 235.667 51.667 291 155
c23.333 42.667 39.666 95.334 48.999 158.001c8 51.333 12 112.333 12 183v90h-152zM1091 306.998c0 -74 4.99902 -134.668 14.999 -182.001c12 -57.333 31 -90 57 -98c10.667 -4.66699 16 -10.334 16 -17.001c0 -9.33301 -6.33301 -14 -19 -14l-99 3
c-4.66699 0 -11.334 -0.333008 -20.001 -1l-36 -2c-16.667 0 -25 5.33301 -25 16c0 18.667 -5 50 -15 94l-12 52c-4 18.667 -6.66699 34.334 -8 47.001h-4c-42 -84 -101.333 -145.333 -178 -184c-68.667 -34.667 -153.334 -52 -254.001 -52
c-111.333 0 -208.666 26.667 -291.999 80c-96 62 -144 144.667 -144 248c0 73.333 25.667 136 77 188c43.333 45.333 105 82 185 110c66 22.667 142.667 39.334 230 50.001c66.667 8 135.334 12 206.001 12h156c0 129.333 -22 224 -66 284
c-51.333 68.667 -138.666 103 -261.999 103c-84.667 0 -165.667 -19.667 -243 -59c-91.333 -46 -141.333 -106 -150 -180c0 -5.33301 -3.33301 -8 -10 -8c-4 0 -6.66699 2 -8 6l-56 194c76.667 33.333 157 58.666 241 75.999c76 15.333 149.333 23 220 23
c177.333 0 307 -37 389 -111c72.667 -65.333 109 -161.666 109 -288.999v-389zM964.001 1462c-28 -143.333 -102.999 -215.001 -224.999 -215.001c-25.333 0 -51.666 5 -78.999 15c-20 6.66699 -44.333 17.334 -73 32.001l-8 5c-0.666992 0 -2.33398 0.666992 -5.00098 2
l-4 2l-16 8l-32 14c-22.667 9.33301 -42.667 14 -60 14c-58.667 0 -96.334 -30.667 -113.001 -92h-61c14.667 62.667 37.667 111 69 145c36.667 40 84.667 60 144 60c24 0 50.333 -4.66699 79 -14c20 -6.66699 45.667 -17 77 -31c32 -16 55.333 -27 70 -33
c24.667 -9.33301 45.667 -14 63 -14c58 0 96 34 114 102h60z" />
    <glyph glyph-name="egrave" unicode="&#xe8;" horiz-adv-x="1290" 
d="M284 676c-2 -8.66699 -3.66504 -16.667 -4.99805 -24l-4 -26c-2 -18.667 -3 -35.667 -3 -51c0 -164 32 -292.667 96 -386c74.667 -106.667 188 -160 340 -160c71.333 0 138.666 15.667 201.999 47c52.667 26.667 100.667 63.334 144 110.001
c34.667 36.667 64 77.334 88 122.001c19.333 35.333 31 63.666 35 84.999c1.33301 7.33301 4 13.666 8 18.999c4.66699 6.66699 10.667 10 18 10c11.333 0 17 -6.33301 17 -19c0 -15.333 -3.33301 -32.333 -10 -51c-37.333 -119.333 -109.666 -213.333 -216.999 -282
c-104 -67.333 -225.667 -101 -365 -101c-156.667 0 -288.667 57.333 -396 172c-104.667 112.667 -157 248 -157 406c0 142.667 51.333 267.667 154 375c111.333 116 252.666 174 423.999 174c141.333 0 262.666 -35.667 363.999 -107c110 -76.667 170.667 -181 182 -313
h-915zM1003 727c0 97.333 -32.333 175 -97 233c-62 56 -142.333 84 -241 84c-203.333 0 -329 -105.667 -377 -317h715zM435.002 1389c-47.333 35.333 -71 64.667 -71 88c0 46 21.667 69 65 69c30 0 60.667 -17 92 -51l304 -301h-86z" />
    <glyph glyph-name="eacute" unicode="&#xe9;" horiz-adv-x="1290" 
d="M284 676c-2 -8.66699 -3.66504 -16.667 -4.99805 -24l-4 -26c-2 -18.667 -3 -35.667 -3 -51c0 -164 32 -292.667 96 -386c74.667 -106.667 188 -160 340 -160c71.333 0 138.666 15.667 201.999 47c52.667 26.667 100.667 63.334 144 110.001
c34.667 36.667 64 77.334 88 122.001c19.333 35.333 31 63.666 35 84.999c1.33301 7.33301 4 13.666 8 18.999c4.66699 6.66699 10.667 10 18 10c11.333 0 17 -6.33301 17 -19c0 -15.333 -3.33301 -32.333 -10 -51c-37.333 -119.333 -109.666 -213.333 -216.999 -282
c-104 -67.333 -225.667 -101 -365 -101c-156.667 0 -288.667 57.333 -396 172c-104.667 112.667 -157 248 -157 406c0 142.667 51.333 267.667 154 375c111.333 116 252.666 174 423.999 174c141.333 0 262.666 -35.667 363.999 -107c110 -76.667 170.667 -181 182 -313
h-915zM1003 727c0 97.333 -32.333 175 -97 233c-62 56 -142.333 84 -241 84c-203.333 0 -329 -105.667 -377 -317h715zM515.002 1194l303 300.999c32 34 63 51 93 51c43.333 0 65 -23 65 -69c0 -23.333 -24 -52.666 -72 -87.999l-303 -195h-86z" />
    <glyph glyph-name="ecircumflex" unicode="&#xea;" horiz-adv-x="1290" 
d="M284 676c-2 -8.66699 -3.66504 -16.667 -4.99805 -24l-4 -26c-2 -18.667 -3 -35.667 -3 -51c0 -164 32 -292.667 96 -386c74.667 -106.667 188 -160 340 -160c71.333 0 138.666 15.667 201.999 47c52.667 26.667 100.667 63.334 144 110.001
c34.667 36.667 64 77.334 88 122.001c19.333 35.333 31 63.666 35 84.999c1.33301 7.33301 4 13.666 8 18.999c4.66699 6.66699 10.667 10 18 10c11.333 0 17 -6.33301 17 -19c0 -15.333 -3.33301 -32.333 -10 -51c-37.333 -119.333 -109.666 -213.333 -216.999 -282
c-104 -67.333 -225.667 -101 -365 -101c-156.667 0 -288.667 57.333 -396 172c-104.667 112.667 -157 248 -157 406c0 142.667 51.333 267.667 154 375c111.333 116 252.666 174 423.999 174c141.333 0 262.666 -35.667 363.999 -107c110 -76.667 170.667 -181 182 -313
h-915zM1003 727c0 97.333 -32.333 175 -97 233c-62 56 -142.333 84 -241 84c-203.333 0 -329 -105.667 -377 -317h715zM423.002 1194h-72l254 342h129l256 -342h-71l-248 211z" />
    <glyph glyph-name="igrave" unicode="&#xec;" horiz-adv-x="530" 
d="M349 365c0 -212.667 28.666 -327.666 85.999 -344.999l13 -2c4 -1.33301 7.33301 -2.33301 10 -3c6 -2.66699 9 -6.33398 9 -11.001c0 -2.66699 -2.66699 -4.66699 -8 -6c-4.66699 -1.33301 -10 -2 -16 -2l-123 3l-217 -3c-10.667 0 -16 2.66699 -16 8
c0 7.33301 11.333 15.666 34 24.999c50.667 23.333 76 120 76 290v599c0 17.333 -7 31 -21 41c-5.33301 3.33301 -12.666 7.33301 -21.999 12l-12 6c-4.66699 2 -8.66699 4 -12 6c-12.667 4.66699 -19 8.66699 -19 12c0 4.66699 4.66699 8.33398 14 11.001l224 59v-700z
M6.99902 1389c-48 35.333 -72 64.667 -72 88c0 46 22 69 66 69c29.333 0 60 -17 92 -51l303 -301h-86z" />
    <glyph glyph-name="iacute" unicode="&#xed;" horiz-adv-x="530" 
d="M348 365c0 -212.667 28.667 -327.666 86 -344.999l13 -2c4.66699 -1.33301 8 -2.33301 10 -3c6.66699 -2.66699 10 -6.33398 10 -11.001c0 -2.66699 -3 -4.66699 -9 -6c-4 -1.33301 -9.33301 -2 -16 -2l-123 3l-217 -3c-10.667 0 -16 2.66699 -16 8
c0 7.33301 11.667 15.666 35 24.999c50.667 23.333 76 120 76 290v599c0 17.333 -7.33301 31 -22 41c-4.66699 3.33301 -12 7.33301 -22 12l-12 6c-4.66699 2 -8.66699 4 -12 6c-12 4.66699 -18 8.66699 -18 12c0 4.66699 4.66699 8.33398 14 11.001l223 59v-700zM86 1194
l303 300.999c32 34 62.667 51 92 51c44 0 66 -23 66 -69c0 -23.333 -24 -52.666 -72 -87.999l-303 -195h-86z" />
    <glyph glyph-name="ograve" unicode="&#xf2;" horiz-adv-x="1366" 
d="M362 172c70 -101.333 176.333 -152 319 -152s249 50.667 319 152c61.333 88 91.666 208 90.999 360c0.666992 152.667 -29.666 273 -90.999 361c-70 100.667 -176.333 151 -319 151s-249 -50.333 -319 -151c-61.333 -88 -91.333 -208.333 -90 -361
c-1.33301 -152 28.667 -272 90 -360zM262 941c118.667 103.333 258.334 155 419.001 155c161.333 0 301 -51.667 419 -155c124.667 -109.333 187 -245.666 187 -408.999c0 -162.667 -62.333 -298.667 -187 -408c-118 -103.333 -257.667 -155 -419 -155
c-160.667 0 -300.334 51.667 -419.001 155c-124.667 109.333 -187 245.333 -187 408c0 163.333 62.333 299.666 187 408.999zM448 1389c-48 35.333 -72 64.667 -72 88c0 46 22 69 66 69c29.333 0 60 -17 92 -51l303 -301h-86z" />
    <glyph glyph-name="oacute" unicode="&#xf3;" horiz-adv-x="1366" 
d="M362 172c70 -101.333 176.333 -152 319 -152s249 50.667 319 152c61.333 88 91.666 208 90.999 360c0.666992 152.667 -29.666 273 -90.999 361c-70 100.667 -176.333 151 -319 151s-249 -50.333 -319 -151c-61.333 -88 -91.333 -208.333 -90 -361
c-1.33301 -152 28.667 -272 90 -360zM262 941c118.667 103.333 258.334 155 419.001 155c161.333 0 301 -51.667 419 -155c124.667 -109.333 187 -245.666 187 -408.999c0 -162.667 -62.333 -298.667 -187 -408c-118 -103.333 -257.667 -155 -419 -155
c-160.667 0 -300.334 51.667 -419.001 155c-124.667 109.333 -187 245.333 -187 408c0 163.333 62.333 299.666 187 408.999zM528 1194l303 300.999c31.333 34 62 51 92 51c43.333 0 65 -23 65 -69c0 -23.333 -23.667 -52.666 -71 -87.999l-303 -195h-86z" />
    <glyph glyph-name="ocircumflex" unicode="&#xf4;" horiz-adv-x="1366" 
d="M362 172c70 -101.333 176.333 -152 319 -152s249 50.667 319 152c61.333 88 91.666 208 90.999 360c0.666992 152.667 -29.666 273 -90.999 361c-70 100.667 -176.333 151 -319 151s-249 -50.333 -319 -151c-61.333 -88 -91.333 -208.333 -90 -361
c-1.33301 -152 28.667 -272 90 -360zM262 941c118.667 103.333 258.334 155 419.001 155c161.333 0 301 -51.667 419 -155c124.667 -109.333 187 -245.666 187 -408.999c0 -162.667 -62.333 -298.667 -187 -408c-118 -103.333 -257.667 -155 -419 -155
c-160.667 0 -300.334 51.667 -419.001 155c-124.667 109.333 -187 245.333 -187 408c0 163.333 62.333 299.666 187 408.999zM435 1194h-71l254 342h129l256 -342h-72l-248 211z" />
    <glyph glyph-name="otilde" unicode="&#xf5;" horiz-adv-x="1366" 
d="M362 172c70 -101.333 176.333 -152 319 -152s249 50.667 319 152c61.333 88 91.666 208 90.999 360c0.666992 152.667 -29.666 273 -90.999 361c-70 100.667 -176.333 151 -319 151s-249 -50.333 -319 -151c-61.333 -88 -91.333 -208.333 -90 -361
c-1.33301 -152 28.667 -272 90 -360zM262 941c118.667 103.333 258.334 155 419.001 155c161.333 0 301 -51.667 419 -155c124.667 -109.333 187 -245.666 187 -408.999c0 -162.667 -62.333 -298.667 -187 -408c-118 -103.333 -257.667 -155 -419 -155
c-160.667 0 -300.334 51.667 -419.001 155c-124.667 109.333 -187 245.333 -187 408c0 163.333 62.333 299.666 187 408.999zM1021 1462c-28 -143.333 -103.001 -215.002 -225.001 -215.002c-25.333 0 -51.666 5 -78.999 15c-19.333 6.66699 -43.666 17.334 -72.999 32.001
l-8 5c-0.666992 0 -2 0.666992 -4 2c-2 0.666992 -3.33301 1.33398 -4 2.00098c-6.66699 3.33301 -12.334 6 -17.001 8l-31 14c-23.333 9.33301 -43.666 14 -60.999 14c-58 0 -95.333 -30.667 -112 -92h-62c14.667 62.667 37.667 111 69 145c36.667 40 84.667 60 144 60
c24 0 50.667 -4.66699 80 -14c19.333 -6.66699 44.666 -17 75.999 -31c32 -16 55.333 -27 70 -33c24.667 -9.33301 45.667 -14 63 -14c58 0 96.333 34 115 102h59z" />
    <glyph glyph-name="divide" unicode="&#xf7;" horiz-adv-x="1706" 
 />
    <glyph glyph-name="glyph217" unicode="&#xf9;" horiz-adv-x="1327" 
d="M325 1065v-685.999c0 -104 24.333 -187.333 73 -250c55.333 -72.667 138.333 -109 249 -109c120 0 212.667 53.333 278 160c58.667 96.667 88 222.334 88 377.001v201c0 73.333 -4.66699 124.333 -14 153c-8.66699 26 -25.667 45.333 -51 58l-22 9
c-7.33301 3.33301 -11 7.66602 -11 12.999c0 3.33301 6 6.66602 18 9.99902l232 64v-686c0 -31.333 0.666992 -60.666 2 -87.999c2 -36.667 5 -70.334 9 -101.001c11.333 -80 31.333 -132.333 60 -157l10 -9l7 -7c4 -3.33301 6 -6.33301 6 -9c0 -5.33301 -11 -8 -33 -8h-149
l-62 213c-102 -162.667 -248 -244 -438 -244c-128.667 0 -230.667 35.667 -306 107c-73.333 69.333 -110 161.333 -110 276v463c0 93.333 -19.667 144 -59 152c-24.667 6 -37 13.333 -37 22c0 6 7.66699 10 23 12zM430 1389c-48 35.333 -72 64.667 -72 88
c0 46 21.667 69 65 69c30 0 61 -17 93 -51l303 -301h-86z" />
    <glyph glyph-name="glyph218" unicode="&#xfa;" horiz-adv-x="1327" 
d="M325 1065v-685.999c0 -104 24.333 -187.333 73 -250c55.333 -72.667 138.333 -109 249 -109c120 0 212.667 53.333 278 160c58.667 96.667 88 222.334 88 377.001v201c0 73.333 -4.66699 124.333 -14 153c-8.66699 26 -25.667 45.333 -51 58l-22 9
c-7.33301 3.33301 -11 7.66602 -11 12.999c0 3.33301 6 6.66602 18 9.99902l232 64v-686c0 -31.333 0.666992 -60.666 2 -87.999c2 -36.667 5 -70.334 9 -101.001c11.333 -80 31.333 -132.333 60 -157l10 -9l7 -7c4 -3.33301 6 -6.33301 6 -9c0 -5.33301 -11 -8 -33 -8h-149
l-62 213c-102 -162.667 -248 -244 -438 -244c-128.667 0 -230.667 35.667 -306 107c-73.333 69.333 -110 161.333 -110 276v463c0 93.333 -19.667 144 -59 152c-24.667 6 -37 13.333 -37 22c0 6 7.66699 10 23 12zM509 1194l304 300.999c31.333 34 62 51 92 51
c43.333 0 65 -23 65 -69c0 -23.333 -23.667 -52.666 -71 -87.999l-304 -195h-86z" />
    <glyph glyph-name="glyph235" unicode="&#xfd;" horiz-adv-x="1251" 
d="M641 -27c-57.333 -108 -118.332 -193.332 -182.999 -255.999c-87.333 -84 -199.333 -125 -336 -123l56 179c4.66699 13.333 8.66699 20 12 20c4 0 7.33301 -1.33301 10 -4c23.333 -40.667 63.666 -61 120.999 -61c58 0 114.333 30.333 169 91
c52.667 59.333 79 118.333 79 177c0 46.667 -11 93 -33 139l-327 664c-62 127.333 -116 203.666 -162 228.999c-20.667 10 -31 19.667 -31 29s9 14 27 14l95 -5l52 -1c24.667 0 54 1 88 3l57 3c15.333 0 26 -1.66699 32 -5c4.66699 -2 7 -5 7 -9s-3.33301 -8.66699 -10 -14
l-22 -15c-5.33301 -4 -9.33301 -7.33301 -12 -10c-4 -4.66699 -7.33301 -9 -10 -13c-7.33301 -11.333 -11 -24.666 -11 -39.999c0 -32.667 26.667 -99.667 80 -201l299 -574l190 373c22 42 40.667 79 56 111l48 104c30.667 72 46 124.667 46 158c0 41.333 -19.333 72 -58 92
l-24 15c-10 6 -15 10 -15 12c0 2.66699 1.66699 5.33398 5 8.00098c3.33301 4 7.33301 6 12 6l135 -4l137 4c4 0 8.33301 -1.66699 13 -5c4 -2.66699 6 -5 6 -7c0 -4.66699 -5 -10.334 -15 -17.001c-32 -22.667 -70.333 -69.334 -115 -140.001
c-36 -58.667 -81 -141.667 -135 -249zM471.001 1194l303 300.999c31.333 34 62 51 92 51c43.333 0 65 -23 65 -69c0 -23.333 -23.667 -52.666 -71 -87.999l-303 -195h-86z" />
    <glyph glyph-name="Abreve" unicode="&#x102;" 
d="M743 1133l-247 -443h479zM471 639l-131 -248.001c-25.333 -46.667 -45.333 -89.667 -60 -129c-20 -52.667 -30 -97 -30 -133c0 -35.333 17 -65.333 51 -90l38 -20c12.667 -5.33301 19 -10.333 19 -15c0 -5.33301 -10 -8 -30 -8l-181 3l-112 -3
c-12.667 0 -21 0.333008 -25 1c-8 1.33301 -12 4.33301 -12 9s5.66699 11.334 17 20.001c1.33301 0.666992 3.66602 2.33398 6.99902 5.00098l19 14c36.667 34.667 76.334 84.334 119.001 149.001l90 150l541 995c4 8.66699 8.66699 13 14 13h4
c9.33301 0 14 -4.33301 14 -13l605 -1163c31.333 -61.333 74.333 -110.333 129 -147c20 -14 30 -21.667 30 -23c0 -2.66699 -1 -5 -3 -7c-3.33301 -2 -9 -3 -17 -3l-244 3c-12 0 -30 -0.333008 -54 -1l-102 -2c-10.667 0 -16 2 -16 6c0 5.33301 4 9.66602 12 12.999
c1.33301 0.666992 5.33301 2.33398 12 5.00098l15 7c24.667 13.333 37 37.666 37 72.999c0 26 -9.66699 64.333 -29 115c-16.667 43.333 -40 94.666 -70 153.999l-133 270h-524zM572 1687c32 -91.333 107.667 -137 227 -137c118.667 0 194 45.667 226 137h73
c-8 -61.333 -32.667 -114.666 -74 -159.999c-56 -61.333 -131 -92 -225 -92c-94.667 0 -170 30.667 -226 92c-41.333 45.333 -66 98.666 -74 159.999h73z" />
    <glyph glyph-name="abreve" unicode="&#x103;" horiz-adv-x="1251" 
d="M775 606c-62.667 0 -119.332 -3.33496 -169.999 -10.002c-64 -9.33301 -118.667 -24 -164 -44c-114 -51.333 -171 -137.666 -171 -258.999c0 -86.667 30 -154.667 90 -204c56 -46 127.667 -69 215 -69c138.667 0 235.667 51.667 291 155
c23.333 42.667 39.666 95.334 48.999 158.001c8 51.333 12 112.333 12 183v90h-152zM1091 306.998c0 -74 4.99902 -134.668 14.999 -182.001c12 -57.333 31 -90 57 -98c10.667 -4.66699 16 -10.334 16 -17.001c0 -9.33301 -6.33301 -14 -19 -14l-99 3
c-4.66699 0 -11.334 -0.333008 -20.001 -1l-36 -2c-16.667 0 -25 5.33301 -25 16c0 18.667 -5 50 -15 94l-12 52c-4 18.667 -6.66699 34.334 -8 47.001h-4c-42 -84 -101.333 -145.333 -178 -184c-68.667 -34.667 -153.334 -52 -254.001 -52
c-111.333 0 -208.666 26.667 -291.999 80c-96 62 -144 144.667 -144 248c0 73.333 25.667 136 77 188c43.333 45.333 105 82 185 110c66 22.667 142.667 39.334 230 50.001c66.667 8 135.334 12 206.001 12h156c0 129.333 -22 224 -66 284
c-51.333 68.667 -138.666 103 -261.999 103c-84.667 0 -165.667 -19.667 -243 -59c-91.333 -46 -141.333 -106 -150 -180c0 -5.33301 -3.33301 -8 -10 -8c-4 0 -6.66699 2 -8 6l-56 194c76.667 33.333 157 58.666 241 75.999c76 15.333 149.333 23 220 23
c177.333 0 307 -37 389 -111c72.667 -65.333 109 -161.666 109 -288.999v-389zM384.001 1463c32 -91.333 107.667 -137 227 -137c118.667 0 194 45.667 226 137h73c-8 -61.333 -32.667 -114.666 -74 -159.999c-56 -61.333 -131 -92 -225 -92
c-94.667 0 -169.667 30.667 -225 92c-42 45.333 -67 98.666 -75 159.999h73z" />
    <glyph glyph-name="Ccaron" unicode="&#x10c;" horiz-adv-x="1274" 
 />
    <glyph glyph-name="ccaron" unicode="&#x10d;" horiz-adv-x="922" 
 />
    <glyph glyph-name="Dslash" unicode="&#x110;" horiz-adv-x="1630" 
d="M733 678h-368.999v-301c0 -122 10 -206.333 30 -253c18 -41.333 50.333 -64.333 97 -69c70 -6.66699 133.333 -10 190 -10c51.333 0 102.666 2 153.999 6c158 13.333 275.667 65 353 155c88 102.667 132 262 132 478c0 210.667 -50.333 361.667 -151 453
c-95.333 87.333 -249 131 -461 131h-344v-539h369v-51zM28.001 729l160 -0.00195312v307c0 86 -6.66699 146.667 -20 182c-10.667 28 -30 48.667 -58 62l-16 10c-4.66699 4 -7 8.33301 -7 13s3.33301 8.33398 10 11.001c9.33301 3.33301 26.666 5 51.999 5h629
c122.667 0 233.667 -17.667 333 -53c92.667 -33.333 172 -80.666 238 -141.999c126.667 -118 190 -265.333 190 -442c0 -188 -61.333 -344.333 -184 -469c-123.333 -126 -287 -197 -491 -213c-51.333 -4 -104 -6 -158 -6l-240 6l-319 -3c-7.33301 0 -15 -0.333008 -23 -1
l-59 -4c-9.33301 0 -14 2 -14 6c0 5.33301 7.33301 12 22 20c52.667 30 85.334 64.667 98.001 104c11.333 34 17 106.667 17 218v338h-160v51z" />
    <glyph glyph-name="dcroat" unicode="&#x111;" horiz-adv-x="1366" 
d="M354 874c-28 -48 -49 -104.333 -63 -169c-12.667 -58 -19 -119.667 -19 -185c0 -133.333 29.667 -246.333 89 -339c69.333 -107.333 165.666 -161 288.999 -161c146.667 0 256.334 52.667 329.001 158c62 90.667 93 213.667 93 369c0 152 -31.333 270.333 -94 355
c-70.667 94.667 -177.667 142 -321 142c-134 0 -235 -56.667 -303 -170zM1228 1485v-1032c0 -240.667 24 -378 72 -412c18.667 -14.667 28 -24.334 28 -29.001c0 -8 -6 -12 -18 -12c-7.33301 -0 -15.333 0.333008 -24 1l-68 7c-7.33301 0 -15.333 -0.333008 -24 -1l-68 -7
l-50 225c-103.333 -170.667 -247.333 -256 -432 -256c-162.667 0 -298 51.667 -406 155c-108.667 104.667 -163 236.667 -163 396c0 172 56.667 311.333 170 418c111.333 105.333 253.333 158 426 158c78 0 157 -20.333 237 -61c63.333 -32 119.333 -72.667 168 -122v285
c0 45.333 -4.33301 83 -13 113c-12 39.333 -31.333 63 -58 71c-14 4 -23.333 7.33301 -28 10c-4.66699 2 -7 4.33301 -7 7c0 6 6 11.333 18 16zM606 1151l27 55h794l-27 -55h-794z" />
    <glyph glyph-name="Itilde" unicode="&#x128;" horiz-adv-x="569" 
d="M195 1112c0 45.333 -3.66699 80.333 -11 105c-11.333 38.667 -32.666 63.667 -63.999 75c-10 4.66699 -15 9.66699 -15 15s2.33301 8.66602 7 9.99902c3.33301 1.33301 12 2 26 2l54 -4c31.333 -2.66699 61.666 -4 90.999 -4c16 0 40 1.33301 72 4s56 4 72 4h9
c4 -0.666992 7.66699 -1 11 -1c10 -2 15 -5 15 -9c0 -9.33301 -5 -15 -15 -17c-31.333 -9.33301 -52.666 -32 -63.999 -68c-7.33301 -24.667 -11 -62 -11 -112v-789c0 -24 0.333008 -45 1 -63c1.33301 -44 4.66602 -80.667 9.99902 -110
c12.667 -69.333 39.667 -113.333 81 -132c14.667 -5.33301 22 -11.333 22 -18c0 -4 -7.33301 -6 -22 -6l-85 4c-9.33301 0.666992 -18.666 1 -27.999 1l-198 -2c-6.66699 -0.666992 -13.334 -1 -20.001 -1l-38 -2c-16.667 0 -25 2.66699 -25 8c0 1.33301 3 4 9 8
c1.33301 0.666992 3 1.66699 5 3l5 3c4 2 7.33301 4.33301 10 7c40 25.333 67.333 77.333 82 156c6 30.667 10 66.334 12 107.001c1.33301 29.333 2 64.333 2 105v721zM635 1669c-28 -143.333 -102.999 -215 -224.999 -215c-25.333 0 -51.666 4.66699 -78.999 14
c-20 7.33301 -44.333 18.333 -73 33l-8 4c-0.666992 0.666992 -2.33398 1.66699 -5.00098 3l-4 2l-16 8l-32 14c-22.667 9.33301 -42.667 14 -60 14c-58.667 0 -96.334 -30.667 -113.001 -92h-61c14.667 62.667 37.667 111 69 145c36.667 40 84.667 60 144 60
c24 0 50.333 -4.66699 79 -14c20 -6.66699 45.667 -17 77 -31c32 -16 55.333 -27 70 -33c24.667 -9.33301 45.667 -14 63 -14c58 0 96 34 114 102h60z" />
    <glyph glyph-name="itilde" unicode="&#x129;" horiz-adv-x="530" 
d="M348 365c0 -212.667 28.667 -327.666 86 -344.999l13 -2c4.66699 -1.33301 8 -2.33301 10 -3c6.66699 -2.66699 10 -6.33398 10 -11.001c0 -2.66699 -3 -4.66699 -9 -6c-4 -1.33301 -9.33301 -2 -16 -2l-123 3l-217 -3c-10.667 0 -16 2.66699 -16 8
c0 7.33301 11.667 15.666 35 24.999c50.667 23.333 76 120 76 290v599c0 17.333 -7.33301 31 -22 41c-4.66699 3.33301 -12 7.33301 -22 12l-12 6c-4.66699 2 -8.66699 4 -12 6c-12 4.66699 -18 8.66699 -18 12c0 4.66699 4.66699 8.33398 14 11.001l223 59v-700zM607 1409
c-28 -143.333 -102.999 -215.001 -224.999 -215.001c-25.333 0 -51.666 5 -78.999 15c-20 6.66699 -44.333 17.334 -73 32.001l-8 5c-0.666992 0 -2.33398 0.666992 -5.00098 2l-4 2l-16 8l-32 14c-22.667 9.33301 -42.667 14 -60 14
c-58.667 0 -96.334 -30.667 -113.001 -92h-61c14.667 62.667 37.667 111 69 145c36.667 40 84.667 60 144 60c24 0 50.333 -4.66699 79 -14c20 -6.66699 45.667 -17 77 -31c32 -16 55.333 -27 70 -33c24.667 -9.33301 45.667 -14 63 -14c58 0 96 34 114 102h60z" />
    <glyph glyph-name="Utilde" unicode="&#x168;" 
d="M184 1112c0 64 -7.33203 109.663 -21.999 136.996c-5.33301 10.667 -12 19 -20 25l-11 7c-2 1.33301 -5.33301 3 -10 5c-20.667 8 -31 15 -31 21c0 8 7.66699 12 23 12l151 -8l180 8c8 0 15 -1 21 -3c6.66699 -2 10 -4.33301 10 -7c0 -3.33301 -2 -6.66602 -6 -9.99902
c-5.33301 -4.66699 -13 -9 -23 -13c-36.667 -12.667 -61 -48 -73 -106c-5.33301 -24 -9 -52.667 -11 -86c-1.33301 -24 -2 -55.667 -2 -95v-514c0 -144 37 -257.667 111 -341c79.333 -89.333 194.666 -134 345.999 -134c85.333 0 158.333 7.66699 219 23
c67.333 16.667 123.333 43.334 168 80.001c97.333 81.333 146 221 146 419v449c0 165.333 -37.667 265 -113 299c-27.333 12.667 -41 22.334 -41 29.001c0 3.33301 3.33301 6 10 8c4.66699 1.33301 9.33398 2 14.001 2l46 -4c14 -1.33301 29.667 -2.33301 47 -3
c22 -0.666992 46.333 -1 73 -1l146 4c14.667 0 22 -2.66699 22 -8c0 -2.66699 -3.66699 -6.33398 -11 -11.001l-23 -14c-40.667 -23.333 -68 -53.666 -82 -90.999c-15.333 -40.667 -23 -110.667 -23 -210v-414c0 -235.333 -54.333 -399.333 -163 -492
c-50 -42.667 -113.667 -73 -191 -91c-68.667 -16.667 -153.334 -25 -254.001 -25c-227.333 0 -390 41 -488 123c-90 74.667 -135 193.334 -135 356.001v674zM1192 1669c-28 -143.333 -102.999 -215 -224.999 -215c-25.333 0 -51.666 4.66699 -78.999 14
c-20 7.33301 -44.333 18.333 -73 33l-8 4c-0.666992 0.666992 -2.33398 1.66699 -5.00098 3l-4 2l-16 8l-32 14c-22.667 9.33301 -42.667 14 -60 14c-58.667 0 -96.334 -30.667 -113.001 -92h-61c14.667 62.667 37.667 111 69 145c36.667 40 84.667 60 144 60
c24 0 50.333 -4.66699 79 -14c20 -6.66699 45.667 -17 77 -31c32 -16 55.333 -27 70 -33c24.667 -9.33301 45.667 -14 63 -14c58 0 96 34 114 102h60z" />
    <glyph glyph-name="utilde" unicode="&#x169;" horiz-adv-x="1327" 
d="M325 1065v-685.999c0 -104 24.333 -187.333 73 -250c55.333 -72.667 138.333 -109 249 -109c120 0 212.667 53.333 278 160c58.667 96.667 88 222.334 88 377.001v201c0 73.333 -4.66699 124.333 -14 153c-8.66699 26 -25.667 45.333 -51 58l-22 9
c-7.33301 3.33301 -11 7.66602 -11 12.999c0 3.33301 6 6.66602 18 9.99902l232 64v-686c0 -31.333 0.666992 -60.666 2 -87.999c2 -36.667 5 -70.334 9 -101.001c11.333 -80 31.333 -132.333 60 -157l10 -9l7 -7c4 -3.33301 6 -6.33301 6 -9c0 -5.33301 -11 -8 -33 -8h-149
l-62 213c-102 -162.667 -248 -244 -438 -244c-128.667 0 -230.667 35.667 -306 107c-73.333 69.333 -110 161.333 -110 276v463c0 93.333 -19.667 144 -59 152c-24.667 6 -37 13.333 -37 22c0 6 7.66699 10 23 12zM1022 1462
c-28 -143.333 -103.001 -215.002 -225.001 -215.002c-25.333 0 -51.666 5 -78.999 15c-20 6.66699 -44.333 17.334 -73 32.001l-8 5c-0.666992 0 -2 0.666992 -4 2c-2 0.666992 -3.66699 1.33398 -5 2.00098l-16 8l-32 14c-22.667 9.33301 -42.667 14 -60 14
c-58.667 0 -96 -30.667 -112 -92h-62c14.667 62.667 37.667 111 69 145c36.667 40 84.667 60 144 60c24 0 50.333 -4.66699 79 -14c20 -6.66699 45.667 -17 77 -31c32 -16 55.333 -27 70 -33c24.667 -9.33301 45.667 -14 63 -14c58 0 96.333 34 115 102h59z" />
    <glyph glyph-name="Ohorn" unicode="&#x1a0;" horiz-adv-x="1705" 
d="M1271 192c85.333 109.333 128.001 259 128.001 449c0 203.333 -42.667 361.333 -128 474c-93.333 123.333 -233 185 -419 185c-186.667 0 -326.334 -61.667 -419.001 -185c-85.333 -112.667 -128 -270.667 -128 -474c0 -190 42.667 -339.667 128 -449
c94 -121.333 233.667 -182 419 -182s325 60.667 419 182zM1363 1181c5.33301 -4 10.6709 -8.33301 16.0039 -13c74.667 -61.333 132.334 -133.666 173.001 -216.999c44 -89.333 66 -186.666 66 -291.999c0 -106.667 -22 -205.334 -66 -296.001
c-40.667 -84 -98.334 -157.333 -173.001 -220c-146.667 -122.667 -322.334 -184 -527.001 -184s-380.334 61.333 -527.001 184c-74.667 62.667 -132.334 136 -173.001 220c-44 90.667 -66 189.334 -66 296.001c0 105.333 22 202.666 66 291.999
c40.667 83.333 98.334 155.666 173.001 216.999c147.333 122.667 323 184 527 184c180 0 338 -47.667 474 -143c8 7.33301 15 14.666 21 21.999c24 28 41.333 60.333 52 97c-74 19.333 -105.333 60 -94 122c19.333 62.667 63.666 87.334 132.999 74.001
c68 -20 88.333 -76.333 61 -169c-16 -54 -54.667 -106.667 -116 -158c-6.66699 -6 -13.334 -11.333 -20.001 -16z" />
    <glyph glyph-name="ohorn" unicode="&#x1a1;" horiz-adv-x="1366" 
d="M362 172c70 -101.333 176.333 -152 319 -152s249 50.667 319 152c61.333 88 91.666 208 90.999 360c0.666992 152.667 -29.666 273 -90.999 361c-70 100.667 -176.333 151 -319 151s-249 -50.333 -319 -151c-61.333 -88 -91.333 -208.333 -90 -361
c-1.33301 -152 28.667 -272 90 -360zM262 941c118.667 103.333 258.334 155 419.001 155c161.333 0 301 -51.667 419 -155c124.667 -109.333 187 -245.666 187 -408.999c0 -162.667 -62.333 -298.667 -187 -408c-118 -103.333 -257.667 -155 -419 -155
c-160.667 0 -300.334 51.667 -419.001 155c-124.667 109.333 -187 245.333 -187 408c0 163.333 62.333 299.666 187 408.999zM1206 1256c68 -20 88.335 -76.335 61.002 -169.002c-16 -54 -54.667 -106.667 -116 -158c-56.667 -47.333 -96.667 -67.666 -120 -60.999
c-6 2 -8.33301 5.33301 -7 10c1.33301 5.33301 3.66602 9 6.99902 11c38 28 66 52.667 84 74c24 28 41.333 60.333 52 97c-74 19.333 -105.333 60 -94 122c19.333 62.667 63.666 87.334 132.999 74.001z" />
    <glyph glyph-name="Uhorn" unicode="&#x1af;" 
d="M1526 1524c68 -20 88.335 -76.335 61.002 -169.002c-16 -54 -54.667 -106.667 -116 -158c-56.667 -47.333 -96.667 -67.666 -120 -60.999c-6 2 -8.33301 5.33301 -7 10c1.33301 5.33301 3.66602 9 6.99902 11c38 28 66 52.667 84 74c24 28 41.333 60.333 52 97
c-74 19.333 -105.333 60 -94 122c19.333 62.667 63.666 87.334 132.999 74.001zM1420 1101c-3.33301 -34 -5 -74.0039 -5 -120.004v-414c0 -235.333 -54.333 -399.333 -163 -492c-49.333 -42.667 -113 -73 -191 -91c-68.667 -16.667 -153.334 -25 -254.001 -25
c-227.333 0 -390 41 -488 123c-90 74.667 -135 193.334 -135 356.001v674c0 64 -7 109.667 -21 137c-6 10.667 -13 19 -21 25l-11 7c-2 1.33301 -5.33301 3 -10 5c-20.667 8 -31 15 -31 21c0 8 7.66699 12 23 12l151 -8l180 8c8 0 15 -1 21 -3c6.66699 -2 10 -4.33301 10 -7
c0 -3.33301 -2 -6.66602 -6 -9.99902c-5.33301 -4.66699 -13 -9 -23 -13c-36 -12.667 -60.333 -48 -73 -106c-5.33301 -24 -9 -52.667 -11 -86c-1.33301 -24 -2 -55.667 -2 -95v-514c0 -144 37 -257.667 111 -341c80 -89.333 195.333 -134 346 -134c86 0 159 7.66699 219 23
c68 16.667 124 43.334 168 80.001c97.333 81.333 146 221 146 419v449c0 165.333 -37.667 265 -113 299c-27.333 12.667 -41 22.334 -41 29.001c0 3.33301 3.33301 6 10 8c4.66699 1.33301 9.66699 2 15 2l45 -4c14.667 -1.33301 30.334 -2.33301 47.001 -3
c22 -0.666992 46.333 -1 73 -1c32 -7.33301 43.333 -77.333 34 -210z" />
    <glyph glyph-name="uhorn" unicode="&#x1b0;" horiz-adv-x="1327" 
d="M325 1065v-685.999c0 -104 24.333 -187.333 73 -250c55.333 -72.667 138.333 -109 249 -109c120 0 212.667 53.333 278 160c58.667 96.667 88 222.334 88 377.001v201c0 73.333 -4.66699 124.333 -14 153c-8.66699 26 -25.667 45.333 -51 58l-22 9
c-7.33301 3.33301 -11 7.66602 -11 12.999c0 3.33301 6 6.66602 18 9.99902l232 64v-686c0 -31.333 0.666992 -60.666 2 -87.999c2 -36.667 5 -70.334 9 -101.001c11.333 -80 31.333 -132.333 60 -157l10 -9l7 -7c4 -3.33301 6 -6.33301 6 -9c0 -5.33301 -11 -8 -33 -8h-149
l-62 213c-102 -162.667 -248 -244 -438 -244c-128.667 0 -230.667 35.667 -306 107c-73.333 69.333 -110 161.333 -110 276v463c0 93.333 -19.667 144 -59 152c-24.667 6 -37 13.333 -37 22c0 6 7.66699 10 23 12zM1269 1256c68 -20 88.335 -76.335 61.002 -169.002
c-16 -54 -54.667 -106.667 -116 -158c-56.667 -47.333 -96.667 -67.666 -120 -60.999c-6 2 -8.33301 5.33301 -7 10c1.33301 5.33301 3.66602 9 6.99902 11c38 28 66 52.667 84 74c24 28 41.333 60.333 52 97c-74 19.333 -105.333 60 -94 122
c19.333 62.667 63.666 87.334 132.999 74.001z" />
    <glyph glyph-name="uni1EA0" unicode="&#x1ea0;" 
d="M743 1133l-247 -443h479zM471 639l-131 -248.001c-25.333 -46.667 -45.333 -89.667 -60 -129c-20 -52.667 -30 -97 -30 -133c0 -35.333 17 -65.333 51 -90l38 -20c12.667 -5.33301 19 -10.333 19 -15c0 -5.33301 -10 -8 -30 -8l-181 3l-112 -3
c-12.667 0 -21 0.333008 -25 1c-8 1.33301 -12 4.33301 -12 9s5.66699 11.334 17 20.001c1.33301 0.666992 3.66602 2.33398 6.99902 5.00098l19 14c36.667 34.667 76.334 84.334 119.001 149.001l90 150l541 995c4 8.66699 8.66699 13 14 13h4
c9.33301 0 14 -4.33301 14 -13l605 -1163c31.333 -61.333 74.333 -110.333 129 -147c20 -14 30 -21.667 30 -23c0 -2.66699 -1 -5 -3 -7c-3.33301 -2 -9 -3 -17 -3l-244 3c-12 0 -30 -0.333008 -54 -1l-102 -2c-10.667 0 -16 2 -16 6c0 5.33301 4 9.66602 12 12.999
c1.33301 0.666992 5.33301 2.33398 12 5.00098l15 7c24.667 13.333 37 37.666 37 72.999c0 26 -9.66699 64.333 -29 115c-16.667 43.333 -40 94.666 -70 153.999l-133 270h-524zM734 -180.001c66 0 99 -33.333 99 -100c0 -65.333 -33 -98 -99 -98
c-66.667 0 -100 32.667 -100 98c0 66.667 33.333 100 100 100z" />
    <glyph glyph-name="uni1EA1" unicode="&#x1ea1;" horiz-adv-x="1251" 
d="M775 606c-62.667 0 -119.332 -3.33496 -169.999 -10.002c-64 -9.33301 -118.667 -24 -164 -44c-114 -51.333 -171 -137.666 -171 -258.999c0 -86.667 30 -154.667 90 -204c56 -46 127.667 -69 215 -69c138.667 0 235.667 51.667 291 155
c23.333 42.667 39.666 95.334 48.999 158.001c8 51.333 12 112.333 12 183v90h-152zM1091 306.998c0 -74 4.99902 -134.668 14.999 -182.001c12 -57.333 31 -90 57 -98c10.667 -4.66699 16 -10.334 16 -17.001c0 -9.33301 -6.33301 -14 -19 -14l-99 3
c-4.66699 0 -11.334 -0.333008 -20.001 -1l-36 -2c-16.667 0 -25 5.33301 -25 16c0 18.667 -5 50 -15 94l-12 52c-4 18.667 -6.66699 34.334 -8 47.001h-4c-42 -84 -101.333 -145.333 -178 -184c-68.667 -34.667 -153.334 -52 -254.001 -52
c-111.333 0 -208.666 26.667 -291.999 80c-96 62 -144 144.667 -144 248c0 73.333 25.667 136 77 188c43.333 45.333 105 82 185 110c66 22.667 142.667 39.334 230 50.001c66.667 8 135.334 12 206.001 12h156c0 129.333 -22 224 -66 284
c-51.333 68.667 -138.666 103 -261.999 103c-84.667 0 -165.667 -19.667 -243 -59c-91.333 -46 -141.333 -106 -150 -180c0 -5.33301 -3.33301 -8 -10 -8c-4 0 -6.66699 2 -8 6l-56 194c76.667 33.333 157 58.666 241 75.999c76 15.333 149.333 23 220 23
c177.333 0 307 -37 389 -111c72.667 -65.333 109 -161.666 109 -288.999v-389zM629.001 -180.003c66 0 99 -33.333 99 -100c0 -65.333 -33 -98 -99 -98c-66.667 0 -100 32.667 -100 98c0 66.667 33.333 100 100 100z" />
    <glyph glyph-name="uni1EA2" unicode="&#x1ea2;" 
d="M743 1133l-247 -443h479zM471 639l-131 -248.001c-25.333 -46.667 -45.333 -89.667 -60 -129c-20 -52.667 -30 -97 -30 -133c0 -35.333 17 -65.333 51 -90l38 -20c12.667 -5.33301 19 -10.333 19 -15c0 -5.33301 -10 -8 -30 -8l-181 3l-112 -3
c-12.667 0 -21 0.333008 -25 1c-8 1.33301 -12 4.33301 -12 9s5.66699 11.334 17 20.001c1.33301 0.666992 3.66602 2.33398 6.99902 5.00098l19 14c36.667 34.667 76.334 84.334 119.001 149.001l90 150l541 995c4 8.66699 8.66699 13 14 13h4
c9.33301 0 14 -4.33301 14 -13l605 -1163c31.333 -61.333 74.333 -110.333 129 -147c20 -14 30 -21.667 30 -23c0 -2.66699 -1 -5 -3 -7c-3.33301 -2 -9 -3 -17 -3l-244 3c-12 0 -30 -0.333008 -54 -1l-102 -2c-10.667 0 -16 2 -16 6c0 5.33301 4 9.66602 12 12.999
c1.33301 0.666992 5.33301 2.33398 12 5.00098l15 7c24.667 13.333 37 37.666 37 72.999c0 26 -9.66699 64.333 -29 115c-16.667 43.333 -40 94.666 -70 153.999l-133 270h-524zM645 1781c58.667 23.333 114.334 35 167.001 35c56.667 0 104 -11.333 142 -34
c46 -28 69 -67.333 69 -118c0 -26 -11 -51.333 -33 -76c-8 -8.66699 -18.333 -18.334 -31 -29.001l-35 -27c-14.667 -12 -26 -21.667 -34 -29c-10.667 -9.33301 -19.667 -18.666 -27 -27.999c-16.667 -20.667 -24 -46.667 -22 -78h-47c-2 32.667 3.66699 62.667 17 90
c4.66699 10 11.667 21.667 21 35l22 31l24 32c8 12 15 23.333 21 34c12.667 23.333 19 46.333 19 69c0 58.667 -32 88 -96 88c-58.667 0 -105.334 -43.667 -140.001 -131z" />
    <glyph glyph-name="uni1EA3" unicode="&#x1ea3;" horiz-adv-x="1251" 
d="M775 606c-62.667 0 -119.332 -3.33496 -169.999 -10.002c-64 -9.33301 -118.667 -24 -164 -44c-114 -51.333 -171 -137.666 -171 -258.999c0 -86.667 30 -154.667 90 -204c56 -46 127.667 -69 215 -69c138.667 0 235.667 51.667 291 155
c23.333 42.667 39.666 95.334 48.999 158.001c8 51.333 12 112.333 12 183v90h-152zM1091 306.998c0 -74 4.99902 -134.668 14.999 -182.001c12 -57.333 31 -90 57 -98c10.667 -4.66699 16 -10.334 16 -17.001c0 -9.33301 -6.33301 -14 -19 -14l-99 3
c-4.66699 0 -11.334 -0.333008 -20.001 -1l-36 -2c-16.667 0 -25 5.33301 -25 16c0 18.667 -5 50 -15 94l-12 52c-4 18.667 -6.66699 34.334 -8 47.001h-4c-42 -84 -101.333 -145.333 -178 -184c-68.667 -34.667 -153.334 -52 -254.001 -52
c-111.333 0 -208.666 26.667 -291.999 80c-96 62 -144 144.667 -144 248c0 73.333 25.667 136 77 188c43.333 45.333 105 82 185 110c66 22.667 142.667 39.334 230 50.001c66.667 8 135.334 12 206.001 12h156c0 129.333 -22 224 -66 284
c-51.333 68.667 -138.666 103 -261.999 103c-84.667 0 -165.667 -19.667 -243 -59c-91.333 -46 -141.333 -106 -150 -180c0 -5.33301 -3.33301 -8 -10 -8c-4 0 -6.66699 2 -8 6l-56 194c76.667 33.333 157 58.666 241 75.999c76 15.333 149.333 23 220 23
c177.333 0 307 -37 389 -111c72.667 -65.333 109 -161.666 109 -288.999v-389zM409.001 1576c59.333 23.333 115.333 35 168 35c56 0 103 -11.333 141 -34c46 -28 69 -67.333 69 -118c0 -26 -11 -51.333 -33 -76c-7.33301 -8.66699 -17.666 -18.334 -30.999 -29.001l-34 -27
c-15.333 -12 -27 -21.667 -35 -29c-10.667 -9.33301 -19.667 -18.666 -27 -27.999c-16.667 -20.667 -23.667 -46.667 -21 -78h-48c-2 32.667 3.66699 62.667 17 90c5.33301 10 12.333 21.667 21 35l22 31l24 32c8 12 15 23.333 21 34c12.667 23.333 19 46.333 19 69
c0 58.667 -32 88 -96 88c-58.667 0 -105.334 -43.667 -140.001 -131z" />
    <glyph glyph-name="uni1EA4" unicode="&#x1ea4;" 
d="M743 1133l-247 -443h479zM471 639l-131 -248.001c-25.333 -46.667 -45.333 -89.667 -60 -129c-20 -52.667 -30 -97 -30 -133c0 -35.333 17 -65.333 51 -90l38 -20c12.667 -5.33301 19 -10.333 19 -15c0 -5.33301 -10 -8 -30 -8l-181 3l-112 -3
c-12.667 0 -21 0.333008 -25 1c-8 1.33301 -12 4.33301 -12 9s5.66699 11.334 17 20.001c1.33301 0.666992 3.66602 2.33398 6.99902 5.00098l19 14c36.667 34.667 76.334 84.334 119.001 149.001l90 150l541 995c4 8.66699 8.66699 13 14 13h4
c9.33301 0 14 -4.33301 14 -13l605 -1163c31.333 -61.333 74.333 -110.333 129 -147c20 -14 30 -21.667 30 -23c0 -2.66699 -1 -5 -3 -7c-3.33301 -2 -9 -3 -17 -3l-244 3c-12 0 -30 -0.333008 -54 -1l-102 -2c-10.667 0 -16 2 -16 6c0 5.33301 4 9.66602 12 12.999
c1.33301 0.666992 5.33301 2.33398 12 5.00098l15 7c24.667 13.333 37 37.666 37 72.999c0 26 -9.66699 64.333 -29 115c-16.667 43.333 -40 94.666 -70 153.999l-133 270h-524zM1016 1659l303 301c31.333 34 62 51 92 51c43.333 0 65 -23.333 65 -70
c0 -22.667 -23.667 -52 -71 -88l-303 -194h-86zM567 1401h-71l254 342h129l256 -342h-72l-248 211z" />
    <glyph glyph-name="uni1EA5" unicode="&#x1ea5;" horiz-adv-x="1251" 
d="M775 606c-62.667 0 -119.332 -3.33496 -169.999 -10.002c-64 -9.33301 -118.667 -24 -164 -44c-114 -51.333 -171 -137.666 -171 -258.999c0 -86.667 30 -154.667 90 -204c56 -46 127.667 -69 215 -69c138.667 0 235.667 51.667 291 155
c23.333 42.667 39.666 95.334 48.999 158.001c8 51.333 12 112.333 12 183v90h-152zM1091 306.998c0 -74 4.99902 -134.668 14.999 -182.001c12 -57.333 31 -90 57 -98c10.667 -4.66699 16 -10.334 16 -17.001c0 -9.33301 -6.33301 -14 -19 -14l-99 3
c-4.66699 0 -11.334 -0.333008 -20.001 -1l-36 -2c-16.667 0 -25 5.33301 -25 16c0 18.667 -5 50 -15 94l-12 52c-4 18.667 -6.66699 34.334 -8 47.001h-4c-42 -84 -101.333 -145.333 -178 -184c-68.667 -34.667 -153.334 -52 -254.001 -52
c-111.333 0 -208.666 26.667 -291.999 80c-96 62 -144 144.667 -144 248c0 73.333 25.667 136 77 188c43.333 45.333 105 82 185 110c66 22.667 142.667 39.334 230 50.001c66.667 8 135.334 12 206.001 12h156c0 129.333 -22 224 -66 284
c-51.333 68.667 -138.666 103 -261.999 103c-84.667 0 -165.667 -19.667 -243 -59c-91.333 -46 -141.333 -106 -150 -180c0 -5.33301 -3.33301 -8 -10 -8c-4 0 -6.66699 2 -8 6l-56 194c76.667 33.333 157 58.666 241 75.999c76 15.333 149.333 23 220 23
c177.333 0 307 -37 389 -111c72.667 -65.333 109 -161.666 109 -288.999v-389zM800.001 1461l303 300.999c32 34 63 51 93 51c43.333 0 65 -23 65 -69c0 -23.333 -24 -52.666 -72 -87.999l-303 -195h-86zM378.001 1194h-72l254 342h129l256 -342h-71l-248 211z" />
    <glyph glyph-name="uni1EA6" unicode="&#x1ea6;" 
d="M743 1133l-247 -443h479zM471 639l-131 -248.001c-25.333 -46.667 -45.333 -89.667 -60 -129c-20 -52.667 -30 -97 -30 -133c0 -35.333 17 -65.333 51 -90l38 -20c12.667 -5.33301 19 -10.333 19 -15c0 -5.33301 -10 -8 -30 -8l-181 3l-112 -3
c-12.667 0 -21 0.333008 -25 1c-8 1.33301 -12 4.33301 -12 9s5.66699 11.334 17 20.001c1.33301 0.666992 3.66602 2.33398 6.99902 5.00098l19 14c36.667 34.667 76.334 84.334 119.001 149.001l90 150l541 995c4 8.66699 8.66699 13 14 13h4
c9.33301 0 14 -4.33301 14 -13l605 -1163c31.333 -61.333 74.333 -110.333 129 -147c20 -14 30 -21.667 30 -23c0 -2.66699 -1 -5 -3 -7c-3.33301 -2 -9 -3 -17 -3l-244 3c-12 0 -30 -0.333008 -54 -1l-102 -2c-10.667 0 -16 2 -16 6c0 5.33301 4 9.66602 12 12.999
c1.33301 0.666992 5.33301 2.33398 12 5.00098l15 7c24.667 13.333 37 37.666 37 72.999c0 26 -9.66699 64.333 -29 115c-16.667 43.333 -40 94.666 -70 153.999l-133 270h-524zM749 1880c-48 36 -72 65.333 -72 88c0 46.667 21.667 70 65 70c30 0 61 -17 93 -51l303 -301
h-86zM567 1401h-71l254 342h129l256 -342h-72l-248 211z" />
    <glyph glyph-name="uni1EA7" unicode="&#x1ea7;" horiz-adv-x="1251" 
d="M775 606c-62.667 0 -119.332 -3.33496 -169.999 -10.002c-64 -9.33301 -118.667 -24 -164 -44c-114 -51.333 -171 -137.666 -171 -258.999c0 -86.667 30 -154.667 90 -204c56 -46 127.667 -69 215 -69c138.667 0 235.667 51.667 291 155
c23.333 42.667 39.666 95.334 48.999 158.001c8 51.333 12 112.333 12 183v90h-152zM1091 306.998c0 -74 4.99902 -134.668 14.999 -182.001c12 -57.333 31 -90 57 -98c10.667 -4.66699 16 -10.334 16 -17.001c0 -9.33301 -6.33301 -14 -19 -14l-99 3
c-4.66699 0 -11.334 -0.333008 -20.001 -1l-36 -2c-16.667 0 -25 5.33301 -25 16c0 18.667 -5 50 -15 94l-12 52c-4 18.667 -6.66699 34.334 -8 47.001h-4c-42 -84 -101.333 -145.333 -178 -184c-68.667 -34.667 -153.334 -52 -254.001 -52
c-111.333 0 -208.666 26.667 -291.999 80c-96 62 -144 144.667 -144 248c0 73.333 25.667 136 77 188c43.333 45.333 105 82 185 110c66 22.667 142.667 39.334 230 50.001c66.667 8 135.334 12 206.001 12h156c0 129.333 -22 224 -66 284
c-51.333 68.667 -138.666 103 -261.999 103c-84.667 0 -165.667 -19.667 -243 -59c-91.333 -46 -141.333 -106 -150 -180c0 -5.33301 -3.33301 -8 -10 -8c-4 0 -6.66699 2 -8 6l-56 194c76.667 33.333 157 58.666 241 75.999c76 15.333 149.333 23 220 23
c177.333 0 307 -37 389 -111c72.667 -65.333 109 -161.666 109 -288.999v-389zM640.001 1684c-47.333 35.333 -71 64.667 -71 88c0 46 21.667 69 65 69c30 0 60.667 -17 92 -51l304 -301h-86zM378.001 1194h-72l254 342h129l256 -342h-71l-248 211z" />
    <glyph glyph-name="uni1EA8" unicode="&#x1ea8;" 
d="M743 1133l-247 -443h479zM471 639l-131 -248.001c-25.333 -46.667 -45.333 -89.667 -60 -129c-20 -52.667 -30 -97 -30 -133c0 -35.333 17 -65.333 51 -90l38 -20c12.667 -5.33301 19 -10.333 19 -15c0 -5.33301 -10 -8 -30 -8l-181 3l-112 -3
c-12.667 0 -21 0.333008 -25 1c-8 1.33301 -12 4.33301 -12 9s5.66699 11.334 17 20.001c1.33301 0.666992 3.66602 2.33398 6.99902 5.00098l19 14c36.667 34.667 76.334 84.334 119.001 149.001l90 150l541 995c4 8.66699 8.66699 13 14 13h4
c9.33301 0 14 -4.33301 14 -13l605 -1163c31.333 -61.333 74.333 -110.333 129 -147c20 -14 30 -21.667 30 -23c0 -2.66699 -1 -5 -3 -7c-3.33301 -2 -9 -3 -17 -3l-244 3c-12 0 -30 -0.333008 -54 -1l-102 -2c-10.667 0 -16 2 -16 6c0 5.33301 4 9.66602 12 12.999
c1.33301 0.666992 5.33301 2.33398 12 5.00098l15 7c24.667 13.333 37 37.666 37 72.999c0 26 -9.66699 64.333 -29 115c-16.667 43.333 -40 94.666 -70 153.999l-133 270h-524zM868 2012c58.667 23.333 114.334 35 167.001 35c56.667 0 104 -11.333 142 -34
c46 -28 69 -67.333 69 -118c0 -26 -11 -51.333 -33 -76c-8 -8.66699 -18.333 -18.334 -31 -29.001l-35 -27c-14.667 -12 -26 -21.667 -34 -29c-10.667 -9.33301 -19.667 -18.666 -27 -27.999c-16.667 -20.667 -24 -46.667 -22 -78h-47c-2 32.667 3.66699 62.667 17 90
c4.66699 10 11.667 21.667 21 35l22 31l24 32c8 12 15 23.333 21 34c12.667 23.333 19 46.333 19 69c0 58.667 -32 88 -96 88c-58.667 0 -105.334 -43.667 -140.001 -131zM567 1401h-71l254 342h129l256 -342h-72l-248 211z" />
    <glyph glyph-name="uni1EA9" unicode="&#x1ea9;" horiz-adv-x="1251" 
d="M775 606c-62.667 0 -119.332 -3.33496 -169.999 -10.002c-64 -9.33301 -118.667 -24 -164 -44c-114 -51.333 -171 -137.666 -171 -258.999c0 -86.667 30 -154.667 90 -204c56 -46 127.667 -69 215 -69c138.667 0 235.667 51.667 291 155
c23.333 42.667 39.666 95.334 48.999 158.001c8 51.333 12 112.333 12 183v90h-152zM1091 306.998c0 -74 4.99902 -134.668 14.999 -182.001c12 -57.333 31 -90 57 -98c10.667 -4.66699 16 -10.334 16 -17.001c0 -9.33301 -6.33301 -14 -19 -14l-99 3
c-4.66699 0 -11.334 -0.333008 -20.001 -1l-36 -2c-16.667 0 -25 5.33301 -25 16c0 18.667 -5 50 -15 94l-12 52c-4 18.667 -6.66699 34.334 -8 47.001h-4c-42 -84 -101.333 -145.333 -178 -184c-68.667 -34.667 -153.334 -52 -254.001 -52
c-111.333 0 -208.666 26.667 -291.999 80c-96 62 -144 144.667 -144 248c0 73.333 25.667 136 77 188c43.333 45.333 105 82 185 110c66 22.667 142.667 39.334 230 50.001c66.667 8 135.334 12 206.001 12h156c0 129.333 -22 224 -66 284
c-51.333 68.667 -138.666 103 -261.999 103c-84.667 0 -165.667 -19.667 -243 -59c-91.333 -46 -141.333 -106 -150 -180c0 -5.33301 -3.33301 -8 -10 -8c-4 0 -6.66699 2 -8 6l-56 194c76.667 33.333 157 58.666 241 75.999c76 15.333 149.333 23 220 23
c177.333 0 307 -37 389 -111c72.667 -65.333 109 -161.666 109 -288.999v-389zM704.001 1798c59.333 23.333 115.333 35 168 35c56 0 103 -11.333 141 -34c46 -28 69 -67.333 69 -118c0 -26 -11 -51.333 -33 -76c-7.33301 -8.66699 -17.666 -18.334 -30.999 -29.001l-34 -27
c-15.333 -12 -27 -21.667 -35 -29c-10.667 -9.33301 -19.667 -18.666 -27 -27.999c-16.667 -20.667 -23.667 -46.667 -21 -78h-48c-2 32.667 3.66699 62.667 17 90c5.33301 10 12.333 21.667 21 35l22 31l24 32c8 12 15 23.333 21 34c12.667 23.333 19 46.333 19 69
c0 58.667 -32 88 -96 88c-58.667 0 -105.334 -43.667 -140.001 -131zM378.001 1194h-72l254 342h129l256 -342h-71l-248 211z" />
    <glyph glyph-name="uni1EAA" unicode="&#x1eaa;" 
d="M743 1133l-247 -443h479zM471 639l-131 -248.001c-25.333 -46.667 -45.333 -89.667 -60 -129c-20 -52.667 -30 -97 -30 -133c0 -35.333 17 -65.333 51 -90l38 -20c12.667 -5.33301 19 -10.333 19 -15c0 -5.33301 -10 -8 -30 -8l-181 3l-112 -3
c-12.667 0 -21 0.333008 -25 1c-8 1.33301 -12 4.33301 -12 9s5.66699 11.334 17 20.001c1.33301 0.666992 3.66602 2.33398 6.99902 5.00098l19 14c36.667 34.667 76.334 84.334 119.001 149.001l90 150l541 995c4 8.66699 8.66699 13 14 13h4
c9.33301 0 14 -4.33301 14 -13l605 -1163c31.333 -61.333 74.333 -110.333 129 -147c20 -14 30 -21.667 30 -23c0 -2.66699 -1 -5 -3 -7c-3.33301 -2 -9 -3 -17 -3l-244 3c-12 0 -30 -0.333008 -54 -1l-102 -2c-10.667 0 -16 2 -16 6c0 5.33301 4 9.66602 12 12.999
c1.33301 0.666992 5.33301 2.33398 12 5.00098l15 7c24.667 13.333 37 37.666 37 72.999c0 26 -9.66699 64.333 -29 115c-16.667 43.333 -40 94.666 -70 153.999l-133 270h-524zM1224 1981c-28 -143.333 -102.999 -215.001 -224.999 -215.001
c-25.333 0 -51.666 4.66699 -78.999 14c-20 7.33301 -44.333 18.333 -73 33l-8 4c-0.666992 0.666992 -2 1.66699 -4 3c-2 0.666992 -3.33301 1.33398 -4 2.00098c-6.66699 3.33301 -12.334 6 -17.001 8l-32 14c-22.667 9.33301 -42.667 14 -60 14
c-58.667 0 -96 -30.667 -112 -92h-62c14.667 62.667 37.667 111 69 145c36.667 40 84.667 60 144 60c24 0 50.667 -4.66699 80 -14c19.333 -6.66699 44.666 -17 75.999 -31c32 -16 55.333 -27 70 -33c24.667 -9.33301 45.667 -14 63 -14c58 0 96.333 34 115 102h59z
M567.001 1401h-71l254 342h129l256 -342h-72l-248 211z" />
    <glyph glyph-name="uni1EAB" unicode="&#x1eab;" horiz-adv-x="1251" 
d="M775 606c-62.667 0 -119.332 -3.33496 -169.999 -10.002c-64 -9.33301 -118.667 -24 -164 -44c-114 -51.333 -171 -137.666 -171 -258.999c0 -86.667 30 -154.667 90 -204c56 -46 127.667 -69 215 -69c138.667 0 235.667 51.667 291 155
c23.333 42.667 39.666 95.334 48.999 158.001c8 51.333 12 112.333 12 183v90h-152zM1091 306.998c0 -74 4.99902 -134.668 14.999 -182.001c12 -57.333 31 -90 57 -98c10.667 -4.66699 16 -10.334 16 -17.001c0 -9.33301 -6.33301 -14 -19 -14l-99 3
c-4.66699 0 -11.334 -0.333008 -20.001 -1l-36 -2c-16.667 0 -25 5.33301 -25 16c0 18.667 -5 50 -15 94l-12 52c-4 18.667 -6.66699 34.334 -8 47.001h-4c-42 -84 -101.333 -145.333 -178 -184c-68.667 -34.667 -153.334 -52 -254.001 -52
c-111.333 0 -208.666 26.667 -291.999 80c-96 62 -144 144.667 -144 248c0 73.333 25.667 136 77 188c43.333 45.333 105 82 185 110c66 22.667 142.667 39.334 230 50.001c66.667 8 135.334 12 206.001 12h156c0 129.333 -22 224 -66 284
c-51.333 68.667 -138.666 103 -261.999 103c-84.667 0 -165.667 -19.667 -243 -59c-91.333 -46 -141.333 -106 -150 -180c0 -5.33301 -3.33301 -8 -10 -8c-4 0 -6.66699 2 -8 6l-56 194c76.667 33.333 157 58.666 241 75.999c76 15.333 149.333 23 220 23
c177.333 0 307 -37 389 -111c72.667 -65.333 109 -161.666 109 -288.999v-389zM1026 1819c-28 -143.333 -102.999 -215.001 -224.999 -215.001c-25.333 0 -51.666 5 -78.999 15c-20 6.66699 -44.333 17.334 -73 32.001l-8 5c-0.666992 0 -2.33398 0.666992 -5.00098 2l-4 2
l-16 8l-32 14c-22.667 9.33301 -42.667 14 -60 14c-58.667 0 -96.334 -30.667 -113.001 -92h-61c14.667 62.667 37.667 111 69 145c36.667 40 84.667 60 144 60c24 0 50.333 -4.66699 79 -14c20 -6.66699 45.667 -17 77 -31c32 -16 55.333 -27 70 -33
c24.667 -9.33301 45.667 -14 63 -14c58 0 96 34 114 102h60zM378.002 1194h-72l254 342h129l256 -342h-71l-248 211z" />
    <glyph glyph-name="uni1EAC" unicode="&#x1eac;" 
d="M743 1133l-247 -443h479zM471 639l-131 -248.001c-25.333 -46.667 -45.333 -89.667 -60 -129c-20 -52.667 -30 -97 -30 -133c0 -35.333 17 -65.333 51 -90l38 -20c12.667 -5.33301 19 -10.333 19 -15c0 -5.33301 -10 -8 -30 -8l-181 3l-112 -3
c-12.667 0 -21 0.333008 -25 1c-8 1.33301 -12 4.33301 -12 9s5.66699 11.334 17 20.001c1.33301 0.666992 3.66602 2.33398 6.99902 5.00098l19 14c36.667 34.667 76.334 84.334 119.001 149.001l90 150l541 995c4 8.66699 8.66699 13 14 13h4
c9.33301 0 14 -4.33301 14 -13l605 -1163c31.333 -61.333 74.333 -110.333 129 -147c20 -14 30 -21.667 30 -23c0 -2.66699 -1 -5 -3 -7c-3.33301 -2 -9 -3 -17 -3l-244 3c-12 0 -30 -0.333008 -54 -1l-102 -2c-10.667 0 -16 2 -16 6c0 5.33301 4 9.66602 12 12.999
c1.33301 0.666992 5.33301 2.33398 12 5.00098l15 7c24.667 13.333 37 37.666 37 72.999c0 26 -9.66699 64.333 -29 115c-16.667 43.333 -40 94.666 -70 153.999l-133 270h-524zM734 -180.001c66 0 99 -33.333 99 -100c0 -65.333 -33 -98 -99 -98
c-66.667 0 -100 32.667 -100 98c0 66.667 33.333 100 100 100zM567 1401h-71l254 342h129l256 -342h-72l-248 211z" />
    <glyph glyph-name="uni1EAD" unicode="&#x1ead;" horiz-adv-x="1251" 
d="M775 606c-62.667 0 -119.332 -3.33496 -169.999 -10.002c-64 -9.33301 -118.667 -24 -164 -44c-114 -51.333 -171 -137.666 -171 -258.999c0 -86.667 30 -154.667 90 -204c56 -46 127.667 -69 215 -69c138.667 0 235.667 51.667 291 155
c23.333 42.667 39.666 95.334 48.999 158.001c8 51.333 12 112.333 12 183v90h-152zM1091 306.998c0 -74 4.99902 -134.668 14.999 -182.001c12 -57.333 31 -90 57 -98c10.667 -4.66699 16 -10.334 16 -17.001c0 -9.33301 -6.33301 -14 -19 -14l-99 3
c-4.66699 0 -11.334 -0.333008 -20.001 -1l-36 -2c-16.667 0 -25 5.33301 -25 16c0 18.667 -5 50 -15 94l-12 52c-4 18.667 -6.66699 34.334 -8 47.001h-4c-42 -84 -101.333 -145.333 -178 -184c-68.667 -34.667 -153.334 -52 -254.001 -52
c-111.333 0 -208.666 26.667 -291.999 80c-96 62 -144 144.667 -144 248c0 73.333 25.667 136 77 188c43.333 45.333 105 82 185 110c66 22.667 142.667 39.334 230 50.001c66.667 8 135.334 12 206.001 12h156c0 129.333 -22 224 -66 284
c-51.333 68.667 -138.666 103 -261.999 103c-84.667 0 -165.667 -19.667 -243 -59c-91.333 -46 -141.333 -106 -150 -180c0 -5.33301 -3.33301 -8 -10 -8c-4 0 -6.66699 2 -8 6l-56 194c76.667 33.333 157 58.666 241 75.999c76 15.333 149.333 23 220 23
c177.333 0 307 -37 389 -111c72.667 -65.333 109 -161.666 109 -288.999v-389zM629.001 -180.003c66 0 99 -33.333 99 -100c0 -65.333 -33 -98 -99 -98c-66.667 0 -100 32.667 -100 98c0 66.667 33.333 100 100 100zM378.001 1194h-72l254 342h129l256 -342h-71l-248 211z
" />
    <glyph glyph-name="uni1EAE" unicode="&#x1eae;" 
d="M743 1133l-247 -443h479zM471 639l-131 -248.001c-25.333 -46.667 -45.333 -89.667 -60 -129c-20 -52.667 -30 -97 -30 -133c0 -35.333 17 -65.333 51 -90l38 -20c12.667 -5.33301 19 -10.333 19 -15c0 -5.33301 -10 -8 -30 -8l-181 3l-112 -3
c-12.667 0 -21 0.333008 -25 1c-8 1.33301 -12 4.33301 -12 9s5.66699 11.334 17 20.001c1.33301 0.666992 3.66602 2.33398 6.99902 5.00098l19 14c36.667 34.667 76.334 84.334 119.001 149.001l90 150l541 995c4 8.66699 8.66699 13 14 13h4
c9.33301 0 14 -4.33301 14 -13l605 -1163c31.333 -61.333 74.333 -110.333 129 -147c20 -14 30 -21.667 30 -23c0 -2.66699 -1 -5 -3 -7c-3.33301 -2 -9 -3 -17 -3l-244 3c-12 0 -30 -0.333008 -54 -1l-102 -2c-10.667 0 -16 2 -16 6c0 5.33301 4 9.66602 12 12.999
c1.33301 0.666992 5.33301 2.33398 12 5.00098l15 7c24.667 13.333 37 37.666 37 72.999c0 26 -9.66699 64.333 -29 115c-16.667 43.333 -40 94.666 -70 153.999l-133 270h-524zM695 1659l303 301c31.333 34 62 51 92 51c43.333 0 65 -23.333 65 -70
c0 -22.667 -23.667 -52 -71 -88l-303 -194h-86zM572 1697c32 -91.333 107.667 -137 227 -137c118.667 0 194 45.667 226 137h73c-8 -61.333 -32.667 -114.666 -74 -159.999c-56 -61.333 -131 -92 -225 -92c-94.667 0 -170 30.667 -226 92
c-41.333 45.333 -66 98.666 -74 159.999h73z" />
    <glyph glyph-name="uni1EAF" unicode="&#x1eaf;" horiz-adv-x="1251" 
d="M775 606c-62.667 0 -119.332 -3.33496 -169.999 -10.002c-64 -9.33301 -118.667 -24 -164 -44c-114 -51.333 -171 -137.666 -171 -258.999c0 -86.667 30 -154.667 90 -204c56 -46 127.667 -69 215 -69c138.667 0 235.667 51.667 291 155
c23.333 42.667 39.666 95.334 48.999 158.001c8 51.333 12 112.333 12 183v90h-152zM1091 306.998c0 -74 4.99902 -134.668 14.999 -182.001c12 -57.333 31 -90 57 -98c10.667 -4.66699 16 -10.334 16 -17.001c0 -9.33301 -6.33301 -14 -19 -14l-99 3
c-4.66699 0 -11.334 -0.333008 -20.001 -1l-36 -2c-16.667 0 -25 5.33301 -25 16c0 18.667 -5 50 -15 94l-12 52c-4 18.667 -6.66699 34.334 -8 47.001h-4c-42 -84 -101.333 -145.333 -178 -184c-68.667 -34.667 -153.334 -52 -254.001 -52
c-111.333 0 -208.666 26.667 -291.999 80c-96 62 -144 144.667 -144 248c0 73.333 25.667 136 77 188c43.333 45.333 105 82 185 110c66 22.667 142.667 39.334 230 50.001c66.667 8 135.334 12 206.001 12h156c0 129.333 -22 224 -66 284
c-51.333 68.667 -138.666 103 -261.999 103c-84.667 0 -165.667 -19.667 -243 -59c-91.333 -46 -141.333 -106 -150 -180c0 -5.33301 -3.33301 -8 -10 -8c-4 0 -6.66699 2 -8 6l-56 194c76.667 33.333 157 58.666 241 75.999c76 15.333 149.333 23 220 23
c177.333 0 307 -37 389 -111c72.667 -65.333 109 -161.666 109 -288.999v-389zM505.001 1461l303 300.999c32 34 63 51 93 51c43.333 0 65 -23 65 -69c0 -23.333 -24 -52.666 -72 -87.999l-303 -195h-86zM384.001 1463c32 -91.333 107.667 -137 227 -137
c118.667 0 194 45.667 226 137h73c-8 -61.333 -32.667 -114.666 -74 -159.999c-56 -61.333 -131 -92 -225 -92c-94.667 0 -169.667 30.667 -225 92c-42 45.333 -67 98.666 -75 159.999h73z" />
    <glyph glyph-name="uni1EB0" unicode="&#x1eb0;" 
d="M743 1133l-247 -443h479zM471 639l-131 -248.001c-25.333 -46.667 -45.333 -89.667 -60 -129c-20 -52.667 -30 -97 -30 -133c0 -35.333 17 -65.333 51 -90l38 -20c12.667 -5.33301 19 -10.333 19 -15c0 -5.33301 -10 -8 -30 -8l-181 3l-112 -3
c-12.667 0 -21 0.333008 -25 1c-8 1.33301 -12 4.33301 -12 9s5.66699 11.334 17 20.001c1.33301 0.666992 3.66602 2.33398 6.99902 5.00098l19 14c36.667 34.667 76.334 84.334 119.001 149.001l90 150l541 995c4 8.66699 8.66699 13 14 13h4
c9.33301 0 14 -4.33301 14 -13l605 -1163c31.333 -61.333 74.333 -110.333 129 -147c20 -14 30 -21.667 30 -23c0 -2.66699 -1 -5 -3 -7c-3.33301 -2 -9 -3 -17 -3l-244 3c-12 0 -30 -0.333008 -54 -1l-102 -2c-10.667 0 -16 2 -16 6c0 5.33301 4 9.66602 12 12.999
c1.33301 0.666992 5.33301 2.33398 12 5.00098l15 7c24.667 13.333 37 37.666 37 72.999c0 26 -9.66699 64.333 -29 115c-16.667 43.333 -40 94.666 -70 153.999l-133 270h-524zM561 1880c-48 36 -72 65.333 -72 88c0 46.667 21.667 70 65 70c30 0 61 -17 93 -51l303 -301
h-86zM572 1697c32 -91.333 107.667 -137 227 -137c118.667 0 194 45.667 226 137h73c-8 -61.333 -32.667 -114.666 -74 -159.999c-56 -61.333 -131 -92 -225 -92c-94.667 0 -170 30.667 -226 92c-41.333 45.333 -66 98.666 -74 159.999h73z" />
    <glyph glyph-name="uni1EB1" unicode="&#x1eb1;" horiz-adv-x="1251" 
d="M775 606c-62.667 0 -119.332 -3.33496 -169.999 -10.002c-64 -9.33301 -118.667 -24 -164 -44c-114 -51.333 -171 -137.666 -171 -258.999c0 -86.667 30 -154.667 90 -204c56 -46 127.667 -69 215 -69c138.667 0 235.667 51.667 291 155
c23.333 42.667 39.666 95.334 48.999 158.001c8 51.333 12 112.333 12 183v90h-152zM1091 306.998c0 -74 4.99902 -134.668 14.999 -182.001c12 -57.333 31 -90 57 -98c10.667 -4.66699 16 -10.334 16 -17.001c0 -9.33301 -6.33301 -14 -19 -14l-99 3
c-4.66699 0 -11.334 -0.333008 -20.001 -1l-36 -2c-16.667 0 -25 5.33301 -25 16c0 18.667 -5 50 -15 94l-12 52c-4 18.667 -6.66699 34.334 -8 47.001h-4c-42 -84 -101.333 -145.333 -178 -184c-68.667 -34.667 -153.334 -52 -254.001 -52
c-111.333 0 -208.666 26.667 -291.999 80c-96 62 -144 144.667 -144 248c0 73.333 25.667 136 77 188c43.333 45.333 105 82 185 110c66 22.667 142.667 39.334 230 50.001c66.667 8 135.334 12 206.001 12h156c0 129.333 -22 224 -66 284
c-51.333 68.667 -138.666 103 -261.999 103c-84.667 0 -165.667 -19.667 -243 -59c-91.333 -46 -141.333 -106 -150 -180c0 -5.33301 -3.33301 -8 -10 -8c-4 0 -6.66699 2 -8 6l-56 194c76.667 33.333 157 58.666 241 75.999c76 15.333 149.333 23 220 23
c177.333 0 307 -37 389 -111c72.667 -65.333 109 -161.666 109 -288.999v-389zM381.001 1684c-47.333 35.333 -71 64.667 -71 88c0 46 21.667 69 65 69c30 0 60.667 -17 92 -51l304 -301h-86zM384.001 1463c32 -91.333 107.667 -137 227 -137c118.667 0 194 45.667 226 137
h73c-8 -61.333 -32.667 -114.666 -74 -159.999c-56 -61.333 -131 -92 -225 -92c-94.667 0 -169.667 30.667 -225 92c-42 45.333 -67 98.666 -75 159.999h73z" />
    <glyph glyph-name="uni1EB2" unicode="&#x1eb2;" 
d="M743 1133l-247 -443h479zM471 639l-131 -248.001c-25.333 -46.667 -45.333 -89.667 -60 -129c-20 -52.667 -30 -97 -30 -133c0 -35.333 17 -65.333 51 -90l38 -20c12.667 -5.33301 19 -10.333 19 -15c0 -5.33301 -10 -8 -30 -8l-181 3l-112 -3
c-12.667 0 -21 0.333008 -25 1c-8 1.33301 -12 4.33301 -12 9s5.66699 11.334 17 20.001c1.33301 0.666992 3.66602 2.33398 6.99902 5.00098l19 14c36.667 34.667 76.334 84.334 119.001 149.001l90 150l541 995c4 8.66699 8.66699 13 14 13h4
c9.33301 0 14 -4.33301 14 -13l605 -1163c31.333 -61.333 74.333 -110.333 129 -147c20 -14 30 -21.667 30 -23c0 -2.66699 -1 -5 -3 -7c-3.33301 -2 -9 -3 -17 -3l-244 3c-12 0 -30 -0.333008 -54 -1l-102 -2c-10.667 0 -16 2 -16 6c0 5.33301 4 9.66602 12 12.999
c1.33301 0.666992 5.33301 2.33398 12 5.00098l15 7c24.667 13.333 37 37.666 37 72.999c0 26 -9.66699 64.333 -29 115c-16.667 43.333 -40 94.666 -70 153.999l-133 270h-524zM644 2012c58.667 23.333 114.334 35 167.001 35c56.667 0 104 -11.333 142 -34
c46 -28 69 -67.333 69 -118c0 -26 -11 -51.333 -33 -76c-8 -8.66699 -18.333 -18.334 -31 -29.001l-35 -27c-14.667 -12 -26 -21.667 -34 -29c-10.667 -9.33301 -19.667 -18.666 -27 -27.999c-16.667 -20.667 -24 -46.667 -22 -78h-47c-2 32.667 3.66699 62.667 17 90
c4.66699 10 11.667 21.667 21 35l22 31l24 32c8 12 15 23.333 21 34c12.667 23.333 19 46.333 19 69c0 58.667 -32 88 -96 88c-58.667 0 -105.334 -43.667 -140.001 -131zM572 1697c32 -91.333 107.667 -137 227 -137c118.667 0 194 45.667 226 137h73
c-8 -61.333 -32.667 -114.666 -74 -159.999c-56 -61.333 -131 -92 -225 -92c-94.667 0 -170 30.667 -226 92c-41.333 45.333 -66 98.666 -74 159.999h73z" />
    <glyph glyph-name="uni1EB3" unicode="&#x1eb3;" horiz-adv-x="1251" 
d="M775 606c-62.667 0 -119.332 -3.33496 -169.999 -10.002c-64 -9.33301 -118.667 -24 -164 -44c-114 -51.333 -171 -137.666 -171 -258.999c0 -86.667 30 -154.667 90 -204c56 -46 127.667 -69 215 -69c138.667 0 235.667 51.667 291 155
c23.333 42.667 39.666 95.334 48.999 158.001c8 51.333 12 112.333 12 183v90h-152zM1091 306.998c0 -74 4.99902 -134.668 14.999 -182.001c12 -57.333 31 -90 57 -98c10.667 -4.66699 16 -10.334 16 -17.001c0 -9.33301 -6.33301 -14 -19 -14l-99 3
c-4.66699 0 -11.334 -0.333008 -20.001 -1l-36 -2c-16.667 0 -25 5.33301 -25 16c0 18.667 -5 50 -15 94l-12 52c-4 18.667 -6.66699 34.334 -8 47.001h-4c-42 -84 -101.333 -145.333 -178 -184c-68.667 -34.667 -153.334 -52 -254.001 -52
c-111.333 0 -208.666 26.667 -291.999 80c-96 62 -144 144.667 -144 248c0 73.333 25.667 136 77 188c43.333 45.333 105 82 185 110c66 22.667 142.667 39.334 230 50.001c66.667 8 135.334 12 206.001 12h156c0 129.333 -22 224 -66 284
c-51.333 68.667 -138.666 103 -261.999 103c-84.667 0 -165.667 -19.667 -243 -59c-91.333 -46 -141.333 -106 -150 -180c0 -5.33301 -3.33301 -8 -10 -8c-4 0 -6.66699 2 -8 6l-56 194c76.667 33.333 157 58.666 241 75.999c76 15.333 149.333 23 220 23
c177.333 0 307 -37 389 -111c72.667 -65.333 109 -161.666 109 -288.999v-389zM441.001 1798c59.333 23.333 115.333 35 168 35c56 0 103 -11.333 141 -34c46 -28 69 -67.333 69 -118c0 -26 -11 -51.333 -33 -76c-7.33301 -8.66699 -17.666 -18.334 -30.999 -29.001l-34 -27
c-15.333 -12 -27 -21.667 -35 -29c-10.667 -9.33301 -19.667 -18.666 -27 -27.999c-16.667 -20.667 -23.667 -46.667 -21 -78h-48c-2 32.667 3.66699 62.667 17 90c5.33301 10 12.333 21.667 21 35l22 31l24 32c8 12 15 23.333 21 34c12.667 23.333 19 46.333 19 69
c0 58.667 -32 88 -96 88c-58.667 0 -105.334 -43.667 -140.001 -131zM384.001 1463c32 -91.333 107.667 -137 227 -137c118.667 0 194 45.667 226 137h73c-8 -61.333 -32.667 -114.666 -74 -159.999c-56 -61.333 -131 -92 -225 -92c-94.667 0 -169.667 30.667 -225 92
c-42 45.333 -67 98.666 -75 159.999h73z" />
    <glyph glyph-name="uni1EB4" unicode="&#x1eb4;" 
d="M743 1133l-247 -443h479zM471 639l-131 -248.001c-25.333 -46.667 -45.333 -89.667 -60 -129c-20 -52.667 -30 -97 -30 -133c0 -35.333 17 -65.333 51 -90l38 -20c12.667 -5.33301 19 -10.333 19 -15c0 -5.33301 -10 -8 -30 -8l-181 3l-112 -3
c-12.667 0 -21 0.333008 -25 1c-8 1.33301 -12 4.33301 -12 9s5.66699 11.334 17 20.001c1.33301 0.666992 3.66602 2.33398 6.99902 5.00098l19 14c36.667 34.667 76.334 84.334 119.001 149.001l90 150l541 995c4 8.66699 8.66699 13 14 13h4
c9.33301 0 14 -4.33301 14 -13l605 -1163c31.333 -61.333 74.333 -110.333 129 -147c20 -14 30 -21.667 30 -23c0 -2.66699 -1 -5 -3 -7c-3.33301 -2 -9 -3 -17 -3l-244 3c-12 0 -30 -0.333008 -54 -1l-102 -2c-10.667 0 -16 2 -16 6c0 5.33301 4 9.66602 12 12.999
c1.33301 0.666992 5.33301 2.33398 12 5.00098l15 7c24.667 13.333 37 37.666 37 72.999c0 26 -9.66699 64.333 -29 115c-16.667 43.333 -40 94.666 -70 153.999l-133 270h-524zM1233 1954c-28 -143.333 -102.999 -215.001 -224.999 -215.001
c-25.333 0 -51.666 4.66699 -78.999 14c-20 7.33301 -44.333 18.333 -73 33l-8 4c-0.666992 0.666992 -2 1.66699 -4 3c-2 0.666992 -3.33301 1.33398 -4 2.00098c-6.66699 3.33301 -12.334 6 -17.001 8l-32 14c-22.667 9.33301 -42.667 14 -60 14
c-58.667 0 -96 -30.667 -112 -92h-62c14.667 62.667 37.667 111 69 145c36.667 40 84.667 60 144 60c24 0 50.667 -4.66699 80 -14c19.333 -6.66699 44.666 -17 75.999 -31c32 -16 55.333 -27 70 -33c24.667 -9.33301 45.667 -14 63 -14c58 0 96.333 34 115 102h59z
M572.001 1697c32 -91.333 107.667 -137 227 -137c118.667 0 194 45.667 226 137h73c-8 -61.333 -32.667 -114.666 -74 -159.999c-56 -61.333 -131 -92 -225 -92c-94.667 0 -170 30.667 -226 92c-41.333 45.333 -66 98.666 -74 159.999h73z" />
    <glyph glyph-name="uni1EB5" unicode="&#x1eb5;" horiz-adv-x="1251" 
d="M775 606c-62.667 0 -119.332 -3.33496 -169.999 -10.002c-64 -9.33301 -118.667 -24 -164 -44c-114 -51.333 -171 -137.666 -171 -258.999c0 -86.667 30 -154.667 90 -204c56 -46 127.667 -69 215 -69c138.667 0 235.667 51.667 291 155
c23.333 42.667 39.666 95.334 48.999 158.001c8 51.333 12 112.333 12 183v90h-152zM1091 306.998c0 -74 4.99902 -134.668 14.999 -182.001c12 -57.333 31 -90 57 -98c10.667 -4.66699 16 -10.334 16 -17.001c0 -9.33301 -6.33301 -14 -19 -14l-99 3
c-4.66699 0 -11.334 -0.333008 -20.001 -1l-36 -2c-16.667 0 -25 5.33301 -25 16c0 18.667 -5 50 -15 94l-12 52c-4 18.667 -6.66699 34.334 -8 47.001h-4c-42 -84 -101.333 -145.333 -178 -184c-68.667 -34.667 -153.334 -52 -254.001 -52
c-111.333 0 -208.666 26.667 -291.999 80c-96 62 -144 144.667 -144 248c0 73.333 25.667 136 77 188c43.333 45.333 105 82 185 110c66 22.667 142.667 39.334 230 50.001c66.667 8 135.334 12 206.001 12h156c0 129.333 -22 224 -66 284
c-51.333 68.667 -138.666 103 -261.999 103c-84.667 0 -165.667 -19.667 -243 -59c-91.333 -46 -141.333 -106 -150 -180c0 -5.33301 -3.33301 -8 -10 -8c-4 0 -6.66699 2 -8 6l-56 194c76.667 33.333 157 58.666 241 75.999c76 15.333 149.333 23 220 23
c177.333 0 307 -37 389 -111c72.667 -65.333 109 -161.666 109 -288.999v-389zM1017 1765c-28 -143.333 -102.999 -215.001 -224.999 -215.001c-25.333 0 -51.666 5 -78.999 15c-20 6.66699 -44.333 17.334 -73 32.001l-8 5c-0.666992 0 -2.33398 0.666992 -5.00098 2l-4 2
l-16 8l-32 14c-22.667 9.33301 -42.667 14 -60 14c-58.667 0 -96.334 -30.667 -113.001 -92h-61c14.667 62.667 37.667 111 69 145c36.667 40 84.667 60 144 60c24 0 50.333 -4.66699 79 -14c20 -6.66699 45.667 -17 77 -31c32 -16 55.333 -27 70 -33
c24.667 -9.33301 45.667 -14 63 -14c58 0 96 34 114 102h60zM384.002 1463c32 -91.333 107.667 -137 227 -137c118.667 0 194 45.667 226 137h73c-8 -61.333 -32.667 -114.666 -74 -159.999c-56 -61.333 -131 -92 -225 -92c-94.667 0 -169.667 30.667 -225 92
c-42 45.333 -67 98.666 -75 159.999h73z" />
    <glyph glyph-name="uni1EB6" unicode="&#x1eb6;" 
d="M743 1133l-247 -443h479zM471 639l-131 -248.001c-25.333 -46.667 -45.333 -89.667 -60 -129c-20 -52.667 -30 -97 -30 -133c0 -35.333 17 -65.333 51 -90l38 -20c12.667 -5.33301 19 -10.333 19 -15c0 -5.33301 -10 -8 -30 -8l-181 3l-112 -3
c-12.667 0 -21 0.333008 -25 1c-8 1.33301 -12 4.33301 -12 9s5.66699 11.334 17 20.001c1.33301 0.666992 3.66602 2.33398 6.99902 5.00098l19 14c36.667 34.667 76.334 84.334 119.001 149.001l90 150l541 995c4 8.66699 8.66699 13 14 13h4
c9.33301 0 14 -4.33301 14 -13l605 -1163c31.333 -61.333 74.333 -110.333 129 -147c20 -14 30 -21.667 30 -23c0 -2.66699 -1 -5 -3 -7c-3.33301 -2 -9 -3 -17 -3l-244 3c-12 0 -30 -0.333008 -54 -1l-102 -2c-10.667 0 -16 2 -16 6c0 5.33301 4 9.66602 12 12.999
c1.33301 0.666992 5.33301 2.33398 12 5.00098l15 7c24.667 13.333 37 37.666 37 72.999c0 26 -9.66699 64.333 -29 115c-16.667 43.333 -40 94.666 -70 153.999l-133 270h-524zM734 -180.001c66 0 99 -33.333 99 -100c0 -65.333 -33 -98 -99 -98
c-66.667 0 -100 32.667 -100 98c0 66.667 33.333 100 100 100zM572 1697c32 -91.333 107.667 -137 227 -137c118.667 0 194 45.667 226 137h73c-8 -61.333 -32.667 -114.666 -74 -159.999c-56 -61.333 -131 -92 -225 -92c-94.667 0 -170 30.667 -226 92
c-41.333 45.333 -66 98.666 -74 159.999h73z" />
    <glyph glyph-name="uni1EB7" unicode="&#x1eb7;" horiz-adv-x="1251" 
d="M775 606c-62.667 0 -119.332 -3.33496 -169.999 -10.002c-64 -9.33301 -118.667 -24 -164 -44c-114 -51.333 -171 -137.666 -171 -258.999c0 -86.667 30 -154.667 90 -204c56 -46 127.667 -69 215 -69c138.667 0 235.667 51.667 291 155
c23.333 42.667 39.666 95.334 48.999 158.001c8 51.333 12 112.333 12 183v90h-152zM1091 306.998c0 -74 4.99902 -134.668 14.999 -182.001c12 -57.333 31 -90 57 -98c10.667 -4.66699 16 -10.334 16 -17.001c0 -9.33301 -6.33301 -14 -19 -14l-99 3
c-4.66699 0 -11.334 -0.333008 -20.001 -1l-36 -2c-16.667 0 -25 5.33301 -25 16c0 18.667 -5 50 -15 94l-12 52c-4 18.667 -6.66699 34.334 -8 47.001h-4c-42 -84 -101.333 -145.333 -178 -184c-68.667 -34.667 -153.334 -52 -254.001 -52
c-111.333 0 -208.666 26.667 -291.999 80c-96 62 -144 144.667 -144 248c0 73.333 25.667 136 77 188c43.333 45.333 105 82 185 110c66 22.667 142.667 39.334 230 50.001c66.667 8 135.334 12 206.001 12h156c0 129.333 -22 224 -66 284
c-51.333 68.667 -138.666 103 -261.999 103c-84.667 0 -165.667 -19.667 -243 -59c-91.333 -46 -141.333 -106 -150 -180c0 -5.33301 -3.33301 -8 -10 -8c-4 0 -6.66699 2 -8 6l-56 194c76.667 33.333 157 58.666 241 75.999c76 15.333 149.333 23 220 23
c177.333 0 307 -37 389 -111c72.667 -65.333 109 -161.666 109 -288.999v-389zM629.001 -180.003c66 0 99 -33.333 99 -100c0 -65.333 -33 -98 -99 -98c-66.667 0 -100 32.667 -100 98c0 66.667 33.333 100 100 100zM384.001 1463c32 -91.333 107.667 -137 227 -137
c118.667 0 194 45.667 226 137h73c-8 -61.333 -32.667 -114.666 -74 -159.999c-56 -61.333 -131 -92 -225 -92c-94.667 0 -169.667 30.667 -225 92c-42 45.333 -67 98.666 -75 159.999h73z" />
    <glyph glyph-name="uni1EB8" unicode="&#x1eb8;" horiz-adv-x="1441" 
d="M360 412c0 -37.333 1.33203 -77.001 3.99902 -119.001l11 -119c6 -54 27.667 -88.667 65 -104c32.667 -12.667 103.667 -19 213 -19c58.667 0 109.667 1 153 3c56 2.66699 107.667 7.66699 155 15c114.667 16 212 46.333 292 91c29.333 16 53.666 33.667 72.999 53l50 57
c6.66699 7.33301 13 11 19 11c6.66699 0 10 -3.66699 10 -11l-1 -10l-85 -260h-1245c-19.333 0 -29 2 -29 6c0 10.667 12.333 19 37 25c41.333 11.333 70.333 62 87 152c6 32.667 10.333 70 13 112l2 50v757c0 48 -3.66699 83.667 -11 107
c-11.333 34.667 -33.666 60.334 -66.999 77.001c-9.33301 4.66699 -14 8.66699 -14 12c0 6 5 9.66699 15 11c3.33301 0.666992 8 1.33398 14 2.00098h1104l62 -206c8.66699 -32 13 -50 13 -54c0 -6 -4 -9 -12 -9c-5.33301 0 -12 7 -20 21c-50 72 -121 123.667 -213 155
c-82 28 -189.333 42 -322 42h-373v-531h199c272.667 0 429 19 469 57c23.333 23.333 42.333 52 57 86c4.66699 7.33301 9.66699 11 15 11c6.66699 0 10 -11 10 -33l-1 -322c-1.33301 -8 -3.66602 -12 -6.99902 -12c-4 0 -8.33301 3.33301 -13 10
c-16.667 37.333 -39.667 66 -69 86c-42.667 28.667 -116.667 48 -222 58c-38.667 3.33301 -82 5.66602 -130 6.99902l-308 1v-266zM733.999 -180.001c66 0 99 -33.333 99 -100c0 -65.333 -33 -98 -99 -98c-66.667 0 -100 32.667 -100 98c0 66.667 33.333 100 100 100z" />
    <glyph glyph-name="uni1EB9" unicode="&#x1eb9;" horiz-adv-x="1290" 
d="M284 676c-2 -8.66699 -3.66504 -16.667 -4.99805 -24l-4 -26c-2 -18.667 -3 -35.667 -3 -51c0 -164 32 -292.667 96 -386c74.667 -106.667 188 -160 340 -160c71.333 0 138.666 15.667 201.999 47c52.667 26.667 100.667 63.334 144 110.001
c34.667 36.667 64 77.334 88 122.001c19.333 35.333 31 63.666 35 84.999c1.33301 7.33301 4 13.666 8 18.999c4.66699 6.66699 10.667 10 18 10c11.333 0 17 -6.33301 17 -19c0 -15.333 -3.33301 -32.333 -10 -51c-37.333 -119.333 -109.666 -213.333 -216.999 -282
c-104 -67.333 -225.667 -101 -365 -101c-156.667 0 -288.667 57.333 -396 172c-104.667 112.667 -157 248 -157 406c0 142.667 51.333 267.667 154 375c111.333 116 252.666 174 423.999 174c141.333 0 262.666 -35.667 363.999 -107c110 -76.667 170.667 -181 182 -313
h-915zM1003 727c0 97.333 -32.333 175 -97 233c-62 56 -142.333 84 -241 84c-203.333 0 -329 -105.667 -377 -317h715zM656.002 -180c66 0 99 -33.333 99 -100c0 -65.333 -33 -98 -99 -98c-66.667 0 -100 32.667 -100 98c0 66.667 33.333 100 100 100z" />
    <glyph glyph-name="uni1EBA" unicode="&#x1eba;" horiz-adv-x="1441" 
d="M360 412c0 -37.333 1.33203 -77.001 3.99902 -119.001l11 -119c6 -54 27.667 -88.667 65 -104c32.667 -12.667 103.667 -19 213 -19c58.667 0 109.667 1 153 3c56 2.66699 107.667 7.66699 155 15c114.667 16 212 46.333 292 91c29.333 16 53.666 33.667 72.999 53l50 57
c6.66699 7.33301 13 11 19 11c6.66699 0 10 -3.66699 10 -11l-1 -10l-85 -260h-1245c-19.333 0 -29 2 -29 6c0 10.667 12.333 19 37 25c41.333 11.333 70.333 62 87 152c6 32.667 10.333 70 13 112l2 50v757c0 48 -3.66699 83.667 -11 107
c-11.333 34.667 -33.666 60.334 -66.999 77.001c-9.33301 4.66699 -14 8.66699 -14 12c0 6 5 9.66699 15 11c3.33301 0.666992 8 1.33398 14 2.00098h1104l62 -206c8.66699 -32 13 -50 13 -54c0 -6 -4 -9 -12 -9c-5.33301 0 -12 7 -20 21c-50 72 -121 123.667 -213 155
c-82 28 -189.333 42 -322 42h-373v-531h199c272.667 0 429 19 469 57c23.333 23.333 42.333 52 57 86c4.66699 7.33301 9.66699 11 15 11c6.66699 0 10 -11 10 -33l-1 -322c-1.33301 -8 -3.66602 -12 -6.99902 -12c-4 0 -8.33301 3.33301 -13 10
c-16.667 37.333 -39.667 66 -69 86c-42.667 28.667 -116.667 48 -222 58c-38.667 3.33301 -82 5.66602 -130 6.99902l-308 1v-266zM525.999 1781c58.667 23.333 114.332 35 166.999 35c56.667 0 104 -11.333 142 -34c46 -28 69 -67.333 69 -118c0 -26 -11 -51.333 -33 -76
c-8 -8.66699 -18.333 -18.334 -31 -29.001l-35 -27c-14.667 -12 -26 -21.667 -34 -29c-10.667 -9.33301 -19.667 -18.666 -27 -27.999c-16.667 -20.667 -24 -46.667 -22 -78h-47c-2 32.667 3.66699 62.667 17 90c4.66699 10 11.334 21.667 20.001 35
c5.33301 6.66699 13 17 23 31l24 32c8 12 14.667 23.333 20 34c12.667 23.333 19 46.333 19 69c0 58.667 -31.667 88 -95 88c-58.667 0 -105.667 -43.667 -141 -131z" />
    <glyph glyph-name="uni1EBB" unicode="&#x1ebb;" horiz-adv-x="1290" 
d="M284 676c-2 -8.66699 -3.66504 -16.667 -4.99805 -24l-4 -26c-2 -18.667 -3 -35.667 -3 -51c0 -164 32 -292.667 96 -386c74.667 -106.667 188 -160 340 -160c71.333 0 138.666 15.667 201.999 47c52.667 26.667 100.667 63.334 144 110.001
c34.667 36.667 64 77.334 88 122.001c19.333 35.333 31 63.666 35 84.999c1.33301 7.33301 4 13.666 8 18.999c4.66699 6.66699 10.667 10 18 10c11.333 0 17 -6.33301 17 -19c0 -15.333 -3.33301 -32.333 -10 -51c-37.333 -119.333 -109.666 -213.333 -216.999 -282
c-104 -67.333 -225.667 -101 -365 -101c-156.667 0 -288.667 57.333 -396 172c-104.667 112.667 -157 248 -157 406c0 142.667 51.333 267.667 154 375c111.333 116 252.666 174 423.999 174c141.333 0 262.666 -35.667 363.999 -107c110 -76.667 170.667 -181 182 -313
h-915zM1003 727c0 97.333 -32.333 175 -97 233c-62 56 -142.333 84 -241 84c-203.333 0 -329 -105.667 -377 -317h715zM480.002 1576c59.333 23.333 115.334 35 168.001 35c56 0 103 -11.333 141 -34c46 -28 69 -67.333 69 -118c0 -26 -11 -51.333 -33 -76
c-8 -8.66699 -18.333 -18.334 -31 -29.001l-34 -27c-15.333 -12 -27 -21.667 -35 -29c-10.667 -9.33301 -19.667 -18.666 -27 -27.999c-16.667 -20.667 -23.667 -46.667 -21 -78h-48c-2 32.667 3.66699 62.667 17 90c5.33301 10 12.333 21.667 21 35l22 31l24 32
c8 12 15 23.333 21 34c12.667 23.333 19 46.333 19 69c0 58.667 -32 88 -96 88c-58.667 0 -105.334 -43.667 -140.001 -131z" />
    <glyph glyph-name="uni1EBC" unicode="&#x1ebc;" horiz-adv-x="1441" 
d="M360 412c0 -37.333 1.33203 -77.001 3.99902 -119.001l11 -119c6 -54 27.667 -88.667 65 -104c32.667 -12.667 103.667 -19 213 -19c58.667 0 109.667 1 153 3c56 2.66699 107.667 7.66699 155 15c114.667 16 212 46.333 292 91c29.333 16 53.666 33.667 72.999 53l50 57
c6.66699 7.33301 13 11 19 11c6.66699 0 10 -3.66699 10 -11l-1 -10l-85 -260h-1245c-19.333 0 -29 2 -29 6c0 10.667 12.333 19 37 25c41.333 11.333 70.333 62 87 152c6 32.667 10.333 70 13 112l2 50v757c0 48 -3.66699 83.667 -11 107
c-11.333 34.667 -33.666 60.334 -66.999 77.001c-9.33301 4.66699 -14 8.66699 -14 12c0 6 5 9.66699 15 11c3.33301 0.666992 8 1.33398 14 2.00098h1104l62 -206c8.66699 -32 13 -50 13 -54c0 -6 -4 -9 -12 -9c-5.33301 0 -12 7 -20 21c-50 72 -121 123.667 -213 155
c-82 28 -189.333 42 -322 42h-373v-531h199c272.667 0 429 19 469 57c23.333 23.333 42.333 52 57 86c4.66699 7.33301 9.66699 11 15 11c6.66699 0 10 -11 10 -33l-1 -322c-1.33301 -8 -3.66602 -12 -6.99902 -12c-4 0 -8.33301 3.33301 -13 10
c-16.667 37.333 -39.667 66 -69 86c-42.667 28.667 -116.667 48 -222 58c-38.667 3.33301 -82 5.66602 -130 6.99902l-308 1v-266zM1037 1669c-28 -143.333 -103.001 -215.001 -225.001 -215.001c-25.333 0 -51.666 4.66699 -78.999 14c-20 7.33301 -44.333 18.333 -73 33
l-8 4c-0.666992 0.666992 -2 1.66699 -4 3c-2 0.666992 -3.66699 1.33398 -5 2.00098l-16 8l-32 14c-22.667 9.33301 -42.667 14 -60 14c-58.667 0 -96 -30.667 -112 -92h-62c14.667 62.667 37.667 111 69 145c36.667 40 84.667 60 144 60c24 0 50.333 -4.66699 79 -14
c20 -6.66699 45.667 -17 77 -31c32 -16 55.333 -27 70 -33c24.667 -9.33301 45.667 -14 63 -14c58 0 96.333 34 115 102h59z" />
    <glyph glyph-name="uni1EBD" unicode="&#x1ebd;" horiz-adv-x="1290" 
d="M284 676c-2 -8.66699 -3.66504 -16.667 -4.99805 -24l-4 -26c-2 -18.667 -3 -35.667 -3 -51c0 -164 32 -292.667 96 -386c74.667 -106.667 188 -160 340 -160c71.333 0 138.666 15.667 201.999 47c52.667 26.667 100.667 63.334 144 110.001
c34.667 36.667 64 77.334 88 122.001c19.333 35.333 31 63.666 35 84.999c1.33301 7.33301 4 13.666 8 18.999c4.66699 6.66699 10.667 10 18 10c11.333 0 17 -6.33301 17 -19c0 -15.333 -3.33301 -32.333 -10 -51c-37.333 -119.333 -109.666 -213.333 -216.999 -282
c-104 -67.333 -225.667 -101 -365 -101c-156.667 0 -288.667 57.333 -396 172c-104.667 112.667 -157 248 -157 406c0 142.667 51.333 267.667 154 375c111.333 116 252.666 174 423.999 174c141.333 0 262.666 -35.667 363.999 -107c110 -76.667 170.667 -181 182 -313
h-915zM1003 727c0 97.333 -32.333 175 -97 233c-62 56 -142.333 84 -241 84c-203.333 0 -329 -105.667 -377 -317h715zM1044 1462c-28 -143.333 -102.999 -215.001 -224.999 -215.001c-25.333 0 -51.666 5 -78.999 15c-20 6.66699 -44.333 17.334 -73 32.001l-8 5
c-0.666992 0 -2.33398 0.666992 -5.00098 2l-4 2l-16 8l-32 14c-22.667 9.33301 -42.667 14 -60 14c-58.667 0 -96.334 -30.667 -113.001 -92h-61c14.667 62.667 37.667 111 69 145c36.667 40 84.667 60 144 60c24 0 50.333 -4.66699 79 -14c20 -6.66699 45.667 -17 77 -31
c32 -16 55.333 -27 70 -33c24.667 -9.33301 45.667 -14 63 -14c58 0 96 34 114 102h60z" />
    <glyph glyph-name="uni1EBE" unicode="&#x1ebe;" horiz-adv-x="1441" 
d="M360 412c0 -37.333 1.33203 -77.001 3.99902 -119.001l11 -119c6 -54 27.667 -88.667 65 -104c32.667 -12.667 103.667 -19 213 -19c58.667 0 109.667 1 153 3c56 2.66699 107.667 7.66699 155 15c114.667 16 212 46.333 292 91c29.333 16 53.666 33.667 72.999 53l50 57
c6.66699 7.33301 13 11 19 11c6.66699 0 10 -3.66699 10 -11l-1 -10l-85 -260h-1245c-19.333 0 -29 2 -29 6c0 10.667 12.333 19 37 25c41.333 11.333 70.333 62 87 152c6 32.667 10.333 70 13 112l2 50v757c0 48 -3.66699 83.667 -11 107
c-11.333 34.667 -33.666 60.334 -66.999 77.001c-9.33301 4.66699 -14 8.66699 -14 12c0 6 5 9.66699 15 11c3.33301 0.666992 8 1.33398 14 2.00098h1104l62 -206c8.66699 -32 13 -50 13 -54c0 -6 -4 -9 -12 -9c-5.33301 0 -12 7 -20 21c-50 72 -121 123.667 -213 155
c-82 28 -189.333 42 -322 42h-373v-531h199c272.667 0 429 19 469 57c23.333 23.333 42.333 52 57 86c4.66699 7.33301 9.66699 11 15 11c6.66699 0 10 -11 10 -33l-1 -322c-1.33301 -8 -3.66602 -12 -6.99902 -12c-4 0 -8.33301 3.33301 -13 10
c-16.667 37.333 -39.667 66 -69 86c-42.667 28.667 -116.667 48 -222 58c-38.667 3.33301 -82 5.66602 -130 6.99902l-308 1v-266zM884.999 1669l303 301c32 34 62.667 51 92 51c44 0 66 -23.333 66 -70c0 -22.667 -24 -52 -72 -88l-303 -194h-86zM462.999 1401h-72l254 342
h129l256 -342h-72l-247 211z" />
    <glyph glyph-name="uni1EBF" unicode="&#x1ebf;" horiz-adv-x="1290" 
d="M284 676c-2 -8.66699 -3.66504 -16.667 -4.99805 -24l-4 -26c-2 -18.667 -3 -35.667 -3 -51c0 -164 32 -292.667 96 -386c74.667 -106.667 188 -160 340 -160c71.333 0 138.666 15.667 201.999 47c52.667 26.667 100.667 63.334 144 110.001
c34.667 36.667 64 77.334 88 122.001c19.333 35.333 31 63.666 35 84.999c1.33301 7.33301 4 13.666 8 18.999c4.66699 6.66699 10.667 10 18 10c11.333 0 17 -6.33301 17 -19c0 -15.333 -3.33301 -32.333 -10 -51c-37.333 -119.333 -109.666 -213.333 -216.999 -282
c-104 -67.333 -225.667 -101 -365 -101c-156.667 0 -288.667 57.333 -396 172c-104.667 112.667 -157 248 -157 406c0 142.667 51.333 267.667 154 375c111.333 116 252.666 174 423.999 174c141.333 0 262.666 -35.667 363.999 -107c110 -76.667 170.667 -181 182 -313
h-915zM1003 727c0 97.333 -32.333 175 -97 233c-62 56 -142.333 84 -241 84c-203.333 0 -329 -105.667 -377 -317h715zM845.002 1461l303 300.999c32 34 63 51 93 51c43.333 0 65 -23 65 -69c0 -23.333 -24 -52.666 -72 -87.999l-303 -195h-86zM424.002 1194h-72l254 342
h129l256 -342h-71l-248 211z" />
    </font>
</defs>
</svg>
